<?xml version="1.0" encoding="utf-8"?>
<!-- Generator: Adobe Illustrator 24.2.2, SVG Export Plug-In . SVG Version: 6.00 Build 0)  -->
<svg version="1.1" id="Layer_1" xmlns="http://www.w3.org/2000/svg" xmlns:xlink="http://www.w3.org/1999/xlink" x="0px" y="0px"
	 viewBox="0 0 296.4 157.6" style="enable-background:new 0 0 296.4 157.6;" xml:space="preserve">
<style type="text/css">
	.st0{fill:none;}
	.st1{fill:#FFFFFF;}
</style>
<rect class="st0" width="296.4" height="157.6"/>
<g id="Group_145" transform="translate(-275.227 -273.514)">
	<path id="Path_683" class="st1" d="M493.4,346.9c0,18.6,0,37.2,0,55.8c0,0.3,0,0.5-0.1,0.8c-0.1,0.2,0,0.5-0.1,0.7
		c-0.1,0.3-0.1,0.6-0.1,1c0,0.4-0.2,0.9-0.3,1.3c-0.1,0.4-0.2,0.7-0.3,1.1c-0.1,0.3-0.2,0.7-0.3,1c-0.1,0.2-0.3,0.4-0.2,0.7
		c-0.3,0.8-0.8,1.6-1.2,2.3c-0.4,0.8-0.9,1.5-1.4,2.2c-0.2,0.2-0.3,0.4-0.5,0.6c-0.3,0.4-0.7,0.8-1.1,1.2c-0.4,0.4-0.8,0.8-1.3,1.3
		c-0.5,0.4-1,0.9-1.5,1.2c-0.6,0.5-1.2,0.9-1.9,1.3c-0.6,0.4-1.2,0.8-1.9,1c-0.5,0.3-0.9,0.5-1.5,0.6c-0.5,0.2-1,0.4-1.5,0.5
		c-0.1,0.2-0.3,0-0.4,0.1c-0.1,0.1-0.3,0.1-0.4,0.1c-0.1,0-0.3,0.1-0.4,0.1c-0.5,0.1-1,0.2-1.5,0.2c-0.4,0.2-0.8,0.1-1.2,0.2
		c-0.4,0.1-0.8,0.1-1.3,0.1c-0.4,0-0.9,0-1.3,0c-36.3,0-72.6,0-108.9,0c-0.3,0.1-0.5,0-0.8-0.1c-0.2-0.1-0.5,0.1-0.7-0.1
		c-0.5,0-0.9-0.1-1.4-0.3c-0.6-0.2-1.3-0.5-1.8-0.9c-0.8-0.5-1.5-1.1-2.1-1.7c-0.4-0.4-0.8-0.9-1-1.4c-0.1-0.2-0.2-0.3-0.3-0.5
		c-0.4-0.6-0.5-1.4-0.8-2c-0.1-0.2,0-0.4-0.1-0.6c-0.1-0.3-0.2-0.7-0.1-1c0-37.2,0-74.4,0-111.6c0-0.2,0.1-0.5,0.1-0.7
		c0-0.3,0-0.5,0.1-0.7c0.1-0.2,0-0.6,0.1-0.8c0-0.4,0.1-0.9,0.2-1.3c0.1-0.4,0.2-0.8,0.3-1.2c0.1-0.4,0.2-0.8,0.4-1.1
		c0.4-0.8,0.7-1.6,1-2.3c0.3-0.6,0.7-1.1,1-1.7c0.4-0.4,0.8-0.9,1.1-1.5c0.8-1,1.7-1.9,2.6-2.8c0.3-0.3,0.7-0.5,1-0.8
		c0.4-0.3,0.8-0.6,1.1-0.9c0.3-0.2,0.7-0.5,1-0.7c0.7-0.4,1.4-0.8,2.1-1.1c0.8-0.4,1.6-0.7,2.4-0.9c0.4-0.1,0.9-0.3,1.4-0.4
		c0.5-0.1,1-0.2,1.5-0.3c0.4-0.1,0.9-0.1,1.3-0.1c2-0.1,3.9-0.2,5.9-0.1c2,0,3.9,0,5.9,0h94.5c2,0,4,0,5.9,0c1.1,0,2.1,0.3,3.1,0.7
		c0.6,0.3,1.2,0.6,1.8,1c0.3,0.2,0.5,0.4,0.8,0.6c0.3,0.3,0.7,0.7,1,1c0.4,0.4,0.7,0.8,0.9,1.3c0.1,0.2,0.2,0.4,0.3,0.5
		c0.3,0.7,0.6,1.3,0.8,2c0.1,0.2,0,0.4,0.1,0.6c0,0.4,0.1,0.9,0.1,1.3C493.4,309.9,493.4,328.4,493.4,346.9z M357.1,357.7
		c0,18.3,0,36.7,0,55c0,0.5,0.1,1,0.2,1.5c0.2,0.7,0.5,1.3,0.9,1.9c0.4,0.5,0.8,1,1.3,1.4c0,0,0,0,0,0c0.6,0.4,1.2,0.6,1.8,0.8
		c0.3,0.1,0.5,0.2,0.8,0.2c0.3,0,0.6,0.1,0.9,0.1c34.7,0,69.3,0,104,0c1.1,0,2.2,0,3.4,0c1.1,0.1,2.2,0,3.4-0.1
		c0.3-0.1,0.6,0,0.9-0.1c0.3-0.1,0.6-0.1,1-0.1c0.7-0.1,1.3-0.3,1.9-0.5c0.8-0.2,1.6-0.6,2.4-0.9c0.6-0.3,1.3-0.7,1.9-1
		c0.5-0.3,0.9-0.6,1.4-1c0.3-0.2,0.6-0.6,0.9-0.8c0.4-0.3,0.6-0.7,1-1c0.1-0.2,0.3-0.4,0.4-0.5c0.2-0.2,0.3-0.4,0.5-0.6
		c0.4-0.5,0.7-1,1.1-1.5c0.3-0.4,0.5-0.8,0.7-1.2c0.3-0.5,0.5-1,0.7-1.5c0.1-0.3,0.2-0.5,0.3-0.8c0.1-0.3,0.2-0.6,0.3-0.8
		c0.2-0.5,0.3-1.1,0.4-1.6c0-0.3,0-0.6,0.1-0.9c0.1-0.3,0.1-0.5,0.1-0.8c0.1-0.3,0.1-0.6,0.1-0.8c0-36.6,0-73.3,0-109.9
		c0-0.3,0-0.6,0-0.8c-0.1-0.3,0-0.6-0.2-0.8c-0.2-0.9-0.6-1.7-1.2-2.3c-0.1-0.1-0.1-0.3-0.3-0.3c-0.1,0-0.2-0.2-0.4-0.3
		c-0.6-0.6-1.4-1-2.2-1.2c-0.6-0.2-1.2-0.3-1.9-0.2c-36.3,0-72.7,0-109,0c-0.8,0-1.6,0.1-2.4,0.1c0,0,0,0-0.1,0
		c-0.5,0.2-1,0.3-1.5,0.3c-0.6,0.1-1.1,0.3-1.6,0.4c-0.6,0.2-1.2,0.4-1.8,0.7c-1,0.4-1.9,0.9-2.7,1.5c-0.9,0.7-1.8,1.4-2.6,2.2
		c-0.2,0.2-0.4,0.4-0.5,0.6c-0.3,0.3-0.6,0.6-0.8,0.9c-0.1,0.2-0.2,0.4-0.4,0.6c-0.4,0.5-0.7,1.1-1,1.7c-0.3,0.6-0.6,1.1-0.8,1.7
		c-0.3,0.6-0.5,1.3-0.6,1.9c-0.1,0.4-0.2,0.8-0.3,1.3c0,0.3,0,0.6-0.1,0.8c-0.1,0.3,0,0.7-0.1,1c-0.1,0.3-0.1,0.7-0.1,1
		C357.1,321.2,357.1,339.4,357.1,357.7L357.1,357.7z"/>
	<path id="Path_684" class="st1" d="M386.2,386.6v-8c0-0.2,0-0.3,0.2-0.4c0.1-0.1,0.3-0.1,0.4-0.1c0.6-0.1,1.2,0,1.8,0.3
		c0.3,0.2,0.5,0.5,0.6,0.9c0,0.1,0,0.2,0,0.2v12.1h-2.5l-5.2-8c0,0.2,0,0.3,0,0.4c0,2.3,0,4.6,0,6.9c0,0.1,0,0.2,0,0.3
		c0,0.2-0.1,0.3-0.3,0.3c-0.1,0-0.3,0-0.4,0c-0.7,0-1.3,0-2,0c-0.3,0-0.4-0.1-0.4-0.4c0-2.3,0-4.5,0-6.8v-5.6c0-0.1,0-0.3,0-0.4
		c0-0.1,0.1-0.2,0.2-0.2c0.2-0.1,0.4-0.1,0.7-0.1c0.2,0,0.4,0,0.7,0c0.7,0,1.3,0.3,1.6,0.9c0.5,0.8,1,1.7,1.6,2.6
		c0.3,0.6,0.7,1.1,1,1.6c0.3,0.6,0.7,1.1,1,1.7c0.2,0.4,0.5,0.8,0.7,1.2L386.2,386.6z"/>
	<path id="Path_685" class="st1" d="M382.8,365.9H382v2.3c0,0.7,0,1.5,0,2.2c0,0.1,0,0.3-0.1,0.4c-1,0-1.9,0-2.8,0
		c-0.1,0-0.3-0.1-0.3-0.2c0,0,0,0,0,0c0-0.1,0-0.2,0-0.3v-12.2c0-0.1,0-0.1,0-0.2c0-0.3,0.1-0.3,0.4-0.4c0.4,0,0.8-0.1,1.1-0.1
		s0.8,0,1.2,0c0.6-0.1,1.3-0.2,1.9,0c0.3,0.1,0.7,0,1.1,0.1c0.3,0.1,0.6,0.2,1,0.2c0.3,0.1,0.6,0.2,0.9,0.4c0.3,0.1,0.5,0.4,0.8,0.5
		c0.4,0.5,0.7,1,0.9,1.6c0.1,0.7,0.1,1.3,0.1,2c-0.1,0.6-0.3,1.2-0.7,1.7c-0.4,0.6-1,1.1-1.7,1.4c0.6,1,1.1,2,1.7,2.9
		c0.3,0.5,0.5,1,0.8,1.4c0.2,0.3,0.3,0.5,0.5,0.7c0.1,0.2,0.1,0.4-0.2,0.5c-0.3,0.1-0.7,0.2-1.1,0.2c-0.1,0-0.2,0-0.3,0.1
		c-0.1,0.1-0.2,0.1-0.3,0c-0.1,0-0.1-0.1-0.2-0.1c-0.7,0-1.4-0.4-1.7-1c-0.5-0.8-1-1.6-1.5-2.5C383.4,366.9,383.1,366.4,382.8,365.9
		z M381.9,361.5c0,0.6,0,1.2,0,1.8c0,0.2,0.1,0.3,0.3,0.3c0.3,0,0.7,0,1,0c0.2,0,0.3-0.1,0.5-0.1c0.4-0.1,0.8-0.4,1-0.8
		c0.2-0.3,0.3-0.7,0.3-1c0-0.4-0.1-0.9-0.2-1.3c-0.1-0.3-0.4-0.5-0.6-0.6c-0.3-0.2-0.7-0.3-1.1-0.3c-0.2,0-0.5,0-0.7,0
		c-0.3,0-0.4,0.1-0.4,0.4C381.9,360.4,381.9,361,381.9,361.5z"/>
	<path id="Path_686" class="st1" d="M424.8,386.7v4.9h-3v-0.4c0-4.1,0-8.3,0-12.4c0-0.6,0-0.6,0.6-0.6c0.5,0,0.9-0.1,1.4-0.1
		c0.5,0,0.9,0,1.4,0s0.9,0,1.4,0c0.5,0,1.1,0.1,1.6,0.3c0.4,0.1,0.9,0.3,1.2,0.5c0.7,0.4,1.2,1.1,1.4,1.9c0.2,0.6,0.3,1.2,0.2,1.8
		c0,0.8-0.4,1.6-0.9,2.3c-0.4,0.5-0.9,0.9-1.5,1.2c0.2,0.4,0.4,0.8,0.7,1.2c0.3,0.5,0.5,0.9,0.8,1.4c0.4,0.7,0.8,1.4,1.3,2
		c0.1,0.2,0.3,0.5,0.4,0.7c-0.2,0.3-0.6,0.2-0.8,0.4c-0.3,0.1-0.6,0.1-1,0.1c-0.4,0-0.8-0.1-1.1-0.3c-0.3-0.2-0.6-0.4-0.8-0.7
		c-0.3-0.4-0.5-0.8-0.8-1.3c-0.4-0.8-0.9-1.5-1.3-2.2c0,0-0.1-0.1-0.1-0.1C425.8,386.7,425.3,386.6,424.8,386.7z M424.8,384.4
		c0.2,0,0.5,0,0.7,0c0.4,0,0.7,0,1.1-0.1c0.8-0.2,1.3-0.9,1.3-1.7c0-0.3,0-0.5,0-0.8c0-0.6-0.4-1.1-1-1.3c-0.6-0.2-1.3-0.3-2-0.2
		L424.8,384.4z"/>
	<path id="Path_687" class="st1" d="M365.4,378.2c0.5,0,0.9-0.2,1.3-0.1c0.3,0,0.7,0.1,1,0.3c0.3,0.2,0.6,0.5,0.7,0.9
		c0,0.1,0,0.3,0,0.4c0,2.4,0,4.8,0,7.2c0.1,0.5,0.2,1,0.3,1.5c0.2,0.4,0.6,0.7,1.1,0.9c0.2,0.1,0.4,0,0.6,0.1c0.7,0,1.4-0.2,1.8-0.7
		c0.2-0.2,0.3-0.5,0.4-0.8c0.2-0.7,0.2-1.5,0.2-2.2c0-2.3,0-4.6,0-6.9v-0.4c0.4-0.1,0.9-0.2,1.4-0.2c0.4,0,0.8,0.2,1.2,0.5
		c0.3,0.3,0.5,0.7,0.5,1.2c0,0.7,0,1.3,0,2c0,1.3,0,2.5,0,3.8c0,0.8,0,1.7-0.1,2.5c0,0.6-0.2,1.2-0.6,1.7c-0.2,0.3-0.4,0.5-0.6,0.8
		c-0.5,0.5-1.2,0.9-1.9,1.1c-0.5,0.2-0.9,0.3-1.4,0.2c-0.1,0-0.3,0-0.4,0.1c-0.2,0.1-0.5,0.1-0.7,0c-0.2-0.1-0.4-0.1-0.5,0
		c-0.9,0-1.8-0.3-2.5-0.8c-0.7-0.5-1.2-1.2-1.4-2c0-0.1-0.1-0.2-0.1-0.3c0-0.3-0.1-0.5-0.1-0.8c-0.1-1.3-0.2-2.6-0.1-3.9
		c0-1.3,0-2.6,0-3.9L365.4,378.2z"/>
	<path id="Path_688" class="st1" d="M369,367.5c-0.3,1-0.7,2-0.9,3c0,0.1-0.2,0.2-0.3,0.3h-2.4c-0.1,0-0.2,0-0.3,0
		c-0.1,0-0.2-0.1-0.1-0.3c0.4-1.2,0.8-2.3,1.2-3.5c0.2-0.6,0.4-1.3,0.7-1.9s0.4-1.3,0.7-1.8c0.3-0.8,0.5-1.6,0.9-2.3
		c0.2-0.6,0.4-1.2,0.6-1.8c0.1-0.5,0.4-1,0.7-1.3c0.4-0.4,0.8-0.6,1.3-0.5c0.1,0,0.2,0,0.3,0c0.9,0,1.7,0.6,2,1.5
		c0.3,0.9,0.6,1.8,1,2.7c0.2,0.6,0.4,1.2,0.6,1.8c0.3,0.9,0.6,1.8,1,2.7c0.1,0.4,0.3,0.7,0.4,1.1c0.2,0.7,0.5,1.4,0.7,2.2
		c0.1,0.4,0.3,0.8,0.4,1.2c0.1,0.3,0,0.4-0.3,0.4c-0.8,0-1.6,0-2.4,0c-0.2,0-0.4-0.1-0.5-0.4c-0.2-0.7-0.4-1.3-0.7-2
		c-0.1-0.2-0.1-0.5-0.2-0.7c0-0.1-0.2-0.1-0.2-0.2c0,0-0.1,0-0.2,0L369,367.5z M371.1,360.5l-1.5,4.6h2.9c-0.1-0.4-0.2-0.8-0.3-1.2
		c-0.1-0.4-0.2-0.8-0.3-1.1c-0.1-0.4-0.2-0.8-0.3-1.1C371.4,361.4,371.3,361,371.1,360.5L371.1,360.5z"/>
	<path id="Path_689" class="st1" d="M411,378.2h8.5c0.1,0.2,0,0.4,0.1,0.6c0.1,0.1,0,0.3,0,0.5c0,0.1-0.1,0.1-0.1,0.2
		c0.1,0.3-0.2,0.5-0.3,0.7c-0.1,0.2-0.4,0.3-0.6,0.3c-0.3,0.1-0.6,0.1-0.9,0.1c-1.1,0-2.2,0-3.3,0h-0.4v2.8h4.1v2.5h-1.5
		c-0.8,0-1.5,0-2.3,0c-0.2,0-0.3,0.1-0.3,0.3c0,1,0,1.9,0,2.9h2.6c0.5,0,1,0,1.6,0c0.4,0,0.8,0.1,1.2,0.4c0.3,0.2,0.4,0.5,0.5,0.8
		c0,0.3,0,0.7,0,1c0,0.1-0.1,0.3-0.2,0.3c0,0,0,0,0,0c-0.1,0-0.3,0-0.4,0c-2.3,0-4.6,0-6.9,0c-0.5,0-0.9-0.2-1.2-0.5
		c0,0-0.1-0.1-0.1-0.1L411,378.2z"/>
	<path id="Path_690" class="st1" d="M402.5,367.3c0.4,0.2,0.7,0.4,1,0.6c0.5,0.4,1.1,0.6,1.7,0.6c0.5,0.2,1,0.2,1.5,0
		c0.7-0.1,1.1-0.7,1.2-1.4c0-0.4-0.1-0.8-0.4-1.1c-0.1-0.1-0.2-0.2-0.4-0.3c-0.5-0.3-1-0.5-1.5-0.7c-0.4-0.2-0.8-0.3-1.2-0.4
		c-0.2-0.1-0.4-0.1-0.6-0.2c-0.2-0.1-0.4-0.2-0.5-0.3c-0.3-0.2-0.6-0.5-0.9-0.9c-0.4-0.5-0.6-1.2-0.6-1.8c0-0.2,0-0.3,0-0.5
		c0-1.3,0.7-2.5,1.9-3.1c0.2-0.1,0.3-0.2,0.5-0.3c0.2-0.1,0.4-0.1,0.5-0.2c0.2-0.1,0.4,0.1,0.5-0.2c0.7-0.1,1.3-0.1,2-0.1
		c0.5,0.1,0.9,0.1,1.4,0.2c0.4,0.1,0.8,0.3,1.2,0.4c0.4,0.2,0.7,0.4,0.9,0.7c0.2,0.3,0.2,0.6,0.1,0.9c-0.1,0.3-0.3,0.6-0.5,0.9
		c0,0-0.1,0.1-0.1,0.1c-0.2,0.3-0.2,0.3-0.6,0.1c-0.5-0.3-1-0.6-1.6-0.7c-0.4-0.2-0.9-0.2-1.3-0.2c-0.5,0-0.9,0.2-1.3,0.5
		c-0.1,0.1-0.2,0.2-0.3,0.4c0,0.2-0.1,0.3-0.1,0.5c-0.1,0.1,0,0.3,0.1,0.4c0,0.1,0.1,0.2,0.1,0.2c0.5,0.5,1.1,0.8,1.7,1
		c0.5,0.2,1.1,0.4,1.6,0.6c0.5,0.2,1,0.5,1.4,0.8c0.3,0.2,0.5,0.5,0.6,0.8c0.2,0.3,0.3,0.6,0.4,0.9c0.1,0.7,0.1,1.3,0,2
		c-0.1,0.7-0.4,1.3-0.8,1.8c-0.9,1-2.1,1.5-3.4,1.6c-0.3,0-0.6,0.1-1,0.1c-0.3,0-0.5-0.1-0.7-0.1c-0.2,0-0.5,0-0.7,0
		c-0.4-0.1-0.8-0.2-1.2-0.4c-0.2-0.1-0.3-0.1-0.5-0.2c-0.5-0.2-0.8-0.6-0.9-1.1c0-0.1,0.1-0.1,0.1-0.2c0-0.4,0.2-0.7,0.4-1
		C402.2,367.9,402.4,367.6,402.5,367.3z"/>
	<path id="Path_691" class="st1" d="M437,391.9c-0.4,0-0.9-0.1-1.4-0.1c-0.4-0.1-0.8-0.2-1.2-0.4c-0.2,0-0.3-0.1-0.5-0.2
		c-0.7-0.2-1-0.9-0.8-1.6c0-0.1,0.1-0.2,0.2-0.3c0.2-0.3,0.4-0.7,0.6-1c0.2-0.2,0.2-0.2,0.5,0c0.2,0.2,0.5,0.4,0.7,0.5
		c0.4,0.2,0.8,0.4,1.3,0.5c0.2,0.1,0.4,0.1,0.6,0.1c0.2,0,0.4,0,0.6,0c0.4-0.1,0.8-0.2,1.1-0.4c0.2-0.2,0.4-0.4,0.5-0.7
		c0.1-0.3,0.2-0.5,0-0.8c0-0.6-0.4-0.9-0.9-1.2c-0.4-0.2-0.9-0.4-1.3-0.5c-0.6-0.2-1.2-0.4-1.7-0.7c-0.9-0.4-1.6-1.2-1.9-2.2
		c-0.2-0.6-0.2-1.2,0-1.9c0.1-0.7,0.4-1.4,1-1.9c0.5-0.4,1-0.8,1.6-1.1c0.5-0.1,0.9-0.2,1.4-0.2c0.1,0,0.2,0,0.4-0.1
		c0.2,0,0.4,0,0.6,0c0.1,0,0.2,0.1,0.2,0.1c0.5,0,1.1,0.1,1.6,0.2c0.6,0.1,1.2,0.4,1.7,0.9c0.3,0.3,0.4,0.8,0.2,1.2
		c-0.1,0.4-0.3,0.7-0.6,1c-0.2,0.2-0.2,0.2-0.5,0c-0.4-0.3-0.9-0.5-1.4-0.7c-0.3-0.1-0.6-0.1-0.8-0.1c-0.5,0-0.9,0-1.4,0.1
		c-0.6,0.2-1,0.9-0.8,1.5c0.1,0.2,0.2,0.4,0.3,0.5c0.4,0.3,0.8,0.5,1.2,0.7c0.4,0.2,0.8,0.3,1.3,0.5c0.4,0.2,0.8,0.4,1.2,0.6
		c0.9,0.4,1.6,1.2,1.9,2.2c0,0,0,0,0,0c0.1,0.4,0.1,0.9,0.1,1.3c0,0.8-0.3,1.6-0.7,2.3c-0.5,0.8-1.3,1.3-2.2,1.6
		c-0.4,0.1-0.8,0.2-1.2,0.3S437.6,391.9,437,391.9z"/>
	<path id="Path_692" class="st1" d="M396.7,378.3c0.6-0.2,1.2-0.3,1.8-0.3c0.8,0,1.5,0.6,1.8,1.4c0.2,0.7,0.4,1.3,0.6,1.9
		c0.2,0.9,0.6,1.7,0.8,2.6c0.2,0.8,0.5,1.7,0.7,2.5c0.1,0.4,0.2,0.7,0.3,1.1c0,0.1,0.1,0.1,0.2,0.3c0.2-0.8,0.5-1.5,0.6-2.2
		c0.1-0.3,0.2-0.6,0.3-0.9c0.2-0.8,0.5-1.5,0.7-2.2c0.2-0.7,0.4-1.4,0.6-2c0.1-0.5,0.3-1.1,0.6-1.6c0.3-0.5,0.8-0.8,1.4-0.9
		c0.3,0,0.5,0,0.8,0c0.2,0,0.4,0.2,0.7,0.1c0.1,0,0.2,0.1,0.3,0.1c0.1,0.4-0.1,0.7-0.2,1c-0.2,0.6-0.4,1.1-0.6,1.7
		c-0.2,0.5-0.4,1-0.5,1.6c-0.1,0.5-0.3,1-0.5,1.5c-0.2,0.5-0.3,1-0.5,1.5c-0.2,0.5-0.3,0.9-0.5,1.4c-0.3,0.7-0.4,1.4-0.7,2.1
		c-0.1,0.5-0.3,1-0.5,1.4c-0.2,0.6-0.8,1-1.4,1.1c-0.6,0.2-1.3,0.1-1.8-0.3c-0.4-0.3-0.7-0.7-0.8-1.1c-0.4-0.9-0.6-1.8-0.9-2.6
		c-0.3-0.9-0.6-1.8-0.9-2.7c-0.3-0.9-0.7-1.9-1-2.8c-0.3-0.9-0.7-1.9-0.9-2.9c-0.1-0.2-0.2-0.4-0.3-0.7
		C396.7,378.5,396.7,378.4,396.7,378.3z"/>
	<path id="Path_693" class="st1" d="M466.5,391.6c0-1.5,0-3.1,0-4.6c0-0.4-0.1-0.7-0.3-1c-0.1-0.2-0.2-0.3-0.3-0.5
		c-0.4-0.8-0.9-1.6-1.3-2.4c-0.3-0.6-0.6-1.2-0.9-1.8c-0.5-0.8-0.9-1.7-1.4-2.5c0.1-0.2,0.2-0.3,0.4-0.3c0.5-0.2,1.1-0.3,1.6-0.3
		c0.6,0,1.2,0.3,1.5,0.8c0.2,0.4,0.4,0.7,0.6,1.1c0.2,0.4,0.4,0.7,0.5,1.1c0.1,0.3,0.3,0.6,0.4,0.9c0.2,0.3,0.3,0.6,0.5,0.9
		c0.1,0.1,0.1,0.3,0.3,0.5c0-0.1,0.1-0.1,0.1-0.2c0-0.1,0.1-0.3,0.1-0.4c0.2-0.4,0.5-0.8,0.6-1.3c0.2-0.4,0.5-0.9,0.7-1.3
		c0.2-0.4,0.4-0.8,0.7-1.2c0.3-0.6,0.9-1,1.6-1c0.5,0,1,0.1,1.5,0.2c0.3,0.1,0.4,0.3,0.2,0.6c-0.3,0.4-0.4,0.8-0.6,1.2
		c-0.4,0.7-0.7,1.5-1.2,2.1c-0.2,0.4-0.3,0.8-0.6,1.2c-0.3,0.5-0.6,1.1-1,1.7c-0.2,0.4-0.5,0.8-0.6,1.3c0,0.1-0.1,0.3-0.1,0.4
		c0,1.5,0,3.1,0,4.6v0.2L466.5,391.6z"/>
	<path id="Path_694" class="st1" d="M396.7,359.8v10.3c0,0.1,0,0.3,0,0.4c0,0.1-0.1,0.3-0.3,0.3c0,0,0,0,0,0h-0.1
		c-0.8,0-1.6,0-2.5,0c-0.2,0-0.3-0.1-0.3-0.3c0-0.1,0-0.2,0-0.3v-10.3h-4c-0.1-0.3-0.2-0.6-0.2-0.8c0-0.6,0.3-1.2,0.8-1.5
		c0.1-0.1,0.3-0.1,0.4-0.1c0.7-0.1,1.4-0.2,2.1-0.1c2.4,0,4.8,0,7.2,0h0.6c0.2,0.6,0.2,1.3-0.1,1.9c-0.2,0.4-0.7,0.7-1.1,0.7
		C398.5,359.8,397.6,359.8,396.7,359.8z"/>
	<path id="Path_695" class="st1" d="M460.4,378.2c0.1,0.2-0.1,0.4,0.1,0.6c0,0,0,0.1,0,0.1c-0.2,0.2-0.1,0.4-0.1,0.5
		c0,0.4-0.2,0.8-0.6,1c-0.4,0.2-0.8,0.3-1.2,0.3c-0.7,0-1.4,0-2.2,0v10.8h-3v-10.8h-3.6c-0.1,0-0.2,0-0.3,0c-0.1,0-0.2-0.2-0.2-0.2
		c-0.1-0.5,0-0.9,0.1-1.4c0.1-0.3,0.2-0.5,0.5-0.7c0.2-0.2,0.5-0.3,0.8-0.3c0.1,0,0.2,0,0.3,0L460.4,378.2z"/>
	<path id="Path_696" class="st1" d="M424.1,402.6c0,0.1,0,0.1-0.1,0.2c0.1,0.9-0.2,1.9-0.1,2.8c-0.1,0.5-0.1,1-0.1,1.6
		c-0.1,0.6-0.1,1.1-0.1,1.7c0,0.1-0.1,0.3-0.1,0.4c0,0.2,0,0.3,0,0.5c-0.5,0-0.9,0-1.4,0c-0.2,0-0.3-0.1-0.2-0.3c0,0,0.1-0.1,0-0.1
		c0-0.6,0-1.3,0.1-1.9c0.1-0.7,0.1-1.5,0.1-2.2c0.2-0.4,0-0.9,0.1-1.3c0.1-0.5,0-1,0.1-1.5c0.1-0.5,0-1,0.1-1.5
		c0.1-0.4,0.1-0.8,0.1-1.2c0-0.1,0.1-0.2,0.1-0.2c0.4-0.1,0.8-0.3,1.2,0c0.2,0.1,0.3,0.3,0.5,0.4c0.2,0.3,0.3,0.5,0.4,0.8
		c0.1,0.3,0.3,0.7,0.4,1c0.3,0.7,0.7,1.4,1,2.2c0.3,0.6,0.6,1.2,0.8,1.9c0.1-0.2,0.1-0.2,0.2-0.3c0.4-0.7,0.7-1.4,1.1-2.2
		c0.2-0.4,0.5-0.9,0.6-1.3c0.2-0.7,0.6-1.2,0.8-1.9c0.3-0.6,0.9-0.9,1.5-0.7c0.1,0,0.2,0,0.3,0.1c0.1,0,0.2,0.1,0.2,0.3
		c-0.1,0.7,0.1,1.4,0.1,2.1c0,0.7,0.2,1.3,0.1,2c0.1,0.5,0.1,0.9,0.1,1.4c0.1,0.6,0,1.1,0.1,1.7c0.1,0.6,0,1.2,0.1,1.7
		c0.1,0.4,0.1,0.8,0.1,1.2c-0.3,0-0.5,0-0.8,0c-0.3,0-0.5,0-0.8,0c-0.1-0.6-0.2-1.1-0.2-1.7c-0.1-0.6,0-1.2-0.1-1.8
		c-0.1-0.6,0-1.1-0.1-1.6c0-0.3-0.1-0.6-0.1-1c0-0.3,0.1-0.6-0.1-0.9c0,0,0.1-0.1,0.1-0.1c0,0,0-0.1,0-0.2c-0.1,0.2-0.2,0.3-0.3,0.5
		c-0.5,1-0.9,1.9-1.4,2.9c-0.3,0.5-0.5,1.1-0.8,1.6c-0.2,0.3-0.5,0.4-0.8,0.5c-0.3-0.1-0.7-0.2-0.8-0.6c-0.1-0.3-0.2-0.6-0.4-0.8
		c-0.5-1.1-1-2.2-1.5-3.2L424.1,402.6z"/>
	<path id="Path_697" class="st1" d="M371.4,404.2c0.5,0.1,0.9,0.4,1.1,0.8c0.1,0.2,0.2,0.3,0.3,0.5c0.1,0.2,0.2,0.4,0.2,0.6
		c0,0.2,0.1,0.4,0.1,0.5c-0.1,0.2-0.1,0.3-0.1,0.5c0,0.5-0.1,0.9-0.4,1.3c-0.4,0.6-1,1-1.8,1.1c-0.3,0.1-0.7,0.2-1,0.2
		c-0.4,0-0.7,0-1.1,0c-0.6,0-1.2,0-1.7,0c-0.4,0-0.7-0.2-0.9-0.6c-0.1-0.3-0.1-0.5-0.1-0.8c0-2.9,0-5.7,0-8.6c0-0.4,0-0.3,0.4-0.5
		c0.3-0.1,0.6-0.1,0.9-0.1c0.7,0,1.5,0,2.2,0c0.6,0,1.2,0.1,1.8,0.4c0.2,0.1,0.4,0.3,0.6,0.5c0.5,0.4,0.7,1,0.7,1.6
		c0,0.1,0,0.3,0,0.4c0,0.6-0.2,1.2-0.7,1.7C371.7,403.9,371.6,404,371.4,404.2z M367.7,405v3.2c0.4,0,0.8,0,1.2,0
		c0.4,0,0.8,0,1.1-0.1c0.2-0.1,0.5-0.1,0.7-0.3c0.5-0.4,0.7-1.1,0.6-1.7c-0.1-0.4-0.4-0.7-0.7-0.8c-0.5-0.2-0.9-0.3-1.4-0.3
		C368.6,405,368.2,405,367.7,405L367.7,405z M367.7,403.6c0.5,0,1,0,1.5,0c0.5,0,1-0.2,1.4-0.6c0.3-0.4,0.4-1,0.3-1.5
		c-0.2-0.5-0.7-0.8-1.2-0.8c-0.3,0-0.5,0-0.8,0c-0.1,0-0.3-0.1-0.3-0.1c-0.2,0.2-0.5,0-0.7,0.1L367.7,403.6z"/>
	<path id="Path_698" class="st1" d="M409.9,406.8V401c0-0.4,0-0.9,0-1.3c0-0.4,0-0.5,0.5-0.5c0.4,0,0.9,0.2,1,0.6
		c0,0.1,0.1,0.2,0.1,0.3c0,3.2,0,6.4,0,9.6H410l-4.8-7.3l-0.1,0v7.2h-1.6v-10.4c0.5-0.2,1-0.2,1.4,0c0.2,0.2,0.4,0.4,0.6,0.7
		c0.5,0.7,0.9,1.4,1.4,2.1c0.5,0.9,1.1,1.7,1.6,2.6c0.4,0.6,0.7,1.3,1.2,1.8C409.8,406.7,409.8,406.7,409.9,406.8L409.9,406.8z"/>
	<path id="Path_699" class="st1" d="M442.8,404.4c0,0.3,0,0.5,0,0.8c-0.1,1.1-0.4,2.2-1,3.2c-0.6,0.7-1.3,1.2-2.2,1.5
		c-0.7,0.1-1.5,0.2-2.2,0.1c-0.7-0.1-1.4-0.5-2-0.9c-0.6-0.5-1-1.2-1.3-1.9c-0.1-0.4-0.2-0.9-0.3-1.3c-0.1-0.6-0.2-1.2-0.1-1.7
		c0-0.8,0.2-1.6,0.5-2.3c0.2-0.6,0.6-1.1,1-1.6c0.5-0.5,1.2-0.8,1.9-1c0.7-0.1,1.3-0.1,2-0.1c1.3,0.2,2.4,1,2.9,2.2
		c0.1,0.3,0.3,0.6,0.4,0.9c0.1,0.3,0.1,0.6,0.2,0.9C442.8,403.5,442.8,404,442.8,404.4z M441,404.5c0-0.2,0-0.5,0-0.7
		s-0.1-0.5-0.1-0.7c-0.1-0.5-0.3-0.9-0.5-1.3c-0.1-0.2-0.3-0.2-0.3-0.5c0,0-0.1,0-0.1,0c-0.8-0.6-1.7-0.7-2.6-0.4
		c-0.6,0.2-0.8,0.4-1.2,1c-0.4,0.5-0.6,1.2-0.6,1.8c-0.1,0.7-0.1,1.5,0.1,2.2c0.1,0.5,0.3,1.1,0.6,1.6c0.4,0.6,1,1.1,1.8,1.1
		c0.2,0,0.4,0,0.6,0c0.8,0,1.6-0.5,2-1.2c0.3-0.6,0.5-1.2,0.5-1.9C441,405,441,404.8,441,404.5L441,404.5z"/>
	<path id="Path_700" class="st1" d="M374.3,404.5c0-0.3,0-0.6,0-0.9c0.1-0.9,0.4-1.9,0.9-2.7c0.4-0.7,1.1-1.3,1.9-1.6
		c0.4-0.2,0.8-0.3,1.3-0.3c0.3,0,0.7,0,1,0c0.8,0,1.6,0.3,2.2,0.8c0.6,0.5,1.1,1.2,1.4,2c0.1,0.3,0.2,0.7,0.3,1
		c0.1,0.7,0.2,1.4,0.1,2.1c-0.1,1-0.3,1.9-0.8,2.8c-0.3,0.6-0.8,1.1-1.3,1.5c-0.7,0.4-1.5,0.7-2.3,0.7c-0.2,0-0.4,0-0.6,0
		c-0.9,0-1.7-0.3-2.4-0.9c-0.5-0.4-0.9-0.9-1.2-1.5c-0.2-0.5-0.4-1-0.5-1.5C374.3,405.5,374.3,405,374.3,404.5z M381.6,404.6
		c-0.1-0.5,0.1-0.9-0.1-1.3c0-0.6-0.2-1.2-0.6-1.7c-0.3-0.4-0.6-0.7-1-0.8c-0.1-0.1-0.3,0.1-0.5-0.1c-0.4,0-0.8,0-1.2,0
		c-0.3,0-0.7,0.2-1,0.4c-0.8,0.6-1.2,1.6-1.2,2.6c0,0.2,0.1,0.5-0.1,0.7c0,0.1,0,0.2,0,0.3c0.1,0.1,0.1,0.2,0.1,0.4
		c0,0.6,0.1,1.2,0.4,1.8c0.2,0.5,0.6,1,1.1,1.3c0.5,0.2,1,0.3,1.5,0.3c0.6,0,1.2-0.2,1.6-0.7c0.4-0.5,0.7-1.1,0.8-1.7
		C381.6,405.5,381.6,405.1,381.6,404.6L381.6,404.6z"/>
	<path id="Path_701" class="st1" d="M399.2,405.3c0.5,0.7,1,1.4,1.4,2.2c0.5,0.7,0.9,1.4,1.3,2.1c-0.3,0.3-0.6,0.2-0.9,0.2
		c-0.5,0.1-1.1-0.2-1.3-0.7c-0.4-0.7-1-1.4-1.4-2.1c-0.3-0.5-0.6-0.9-0.9-1.4c-0.2,0-0.5,0-0.7,0c-0.3,0-0.3,0.1-0.3,0.4
		c0,1,0,2.1,0,3.1v0.6h-1.7v-10.4c1.2-0.2,2.5-0.2,3.7-0.1c0.8,0,1.7,0.3,2.2,1c0.4,0.4,0.6,1,0.6,1.5c0,0.2,0,0.5,0,0.7
		C401.3,403.7,400.4,404.9,399.2,405.3L399.2,405.3z M396.4,404.1c0.7,0.1,1.5,0.1,2.2-0.2c0.5-0.1,0.8-0.6,0.9-1.1
		c0-0.1,0-0.2,0-0.3c0.1-0.4,0-0.9-0.2-1.3c-0.3-0.4-0.7-0.6-1.2-0.6c-0.6-0.1-1.1,0-1.7,0L396.4,404.1z"/>
	<path id="Path_702" class="st1" d="M465.2,405v3.9c0,0.1,0,0.2,0,0.3c0,0.4,0,0.6-0.5,0.5c-0.3,0-0.6,0-0.9,0
		c-0.2,0-0.3-0.1-0.3-0.3c0,0,0-0.1,0-0.1v-9.6c0-0.1,0-0.1,0-0.2c0-0.1,0.1-0.2,0.2-0.2c0.4-0.1,0.9,0,1.2,0.3
		c0.3,0.3,0.4,0.6,0.4,1c0,1,0,2,0,3c1.4,0.2,2.9,0.2,4.4,0c0-1.2,0-2.4,0-3.6c0-0.8,0.1-0.7,0.7-0.6c0.5,0,0.9,0.5,0.9,1
		c0,3.2,0,6.3,0,9.5h-1.7V405L465.2,405z"/>
	<path id="Path_703" class="st1" d="M444.6,391.1c-0.1-1.3-0.2-2.7-0.1-4c0-1.4,0-2.7,0-4.1s0-2.7,0-4.1c0-0.2,0-0.4,0.1-0.7
		c0.4-0.1,0.8-0.1,1.2-0.2c0.4,0,0.8,0.1,1.2,0.4c0.3,0.2,0.5,0.5,0.5,0.9c0.1,0.6,0.1,1.3,0.1,1.9c0,3.2,0,6.5,0,9.7
		c0,0.1,0,0.3,0,0.4c0,0.1-0.1,0.3-0.2,0.3c0,0,0,0,0,0h-0.6c-0.3,0-0.6,0-1,0C445.3,391.6,444.9,391.4,444.6,391.1z"/>
	<path id="Path_704" class="st1" d="M391.8,378.2c0.4-0.1,0.8-0.2,1.2-0.2c0.4,0,0.8,0.1,1.2,0.4c0.4,0.2,0.6,0.6,0.6,1.1
		c0,0.1,0,0.2,0,0.3V391c0,0.1,0,0.2,0,0.3c0,0.3-0.1,0.3-0.4,0.3c-0.6,0-1.2,0-1.7,0c-0.3,0-0.5-0.2-0.7-0.4
		c-0.1-0.1-0.2-0.3-0.2-0.5C391.8,386.6,391.8,382.4,391.8,378.2C391.8,378.2,391.8,378.2,391.8,378.2z"/>
	<path id="Path_705" class="st1" d="M444.8,399.2c0.3-0.1,0.7,0,1,0.2c0.1,0.1,0.2,0.2,0.3,0.3c0.1,0.2,0.2,0.5,0.2,0.8
		c0,1.9,0,3.8,0,5.7c0,0.6,0.2,1.2,0.6,1.7c0,0.1,0.1,0.1,0.2,0.1c0.6,0.4,1.4,0.4,2.1,0.2c0.1,0,0.3,0,0.4,0c0.5-0.1,0.8-0.5,0.9-1
		c0-0.2,0.1-0.4,0.1-0.6c0.1-1.1,0.2-2.3,0.1-3.4c0-1.1,0-2.3,0-3.4c0-0.8,0.1-0.7,0.7-0.6c0.5,0,1,0.4,1,1c0,0.1,0,0.2,0,0.3
		c0,2,0,3.9,0,5.9c0,0.4-0.1,0.8-0.2,1.2c-0.1,0.5-0.3,0.9-0.6,1.3c-0.2,0.3-0.4,0.5-0.7,0.6c-0.4,0.2-0.9,0.4-1.3,0.5
		c-0.5,0.1-1,0-1.5,0.1c-0.5,0-1-0.1-1.4-0.3c-0.2,0-0.3-0.2-0.5-0.3c-0.7-0.5-1.2-1.2-1.4-2c-0.1-0.4-0.1-0.8-0.1-1.1
		c0-2.2,0-4.4,0-6.5C444.6,399.5,444.5,399.3,444.8,399.2z"/>
	<path id="Path_706" class="st1" d="M391.1,402.8c0-1,0-2,0-3.1c0-0.5,0-0.5,0.5-0.5c0.3,0,0.6,0.1,0.8,0.3c0.2,0.2,0.4,0.5,0.4,0.8
		c0,0.1,0,0.2,0,0.3c0,1.8,0,3.7,0,5.5c0,0.4-0.1,0.9-0.1,1.3c-0.1,0.4-0.3,0.8-0.5,1.1c-0.4,0.5-0.9,0.9-1.5,1.1
		c-0.2,0.1-0.5,0.1-0.7,0.2c-0.6,0.1-1.2,0.1-1.7,0.1c-0.4,0-0.9-0.1-1.3-0.3c-0.5-0.2-0.9-0.6-1.2-1c-0.5-0.6-0.7-1.4-0.7-2.2
		c0-2.2,0-4.4,0-6.5c0-0.1,0-0.3,0-0.4c0-0.1,0.1-0.2,0.2-0.2c0.4-0.1,0.7,0,1,0.2c0.2,0.1,0.3,0.3,0.4,0.5c0.1,0.2,0.1,0.4,0.1,0.6
		c0,1.9,0,3.7,0,5.6c0,0.6,0.2,1.2,0.6,1.7c0.1,0.1,0.1,0.1,0.2,0.1c0.6,0.4,1.4,0.5,2,0.2c0.1,0,0.3,0,0.4,0c0.6-0.2,1-0.8,1-1.4
		c0.1-0.4,0.1-0.8,0.1-1.2c0-0.4,0-0.9,0-1.3L391.1,402.8z"/>
	<path id="Path_707" class="st1" d="M415.5,400.8v1.8c0,0.1-0.1,0.4,0,0.4c0.1,0.2-0.1,0.2,0,0.4h0.4c0.9,0,1.8,0,2.6,0
		c0.4,0,0.4,0,0.4,0.4s0,0.7,0,1.1c-0.9,0-1.9,0-2.8,0c-0.7,0-0.7,0-0.7,0.7c0,0.6,0,1.3,0,1.9c0,0.2,0.2,0.3,0,0.5l0.2,0.2
		c0.1-0.2,0.3,0,0.4,0c0.2,0,0.3,0,0.5,0c0.9,0,1.9,0,2.8,0c0.5,0,0.9,0.3,0.9,0.8c0,0.1,0,0.1,0,0.2c0,0.2,0,0.3,0,0.5h-5.9
		c-0.1,0-0.3,0-0.4,0c-0.1,0-0.2-0.1-0.2-0.2c0-0.1,0-0.2,0-0.3v-9.9h6.3c0,0.3,0.1,0.6-0.1,0.9c-0.1,0.1-0.1,0.3-0.3,0.4
		c-0.2,0.1-0.4,0.2-0.6,0.2c-1.1,0-2.2,0-3.4,0L415.5,400.8z"/>
	<path id="Path_708" class="st1" d="M453.8,400.8c0-0.1,0-0.2,0-0.2c-0.3-0.4,0-0.7,0.1-1c0.1-0.2,0.3-0.3,0.5-0.3
		c0.1,0,0.2,0,0.3,0h7.2c0,0.2,0,0.4,0,0.6c0,0.4-0.4,0.8-0.8,0.8c-0.6,0-1.2,0-1.8,0h-0.6v8.3c0,0.1,0,0.3,0,0.4
		c0,0.1-0.1,0.3-0.2,0.3c0,0,0,0,0,0c-0.4,0-0.8,0-1.2,0c-0.2,0-0.3-0.1-0.3-0.3c0-0.1,0-0.2,0-0.3v-8.3L453.8,400.8z"/>
</g>
</svg>
