<?xml version="1.0" encoding="utf-8"?>
<!-- Generator: Adobe Illustrator 24.2.2, SVG Export Plug-In . SVG Version: 6.00 Build 0)  -->
<svg version="1.1" id="Layer_1" xmlns="http://www.w3.org/2000/svg" xmlns:xlink="http://www.w3.org/1999/xlink" x="0px" y="0px"
	 viewBox="0 0 296.4 157.6" style="enable-background:new 0 0 296.4 157.6;" xml:space="preserve">
<style type="text/css">
	.st0{fill:none;}
	.st1{fill:#FFFFFF;}
</style>
<rect class="st0" width="296.4" height="157.6"/>
<g id="Group_86" transform="translate(-25.505 -331.915)">
	<path id="Path_340" class="st1" d="M236.1,444.7c-1.5,0-3,0-4.4,0c-0.4,0-0.5-0.3-0.7-0.6c-1-2-2-4-3.1-6c-1.2-2.3-2.3-4.6-3.5-6.8
		c-0.1-0.2-0.3-0.4-0.5-0.5v13.9c-1,0-1.9,0-2.8,0c-0.3,0-0.6,0-0.9,0v-19.1c0.2,0,0.4-0.1,0.6-0.1c1.1,0,2.3,0,3.4,0
		c0.5-0.1,0.9,0.2,1.1,0.7c0.8,1.7,1.7,3.3,2.5,5c1.3,2.6,2.6,5.2,4,7.8c0.1,0.2,0.2,0.3,0.4,0.4c0-0.9,0-1.8,0-2.7s0-1.8,0-2.7
		v-8.3h3.8L236.1,444.7z"/>
	<path id="Path_341" class="st1" d="M151.4,430.8v13.9c-0.7,0-1.3,0-1.9,0c-0.6,0-1.2,0-1.7,0c-0.1-0.1-0.1-0.1-0.1-0.1
		c0,0,0,0,0-0.1c0-0.1-0.1-0.2-0.1-0.3c0-6,0-12.1,0-18.1c0-0.1,0-0.3,0-0.4c0-0.1,0.1-0.1,0.1-0.2c1.4,0,2.9,0,4.3,0
		c0.4,0,0.5,0.2,0.6,0.5c0.6,1.1,1.1,2.2,1.7,3.3c1.6,3.2,3.3,6.5,4.9,9.7c0.1,0.2,0.2,0.3,0.4,0.4v-13.9h3.6
		c0.2,0.7,0.2,18.1,0.1,19.3h-1.3c-0.9,0-1.9,0-2.8,0c-0.4,0.1-0.8-0.2-0.9-0.6c-1.6-3.2-3.2-6.4-4.9-9.6c-0.6-1.3-1.3-2.5-1.9-3.8
		L151.4,430.8z"/>
	<path id="Path_342" class="st1" d="M280.7,417.1h-3.2c-1.5,0-1.5,0-2.2-1.3c-2.1-4.1-4.1-8.1-6.2-12.2c-0.1-0.2-0.2-0.3-0.4-0.4
		v13.8h-3.6c-0.2-0.7-0.3-17.2-0.1-19.2c0.8,0,1.5,0,2.3,0s1.6,0,2.4,0l7.1,13.9l0.2,0v-13.8h3.7
		C280.9,398.6,280.9,416.2,280.7,417.1z"/>
	<path id="Path_343" class="st1" d="M239.2,444.6v-19.1c0.2,0,0.4-0.1,0.7-0.1c1.9,0,3.8,0,5.7,0c1.8,0,3.5,0.4,5.2,1.1
		c2.3,0.9,4,3,4.5,5.4c0.5,2,0.5,4.1,0.1,6.1c-0.6,2.9-2.7,5.2-5.6,6c-1.3,0.4-2.7,0.7-4.1,0.7c-1.9,0-3.9,0-5.8,0
		C239.6,444.7,239.4,444.6,239.2,444.6z M243.2,441.5c0.9,0,1.7,0,2.5,0c0.3,0,0.5,0,0.8-0.1c2.8-0.5,4.8-2.8,5-5.6
		c0.4-4-2.2-7.3-6.3-7.3c-0.7-0.1-1.3,0-2,0.1L243.2,441.5z"/>
	<path id="Path_344" class="st1" d="M234.5,417.6c-0.9-0.1-1.8-0.2-2.8-0.4c-3.2-0.7-5.7-3.2-6.4-6.5c-0.5-2.2-0.5-4.4,0-6.6
		c0.8-3.5,3.7-6.1,7.3-6.5c1.4-0.2,2.9-0.1,4.3,0.2c3,0.6,5.4,2.8,6.3,5.8c0.9,2.6,0.8,5.5-0.1,8.1c-1.1,3.3-4.1,5.6-7.6,5.8
		C235.2,417.5,234.8,417.5,234.5,417.6L234.5,417.6z M239.8,407.5c0-1.4-0.3-2.8-0.9-4.1c-0.8-1.7-2.6-2.8-4.5-2.8
		c-1.9-0.1-3.7,1-4.4,2.8c-1.2,2.5-1.2,5.5,0,8c0.8,1.9,2.6,3,4.7,2.9c2,0,3.8-1.2,4.5-3.1C239.5,410.1,239.8,408.8,239.8,407.5z"/>
	<path id="Path_345" class="st1" d="M179.1,441.8v-5c-1.3-0.1-2.6,0-4-0.1c-0.1-1-0.1-2-0.1-2.9c2.6-0.2,5.2-0.3,7.8-0.1v10.4
		c-1.1,0.2-2.3,0.5-3.4,0.7c-2.1,0.4-4.2,0.3-6.2-0.1c-4-0.7-6.9-4-7.1-8.1c-0.2-1.7,0-3.5,0.5-5.2c1-3.2,3.7-5.6,7-6.1
		c2.7-0.5,5.5-0.4,8.2,0.4c0.1,0,0.3,0.1,0.5,0.2c-0.1,1-0.2,2.1-0.2,3.2c-0.3-0.1-0.5-0.2-0.8-0.2c-2-0.8-4.2-0.9-6.3-0.5
		c-2.6,0.6-4.5,2.7-4.8,5.4c-0.2,1.5-0.1,3,0.5,4.4c0.8,2.1,2.8,3.6,5.1,3.7C177,441.9,178.1,441.8,179.1,441.8z"/>
	<path id="Path_346" class="st1" d="M158.3,417.1h-3.9v-19.2c0.2,0,0.5-0.1,0.7-0.1c2,0,4,0,6,0c1.1,0,2.2,0.2,3.3,0.5
		c2,0.5,3.4,2.3,3.3,4.3c0.2,1.7-0.6,3.3-2,4.2c-0.5,0.3-1,0.5-1.5,0.7c0.9,0.7,1.6,1.6,1.9,2.7c0.8,1.9,1.6,3.9,2.4,5.8
		c0.1,0.3,0.2,0.6,0.4,1c-0.9,0-1.6,0-2.4,0c-0.7,0-1.3-0.1-2-0.1c-0.2-0.6-0.5-1.2-0.7-1.8c-0.5-1.3-1-2.7-1.5-4
		c-0.1-0.4-0.3-0.7-0.5-1c-0.3-0.6-0.9-1-1.6-1c-0.5,0-1.1,0-1.7,0C158.3,411.9,158.5,414.5,158.3,417.1z M158.5,400.9
		c-0.2,1.7-0.2,3.4,0,5.1c1.1,0.1,2.3,0,3.4-0.3c1.1-0.3,1.8-1.3,1.7-2.4c0.1-1.1-0.8-2.1-1.9-2.2
		C160.7,401.1,159.6,401,158.5,400.9z"/>
	<path id="Path_347" class="st1" d="M246.4,397.9h3.9c0,0.3,0,0.6,0,0.9c0,3.4,0,6.9,0,10.3c0,0.9,0.1,1.9,0.4,2.7
		c0.4,1.6,1.9,2.7,3.5,2.5c1.6,0.1,3.1-0.9,3.5-2.5c0.3-1,0.4-2,0.4-3c0-3.3,0-6.6,0-9.9v-1h3.9c0,0.3,0,0.6,0,0.9
		c0,3.7,0,7.5,0,11.2c0,0.8-0.1,1.6-0.2,2.4c-0.4,2.3-2.1,4.2-4.4,4.6c-2.1,0.6-4.4,0.6-6.5,0c-2.5-0.6-4.4-2.8-4.5-5.4
		c-0.1-0.6-0.1-1.3-0.1-1.9c0-3.6,0-7.2,0-10.8L246.4,397.9z"/>
	<path id="Path_348" class="st1" d="M212.4,440.3h-7.7c-0.3,0.8-0.6,1.7-1,2.5c-0.2,0.5-0.4,0.9-0.5,1.4c-0.1,0.3-0.2,0.5-0.6,0.5
		c-1.2,0-2.4,0-3.7,0c0.1-0.4,0.2-0.6,0.3-0.9c2.3-5.9,4.6-11.8,6.9-17.6c0.3-0.7,0.3-0.7,1.1-0.7c1.2,0,2.4,0,3.7,0l7.5,19.2h-4.4
		L212.4,440.3z M205.9,437.1h5.4l-2.6-7.5h-0.2L205.9,437.1z"/>
	<path id="Path_349" class="st1" d="M145,397.8l7.6,19.3c-1.5,0-2.9,0-4.4,0l-1.7-4.4h-7.7c-0.4,1.2-0.9,2.3-1.3,3.5
		c-0.4,1-0.2,0.9-1.3,0.9c-1,0-2,0-3.1,0c0.1-0.2,0.1-0.5,0.2-0.7c2.3-6,4.6-11.9,7-17.9c0.3-0.7,0.3-0.7,1-0.7
		C142.5,397.8,143.7,397.8,145,397.8z M140,409.5c1.8,0.2,3.6,0.2,5.4-0.1l-2.6-7.3l-0.2,0L140,409.5z"/>
	<path id="Path_350" class="st1" d="M137.1,428.5v4.7h6.7v3.1h-6.6c-0.3,1.8-0.3,3.5-0.1,5.3h7.3v3c-0.7,0.2-9.7,0.2-11.2,0.1
		c-0.2-0.6-0.3-17.3-0.1-19c3.8-0.2,7.5-0.3,11.3-0.1v3L137.1,428.5z"/>
	<path id="Path_351" class="st1" d="M197.2,401.4c-0.9-0.2-1.8-0.5-2.6-0.6c-0.9-0.2-1.7-0.2-2.6,0.1c-0.8,0.2-1.5,0.9-1.7,1.8
		c-0.3,0.8,0,1.6,0.7,2.1c0.5,0.3,1.1,0.6,1.6,0.9c0.8,0.4,1.7,0.7,2.6,1.1c0.6,0.3,1.2,0.7,1.8,1.1c2.5,1.9,2.3,7.1-1,8.8
		c-1.5,0.7-3,1-4.6,1c-1.5,0-3-0.2-4.4-0.6c-0.2-0.1-0.3-0.1-0.5-0.2c0.1-1.1,0.2-2.2,0.3-3.4c0.3,0.1,0.6,0.2,0.8,0.3
		c1.2,0.6,2.5,0.8,3.8,0.8c0.8,0,1.6-0.3,2.2-0.7c0.9-0.6,1.2-1.8,0.7-2.7c-0.1-0.2-0.3-0.4-0.5-0.6c-0.6-0.4-1.2-0.7-1.8-1
		c-1-0.5-2.1-0.9-3.1-1.4c-1.5-0.7-2.5-2.1-2.6-3.7c-0.4-3.5,1.3-5.9,4.7-6.6c2.1-0.4,4.2-0.2,6.2,0.4c0.1,0.1,0.3,0.1,0.4,0.2
		L197.2,401.4z"/>
	<path id="Path_352" class="st1" d="M298.2,398.4c-0.1,1-0.2,2-0.3,3.2c-0.3-0.1-0.6-0.2-0.9-0.3c-1.3-0.6-2.8-0.8-4.3-0.6
		c-2.2,0.2-4.1,1.7-4.9,3.8c-0.8,1.9-0.8,4-0.1,5.9c0.8,2.4,3.1,4,5.6,4c0.8,0,1.6,0,2.3-0.1c0.7-0.1,1.5-0.3,2.3-0.5l0.2,3.2
		c-0.9,0.2-1.7,0.4-2.5,0.5c-2.4,0.4-4.8,0.1-7-0.7c-2.7-1-4.7-3.4-5.2-6.3c-0.4-2.1-0.3-4.3,0.3-6.4c0.8-2.7,2.9-4.9,5.6-5.7
		c2.5-0.9,5.3-0.9,7.8-0.2c0.2,0.1,0.4,0.1,0.7,0.2C298,398.3,298.1,398.3,298.2,398.4z"/>
	<path id="Path_353" class="st1" d="M223,401.6c-0.4-0.2-0.6-0.3-0.9-0.4c-1.3-0.6-2.8-0.8-4.3-0.6c-2.1,0.2-4,1.6-4.8,3.6
		c-0.9,2-0.9,4.3-0.1,6.3c0.9,2.3,3.1,3.8,5.5,3.7c1.4,0.1,2.7-0.1,4-0.6c0.2-0.1,0.3-0.1,0.6-0.1c0.1,1.1,0.1,2.1,0.2,3.2
		c-1.3,0.4-2.6,0.6-3.9,0.6c-1.7,0.1-3.4-0.1-5.1-0.7c-3-0.9-5.3-3.4-5.8-6.5c-0.4-2.1-0.3-4.3,0.3-6.4c0.9-3.1,3.5-5.4,6.7-6
		c2.2-0.6,4.5-0.5,6.7,0.1c1.1,0.3,1.1,0.3,0.9,1.3C223.1,400.1,223,400.8,223,401.6z"/>
	<path id="Path_354" class="st1" d="M169.6,397.9h14.8v3.1h-5.5c0,2.7,0,5.4,0,8.1c0,2.6,0,5.3,0,7.9c-1.3,0.2-2.6,0.2-3.9,0v-16
		h-5.4V397.9z"/>
	<path id="Path_355" class="st1" d="M189.9,441.5h7.4c0.1,1,0.1,2.1,0,3.1h-11.2c-0.2-0.7-0.2-18-0.1-19.2h3.9L189.9,441.5z"/>
	<path id="Path_356" class="st1" d="M311.8,414.1h7.4v2.9c-3.7,0.2-7.5,0.3-11.2,0.1c-0.2-0.6-0.2-18.1,0-19.2h3.8L311.8,414.1z"/>
	<path id="Path_357" class="st1" d="M301.2,397.9h3.7c0.2,0.7,0.3,17.4,0.1,19.2c-1.2,0.1-2.5,0-3.8,0L301.2,397.9z"/>
	<path id="Path_358" class="st1" d="M115.5,444.6h-0.9v-67.9h0.9V444.6z"/>
	<path id="Path_359" class="st1" d="M84.6,392.1l3.9-3.7l1.3,1.3l-6.2,6l-1.7-1.8l2.4-5.4l-0.2-0.1l-4,3.8l-1.3-1.3l6.2-6
		c0.1,0,0.2,0.1,0.3,0.2c0.5,0.5,0.9,1,1.4,1.5c-0.2,0.6-0.5,1.3-0.7,1.9c-0.5,1.2-1,2.3-1.5,3.5L84.6,392.1z"/>
	<path id="Path_360" class="st1" d="M28.8,403.2c0.4-1.2,0.8-2.4,1.2-3.5c0.4-1.1,1.6-1.8,2.8-1.4c0.4,0.1,0.7,0.4,1,0.7
		c0.3,0.4,0.5,0.8,0.7,1.2c1.4-0.5,2.9-0.2,4.6-0.2l-0.6,2.1c-0.7,0-1.5,0-2.2,0c-0.3,0-0.6,0-1,0c-0.4,0-0.7,0.3-0.7,0.7
		c0,0,0,0.1,0,0.1l3.2,1.1l-0.7,2L28.8,403.2z M32.9,402.4c0.3-0.6,0.5-1.1,0-1.6c-0.3-0.3-0.7-0.5-1.1-0.4
		c-0.6,0.2-0.7,0.7-0.9,1.3L32.9,402.4z"/>
	<path id="Path_361" class="st1" d="M62.3,381.9c0-1.1,0.2-2.2,0.7-3.2c1-1.7,3.1-2.4,4.9-1.4c0.9,0.5,1.5,1.3,1.7,2.2
		c0.4,1.5,0.2,3-0.5,4.4c-0.9,1.7-3.1,2.4-4.8,1.5c-0.9-0.5-1.6-1.3-1.8-2.3C62.4,382.6,62.4,382.1,62.3,381.9z M67.7,380.8
		c0-0.5-0.1-0.9-0.1-1.2c-0.1-0.6-0.5-1.1-1.1-1.3c-0.6,0-1.2,0.3-1.4,0.9c-0.5,1.1-0.7,2.3-0.5,3.5c0,0.3,0.1,0.5,0.2,0.7
		c0.2,0.6,0.9,0.9,1.5,0.7c0.2-0.1,0.4-0.2,0.5-0.4c0.2-0.3,0.4-0.7,0.5-1.1C67.5,382,67.6,381.3,67.7,380.8L67.7,380.8z"/>
	<path id="Path_362" class="st1" d="M75.1,378.9l1.8,0.9c-0.1,0.2-0.2,0.5-0.3,0.7c-0.7,1.4-1.4,2.8-2.1,4.2
		c-0.1,0.2-0.2,0.4-0.3,0.5c-0.3,0.7-0.2,1.3,0.4,1.5s1.1,0.1,1.5-0.6c0.5-1,1-2,1.6-3l1.2-2.3l1.8,0.9c-0.1,0.2-0.1,0.4-0.2,0.6
		c-0.7,1.5-1.5,3-2.3,4.4c-0.7,1.6-2.6,2.3-4.3,1.6c-0.5-0.2-0.9-0.6-1.3-1c-0.6-0.7-0.8-1.7-0.5-2.6c0.1-0.3,0.2-0.6,0.4-0.9
		c0.7-1.5,1.5-3,2.3-4.4C74.9,379.2,75,379.1,75.1,378.9z"/>
	<path id="Path_363" class="st1" d="M36.7,408.2v2.2l-1.8,0.6l0.1,2.6l1.9,0.6v2l-8.7-2.6v-2.3L36.7,408.2z M33.2,411.5
		c-1,0.2-2,0.6-2.9,1l3,0.8c0-0.5,0-0.9,0-1.2C33.3,411.8,33.3,411.6,33.2,411.5z"/>
	<path id="Path_364" class="st1" d="M42.4,383.3l1,1.3c-0.3,0.1-0.5,0.2-0.8,0.3c-0.3,0.2-0.6,0.3-0.9,0.6c-0.4,0.2-0.5,0.7-0.3,1.1
		c0.2,0.4,0.7,0.6,1.1,0.5c0.5-0.1,1-0.3,1.4-0.4c1.4-0.4,2.9,0.5,3.2,1.9c0.1,0.3,0.1,0.5,0.1,0.8c0,0.5-0.2,0.9-0.4,1.3
		c-0.7,1-1.7,1.7-2.8,2.2l-1-1.4c0.3-0.1,0.6-0.2,0.9-0.3c0.4-0.2,0.8-0.5,1.1-0.8c0.3-0.3,0.4-0.7,0.2-1c-0.2-0.4-0.6-0.6-1-0.5
		c-0.5,0.1-1,0.2-1.5,0.4c-0.9,0.3-1.8,0-2.4-0.6c-1-0.9-1.1-2.4-0.3-3.4C40.5,384.3,41.4,383.7,42.4,383.3z"/>
	<path id="Path_365" class="st1" d="M58,377.1l0.3,1.7c-0.3,0-0.6-0.1-0.8-0.1c-1.2-0.2-2.3,0.5-2.6,1.7c0,0.2-0.1,0.4,0,0.6
		c0,0.5,0.1,1.1,0.3,1.6c0.4,1.2,1.6,1.9,2.8,1.5c0.2-0.1,0.5-0.2,0.7-0.3c0.2-0.1,0.4-0.3,0.7-0.4l0.5,1.7
		c-1.7,1.5-4.4,1.4-5.9-0.4c-0.3-0.4-0.6-0.8-0.7-1.2c-0.3-0.6-0.4-1.3-0.5-2c-0.3-2.2,1.2-4.1,3.4-4.4c0.2,0,0.4,0,0.6,0
		C57.1,377.1,57.5,377.1,58,377.1z"/>
	<path id="Path_366" class="st1" d="M94.9,399.3l-1.6,0.7c-0.2-1.4-0.4-2.7-2-2.9c-1.4-0.1-2.7,0.6-3.3,1.8
		c-0.6,1.4,0.2,2.3,1.1,3.2l-1.5,0.9c-2.4-2.3-2.1-4.8-0.7-6.2c0.7-0.8,1.6-1.3,2.7-1.6c2.1-0.7,4.4,0.4,5.1,2.5
		c0.1,0.2,0.1,0.4,0.2,0.6C94.8,398.5,94.8,398.9,94.9,399.3z"/>
	<path id="Path_367" class="st1" d="M41.9,395.7l-1.2,1.7l-5.8-4l-1.1,1.5l-1.3-0.9l3.4-4.8l1.3,1l-1,1.5L41.9,395.7z"/>
	<path id="Path_368" class="st1" d="M97.1,411.4c-0.1,0.8-0.1,1.4-0.2,2.1l-7-0.5l-0.2,2.8l-1.6-0.1c0.1-1.7,0.2-3.2,0.3-4.9
		L97.1,411.4z"/>
	<path id="Path_369" class="st1" d="M73.8,433.2l0.9-0.6l6.7,4.1l0.1-0.1l-3.8-5.9l0.7-0.5l4.7,7.3c-0.2,0.1-0.3,0.3-0.5,0.4
		c-0.1,0.1-0.2,0.1-0.4,0.2l-6.6-4l-0.1,0.1c1.2,2,2.5,3.8,3.7,5.8l-0.7,0.5L73.8,433.2z"/>
	<path id="Path_370" class="st1" d="M42.6,437.8c-0.2-0.1-0.3-0.2-0.4-0.3c-0.1-0.1-0.1-0.2-0.2-0.2l4.8-7.1c0.9,0.4,1,0.4,0.8,1.3
		c-0.3,2-0.6,4.1-0.9,6.1c-0.1,0.3,0,0.6,0,0.9l3.9-5.8l0.7,0.4l-4.8,7.1c-0.9-0.3-1-0.4-0.9-1.2c0.3-2.1,0.6-4.1,0.9-6.2
		c0-0.3,0-0.5,0-0.8C45.2,433.9,43.9,435.9,42.6,437.8z"/>
	<path id="Path_371" class="st1" d="M294.6,386.2c-0.5,0.5-1.1,0.8-1.8,0.8c-1.3,0-2.3-0.9-2.4-2.2c-0.1-0.8-0.1-1.6,0.1-2.3
		c0.3-1.4,1.6-2.2,3-1.9c0.2,0.1,0.5,0.1,0.7,0.3c0.1,0.1,0.2,0.1,0.3,0.2l1.1-0.4c0,0.4,0.1,0.6,0.1,0.9c0,1.7,0,3.3,0,5
		c0,0.1,0,0.2,0,0.3c0.1,1.5-1.1,2.7-2.6,2.8c-0.1,0-0.2,0-0.3,0c-0.6,0-1.3-0.1-1.9-0.3c0-0.3,0-0.6,0-0.8c0.5,0.1,1,0.2,1.4,0.3
		C294,389,294.9,388.1,294.6,386.2z M291.1,383.7c0.1,0.5,0.2,0.9,0.3,1.4c0.2,0.7,0.8,1.2,1.5,1.2c0.7,0,1.4-0.4,1.6-1.1
		c0.4-0.9,0.4-1.9,0-2.8c-0.2-0.6-0.8-1-1.5-1c-0.7-0.1-1.3,0.3-1.5,1C291.3,382.7,291.2,383.2,291.1,383.7z"/>
	<path id="Path_372" class="st1" d="M213.1,389.3l0-0.8c0.1,0,0.2,0,0.3,0c0.6,0.1,1.2,0.2,1.9,0.3c0.8,0,1.5-0.6,1.6-1.4
		c0.1-0.4,0.1-0.8,0.2-1.2c-0.4,0.3-0.9,0.5-1.3,0.7c-1.3,0.4-2.6-0.4-3-1.6c0,0,0,0,0,0c-0.4-1.1-0.3-2.2,0.1-3.2
		c0.6-1.3,2.1-1.8,3.4-1.2c0,0,0.1,0,0.1,0.1c0.1,0.1,0.2,0.1,0.4,0.2l1.1-0.4v1c0,1.5,0,3.1,0,4.6c0,0.2,0,0.4,0,0.6
		c0,1.5-1.1,2.7-2.6,2.7c-0.1,0-0.2,0-0.4,0C214.3,389.5,213.7,389.4,213.1,389.3z M213.4,383.7c0.1,0.4,0.2,0.9,0.3,1.3
		c0.2,0.7,0.8,1.2,1.5,1.2c0.7,0.1,1.3-0.3,1.6-1c0.4-0.9,0.4-1.9,0.1-2.9c-0.2-0.6-0.8-1.1-1.5-1c-0.7-0.1-1.3,0.3-1.5,0.9
		C213.7,382.7,213.5,383.2,213.4,383.7L213.4,383.7z"/>
	<path id="Path_373" class="st1" d="M187.4,386.9c-0.7,0.1-0.7,0.1-0.9-0.5c-0.5,0.5-1.2,0.7-1.9,0.7c-1,0-1.8-0.6-2.2-1.5
		c-0.5-1.2-0.5-2.5,0-3.7c0.5-1.2,1.9-1.8,3.1-1.3c0.1,0,0.2,0.1,0.3,0.1c0.2,0.1,0.4,0.3,0.8,0.5v-3.5l0.8-0.1L187.4,386.9z
		 M182.9,383.8c0.1,0.5,0.2,1,0.3,1.5c0.2,0.6,0.7,1,1.4,1c0.7,0.1,1.3-0.3,1.6-0.9c0.5-1.1,0.5-2.3-0.1-3.3
		c-0.3-0.5-0.8-0.9-1.4-0.8c-0.6,0-1.1,0.4-1.4,0.9C183.2,382.8,183,383.3,182.9,383.8L182.9,383.8z"/>
	<path id="Path_374" class="st1" d="M80.4,428.1c0.6-0.7,1.2-1.4,1.9-2c0.9-0.8,2.3-1,3.4-0.5c1.1,0.5,2.1,1.3,2.8,2.3
		c0.7,1,0.8,2.4,0.3,3.5c-0.4,0.8-0.9,1.5-1.5,2.1L80.4,428.1z M87.2,432.3c1.5-1.4,1.4-2.8,0.6-3.9c-0.6-0.9-1.5-1.6-2.5-2
		c-0.9-0.4-2-0.2-2.7,0.5c-0.3,0.3-0.6,0.7-0.9,1.1L87.2,432.3z"/>
	<path id="Path_375" class="st1" d="M300.5,386.3c-0.2,0.6-0.2,0.6-0.9,0.5v-9l0.7-0.1v3.6c0.3-0.2,0.4-0.2,0.6-0.3
		c1-0.8,2.5-0.6,3.3,0.4c0.2,0.2,0.3,0.5,0.4,0.8c0.3,1,0.3,2.1,0,3.2c-0.4,1.3-1.7,2-3,1.6c-0.3-0.1-0.6-0.3-0.9-0.5L300.5,386.3z
		 M300.4,383.8c0.1,0.5,0.3,1.1,0.5,1.6c0.2,0.6,0.8,1,1.5,0.9c0.6,0,1.2-0.4,1.4-1c0.4-1,0.4-2.1,0-3.1c-0.2-0.6-0.8-1-1.4-1
		c-0.6,0-1.2,0.3-1.4,0.9C300.7,382.7,300.5,383.3,300.4,383.8L300.4,383.8z"/>
	<path id="Path_376" class="st1" d="M235.8,377.8h0.7v3.5c0.3-0.2,0.4-0.3,0.6-0.4c1.1-0.8,2.6-0.5,3.3,0.6c0.1,0.2,0.2,0.4,0.3,0.6
		c0.4,1,0.4,2.1,0,3.2c-0.4,1.3-1.8,2.1-3.1,1.7c-0.4-0.1-0.8-0.3-1.1-0.7c-0.1,0.2-0.1,0.5-0.3,0.6c-0.1,0.1-0.4,0-0.6,0
		C235.7,383.9,235.6,380.9,235.8,377.8z M240.2,383.8c-0.1-0.5-0.2-1.1-0.4-1.6c-0.3-0.8-1.3-1.2-2.1-0.8c-0.3,0.1-0.6,0.4-0.8,0.7
		c-0.6,1-0.6,2.3,0,3.3c0.3,0.6,0.9,0.9,1.5,0.8c0.6,0,1.1-0.4,1.3-1C240,384.9,240.1,384.4,240.2,383.8L240.2,383.8z"/>
	<path id="Path_377" class="st1" d="M154.3,386.3v3.1h-0.7c-0.2-2.9-0.2-5.8,0-8.7l0.7-0.1l0.1,0.7c0.2-0.2,0.3-0.3,0.4-0.4
		c1-0.8,2.5-0.7,3.3,0.3c0.2,0.2,0.3,0.4,0.4,0.6c0.5,1.1,0.5,2.4,0,3.5c-0.4,1.3-1.8,1.9-3,1.5c-0.3-0.1-0.6-0.3-0.9-0.5
		C154.5,386.4,154.4,386.4,154.3,386.3z M158,383.9c-0.1-0.5-0.2-1.1-0.4-1.6c-0.3-0.8-1.2-1.2-2-0.9c-0.4,0.1-0.7,0.4-0.9,0.8
		c-0.5,1-0.5,2.2,0,3.3c0.3,0.6,0.8,0.9,1.5,0.9c0.6,0,1.2-0.4,1.4-1C157.7,384.9,157.9,384.4,158,383.9L158,383.9z"/>
	<path id="Path_378" class="st1" d="M96.4,404.3l0.3,2.1l-8.4,1.5c-0.3-0.7-0.4-1.4-0.4-2.1L96.4,404.3z"/>
	<path id="Path_379" class="st1" d="M279,386.9c-0.7,0.1-0.7,0.1-1-0.5c-0.4,0.5-1.1,0.7-1.7,0.7c-1.1,0.1-2-0.6-2.3-1.6
		c-0.4-1.1-0.4-2.2,0-3.3c0.4-1.3,1.7-2,3-1.6c0.2,0.1,0.5,0.2,0.6,0.3c0.2,0.1,0.3,0.2,0.6,0.4v-3.5h0.8V386.9z M274.6,383.8
		c0.1,0.5,0.2,0.9,0.3,1.4c0.2,0.7,0.8,1.1,1.5,1.1c0.7,0.1,1.3-0.4,1.6-1c0.4-1,0.4-2.1,0-3c-0.2-0.6-0.8-1-1.5-1
		c-0.7,0-1.3,0.5-1.5,1.2C274.7,382.9,274.6,383.4,274.6,383.8L274.6,383.8z"/>
	<path id="Path_380" class="st1" d="M58.5,436l-0.3,0.7c-0.1,0-0.2,0-0.3-0.1c-0.3-0.2-0.6-0.4-0.9-0.6c-1.2-0.6-2.6-0.3-3.4,0.8
		c-0.8,1-1.1,2.3-1,3.6c0.1,1.5,1.4,2.5,2.9,2.4c0.1,0,0.2,0,0.3,0l0.8-2.7l-1.4-0.5l0.2-0.7l2.2,0.6c0,0.2,0,0.4,0,0.5
		c-0.3,1-0.6,2.1-0.9,3.1c-0.1,0.4-0.4,0.7-0.9,0.7c-2,0.2-3.8-1.3-4-3.3c0-0.1,0-0.3,0-0.4c-0.1-1.2,0.2-2.3,0.9-3.3
		c1-1.8,3.3-2.4,5-1.3C58,435.6,58.3,435.8,58.5,436z"/>
	<path id="Path_381" class="st1" d="M147.3,380.7l0.1,0.8c0.2-0.2,0.3-0.3,0.4-0.3c1-0.9,2.5-0.8,3.3,0.1c0.2,0.2,0.4,0.5,0.5,0.9
		c0.4,1.1,0.4,2.2,0,3.3c-0.4,1.3-1.7,2-3,1.6c-0.3-0.1-0.6-0.2-0.8-0.4c-0.1,0-0.1-0.1-0.3-0.2c-0.3,1,0,2-0.2,3h-0.7v-8.6
		L147.3,380.7z M151,383.9c-0.1-0.6-0.2-1.1-0.4-1.7c-0.3-0.8-1.2-1.1-2-0.8c-0.3,0.1-0.5,0.3-0.6,0.5c-0.7,1.2-0.7,2.6,0,3.8
		c0.5,0.7,1.5,0.9,2.2,0.3c0.2-0.2,0.4-0.4,0.5-0.6C150.8,384.9,150.9,384.4,151,383.9L151,383.9z"/>
	<path id="Path_382" class="st1" d="M222.8,386.4v3.1l-0.7,0v-8.7l0.7,0l0.1,0.7c0.1,0,0.2-0.1,0.2-0.1c0.9-1,2.4-1,3.4-0.1
		c0.4,0.3,0.6,0.8,0.7,1.3c0.2,0.9,0.2,1.8,0,2.7c-0.2,1.3-1.5,2.2-2.8,1.9c-0.5-0.1-0.9-0.3-1.3-0.7
		C223,386.4,222.9,386.4,222.8,386.4z M226.4,383.9c-0.1-0.5-0.2-1-0.4-1.5c-0.3-0.8-1.2-1.2-2-1c-0.4,0.1-0.7,0.5-0.9,0.9
		c-0.5,1-0.5,2.2,0,3.2c0.3,0.6,0.9,1,1.5,0.9c0.6,0,1.2-0.4,1.4-1C226.2,384.8,226.3,384.3,226.4,383.9L226.4,383.9z"/>
	<path id="Path_383" class="st1" d="M74.9,442.3l-0.9,0.3l-1.4-2l-3.2,0.9c0,0.7-0.1,1.3-0.1,1.9c0,0.5-0.2,0.8-0.8,0.7
		c0.1-3,0.2-6,0.4-9l0.9-0.3L74.9,442.3z M72.1,439.8c-0.7-1.3-1.5-2.6-2.5-3.7v4.4L72.1,439.8z"/>
	<path id="Path_384" class="st1" d="M165.9,383.8c0,0.4-0.1,0.7-0.1,1c-0.2,1.4-1.4,2.3-2.8,2.2c-1.4,0.1-2.6-0.8-2.8-2.2
		c-0.1-0.7-0.1-1.4,0-2.1c0.2-1.3,1.4-2.3,2.8-2.2c1.3-0.1,2.5,0.9,2.8,2.2C165.9,383.1,165.9,383.5,165.9,383.8z M160.9,383.8
		c0.1,0.6,0.3,1.2,0.5,1.7c0.5,0.9,1.6,1.2,2.4,0.7c0.3-0.2,0.5-0.4,0.7-0.7c0.6-1,0.6-2.3,0-3.3c-0.5-0.9-1.6-1.2-2.4-0.7
		c-0.3,0.2-0.5,0.4-0.7,0.7C161.2,382.7,161,383.2,160.9,383.8L160.9,383.8z"/>
	<path id="Path_385" class="st1" d="M41.2,431.1l-1.8-2.1l-2.5,2.1l1.9,2.3l-0.6,0.6l-2.5-3l6.7-5.6l2.5,2.9l-0.6,0.6l-1.9-2.3
		c-0.8,0.6-1.5,1.2-2.3,1.9l1.7,2.1c-0.1,0.1-0.1,0.2-0.2,0.3C41.5,430.9,41.3,431,41.2,431.1z"/>
	<path id="Path_386" class="st1" d="M180.3,386c0.2,0.7,0.2,0.8-0.4,0.9c-0.8,0.1-1.6,0.1-2.3,0.1c-0.7-0.1-1.3-0.6-1.5-1.3
		c-0.5-1.2-0.5-2.6,0.1-3.7c0.4-0.9,1.3-1.5,2.3-1.4c0.9,0,1.7,0.5,2.1,1.4c0.3,0.7,0.4,1.4,0.3,2.1h-4c-0.2,1,0.4,2,1.4,2.2
		c0.2,0,0.4,0.1,0.6,0C179.3,386.3,179.8,386.1,180.3,386z M176.7,383.3h3.2c0-1.2-0.6-2-1.4-2C177.4,381.4,176.6,382.3,176.7,383.3
		C176.7,383.3,176.7,383.3,176.7,383.3L176.7,383.3z"/>
	<path id="Path_387" class="st1" d="M137.7,378.5l-0.1,0.8c-0.1,0-0.2,0-0.3,0c-0.6-0.1-1.1-0.1-1.7-0.1c-0.6,0-1.1,0.4-1.3,1
		c-0.1,0.6,0.1,1.1,0.7,1.4c0.4,0.2,0.8,0.4,1.1,0.7s0.8,0.4,1.1,0.7c0.8,0.5,1.1,1.5,0.9,2.4c-0.2,0.8-0.9,1.5-1.7,1.7
		c-1,0.2-2,0.1-3-0.3c0-0.2,0.1-0.5,0.1-0.8c0.4,0.1,0.7,0.2,1.1,0.3c0.4,0.1,0.7,0.1,1.1,0.1c0.7,0,1.3-0.5,1.5-1.2
		c0.2-0.7,0-1.2-0.8-1.7c-0.4-0.3-0.8-0.5-1.2-0.7c-0.4-0.2-0.7-0.5-1.1-0.7c-0.8-0.7-1-1.9-0.3-2.8c0.2-0.2,0.4-0.4,0.7-0.6
		c0.4-0.2,0.9-0.3,1.4-0.4C136.5,378.3,137.1,378.4,137.7,378.5z"/>
	<path id="Path_388" class="st1" d="M310.1,380.8h0.8c0,0.1,0.1,0.1,0.1,0.2c-0.8,2.4-1.7,4.9-2.5,7.3c-0.4,1.2-1,1.5-2.3,1.2v-0.6
		c0.1,0,0.2,0,0.3,0c0.5,0.1,1-0.2,1.1-0.7c0.3-0.6,0.3-1.2,0.1-1.8c-0.6-1.5-1.1-3.1-1.6-4.7c-0.1-0.2-0.1-0.5-0.2-0.8h0.9l1.6,4.6
		l0.2,0L310.1,380.8z"/>
	<path id="Path_389" class="st1" d="M210.9,386.9h-0.7c0-0.1-0.1-0.2-0.1-0.3c0-1.1,0-2.2,0-3.2c0-0.3,0-0.6-0.1-0.9
		c0-0.6-0.5-1.2-1.1-1.2c-0.7-0.1-1.4,0.2-1.7,0.9c-0.2,0.5-0.3,1-0.3,1.5c0,1,0,2.1,0,3.2l-0.8,0v-6.2h0.7l0.1,0.6
		c0.1,0,0.2,0,0.2-0.1c0.4-0.4,0.9-0.6,1.4-0.7c1-0.3,2.1,0.4,2.3,1.4c0,0.2,0.1,0.3,0.1,0.5C211,383.9,210.9,385.4,210.9,386.9z"/>
	<path id="Path_390" class="st1" d="M143.8,380.8h0.8v6.1c-0.6,0.3-0.8,0-0.8-0.7c-0.5,0.6-1.2,0.9-2,0.9c-1,0.1-1.9-0.6-2.1-1.6
		c0-0.1,0-0.2,0-0.3c-0.1-1.4,0-2.9,0-4.4l0.8-0.1c0,0.4,0,0.7,0,1c0,1,0,2.1,0,3.1c-0.1,0.7,0.4,1.3,1,1.4c0.8,0.2,1.6-0.2,1.9-0.9
		c0.2-0.4,0.2-0.8,0.3-1.3c0-0.8,0-1.6,0-2.4C143.7,381.4,143.8,381.1,143.8,380.8z"/>
	<path id="Path_391" class="st1" d="M264.3,380.8l0.8-0.1c0,2.1,0,4.1,0,6.1c-0.1,0.1-0.2,0.1-0.3,0.1c-0.1,0-0.3,0-0.4,0l-0.1-0.6
		c-0.1,0-0.2,0.1-0.2,0.1c-0.7,0.6-1.6,0.9-2.5,0.5c-0.5-0.1-0.9-0.5-1.1-1c-0.1-0.2-0.2-0.5-0.2-0.8c0-1.4,0-2.9,0-4.4l0.8,0
		c0,0.6,0,1.1,0,1.6c0,0.8,0,1.7,0,2.5c0,0.9,0.4,1.3,1.1,1.4c0.8,0.2,1.6-0.3,1.8-1c0.1-0.4,0.2-0.7,0.2-1.1c0-0.8,0-1.7,0-2.5
		C264.3,381.4,264.3,381.1,264.3,380.8z"/>
	<path id="Path_392" class="st1" d="M272,386.9h-0.7c0-0.3,0-0.6-0.1-0.9c0-1.1,0-2.2-0.1-3.2c-0.1-1-0.5-1.4-1.3-1.5
		c-0.8,0-1.6,0.5-1.7,1.3c-0.1,0.4-0.2,0.8-0.2,1.2c0,1,0,2,0,3.1c-0.4,0.1-0.8,0.2-0.8-0.3c0-1.9,0-3.8,0-5.7
		c0.7-0.1,0.7-0.1,0.9,0.5c0.2-0.1,0.3-0.2,0.5-0.3c0.7-0.5,1.7-0.6,2.5-0.2c0.7,0.4,1.1,1.1,1,1.9C272,384.1,272,385.5,272,386.9z"
		/>
	<path id="Path_393" class="st1" d="M288.6,386.9h-0.8c0-0.7,0-1.3,0-1.9c0-0.8,0-1.6-0.1-2.4c0-0.7-0.5-1.3-1.2-1.3
		c-0.7-0.1-1.4,0.3-1.7,0.9c-0.2,0.5-0.3,1-0.3,1.5c0,1,0,2.1,0,3.2l-0.8,0.1v-6.2c0.5-0.2,0.8-0.1,0.8,0.6c0.2-0.2,0.3-0.3,0.5-0.4
		c0.7-0.5,1.7-0.6,2.5-0.2c0.7,0.3,1.1,1.1,1.1,1.9C288.6,384.1,288.6,385.4,288.6,386.9z"/>
	<path id="Path_394" class="st1" d="M233,380.8h0.8v6.1l-0.6,0.1l-0.2-0.7c-0.5,0.6-1.2,0.9-1.9,0.8c-1,0.1-1.9-0.6-2-1.6
		c0,0,0-0.1,0-0.1c-0.1-0.9-0.1-1.7-0.1-2.6c0-0.6,0-1.3,0-1.9l0.8-0.1c0,0.1,0.1,0.2,0.1,0.4c0,1.1,0,2.2,0,3.2c0,0.3,0,0.5,0,0.8
		c0.1,0.7,0.5,1.1,1.1,1.2c0.7,0.2,1.4-0.1,1.7-0.8c0.2-0.5,0.3-1,0.4-1.6C233,382.9,233,381.9,233,380.8z"/>
	<path id="Path_395" class="st1" d="M195.6,380.8h0.8c0,0.3,0,0.6,0,0.9c0,1.5,0,3,0,4.5c0,0.3,0.2,0.7-0.3,0.7s-0.4-0.4-0.5-0.8
		c-0.5,0.7-1.4,1-2.2,0.9c-0.9,0-1.6-0.6-1.8-1.5c-0.1-0.3-0.1-0.6-0.1-1c0-1.3,0-2.5,0-3.8h0.8c0,1.1,0,2.1,0,3.1
		c0,0.4,0,0.9,0.1,1.3c0,0.6,0.4,1.1,1,1.2c0.7,0.2,1.4-0.1,1.7-0.7c0.2-0.5,0.4-1.1,0.4-1.7C195.6,382.9,195.6,381.9,195.6,380.8z"
		/>
	<path id="Path_396" class="st1" d="M257.5,380.7l1.3,0.1c0,0.2,0,0.4,0.1,0.6l-1.4,0.1v5.3c-0.8,0.2-0.8,0.2-0.9-0.5
		c0-1.3,0-2.6,0-3.8v-1l-1.2-0.1l-0.1-0.6l1.2-0.1c0-0.2,0.1-0.4,0.1-0.7s0-0.5,0-0.7c0.2-1.4,0.9-1.9,2.3-1.5c0,0.1,0,0.2,0,0.3
		c0,0.1,0,0.2-0.1,0.3c-0.1,0-0.2,0-0.3,0c-0.8,0-1.1,0.2-1.1,1.1C257.5,379.9,257.5,380.2,257.5,380.7z"/>
	<path id="Path_397" class="st1" d="M197.9,386.8c0-0.2,0-0.4,0-0.7c0.1,0,0.2,0,0.3,0c0.5,0.1,1,0.2,1.5,0.2c0.5,0.1,1-0.3,1.2-0.7
		c0.1-0.5-0.1-0.9-0.6-1.2c-0.5-0.3-1-0.5-1.5-0.8c-0.6-0.3-0.9-1-0.7-1.6c0.1-0.6,0.5-1,1-1.2c0.7-0.2,1.4-0.2,2.1,0
		c0.5,0.1,0.5,0.4,0.3,0.8c-0.3-0.1-0.5-0.1-0.8-0.2c-0.4,0-0.8,0-1.2,0.1c-0.4,0.1-0.7,0.5-0.6,0.9c0.1,0.2,0.2,0.4,0.4,0.5
		c0.3,0.2,0.6,0.3,0.8,0.5c0.4,0.2,0.7,0.4,1.1,0.6c0.8,0.6,0.9,1.6,0.4,2.4c-0.2,0.3-0.6,0.6-1,0.7
		C199.6,387.2,198.7,387.1,197.9,386.8z"/>
	<path id="Path_398" class="st1" d="M61.5,435.8h0.8v7.8h2.7v0.8h-3.6V435.8z"/>
	<path id="Path_399" class="st1" d="M252.4,386.2c0.2,0.7,0.2,0.8-0.4,0.8c-0.6,0.1-1.2,0.1-1.8,0c-0.8-0.1-1.5-0.6-1.8-1.4
		c-0.5-1-0.6-2.2-0.2-3.3c0.4-1,1.4-1.8,2.5-1.8c0.6,0,1.2,0,1.9,0.1c0,0.3,0,0.5,0,0.8c-2.8-0.6-4,0.6-3.4,3.3
		C249.4,386.2,250.2,386.4,252.4,386.2z"/>
	<path id="Path_400" class="st1" d="M172.5,381.5l-1.1-0.1v-0.6l1.1-0.1c0-0.3,0-0.6,0-0.9c0-0.5,0.2-0.7,0.8-0.7c0,0.5,0,1,0.1,1.6
		l1.3,0.1l0.1,0.6l-1.4,0.1c0,1.4,0,2.7,0,4c0,0.6,0.3,0.8,0.9,0.8c0.1,0,0.3,0,0.4,0c0.2,0.6,0.2,0.6-0.3,0.7
		c-1.3,0.3-1.9-0.2-1.9-1.5c0-1,0-2.1,0-3.1C172.5,382.1,172.5,381.8,172.5,381.5z"/>
	<path id="Path_401" class="st1" d="M168.3,386.9h-0.8c-0.1-2,0-4,0-6.1l0.7-0.1l0.1,0.7c0.1,0,0.2-0.1,0.2-0.1
		c0.7-0.7,0.9-0.8,1.8-0.6l0,0.7c-0.1,0.1-0.1,0.1-0.1,0.1c-1.4,0.2-1.8,0.6-1.9,2c0,0.8,0,1.6,0,2.4
		C168.3,386.2,168.3,386.5,168.3,386.9z"/>
	<path id="Path_402" class="st1" d="M242.8,387v-9.1l0.6,0c0.2,3,0.2,6.1,0,9.1L242.8,387z"/>
	<path id="Path_403" class="st1" d="M204,386.9h-0.8v-6.1l0.8-0.1V386.9z"/>
	<path id="Path_404" class="st1" d="M281.7,386.9c-0.4,0.1-0.8,0.1-0.8-0.4c0-1.6,0-3.3,0-4.9c0-0.3,0-0.5,0-0.8l0.7-0.1V386.9z"/>
	<path id="Path_405" class="st1" d="M246.3,386.9h-0.7v-6.1h0.6C246.4,382.8,246.4,384.9,246.3,386.9z"/>
	<path id="Path_406" class="st1" d="M281.8,378.1v1l-0.7,0.1c0-0.4,0-0.7,0-1L281.8,378.1z"/>
	<path id="Path_407" class="st1" d="M203.3,378.1h0.7v1h-0.7V378.1z"/>
	<path id="Path_408" class="st1" d="M245.6,378.1h0.7v1l-0.7,0.1V378.1z"/>
</g>
</svg>
