<?xml version="1.0" encoding="utf-8"?>
<!-- Generator: Adobe Illustrator 25.2.2, SVG Export Plug-In . SVG Version: 6.00 Build 0)  -->
<svg version="1.1" id="Layer_1" xmlns="http://www.w3.org/2000/svg" xmlns:xlink="http://www.w3.org/1999/xlink" x="0px" y="0px"
	 viewBox="0 0 296.4 157.6" style="enable-background:new 0 0 296.4 157.6;" xml:space="preserve">
<style type="text/css">
	.st0{fill:none;}
	.st1{fill:#FFFFFF;}
</style>
<rect y="0" class="st0" width="296.4" height="157.6"/>
<g>
	<path class="st1" d="M184.1,70.7c-3.7-1.3-7.2-2.5-10.8-3.8c0.6-2.9,1.4-5.6,1.7-8.3c1.5-11.2-7.4-18.7-15.6-19.1
		c-4.5-0.2-9.2,0.3-13.7,1.1c-9.4,1.6-18.8,3.5-28.2,5.4c-1,0.2-1.9,0.5-3.4,0.9c1.8,11.5,3.6,22.9,5.5,34.4
		c1.9,11.3,3.8,22.7,5.8,34.3c-4.7,2-9.7,1.8-15,3.2c-4.6-27-9.1-53.6-13.6-80.6c8.4-1.5,16.7-3.1,24.9-4.4
		c10.6-1.7,21.2-3.3,31.8-4.7c13.3-1.8,24,3,31.6,14C190.3,50.3,191,62.2,184.1,70.7z"/>
	<path class="st1" d="M168.5,85.8c-0.5-5.6-3.3-9.9-9.8-10.7c-2.3-0.3-4.6-0.5-6.9-0.1c-9.1,1.4-18.2,3.1-27.3,4.6
		c-0.8,0.1-1.6,0.2-2.8,0.4c-0.5-3.5-1.1-6.8-1.7-10.4c12.7-2.2,24.9-4.2,36.7-6.2c3.1-2.8,2.2-5.5,0.9-8.2
		c-1.8-1.6-3.7-1.5-5.7-1.2c-5.8,1-11.7,1.9-17.8,2.9c-4.9-2.8-9.8-5.6-14.7-8.4c0.1-0.3,0.2-0.7,0.3-1c11-2,22-4.1,33-6
		c3.6-0.6,7.2-0.5,10.7,1c8,3.4,11.5,11.3,8.6,19.5c-0.6,1.7-1.3,3.4-2.1,5.5c1.3,0.7,2.5,1.4,3.8,2c7.5,3.5,11.1,10,11.7,17.7
		c0.5,6.7-4.3,16.8-12.6,19.6c-3.7,1.2-7.6,2.2-11.5,2.9c-9.7,1.8-19.5,3.4-29.3,5c-1.3,0.2-2.6,0.3-4.4,0.6
		c-0.7-3.6-1.3-7.1-2-10.9c5.8-0.9,11-1.7,16.2-2.6c4.6-0.8,9.1-1.4,13.6-2.4C162.8,98,168.1,94.4,168.5,85.8z"/>
	<path class="st1" d="M182.7,73.3c12.9,4.9,24.1,21.3,11,36.9c-5.2,6.2-11.9,9.9-19.8,11.3c-15.1,2.6-30.2,5-45.3,7.5
		c-5.1-2.8-9.9-5.4-15.8-8.6c9.6-1.7,18-3.1,26.3-4.6c9.6-1.7,19.2-3.4,28.7-5.1c7.4-1.3,13-5.1,16.7-11.8c3.8-7.1,4-14.1,0.2-21.2
		C184.1,76.2,183.5,74.7,182.7,73.3L182.7,73.3z"/>
	<path class="st1" d="M125.3,81.8c8.3-1.5,15.9-3,23.5-4.3c2.9-0.5,5.9-0.6,8.9-0.4c5.9,0.5,8.4,3.7,8.3,10.5
		c-8.4,1.5-16.9,3-25.6,4.5C135.4,88.8,130.2,85.9,125.3,81.8z"/>
	<path class="st1" d="M125.4,102.3c-1.1-6.6-2.1-12.6-3.3-19.5c6,4,11.3,7.4,16.5,10.9c0.4,2,0.7,3.9,1.2,6.2
		C135.2,100.7,130.7,101.4,125.4,102.3z"/>
	<path class="st1" d="M117.8,50.2c5,2.8,10,5.6,15.1,8.4c0.4,1.9,0.8,3.8,1.4,6.2c-4.9,0.8-9.5,1.6-14.5,2.5c-1.1-5.7-2-11.1-3-16.5
		C117.1,50.6,117.5,50.4,117.8,50.2z"/>
	<path class="st1" d="M182.8,73.2c-0.2-0.1-0.4-0.2-0.2-0.1C182.6,72.9,182.7,73.1,182.8,73.2L182.8,73.2z"/>
</g>
</svg>
