<?xml version="1.0" encoding="utf-8"?>
<!-- Generator: Adobe Illustrator 25.0.0, SVG Export Plug-In . SVG Version: 6.00 Build 0)  -->
<svg version="1.1" id="Layer_1" xmlns="http://www.w3.org/2000/svg" xmlns:xlink="http://www.w3.org/1999/xlink" x="0px" y="0px"
	 viewBox="0 0 296.4 157.6" style="enable-background:new 0 0 296.4 157.6;" xml:space="preserve">
<style type="text/css">
	.st0{fill:none;}
	.st1{fill:#FFFFFF;}
	.st2{opacity:0.51;fill:#FFFFFF;}
	.st3{opacity:0.75;fill:#FFFFFF;}
	.st4{opacity:0.39;fill:#FFFFFF;}
	.st5{fill:#909090;}
	.st6{opacity:0.82;fill:#FFFFFF;}
	.st7{fill:#484848;}
</style>
<rect y="0" class="st0" width="296.4" height="157.6"/>
<g>
	<g>
		<g id="_x34_tfkkY_1_">
			<g>
				<path class="st1" d="M181.2,49.7c3.5-0.4,7.1-0.9,10.6-1.3c5.8-0.8,11.7-1.6,17.5-2.5c3.9-0.6,7.7-1.3,11.6-1.8
					c3.5-0.5,7.1-0.9,10.6-1.4c1.1-0.1,2.1-0.4,3.2-0.6c0.5-0.1,1-0.3,1.6-0.4c4.5-0.7,6.9,2.2,5.3,6.5c-1.7,4.7-3.6,9.3-5.3,14
					c-2.5,6.6-4.9,13.2-7.4,19.8c-3.2,8.4-6.4,16.8-9.6,25.3c-1.7,4.6-7.4,7-11.3,5.8c-2.8-0.9-5.8-1.1-8.7-1.6
					c-3.6-0.6-7.2-1.2-10.8-1.8c-3.1-0.5-6.2-1-9.2-1.5c-2.6-0.4-5.1-0.7-7.7-1.1c0-0.2-0.1-0.3-0.1-0.5c0.3-1.8,0.9-3.6,1-5.4
					c0.1-1.6,1.2-3.2,0.3-4.8c0.2-1,0.3-2.2,1-1.9c0.1,0.1,0.5,0.2,0.5,0.9c0.3,1.5,0.3,2.2,0,3.8c0.2,0.7,0.8,0.3,0.8,0
					c0.7-1.5,0.5-3.1,0.5-4.8c0-1.4-0.3-2-1.8-1.9c0.2-0.8,0.4-1.5,0.6-2.3c0.6-2.6,1.1-5.3,1.6-7.9c0.4,1,0.8,2.1,1.3,3.1
					c0.6,1.2,1.5,2.1,3.4,2c0-1.5,0.2-3,0-4.5c-0.4-2.9-1-5.7-1.7-8.6c-0.4-1.5-1-3-1.5-4.5c0.2-0.3,0.4-0.6,0.5-0.9
					c0.6-3.3,1.1-6.6,1.6-10c0.4-3,0.8-6,1.2-9C180.9,50.1,181,49.9,181.2,49.7z M185.5,72.2c-1-1.8-1-1.8-1-3.5
					c0.1-2.1,0.4-4.3,0.4-6.4c0-1.5-1.3-2.5-2.9-2.4c-1.4,0.1-1.7,0.5-1.8,2.4c0,0.5,0,1.1,0,1.6c0.4,6.3,0.7,12.6,1.1,19
					c0.1,2.3,2.2,4.6,4.3,4.9c2.5,0.3,4.8,0,6.9-1.6c3.6-2.8,5.5-6.5,5.5-11.1c0-4.4-3.3-6.7-7.6-5.9
					C188.3,69.7,187.2,71.2,185.5,72.2z M202.3,82c0.8-2.2,2.6-3.3,4.2-4.6c1.6-1.3,3.1-2.7,4.6-4.1c0.7-0.6,1-1.5,0.7-2.4
					c-1.3-3.4-6.6-4.9-8.9-2.3c-3.4,3.9-5,8.2-4.3,13.3c0.3,2.2,1.6,4,3.8,5.2c3.2,1.7,8.4,0.9,11.3-2.7c1.1-1.4,1.3-2.7,0-4.3
					c-0.7,0.5-1.3,0.9-1.9,1.4c-1.3,0.9-2.6,1.8-4.1,2.5C204.8,85.1,204.4,84.9,202.3,82z M193.4,90.4c-1.3,4.3-1.3,6.2-1.3,8.8
					c0.1,0.1,0.5,0.2,0.6-0.2c0.5-1.3,0.7-3.9,0.7-4.2c0-0.4,1.3-1.2,1.8-0.5c1.1,1.6,0.1,3.4,0.2,4.9c0.1,0.3,0.3,0.3,0.6,0
					c0.2-0.9,0.5-1.8,0.6-2.7c0.1-1,0.2-2.2-0.3-3c-0.3-0.6-1.7-1.3-2.7-0.3c-0.1-0.4,0.5-2.5,0.4-2.9
					C193.9,90,193.5,89.8,193.4,90.4z M199.6,102.2c0.5,0.1,1-0.6,1.1-1.3c0-1.4,0.2-2.4,0.6-3.4c0.2-0.5,1.1-0.2,2.1-0.8
					c0.2-0.1,0.4-0.4,0.5-0.6c0.5-0.9,0.8-1.9,0-2.7c-0.7-0.8-1.6-0.4-2.5-0.1c-0.2,0.1-0.5,0.5-0.7,0.5c-0.1,0.1-0.2-0.5-0.6-0.4
					c-0.4,0.1-0.3,1.3-0.5,2c-0.3,1.7-0.2,3.5-0.4,5.3C199.3,101.1,199.1,102.1,199.6,102.2z M178.4,98.2c-0.5,0-0.6-0.4-0.4-0.8
					c0.8-0.8,1.7-1.5,2.3-2.5c0.3-0.4,0.4-1.3-0.2-1.7c-0.7-0.3-1-0.3-1.5-0.1c-1.4,0.7-2.4,3-2.1,4.6c0.3,1.5,1.7,2.4,3,1.7
					c0.9-0.5,1.8-1.1,1.7-2.5c-0.1-0.2-0.3-0.3-0.5-0.1C180.1,97.2,179.6,98.2,178.4,98.2z M189.3,97.6c0.9,0.9-1.4,1.5-1.8,0.5
					c-0.7-0.9-1.3-0.7-1,0.1s2,2,3.3,1.2c1.1-0.7,0.9-1.6,0.4-2.5c-0.2-0.3-0.9-0.6-1.2-0.9c-0.1-0.1-1-0.6,0.1-1.4
					c0.2-0.1,1.1,0.4,1.4,0.3c0.2-0.1,0.4-0.2,0.3-0.4c-1.4-1.4-3.5-0.9-3.5,0.7C187.2,96.7,188.5,96.7,189.3,97.6z M182.4,94.2
					c0.1,4.6-0.6,4.7,0.4,5.2c0.4,0,0.7-0.6,0.7-3.2c0-0.9,0.6-1.4,2.7-2.4c0.2-0.2,0.1-0.6-0.1-0.7c-0.9,0.2-2,0.2-3,1.4
					c-0.1,0.1,0-0.6-0.1-0.6C182.9,94.1,182.7,94.1,182.4,94.2z M198.4,93.1c-0.2,2.1-0.7,3.3-0.5,6.2c0,0.1,0.2,0.2,0.3,0
					c0.9-1.9,0.6-4.3,0.6-6.3C198.8,92.9,198.5,93.1,198.4,93.1z"/>
				<path class="st1" d="M116.1,117.6c-0.9,0.4-1.8,0.7-2.6,1.2c-3.8,2.5-7.5,5.2-11.3,7.7c-4.4,2.9-7.9,2.1-10.4-2.6
					c-8.6-16.1-17.1-32.3-25.6-48.4c-3.9-7.4-7.9-14.8-11.8-22.3c-0.6-1.1-1-2.3-1.1-3.5c-0.2-2.5,1-4.1,3.5-4.7
					c2.3-0.5,4.6-0.8,6.9-1.1c8.8-1.2,17.5-2.5,26.3-3.7c5.5-0.8,11-1.5,16.5-2.3l0.2,0l0.2,0c0,1.1,0,2.1,0,3.2
					c0.1,1.8,0.3,3.7,0.4,5.5c-0.6-0.9-1.4-1.3-2.5-1.1c-1.2,0.2-2.8,0-3.5,0.7c-2.2,1.9-3.4,4.6-3.6,7.5c-0.1,1.2,0.5,2.1,1.6,2.5
					c2.1,0.8,4.6-0.1,5.9-2c0.2-0.4,0.2-0.9,0.3-1.6c-2,0.4-3.2,2.6-5.3,1.9c-0.7-3.2,0.8-6.6,3.6-7.8c0.4,0.3,0.7,0.7,1.2,1
					c0.4,0.3,0.9,0.5,1.5,0.8c0.3-0.7,0.6-1.2,0.8-1.7c0.2,0,0.4,0,0.6,0c-0.3,2.4-0.6,4.7-0.9,7.1c-0.1,0.9-0.5,1.9,0.9,2.5
					c0.4-0.7,0.7-1.4,1-2.1c-0.2,4.2,0.4,8.2,1.2,12.3c-3.4-1-6.6-0.6-9.7,1.2c-1.6,1-2.8,2.2-2.8,4.2c0,0.7-0.1,1.4-1,1.6
					c-1-1.2-2-2.5-3.1-3.6c-0.5-0.5-1.5-0.5-2.3-0.7c-3-0.5-5.1,1.6-7.6,3.6c-0.2-1.5-0.5-2.4-0.5-3.3c0.1-2,0.3-4.1,0.4-6.1
					c0-1.1-0.1-2.2-1.2-2.8c-1.2-0.6-2.4-0.6-3.4,0.5c-0.1,0.6-0.2,1.1-0.1,1.6c0.4,6.9,0.7,13.7,1.1,20.6c0.2,2.6,2.1,4.4,4.6,4.8
					c2.2,0.3,4.3,0,6.1-1.4c3.9-2.8,5.7-6.7,6-11.4c0.4,0.7,0.8,1.5,1.1,2.2c1.1,2.9,3,5.1,6.2,5.7c3,0.5,5.8-0.4,7.6-3.1
					c0.4,3.8,1,7.7,1.4,11.5c0,0.3,0.2,1.1,0.3,1.4c-1.5,0.9-1.6,1.3-2.1,2.3c-1.4,2.8-0.5,4.1,2.6,4.2c0.2,1.8,2.5,17.1,2.7,17.8
					C116.2,117.1,116.1,117.4,116.1,117.6z M84.5,48.8c0.6-0.8,1-1.2,1.2-1.7c0.5-1,0.2-1.9-0.8-2.4c-1.4-0.7-4.6,0.4-5,2
					c-0.6,2.5-0.9,5.1-1.3,7.6c-0.1,0.9,0.3,1.6,1.2,1.8c2.2,0.4,4.3,0.3,6-1.4c1.7-1.6,1.8-3.1,0.1-4.8
					C85.6,49.5,85.1,49.2,84.5,48.8z M94.2,44.8c-0.9,0.6-1.9,1.1-2.4,1.8c-1.4,2.1-2.6,4.2-3.8,6.4c-0.4,0.7-0.6,1.4-0.9,2.1
					c1.7,1.1,2.2,0,2.6-1c0.7-1.6,1.9-2.2,3.7-2.1c0.3,1,0.4,2,0.9,2.9c0.3,0.5,1,0.7,1.6,1.1c0.2-0.5,0.7-1.1,0.6-1.5
					c-0.4-2.9-0.9-5.8-1.5-8.7C95,45.6,94.7,45.4,94.2,44.8z M99.3,93.2c0,0,0.1-0.9-0.3-0.7s-0.5,0.5-0.5,0.5s-1.4,0-1.5,0
					s-2.9,0-2.3,3c0.6,3,3.1,1.5,3.1,1.5c0-0.2,0.5,0.2,0.1,1.4c-0.2,0.7-0.2,1.4-1.3,1.3c-1.1,0-1.5-0.4-1.7-0.4s-1.1,0.9-0.1,1.1
					c1,0.2,2.6,0.2,3,0c0.3-0.2,1.3,0.3,1.3-5.4L99.3,93.2z M92.4,99.9c0.8-0.4,1.4-1.1,2-1.7c0.3-0.9,0-1-0.4-0.8
					c-0.4,0.2-1.1,0.8-1.5,1.1c-1.5,1-2,0.1-1.8-0.3c0.9-0.8,1.7-1.7,2.6-2.5c0.6-0.7,0.8-1.4,0-2.1c-0.7-0.6-1.4-0.4-1.9,0.2
					c-0.9,0.8-2.8,2.2-1.8,4.9C89.6,98.6,90.8,100.6,92.4,99.9z M108.3,98.9c0.2,0.4,0.4,0.2,0.6,0c1.4-2.4,1.3-5.1-0.4-6.6
					c-1.4,0-2.2,1.5-2,0.9c0.2-0.6-0.2-1-0.6-0.6c-1.1,1.3-1.2,4.8-1,6.4c0,0.2,0.4,0.1,0.6,0c0.8-1,0.6-3.7,1.2-4.7
					c0.3-0.4,1.5-0.4,1.7-0.2C109.4,94.8,108.4,97.4,108.3,98.9z M100.7,97.2c0.9-0.8,1.7-1.7,2.6-2.5c0.6-0.7,0.8-1.4,0-2.1
					c-0.7-0.6-1.4-0.4-1.9,0.2c-1.1,1.2-1.9,2.6-1.9,4.3c0,1.8,1.2,2.7,2.8,1.9c0.8-0.4,1.4-1.1,2-1.7c0.3-0.9,0-1-0.4-0.8
					c-0.4,0.2-1.1,0.8-1.5,1.1C101.1,98.6,100.5,97.6,100.7,97.2z M85.9,99.1c0.2-1.2,0-2.6,0.5-3.6c0.3-0.6,1-1.6,1.8-1.5
					c1.5,0.3,1.5-0.2,0.7-0.9c-0.7-0.5-2.4,0.8-3,0.9c-0.5,0.1,0.1-0.9-0.3-0.9c-0.1,0-0.5-0.3-0.6,0.6c-0.2,1-0.1,3.3,0,4.4
					C85.2,99.8,85.2,100,85.9,99.1z"/>
				<path class="st2" d="M181.2,49.7c-0.2,0.2-0.4,0.4-0.5,0.5c-4.9,0.6-9.7,1.3-14.6,1.9c-3,0.4-6,1-9,1.3
					c-5.1,0.5-8.9,3.9-9.8,9.1c-0.3,1.9-0.4,3.9-0.6,5.8c-1.3,0-2.7,0.1-4,0.1c-1,0-1.7,0.4-1.8,1.7c2.3,1.2,2.3,3.3,1.8,5.5
					c-0.2,1-0.3,2.1-0.4,3.1c-0.7,0.4-1.3,0.7-1.9,1.2c-0.6,0.5-1.1,1.1-1.7,1.7c-1,1.1-2.1,1.8-3.6,2.1c-2.3,0.3-3.2-0.3-3.5-2.5
					c-0.3-2.4,0-4.7,1-6.8c0.4-0.8,1.1-1.4,1.8-2.3c0.4,0.5,0.7,0.8,0.9,1.1c0.5,0.8,0.9,1.8,1.4,2.6c0.7,0.9,1.6,1.5,2.8,1
					c1.1-0.5,1-1.6,0.8-2.6c-0.8-4.4-4.8-6.8-9.8-4.6c0.2-5.2,0.4-10.4,0.5-15.6c0.8,0.7,1.3,2,3,1.8c0.4-3.4,0.9-6.8,0.7-10.2
					c0-0.5-0.6-0.9-1.1-1.5c-1.8,2.2-0.3,4.7-1.4,7.1c-0.5-0.9-0.9-1.5-1.2-2.1c0.1-0.2,0.4-0.4,0.4-0.7c0.1-2.9,0.2-5.7,0-8.6
					c-0.1-2.1-2-3.9-4.2-4.2c-2.8-0.4-5.5,0-8.2,0.4c-2.5,0.4-5.1,0.7-7.7,1c-1.7,0.2-3.3,0.5-5,0.7l-0.2,0l-0.2,0
					c0-0.1,0.1-0.3,0.1-0.4c-0.1-0.8-0.3-1.5-0.4-2.3c-0.7-6-1.4-12.1-2.2-18.1c0-0.3,0-0.5-0.1-0.8c-0.3-4.9,1.9-6.8,6.8-5.6
					c15.1,3.7,30.1,7.5,45.2,11.2c6.9,1.7,13.9,3.4,20.8,5.1c2,0.5,3.9,1.1,5.3,2.8c1.7,2.1,1.7,4.5,1.4,6.9
					c-0.5,3.4-1.2,6.9-1.8,10.3C181.4,48,181.3,48.8,181.2,49.7z M144.2,46.8c-1.3-2-3.1-2.4-5-1.2c-2.6,1.6-3.7,4.1-3.7,7
					c0,2.7,1.3,4.1,3.8,4.2c2.6,0.1,5.4-1.7,5.7-3.8c0.1-0.9,0.4-1.8,0.6-2.7c-2.1-1.2-3.3-1.1-4.5,0.7c0.8,0.5,1.6,1,2.6,1.6
					c-1.1,1.7-2.6,1.9-4.2,2c-1.2,0-1.9-0.6-2.1-1.7c-0.3-2,0.7-3.6,1.9-5.1c1-1.1,2.1-1.6,3.6-0.9
					C143.2,47.1,143.7,46.9,144.2,46.8z"/>
				<path class="st2" d="M116.1,117.6c0-0.2,0.1-0.4,0.1-0.6c1.8-1.3,3.6-2.6,5.4-3.8c2-1.3,3.8-2.7,4.9-4.7c0.8-1.5,1.4-3,2.1-4.6
					c0.7-1.5,0.7-3.1-0.1-4.6c0.5-1.4,0.6-2.4,1-3.9c-0.1-0.4,0.7-0.9,1.9-0.9c0.3,0,0.4-0.3,0.3-0.6c-1.1-0.5-2.1-0.1-2.1-1.5
					c0-2,0.1-4.1,0.1-6.1c5.3,3.4,9.4,1.5,12.9-3c0.6,1.2,1.1,2.1,1.6,3c-0.2,1-0.6,2.1-0.5,3.1c0.1,1.5-0.5,2.6-1.6,3.4
					c-0.2,0.3-0.8,1.3-0.9,1c-0.8-1.4-1.2,0.8-1.3,2.1c-0.2,0-0.8,0-0.9,0c0.1-3-1.2-3.4-3.9-2.7c-0.6,0.3,0.1,0.6,0.5,0.6
					c0.3,0-0.3,0.6-0.4,0.8c-0.6,0.8-0.6,1.8-0.6,2.8c0,0.7,0.5,1.5,1,1.7c0.6,0.2,1.6-0.1,2.1-0.6c0.8-0.7,1-1.6,1.4-2.6
					c0.4,0,0.7,0,0.9,0c-0.1,0.8-0.5,2.1-0.4,2.6c0.1,0.7,0.5,0.9,1,0.2c0.8-1.4,0.4-3.6,2.4-4.7c0.8-0.3,0.2,3.6,0.2,5.2
					c0.6,0.5,1.3,0.9,1.8,1.6c1.5,1.9,3.7,2.3,5.9,2.7c3.8,0.6,7.7,1.3,11.5,1.9c3.1,0.5,6.1,1,9.2,1.4c0,0.2,0,0.3,0.1,0.5
					c-1.3,7.3-2.5,14.6-3.8,21.9c-0.7,4-1.3,7.9-2,11.9c-0.8,4.4-3.9,5.9-7.9,3.8c-5-2.6-9.9-5.4-14.8-8.2
					c-6.6-3.7-13.2-7.4-19.9-11C119.7,123.8,117.4,121.2,116.1,117.6z M133.1,99.2c0.6-2,1-4,0.8-6.1c0-0.2-0.5,0-0.6-0.1
					c-0.3,1.8-1,3.2-0.8,6.1C132.4,99.3,132.7,99.2,133.1,99.2z M134.6,90.7c-0.2-0.5-0.8-0.5-1.1-0.6c-0.2,0-0.4,0.4-0.5,0.5
					c-0.2,0.4,0.2,0.7,0.6,0.6C133.9,91.2,134.3,91.3,134.6,90.7z"/>
				<path class="st3" d="M142,92.8c1.1-0.9,1.7-1.9,1.6-3.4c0-1,0.3-2.1,0.5-3.1c4.3,3.2,7.6,1.6,10.1-1.7c1-1.3,1.8-2.9,2.3-4.4
					c1.5-4.6-0.5-8.6-5-10.3c-1.6-0.6-3.3-0.9-4.9-1.3c0.2-1.9,0.2-3.9,0.6-5.8c0.9-5.2,4.6-8.6,9.8-9.1c3-0.3,6-0.9,9-1.3
					c4.8-0.7,9.7-1.3,14.6-1.9c-0.4,3-0.7,6-1.2,9c-0.5,3.3-1,6.7-1.6,10c-0.1,0.3-0.3,0.6-0.5,0.9c-0.9-1.1-1.9-1.8-3.3-2.1
					c-2.7-0.5-3.8,1.9-5.7,3.1c-0.3-0.5-0.5-0.9-0.7-1.2c-1.7-3-3.9-3.4-6.6-1.3c-1.2,0.9-2.4,1.8-3.8,2.9c0.5,3.7,1.1,7.4,1.7,11
					c0.2,1.2,0.4,2.5,0.9,3.6c0.6,1.6,1.5,1.8,3.5,1.1c0-2.4,0.1-4.9,0-7.4c-0.2-5-0.1-5.6,1-7.5c0.4,1.2,0.9,2.2,1.1,3.2
					c0.3,1.8,0.4,3.7,0.7,5.6c0.2,1.5,0.4,3,0.9,4.5c0.6,1.9,1.6,2.3,4,1.9c0-2.2-0.1-4.4,0-6.6c0.2-2.2,0.5-4.4,0.9-6.6
					c0.2-1,0.7-2,2-2.6c1.6,3.5,1.4,7.2,1.9,10.8c-0.5,2.6-1.1,5.3-1.6,7.9c-0.2,0.8-0.4,1.5-0.6,2.3c-0.5,0.1-0.9,0.4-1.2,0.8
					c-0.1,0.2-0.5,0.7-0.5,0.5c0-0.5-0.8-1.3-1,0.3c-1.4-0.3-3,0.4-2.4-1.5c0-0.2-0.9-0.3-1-0.1c-0.1,0.1,0,1.3-0.3,1.2
					c-0.1,0-0.6,0-0.8,0c-0.4,0.1-0.7-0.1-0.9-0.2c-1.4-0.7-2.6,0-3.9,0.4c-0.1,0-0.1-0.6-0.4-0.4c-0.2,0.2-0.4,0.1-0.4,0.4
					c-0.1,1.6-0.5,3.2,0.3,5.1c0.1,0.2,0.5,0.2,0.5-0.1c0.1-2-0.1-2.4,0.2-3.4c0.4-1.1,2.4-1.7,3.6-1.1c0,0,0.1-0.8,0.1-0.9
					c0,0,0.5,0.3,0.8,0.2c0,0.4-0.2,1.1-0.2,1.1c0.3,0.1,0.4,0.2,0.7,0.4c0.6,1.2-1.2,2.7,0.4,4c0.2-0.3,0.4-0.5,0.5-0.7
					c0.2-0.5,0.3-1,0.3-1.6c0.3-1.9,0.4-1.9,1.6-1.9c0.2,0,0.5-0.5,0.5-0.8c0,0,0.4-0.1,0.7,0c0.2,1.7-0.4,3.4,0.4,5.7
					c0.3,0,0.7,0.1,0.9-0.4c0.1-0.4,0-1.5,0.2-1.8c0-0.2,0.2-1.1,0.2-1.3c1,1.7-0.2,3.2-0.3,4.8c-0.1,1.8-0.6,3.6-1,5.4
					c-3.1-0.5-6.1-1-9.2-1.4c-3.8-0.6-7.7-1.2-11.5-1.9c-2.2-0.4-4.4-0.8-5.9-2.7c-0.5-0.6-1.2-1-1.8-1.6c0.3,0.3,0.9-0.1,1-1
					c0.2-1.2,0.2-2.5,0.2-3.7C144.3,92.9,143.5,92.4,142,92.8z M159.3,99.4c0.7-2.1,0.6-4,0.3-5.8c-0.2-1.5-1.8-1.9-2.8-0.7
					c-0.7,0.9-1.4,1.9-1.8,3c-0.4,1.1-1.5,2.5,0,3.3c0.6,0.4,2-0.5,3-0.9C158.3,98.5,158.7,98.8,159.3,99.4z M149.6,102.1
					c0.8-0.6,1.1-0.7,1.2-0.9c0.3-2.1,1.3-3.7,3-5c1.3-1,1.3-2.6,0.4-3.2c-0.8-0.6-3-0.2-3.6,0.8c-0.3,0.4-0.4,1-0.4,1.5
					c-0.2,1.2-0.4,2.5-0.5,3.7C149.5,99.9,149.6,100.7,149.6,102.1z"/>
				<path class="st3" d="M129.7,86.2c0,2-0.1,4.1-0.1,6.1c-1.2-0.3,0,1.8-2.9,1.6c-0.4,0-0.2,0.6,0,0.7c2.7,0.1,1.4,2.1,1.2,3.6
					c-0.2,0.6-0.3,0.9,0.2,1c0.2,0,0.3,0.1,0.5,0.1c0.8,1.5,0.7,3.1,0.1,4.6c-0.7,1.5-1.3,3.1-2.1,4.6c-1.1,2.1-2.9,3.5-4.9,4.7
					c-1.9,1.2-3.6,2.5-5.4,3.8c-0.2-0.7-1.4-7.5-1.6-8.1c0-0.9-0.9-7.9-1.1-9.7c1.1-0.4,1.9-1.1,1.4-2.5c-0.7,0.3-0.4,1.4-1.9,1.3
					c0-0.5-0.1-1.5-0.1-2c0.7-0.7,2.5-1.7,2.4-2.4c0-0.7-1.4-0.9-2.4-0.9c-0.2-0.3-0.3-1.1-0.3-1.4c-0.4-3.8-1-7.7-1.4-11.5
					c0.6-1.2,1.3-2.3,1.8-3.6c1.2-3.4,0.6-8.2-3.2-9.9c-0.8-4.1-1.4-8.2-1.2-12.3c0.1-0.2,0.2-0.5,0.3-0.9c1.5,1.2,2.8,2.9,5,2.4
					c0.4,0.2,0.9,0.4,1.3,0.6c3-0.2,6,0.3,8.8-0.9c-0.2-1.9-1.9-1.5-3.1-2.2c0.2-1,0.4-2,0.5-3.1c0.6-3.2,1.3-3.7,4.7-3.1
					c0.5,3-1.2,6-0.7,9.1c1.8-0.6,1.8-0.6,2-1.6c0.3-1.7,0.6-3.4,0.9-5.2c0.2,0,0.4,0,0.7-0.1c0.7,1.6,1.5,3.2,2.2,4.8
					c-0.2,5.2-0.4,10.4-0.5,15.6c-2,3.1-3.4,6.4-3.1,10.2c0,0.7-0.1,1.4-0.1,2.1c-2.1-3.6-6-5.2-9.3-7.6c2.5-2,5.2-0.4,7.5-1.1
					c0.2-1.8,0.2-1.9-0.9-2.4c-2.4-1-4.8-1.1-7.3-0.3c-1.7,0.5-3,1.4-3.2,3.2c-0.3,1.7,1.2,2.5,2.3,3.3c1.3,0.8,2.7,1.4,4,2.2
					c1.7,1,3.2,2.2,3.2,4.6c-2.1,1.1-4.2,1.7-6.5,1c-1.5-0.5-2.2-1.5-2.3-3.2c-2.2,2.3-2,4.1,0.4,5.3c2.7,1.3,5.5,1.3,8.4,0.6
					c2.8-0.6,4.6-2,3.7-5.6c0.2,0,0.4,0.1,0.5,0.1c0,0.3,0.1,0.7,0.1,1c0.2,0.3,0.3,0.5,0.5,0.8C128.9,84.6,129.3,85.4,129.7,86.2z
					 M120.5,99.2L120.5,99.2c0.5,0.6,1.2,0.7,1.7,0.1c0.5-0.4,1-0.9,1.5-1.3c0.8-0.7,0.7,0,0.6,0.9c0.1,0.8,0.6,0.4,1,0.3
					c0.9-1.5,0.3-2.9,0.5-3.8c0-0.4,0-0.7-0.1-1.1c-0.1-1-0.4-1.8-1.5-2c-1.1-0.3-1.7,0.4-2.1,1.2c-0.6,1.2-0.9,1.9-1.5,3.1
					c-0.1,0.2-0.4,1-0.5,1.3c0,0.2-0.1,0.5,0,0.8C120.3,98.9,120.2,98.9,120.5,99.2z M116.4,99c0.2,0,0.4,0.1,0.7,0.1
					c0.3-2.3,0.2-5,3.8-5.4c-2-1.5-3,0.6-4.4,0.2C116.4,95.8,116.4,97.4,116.4,99z"/>
				<path class="st3" d="M106.6,37.9c1.7-0.2,3.3-0.5,5-0.7c2.6-0.3,5.1-0.6,7.7-1c2.7-0.5,5.4-0.8,8.2-0.4c2.2,0.3,4.1,2.1,4.2,4.2
					c0.1,2.9,0,5.7,0,8.6c0,0.2-0.3,0.4-0.4,0.7l0,0c-0.1-0.2-0.3-0.4-0.4-0.5c-0.2-0.4-0.5-0.7-0.7-1.1c-0.1-0.2-0.3-0.4-0.4-0.5
					c-0.7-0.9-1.4-1.9-2.8-1.7c-0.2-0.1-0.5-0.3-0.7-0.4c-3.4,0.2-6.7,0.4-10.1,0.7c-1.2-0.2-2.1,0-2.9,1.1
					c-0.9,1.2-1.9,2.3-3.5,2.5c-0.8-1.4,0.9-3.1-1.1-4.3c-0.4,0.6-0.7,1.1-1,1.7c-0.2,0-0.4,0-0.6,0l0,0c-0.1-1.8-0.3-3.7-0.4-5.5
					C106.6,40,106.6,38.9,106.6,37.9z"/>
				<path class="st4" d="M96.9,75.1c0-0.6,0.2-1.1,0.2-1.7c0.2-0.9,0.2-0.9,0.2-1.7c0-2,1.2-3.2,2.8-4.2c3-1.8,6.3-2.3,9.7-1.2
					c3.9,1.7,4.4,6.6,3.2,9.9c-0.4,1.2-1.2,2.4-1.8,3.6c-1.8,2.8-4.6,3.7-7.6,3.1c-3.1-0.5-5.1-2.7-6.2-5.7
					C97.2,76.5,97.3,75.9,96.9,75.1z M106.3,68.6c-1.7,0-3.8,1.6-4.5,3.3c-1.1,2.8-0.7,5.4,1.1,6.9c2.2,1.9,4.9,1.5,6.1-1.3
					c0.6-1.4,1-2.9,1.1-4.3C110.3,70.7,108.4,68.6,106.3,68.6z"/>
				<path class="st5" d="M172.2,98.1c0.1-0.4,0.3-0.7,0.4-1.1C172.5,97.4,172.3,97.8,172.2,98.1z"/>
				<path class="st1" d="M192.2,73c2.2,4.6-0.9,10.6-5.9,11.5c-0.1-0.6-0.3-1.2-0.2-1.8c0.5-2.6,0.9-5.3,1.8-7.8
					C188.5,73.1,190.2,72.7,192.2,73z"/>
				<path class="st1" d="M206.8,70.6c0.3,0.7,0.6,1.2,0.6,1.6c-0.2,1.1-2.1,2.7-5,4.3C203.3,74,204.2,72,206.8,70.6z"/>
				<path class="st1" d="M201.2,95.9c-0.2-1.4,0.7-2.4,1.6-1.8c0.9,0.6-0.5,2.2-1,2.2C201.3,96.3,201.3,96.1,201.2,95.9z"/>
				<path class="st6" d="M116.2,46.5c0.7,1.5,2.5,0.4,3.8,1.6c-0.4,1.9-0.8,3.9-1.2,5.9c-1.1,0.2-1.9,0.2-2.7,0.4
					c-1.1,0.2-1.1,1-0.8,1.8c-0.4-0.2-0.9-0.4-1.3-0.6c0.5-1.3-0.3-2-1.3-2.5c-0.8-0.4-1.7-0.8-2.7-1.2
					C112.2,50,114.2,48.3,116.2,46.5z"/>
				<path class="st1" d="M113,98c-0.4,0-1.1-0.1-1.1-0.3c0-0.3-0.1-0.7,0.1-0.9c0.2-0.3,0.7-0.5,1-0.8C113,96.5,113.1,97.5,113,98z"
					/>
				<path class="st1" d="M90.7,73c2.3,4.2-1,10.6-5.9,11.4C84,82.6,85,80.8,85.3,79c0.1-0.9,0.5-1.7,0.7-2.6
					C86.6,73.3,87.4,72.8,90.7,73z"/>
				<path class="st7" d="M131.2,49.2c-0.1-0.2-0.3-0.4-0.4-0.5C131,48.9,131.1,49,131.2,49.2z"/>
				<path class="st7" d="M130.2,47.6c-0.1-0.2-0.3-0.4-0.4-0.5C129.9,47.2,130,47.4,130.2,47.6z"/>
				<path class="st7" d="M126.9,45.4c-0.2-0.1-0.5-0.3-0.7-0.4C126.5,45.1,126.7,45.2,126.9,45.4z"/>
				<path class="st1" d="M106.3,68.6c2.1,0,4,2.1,3.8,4.6c-0.1,1.5-0.5,3-1.1,4.3c-1.2,2.7-3.9,3.2-6.1,1.3
					c-1.8-1.5-2.2-4.1-1.1-6.9C102.4,70.1,104.6,68.5,106.3,68.6z"/>
				<path class="st1" d="M80.6,54.9c0.2-1.6,0.3-2.4,0.4-3.2c0.2-1,1-1.6,1.9-1.3c0.7,0.2,1.5,0.8,1.7,1.3c0.1,0.5-0.4,1.5-0.9,1.9
					C83.1,54.2,82.2,54.3,80.6,54.9z"/>
				<path class="st1" d="M83.3,46.4c0,0.2,0,0.5-0.2,0.7c-0.3,0.3-0.6,0.5-1.4,0.5c0.3-0.5,0.7-1,1-1.5
					C82.9,46.1,83.1,46.2,83.3,46.4z"/>
				<path class="st1" d="M93.1,49.2c-0.1,0.3-0.2,0.6-0.3,0.9c-0.2-0.1-0.4-0.2-0.6-0.2c0.1-0.3,0.3-0.6,0.4-0.8
					C92.8,49.1,92.9,49.1,93.1,49.2z"/>
				<path class="st1" d="M96.1,96.3c-0.2-0.6,0-1.7,0.2-2c0.3-1.2,1.1,0,1.2,0.9C97.9,96.3,96.4,96.9,96.1,96.3z"/>
				<path class="st1" d="M113.2,94.5c-0.1,0.1-0.3,0.2-0.3,0.3c-1.1,1.1-1.1,0.5-1.2,0.5c-0.2-0.2,1-2,1.5-1.8V94.5z"/>
				<path class="st3" d="M147.7,83.9c-0.2-0.2-0.5-0.5-0.6-0.8c-0.6-3.2-0.6-6.4,0.4-9.5c0.4-1.1,1.2-1.5,2.3-1.4
					c1.5,0.2,2.7,0.9,3.2,2.4C154.4,78.3,151.7,83,147.7,83.9z"/>
				<path class="st2" d="M137.4,94.3c0.3,1.8,0.3,1.8-0.8,3.1C135.8,95.8,135.8,95.7,137.4,94.3z"/>
				<path class="st3" d="M156,97c0.1-1,0.2-2.1,1.6-3.3C158.9,93.5,156.7,98,156,97z"/>
				<path class="st3" d="M152.7,94c1.5,0.5,0.4,1.5-1.1,1.9C151.8,95.1,151.7,94.1,152.7,94z"/>
				<path class="st3" d="M121.9,97.3c0.1-1.4,1.6-4.6,1.9-3.7C124.1,95.6,122.1,98.1,121.9,97.3C122,97.3,122,97.3,121.9,97.3z"/>
			</g>
		</g>
		<path class="st1" d="M102,93.6c0,0-1,0.3-1.2,1.4c-0.2,1.1,1.2-0.2,1.2-0.2s0.8-0.7,0.9-1.2C102.9,93,102.5,93.1,102,93.6z"/>
		<path class="st1" d="M178.9,94.2c0,0-1,0.3-1.2,1.4s1.2-0.2,1.2-0.2s0.8-0.7,0.9-1.2C179.8,93.7,179.4,93.7,178.9,94.2z"/>
		<path class="st1" d="M91.8,94.5c0,0-1,0.3-1.2,1.4c-0.2,1.1,1.2-0.2,1.2-0.2s0.8-0.7,0.9-1.2C92.8,93.9,92.4,94,91.8,94.5z"/>
	</g>
	<path class="st1" d="M95.4,72.2c0,0,1.3,1.1,0.9,3.9C95.9,79,97.6,79,97.6,79l0.2-0.9c0,0-0.6-3.2-0.4-6.6
		C97.5,68.1,95.4,72.2,95.4,72.2z"/>
</g>
<path class="st3" d="M113.9,93.9c0.2-0.1,0.2-0.3,0.2-0.4c0-0.1-1.2,0-1.3,0.2c0,0.1,0,1.2,0,1.2S113.7,94.2,113.9,93.9z"/>
</svg>
