<?xml version="1.0" encoding="utf-8"?>
<!-- Generator: Adobe Illustrator 25.0.0, SVG Export Plug-In . SVG Version: 6.00 Build 0)  -->
<svg version="1.1" id="Layer_1" xmlns="http://www.w3.org/2000/svg" xmlns:xlink="http://www.w3.org/1999/xlink" x="0px" y="0px"
	 viewBox="0 0 296.4 157.6" style="enable-background:new 0 0 296.4 157.6;" xml:space="preserve">
<style type="text/css">
	.st0{fill:none;}
	.st1{fill:#FFFFFF;}
</style>
<rect y="0" class="st0" width="296.4" height="157.6"/>
<g id="RgVHeu_1_">
	<g>
		<path class="st1" d="M57.2,19.6c0.9,0.2,1.9,0.5,2.7,1.1c1.9,1.5,2.6,3.9,1.9,6.1c-0.7,2.3-2.8,3.8-5.3,3.8c-1.4,0-2.8,0-4.2,0
			c-0.2,0-0.4,0-0.6,0c0,31.2,0,62.4,0,93.7c0.2,0,0.4,0,0.6,0c1.4,0,2.9,0,4.3,0c2.9,0,5.2,2.2,5.5,5.1c0.3,2.7-1.7,5.3-4.5,5.8
			c-0.3,0.1-0.6,0.1-0.8,0.1c-3.5,0-7,0-10.5,0c-2.4,0-4.4-0.9-5.6-3.1c-0.6-1.2-0.8-2.4-0.8-3.8c0-8.8,0-17.5,0-26.3
			c0-25.2,0-50.3,0-75.5c0-0.8,0.1-1.6,0.3-2.4c0.6-2.6,2.5-4.2,5.1-4.6c0.1,0,0.3-0.1,0.4-0.1C49.4,19.6,53.3,19.6,57.2,19.6z"/>
		<path class="st1" d="M256.7,129c-0.1,0.5-0.2,1-0.3,1.5c-0.7,2.9-2.7,4.7-5.7,4.8c-3.8,0.1-7.6,0.1-11.4,0c-2.6-0.1-4.8-2.4-5-5.1
			c-0.2-2.6,1.7-5.2,4.2-5.7c0.9-0.2,1.8-0.1,2.7-0.2c1.1,0,2.3,0,3.4,0c0-31.2,0-62.4,0-93.7c-0.2,0-0.4,0-0.6,0
			c-1.6,0-3.2,0.1-4.8-0.1c-2.8-0.3-4.9-2.6-4.9-5.3c-0.1-2.8,1.8-5.1,4.6-5.6c0.1,0,0.2-0.1,0.3-0.1c3.9,0,7.8,0,11.6,0
			c0.1,0,0.2,0.1,0.4,0.1c2.8,0.4,4.6,2,5.2,4.7c0.1,0.5,0.2,1,0.3,1.5C256.7,60.3,256.7,94.6,256.7,129z"/>
		<path class="st1" d="M82.3,105.2c0.2,0,0.4,0,0.5,0c4.7,0,9.3,0,14,0c2.8,0,5.5-0.6,8-2.2c3.1-2,4.7-4.8,5-8.5
			c0.2-2.3,0-4.5-0.8-6.7c-1.4-3.7-4.2-5.8-7.9-6.8c-2.6-0.8-5.2-0.9-7.9-0.9c-1.7,0-1.9-0.1-2.2-1.8c-0.2-1.6-0.2-3.1,0.1-4.7
			c0.2-0.8,0.5-1.1,1.4-1.1c1.7,0,3.5,0,5.2-0.5c4.2-1.3,6.7-4.1,7.6-8.4c0.4-2.2,0.4-4.4-0.2-6.6c-0.9-3.8-3.5-6-7.2-6.9
			c-1.7-0.4-3.4-0.6-5.1-0.6c-5.9-0.1-11.8,0-17.7,0c-1.2,0-1.9-0.5-2.1-1.7c-0.3-1.4-0.3-2.8,0-4.3c0.2-1.3,0.9-1.8,2.1-1.8
			c6,0,12,0,18,0c3.8,0,7.6,0.3,11.2,1.7c4,1.5,7.3,3.9,9.2,7.9c1.5,3,1.9,6.2,1.7,9.6c-0.1,2.6-0.7,5.1-2,7.3
			c-1.5,2.8-3.7,4.8-6.5,6.3c-0.2,0.1-0.4,0.2-0.7,0.4c0.9,0.2,1.6,0.4,2.4,0.7c6.2,2.3,9.9,6.8,11.1,13.2c0.9,4.9,0.3,9.7-2.3,14.1
			c-2.3,4-5.9,6.6-10.2,8.2c-3.7,1.4-7.5,1.9-11.5,1.9c-6.3,0-12.7,0-19,0c-2.3,0-3.6-1.3-3.7-3.6c0-0.2,0-0.3,0-0.5
			c0-14.6,0-29.2,0-43.8c0-1.3,0.2-1.7,1.5-2c2.2-0.5,4.4-0.5,6.6,0c1.1,0.3,1.3,0.6,1.3,1.7c0,13.1,0,26.2,0,39.4
			C82.3,104.6,82.3,104.9,82.3,105.2z"/>
		<path class="st1" d="M199.8,69.8c0.5-0.9,1-1.8,1.5-2.6c4.5-7.8,9-15.7,13.4-23.5c0.8-1.4,1.8-2,3.3-2c1.8,0,3.5,0.1,5.3,0.1
			c0.3,0,0.7,0.1,1,0.3c0.6,0.3,0.9,0.7,0.7,1.3c-0.3,0.8-0.6,1.6-1,2.3c-5.9,10.1-11.9,20.2-17.9,30.3c-0.3,0.5-0.3,0.8,0,1.4
			c6.3,10.7,12.6,21.5,18.9,32.2c0.3,0.5,0.6,1.1,0.8,1.6c0.3,0.9,0,1.5-0.9,1.8c-0.5,0.2-1.1,0.3-1.6,0.3c-1.9,0-3.8,0-5.8-0.1
			c-1.2-0.1-2-0.7-2.6-1.8c-3.6-6.5-7.2-13-10.9-19.5c-1.6-2.8-3.2-5.6-4.8-8.5c-0.1,0.2-0.2,0.4-0.3,0.5
			c-5.1,9-10.2,17.9-15.2,26.9c-1,1.7-2.2,2.5-4.1,2.4c-1.7,0-3.3-0.1-5-0.1c0,0-0.1,0-0.1,0c-1.6-0.2-2.2-1-1.4-2.5
			c0.8-1.6,1.7-3.1,2.6-4.6c5.7-9.6,11.3-19.1,17-28.7c0.3-0.4,0.3-0.7,0-1.2c-6-10.2-12-20.4-18-30.6c-0.4-0.7-0.7-1.4-1-2.1
			c-0.4-1,0-1.6,1-1.8c0.7-0.1,1.3-0.2,2-0.2c1.7,0,3.3,0.1,5,0.1c1.4,0,2.2,0.8,2.8,1.9c3.3,5.7,6.5,11.4,9.8,17.1
			c1.6,2.9,3.3,5.7,4.9,8.6C199.5,69.4,199.6,69.6,199.8,69.8z"/>
		<path class="st1" d="M138.6,49.9c0,0.3,0,0.5,0,0.7c0,7.6,0,15.2,0,22.8c0,0.6,0.2,0.7,0.7,0.7c7.8,0,15.7,0,23.5,0
			c1.3,0,1.9,0.4,2.1,1.7c0.3,1.5,0.3,3,0,4.4c-0.3,1.3-0.9,1.7-2.2,1.7c-7.8,0-15.6,0-23.4,0c-0.2,0-0.4,0-0.7,0c0,0.3,0,0.5,0,0.8
			c0,9.5,0,18.9,0,28.4c0,1.3-0.2,1.6-1.5,1.9c-2.2,0.5-4.5,0.5-6.7,0c-1-0.2-1.3-0.7-1.3-1.7c0-21.8,0-43.6,0-65.5
			c0-2.6,1.3-3.9,3.9-3.9c10.4,0,20.8,0,31.1,0c1.3,0,1.8,0.4,2.1,1.6c0.4,1.6,0.3,3.2,0,4.8c-0.2,0.9-0.7,1.7-2.1,1.7
			c-8.3,0-16.5,0-24.8,0C139.2,49.9,138.9,49.9,138.6,49.9z"/>
		<path class="st1" d="M78.9,129.5c1.9,0.7,2.6,2.1,1.9,3.7c-0.4,1-1.2,1.4-2.1,1.7c-1,0.3-3.1,0.3-4.2,0c0-0.2,0-0.3,0-0.5
			c0-3,0-6.1,0-9.1c0-0.4,0.1-0.6,0.6-0.6c1.2,0,2.4-0.1,3.5,0c1.3,0.1,2,0.9,2.1,2c0.1,1.2-0.4,2.2-1.6,2.7
			C79,129.4,79,129.4,78.9,129.5z M75.7,133.9c0.5,0,1,0.1,1.4,0.1c0.5,0,1.1-0.1,1.5-0.3c0.7-0.3,1-0.8,1-1.6
			c0-0.7-0.3-1.3-0.9-1.5c-1-0.4-2-0.4-3-0.3C75.7,131.5,75.7,132.7,75.7,133.9z M75.7,125.7c0,1.2,0,2.3,0,3.5
			c1.1,0,2.1,0.1,2.9-0.6c0.6-0.5,0.8-1.1,0.6-1.8c-0.2-0.7-0.7-1-1.4-1.1C77.2,125.6,76.5,125.7,75.7,125.7z"/>
		<path class="st1" d="M124.7,128.5c0.8-1,1.8-1.3,3-1.1c0.7,0.1,1.2,0.5,1.4,1.2c0.1,0.4,0.2,0.7,0.2,1.1c0,1.7,0,3.4,0,5.2
			c-0.4,0-0.7,0-1.2,0c0-1,0-2,0-3c0-0.7,0-1.5-0.1-2.2c0-0.5-0.2-1-0.8-1.1c-0.7-0.1-1.4-0.1-1.8,0.5c-0.3,0.4-0.4,0.9-0.5,1.4
			c-0.1,1.5,0,2.9,0,4.4c-0.4,0-0.8,0-1.2,0c0-0.3,0-0.6,0-0.9c0-1.4,0-2.7,0-4.1c-0.1-1.1-0.5-1.5-1.4-1.5c-0.9,0-1.7,0.8-1.7,1.7
			c0,1.4,0,2.9,0,4.3c0,0.1,0,0.2,0,0.4c-0.4,0-0.8,0-1.2,0c0-2.4,0-4.9,0-7.3c0.3,0,0.5,0,0.8,0c0.1,0.3,0.2,0.5,0.3,0.9
			c0.6-0.7,1.3-1,2.2-1.1C123.5,127.4,124.3,127.6,124.7,128.5z"/>
		<path class="st1" d="M170.3,124.7c0.4,0,0.8,0,1.1,0c0,0.1,0.1,0.1,0.1,0.2c0,2.4,0,4.9-0.1,7.3c0,1.7-1.1,2.7-2.8,2.9
			c-0.6,0-1.1,0-1.7,0c-1.6-0.2-2.5-1.3-2.6-2.9c-0.1-2.4,0-4.8,0-7.2c0-0.1,0-0.1,0.1-0.2c0.4,0,0.7,0,1.2,0c0,0.2,0,0.4,0,0.6
			c0,1.8,0,3.7,0,5.5c0,0.3,0,0.7,0.1,1c0.2,1.8,1.8,2.7,3.5,2c0.6-0.3,0.9-0.9,1-1.5c0.1-0.4,0.1-0.9,0.1-1.3
			C170.3,128.9,170.3,126.8,170.3,124.7z"/>
		<path class="st1" d="M153.5,134.9c-0.4,0-0.8,0-1.2,0c0-3.4,0-6.8,0-10.3c0.4,0,0.7,0,1.2,0c0,1.2,0,2.4,0,3.5
			c0.6-0.3,1.2-0.6,1.8-0.7c2-0.3,2.9,0.5,2.9,2.2c0.1,1.7,0,3.5,0,5.2c-0.4,0-0.7,0-1.2,0c0-1.1,0-2.2,0-3.3c0-0.6,0-1.2-0.1-1.8
			c-0.2-1.1-0.9-1.6-2-1.3c-0.9,0.2-1.4,1-1.4,1.9C153.5,131.9,153.5,133.4,153.5,134.9z"/>
		<path class="st1" d="M112.7,131.4c0,1,0.1,1.9,1,2.3c1,0.6,2.1,0.4,3.1-0.2c0.1,0.3,0.3,0.5,0.5,0.8c-1.2,0.8-2.5,1-3.8,0.6
			c-1.2-0.4-1.8-1.3-1.9-2.5c-0.1-0.9-0.1-1.9,0.1-2.8c0.4-2,2.9-3,4.7-2c0.8,0.5,1.1,1.2,1.1,2c0.1,1.6,0.1,1.6-1.5,1.6
			C115,131.4,113.9,131.4,112.7,131.4z M116.4,130.4c0-1.4-0.5-2-1.8-1.9c-1.1,0-1.8,0.8-1.7,1.9C114,130.4,115.2,130.4,116.4,130.4
			z"/>
		<path class="st1" d="M193.7,131.4c0,0.9,0.1,1.8,0.9,2.3c0.8,0.5,1.9,0.5,3.2-0.2c0.1,0.3,0.3,0.5,0.4,0.8c-1,0.7-2.1,0.9-3.2,0.7
			c-1.4-0.2-2.2-1-2.5-2.4c-0.2-1.1-0.3-2.2,0.1-3.3c0.6-1.9,3.1-2.8,4.8-1.6c0.7,0.5,0.9,1.2,1,1.9c0.1,1.6,0.1,1.6-1.5,1.6
			C195.9,131.4,194.8,131.4,193.7,131.4z M197.3,130.4c0.1-1.1-0.4-1.8-1.3-1.9c-1.5-0.1-2.2,0.8-2.2,1.9
			C194.9,130.4,196.1,130.4,197.3,130.4z"/>
		<path class="st1" d="M89.1,131.3c-0.1,0.4-0.1,0.9-0.2,1.3c-0.3,1.7-1.4,2.6-3.1,2.6c-1.7,0-2.8-0.8-3.1-2.5
			c-0.2-0.9-0.2-1.8,0-2.7c0.3-1.7,1.5-2.6,3.2-2.5c1.7,0,2.8,1,3.1,2.7C89,130.5,89,130.9,89.1,131.3z M83.7,131.4
			c0.2,0.6,0.3,1.4,0.7,2c0.6,1.1,2.3,1,3,0c0.6-1,0.6-3.2-0.1-4.2c-0.8-1.1-2.5-1-3.1,0.2C83.9,130,83.8,130.6,83.7,131.4z"/>
		<path class="st1" d="M130.9,131.4c0.1-0.6,0.1-1.1,0.2-1.6c0.3-1.5,1.5-2.4,3-2.4c1.6,0,2.7,0.8,3.1,2.3c0.3,1.1,0.3,2.2,0,3.3
			c-0.4,1.4-1.5,2.1-3,2.1c-1.5,0-2.6-0.7-3-2.1C131,132.5,131,131.9,130.9,131.4z M132.2,131.4c0.1,0.5,0.2,1.1,0.4,1.7
			c0.3,0.7,1,1.1,1.8,1c0.8-0.1,1.3-0.5,1.6-1.2c0.3-1,0.3-2,0-3c-0.3-1-0.9-1.4-1.9-1.3c-0.9,0-1.5,0.5-1.7,1.5
			C132.3,130.4,132.2,130.8,132.2,131.4z"/>
		<path class="st1" d="M179.8,134.9c-0.4,0-0.8,0-1.2,0c0-0.2,0-0.4,0-0.6c0-1.4,0-2.7,0-4.1c0-1.2-0.6-1.7-1.6-1.7
			c-1.1,0-1.9,0.8-1.9,1.9c0,1.5,0,3,0,4.5c-0.4,0-0.8,0-1.2,0c0-2.4,0-4.9,0-7.3c0.3,0,0.5,0,0.8,0c0.1,0.2,0.2,0.5,0.2,0.6
			c0.7-0.3,1.4-0.6,2-0.8c0.3-0.1,0.6,0,0.9,0c1.2,0.1,1.7,0.7,1.9,1.8c0.1,1.1,0.1,2.3,0.1,3.4
			C179.8,133.4,179.8,134.2,179.8,134.9z"/>
		<path class="st1" d="M95.6,133.8c-0.7,1.1-1.7,1.5-2.9,1.3c-1-0.1-1.6-0.6-1.8-1.7c-0.1-0.7-0.1-1.5-0.1-2.2c0-1.2,0-2.4,0-3.7
			c0.4,0,0.8,0,1.2,0c0,0.6,0,1.2,0,1.8c0,1.1,0,2.2,0.1,3.3c0.1,1.2,1.1,1.8,2.2,1.2c0.7-0.4,1.2-1,1.2-1.8c0-1.5,0-2.9,0-4.4
			c0.4,0,0.8,0,1.2,0c0,2.4,0,4.8,0,7.3c-0.2,0-0.4,0-0.7,0C95.8,134.6,95.7,134.2,95.6,133.8z"/>
		<path class="st1" d="M145,134.9c-0.9,0.4-0.8-0.6-1-1.1c-0.6,0.9-1.5,1.3-2.5,1.3c-1.3,0-2.1-0.7-2.2-2c-0.1-1-0.1-2.1-0.1-3.2
			c0-0.8,0-1.6,0-2.4c0.4,0,0.8,0,1.2,0c0,0.2,0,0.3,0,0.5c0,1.3,0,2.5,0,3.8c0,0.3,0,0.6,0.1,0.9c0.2,1.2,1.2,1.7,2.2,1.1
			c0.7-0.4,1.1-1,1.1-1.8c0-1.5,0-2.9,0-4.4c0.4,0,0.8,0,1.2,0C145,130,145,132.5,145,134.9z"/>
		<path class="st1" d="M226.1,127.6c-0.6,1.9-1.2,3.8-1.9,5.7c-0.4,1.2-0.9,2.4-1.4,3.6c-0.3,0.8-0.9,1.2-1.8,1.1
			c-0.2,0-0.4-0.1-0.6-0.1c0.1-0.4,0.1-0.7,0.2-1c1.3-0.1,2-1.3,1.6-2.5c-0.8-2.1-1.7-4.1-2.5-6.2c-0.1-0.2-0.1-0.3-0.2-0.6
			c0.4,0,0.8,0,1.2,0c0.1,0,0.3,0.2,0.4,0.4c0.6,1.8,1.3,3.6,1.9,5.4c0,0.1,0.1,0.2,0.1,0.3c0.5-1.7,1-3.4,1.5-5.1
			C225,127.5,225,127.5,226.1,127.6z"/>
		<path class="st1" d="M105,134.9c-0.4,0-0.7,0-1.1,0c0-2.4,0-4.9,0-7.3c0.7-0.3,0.9,0.2,1,0.8c0.9-0.9,1.9-1.2,3-1
			c1,0.2,1.5,0.6,1.7,1.6c0.1,0.4,0.1,0.9,0.1,1.3c0,1.5,0,3,0,4.5c-0.4,0-0.8,0-1.2,0c0-0.3,0-0.6,0-0.9c0-1.3,0-2.6,0-3.9
			c-0.1-1.2-0.6-1.7-1.6-1.6c-1,0-1.9,0.9-1.9,1.9C105,131.9,105,133.4,105,134.9z"/>
		<path class="st1" d="M209.6,127.9c-0.1,0.4-0.2,0.6-0.2,0.9c-0.7-0.1-1.4-0.2-2.1-0.2c-0.4,0-0.8,0.2-0.9,0.6
			c-0.1,0.5,0.1,0.9,0.5,1.1c0.5,0.2,1,0.4,1.6,0.7c1.1,0.5,1.5,1.3,1.4,2.4c-0.1,0.7-0.4,1.2-1,1.5c-1.3,0.6-2.7,0.4-4-0.2
			c0.1-0.4,0.3-0.7,0.3-0.9c0.7,0.1,1.4,0.3,2.1,0.4c0.8,0,1.2-0.3,1.3-0.8c0.1-0.6-0.1-1-0.9-1.4c-0.5-0.2-1.1-0.4-1.6-0.7
			c-0.9-0.4-1.2-1.2-1-2.2c0.1-0.9,0.7-1.4,1.7-1.6C207.7,127.3,208.7,127.5,209.6,127.9z"/>
		<path class="st1" d="M184.9,127.6c0.1,0,0.1,0,0.1,0c1.2-0.1,1.2-0.1,1.7,1c0.6,1.5,1.2,3,1.7,4.3c0.6-1.5,1.2-3.1,1.7-4.6
			c0.2-0.6,0.5-0.9,1.1-0.8c0.1,0,0.3,0,0.4,0c-0.1,0.2-0.1,0.3-0.2,0.5c-0.9,2.2-1.8,4.4-2.8,6.6c-0.1,0.2-0.3,0.4-0.4,0.4
			c-0.2,0-0.4-0.2-0.5-0.4c-1-2.2-1.9-4.4-2.8-6.6C185,127.9,185,127.8,184.9,127.6z"/>
		<path class="st1" d="M215.7,128.7c-0.4,0-0.7,0-1.1-0.1c0-0.3,0-0.6,0-1c0.3,0,0.7,0,1.1,0c0-0.3,0-0.6,0-0.9
			c-0.1-0.4,0.1-0.7,0.6-0.8c0.2,0,0.4-0.1,0.6-0.2c0,0.6,0,1.1,0,1.8c0.7,0,1.3,0,2,0c0,0.4,0,0.7,0,1.1c-0.7,0-1.3,0-2,0
			c0,1.6,0,3.1,0,4.6c0,0.7,0.4,0.9,1.1,0.8c0.3,0,0.6-0.1,0.9-0.2c0.1,0.3,0.2,0.6,0.3,0.9c-0.8,0.4-1.5,0.5-2.3,0.4
			c-0.7-0.1-1.1-0.5-1.2-1.3c-0.1-1.5-0.1-2.9-0.1-4.4C215.7,129.2,215.7,128.9,215.7,128.7z"/>
		<path class="st1" d="M147.4,128.7c-0.4,0-0.7,0-1.1,0c0-0.4,0-0.7,0-1.1c0.3,0,0.7,0,1.1,0c0-0.3,0-0.6,0-0.9
			c-0.1-0.5,0.1-0.7,0.6-0.8c0.2,0,0.4-0.1,0.6-0.2c0,0.6,0,1.2,0,1.8c0.7,0,1.3,0,2,0c0,0.4,0,0.7,0,1c-0.7,0-1.3,0-2,0
			c0,1.6,0,3.1,0,4.7c0,0.6,0.4,0.9,1,0.8c0.3,0,0.6-0.1,1-0.2c0.1,0.3,0.2,0.5,0.3,0.9c-0.8,0.3-1.6,0.5-2.4,0.4
			c-0.6-0.1-1-0.5-1.1-1.3c-0.1-1.4-0.1-2.8-0.1-4.2C147.4,129.3,147.4,129,147.4,128.7z"/>
		<path class="st1" d="M200.4,127.6c0.7-0.1,0.7-0.1,1.1,0.8c0.6-1,1.6-1.1,2.6-0.8c-0.1,0.4-0.1,0.7-0.2,1.1
			c-0.3,0-0.5-0.1-0.7-0.1c-1-0.1-1.6,0.5-1.6,1.5c0,1.6,0,3.2,0,4.8c-0.4,0-0.8,0-1.2,0C200.4,132.5,200.4,130.1,200.4,127.6z"/>
		<path class="st1" d="M102.6,127.6c-0.1,0.4-0.2,0.8-0.2,1.1c-0.1,0-0.2,0-0.3,0c-1.2-0.3-2.1,0.4-2,1.6c0.1,1.4,0,2.7,0,4.1
			c0,0.2,0,0.4,0,0.6c-0.4,0-0.8,0-1.2,0c0-2.4,0-4.9,0-7.3c0.3,0,0.5,0,0.8,0c0.1,0.2,0.2,0.5,0.3,0.8
			C100.6,127.4,101.5,127.3,102.6,127.6z"/>
		<path class="st1" d="M182.2,134.9c0-2.4,0-4.9,0-7.3c0.4,0,0.7,0,1.1,0c0,2.4,0,4.9,0,7.3C183,134.9,182.6,134.9,182.2,134.9z"/>
		<path class="st1" d="M211.9,127.6c0.3,0,0.6,0,0.8,0c0.1,0,0.2,0,0.3,0c0,2.4,0,4.8,0,7.3c-0.4,0-0.7,0-1.1,0
			C211.9,132.5,211.9,130.1,211.9,127.6z"/>
		<path class="st1" d="M182.7,126.2c-0.5,0-0.8-0.3-0.8-0.8c0-0.5,0.3-0.8,0.8-0.8c0.5,0,0.9,0.4,0.9,0.9
			C183.6,125.8,183.2,126.2,182.7,126.2z"/>
		<path class="st1" d="M213.3,125.3c0,0.4-0.4,0.8-0.8,0.8c-0.5,0-0.8-0.3-0.9-0.8c0-0.5,0.3-0.8,0.8-0.8
			C212.9,124.5,213.3,124.9,213.3,125.3z"/>
	</g>
</g>
</svg>
