<?xml version="1.0" encoding="utf-8"?>
<!-- Generator: Adobe Illustrator 24.2.2, SVG Export Plug-In . SVG Version: 6.00 Build 0)  -->
<svg version="1.1" id="Layer_1" xmlns="http://www.w3.org/2000/svg" xmlns:xlink="http://www.w3.org/1999/xlink" x="0px" y="0px"
	 viewBox="0 0 296.4 157.6" style="enable-background:new 0 0 296.4 157.6;" xml:space="preserve">
<style type="text/css">
	.st0{fill:none;}
	.st1{fill:#FFFFFF;}
</style>
<rect class="st0" width="296.4" height="157.6"/>
<g id="Group_105" transform="translate(-302.381 -101.09)">
	<circle id="Ellipse_25" class="st1" cx="583.8" cy="173.9" r="6.2"/>
	<g id="Group_100">
		<path id="Path_515" class="st1" d="M418.7,138h-9.7c-1.1,0.1-2.2-0.2-3-0.9c-0.7-0.8-1-1.9-0.9-3v-23.8c-0.1-1.1,0.2-2.2,0.9-3
			c0.8-0.7,1.9-1,3-0.9h10.3c1.3,0,2.6,0.1,3.9,0.3c1.1,0.2,2.1,0.5,3,1.1c0.8,0.4,1.4,1,2,1.7c1.2,1.4,1.8,3.1,1.8,4.9
			c0,3.2-1.6,5.5-4.7,7c4.2,1.3,6.2,3.9,6.2,7.7c0,1.7-0.5,3.4-1.4,4.8c-0.9,1.4-2.2,2.5-3.7,3.1c-1.1,0.4-2.2,0.7-3.3,0.9
			C421.7,137.9,420.2,138,418.7,138z M411.6,111.1v8.2h5.9c1.3,0,2.5-0.1,3.7-0.5c0.9-0.3,1.6-0.9,2-1.7c0.4-0.6,0.5-1.3,0.5-2
			c0.2-1.3-0.5-2.6-1.7-3.2c-1.7-0.6-3.4-0.9-5.2-0.8L411.6,111.1z M418.3,123.9h-6.7v9.2h6.9c4.3,0,6.5-1.6,6.5-4.7
			c0.1-1.4-0.5-2.7-1.7-3.5C421.7,124.2,420,123.8,418.3,123.9L418.3,123.9z"/>
		<path id="Path_516" class="st1" d="M443.5,109.7v9.1h13.8v-9.1c-0.1-1,0.2-2.1,0.9-2.9c0.6-0.6,1.4-1,2.3-1c0.9,0,1.7,0.3,2.3,1
			c0.7,0.8,1,1.9,0.9,2.9v24.9c0.1,1.1-0.2,2.1-0.9,2.9c-0.6,0.6-1.4,1-2.3,1c-0.9,0-1.7-0.3-2.3-1c-0.6-0.8-0.9-1.9-0.9-2.9V124
			h-13.8v10.6c0.1,1.1-0.2,2.1-0.9,2.9c-0.6,0.6-1.5,1-2.3,1c-0.9,0-1.7-0.3-2.3-1c-0.6-0.8-0.9-1.9-0.9-2.9v-24.9
			c-0.1-1,0.2-2.1,0.9-2.9c0.6-0.7,1.4-1,2.3-1c0.9,0,1.7,0.3,2.3,1C443.2,107.6,443.6,108.6,443.5,109.7z"/>
	</g>
	<g id="Group_101">
		<path id="Path_517" class="st1" d="M376.1,162.8c0,1.3-0.3,2.6-0.9,3.7c-0.7,1.5-1.6,2.8-2.7,4c-1.3,1.4-2.9,2.4-4.7,3.2
			c-2.1,0.8-4.4,1.3-6.6,1.2c-1.8,0-3.5-0.2-5.2-0.5c-1.5-0.3-2.9-0.9-4.3-1.7c-1.3-0.8-2.5-1.8-3.5-3c-1-1.2-1.8-2.4-2.4-3.8
			c-0.7-1.4-1.2-3-1.5-4.5c-0.3-1.7-0.5-3.4-0.5-5.1c0-2.7,0.4-5.3,1.3-7.8c0.8-2.2,2-4.2,3.6-5.9c1.6-1.6,3.5-2.9,5.6-3.7
			c2.2-0.9,4.5-1.3,6.8-1.3c2.7,0,5.4,0.6,7.8,1.8c2.1,1,3.9,2.5,5.3,4.3c1.1,1.4,1.7,3.1,1.8,4.9c0,0.8-0.3,1.6-0.9,2.2
			c-0.5,0.6-1.3,1-2.2,1c-0.8,0.1-1.5-0.2-2.1-0.7c-0.6-0.7-1.2-1.5-1.6-2.3c-0.8-1.6-1.9-3-3.4-4c-1.4-0.9-3.1-1.4-4.8-1.3
			c-2.8-0.1-5.5,1.2-7.2,3.4c-1.8,2.3-2.7,5.6-2.7,9.8c-0.1,2.4,0.3,4.8,1.2,7c0.7,1.7,1.8,3.2,3.4,4.2c1.5,0.9,3.3,1.4,5.1,1.4
			c1.9,0.1,3.8-0.5,5.4-1.6c1.5-1.2,2.7-2.8,3.3-4.6c0.3-0.8,0.6-1.6,1.2-2.3c0.6-0.6,1.4-1,2.2-0.9c0.8,0,1.7,0.3,2.3,0.9
			C375.7,161.2,376.1,162,376.1,162.8z"/>
		<path id="Path_518" class="st1" d="M407.5,161.2c0,1.9-0.3,3.8-0.9,5.6c-0.6,1.6-1.5,3.1-2.7,4.4c-1.2,1.2-2.7,2.2-4.3,2.8
			c-1.8,0.7-3.7,1-5.6,1c-1.9,0-3.8-0.3-5.5-1c-3.2-1.3-5.8-3.9-7-7.2c-0.6-1.8-1-3.7-0.9-5.6c0-1.9,0.3-3.8,0.9-5.6
			c0.6-1.6,1.5-3.1,2.7-4.4c1.2-1.2,2.7-2.2,4.3-2.8c3.6-1.3,7.5-1.3,11.1,0c3.3,1.3,5.8,3.9,7,7.2
			C407.2,157.4,407.5,159.3,407.5,161.2z M400.7,161.2c0.1-2.3-0.5-4.6-1.8-6.4c-1.2-1.5-3-2.4-4.9-2.3c-1.2,0-2.5,0.3-3.5,1
			c-1.1,0.8-1.9,1.8-2.3,3c-1.1,3-1.1,6.3,0,9.3c0.5,1.2,1.3,2.3,2.3,3c1,0.7,2.3,1.1,3.5,1.1c1.9,0.1,3.7-0.8,4.9-2.3
			C400.2,165.7,400.8,163.5,400.7,161.2z"/>
		<path id="Path_519" class="st1" d="M429.9,171.1c-1.4,1.2-3,2.1-4.7,2.9c-1.6,0.7-3.4,1-5.1,1c-1.6,0-3.1-0.3-4.6-1
			c-1.2-0.6-2.3-1.6-3-2.8c-0.7-1.1-1.1-2.5-1.1-3.8c0-1.7,0.6-3.4,1.8-4.7c1.3-1.4,3-2.3,4.8-2.6c0.4-0.1,1.5-0.3,3.2-0.7
			c1.7-0.3,3.2-0.7,4.4-1c1.2-0.3,2.5-0.6,3.9-1.1c0-1.4-0.3-2.7-1.1-3.9c-0.6-0.8-2-1.2-3.9-1.2c-1.3-0.1-2.7,0.2-3.9,0.7
			c-0.9,0.5-1.7,1.3-2.2,2.2c-0.4,0.7-0.8,1.3-1.3,1.9c-0.5,0.4-1.1,0.5-1.6,0.5c-0.7,0-1.4-0.2-2-0.7c-0.5-0.5-0.8-1.2-0.8-1.9
			c0-1.3,0.5-2.5,1.3-3.5c1-1.3,2.4-2.2,3.9-2.8c2.1-0.8,4.4-1.2,6.7-1.1c2.4-0.1,4.8,0.3,7,1.1c1.6,0.6,2.9,1.8,3.6,3.3
			c0.8,1.9,1.1,4,1.1,6c0,1.6,0,2.9,0,4c0,1.1,0,2.3,0,3.7c0,1.3,0.2,2.7,0.6,4c0.3,0.9,0.5,1.8,0.6,2.7c0,0.7-0.4,1.4-1,1.9
			c-0.6,0.6-1.4,0.9-2.2,0.9c-0.8,0-1.5-0.4-2.1-1C431.2,173.1,430.5,172.1,429.9,171.1z M429.4,161.3c-1.4,0.5-2.9,0.9-4.3,1.2
			c-1.9,0.4-3.2,0.7-3.9,0.9c-0.8,0.2-1.5,0.6-2.1,1.1c-0.7,0.6-1,1.4-1,2.3c0,1,0.4,2,1.2,2.6c0.8,0.7,1.9,1.1,3,1.1
			c1.3,0,2.6-0.3,3.7-0.9c1-0.5,1.9-1.3,2.5-2.3c0.7-1.6,1-3.3,0.9-5L429.4,161.3z"/>
		<path id="Path_520" class="st1" d="M464.7,166.1c0.2,3.5-2,6.7-5.4,7.8c-2.1,0.7-4.3,1.1-6.5,1c-2.1,0.1-4.3-0.3-6.2-1.1
			c-1.5-0.6-2.8-1.5-3.8-2.8c-0.8-1-1.2-2.1-1.2-3.4c0-0.7,0.3-1.4,0.8-1.9c0.5-0.5,1.3-0.8,2-0.8c0.6,0,1.2,0.1,1.6,0.5
			c0.4,0.4,0.8,0.9,1.1,1.5c0.6,1.1,1.4,2,2.5,2.7c1.2,0.7,2.6,1,3.9,0.9c1.2,0,2.3-0.3,3.3-0.9c0.8-0.4,1.2-1.2,1.3-2.1
			c0.1-1.1-0.4-2.1-1.3-2.6c-1.4-0.7-2.9-1.3-4.4-1.6c-1.9-0.5-3.8-1.1-5.7-1.8c-1.3-0.6-2.5-1.4-3.5-2.5c-0.9-1.1-1.4-2.4-1.3-3.8
			c0-1.4,0.4-2.7,1.2-3.8c0.9-1.3,2.1-2.3,3.6-2.9c1.8-0.8,3.7-1.1,5.7-1.1c1.6,0,3.2,0.2,4.7,0.5c1.2,0.3,2.4,0.8,3.5,1.5
			c0.8,0.5,1.6,1.2,2.1,2c0.5,0.6,0.7,1.4,0.7,2.2c0,0.7-0.3,1.4-0.8,1.9c-0.6,0.5-1.4,0.8-2.2,0.7c-0.6,0-1.3-0.2-1.8-0.6
			c-0.6-0.5-1.2-1.1-1.7-1.8c-0.5-0.6-1.1-1.2-1.8-1.6c-0.9-0.4-1.8-0.6-2.8-0.6c-1.1,0-2.1,0.2-3,0.8c-0.7,0.4-1.2,1.1-1.2,1.9
			c0,0.7,0.3,1.3,0.9,1.7c0.7,0.5,1.5,0.9,2.4,1.1c1,0.3,2.4,0.7,4.2,1.1c1.8,0.4,3.5,1,5.1,1.8c1.2,0.6,2.2,1.5,3,2.5
			C464.3,163.7,464.7,164.9,464.7,166.1z"/>
		<path id="Path_521" class="st1" d="M470.7,148h0.7V144c0-1.1,0-1.9,0.1-2.6c0-0.6,0.2-1.1,0.5-1.6c0.3-0.5,0.7-0.9,1.1-1.1
			c0.5-0.3,1.1-0.4,1.7-0.4c0.9,0,1.7,0.4,2.3,1c0.5,0.4,0.8,1,0.9,1.6c0.1,0.9,0.2,1.8,0.2,2.6v4.6h2.5c0.8-0.1,1.6,0.2,2.2,0.7
			c0.5,0.4,0.8,1.1,0.8,1.7c0.1,0.8-0.4,1.5-1.1,1.9c-1,0.4-2,0.6-3.1,0.5h-1.3v12.4c0,0.8,0,1.6,0.1,2.4c0,0.5,0.3,1,0.6,1.4
			c0.4,0.4,1,0.6,1.6,0.5c0.5,0,1.1-0.1,1.6-0.2c0.5-0.1,1.1-0.2,1.6-0.2c0.6,0,1.1,0.2,1.5,0.7c0.4,0.4,0.7,1,0.7,1.6
			c0,1.1-0.7,2.1-1.8,2.5c-1.6,0.7-3.4,1-5.1,0.9c-1.7,0.1-3.3-0.3-4.8-1.1c-1.1-0.7-1.8-1.7-2.1-2.9c-0.4-1.6-0.6-3.3-0.5-5v-13
			h-0.9c-0.8,0.1-1.6-0.2-2.2-0.7c-0.5-0.4-0.8-1.1-0.8-1.8c0-0.7,0.3-1.3,0.8-1.7C469.1,148.2,469.9,148,470.7,148z"/>
		<path id="Path_522" class="st1" d="M505.4,171.1c-1.4,1.2-3,2.1-4.7,2.9c-1.6,0.7-3.4,1-5.1,1c-1.6,0-3.2-0.3-4.6-1
			c-1.2-0.6-2.3-1.6-3-2.8c-0.7-1.1-1.1-2.5-1.1-3.8c0-1.7,0.6-3.4,1.8-4.7c1.3-1.4,3-2.3,4.8-2.6c0.4-0.1,1.5-0.3,3.2-0.7
			c1.7-0.3,3.2-0.7,4.4-1c1.2-0.3,2.5-0.6,3.9-1.1c0-1.4-0.3-2.7-1.1-3.9c-0.6-0.8-2-1.2-3.9-1.2c-1.3-0.1-2.7,0.2-3.9,0.7
			c-0.9,0.5-1.7,1.3-2.2,2.2c-0.4,0.7-0.8,1.3-1.3,1.9c-0.5,0.4-1.1,0.5-1.6,0.5c-0.7,0-1.4-0.2-2-0.7c-0.5-0.5-0.8-1.2-0.8-1.9
			c0-1.3,0.5-2.5,1.3-3.5c1-1.3,2.4-2.2,3.9-2.8c2.1-0.8,4.4-1.2,6.7-1.1c2.4-0.1,4.8,0.3,7,1.1c1.6,0.6,2.9,1.8,3.6,3.3
			c0.8,1.9,1.1,4,1.1,6c0,1.6,0,2.9,0,4c0,1.1,0,2.3,0,3.7c0,1.3,0.2,2.7,0.6,4c0.3,0.9,0.5,1.8,0.6,2.7c0,0.7-0.4,1.4-1,1.9
			c-0.6,0.6-1.4,0.9-2.2,0.9c-0.8,0-1.5-0.4-2.1-1C506.7,173.1,506,172.1,505.4,171.1z M504.9,161.3c-1.4,0.5-2.9,0.9-4.3,1.2
			c-1.9,0.4-3.2,0.7-3.9,0.9c-0.8,0.2-1.5,0.6-2.1,1.1c-0.7,0.6-1,1.4-1,2.3c0,1,0.4,2,1.2,2.6c0.8,0.7,1.9,1.1,3,1.1
			c1.3,0,2.6-0.3,3.7-0.9c1-0.5,1.9-1.3,2.5-2.3c0.7-1.6,1-3.3,0.9-5L504.9,161.3z"/>
		<path id="Path_523" class="st1" d="M518.4,170.8v-29.3c-0.1-1.1,0.2-2.2,0.9-3.1c0.6-0.7,1.5-1.1,2.4-1c0.9,0,1.8,0.3,2.5,1
			c0.7,0.9,1,2,0.9,3.1v29.3c0.1,1.1-0.3,2.2-1,3.1c-0.6,0.7-1.5,1.1-2.5,1c-0.9,0-1.8-0.4-2.4-1.1
			C518.7,173,518.3,171.9,518.4,170.8z"/>
	</g>
	<g id="Group_102">
		<path id="Path_524" class="st1" d="M483.2,194.2c0-0.3-0.1-0.6-0.2-0.8c-0.2-0.2-0.4-0.4-0.7-0.5c-0.5-0.1-1.1-0.2-1.6-0.2h-2.1
			v3.1h2.1c0.5,0,0.9,0,1.4-0.1c0.3-0.1,0.6-0.2,0.9-0.5C483.1,194.9,483.2,194.5,483.2,194.2z"/>
		<path id="Path_525" class="st1" d="M389,193c-0.5-0.3-1.1-0.5-1.7-0.5c-0.4,0-0.9,0.1-1.3,0.3c-0.4,0.2-0.7,0.4-1,0.8
			c-0.3,0.4-0.5,0.8-0.7,1.3c-0.2,0.6-0.3,1.2-0.2,1.7c0,0.6,0.1,1.2,0.2,1.8c0.1,0.5,0.4,0.9,0.7,1.3c0.3,0.3,0.6,0.6,1,0.8
			c0.9,0.4,2,0.3,2.9-0.2c0.5-0.3,0.9-0.8,1.2-1.4c0.3-0.7,0.5-1.5,0.4-2.3c0-0.7-0.1-1.5-0.4-2.2C390,193.8,389.6,193.3,389,193z"
			/>
		<path id="Path_526" class="st1" d="M525.3,185.7H343.6c-5.8,0-10.5,4.7-10.5,10.5l0,0c0,5.8,4.7,10.5,10.5,10.5h181.7
			c5.8,0,10.5-4.7,10.5-10.5l0,0C535.8,190.4,531.1,185.7,525.3,185.7z M368.4,202.1c-0.2,0.2-0.6,0.3-0.9,0.3H362
			c-0.7,0.1-1.3-0.3-1.4-1c0-0.2,0-0.3,0-0.5v-8.8c0-0.4,0.1-0.8,0.3-1.1c0.2-0.2,0.5-0.4,0.8-0.4c0.3,0,0.6,0.1,0.8,0.3
			c0.2,0.3,0.4,0.7,0.3,1.1v8.3h4.7c0.3,0,0.6,0.1,0.9,0.3c0.2,0.2,0.3,0.4,0.3,0.7C368.7,201.6,368.6,201.9,368.4,202.1z
			 M392.6,199c-0.2,0.7-0.6,1.3-1.1,1.9c-0.5,0.5-1.1,1-1.8,1.2c-1.6,0.6-3.3,0.6-4.8,0c-0.7-0.3-1.3-0.7-1.8-1.2
			c-0.5-0.6-0.9-1.2-1.1-1.9c-0.2-0.8-0.4-1.6-0.4-2.4c0-0.8,0.1-1.6,0.4-2.4c0.2-0.7,0.6-1.3,1.1-1.9c0.5-0.5,1.1-0.9,1.7-1.2
			c0.7-0.3,1.5-0.4,2.3-0.4c1.1,0,2.1,0.2,3.1,0.7c0.8,0.5,1.5,1.2,1.9,2.1c0.5,1,0.7,2,0.7,3.1C393,197.4,392.8,198.2,392.6,199
			L392.6,199z M415.5,192.5c-0.3,0.2-0.6,0.3-0.9,0.3H412v8.3c0,0.4-0.1,0.8-0.3,1.1c-0.2,0.2-0.5,0.4-0.8,0.3
			c-0.3,0-0.6-0.1-0.8-0.4c-0.2-0.3-0.4-0.7-0.3-1.1v-8.3h-2.5c-0.3,0-0.6-0.1-0.9-0.3c-0.2-0.2-0.3-0.4-0.3-0.7
			c0-0.3,0.1-0.5,0.3-0.7c0.2-0.2,0.6-0.3,0.9-0.3h7.4c0.3,0,0.6,0.1,0.9,0.3c0.2,0.2,0.3,0.4,0.3,0.7
			C415.8,192.1,415.7,192.4,415.5,192.5L415.5,192.5z M438.3,192.5c-0.3,0.2-0.6,0.3-0.9,0.3h-2.5v8.3c0,0.4-0.1,0.8-0.3,1.1
			c-0.2,0.2-0.5,0.4-0.8,0.3c-0.3,0-0.6-0.1-0.8-0.4c-0.2-0.3-0.4-0.7-0.3-1.1v-8.3H430c-0.3,0-0.6-0.1-0.9-0.3
			c-0.2-0.2-0.3-0.4-0.3-0.7c0-0.3,0.1-0.5,0.3-0.7c0.2-0.2,0.6-0.3,0.9-0.3h7.4c0.3,0,0.6,0.1,0.9,0.3c0.2,0.2,0.3,0.4,0.3,0.7
			C438.6,192.1,438.5,192.4,438.3,192.5L438.3,192.5z M461.3,202.1c-0.2,0.2-0.5,0.3-0.8,0.3h-6.3c-0.4,0-0.8-0.1-1.1-0.3
			c-0.2-0.3-0.4-0.7-0.3-1.1v-8.6c0-0.3,0-0.6,0.1-0.8c0.1-0.2,0.3-0.4,0.5-0.5c0.3-0.1,0.5-0.2,0.8-0.1h6.1c0.3,0,0.6,0.1,0.8,0.2
			c0.2,0.2,0.3,0.4,0.3,0.6c0,0.2-0.1,0.5-0.3,0.7c-0.2,0.2-0.5,0.3-0.8,0.2h-5.2v2.8h4.8c0.3,0,0.6,0.1,0.8,0.2
			c0.2,0.2,0.3,0.4,0.3,0.6c0,0.2-0.1,0.5-0.3,0.6c-0.2,0.2-0.5,0.3-0.8,0.2h-4.8v3.3h5.4c0.3,0,0.6,0.1,0.8,0.3
			c0.2,0.2,0.3,0.4,0.3,0.7C461.6,201.7,461.5,201.9,461.3,202.1L461.3,202.1z M485.6,202c-0.1,0.1-0.2,0.3-0.4,0.4
			c-0.2,0.1-0.4,0.1-0.6,0.1c-0.2,0-0.5-0.1-0.7-0.2c-0.2-0.1-0.3-0.3-0.5-0.5c-0.1-0.2-0.3-0.5-0.5-0.8l-0.9-1.5
			c-0.3-0.5-0.6-0.9-0.9-1.3c-0.2-0.3-0.5-0.5-0.8-0.6c-0.3-0.1-0.7-0.2-1-0.2h-0.8v3.7c0,0.4-0.1,0.8-0.3,1.1
			c-0.2,0.2-0.5,0.4-0.8,0.3c-0.3,0-0.6-0.1-0.9-0.4c-0.2-0.3-0.3-0.7-0.3-1.1v-8.8c-0.1-0.7,0.3-1.3,1-1.4c0.1,0,0.3,0,0.4,0h3.8
			c0.4,0,0.9,0,1.3,0.1c0.3,0,0.7,0.1,1,0.3c0.4,0.1,0.7,0.4,1,0.6c0.3,0.3,0.5,0.6,0.6,1c0.1,0.4,0.2,0.8,0.2,1.2
			c0,0.8-0.2,1.5-0.7,2c-0.6,0.6-1.4,1-2.2,1.1c0.4,0.2,0.8,0.6,1.2,1c0.7,0.8,1.3,1.7,1.7,2.7c0.1,0.3,0.2,0.5,0.2,0.8
			C485.8,201.7,485.7,201.9,485.6,202L485.6,202z M508.2,192.2c-0.2,0.3-0.3,0.6-0.5,0.8l-2.9,4.4v3.6c0,0.4-0.1,0.8-0.3,1.1
			c-0.5,0.5-1.2,0.5-1.7,0c0,0,0,0,0,0c-0.2-0.3-0.4-0.7-0.3-1.1v-3.6l-2.8-4.3c-0.2-0.3-0.4-0.6-0.5-0.9c-0.1-0.2-0.1-0.4-0.2-0.6
			c0-0.3,0.1-0.5,0.3-0.7c0.2-0.2,0.5-0.3,0.8-0.3c0.3,0,0.5,0.1,0.7,0.3c0.3,0.3,0.5,0.7,0.7,1.1l2.1,3.5l2.2-3.5
			c0.1-0.2,0.2-0.4,0.3-0.5c0.1-0.1,0.2-0.3,0.3-0.4c0.1-0.1,0.2-0.2,0.4-0.3c0.1-0.1,0.3-0.1,0.5-0.1c0.3,0,0.5,0.1,0.7,0.3
			c0.2,0.2,0.3,0.4,0.3,0.7C508.4,191.8,508.3,192,508.2,192.2L508.2,192.2z"/>
	</g>
	<g id="Group_103">
		<path id="Path_527" class="st1" d="M374.7,221c0,0.5-0.1,0.9-0.3,1.3c-0.2,0.5-0.5,1-0.9,1.4c-0.5,0.5-1,0.8-1.6,1.1
			c-0.7,0.3-1.5,0.4-2.3,0.4c-0.6,0-1.2-0.1-1.8-0.2c-0.5-0.1-1-0.3-1.5-0.6c-0.5-0.3-0.9-0.6-1.2-1.1c-0.3-0.4-0.6-0.9-0.9-1.3
			c-0.2-0.5-0.4-1-0.5-1.6c-0.1-0.6-0.2-1.2-0.2-1.8c0-0.9,0.1-1.9,0.4-2.7c0.3-0.8,0.7-1.5,1.3-2.1c0.5-0.6,1.2-1,1.9-1.3
			c0.8-0.3,1.6-0.5,2.4-0.4c0.9,0,1.9,0.2,2.7,0.6c0.7,0.3,1.4,0.9,1.8,1.5c0.4,0.5,0.6,1.1,0.6,1.7c0,0.3-0.1,0.6-0.3,0.8
			c-0.2,0.2-0.5,0.3-0.8,0.3c-0.3,0-0.5-0.1-0.7-0.2c-0.2-0.2-0.4-0.5-0.5-0.8c-0.3-0.6-0.7-1-1.2-1.4c-0.5-0.3-1.1-0.5-1.7-0.5
			c-1,0-1.9,0.4-2.5,1.2c-0.7,1-1,2.2-0.9,3.4c0,0.8,0.1,1.7,0.4,2.4c0.2,0.6,0.6,1.1,1.2,1.5c0.5,0.3,1.1,0.5,1.8,0.5
			c0.7,0,1.3-0.2,1.9-0.5c0.5-0.4,0.9-1,1.2-1.6c0.1-0.3,0.2-0.6,0.4-0.8c0.2-0.2,0.5-0.3,0.8-0.3c0.3,0,0.6,0.1,0.8,0.3
			C374.6,220.5,374.7,220.7,374.7,221z"/>
		<path id="Path_528" class="st1" d="M385.7,220.5c0,0.7-0.1,1.3-0.3,1.9c-0.2,0.6-0.5,1.1-0.9,1.5c-0.4,0.4-0.9,0.8-1.5,1
			c-0.6,0.2-1.3,0.4-1.9,0.3c-0.7,0-1.3-0.1-1.9-0.3c-1.1-0.4-2-1.4-2.4-2.5c-0.2-0.6-0.3-1.3-0.3-1.9c0-0.7,0.1-1.3,0.3-2
			c0.2-0.6,0.5-1.1,0.9-1.5c0.4-0.4,0.9-0.8,1.5-1c1.2-0.5,2.6-0.5,3.9,0c1.1,0.4,2,1.3,2.4,2.5
			C385.6,219.1,385.7,219.8,385.7,220.5z M383.3,220.5c0-0.8-0.2-1.6-0.6-2.2c-0.4-0.5-1-0.8-1.7-0.8c-0.4,0-0.9,0.1-1.2,0.4
			c-0.4,0.3-0.7,0.6-0.8,1.1c-0.2,0.5-0.3,1.1-0.3,1.6c0,0.5,0.1,1.1,0.3,1.6c0.2,0.4,0.4,0.8,0.8,1.1c0.4,0.2,0.8,0.4,1.2,0.4
			c0.7,0,1.3-0.3,1.7-0.8C383.1,222,383.3,221.3,383.3,220.5z"/>
		<path id="Path_529" class="st1" d="M395.3,220.6v3.1c0,0.4-0.1,0.8-0.3,1.1c-0.2,0.2-0.6,0.4-0.9,0.4c-0.3,0-0.6-0.1-0.9-0.4
			c-0.2-0.3-0.4-0.7-0.3-1.1V220c0-0.5,0-0.9-0.1-1.4c0-0.3-0.1-0.6-0.3-0.8c-0.2-0.2-0.5-0.3-0.8-0.3c-0.6-0.1-1.2,0.2-1.5,0.8
			c-0.3,0.7-0.4,1.5-0.4,2.3v3.2c0,0.4-0.1,0.8-0.3,1.1c-0.2,0.3-0.5,0.4-0.9,0.4c-0.3,0-0.7-0.1-0.9-0.4c-0.2-0.3-0.4-0.7-0.3-1.1
			V217c0-0.4,0.1-0.7,0.3-1c0.2-0.2,0.5-0.4,0.8-0.3c0.3,0,0.6,0.1,0.8,0.3c0.2,0.2,0.3,0.6,0.3,0.9v0.2c0.4-0.4,0.8-0.8,1.3-1.1
			c0.5-0.2,1-0.4,1.6-0.3c0.5,0,1.1,0.1,1.5,0.4c0.4,0.3,0.8,0.6,1.1,1.1c0.3-0.4,0.8-0.8,1.3-1.1c0.5-0.2,1-0.4,1.5-0.3
			c0.6,0,1.1,0.1,1.7,0.4c0.5,0.2,0.8,0.6,1,1.1c0.2,0.6,0.3,1.3,0.3,2v4.6c0,0.4-0.1,0.8-0.3,1.1c-0.5,0.5-1.2,0.5-1.7,0
			c0,0,0,0,0,0c-0.2-0.3-0.4-0.7-0.3-1.1v-3.9c0-0.4,0-0.8-0.1-1.2c0-0.3-0.2-0.6-0.3-0.8c-0.2-0.2-0.5-0.3-0.9-0.3
			c-0.3,0-0.6,0.1-0.9,0.3c-0.3,0.2-0.5,0.4-0.7,0.7C395.4,219.2,395.3,219.9,395.3,220.6z"/>
		<path id="Path_530" class="st1" d="M410.9,220.6v3.1c0,0.4-0.1,0.8-0.3,1.1c-0.2,0.2-0.6,0.4-0.9,0.4c-0.3,0-0.6-0.1-0.9-0.4
			c-0.2-0.3-0.4-0.7-0.3-1.1V220c0-0.5,0-0.9-0.1-1.4c0-0.3-0.1-0.6-0.3-0.8c-0.2-0.2-0.5-0.3-0.8-0.3c-0.6-0.1-1.2,0.2-1.5,0.8
			c-0.3,0.7-0.4,1.5-0.4,2.3v3.2c0,0.4-0.1,0.8-0.3,1.1c-0.2,0.3-0.5,0.4-0.9,0.4c-0.3,0-0.7-0.1-0.9-0.4c-0.2-0.3-0.4-0.7-0.3-1.1
			V217c0-0.4,0.1-0.7,0.3-1c0.2-0.2,0.5-0.4,0.8-0.3c0.3,0,0.6,0.1,0.8,0.3c0.2,0.2,0.3,0.6,0.3,0.9v0.2c0.4-0.4,0.8-0.8,1.3-1.1
			c0.5-0.2,1-0.4,1.6-0.3c0.5,0,1.1,0.1,1.5,0.4c0.4,0.3,0.8,0.6,1.1,1.1c0.3-0.4,0.8-0.8,1.3-1.1c0.5-0.2,1-0.4,1.5-0.3
			c0.6,0,1.1,0.1,1.7,0.4c0.5,0.2,0.8,0.6,1,1.1c0.2,0.6,0.3,1.3,0.3,2v4.6c0,0.4-0.1,0.8-0.3,1.1c-0.2,0.2-0.6,0.4-0.9,0.4
			c-0.3,0-0.7-0.1-0.9-0.4c-0.2-0.3-0.4-0.7-0.3-1.1v-3.9c0-0.4,0-0.8-0.1-1.2c0-0.3-0.2-0.6-0.3-0.8c-0.2-0.2-0.5-0.3-0.9-0.3
			c-0.3,0-0.6,0.1-0.9,0.3c-0.3,0.2-0.5,0.4-0.6,0.7C411,219.2,410.9,219.9,410.9,220.6z"/>
		<path id="Path_531" class="st1" d="M424.6,223.9v-0.3c-0.3,0.3-0.6,0.6-0.9,0.9c-0.3,0.2-0.6,0.4-1,0.5c-0.4,0.1-0.8,0.2-1.3,0.2
			c-0.5,0-1.1-0.1-1.5-0.4c-0.4-0.2-0.8-0.6-1-1c-0.3-0.7-0.5-1.4-0.4-2.2v-4.7c0-0.4,0.1-0.8,0.3-1.1c0.2-0.2,0.5-0.4,0.8-0.3
			c0.3,0,0.6,0.1,0.9,0.4c0.2,0.3,0.4,0.7,0.3,1.1v3.8c0,0.5,0,0.9,0.1,1.4c0.1,0.3,0.2,0.6,0.5,0.9c0.3,0.2,0.6,0.3,1,0.3
			c0.4,0,0.8-0.1,1.1-0.4c0.3-0.2,0.6-0.5,0.8-0.9c0.2-0.7,0.2-1.5,0.2-2.2v-2.9c0-0.4,0.1-0.8,0.3-1.1c0.2-0.2,0.5-0.4,0.9-0.4
			c0.3,0,0.6,0.1,0.8,0.3c0.2,0.3,0.3,0.7,0.3,1.1v6.8c0,0.4-0.1,0.7-0.3,1c-0.4,0.4-1.1,0.4-1.5,0c0,0,0,0,0,0
			C424.7,224.6,424.6,224.3,424.6,223.9z"/>
		<path id="Path_532" class="st1" d="M431.3,217v0.3c0.4-0.5,0.8-0.9,1.4-1.2c0.5-0.3,1.1-0.4,1.7-0.4c0.6,0,1.2,0.1,1.7,0.4
			c0.5,0.3,0.9,0.7,1.1,1.1c0.2,0.3,0.3,0.6,0.3,0.9c0.1,0.4,0.1,0.8,0.1,1.3v4.4c0,0.4-0.1,0.8-0.3,1.1c-0.2,0.2-0.5,0.4-0.8,0.4
			c-0.3,0-0.6-0.1-0.9-0.4c-0.2-0.3-0.4-0.7-0.3-1.1v-3.9c0-0.6-0.1-1.2-0.3-1.8c-0.3-0.4-0.8-0.7-1.3-0.6c-0.4,0-0.8,0.1-1.1,0.4
			c-0.4,0.3-0.6,0.6-0.8,1c-0.1,0.6-0.2,1.3-0.2,2v2.9c0,0.4-0.1,0.8-0.3,1.1c-0.2,0.2-0.5,0.4-0.9,0.4c-0.3,0-0.6-0.1-0.8-0.4
			c-0.2-0.3-0.4-0.7-0.3-1.1V217c0-0.4,0.1-0.7,0.3-1c0.2-0.2,0.5-0.3,0.8-0.3c0.2,0,0.4,0,0.6,0.1c0.2,0.1,0.3,0.3,0.4,0.4
			C431.2,216.5,431.3,216.7,431.3,217z"/>
		<path id="Path_533" class="st1" d="M441,214.6c-0.3,0-0.6-0.1-0.8-0.3c-0.2-0.2-0.4-0.5-0.3-0.9c0-0.3,0.1-0.6,0.4-0.8
			c0.2-0.2,0.5-0.3,0.8-0.3c0.3,0,0.6,0.1,0.8,0.3c0.2,0.2,0.4,0.5,0.4,0.9c0,0.3-0.1,0.6-0.3,0.8
			C441.6,214.5,441.3,214.6,441,214.6z M442.2,217v6.8c0,0.4-0.1,0.8-0.3,1.1c-0.2,0.2-0.5,0.4-0.9,0.4c-0.3,0-0.6-0.1-0.8-0.4
			c-0.2-0.3-0.3-0.7-0.3-1.1v-6.7c0-0.4,0.1-0.8,0.3-1.1c0.2-0.2,0.5-0.4,0.8-0.4c0.3,0,0.6,0.1,0.9,0.4
			C442.1,216.3,442.2,216.7,442.2,217L442.2,217z"/>
		<path id="Path_534" class="st1" d="M444.7,215.9h0.3v-1.4c0-0.4,0-0.7,0-0.9c0-0.2,0.1-0.4,0.2-0.6c0.1-0.2,0.2-0.3,0.4-0.4
			c0.2-0.1,0.4-0.2,0.6-0.2c0.3,0,0.6,0.1,0.8,0.3c0.2,0.1,0.3,0.3,0.3,0.5c0.1,0.3,0.1,0.6,0.1,0.9v1.6h0.9c0.3,0,0.5,0.1,0.8,0.2
			c0.2,0.2,0.3,0.4,0.3,0.6c0,0.3-0.1,0.5-0.4,0.7c-0.3,0.1-0.7,0.2-1.1,0.2h-0.4v4.3c0,0.3,0,0.6,0,0.8c0,0.2,0.1,0.3,0.2,0.5
			c0.1,0.1,0.3,0.2,0.5,0.2c0.2,0,0.4,0,0.6-0.1c0.2,0,0.4-0.1,0.6-0.1c0.2,0,0.4,0.1,0.5,0.2c0.2,0.1,0.2,0.4,0.2,0.6
			c0,0.4-0.3,0.7-0.6,0.9c-0.6,0.2-1.2,0.3-1.8,0.3c-0.6,0-1.2-0.1-1.7-0.4c-0.4-0.2-0.6-0.6-0.7-1c-0.1-0.6-0.2-1.2-0.2-1.7v-4.5
			h-0.3c-0.3,0-0.6-0.1-0.8-0.2c-0.2-0.2-0.3-0.4-0.3-0.6c0-0.2,0.1-0.5,0.3-0.6C444.1,216,444.4,215.9,444.7,215.9z"/>
		<path id="Path_535" class="st1" d="M453,225.5l0.2-0.5l-2.9-7.3c-0.1-0.3-0.2-0.6-0.3-0.9c0-0.2,0.1-0.4,0.2-0.6
			c0.1-0.2,0.3-0.3,0.4-0.4c0.2-0.1,0.4-0.2,0.6-0.2c0.3,0,0.6,0.1,0.8,0.3c0.2,0.3,0.4,0.6,0.5,0.9l2,5.8l1.9-5.4
			c0.1-0.3,0.2-0.7,0.4-1c0.1-0.2,0.2-0.4,0.4-0.5c0.2-0.1,0.4-0.1,0.6-0.1c0.2,0,0.4,0,0.5,0.1c0.2,0.1,0.3,0.2,0.4,0.4
			c0.1,0.2,0.1,0.3,0.1,0.5c0,0.1-0.1,0.3-0.1,0.5c-0.1,0.2-0.1,0.4-0.2,0.6l-3.1,8c-0.2,0.6-0.5,1.1-0.8,1.7
			c-0.2,0.4-0.6,0.7-1,0.9c-0.5,0.2-1.1,0.3-1.7,0.3c-0.5,0-1.1-0.1-1.5-0.2c-0.3-0.1-0.5-0.5-0.5-0.8c0-0.2,0.1-0.5,0.2-0.6
			c0.2-0.2,0.5-0.2,0.7-0.2c0.1,0,0.3,0,0.4,0.1c0.1,0,0.3,0,0.4,0.1c0.2,0,0.4,0,0.6-0.1c0.2-0.1,0.3-0.2,0.4-0.4
			C452.7,226.1,452.9,225.8,453,225.5z"/>
		<path id="Path_536" class="st1" d="M472.5,214.4h-5v3.2h4.2c0.3,0,0.6,0.1,0.9,0.3c0.2,0.2,0.3,0.4,0.3,0.7c0,0.3-0.1,0.5-0.3,0.7
			c-0.2,0.2-0.6,0.3-0.9,0.3h-4.2v4.2c0,0.4-0.1,0.8-0.4,1.2c-0.5,0.5-1.3,0.5-1.8,0c0,0,0,0,0,0c-0.3-0.3-0.4-0.8-0.4-1.2V214
			c0-0.3,0-0.6,0.2-0.9c0.1-0.2,0.3-0.4,0.5-0.5c0.3-0.1,0.6-0.2,0.9-0.2h6c0.3,0,0.7,0.1,0.9,0.3c0.2,0.2,0.3,0.4,0.3,0.7
			c0,0.3-0.1,0.5-0.3,0.7C473.2,214.3,472.8,214.4,472.5,214.4z"/>
		<path id="Path_537" class="st1" d="M481.6,223.9v-0.3c-0.3,0.3-0.6,0.6-0.9,0.9c-0.3,0.2-0.6,0.4-1,0.5c-0.4,0.1-0.8,0.2-1.3,0.2
			c-0.5,0-1.1-0.1-1.5-0.4c-0.4-0.2-0.8-0.6-1-1c-0.3-0.7-0.5-1.4-0.4-2.2v-4.7c0-0.4,0.1-0.8,0.3-1.1c0.2-0.2,0.5-0.4,0.8-0.3
			c0.3,0,0.6,0.1,0.9,0.4c0.2,0.3,0.4,0.7,0.3,1.1v3.8c0,0.5,0,0.9,0.1,1.4c0.1,0.3,0.2,0.6,0.5,0.9c0.3,0.2,0.6,0.3,1,0.3
			c0.4,0,0.8-0.1,1.1-0.4c0.3-0.2,0.6-0.5,0.8-0.9c0.2-0.7,0.2-1.5,0.2-2.2v-2.9c0-0.4,0.1-0.8,0.3-1.1c0.2-0.2,0.5-0.4,0.9-0.4
			c0.3,0,0.6,0.1,0.8,0.3c0.2,0.3,0.3,0.7,0.3,1.1v6.8c0,0.4-0.1,0.7-0.3,1c-0.4,0.4-1.1,0.4-1.5,0c0,0,0,0,0,0
			C481.7,224.6,481.5,224.3,481.6,223.9z"/>
		<path id="Path_538" class="st1" d="M488.3,217v0.3c0.4-0.5,0.8-0.9,1.4-1.2c0.5-0.3,1.1-0.4,1.7-0.4c0.6,0,1.2,0.1,1.7,0.4
			c0.5,0.3,0.9,0.7,1.1,1.1c0.2,0.3,0.3,0.6,0.3,0.9c0.1,0.4,0.1,0.8,0.1,1.3v4.4c0,0.4-0.1,0.8-0.3,1.1c-0.2,0.2-0.5,0.4-0.8,0.4
			c-0.3,0-0.6-0.1-0.9-0.4c-0.2-0.3-0.4-0.7-0.3-1.1v-3.9c0-0.6-0.1-1.2-0.3-1.8c-0.3-0.4-0.8-0.7-1.3-0.6c-0.4,0-0.8,0.1-1.1,0.4
			c-0.4,0.3-0.6,0.6-0.8,1c-0.1,0.6-0.2,1.3-0.2,2v2.9c0,0.4-0.1,0.8-0.3,1.1c-0.2,0.2-0.5,0.4-0.9,0.4c-0.3,0-0.6-0.1-0.8-0.4
			c-0.2-0.3-0.4-0.7-0.3-1.1V217c0-0.4,0.1-0.7,0.3-1c0.2-0.2,0.5-0.3,0.8-0.3c0.2,0,0.4,0,0.6,0.1c0.2,0.1,0.3,0.3,0.4,0.4
			C488.2,216.5,488.3,216.7,488.3,217z"/>
		<path id="Path_539" class="st1" d="M503.2,223.9v-0.2c-0.3,0.3-0.6,0.6-0.9,0.9c-0.3,0.2-0.6,0.4-1,0.5c-0.4,0.1-0.8,0.2-1.2,0.2
			c-0.5,0-1.1-0.1-1.6-0.4c-0.5-0.2-0.9-0.6-1.2-1c-0.4-0.5-0.6-1-0.8-1.6c-0.2-0.6-0.3-1.3-0.3-1.9c-0.1-1.2,0.3-2.5,1.1-3.4
			c0.7-0.8,1.8-1.3,2.8-1.2c0.6,0,1.2,0.1,1.7,0.3c0.5,0.3,1,0.6,1.4,1.1v-3.5c0-0.4,0.1-0.8,0.3-1.1c0.2-0.2,0.5-0.4,0.8-0.4
			c0.3,0,0.6,0.1,0.8,0.3c0.2,0.3,0.3,0.6,0.3,1v10.4c0,0.4-0.1,0.7-0.3,1c-0.2,0.2-0.5,0.3-0.8,0.3c-0.3,0-0.6-0.1-0.8-0.3
			C503.3,224.6,503.2,224.3,503.2,223.9z M498.6,220.4c0,0.6,0.1,1.1,0.3,1.6c0.2,0.4,0.5,0.8,0.8,1c0.3,0.2,0.7,0.3,1.1,0.3
			c0.4,0,0.8-0.1,1.1-0.3c0.4-0.2,0.6-0.6,0.8-1c0.2-0.5,0.3-1.1,0.3-1.7c0-0.6-0.1-1.1-0.3-1.6c-0.2-0.4-0.5-0.8-0.8-1
			c-0.3-0.2-0.7-0.4-1.1-0.4c-0.4,0-0.8,0.1-1.2,0.4c-0.4,0.3-0.6,0.6-0.8,1.1C498.7,219.4,498.6,219.9,498.6,220.4z"/>
	</g>
	<circle id="Ellipse_26" class="st1" cx="314" cy="121.7" r="2.8"/>
	<circle id="Ellipse_27" class="st1" cx="329.1" cy="121.7" r="4.2"/>
	<circle id="Ellipse_28" class="st1" cx="346.8" cy="121.7" r="5.2"/>
	<circle id="Ellipse_29" class="st1" cx="365.7" cy="121.7" r="6.2"/>
	<circle id="Ellipse_30" class="st1" cx="386.5" cy="121.7" r="6.9"/>
	<circle id="Ellipse_31" class="st1" cx="500.8" cy="115.7" r="2.5"/>
	<circle id="Ellipse_32" class="st1" cx="522.9" cy="113.9" r="3.7"/>
	<circle id="Ellipse_33" class="st1" cx="545.2" cy="119.3" r="4.4"/>
	<circle id="Ellipse_34" class="st1" cx="564.1" cy="131.8" r="5.5"/>
	<circle id="Ellipse_35" class="st1" cx="578" cy="151" r="5.8"/>
	<circle id="Ellipse_36" class="st1" cx="583.1" cy="197" r="6.9"/>
	<circle id="Ellipse_37" class="st1" cx="573.1" cy="216.9" r="7.1"/>
	<circle id="Ellipse_38" class="st1" cx="557.7" cy="233.6" r="6.9"/>
	<circle id="Ellipse_39" class="st1" cx="536" cy="243.7" r="7.9"/>
	<circle id="Ellipse_40" class="st1" cx="512.5" cy="245.5" r="8.5"/>
	<circle id="Ellipse_41" class="st1" cx="490.8" cy="239.4" r="9.2"/>
</g>
</svg>
