<?xml version="1.0" encoding="utf-8"?>
<!-- Generator: Adobe Illustrator 25.0.0, SVG Export Plug-In . SVG Version: 6.00 Build 0)  -->
<svg version="1.1" id="Layer_1" xmlns="http://www.w3.org/2000/svg" xmlns:xlink="http://www.w3.org/1999/xlink" x="0px" y="0px"
	 viewBox="0 0 296.4 157.6" style="enable-background:new 0 0 296.4 157.6;" xml:space="preserve">
<style type="text/css">
	.st0{fill:none;}
	.st1{fill:#FFFFFF;}
</style>
<rect y="0" class="st0" width="296.4" height="157.6"/>
<g>
	<g>
		<path class="st1" d="M47.9,90.9c0.2,0.1,0.5,0.1,0.7,0c0.4-0.2,0.8-0.4,1.3-0.6c0.3-0.1,0.4-0.2,0.4-0.6l-2.7-0.3
			c0,0.1,0,0.1,0,0.2c0,0.2,0,0.4,0,0.6C47.5,90.5,47.7,90.8,47.9,90.9z"/>
		<path class="st1" d="M54.7,90.1L54.7,90.1l-1.7,0.7c0,0.3,0,0.7,0,1c0,0.7,0,1.5-0.2,2.2l-0.1,0.3l-0.2-0.3
			c-0.2-0.2-0.2-0.5-0.2-0.7c0-0.6,0-1.2,0-1.8l0-0.7c0-0.9-0.1-1-1-1.1c0,0,0,0-0.1,0c0,0-0.1,0.1-0.1,0.1
			c-0.2,0.7-0.8,0.9-1.5,1.1c-0.8,0.2-1.2,0.7-1.2,1.6v2.7l-0.5,0.1l0-0.1c0,0,0-0.1-0.1-0.1c0-0.1-0.1-0.2-0.1-0.4
			c0-0.9,0-1.8,0-2.7c0-0.3-0.1-0.5-0.2-0.7l-1.3,0.8v3.6L45.8,96l0-0.1c0-0.1,0-0.1-0.1-0.2c0-0.1-0.1-0.3-0.1-0.4
			c0-0.4,0-0.9,0-1.3c0-0.5,0-0.9,0-1.4c0-0.2-0.1-0.4-0.2-0.6c-0.3-0.5-0.7-1-1-1.5c-0.1-0.1-0.2-0.3-0.3-0.4c0,0-0.1-0.1-0.1-0.1
			l0,0l-0.4,1.9L43.3,92c-0.2,0.1-0.3,0.1-0.5,0.2c-1.4,0.5-2.1,1.3-2.3,2.5c-0.2,1-0.1,2,0.4,3c0.2,0.4,0.3,1,0.3,1.4
			c0,0.4,0,0.7,0,1.1c0,0.1,0,0.2,0,0.3c0.3-0.2,0.6-0.5,1.1-0.2l0.2,0.1l-0.2,0.1c-0.1,0.1-0.2,0.1-0.4,0.2
			c-0.2,0.1-0.4,0.3-0.6,0.4c-0.5,0.5-0.4,1.8,0,2.3c0.2,0.2,0.4,0.3,0.9,0.2c0.2,0,0.4-0.3,0.4-0.5c0.1-0.2,0.1-0.5,0.1-0.7
			c0-0.2,0.1-0.5,0.1-0.7c0.1-0.4,0.4-0.7,0.8-0.9c0.4-0.2,0.9-0.1,1.3,0.1l0.4,0.2l-0.4,0.1c-0.8,0.1-1.3,0.3-1.4,1
			c0,0.1,0,0.2-0.1,0.3c-0.1,0.5-0.3,1,0,1.5l0.5,0.2c0.1-0.1,0.1-0.1,0.2-0.2c0.2-0.2,0.4-0.3,0.5-0.5c0.4-0.4,0.5-1,0.6-1.5
			c0-0.4,0.1-0.6,0.3-0.7c0.2-0.1,0.4-0.1,0.6-0.1l0.2,0l0.1-0.1c0.5-0.4,0.8-0.1,1.1,0.1c0,0,0.1,0,0.1,0.1l1-0.6l0-0.4l1.5,0.1
			c0.1-0.1,0.1-0.2,0.2-0.3c0.2-0.3,0.4-0.6,0.9-0.6l0.3,0l-0.2,0.2c-0.7,1-0.9,2-0.6,3.1c0.2,0.9,0.8,1.3,1.6,1.2
			c0.9-0.1,1.4-0.7,1.4-1.6c0-0.3,0-0.7,0-1l0-0.1c0-0.8-0.5-1.4-1.4-1.6c-0.1,0-0.2-0.1-0.3-0.1c0,0-0.1,0-0.1-0.1l-0.3-0.2
			l0.4-0.1c1.3-0.3,1.9,0.6,2.3,1.5c0.7-0.2,1.2,0.2,1.7,0.5c0.1,0.1,0.2,0.2,0.4,0.2l0.2,0.1c0.7,0.4,1.3,0.8,2.1,0.7
			c0.8,0,1.1-0.2,1.2-1c0.1-0.3,0.1-0.7,0.1-1.1c0-0.6-0.3-1-0.7-1.3c-0.4-0.3-1-0.4-1.5-0.3c-0.1,0-0.2,0-0.3,0.1c0,0-0.1,0-0.1,0
			l-0.4,0.1l0.2-0.3c0.6-0.7,1.2-0.6,1.8-0.4c1.7,0.6,1.8,2,1.8,3.3c0.6,0.5,0.9,0.5,1.7-0.1c0.1-0.7,0-1.4-0.4-2.3
			c-0.1-0.2-0.3-0.3-0.5-0.4c-0.1-0.1-0.2-0.1-0.2-0.2c0,0-0.1,0-0.2-0.1c-0.1,0-0.1,0-0.2-0.1l-0.6-0.2l0.6-0.1
			c0.5-0.1,0.9-0.1,1.2,0l0.4-0.2c0.6-0.4,1.1-0.4,1.5-0.2c0.4,0.2,0.6,0.6,0.7,1.3c0,0.2,0.1,0.5,0.1,0.7c0,0.1,0,0.1,0,0.2
			c0.2,0,0.3,0,0.4,0c0.1-0.1,0.1-0.2,0.1-0.3c0-0.4,0-0.9-0.1-1.4c-0.1-0.5-0.4-0.8-1-0.9c-0.3,0-0.5-0.1-0.8-0.1l-1-0.2l0.5-0.2
			c0.7-0.3,1.2-0.1,1.8,0c0.1,0,0.1,0,0.2,0c-0.3-0.3-0.7-0.4-1.1-0.5c-0.6-0.2-1.1-0.5-1.4-1l-0.8-0.3c-0.6-0.2-1.2-0.4-1.8-0.7
			c-1.2-0.4-2.7-0.9-3.5-2.3c-0.1-0.1-0.3-0.3-0.4-0.3c-0.8-0.2-1.1-0.8-1.3-1.4C54.8,90.4,54.7,90.3,54.7,90.1z"/>
		<path class="st1" d="M67.9,77h-0.7c0.1,0.6-0.1,1.2-0.5,1.7c-0.4,0.5-0.8,0.5-1.3,0.5c-0.2,0-0.3,0-0.5,0c-0.2,1.1-1,1.7-2.2,1.7
			c-0.2,0.6-0.4,1.1-0.9,1.3c-0.6,0.4-1.5,0.2-2.1,0.1c-0.4,0.6-1,1.1-1.6,1.2c-0.6,0.1-1.2,0-1.8-0.3c-0.1,0.1-0.1,0.3-0.2,0.4
			c-0.2,0.4-0.4,0.9-1,1.1c-0.8,0.3-1.4,0-2-0.3c-0.6,0.6-1.2,0.8-1.9,0.8c-0.7,0-1.1-0.5-1.4-1c-0.1-0.1-0.1-0.2-0.2-0.3
			c-0.5,0.6-1.1,0.6-1.7,0.7l-0.2,0c0,0,0,0,0,0c-0.7,0-1.1-0.4-1.4-0.8c-0.1-0.1-0.2-0.2-0.3-0.3c-0.4,0.3-0.8,0.3-1.3,0.2
			c-0.2,0-0.4,0-0.6,0l-0.1,0l0,0c-0.1-0.1-0.1-0.1-0.2-0.2c-0.2-0.1-0.3-0.3-0.5-0.4c-0.1-0.2-0.3-0.3-0.4-0.5c0,0-0.1-0.1-0.1-0.2
			c-0.4,0.2-1.1,0.4-1.7,0c-0.3-0.3-0.6-0.6-0.8-0.9c-0.1-0.1-0.2-0.2-0.2-0.3L39.4,81l-0.1,0c0,0,0,0,0,0c-0.6,0-1-0.3-1.3-1l0,0
			l-0.3-0.5c-0.2,0-0.4,0-0.6,0l0-0.3c0.3,0,0.5-0.2,0.5-0.6l0-0.2c0-0.8,0.1-1.6,0-2.4c0-0.5-0.1-0.8-0.2-0.9
			C37.2,75,36.9,75,36.3,75c0,0.1-0.1,0.1-0.1,0.2c-0.1,0.2-0.2,0.4-0.3,0.6c-0.1,0.6-0.2,1.2-0.3,1.8c-0.1,0.7,0.3,1.3,1,1.6
			l-0.1,0.3c-0.2,0-0.4-0.1-0.6-0.1c-0.6-0.2-0.7-0.7-0.7-1.1c0-0.2,0-0.3-0.1-0.4l-0.9-0.3l0,0.9c0,0.9,0,1.7,0,2.5
			c0,0.8,0.3,1.4,1,1.9c0.2,0.1,0.3,0.3,0.4,0.4c0,0.1,0.1,0.1,0.1,0.2l0.1,0.1c0.1,0.1,0.2,0.2,0.3,0.4c0.2,0.3,0.5,0.5,0.7,0.7
			l0.5,0.3c1.1,0.7,2.2,1.5,3.3,2.1c0.9,0.4,1.8,0.8,2.7,1.1c0.4,0.2,0.8,0.3,1.2,0.5l0.3,0.1l-0.3,0.2c-0.1,0.1-0.2,0.2-0.2,0.3
			c0,0.2,0,0.3,0.1,0.5c0.3,0.5,0.6,0.9,0.9,1.3c0.1,0.2,0.2,0.3,0.3,0.4h0.9v-2.2L46.1,89l-0.7,0.1l0-0.4l-0.1,0l0.1,0l0,0l0.7,0.1
			v0l0,0c0.4,0,0.8,0.1,1.2,0.1c0.9,0.1,1.8,0.2,2.7,0.2c1.4,0,2.9,0,4.3-0.1l0.1,0c0.4,0,0.8-0.1,1.2-0.2c0.1,0,0.2,0,0.3-0.1
			c0.4-0.1,0.8-0.2,1.2-0.3c0.4-0.1,0.8-0.2,1.2-0.3c1-0.3,2-0.6,3-0.9c0.7-0.3,1.3-0.7,2-1c0.3-0.2,0.5-0.3,0.8-0.5
			c1.4-0.8,2.5-1.8,3.3-3c0.2-0.3,0.3-0.7,0.3-1c0.1-1.1,0.1-2.1,0.1-3.2l0-0.9C67.9,77.4,67.9,77.2,67.9,77
			C67.9,77,67.9,77,67.9,77z"/>
		<path class="st1" d="M53.8,89.7h-1.3c0.2,0.1,0.3,0.1,0.5,0.2C53.3,89.8,53.6,89.8,53.8,89.7z"/>
		<path class="st1" d="M63.5,98.2c-0.2,0-0.4,0-0.5,0.1l-0.6,0c0.2,0.2,0.4,0.4,0.5,0.8c0.1,0.5,0.3,1,0.4,1.5
			c0,0.2,0.1,0.4,0.1,0.6h0.9c0,0,0-0.1,0.1-0.1c0.1-0.1,0.1-0.3,0.1-0.4c-0.1-0.6-0.1-1.2-0.3-2C64.2,98.4,64.1,98.2,63.5,98.2z"/>
		<path class="st1" d="M50.1,102c0-0.5-0.4-0.9-0.9-0.9c-0.1,0-0.2,0-0.3-0.1l-0.2-0.1l0,0l-0.2,0.4c-0.4,0.8-0.2,1.6,0,2.4
			c0,0.2,0.1,0.4,0.1,0.6c0,0.1,0.1,0.2,0.2,0.2c0.2,0.1,0.6,0.2,0.9,0.1c0.3-0.1,0.4-0.2,0.4-0.5l0-0.1
			C50.2,103.3,50.2,102.6,50.1,102z"/>
		<path class="st1" d="M47.2,101.8l-0.8-0.3l-0.1,0.1c-0.5,0.4-0.7,2-0.3,3.1h1.3c0.2-0.7,0.1-1.4,0-2.1
			C47.3,102.4,47.2,102.1,47.2,101.8z"/>
		<path class="st1" d="M42.1,72.3c-0.1-0.3-0.2-0.6-0.3-0.7c-0.2-0.1-0.4-0.1-0.7,0c-0.8,0.3-1.3,0.9-1.4,1.8
			c-0.1,0.9,0.3,1.6,1,2.2c0.3,0.2,0.7,0.3,1.1,0.2c0.1-0.1,0.4-0.2,0.4-0.5c0.1-0.4,0.1-0.8,0.1-1.3c0-0.2,0-0.4,0.1-0.7l0-0.2
			C42.2,72.9,42.2,72.6,42.1,72.3z"/>
		<path class="st1" d="M45.1,77.4c0.2,0,0.3,0.1,0.4,0.2c0-0.1-0.1-0.2-0.1-0.2L45.1,77.4z"/>
		<path class="st1" d="M42.7,79.5c0-0.5-0.1-0.9-0.1-1.4c0-0.5-0.4-0.9-0.8-0.9c0,0-0.1,0-0.1,0c-0.3,0-0.4,0.2-0.6,0.6l0,0.1
			c-0.4,1.2-0.5,2.2-0.2,3.3c0.1,0.4,0.8,0.9,1.2,0.8c0.4,0,0.7-0.4,0.7-0.9c0-0.2,0-0.4,0-0.7l0-0.4l0,0L42.7,79.5z"/>
		<path class="st1" d="M41.9,76.5c-0.2,0-0.5,0.1-0.8,0.1c-0.2,0-0.3-0.1-0.5-0.1l0.2,0.7c0.3-0.4,0.6-0.5,1-0.5
			c0.2,0,0.4,0.1,0.6,0.2c0.3,0.2,0.6,0.5,0.9,0.9c0.1,0.1,0.2,0.2,0.3,0.3c0.1,0,0.1-0.1,0.2-0.1L42,76.4
			C42,76.4,41.9,76.5,41.9,76.5z"/>
		<path class="st1" d="M45.3,74.1c0-0.6-0.1-1.2-0.6-1.6c-0.1,0-0.3,0-0.4,0c-0.5,0-0.9,0.1-1.2,0.6c-0.1,0.3-0.2,0.6-0.3,1v0
			c0,0.2,0,0.3,0,0.5c-0.1,0.7-0.1,1.4,0.3,2c0.3,0.5,0.7,0.7,1.2,0.6c0.5-0.1,0.8-0.4,0.9-1c0.1-0.6,0.2-1.3,0.1-1.9L45.3,74.1z"/>
		<path class="st1" d="M44.8,78.2c-0.8,0-1.4,0.5-1.5,1.4c0,0.1,0,0.2,0,0.3c0,0.2,0,0.3-0.1,0.5l0,0.3c0,0.9-0.1,1.7,0.7,2.4
			c0.4,0.3,0.8,0.4,1.2,0.3c0.3-0.1,0.6-0.4,0.6-0.8c0.1-0.4,0.1-0.9,0.2-1.4c0-0.2,0-0.3,0-0.5l0,0l0-1.3c0-0.1,0-0.1,0-0.2
			C45.8,78.5,45.5,78.2,44.8,78.2C44.8,78.2,44.8,78.2,44.8,78.2z"/>
		<path class="st1" d="M49.6,62.7c0.7-0.6,1.6-1.3,1.7-2.4c0.3-1.6,0-3.2-0.6-4.5c-1-2-2.4-2.9-4.2-2.7h-0.3c-0.1,0-0.1,0-0.2,0
			c-0.1,0-0.2,0-0.3,0c-1.6,0-2.7,0.8-3.5,2.2c-0.7,1.3-0.9,2.7-0.6,4.1c0.4,1.5,1.1,2.7,2.2,3.5C45.7,64.1,47.9,64,49.6,62.7z
			 M45.3,62.9c-1.1,0-1.9-1-1.9-2.1c0-0.6,0-1.3,0.2-1.8c0.2-0.6,0.8-1,1.4-1.1c0.7-0.1,1.5,0.2,1.9,0.7c0.5,0.6,0.7,1.2,0.6,1.9
			c0,0.1,0,0.1,0,0.2c0,0.2,0,0.3,0,0.5c-0.3,1.5-0.9,1.8-2,1.8C45.5,62.9,45.4,62.9,45.3,62.9z"/>
		<path class="st1" d="M34.3,76.6c0.1,0.4,0.3,0.6,0.8,0.6l0.3-2.8l-0.6-0.3C34.5,74.7,34.2,76.2,34.3,76.6z"/>
		<path class="st1" d="M27.9,74.1c-0.3,0-0.6,0-0.9,0l0,0.1c0.3,0.3,0.6,0.2,1,0.2c0.1,0,0.2,0,0.3,0c0.2,0,0.5,0,0.7,0.1l0.6,0.3
			c0,0,0.1,0,0.1,0l0.1-0.7C29.2,74.1,28.5,74.1,27.9,74.1z"/>
		<path class="st1" d="M27.6,73.1l-0.5,0c0,0,0,0-0.1,0c0,0,0,0,0,0l0,0.3h2.5c0.1-0.2,0.1-0.3,0.1-0.3c0-0.1-0.1-0.1-0.3-0.1
			C28.7,73.1,28.2,73.1,27.6,73.1z"/>
		<path class="st1" d="M29.5,74.9h-2.3C27.6,75,28.2,75,29.5,74.9z"/>
		<path class="st1" d="M27,72.6l0.5,0c0.6,0,1.2,0,1.8,0c0.1,0,0.1-0.1,0.2-0.1c0,0,0,0,0.1-0.1l0,0H27V72.6z"/>
		<path class="st1" d="M26.2,71.7c-0.4,1.8-0.4,2.3,0,2.7c0.2-0.6,0.3-2.2,0.2-2.7L26.2,71.7z"/>
		<path class="st1" d="M29.5,71.7C29.5,71.7,29.5,71.7,29.5,71.7c-0.1-0.1-0.2-0.2-0.3-0.2c-0.6,0-1.1,0-1.7,0c-0.2,0-0.4,0-0.5,0
			c0,0,0,0.1,0,0.1c0,0,0,0.1,0,0.1H29.5z"/>
		<path class="st1" d="M36.1,71.8C36,71.1,35.9,71,35.5,71c-0.4,0-0.8,0.1-1,0.7c-0.1,0.3-0.1,0.6,0,0.8c0.1,0.2,0.2,0.5,0.4,0.6
			c0.3,0.1,0.5,0.2,0.8,0c0.3-0.2,0.5-0.6,0.5-1.1l0,0C36.1,71.9,36.1,71.9,36.1,71.8z"/>
		<path class="st1" d="M36.1,74.4c0.1,0,0.1,0,0.1,0c0.1,0,0.2-0.1,0.3-0.1l0,0l-0.4-0.6C36,73.9,36,74,36.1,74.3
			C36.1,74.3,36.1,74.4,36.1,74.4z"/>
		<path class="st1" d="M35.3,65.7c2.6,1.4,5.5,2.3,9.2,2.8c0.8,0.1,1.7,0.2,2.5,0.2c0.3,0,0.6,0,0.8,0.1l0.4,0c0.6,0,1.3,0.1,2,0.1
			c0.5,0,0.9,0,1.4,0c0.5,0,1,0,1.5,0c2.6,0,4.8-0.2,6.9-0.6c1.4-0.3,2.7-0.7,4.1-1.2c1.1-0.4,2.1-0.9,2.9-1.3
			c0.1,0,0.2-0.1,0.3-0.1c0.4-0.2,0.8-0.3,0.9-0.8c-1.1-0.3-8.9-0.2-10.2,0c-0.1,0.3,0,0.7,0.1,1c0.1,0.4,0.2,0.8,0.1,1.2l0,0.2
			L58,67.2c-0.7-0.3-0.7-0.8-0.7-1.2c0-0.1,0-0.3,0-0.4c0-0.4,0-0.7-0.1-1.1c-0.1-0.3-0.1-0.3-0.1-0.3c0,0-0.1,0-0.3,0.2
			c0.2,1.4,0.1,2.9-0.6,3.2l-0.2,0.1l0.2-2.6h-8.6c-0.2,0.8,0,1.5,0.2,2.2l0.1,0.2l-0.1,0c-0.2,0.1-0.4,0.1-0.6,0
			c-0.2-0.1-0.2-0.3-0.3-0.5c0-0.2,0-0.3,0-0.5c0-0.1,0-0.2,0-0.3c0-0.4-0.1-0.8-0.1-1.2l0-0.3h-0.8l0,0c0,0.1,0,0.2,0,0.3
			c0,0.3-0.1,0.7-0.1,1c0,0.4-0.1,0.7-0.1,1.1c0,0.1-0.1,0.3-0.2,0.4c-0.1,0.1-0.3,0.1-0.5,0l-0.1,0l0-0.1c0-0.2,0.1-0.4,0.2-0.6
			c0.2-0.5,0.3-0.9,0.1-1.4l-10.2,0.4C35,65.6,35.1,65.6,35.3,65.7L35.3,65.7z"/>
		<path class="st1" d="M58.3,63.8c0.1,0,0.3,0,0.4,0c0.3,0,0.5,0,0.7-0.1l0.4-0.2c1.2-0.6,2.3-1.2,3.1-2.4c0.9-1.2,1-2.5,0.4-3.8
			c-0.4-0.9-0.9-1.9-1.5-2.9c-0.5-0.9-1.3-1.4-2.6-1.7c-1-0.2-2.1,0-3.1,0.7c-0.5,0.3-1,0.7-1.4,1.2c-0.9,0.9-1.2,2.1-1.5,3.3
			c-0.4,1.7,0,3.2,1.1,4.2h0C55.7,63.3,56.9,63.9,58.3,63.8z M58.2,53.6c0.4-0.4,0.8-0.5,1.3-0.4c1.2,0.3,2.1,1.5,2,2.8
			c0,0.8-0.2,1.4-0.8,1.8c-0.3,0.3-0.7,0.4-1.1,0.4c-0.3,0-0.6-0.1-1-0.3c-0.6-0.3-1.3-0.8-1.4-1.9C57.3,55,57.5,54.2,58.2,53.6z"/>
		<path class="st1" d="M39.4,76.2c-0.7,0.2-1.1,0.7-1.2,1.4c0,0.6,0,1.1,0,1.7c0,0.2,0,0.4,0,0.7l1,0.8c0.6,0,0.8-0.2,0.8-0.7l0-0.1
			c0-0.6,0.1-1.3,0-1.9c0-0.1,0-0.2,0-0.3C40,77.1,39.9,76.6,39.4,76.2z"/>
		<path class="st1" d="M68.4,65.7l-0.1,0.1c-0.2,0.1-0.3,0.2-0.5,0.2c-0.3,0.1-0.6,0.3-0.8,0.4c-0.6,0.3-1.2,0.6-1.9,0.9
			c-0.7,0.3-1.5,0.5-2.3,0.7c-0.7,0.2-1.4,0.4-2.1,0.7c-1.3,0.5-2.6,0.6-3.7,0.7c-1.5,0.1-3.1,0.1-4.2,0.1c-1.3,0-2.5,0-3.8-0.1
			c-0.6,0-1.3,0-1.9,0c-0.3,0-0.5,0-0.8,0c-0.6,0-1.2,0-1.7-0.1c-1.6-0.2-2.9-0.5-4.2-0.9C39,68,37.7,67.5,36.4,67L36,66.9
			c-0.4-0.2-0.8-0.4-1.2-0.6c-0.1-0.1-0.3-0.1-0.4-0.2c-0.1,1.3,0,2.5,0,3.7c0,0.3,0,0.6,0,0.9c0.1,0,0.2-0.1,0.3-0.1
			c0.3-0.1,0.6-0.2,0.9-0.2c0.3,0.1,0.6,0.3,0.8,0.5c0.1,0.1,0.1,0.1,0.2,0.2c0.4-0.5,1.1-0.7,1.9-0.5l0.1,0l0.6,0.7v0.9
			c0.1-0.1,0.2-0.1,0.2-0.2c0.3-0.3,0.6-0.6,1-0.8c0.4-0.3,0.9-0.3,1.3-0.1c0.4,0.2,0.7,0.6,0.9,1.1c0,0.1,0.1,0.2,0.1,0.3
			c0,0,0,0,0,0c0.1-0.1,0.2-0.2,0.3-0.2c0.6-0.4,1.2-0.6,1.7-0.4c0.5,0.2,0.9,0.7,1,1.4c0,0.2,0.1,0.4,0.1,0.7
			c0.6-1,1.3-1.5,2.3-1.8c0.7-0.1,1.2,0,1.6,0.5c0.2,0.3,0.4,0.7,0.6,1c0,0.1,0.1,0.2,0.1,0.3c0,0,0,0,0,0c0.2-0.2,0.3-0.3,0.5-0.5
			c0.3-0.3,0.7-0.7,1.1-1c0.2-0.2,0.4-0.3,0.8-0.3c0.2,0,0.5,0.1,0.8,0.3c0.8,0.5,1,1.3,1.2,2c0,0.1,0,0.2,0.1,0.3
			c0.8-2,1.1-2,2.5-1.9l0.2,0l0.7,1.5c0.2-0.7,0.5-1.3,1-1.7c0.3-0.3,0.7-0.5,1-0.5c0.4,0,0.7,0.2,1,0.6c0.1,0.1,0.1,0.2,0.2,0.2
			c0.3-1,0.6-1.6,1.2-1.8c0.4-0.1,0.9,0.1,1.4,0.6c0.4-0.7,0.9-1.4,1.9-1l0.7-0.8l0,0c0.9-0.2,1.3,0,1.6,0.9
			c0.1,0.3,0.1,0.6,0.2,0.9l0,0.2c0,0.2,0,0.3,0,0.5c0,0,0,0,0,0c0-2.1,0.1-4.2,0.1-6.6C68.5,65.9,68.5,65.8,68.4,65.7
			C68.5,65.7,68.5,65.7,68.4,65.7z"/>
		<path class="st1" d="M46.5,78.4c0,0.1,0.1,0.1,0.1,0.2c0.1,0,0.1,0,0.2-0.1C46.7,78.5,46.6,78.5,46.5,78.4z"/>
		<path class="st1" d="M48.3,72.8c-0.5,0-0.9,0.2-1.3,0.7c-0.5,0.8-0.8,1.6-1,2.4c-0.1,0.5,0,0.9,0.2,1.3c0.2,0.3,0.5,0.5,0.8,0.6
			c0.6,0.1,1.2,0.2,2,0.2c0.3,0,0.5-0.1,0.7-0.3c0.1-0.1,0.2-0.3,0.2-0.5c0-0.3,0-0.6,0-0.9c0.1-1.2,0.1-2.2-0.8-3.2
			C48.9,72.9,48.6,72.8,48.3,72.8z"/>
		<path class="st1" d="M65.8,76.1c-0.4,0-0.7,0.1-0.9,0.3c-0.2,0.2-0.4,0.6-0.4,1c0,0.5,0.1,0.9,0.3,1.1c0.1,0.1,0.3,0.2,0.5,0.1
			c0.9-0.1,1.3-0.5,1.4-1.4c0-0.3-0.1-0.7-0.3-0.9C66.3,76.2,66.1,76.1,65.8,76.1z"/>
		<path class="st1" d="M46.4,82.2l0,0.2c0,0.8,0.4,1.4,1,1.5c0.8,0.1,1.8,0,2-1c0.1-0.4,0.2-0.8,0.2-1.3c0-0.1,0-0.3,0.1-0.4l-0.1,0
			l0-0.3c0-0.1,0-0.2,0-0.3c-0.1-1.4-0.5-1.6-1.6-1.6c-0.1,0-0.1,0-0.2,0c-0.9,0-1.3,0.3-1.4,1.3C46.4,80.9,46.4,81.6,46.4,82.2z"/>
		<path class="st1" d="M66.7,73.9l0,0.1c0.1-0.1,0.1-0.1,0.2-0.1L66.7,73.9z"/>
		<path class="st1" d="M49,78.4c0.4,0.1,0.7,0.2,1,0.4c0.5-0.1,0.9-0.2,1.4-0.2c-0.2-0.1-0.4-0.2-0.6-0.3c-0.1-0.1-0.3-0.1-0.5-0.1
			C49.9,78.4,49.5,78.4,49,78.4z"/>
		<path class="st1" d="M64.7,75.8c0.5-0.3,1-0.4,1.5-0.4l0.1-0.5l-1.4,0.7C64.8,75.6,64.8,75.7,64.7,75.8z"/>
		<path class="st1" d="M67.2,70.3c-0.4,0.1-0.6,0.2-0.7,0.6c-0.1,0.4-0.2,0.8-0.1,1.2c0,0.5,0.2,0.8,0.4,0.9
			c0.3,0.1,0.6,0.1,1.1-0.2c0,0,0.1-0.1,0.1-0.1c0,0,0.1,0,0.1-0.1c0-0.1,0-0.3,0-0.4C68,71.5,67.9,70.8,67.2,70.3z"/>
		<path class="st1" d="M51.6,79.3C51.6,79.3,51.6,79.3,51.6,79.3h-0.1c-0.2,0-0.3,0-0.4,0c-0.6,0.1-0.8,0.3-0.8,0.9V82h0
			c0,0.1,0,0.2,0,0.4c0,0.4,0,0.7,0,1.1c0,0.7,0.3,1,1,1.3c0.3,0.1,0.8,0,1.1-0.2c0.3-0.2,0.5-0.5,0.5-0.9c0.1-1,0.1-2,0.1-3
			c0-0.6-0.1-0.9-0.2-1.1C52.5,79.4,52.2,79.3,51.6,79.3z"/>
		<path class="st1" d="M75.5,47.3H26c-3.7,0-6.7,3-6.7,6.7v49.6c0,3.7,3,6.7,6.7,6.7h49.6c3.7,0,6.7-3,6.7-6.7V54
			C82.2,50.3,79.2,47.3,75.5,47.3z M68.8,73.2c0,0.1-0.1,0.2-0.1,0.4c-0.2,0.6-0.2,1.2-0.3,1.9c0,1.3-0.1,2.7-0.1,4
			c0,0.8,0,1.6-0.1,2.4c0,0.2,0,0.5-0.1,0.7c-0.8,1.3-1.7,2.3-2.8,3c-0.8,0.5-1.7,1.1-2.7,1.6c-0.5,0.3-1.1,0.5-1.6,0.7
			c-1.1,0.3-2.3,0.7-3.4,1c-0.6,0.2-1.1,0.3-1.7,0.5c-0.2,0.1-0.4,0.1-0.6,0.2l-0.2,0.1c0.1,0.9,0.3,1.4,0.9,1.8
			c0.3,0.2,0.7,0.4,0.9,0.7c0.8,1.1,2,1.5,3.2,1.9c0.2,0.1,0.5,0.2,0.7,0.3c0.1,0,0.2,0.1,0.3,0.1c0.5,0.2,1,0.4,1.4,0.7
			c0,0,0.1,0.1,0.1,0.1c0,0,0,0,0.1,0c0.1,0,0.3,0,0.4,0.1c0.3,0.1,0.7,0.3,1,0.5c0.3,0.1,0.6,0.3,1,0.4c0.4,0.2,0.8,0.5,0.8,1.2
			c0,0.2,0,0.5,0.1,0.7c0,0.2,0.1,0.4,0.1,0.6c0,0.1,0,0.2,0,0.3c0,0.4,0.1,0.8-0.1,1.1c-0.5,0.8-1.2,1.4-2,1.7
			c-0.2,0.1-0.4,0.1-0.5,0.2c-0.4,0.1-0.7,0.2-1,0.4c-0.5,0.4-1.2,0.4-1.9,0.2c-1,1-2.2,1.1-3.6,0.4c-0.5-0.3-1-0.5-1.5-0.8
			c-0.4-0.2-0.7-0.3-1.1-0.2c0,0.1,0,0.1,0,0.2c0,0.2,0,0.4,0,0.6c0,0.9-0.4,1.7-1.1,2.1c-0.7,0.4-1.5,0.4-2.3-0.1
			c-0.1,0-0.2-0.1-0.3-0.2l-0.1,0c-0.5,0.9-1.3,0.9-2.1,0.7c-0.4-0.1-0.6-0.2-0.8-0.4c-0.1,0.5-0.4,0.6-1.1,0.6c0,0-0.1,0-0.1,0
			c0,0,0,0-0.1,0h-0.1c0,0,0,0,0,0c-1,0-1.3-0.1-1.4-1c-0.1,0.1-0.3,0.3-0.4,0.4c-0.6,0.5-1.4,0.5-2-0.1c-0.2-0.2-0.4-0.4-0.7-0.3
			c-0.6,0-1.1-0.1-1.5-0.5c-0.4-0.4-0.5-0.9-0.5-1.5l0-0.5c0-0.8,0.1-1.7,0.2-2.5c0.1-0.7,0-1.3-0.4-2.1c-0.9-2,0-4.5,1.8-5.5
			c0.2-0.1,0.5-0.2,0.8-0.3c0.3-0.1,0.5-0.3,0.5-0.6c0-0.6,0-1.2,0.5-1.7c0,0,0-0.2,0.1-0.2c0,0,0-0.1,0-0.1l-0.3-0.1
			c-0.3-0.1-0.5-0.3-0.8-0.4c-0.3-0.1-0.6-0.3-0.9-0.4c-0.6-0.3-1.3-0.5-1.9-0.9c-0.9-0.5-1.8-1-2.6-1.7c-0.6-0.4-1.2-0.9-1.5-1.7
			l-0.1-0.1c-1-0.4-1.9-1.6-1.9-2.6c0-2.2,0-4.1,0-5.8c0-0.3,0.1-0.6,0.1-1c0-0.1,0-0.3,0.1-0.4c-0.8-0.1-1.6-0.1-2.4-0.1
			c-0.4,0-0.7,0-1.1,0l0,0.2c0,0.2,0,0.3-0.1,0.5c0,0.4-0.2,1-1,1c-1,0-2-0.1-3-0.2c-0.6-0.1-1.1-0.6-1.1-1.3c0-0.6,0-1.2,0-1.7
			c0.1-1,0.5-1.4,1.5-1.5c0.8,0,1.5,0,2.3,0c0.8,0,1.1,0.3,1.1,1.1c0,0.3,0,0.6,0.1,0.8c0,0.1,0,0.1,0.1,0.2c0,0,0,0.1,0,0.1
			c0.8,0.1,1.6,0,2.4,0c0.3,0,0.6,0,1,0c0-0.1,0-0.1,0-0.2c0-0.2,0-0.3,0-0.4c0-1.4-0.1-2.9-0.1-4.3l0-1.4c0-0.1,0-0.2,0-0.3
			c0-1.2,0.3-1.6,1.6-1.6c0.6,0,1.2,0,1.8,0c1.2,0,2.4-0.1,3.6-0.1c1,0,2.1-0.1,3.1-0.2l1-0.1c0,0,0.1,0,0.2-0.1
			c-0.1-0.1-0.2-0.1-0.3-0.1c-1.2-0.4-1.9-1.2-2.7-2.3c-1.3-1.9-1.1-4-0.7-5.9c0.3-1.6,1.4-2.7,3-3.2c1-0.3,1.9-0.4,3-0.3
			c0.7,0.1,1.3,0.3,1.6,0.5c1.3,0.7,2.2,1.8,2.6,3.2c0.3,1.1,0.5,2.3,0.5,3.6c0,1.8-1.7,3.9-3.5,4.3c-0.1,0-0.3,0.1-0.4,0.1
			c1.8,0.2,6.7,0.2,7.9-0.1l-0.5-0.4c-0.2-0.2-0.4-0.3-0.6-0.5c-0.4-0.3-0.9-0.7-1.3-1.1c-1-1-1.4-2.3-1-4.1
			c0.3-1.3,0.7-2.5,1.4-3.6c0.9-1.4,2.2-2.1,4.1-2.3c0.2,0,0.4,0,0.7,0l0.2,0c1,0,1.8,0.4,2.5,1.1c1.1,1.1,1.9,2.5,2.4,4.3
			c0.5,1.8,0.1,3.3-1.1,4.6c-0.8,0.8-1.7,1.6-3,2c0.2,0,0.4,0,0.5,0c1.4,0,2.8,0,4.2-0.1l3.1-0.1c0.2,0,0.4,0,0.7,0
			c0.6,0.1,0.8,0.4,0.8,1c0,2-0.1,4-0.1,6l0,0.1C69,71.8,69,72.4,68.8,73.2l0.4-0.2L68.8,73.2z"/>
		<path class="st1" d="M64.4,72.5c0,0.4,0.1,0.9,0.2,1.3c0.1,0.4,0.2,0.6,0.4,0.7c0.2,0.1,0.5,0,0.9-0.2c0.1-0.9,0.2-2-0.4-3
			C64.8,71.4,64.4,71.8,64.4,72.5z"/>
		<path class="st1" d="M66.8,75.2c0,0.7,0.1,0.9,0.7,1.1c0.4-0.4,0.5-1.6,0.2-2.2C67.2,74.3,66.9,74.7,66.8,75.2z"/>
		<path class="st1" d="M56.8,73.2c-0.2,0-0.4,0-0.6,0.1c-0.3,0.2-0.5,0.4-0.6,0.6c-0.2,0.5-0.3,1.1-0.5,1.7c0,0.2-0.1,0.4-0.1,0.5
			l0.1,0l0,0.2c0,0.1,0,0.2,0,0.3c0,0.6,0.2,1.1,0.7,1.2c0.7,0.2,1.3,0,1.7-0.5c0.1-0.1,0.2-0.3,0.2-0.4c0.2-1.3,0-2.4-0.5-3.4
			C57.2,73.4,57,73.3,56.8,73.2z"/>
		<path class="st1" d="M60.3,72.8c-0.3,0-0.5,0.1-0.8,0.3c-1.2,1.2-1.3,2.7-0.3,4c0.1,0,0.1,0,0.2,0c0.2,0,0.4,0,0.6,0
			c0.7,0,1.3-0.5,1.4-1.1c0.1-0.8,0.1-1.7-0.4-2.7C60.8,73,60.6,72.8,60.3,72.8z"/>
		<path class="st1" d="M60.7,77.8c0.1-0.1,0.3-0.1,0.5-0.1c0.3,0,0.7,0.1,1,0.4c0.4-0.9,0.6-1,1.8-1.4c0-0.1,0.1-0.2,0.1-0.2
			c-0.5,0.3-1.2,0.5-2.1,0.3C61.6,77.2,61.2,77.6,60.7,77.8z"/>
		<path class="st1" d="M59.8,81.2c0.1,0.4,0.3,0.6,0.5,0.7c0.4,0.2,0.8,0.1,1.2-0.1c0.4-0.2,0.7-0.7,0.7-1.1
			c0.1-0.7,0.1-1.3-0.4-1.9c-0.2-0.3-0.5-0.5-0.9-0.5c0,0,0,0,0,0c-0.3,0-0.6,0.2-0.8,0.4c-0.3,0.4-0.4,1-0.4,1.5c0,0.1,0,0.3,0,0.4
			C59.8,80.8,59.8,81,59.8,81.2z"/>
		<path class="st1" d="M53.7,73.3c-0.2-0.3-0.4-0.5-0.7-0.5c-0.1,0-0.1,0-0.2,0c-0.7,0.1-1.2,0.5-1.6,1.1c-0.5,0.8-0.7,1.7-0.6,2.8
			c0.1,0.6,0.3,1.3,1.2,1.4c0.6,0.1,1.1,0.1,1.7,0c0.6,0,0.9-0.4,0.9-1c0-0.2,0-0.3,0-0.5c0-0.1,0-0.2,0-0.3
			C54.6,75.2,54.2,74.3,53.7,73.3z"/>
		<path class="st1" d="M62.1,74.6c0,0.3,0,0.6,0,0.9c0,0.4,0.2,0.6,0.5,0.7c0.3,0.1,0.8-0.1,1.1-0.4c0.3-0.3,0.5-0.6,0.5-0.9
			c-0.1-0.8-0.3-1.6-0.4-2.3c-0.1-0.5-0.5-0.8-0.9-0.7c-0.4,0-0.7,0.4-0.8,0.9c0,0.3,0,0.7,0,1c0,0.2,0,0.3,0,0.5l0,0.1
			C62.1,74.4,62.1,74.5,62.1,74.6z"/>
		<path class="st1" d="M37.2,71.5c-0.4,0.4-0.5,1.2-0.3,2.1c0.3,0.3,0.7,0.4,1,0.3c0.3-0.1,0.6-0.4,0.7-0.8c0.3-0.8,0.2-1.5-0.2-2
			C37.9,71.1,37.5,71.2,37.2,71.5z"/>
		<path class="st1" d="M62.8,78.3c0,0.5,0,1,0,1.4c0,0.2,0,0.3,0,0.5c0.6,0.1,1.2-0.1,1.4-0.5c0.3-0.7,0.1-1.4-0.6-2.2
			C63.1,77.6,62.8,77.8,62.8,78.3z"/>
		<path class="st1" d="M53.1,79c0.1,0,0.1,0,0.2,0.1c1.5-0.5,1.6-0.5,2.6,0c0.2-0.1,0.3-0.1,0.5-0.2c0.2-0.1,0.3-0.1,0.5-0.2
			c-0.7,0.1-1.4,0-2.1-0.3C54.3,78.6,53.7,78.9,53.1,79z"/>
		<path class="st1" d="M53.5,82.2c0,0.4,0,0.8,0.1,1.1c0,0.1,0,0.2,0,0.3c0.1,0.3,0.2,0.6,0.5,0.7c0.2,0.1,0.4,0.1,0.7,0
			c0.3-0.1,0.7-0.5,0.9-0.8c0.4-1.2,0.4-2.4-0.1-3.9c-0.1-0.3-0.3-0.4-0.7-0.4c0,0,0,0,0,0c-0.8,0-1.3,0.6-1.4,1.3
			c0,0.3,0,0.6,0,0.9l0,0.6h0L53.5,82.2z"/>
		<path class="st1" d="M57.8,78.9c-0.4,0-0.9,0.3-1.2,0.6c-0.2,0.2-0.4,0.5-0.3,0.9c0,0.2,0,0.5,0,0.7c0,0.2,0,0.5,0,0.7
			c0.1,0.6,0.2,1,0.8,1.2c0.5,0.2,1.1,0.1,1.5-0.2c0.4-0.3,0.6-0.8,0.6-1.4l0-0.2c0-0.1,0-0.2,0-0.3c0-0.2,0-0.4,0-0.6
			C59.1,79.6,58.4,78.9,57.8,78.9C57.8,78.9,57.8,78.9,57.8,78.9z"/>
		<path class="st1" d="M38.1,74.7l0.3,1.2c0.3-0.3,0.6-0.6,1.1-0.5l-0.6-1.2L38.1,74.7z"/>
		<path class="st1" d="M58,78.2c0.4,0,0.7,0.3,1,0.5c0,0,0.1,0.1,0.1,0.1c0.1-0.1,0.3-0.2,0.4-0.3c0.3-0.3,0.7-0.5,1-0.7
			c0,0,0,0,0.1,0c-0.2,0.1-0.4,0.1-0.6,0.1c-0.5,0-1-0.1-1.4-0.4C58.5,77.8,58.3,78,58,78.2z"/>
	</g>
	<g id="mEzIQh_3_">
		<g>
			<path class="st1" d="M277.1,70.5c-0.3,0-0.7,0-1,0c-59.2,0-118.3,0-177.5,0c-0.3,0-0.6,0-1,0c0-0.2,0-0.2,0-0.3
				c0.1,0,0.2,0,0.3-0.1c0.2,0,0.5,0,0.7,0c59.1,0,118.3,0,177.4,0c0.3,0,0.7,0,1,0C277.1,70.2,277.1,70.3,277.1,70.5z"/>
			<path class="st1" d="M149.1,83.7c-0.1,0-0.1-0.1-0.2-0.1c-1.1-0.1-1.7-0.8-2-1.8c-0.3-1-0.2-1.9,0.1-2.9c0.4-1.1,1.2-1.7,2.4-1.8
				c0.6,0,1.3,0.1,1.8,0.6c-0.1,0.2-0.2,0.5-0.4,0.7c-0.3-0.1-0.5-0.2-0.7-0.3c-0.9-0.4-1.7,0.2-1.9,0.9c-0.3,0.9-0.3,1.7,0,2.6
				c0.3,0.8,1,1.2,1.8,1c0.3-0.1,0.6-0.2,0.9-0.2c0.1,0.2,0.2,0.4,0.3,0.7c-0.3,0.3-0.7,0.4-1.1,0.5c-0.2,0-0.3,0.1-0.4,0.2
				C149.5,83.7,149.3,83.7,149.1,83.7z"/>
			<path class="st1" d="M205,83.7c-0.1-0.1-0.2-0.1-0.3-0.1c-0.9-0.1-1.5-0.7-1.8-1.6c-0.4-1.2-0.4-2.3,0.2-3.5
				c0.5-1,1.3-1.4,2.3-1.4c1.1,0,2.1,0.8,2.3,2c0.2,0.8,0.2,1.7-0.1,2.5c-0.3,1.1-1,1.8-2.1,1.9c-0.1,0-0.1,0.1-0.1,0.1
				C205.3,83.7,205.2,83.7,205,83.7z M203.4,80.5c0.1,0.5,0.1,1,0.2,1.4c0.2,0.6,0.6,1,1.2,1.1c1.1,0.2,1.8-0.4,2.1-1.3
				c0.3-0.8,0.3-1.7,0.1-2.5c0-0.2-0.1-0.3-0.2-0.5c-0.3-0.5-0.6-0.9-1.3-0.9c-0.7,0-1.3,0.2-1.7,0.8
				C203.5,79.1,203.4,79.8,203.4,80.5z"/>
			<path class="st1" d="M168.6,83.7c-0.1-0.1-0.2-0.1-0.3-0.1c-0.9-0.1-1.5-0.7-1.8-1.6c-0.4-1.2-0.4-2.3,0.2-3.5
				c0.5-1,1.3-1.4,2.3-1.4c1.1,0,2.1,0.8,2.3,2c0.2,0.8,0.2,1.7-0.1,2.5c-0.3,1.1-1,1.8-2.1,1.9c-0.1,0-0.1,0.1-0.1,0.1
				C168.9,83.7,168.8,83.7,168.6,83.7z M167,80.3c0,0.4,0,0.7,0,0.9c0.1,0.8,0.7,1.6,1.3,1.7c0.8,0.2,1.6-0.1,2-0.8
				c0.6-1,0.6-2.8-0.1-3.8c-0.2-0.2-0.4-0.5-0.7-0.5c-0.9-0.2-1.7-0.1-2.2,0.9C167.1,79.2,167,79.8,167,80.3z"/>
			<path class="st1" d="M122.8,83.7c-0.1-0.1-0.2-0.1-0.3-0.1c-0.9-0.1-1.5-0.7-1.8-1.6c-0.4-1.2-0.4-2.3,0.2-3.5
				c0.5-1,1.3-1.4,2.3-1.4c1.1,0,2.1,0.8,2.3,2c0.2,0.8,0.2,1.7-0.1,2.5c-0.3,1.1-1,1.8-2.1,1.9c-0.1,0-0.1,0.1-0.1,0.1
				C123,83.7,122.9,83.7,122.8,83.7z M121.1,80.5c0.1,0.5,0.1,1,0.2,1.4c0.2,0.5,0.9,1.2,1.5,1.1c0.8-0.1,1.4-0.4,1.7-1.2
				c0.3-0.9,0.4-1.8,0.1-2.7c0-0.2-0.1-0.4-0.2-0.5c-0.2-0.5-0.6-0.9-1.2-0.9c-0.7,0-1.3,0.1-1.8,0.8
				C121.2,79.1,121.1,79.8,121.1,80.5z"/>
			<path class="st1" d="M175,83.7c-0.1-0.1-0.3-0.1-0.4-0.2c-0.7-0.1-1.3-0.6-1.4-1.3c-0.3-1.6-0.1-3.2-0.2-4.9c0.3,0,0.5,0,0.8-0.1
				c0,0.3,0.1,0.5,0.1,0.7c0,1.2,0,2.4,0,3.6c0,0.4,0.1,0.7,0.3,1c0.4,0.5,1.1,0.7,1.8,0.5c0.5-0.2,0.9-0.7,0.9-1.4
				c0-1.2,0-2.3,0-3.5c0-0.2,0-0.5,0-0.6c0.2-0.3,0.5-0.3,0.7-0.1c0,0.1,0.1,0.3,0.1,0.5c0,1,0,2,0,3c0,0.4-0.1,0.9-0.2,1.3
				c-0.2,0.7-0.7,1.3-1.5,1.3c-0.1,0-0.2,0.1-0.4,0.1C175.3,83.7,175.2,83.7,175,83.7z"/>
			<path class="st1" d="M211.4,83.7c-0.1-0.1-0.3-0.1-0.4-0.2c-0.7-0.1-1.3-0.6-1.4-1.3c-0.3-1.6-0.1-3.2-0.2-4.9
				c0.3,0,0.5,0,0.8-0.1c0,0.3,0.1,0.5,0.1,0.7c0,1.2,0,2.4,0,3.6c0,0.4,0.1,0.7,0.3,1c0.4,0.5,1.1,0.7,1.8,0.5
				c0.5-0.2,0.9-0.7,0.9-1.4c0-1.2,0-2.3,0-3.5c0-0.2,0-0.5,0-0.6c0.2-0.3,0.5-0.3,0.7-0.1c0,0.1,0.1,0.3,0.1,0.5c0,1,0,2,0,3
				c0,0.4-0.1,0.9-0.2,1.3c-0.2,0.7-0.7,1.3-1.5,1.3c-0.1,0-0.2,0.1-0.4,0.1C211.7,83.7,211.6,83.7,211.4,83.7z"/>
			<path class="st1" d="M220.7,64c0-4.5,0-8.9,0-13.4c0.2,0,0.4,0,0.6,0c0.9,0,1.7,0,2.6,0c0.8,0,1.6,0.1,2.3,0.4
				c1.1,0.4,1.8,1.1,2.1,2.3c0.3,1.3-0.1,2.3-1,3.2c-0.1,0.1-0.2,0.2-0.2,0.3c0,0,0,0,0,0.1c0.2,0.1,0.4,0.3,0.6,0.4
				c1.3,0.7,1.7,1.8,1.6,3.2c-0.1,1.1-0.5,2-1.4,2.7c-0.6,0.4-1.2,0.6-1.9,0.8C224.3,64.1,222.5,63.9,220.7,64z M222.5,62.6
				c1,0,2,0.1,3.1-0.2c0.8-0.2,1.5-0.7,1.7-1.6c0.1-0.4,0.1-0.9,0-1.3c-0.2-0.7-0.5-1.4-1.3-1.7c-0.2-0.1-0.5-0.2-0.7-0.2
				c-1-0.1-1.9,0-2.8,0C222.3,58.6,222.4,62,222.5,62.6z M222.4,56.3c0.7,0,1.3,0,1.9,0c0.4,0,0.7-0.1,1.1-0.2
				c1-0.4,1.4-1.2,1.2-2.4c-0.1-0.7-0.7-1.4-1.7-1.6c-0.1,0-0.3-0.1-0.4-0.1c-0.7-0.1-1.3-0.1-2,0C222.4,53.4,222.4,54.8,222.4,56.3
				z"/>
			<path class="st1" d="M243.1,56.8c-0.1,1.5-0.2,2.8-0.8,3.9c-0.8,1.7-2.2,2.9-4.1,3.2c-1.1,0.2-2.1,0.1-3.2-0.3
				c-1-0.4-1.7-1-2.2-1.9c-0.6-0.9-0.9-2-1-3.1c0-0.5-0.1-1-0.1-1.5c0.1-1.5,0.3-3.1,1.2-4.4c0.9-1.3,2.1-2.1,3.7-2.3
				c1-0.2,2-0.1,2.9,0.2c1.4,0.4,2.3,1.4,2.9,2.7c0.3,0.8,0.6,1.6,0.6,2.4C243,56.2,243.1,56.6,243.1,56.8z M241.3,57.2
				c0.1-1.5-0.2-2.4-0.5-3.1c-0.8-2-2.5-2.5-4.4-2.1c-1.3,0.3-2,1.3-2.5,2.5c-0.4,1.1-0.4,2.2-0.4,3.4c0,1,0.2,1.9,0.6,2.8
				c0.3,0.7,0.8,1.2,1.5,1.5c0.7,0.4,1.4,0.3,2.1,0.3c0.6,0,1.2-0.2,1.7-0.6c0.7-0.6,1.2-1.3,1.5-2.1
				C241.2,59,241.3,58.1,241.3,57.2z"/>
			<path class="st1" d="M212.7,58.5c-0.7,0-1.4,0-2.1,0c0,0.9,0,1.8,0,2.7c0,0.9,0,1.8,0,2.7c-0.6,0.1-1.1,0.2-1.6-0.1
				c0-4.4,0-8.8,0-13.2c0.2,0,0.3-0.1,0.5-0.1c1,0,2,0,3,0c0.7,0,1.5,0.1,2.2,0.3c1.3,0.4,2.1,1.2,2.4,2.6c0.3,1.3,0,2.4-0.7,3.5
				c-0.3,0.5-0.8,0.7-1.2,0.9c-0.2,0.1-0.4,0.2-0.7,0.4c0.9,1.9,1.9,3.8,3.1,5.5c-0.7,0.4-1.3,0.3-1.9,0c-0.2-0.1-0.3-0.3-0.4-0.4
				c-0.5-0.8-0.9-1.6-1.4-2.4C213.5,60.2,213.2,59.3,212.7,58.5z M210.7,57.1c0.9,0,1.7,0.1,2.5,0c0.7-0.1,1.3-0.4,1.7-1.1
				c0.5-0.8,0.5-1.7,0.3-2.6c-0.2-0.8-0.7-1.2-1.4-1.4c-1-0.3-2-0.2-3.1-0.2C210.7,53.7,210.7,55.4,210.7,57.1z"/>
			<path class="st1" d="M116.2,56.4c0-2,0-3.9,0-5.8c0.6-0.2,1.1-0.2,1.6,0.1c0,4.4,0,8.7,0,13.1c-0.5,0.3-1,0.2-1.6,0.1
				c0-0.3-0.1-0.5-0.1-0.8c0-1.5,0-3,0-4.5c0-0.2,0-0.5,0-0.7c-0.6-0.2-5.3-0.2-6,0c0,0.2,0,0.5,0,0.7c0,1.5,0,3,0,4.5
				c0,0.2,0,0.5,0,0.7c-0.6,0.1-1.1,0.2-1.6-0.1c0-4.4,0-8.7,0-13.1c0.5-0.3,0.7-0.3,1.6-0.1c0,0.2,0.1,0.5,0.1,0.7
				c0,1.4,0,2.9,0,4.3c0,0.2,0,0.5,0,0.8C112.1,56.5,114.1,56.4,116.2,56.4z"/>
			<path class="st1" d="M152.1,57.9c0,2,0,3.9,0,5.9c-0.6,0.1-1.1,0.2-1.6-0.1c0-4.4,0-8.7,0-13.1c0.5-0.3,1-0.2,1.6-0.1
				c0,0.3,0.1,0.5,0.1,0.8c0,1.4,0,2.9,0,4.3c0,0.2,0,0.5,0,0.7c0.5,0.2,4.8,0.2,6,0.1c0.1-0.6,0-1.2,0.1-1.9c0-0.7,0-1.3,0-2
				c0-0.6,0-1.3,0-1.9c0.6-0.2,1.1-0.2,1.6,0c0,4.4,0,8.8,0,13.1c-0.5,0.3-0.8,0.3-1.6,0.1c0-0.2-0.1-0.5-0.1-0.7c0-1.5,0-3,0-4.5
				c0-0.3,0-0.5,0-0.7C157.6,57.8,152.8,57.7,152.1,57.9z"/>
			<path class="st1" d="M171.1,60.5c-1.9,0-3.6,0-5.4,0c-0.2,0.5-0.4,1-0.5,1.6c-0.1,0.4-0.3,0.9-0.4,1.3c-0.2,0.5-0.3,0.6-0.8,0.6
				c-0.3,0-0.7,0-1.1-0.1c0.4-1,0.7-1.9,1-2.8c0.3-0.9,0.6-1.8,0.9-2.6c0.3-0.9,0.6-1.8,1-2.7c0.3-0.9,0.6-1.8,0.9-2.6
				c0.3-0.9,0.5-1.8,1-2.6c0.7,0,1.3-0.2,1.9,0.2c1.6,4.3,3.1,8.7,4.7,13.1c-0.7,0.3-1.3,0.2-1.9,0
				C171.9,62.7,171.5,61.6,171.1,60.5z M170.6,59c0-0.6-1.8-6.1-2.2-6.5c-0.7,2.2-1.4,4.3-2.2,6.5C167.7,59,169.1,59,170.6,59z"/>
			<path class="st1" d="M255.1,63.7c-0.6,0.3-1.1,0.3-1.9,0c-1-1.8-2-3.6-3.1-5.5c-1.1,1.9-2.1,3.7-3.1,5.4c-0.7,0.3-1.2,0.4-1.9,0
				c1.4-2.3,2.7-4.5,4.1-6.8c-1.2-2-2.4-4.1-3.6-6.1c0.4-0.4,1-0.3,1.4-0.2c0.4,0,0.6,0.4,0.7,0.7c0.7,1.3,1.4,2.6,2.1,3.8
				c0.1,0.2,0.2,0.3,0.4,0.6c0.4-0.6,0.7-1.1,1-1.7c0.5-0.8,1-1.7,1.4-2.6c0.5-0.9,1.1-1.1,2.2-0.7c-0.2,0.3-0.3,0.5-0.5,0.8
				c-1,1.7-2.1,3.4-3.1,5.1c-0.2,0.3-0.2,0.6,0,1c1.1,1.8,2.2,3.7,3.3,5.6C254.9,63.3,255,63.5,255.1,63.7z"/>
			<path class="st1" d="M123.6,57.8c0,1.7,0,3.2,0,4.7c0.7,0.2,1.4,0.1,2,0.1c0.7,0,1.3,0,2,0c0.7,0,1.3,0,2,0c0,0.5,0,0.9,0,1.3
				c-2.6,0-5.1,0-7.6,0c0-4.5,0-8.9,0-13.4c2.5,0,5,0,7.5,0c0,0.4,0,0.9,0,1.3c-1.9,0.1-3.9,0-5.7,0.1c-0.2,0.5-0.2,3.3-0.1,4.5
				c1.6,0.1,3.3,0,5,0.1c0,0.5,0,0.9,0,1.3C127,57.8,125.3,57.8,123.6,57.8z"/>
			<path class="st1" d="M199.5,62.6c2,0,3.9,0,5.9,0c0,0.5,0,0.9,0,1.3c-0.5,0.1-6.5,0.2-7.6,0c-0.1-0.5-0.1-12.3,0-13.3
				c0.5-0.1,6.5-0.1,7.5,0c0,0.2,0,0.4,0,0.6c0,0.2,0,0.4,0,0.6c-0.7,0.1-1.3,0.1-1.9,0.1c-0.7,0-1.3,0-2,0c-0.6,0-1.3,0-1.9,0
				c-0.2,0.5-0.2,3.6-0.1,4.5c1.6,0,3.3,0,4.9,0c0,0.5,0,0.9,0,1.4c-0.8,0-1.6,0-2.4,0c-0.8,0-1.6,0-2.4,0
				C199.3,58.3,199.3,61.7,199.5,62.6z"/>
			<path class="st1" d="M258,50.5c2.5,0,5,0,7.5,0c0,0.4,0,0.9,0,1.3c-1.9,0.1-3.9,0-5.7,0.1c-0.2,0.5-0.2,3.3-0.1,4.5
				c0.8,0.1,1.7,0,2.5,0c0.8,0,1.6,0,2.5,0c0,0.5,0,0.9,0,1.4c-0.9,0-1.7,0-2.5,0c-0.8,0-1.6,0-2.4,0c-0.2,0.6-0.2,4.1,0,4.7
				c0.6,0.1,1.3,0,1.9,0.1c0.7,0,1.3,0,2,0c0.7,0,1.3,0,2,0c0,0.5,0,0.9,0,1.3c-2.6,0-5.1,0-7.6,0C258,59.5,258,55,258,50.5z"/>
			<path class="st1" d="M268.5,62.8c0.2-0.4,0.4-0.7,0.7-1.1c0.4,0.2,0.8,0.4,1.2,0.5c0.6,0.2,1.2,0.4,1.8,0.4
				c0.8,0,1.6-0.2,2.3-0.8c0.8-0.7,0.7-2.1,0-2.8c-0.4-0.4-0.9-0.8-1.5-1.1c-0.7-0.3-1.4-0.6-2-1c-0.6-0.3-1.2-0.7-1.6-1.4
				c-0.8-1.3-0.6-2.8,0.3-3.9c1-1.2,2.4-1.6,4-1.4c0.8,0.1,1.5,0.3,2.2,0.7c0.1,0.1,0.2,0.1,0.3,0.2c-0.1,0.4-0.3,0.8-0.6,1
				c-0.1,0-0.3-0.1-0.4-0.1c-0.6-0.4-1.3-0.5-2-0.5c-0.5,0-1.1,0.1-1.6,0.4c-0.4,0.3-0.7,0.6-0.8,1.1c-0.2,0.7,0,1.4,0.7,1.9
				c0.4,0.3,0.7,0.5,1.1,0.7c0.9,0.5,1.8,0.8,2.6,1.4c1.1,0.7,1.6,1.8,1.6,3c-0.1,1.9-1.1,3.2-3.2,3.6c-1.5,0.3-3,0-4.4-0.6
				c-0.1-0.1-0.3-0.2-0.4-0.3C268.7,63.1,268.6,63,268.5,62.8z"/>
			<path class="st1" d="M146.5,62c0.3,0.3,0.5,0.7,0.5,1.1c-0.6,0.5-1.3,0.6-2.1,0.8c-0.3,0.1-0.6,0.1-1,0.1c-1.6,0-3.1-0.3-4.2-1.4
				c-0.7-0.8-1.2-1.7-1.4-2.7c-0.2-1-0.4-1.9-0.3-2.9c0.1-1.7,0.4-3.3,1.4-4.7c0.8-1,1.8-1.6,3.1-1.8c0.4-0.1,0.8-0.1,1.2-0.1
				c1.2,0.1,2.4,0.3,3.4,1c-0.1,0.4-0.2,0.8-0.6,1.1c-0.4-0.1-0.7-0.3-1.1-0.4c-0.9-0.3-1.8-0.3-2.6-0.1c-1.3,0.3-2.2,1.2-2.6,2.5
				c-0.3,0.8-0.4,1.7-0.4,2.5c0,1.1,0,2.1,0.4,3.2c0.5,1.3,1.3,2.1,2.7,2.4c0.8,0.2,1.7,0.1,2.5-0.2C145.8,62.2,146.1,62.1,146.5,62
				z"/>
			<path class="st1" d="M101.9,63.9c-0.6,0.1-1.1,0.2-1.7-0.1c0-4,0-7.9,0-11.9c-1.2-0.1-2.4,0-3.5-0.1c-0.2-0.4-0.2-0.8-0.1-1.2
				c0.5-0.1,7.2-0.2,8.8-0.1c0.2,0.4,0.3,0.8,0,1.3c-1.1,0-2.2,0-3.5,0c0,0.3-0.1,0.6-0.1,0.9c0,3.4,0,6.9,0,10.3
				C101.9,63.3,101.9,63.6,101.9,63.9z"/>
			<path class="st1" d="M178.8,51.9c-1.2,0-2.4,0-3.5,0c-0.2-0.5-0.2-0.9,0-1.3c0.5-0.1,7.6-0.2,8.8-0.1c0.2,0.4,0.3,0.9-0.1,1.3
				c-1.1,0-2.2,0-3.5,0c0,0.3-0.1,0.6-0.1,0.9c0,3.4,0,6.9,0,10.3c0,0.3,0,0.5,0,0.8c-0.6,0.1-1.1,0.2-1.6-0.1
				C178.8,59.8,178.8,55.9,178.8,51.9z"/>
			<path class="st1" d="M191.2,63.9c-0.6,0.1-1.1,0.2-1.7-0.1c0-3.9,0-7.8,0-11.8c-0.6-0.2-1.2-0.1-1.8-0.1c-0.6,0-1.2,0-1.7,0
				c-0.2-0.5-0.2-0.9-0.1-1.3c0.5-0.2,7-0.2,8.8-0.1c0.3,0.7,0.3,0.7,0,1.3c-1.1,0-2.3,0-3.5,0c0,0.3-0.1,0.6-0.1,0.9
				c0,3.4,0,6.9,0,10.3C191.2,63.3,191.2,63.6,191.2,63.9z"/>
			<path class="st1" d="M139.9,77.3c0.2,0,0.3,0,0.4,0c0.4,0,0.7,0.1,0.9,0.6c0.4,0.9,0.7,1.8,1.1,2.7c0.1,0.2,0.2,0.4,0.3,0.7
				c0.5-1.3,1-2.5,1.5-3.7c0.4-0.3,0.7-0.3,1.1-0.2c0,0.1,0.1,0.1,0.1,0.1c0.1,2,0.3,3.9,0.2,5.9c0,0,0,0.1-0.1,0.2
				c-0.2,0-0.5,0-0.8,0c-0.4-1.2-0.1-2.5-0.3-3.8c-0.5,0.8-0.7,1.8-1.2,2.7c-0.3,0-0.7,0-1,0c-0.5-0.9-0.7-1.8-1.3-2.8
				c-0.2,1.4,0.1,2.7-0.3,4c-0.3,0-0.5,0-0.8,0c-0.1-1,0-2.1,0.1-3.1C139.8,79.4,139.6,78.3,139.9,77.3z"/>
			<path class="st1" d="M157.6,83.4c-0.4,0.2-0.8,0.2-1.2,0c-0.2-0.5-0.4-0.9-0.5-1.3c-0.7,0-1.4,0-2.1,0c-0.2,0.4-0.3,0.8-0.5,1.3
				c-0.3,0.3-0.7,0.3-1.1,0.1c0.7-2,1.4-4,2.1-6c0.4-0.2,0.7-0.2,1.2,0C156.1,79.3,156.8,81.3,157.6,83.4z M154.1,81
				c0.5,0,0.9,0,1.4,0c-0.3-0.7-0.4-1.4-0.8-2.2C154.6,79.6,154.3,80.3,154.1,81z"/>
			<path class="st1" d="M196.4,83.6c-0.3-0.1-0.4-0.1-0.6-0.2c0-0.4,0.1-0.7,0.1-1c0.1-1.6,0.1-3.2,0.2-4.8c0-0.1,0-0.1,0.1-0.2
				c0.2-0.2,0.5-0.1,0.8,0c0.2,0.6,0.5,1.2,0.8,1.9c0.2,0.6,0.4,1.1,0.7,1.7c0.1,0.2,0.2,0.3,0.3,0.6c0.6-1.5,1.1-2.8,1.7-4.2
				c0.3,0,0.5,0,0.8,0c0,0.3,0,0.6,0,0.9c0.1,1.5,0.1,3,0.2,4.5c0,0.2,0,0.5,0,0.8c-0.2,0-0.4,0-0.6,0c-0.2-1.6,0.1-3.2-0.3-4.8
				c-0.5,1.2-0.9,2.4-1.4,3.7c-0.2,0-0.4,0-0.6,0c-0.6-1.2-0.9-2.4-1.7-3.5c0,0.1-0.1,0.2-0.1,0.4c0,0.7,0,1.4,0,2
				C196.5,82,196.4,82.7,196.4,83.6z"/>
			<path class="st1" d="M161.2,83.5c0-2.1,0-4.2,0-6.2c0.9-0.1,1.7-0.1,2.5,0.2c0.5,0.1,0.8,0.4,0.9,0.9c0,0.1,0.1,0.3,0.2,0.5
				c-0.2,0.4-0.4,0.8-0.7,1.3c0.1,0.1,0.2,0.2,0.4,0.3c0.5,0.4,0.7,0.9,0.6,1.6c-0.1,0.7-0.6,1.1-1.2,1.3
				C163,83.6,162.1,83.5,161.2,83.5z M162,82.9c0.5,0,0.9,0,1.3,0c0.6,0,1-0.5,1.1-1.1c0-0.5-0.4-1.1-0.9-1.2c-0.5-0.1-1-0.1-1.5,0
				C162,81.4,162,82.1,162,82.9z M162,80c0.2,0,0.3,0,0.5,0c1.2,0,1.6-0.4,1.5-1.6c-0.5-0.7-1.2-0.5-2-0.5C162,78.6,162,79.3,162,80
				z"/>
			<path class="st1" d="M188.4,82.1c0-1.6,0-3.1,0-4.7c0.2,0,0.4,0,0.5-0.1c0.2,0.2,0.2,4.8,0.1,6.1c-0.6,0.2-0.6,0.2-0.9-0.3
				c-0.7-1.1-1.3-2.2-2-3.3c-0.2-0.4-0.5-0.7-0.7-1.1c-0.1,0-0.1,0-0.1,0c0,0,0,0,0,0.1c0,1.5,0,3,0,4.6c-0.2,0.1-0.4,0.1-0.5,0.1
				c-0.1-0.1-0.1-0.2-0.1-0.2c0-0.1,0-0.3,0-0.4c0-1.7,0-3.4,0-5.1c0-0.1,0-0.3,0-0.4c0.6-0.1,0.7-0.1,0.9,0.3
				c0.5,0.9,1,1.7,1.6,2.6c0.4,0.6,0.8,1.2,1.1,1.8C188.3,82.1,188.3,82.1,188.4,82.1z"/>
			<path class="st1" d="M224.1,77.3c0.3,0,0.5,0,0.7,0c0.1,0.6,0.2,5.3,0,6.1c-0.2,0.2-0.4,0.2-0.7,0c-0.1-0.8,0-1.7-0.1-2.7
				c-0.9-0.1-1.8,0-2.8,0c0,0.9,0,1.8,0,2.7c-0.3,0-0.5,0-0.7,0c-0.1-0.6-0.2-5.3,0-6.1c0.2-0.2,0.4-0.2,0.7,0
				c0.1,0.8,0,1.7,0.1,2.7c0.9,0.1,1.8,0,2.8,0C224.1,79.1,224.1,78.2,224.1,77.3z"/>
			<path class="st1" d="M179.2,77.3c0.9-0.1,1.7,0,2.5,0.1c0.7,0.1,1.3,0.8,1.3,1.5c0,0.7-0.2,1.4-1,1.7c-0.1,0-0.2,0.1-0.3,0.2
				c0.4,0.9,0.9,1.7,1.4,2.5c-0.1,0.2-0.3,0.2-0.5,0.1c-0.2-0.2-0.4-0.3-0.6-0.6c-0.3-0.4-0.5-0.9-0.7-1.4c-0.1-0.2-0.3-0.4-0.4-0.7
				c-0.3,0-0.5,0-0.9,0c0,0.9,0,1.7,0,2.6c-0.3,0-0.5,0-0.8,0C179.2,81.4,179.2,79.3,179.2,77.3z M180.1,80.3c0.4,0,0.7,0,1,0
				c0.4,0,0.6-0.2,0.9-0.4c0.3-0.4,0.2-0.8,0.2-1.2c0-0.4-0.2-0.7-0.6-0.8c-0.5-0.2-1-0.3-1.5-0.1C180.1,78.6,180.1,79.4,180.1,80.3
				z"/>
			<path class="st1" d="M109,83.4c-0.3,0-0.5,0-0.7,0c-0.1-0.6-0.2-5.1-0.1-6.2c0.9-0.1,1.8-0.1,2.7,0.2c0.6,0.2,1,0.7,1,1.3
				c0.1,0.7-0.1,1.3-0.8,1.8c-0.1,0.1-0.3,0.2-0.5,0.3c0.4,0.9,0.9,1.7,1.4,2.5c-0.1,0.2-0.3,0.2-0.5,0.1c-0.2-0.1-0.4-0.3-0.6-0.6
				c-0.3-0.4-0.5-0.9-0.7-1.4c-0.1-0.2-0.3-0.4-0.4-0.7c-0.3,0-0.5,0-0.9,0C109.1,81.7,109,82.6,109,83.4z M109,77.8
				c0,0.4,0,0.8,0,1.2c0,0.4,0,0.8,0,1.3c0.4,0,0.7,0,1.1,0c0.3,0,0.6-0.1,0.8-0.4c0.4-0.3,0.3-0.8,0.3-1.2c0-0.5-0.2-0.7-0.7-0.9
				C110.1,77.8,109.6,77.7,109,77.8z"/>
			<path class="st1" d="M138.4,77.3c-0.3,0.6-0.6,1.1-0.8,1.6c-0.3,0.6-0.8,1.3-0.9,2c-0.2,0.7-0.1,1.4-0.1,2.1c0,0.1,0,0.2,0,0.3
				c-0.3,0.3-0.7,0.2-1.1,0.1c0-0.2-0.1-0.4-0.1-0.6c0.1-1.3-0.2-2.4-0.8-3.5c-0.4-0.6-0.6-1.3-0.9-1.9c0.8-0.3,1.1-0.2,1.4,0.5
				c0.3,0.6,0.6,1.3,1,2.1c0.5-0.9,0.8-1.8,1.2-2.5C137.6,77.2,138,77.2,138.4,77.3z"/>
			<path class="st1" d="M191.6,82.8c0.9,0,1.8,0,2.6,0c0,0.2,0,0.4,0.1,0.5c-0.2,0.2-2,0.2-3.4,0.1c-0.1-0.5-0.2-4.3-0.1-6.1
				c0.5-0.1,2.5-0.2,3.4,0c0,0.1,0,0.2,0,0.3c0,0.1,0,0.2,0,0.3c-0.4,0-0.8,0-1.3,0c-0.4,0-0.8,0-1.3,0c-0.1,0.7,0,1.4,0,2.1
				c0.8,0,1.5,0,2.2,0c0,0.3,0,0.4,0,0.7c-0.4,0-0.7,0-1,0c-0.4,0-0.7,0-1.1,0c-0.2,0.4-0.1,0.7-0.1,1
				C191.6,82.1,191.6,82.4,191.6,82.8z"/>
			<path class="st1" d="M103.9,77.3c0.7,0,0.7-0.1,0.9,0.5c0.6,1.7,1.3,3.5,1.9,5.3c0,0.1,0.1,0.3,0.1,0.4c-0.6,0.1-0.7,0.1-0.8-0.4
				c-0.1-0.2-0.1-0.4-0.2-0.6c-0.1-0.2-0.1-0.3-0.2-0.5c-0.5-0.2-1.8-0.2-2.7-0.1c-0.1,0.4-0.3,0.8-0.4,1.2
				c-0.1,0.4-0.3,0.4-0.8,0.3C102.5,81.4,103.1,79.3,103.9,77.3z M104.3,78.3c-0.3,0.4-1,2.3-1,2.9c0.7,0,1.3,0,2,0
				C105.1,80.2,104.6,78.6,104.3,78.3z"/>
			<path class="st1" d="M97.7,77.2c0.8,0.1,1.5,0.1,2.2,0.2c1,0.2,1.4,0.6,1.5,1.7c0.1,1-0.5,1.8-1.5,1.9c-0.4,0.1-0.9,0.1-1.4,0.1
				c-0.1,0.7,0,1.5-0.1,2.3c-0.2,0-0.4,0-0.6,0.1C97.6,82.9,97.6,78.2,97.7,77.2z M98.5,77.9c0,0.9,0,1.7,0,2.5
				c0.1,0,0.2,0.1,0.2,0.1c0.6,0.2,1.1,0.1,1.6-0.4c0.3-0.3,0.4-1.2,0.2-1.6c-0.2-0.3-0.4-0.6-0.8-0.6C99.4,77.9,99,77.9,98.5,77.9z
				"/>
			<path class="st1" d="M127,77.3c1.1,0,2.1,0,3.2,0c0,0.1,0.1,0.1,0.1,0.2c0,0.1,0,0.2,0,0.4c-0.8,0-1.6,0-2.4,0
				c-0.1,0.7-0.1,1.4,0,2.1c0.7,0,1.3,0,2,0c0,0.2,0.1,0.4,0.1,0.7c-0.7,0-1.4,0-2.1,0c0,0.9,0,1.8,0,2.7c-0.3,0-0.5,0-0.7,0
				C127,81.4,127,79.3,127,77.3z"/>
			<path class="st1" d="M114.6,77.9c-0.6,0-1.1,0-1.7,0c0-0.2,0-0.4,0-0.6c1.4,0,2.7,0,4.1,0c0,0.2,0,0.3,0.1,0.6
				c-0.6,0-1.1,0-1.7,0.1c0,0.6,0,1.2,0,1.8c0,0.6,0,1.2,0,1.8c0,0.6,0.1,1.2-0.1,1.9c-0.2,0-0.4,0-0.7,0
				C114.6,81.6,114.6,79.8,114.6,77.9z"/>
			<path class="st1" d="M217.5,83.4c-0.3,0-0.5,0-0.8,0c0-1.9,0-3.7,0-5.5c-0.6,0-1.1,0-1.7,0c0-0.3,0-0.4,0-0.7c1.4,0,2.7,0,4.1,0
				c0,0.2,0,0.3,0.1,0.6c-0.6,0-1.1,0-1.7,0.1c0,0.9,0,1.8,0,2.8C217.5,81.6,217.6,82.5,217.5,83.4z"/>
		</g>
	</g>
</g>
</svg>
