<?xml version="1.0" encoding="utf-8"?>
<!-- Generator: Adobe Illustrator 25.0.0, SVG Export Plug-In . SVG Version: 6.00 Build 0)  -->
<svg version="1.1" id="Layer_1" xmlns="http://www.w3.org/2000/svg" xmlns:xlink="http://www.w3.org/1999/xlink" x="0px" y="0px"
	 viewBox="0 0 296.4 157.6" style="enable-background:new 0 0 296.4 157.6;" xml:space="preserve">
<style type="text/css">
	.st0{fill:none;}
	.st1{fill:#FFFFFF;}
</style>
<rect y="0" class="st0" width="296.4" height="157.6"/>
<g>
	<path class="st1" d="M180.1,54.9c0,0.2,0,0.4,0,0.6c-0.2,6.3-0.3,12.6-0.5,18.9c0,1-0.3,1.4-1.3,1.5c-2.4,0.3-4.7,0.6-7.1,0.8
		c-0.9,0.1-1.5-0.4-1.5-1.4c0.2-3.3,0.3-6.6,0.5-9.9c0.2-4.1,0.4-8.2,0.6-12.4c0.4-7,0.7-14.1,1.1-21.1c0-0.8,0.4-1.2,1.2-1.3
		c1-0.2,1.7,0.1,2.4,1c5.7,8.2,11.4,16.4,17.1,24.6c0.1,0.2,0.3,0.4,0.5,0.7c0.5-1.3,1-2.4,1.4-3.6c3.3-8.5,6.7-16.9,10-25.4
		c0.4-1,1.7-1.5,2.7-1.1c0.6,0.2,0.7,0.7,0.8,1.2c0.9,3,1.7,6,2.6,9c3.1,10.8,6.2,21.5,9.4,32.3c0.3,1.1,0,1.7-1.2,1.8
		c-2.3,0.3-4.7,0.6-7.1,0.8c-0.9,0.1-1.4-0.2-1.6-1.2c-1.6-6.1-3.3-12.2-4.9-18.3c-0.1-0.2-0.1-0.4-0.3-0.8
		c-0.4,0.9-0.6,1.6-0.9,2.3c-2.4,6.4-4.9,12.9-7.3,19.3c-0.4,1-1,1.2-1.9,1.3c-0.8,0.1-1.3-0.2-1.8-0.9c-4.2-6.2-8.4-12.4-12.6-18.6
		c-0.1-0.1-0.2-0.2-0.3-0.4C180.2,54.9,180.2,54.9,180.1,54.9z"/>
	<path class="st1" d="M104.3,59.2c0.2,1.7,0.4,3.3,0.5,4.9c0.4,3.2,0.8,6.4,1.1,9.6c0.3,2.8,0.7,5.6,1,8.4c0,0.3,0.1,0.6,0.1,0.9
		c0,0.8-0.3,1.3-1.1,1.4c-2.5,0.3-5,0.6-7.5,0.9c-0.7,0.1-1.3-0.4-1.4-1.3c-0.3-2.2-0.5-4.5-0.8-6.7c-0.8-6.9-1.6-13.8-2.5-20.8
		c-0.6-4.9-1.2-9.8-1.7-14.8c-0.1-1.1,0.2-1.5,1.3-1.6c0.8-0.1,1.5-0.1,2.2,0.5c9,6.9,18,13.7,27,20.5c0.1,0.1,0.2,0.1,0.5,0.3
		c-0.1-0.8-0.1-1.4-0.2-2c-0.5-4.3-1-8.7-1.5-13c-0.3-2.5-0.6-5-0.9-7.4c-0.1-0.9,0.3-1.4,1.4-1.5c2-0.2,4.1-0.5,6.1-0.7
		c0.4,0,0.7-0.1,1.1-0.1c0.9-0.1,1.4,0.3,1.5,1.2c0.3,2.7,0.6,5.4,0.9,8c0.6,5.5,1.3,11.1,1.9,16.6c0.7,5.9,1.4,11.9,2.1,17.8
		c0.1,0.8-0.3,1.3-1.1,1.5c-1,0.2-1.8-0.1-2.5-0.7c-9-7.1-17.9-14.3-26.9-21.4C104.7,59.5,104.6,59.4,104.3,59.2z"/>
	<path class="st1" d="M144.3,44.3c0.3,2.6,0.6,5.2,0.9,7.8c0.3,0,0.5,0,0.8,0c4.4-0.5,8.9-1,13.3-1.5c1.3-0.1,1.7,0.2,1.8,1.4
		c0.2,2,0.5,4.1,0.7,6.1c0.1,1.1-0.2,1.6-1.4,1.7c-4.5,0.5-9.1,1.1-13.6,1.6c-0.4,0-0.6,0.1-0.5,0.5c0.3,2.7,0.6,5.3,1,8
		c0,0,0,0.1,0.1,0.2c1.9-0.2,3.9-0.5,5.9-0.7c3.8-0.4,7.7-0.9,11.5-1.3c0.8-0.1,1.4,0.3,1.5,1.1c0.3,2.3,0.6,4.6,0.8,6.9
		c0.1,0.7-0.4,1.2-1.2,1.3c-3.5,0.4-7.1,0.8-10.6,1.2c-5.1,0.6-10.2,1.2-15.3,1.8c-1.1,0.1-1.5-0.2-1.7-1.3
		c-0.8-6.7-1.6-13.5-2.4-20.2c-0.8-6.6-1.5-13.1-2.3-19.7c-0.1-0.6-0.1-1.2-0.2-1.8c-0.1-0.9,0.3-1.4,1.2-1.5c3-0.4,6.1-0.7,9.1-1.1
		c5.5-0.6,11-1.3,16.5-1.9c1.4-0.2,1.9,0.2,2,1.6c0.2,2,0.5,4,0.7,6c0.1,1.1-0.2,1.6-1.4,1.7c-5.5,0.6-10.9,1.3-16.4,1.9
		C145,44.2,144.7,44.2,144.3,44.3z"/>
	<path class="st1" d="M62.3,90c-11.7-0.1-21.5-8.7-22.9-20.2c-1.5-12.1,6.5-23.3,18.5-25.5c6.3-1.2,12.3-0.2,17.6,3.6
		c1,0.7,1.1,1.3,0.4,2.2c-1.3,1.7-2.6,3.5-3.9,5.2c-0.7,0.9-1.1,0.9-2,0.3c-4.1-2.6-8.3-3-12.7-1c-3.7,1.7-5.9,4.7-6.7,8.6
		c-1.2,5.6,0.3,10.4,4.9,13.9c4.1,3.1,8.6,3.2,13.2,1.1c1.4-0.6,2.7-1.6,3.8-2.7c0.6-0.6,1.2-0.6,1.9-0.1c1.8,1.5,3.5,3,5.3,4.4
		c0.7,0.6,0.8,1.3,0.1,2c-3.4,4-7.7,6.5-12.9,7.5C65.2,89.7,63.8,89.8,62.3,90z"/>
	<path class="st1" d="M256.9,66.8c-0.9,0.1-1.5-0.4-2-1.2c-0.9-1.5-1.8-2.9-2.7-4.4c-0.2-0.4-0.5-0.6-1-0.5
		c-5.1,0.6-10.1,1.2-15.2,1.7c-1.2,0.1-1.8,0.5-2,1.7c-0.3,1.3-0.8,2.6-1.2,3.8c-0.3,1.1-1,1.7-2.2,1.8c-2.2,0.3-4.5,0.5-6.7,0.8
		c-1.3,0.1-1.8-0.5-1.4-1.8c3.9-11.8,7.8-23.6,11.7-35.4c1-3,2-6.1,3-9.1c0.2-0.8,0.7-1.1,1.5-1.2c0.8-0.1,1.2,0.3,1.6,0.9
		c7.2,11.7,14.4,23.3,21.6,35c1,1.6,2,3.3,3,4.9c0.7,1.1,0.3,1.8-0.9,2C261.7,66.3,259.3,66.5,256.9,66.8z M237.4,53.7
		c3.3-0.4,6.5-0.8,9.7-1.1c-2.1-3.4-4-6.6-6.1-10C239.7,46.3,238.6,49.9,237.4,53.7z"/>
	<path class="st1" d="M158.3,129.5c-0.9,0-1.5-0.4-1.9-1.1c-0.9-1.5-1.8-2.9-2.7-4.4c-0.3-0.5-0.6-0.6-1.2-0.6
		c-5.2,0.6-10.4,1.2-15.7,1.8c-0.7,0.1-1,0.3-1.2,1c-0.4,1.5-0.9,3-1.4,4.5c-0.3,1-1,1.6-2.1,1.8c-2.3,0.3-4.7,0.6-7.1,0.8
		c-1,0.1-1.5-0.6-1.2-1.6c1-3,2-5.9,2.9-8.9c3.3-10.1,6.7-20.3,10-30.4c0.6-1.8,1.2-3.5,1.7-5.3c0.3-0.8,0.7-1.3,1.6-1.3
		c0.8-0.1,1.3,0.3,1.6,1c3.5,5.7,7,11.5,10.6,17.2c4.7,7.6,9.3,15.1,14,22.7c0.6,1,0.4,1.8-0.7,2C163.2,129,160.7,129.2,158.3,129.5
		z M142.4,105.2c-1.2,3.8-2.4,7.4-3.6,11.2c3.3-0.4,6.5-0.8,9.7-1.1C146.4,111.8,144.5,108.6,142.4,105.2z"/>
	<path class="st1" d="M178.3,117.7c2.5-0.3,4.8-0.6,7.2-0.8c2.5-0.3,5.1-0.6,7.6-0.9c1.2-0.1,1.6,0.2,1.8,1.5c0.2,2,0.5,4.1,0.7,6.1
		c0.1,1.1-0.2,1.6-1.3,1.7c-3.1,0.4-6.2,0.7-9.3,1.1c-4.7,0.5-9.4,1.1-14.1,1.7c-1,0.1-1.5-0.3-1.6-1.2c-0.8-6.9-1.6-13.9-2.4-20.8
		c-0.8-6.9-1.6-13.9-2.5-20.8c-0.1-0.9,0.3-1.5,1.2-1.6c2.4-0.3,4.7-0.6,7.1-0.8c1.1-0.1,1.5,0.3,1.6,1.4c1.1,9.4,2.2,18.7,3.3,28.1
		C177.8,113.9,178,115.8,178.3,117.7z"/>
	<path class="st1" d="M207.1,114.3c1.1-0.1,2.1-0.2,3.1-0.3c3.9-0.5,7.9-0.9,11.8-1.4c1-0.1,1.5,0.3,1.6,1.3
		c0.2,2.1,0.5,4.3,0.8,6.4c0.1,1-0.3,1.5-1.2,1.6c-5.2,0.6-10.4,1.2-15.6,1.8c-2.5,0.3-5,0.6-7.4,0.9c-1.5,0.2-1.9-0.1-2.1-1.6
		c-0.9-7.4-1.7-14.7-2.6-22.1c-0.8-6.4-1.5-12.8-2.2-19.3c-0.1-0.8,0.3-1.3,1.2-1.4c2.4-0.3,4.9-0.6,7.3-0.9c1-0.1,1.4,0.3,1.6,1.4
		c0.3,2.8,0.6,5.6,1,8.4c0.9,7.8,1.8,15.5,2.7,23.3C207,113,207,113.6,207.1,114.3z"/>
	<path class="st1" d="M93.9,84.4c0.1,0.9-0.3,1.4-1.2,1.5c-2.4,0.3-4.8,0.6-7.2,0.8c-1,0.1-1.5-0.3-1.6-1.3
		C83,78.3,82.2,71.1,81.4,64c-0.8-6.6-1.5-13.2-2.3-19.8c-0.2-1.4,0.1-1.8,1.6-2c2.2-0.3,4.5-0.5,6.7-0.8c1.1-0.1,1.6,0.2,1.7,1.3
		c0.7,5.9,1.4,11.8,2.1,17.8c0.7,5.8,1.4,11.7,2.1,17.5C93.4,80.1,93.7,82.3,93.9,84.4z"/>
	<path class="st1" d="M116.4,107c1.8,2.4,3.5,4.8,5.2,7.1c0.7,0.9,1.4,1.9,2.1,2.8c0.4,0.6,0.3,0.8-0.4,0.9
		c-0.9,0.2-1.5-0.1-2.1-0.9c-2.1-3.1-4.3-6.1-6.5-9.1c-0.1-0.2-0.5-0.4-0.7-0.4c-2.8,0.3-5.5,0.6-8.3,1c-0.1,0-0.3,0.1-0.5,0.1
		c0.2,1.5,0.3,2.9,0.5,4.4c0.2,2,0.5,4,0.7,6c0.1,0.7,0,0.8-1,1c-0.6,0.1-0.8-0.2-0.9-0.7c-0.7-5.7-1.3-11.3-2-17
		c-0.4-3.5-0.8-6.9-1.2-10.4c-0.1-0.9,0-1,0.8-1.1c3.4-0.4,6.9-0.8,10.3-1.2c5.2-0.5,9.6,3.2,10,8.3c0.3,3.5-1.9,7.1-5.2,8.7
		C116.9,106.7,116.7,106.8,116.4,107z M104.9,106.8c0.2,0,0.2,0,0.3,0c2.9-0.3,5.9-0.6,8.8-1c4.3-0.6,7.2-4.8,6.1-8.9
		c-0.9-3.5-4.4-5.8-8.2-5.4c-1.8,0.2-3.5,0.4-5.3,0.6c-1.1,0.1-2.2,0.3-3.4,0.4C103.8,97.3,104.3,102,104.9,106.8z"/>
	<path class="st1" d="M99.9,107.7c0.1,8.1-6.6,14.9-14.8,15c-8.6,0.1-15.4-6.4-15.5-14.9c-0.1-8.4,6.5-15.2,15-15.3
		C92.9,92.3,99.9,99,99.9,107.7z M84.6,120.8c7.4,0,13.4-5.9,13.4-13.2c0-7.3-6-13.4-13.2-13.4c-7.4,0-13.4,5.9-13.4,13.2
		C71.4,114.9,77.3,120.8,84.6,120.8z"/>
	<path class="st1" d="M51.6,98.4c0.5,4.2,1,8.4,1.5,12.7c0.7-0.1,1.4-0.2,2.1-0.2c3.6-0.4,7.2-0.8,10.8-1.3c0.7-0.1,0.9,0.1,1,0.8
		c0,0.5-0.1,0.8-0.7,0.9c-3.1,0.3-6.1,0.7-9.1,1c-1.3,0.1-2.5,0.3-3.8,0.5c0.2,1.5,0.3,2.9,0.5,4.3c0.3,2.5,0.6,5.1,0.8,7.6
		c0,0.3-0.1,0.8-0.2,0.9c-0.4,0.2-0.9,0.2-1.3,0.1c-0.1,0-0.3-0.5-0.3-0.7c-0.4-3.5-0.8-7-1.2-10.5c-0.6-5.5-1.3-11-1.9-16.5
		c0-0.1,0-0.2,0-0.3c-0.1-0.9,0-1,0.9-1.1c2.7-0.3,5.4-0.6,8-0.9c2.6-0.3,5.1-0.6,7.7-0.9c0.9-0.1,1.1,0,1.2,0.8
		c0.1,0.8,0,0.9-0.8,1c-4.7,0.5-9.5,1.1-14.2,1.6C52.1,98.3,51.9,98.4,51.6,98.4z"/>
</g>
</svg>
