<?xml version="1.0" encoding="utf-8"?>
<!-- Generator: Adobe Illustrator 24.3.0, SVG Export Plug-In . SVG Version: 6.00 Build 0)  -->
<svg version="1.1" id="Layer_1" xmlns="http://www.w3.org/2000/svg" xmlns:xlink="http://www.w3.org/1999/xlink" x="0px" y="0px"
	 viewBox="0 0 296.4 157.6" style="enable-background:new 0 0 296.4 157.6;" xml:space="preserve">
<style type="text/css">
	.st0{fill:none;}
	.st1{fill:#FFFFFF;}
</style>
<rect class="st0" width="296.4" height="157.6"/>
<g>
	<path class="st1" d="M113.3,84.7c1.4,0.7,3,1.1,4.7,1.1c10.1,0,12.4-12.2,6.4-15.8c-1.5,2-3,4-4.5,6.1
		C117.5,79.3,115.3,82.2,113.3,84.7z"/>
	<path class="st1" d="M121.5,63.4c-7.1,0.4-9.8,3.2-9.8,3.2l-0.1,0.1l-0.1,0.1c-2.4,2.1-3.8,5.1-3.8,8.2c0,3.8,1.8,7.1,4.6,9.1
		c2-2.6,4.3-5.6,6.6-8.7c1.4-1.9,2.9-3.9,4.4-5.9c0,0-0.1,0-0.1,0c-3.4-1.2-6.8-0.4-10.1,3l-0.9-0.7c2.9-3.2,6.8-4.9,11.5-3.6
		c0.2,0,0.3,0.1,0.5,0.2c1.4-1.8,2.7-3.6,4.1-5.3C126.1,63.1,123.8,63.2,121.5,63.4z"/>
	<path class="st1" d="M148.9,15.7c-33.2,0-60.1,26.9-60.1,60.1c0,3,0.2,6,0.7,8.9c0.1-0.1,0.1-0.2,0.2-0.3c0,0,0,0,0-0.1
		c0-0.1,0.1-0.1,0.1-0.2c0-0.1,0.1-0.1,0.1-0.2c0,0,0,0,0,0l0,0c0.8-1.1,2.2-1.9,3.7-1.9c2.5,0,4.6,2,4.6,4.6c0,2.5-2,4.6-4.6,4.6
		c-1.2,0-2.4-0.5-3.2-1.3c0,0,0,0,0,0.1c0.8,2.1,2.6,3.7,4.8,4.2c5.7,1.3,9.1-1.1,11.9-3.9c0.6-0.6,1.3-1.4,2.1-2.3
		c-3.9-2.8-6.5-7.5-6.5-12.8c0-4.6,2-8.9,5.4-11.9c0.7-0.7,3.4-3.1,9-4.1c4.3-0.8,9.7-0.5,14.7-0.5c5.1-5.8,10.1-9.7,14.2-8.9
		c1.7,0.3,2.6,1.7,2.6,3.5c0,0.4-0.1,0.9-0.2,1.3c-2.5,6.9-9.7,7.9-18.7,8.4l0,0c-1.5,1.9-3,3.9-4.5,5.9c3,1.5,5,4.5,5.5,7.9
		c0.2-0.7,0.4-1.4,0.7-2.1c0.6-1.4,1.4-2.6,2.5-3.7c1-1,2.3-1.9,3.7-2.5c1.4-0.6,2.9-0.9,4.5-0.9c1.6,0,3.1,0.3,4.5,0.9
		c1.4,0.6,2.6,1.4,3.7,2.5c1,1,1.9,2.3,2.5,3.7c0.2,0.5,0.3,0.9,0.5,1.4c0.1-0.5,0.3-0.9,0.5-1.4c0.6-1.4,1.4-2.6,2.5-3.7
		c1-1,2.3-1.9,3.7-2.5c1.4-0.6,2.9-0.9,4.5-0.9c1.6,0,3.3,0.4,4.9,1.3c0.7,0.4,1.4,0.8,2,1.2V61h4.6v14.3c0.1-0.2,0.1-0.4,0.2-0.6
		c0.6-1.4,1.4-2.6,2.5-3.7c1-1,2.3-1.9,3.7-2.5c1.4-0.6,2.9-0.9,4.5-0.9c1.6,0,3.1,0.3,4.5,0.9c1.4,0.6,2.6,1.4,3.7,2.5
		c1,1,1.9,2.3,2.5,3.7c0.6,1.4,0.9,2.9,0.9,4.5v10.6h-4.6v-1.4c-0.7,0.5-1.5,1-2.4,1.4c-1.4,0.6-2.9,0.9-4.5,0.9
		c-1.6,0-3.1-0.3-4.5-0.9c-1.4-0.6-2.6-1.4-3.7-2.5c-1-1-1.9-2.3-2.5-3.7c-0.2-0.6-0.4-1.1-0.6-1.7c-0.1,0.6-0.3,1.2-0.6,1.7
		c-0.6,1.4-1.4,2.6-2.5,3.7c-1,1-2.3,1.9-3.7,2.5c-1.4,0.6-2.9,0.9-4.5,0.9c-1.6,0-3.1-0.3-4.5-0.9c-1.4-0.6-2.6-1.4-3.7-2.5
		c-1-1-1.9-2.3-2.5-3.7c-0.2-0.5-0.3-0.9-0.5-1.4c-0.1,0.5-0.3,0.9-0.5,1.4c-0.6,1.4-1.4,2.6-2.5,3.7c-1,1-2.3,1.9-3.7,2.5
		c-1.4,0.6-2.9,0.9-4.5,0.9c-1.6,0-3.1-0.3-4.5-0.9c-1.4-0.6-2.6-1.4-3.7-2.5c-1-1-1.9-2.3-2.5-3.7c-0.4-0.9-0.6-1.8-0.8-2.7
		c-0.6,3-2.5,6-5.8,8.1c-1.8,1-3.9,1.7-6.9,1.7c-2.9,0-5.5-0.8-7.8-2.1c-0.8,1-1.6,1.8-2.2,2.5c-2.4,2.3-5.3,4.6-9.7,4.6
		c-1,0-2.1-0.1-3.3-0.4c-1.3-0.3-2.6-1-3.6-1.9c7.5,24.7,30.4,42.6,57.5,42.6c33.2,0,60.1-26.9,60.1-60.1
		C209,42.6,182.1,15.7,148.9,15.7z"/>
	<path class="st1" d="M147.6,53.4c0.1-0.8-0.1-2.2-1.6-2.5c-3.4-0.7-7.8,2.7-12.3,7.7C140.6,58.6,146.6,57.9,147.6,53.4z"/>
	<path class="st1" d="M139.4,85.5c0.8,0.4,1.7,0.5,2.7,0.5c0.9,0,1.8-0.2,2.7-0.5c0.8-0.4,1.6-0.9,2.2-1.5c0.6-0.6,1.1-1.4,1.5-2.2
		c0.4-0.8,0.5-1.7,0.5-2.7c0-0.9-0.2-1.8-0.5-2.7c-0.4-0.8-0.9-1.6-1.5-2.2c-0.6-0.6-1.4-1.1-2.2-1.5c-0.8-0.4-1.7-0.5-2.7-0.5
		c-0.9,0-1.8,0.2-2.7,0.5c-0.8,0.4-1.6,0.9-2.2,1.5c-0.6,0.6-1.1,1.4-1.5,2.2c-0.4,0.8-0.5,1.7-0.5,2.7c0,0.9,0.2,1.8,0.5,2.7
		c0.4,0.8,0.9,1.6,1.5,2.2C137.8,84.6,138.6,85.1,139.4,85.5z"/>
	<path class="st1" d="M183.9,85.5c0.8,0.4,1.7,0.5,2.7,0.5c0.9,0,1.8-0.2,2.7-0.5c0.8-0.4,1.6-0.9,2.2-1.5c0.6-0.6,1.1-1.4,1.5-2.2
		c0.3-0.7,0.5-1.5,0.5-2.4v-0.3c0-0.9-0.2-1.8-0.5-2.7c-0.4-0.8-0.9-1.6-1.5-2.2c-0.6-0.6-1.4-1.1-2.2-1.5c-0.8-0.4-1.7-0.5-2.7-0.5
		c-0.9,0-1.8,0.2-2.7,0.5c-0.8,0.4-1.6,0.9-2.2,1.5c-0.6,0.6-1.1,1.4-1.5,2.2c-0.4,0.8-0.5,1.7-0.5,2.7c0,0.9,0.2,1.8,0.5,2.7
		c0.4,0.8,0.9,1.6,1.5,2.2C182.3,84.6,183.1,85.1,183.9,85.5z"/>
	<path class="st1" d="M161.6,85.5c0.8,0.4,1.7,0.5,2.7,0.5c0.9,0,1.8-0.2,2.7-0.5c0.8-0.4,1.6-0.9,2.2-1.5c0.6-0.6,1.1-1.4,1.5-2.2
		c0.4-0.8,0.5-1.7,0.5-2.7c0-0.9-0.2-1.8-0.5-2.7c-0.4-0.8-0.9-1.6-1.5-2.2c-0.6-0.6-1.4-1.1-2.2-1.5c-0.8-0.4-1.7-0.5-2.7-0.5
		c-0.9,0-1.8,0.2-2.7,0.5c-0.8,0.4-1.6,0.9-2.2,1.5c-0.6,0.6-1.1,1.4-1.5,2.2c-0.4,0.8-0.5,1.7-0.5,2.7c0,0.9,0.2,1.8,0.5,2.7
		c0.4,0.8,0.9,1.6,1.5,2.2C160,84.6,160.7,85.1,161.6,85.5z"/>
</g>
</svg>
