<?xml version="1.0" encoding="utf-8"?>
<!-- Generator: Adobe Illustrator 25.3.1, SVG Export Plug-In . SVG Version: 6.00 Build 0)  -->
<svg version="1.1" id="Layer_1" xmlns="http://www.w3.org/2000/svg" xmlns:xlink="http://www.w3.org/1999/xlink" x="0px" y="0px"
	 viewBox="0 0 296.4 157.6" style="enable-background:new 0 0 296.4 157.6;" xml:space="preserve">
<style type="text/css">
	.st0{fill:#FFFFFF;}
</style>
<g>
	<path class="st0" d="M107.6,76.8h-0.6v6.8h0.6c2.4,0,3.3-0.8,3.3-3.3C110.9,77.9,110,76.8,107.6,76.8z"/>
	<path class="st0" d="M126.1,48.8c-1.7,0-2.1,1.5-2.1,3.8v8.9c0,2.3,0.4,3.8,2.1,3.8c1.7,0,2.1-1.5,2.1-3.8v-8.9
		C128.2,50.3,127.8,48.8,126.1,48.8z"/>
	<path class="st0" d="M188.4,18.9H93.6c-2.5,0-4.6,2.1-4.6,4.6v94.8c0,2.5,2.1,4.6,4.6,4.6h94.8c2.5,0,4.6-2.1,4.6-4.6V23.5
		C193,20.9,190.9,18.9,188.4,18.9z M157.8,44.3h5.9v25.5h-5.9V44.3z M135.6,44.3h7.6l2.7,12.9h0.2l2.4-12.9h7.5v25.5h-5.5V55.2h-0.2
		l-2.8,14.5h-3.7l-2.9-14.5h-0.2v14.5h-5.2V44.3z M100.8,55.3c0-7.3,2.3-11.3,8.2-11.3c5.8,0,7.7,4.2,7.7,10.1v1.2h-5.8v-2.7
		c0-2.3-0.3-3.7-2-3.7c-1.7,0-2,1.5-2,3.7v9h0c0,2.3,0.3,3.7,2,3.7c1.7,0,2-1.5,2-3.7v-2.7h5.8V60c0,5.9-1.9,10.1-7.7,10.1
		c-5.9,0-8.2-4-8.2-11.3V55.3z M111,97.5c-0.3-1-0.4-2.5-0.6-5.5c-0.1-2.4-0.7-3.7-2.6-3.7h-0.8v9.2h-5.9V72h7.3
		c5.7,0,8.2,3,8.2,7.5c0,4-1.8,6-4.4,6.4c2.7,0.6,3.6,2.5,3.8,5.7c0.2,3.3,0.2,4.6,0.7,5.8H111z M131,76.9h-7.1v5.2h5.3V87h-5.3v5.6
		h7.1v4.9h-12.9V72H131V76.9z M126.1,70.1c-5.9,0-8.2-4.2-8.2-11.5v-3.2c0-7.3,2.3-11.5,8.2-11.5c5.9,0,8.2,4.2,8.2,11.5v3.2
		C134.3,65.9,132,70.1,126.1,70.1z M145.2,97.5h-12.8V72h5.9v20.6h6.9V97.5z M152.3,97.5h-5.9V72h5.9V97.5z M167,76.9h-7.1v5.2h5.3
		V87h-5.3v5.6h7.1v4.9h-12.9V72H167V76.9z M180.7,76.9h-6.5v5.9h4.7v4.8h-4.7v9.9h-5.9V72h12.4V76.9z M181.1,55.2h-5.8v-2.7
		c0-2.3-0.3-3.7-2-3.7c-1.7,0-2,1.5-2,3.7v9c0,2.3,0.3,3.7,2,3.7c1.7,0,2-1.5,2-3.7v-2.7h5.8V60c0,5.9-1.9,10.1-7.7,10.1
		c-5.9,0-8.2-4-8.2-11.3v-3.5c0-7.3,2.3-11.3,8.2-11.3c5.8,0,7.7,4.2,7.7,10.1V55.2z"/>
</g>
</svg>
