<?xml version="1.0" encoding="utf-8"?>
<!-- Generator: Adobe Illustrator 24.3.0, SVG Export Plug-In . SVG Version: 6.00 Build 0)  -->
<svg version="1.1" id="Layer_1" xmlns="http://www.w3.org/2000/svg" xmlns:xlink="http://www.w3.org/1999/xlink" x="0px" y="0px"
	 viewBox="0 0 296.4 157.6" style="enable-background:new 0 0 296.4 157.6;" xml:space="preserve">
<style type="text/css">
	.st0{fill:none;}
	.st1{fill:#FFFFFF;}
	.st2{opacity:0.62;fill:#FFFFFF;}
</style>
<rect class="st0" width="296.4" height="157.6"/>
<g>
	<path class="st1" d="M181.6,77.6c-0.4,0.9-0.7,1.8-1.1,2.7c-1.4,1.2-3.3,2-3.6,4.5c-1,0.7-2.2,1.5-3.3,2.4c-1.6,1.2-3,2.7-4.8,3.6
		c-3.6,1.9-7.3,4-11.6,4.3c-1.8,0.1-3.6,0.7-5.4,1c-0.7,0.1-1.3,0.2-2,0.1c-3.6-0.5-7.2-1.1-10.8-1.6c-0.5-0.1-1,0-1.1,0
		c-1.5-0.7-2.6-1.3-3.7-1.7c-3-1.3-5.9-2.8-8.4-5c-1.6-1.3-3.3-2.5-4.8-4c-1.7-1.7-3.2-3.7-4.7-5.6c-0.9-1.2-1.8-2.3-2.1-3.9
		c-0.2-1.1-0.9-1.5-2.1-1.8c0.3-0.3,0.5-0.6,0.8-0.9c-0.3-0.5-0.7-1-1-1.6c-0.2,0.2-0.4,0.3-0.6,0.5c-1-1.1-0.1-2,0.3-3.1
		c-1-3.2-1.3-6.6-0.8-10.3c-0.1-0.1-0.5-0.3-1.1-0.7c0.7-0.2,1-0.3,1.5-0.5c-0.2-0.3-0.2-0.6-0.4-0.8c-0.2-0.2-0.4-0.4-0.5-0.6
		c0.3-0.8,0.6-1.6,0.9-2.4c-0.2-0.4-0.4-0.8-0.6-1.3c0.5-0.8,1-1.7,1.6-2.7c-0.1-0.1-0.3-0.5-0.5-1c1.5-3.1,3-6.3,4.6-9.5
		c0.5-1,1.4-1.9,2.2-2.8c1.8-2.2,3.1-4.7,5.4-6.5c0.5-0.4,1-0.9,1.6-1.2c3-1.8,5.9-3.5,9.1-5.4c3.2-0.5,6.6-1,10-1.4
		c2.4-0.3,4.8-0.6,7.2,0c0.9,0.2,1.9,0.2,2.8,0.2c1.6-0.1,3,0.5,4.5,1c0.9,0.3,1.9,0.2,3,0.3c0.8,1,1.9,1.7,3.3,1.2
		c0.7,0.7,1.4,1.3,2,1.9c1.2-0.4,1.8,0.2,2.7,0.8c2.2,1.5,3.3,4.1,5.6,5.5c0.8,0.5,1.1,1.6,1.7,2.3c1,1.1,1.6,2.7,3.1,3.5
		c0.5,0.3,0.8,1.1,1.2,1.7c-0.3,0.2-0.5,0.3-0.8,0.5c0.3,0.9,1.2,1.9,0.1,2.9c-0.8,1-1,2.1-0.5,3.3c-0.6,0.1-1,0.1-1.3,0.1
		c-0.8,0.9-1.6,1.7-2.2,2.4c-1.3-0.4-1.8-1.2-2.3-2c-0.6-1-1.2-2.1-1.8-3.1c-2.6-4.5-6.3-7.9-10.9-10.2c-3-1.5-6.3-2.2-9.6-2.7
		c-3.8-0.6-7.4-0.2-11,0.6c-2.1,0.5-4.1,1.1-6,2.2c-3.9,2.2-7.6,4.7-9.8,8.8c-1,1.8-1.9,3.7-3,5.5c-0.7,1.2-1.1,2.4-1.1,3.8
		c0,1.2,0.1,2.5-0.3,3.5c-0.7,1.6-0.5,3.2-0.5,4.8c0,0.4,0.1,0.9,0,1.3c-0.2,1.2-0.1,2.2,0.8,3.1c-0.6,1.3,0,2.4,0.4,3.5
		c0.6,1.4,1.2,2.7,1.8,4.1c0.6,1.2,1.3,2.5,2.1,3.6c0.7,1,1.4,1.9,2.2,2.8c1.7,1.8,3.1,3.9,5.8,4.2c0.1,0,0.3,0.1,0.4,0.2
		c1.5,1.5,3.5,2.2,5.4,2.9c1.8,0.7,3.7,1.1,5.6,1.4c1.2,0.2,2.4,0,3.3,0c0.7,0.7,1.2,1.1,1.4,1.3c1.6-0.6,3.1-1.1,4.6-1.6
		c1.9,0.9,3.6,0.2,5.4-0.6c0.8-0.4,1.8-0.4,2.2-0.5c1.8-1.1,3.3-2,4.7-2.9c-0.2-0.5-0.4-0.9-0.6-1.3c0.7-1.1,1.7-0.8,2.6-0.7
		c0.9-0.5,1.8-0.9,2.7-1.3c-0.1-0.1-0.1-0.1-0.2-0.2c1.1-1.2,2.1-2.4,3.5-4c-2,0.3-2.4,2.2-4.1,2.6c1.3-1.7,2.2-3.3,3.9-4.3
		c0.4-0.2,0.8-0.7,1-1.2c0.6-1.5,1.5-2.8,2-4.4c0.6-1.9,1.2-3.6,1.2-5.6c0-0.9,0.6-1.7,1-2.7c1,0.2,1.8,0.4,2.6,0.6
		c0.7,2.3-1.2,3.8-1.4,5.8c-0.2,1.9-1.2,3.8-1.8,5.7c0.4,0.2,0.7,0.4,0.9,0.6c0,1.7,0,3.3,0,4.9c-0.4,0.6-0.9,1.2-1.3,1.9
		c0.3,0.3,0.5,0.6,0.8,1C180.6,77.9,180.6,77.9,181.6,77.6z"/>
	<path class="st2" d="M181.6,77.6c-1,0.3-1,0.3-1.7,1.7c-0.3-0.4-0.6-0.6-0.8-1c0.5-0.7,0.9-1.3,1.3-1.9c0-1.6,0-3.2,0-4.9
		c-0.2-0.1-0.5-0.3-0.9-0.6c0.6-1.9,1.7-3.7,1.8-5.7c0.2-2,2.1-3.5,1.4-5.8c-0.8-0.2-1.6-0.3-2.6-0.6c-0.4,0.9-1,1.8-1,2.7
		c-0.1,2-0.7,3.7-1.2,5.6c-0.5,1.6-1.3,2.9-2,4.4c-0.2,0.5-0.5,1-1,1.2c-1.7,0.9-2.6,2.5-3.9,4.3c1.7-0.4,2.2-2.3,4.1-2.6
		c-1.3,1.5-2.4,2.7-3.5,4c0.1,0.1,0.1,0.1,0.2,0.2c-0.9,0.4-1.7,0.9-2.7,1.3c-0.9-0.1-1.9-0.4-2.6,0.7c0.2,0.3,0.3,0.7,0.6,1.3
		c-1.4,0.9-2.9,1.8-4.7,2.9c-0.5,0.1-1.4,0.2-2.2,0.5c-1.8,0.8-3.6,1.5-5.4,0.6c-1.6,0.5-3,1-4.6,1.6c-0.3-0.2-0.7-0.6-1.4-1.3
		c-0.9,0-2.2,0.2-3.3,0c-1.9-0.3-3.8-0.7-5.6-1.4c-1.9-0.7-3.9-1.4-5.4-2.9c-0.1-0.1-0.2-0.2-0.4-0.2c-2.7-0.3-4.1-2.4-5.8-4.2
		c-0.8-0.9-1.6-1.8-2.2-2.8c-0.8-1.2-1.5-2.4-2.1-3.6c-0.7-1.3-1.2-2.7-1.8-4.1c-0.5-1.1-1.1-2.2-0.4-3.5c-0.8-0.9-0.9-1.9-0.8-3.1
		c0.1-0.4,0-0.9,0-1.3c0-1.6-0.2-3.2,0.5-4.8c0.4-1,0.3-2.3,0.3-3.5c0-1.4,0.4-2.6,1.1-3.8c1.1-1.8,2-3.6,3-5.5
		c2.2-4.1,5.9-6.6,9.8-8.8c1.9-1.1,3.9-1.8,6-2.2c3.6-0.8,7.2-1.3,11-0.6c3.3,0.6,6.6,1.2,9.6,2.7c4.6,2.3,8.3,5.8,10.9,10.2
		c0.6,1,1.2,2.1,1.8,3.1c0.5,0.9,1.1,1.6,2.3,2c0.7-0.7,1.4-1.5,2.2-2.4c0.3,0,0.7-0.1,1.3-0.1c-0.5-1.2-0.3-2.3,0.5-3.3
		c0.3,1.2,0.6,2.4,0.9,3.7c0.7,0.4,1.3,0.8,2.1,1.3c0.4,1.6,0.8,3.3,1.1,5c0.2,1.2,0.4,2.5,0.2,3.7c-0.3,1.5,0.2,2.9,0.5,4.3
		c0.1,0.5,0,1,0,1.6c-0.3,0.3-0.9,0.6-1,1c-0.2,1.4-0.3,2.8-0.5,4.3c-0.1,0.5-0.2,1-0.3,1.5c-0.2,0.7-0.3,1.4-0.5,2.2
		c0.3,0.2,0.6,0.4,0.8,0.5c0,0.1,0,0.3,0,0.4c-0.5,1.7-1.7,3.2-2,5.1C182.5,77.1,181.9,77.3,181.6,77.6z M166.7,38.8
		c-2.7-2.8-5.9-4.4-9.4-5.6c-3.4-1.1-6.8-1.3-10.3-1.4c-3.4,0-6.4,1.1-9.5,2.2c-1.6,0.6-3.2,1.3-4.5,2.4c-2.3,2-4.9,3.9-6.3,6.9
		c-0.9,1.9-2.4,3.7-3.1,5.7c-1.4,3.9-1.7,7.9-1,12c0.3,1.9,0.3,3.9,1.3,5.7c0.6,1.1,1.5,2.3,1,3.7c-0.1,0.3,0.2,0.7,0.4,1
		c1.9,2.5,3.7,5,6.7,6.2c0.8,0.3,1.5,0.9,1.4,1.7c2.2,2,4.7,3.3,6.7,4.1c2.3,0.4,4,0.8,5.7,1c3.2,0.4,6.4-0.4,9.5-0.9
		c4.4-0.8,8.2-2.9,11.5-5.9c0.5-0.5,1.2-0.8,1.7-1.1c0.9-1.2,1.6-2.4,2.5-3.4c1.2-1.2,2-2.5,2-3.8c2-3.6,2.3-7.1,2.1-10.7
		c-0.2-3.6-1.3-7-2.5-10.3c-1.2-3.5-4.1-5.8-6.4-8.3C166.6,39.7,166.6,39.3,166.7,38.8z"/>
	<path class="st2" d="M146.2,111.7c0.2,0,0.5,0.3,0.6,0.8c-7.6,0-15.2,0-22.8,0c-0.2,0-0.5-0.3-0.7-0.4c0-0.1,0.1-0.2,0.1-0.3"/>
	<path class="st1" d="M164.9,45.2c1.2-1.4,1.2-1.4,3.2-0.5c0,0.6,0,1.3,0,2.1c0.2,6.3,0.4,12.5,0.6,18.8c0.1,1.7,0.3,3.4,0.4,5.1
		c-0.5,0.4-0.8,0.8-1.2,1.1c-0.3-0.1-0.6,0-0.7-0.2c-0.6-0.7-1.3-1.5-1.6-2.3c-2.2-4.8-4.3-9.6-6.5-14.5c-0.1-0.2-0.4-0.4-0.8-0.9
		c0.2,3.1,0.4,5.8,0.7,8.5c0.2,2.7,0.4,5.5,0.6,8.2c0.1,0.9,0.1,1.8-0.9,2.5c-0.4,0-0.9,0-1.6,0c-0.2-0.8-0.5-1.6-0.5-2.3
		c-0.4-7-0.7-14-1-21c-0.1-1.6-0.3-3.3-0.4-4.8c1.3-1.1,1.9-1.2,2.7-0.3c0.5,0.6,0.8,1.3,1.1,1.9c1.8,4.2,3.5,8.4,5.2,12.6
		c0.3,0.7,0.7,1.4,1,2.1c0.2,0,0.3-0.1,0.5-0.1C165.4,56,165.2,50.7,164.9,45.2z"/>
	<path class="st1" d="M150.8,66.4c-1.5,0.4-2.7,0.7-3.9,1c-1.1,2.4,0.7,5.2-1.3,7.5c-0.6-0.2-1-0.4-1.5-0.6
		c-0.1-0.3-0.2-0.5-0.2-0.8c-0.2-7.2-0.4-14.4-0.5-21.7c-0.1-1.9-0.2-3.7-0.3-5.6c0-1.3,0.2-2.5,1.6-3.1c1.5,0.5,2.1,1.8,2.6,3.2
		c1.7,5.4,3.4,10.8,5,16.2c0.7,2.3,1.4,4.7,2.1,7c0.3,0.8,0.5,1.7,0.9,3c-0.3,0.3-0.7,0.7-1,1c-0.7-0.3-1-0.3-1.1-0.4
		c-0.4-0.8-0.9-1.5-1.2-2.3C151.7,69.5,151.3,68.1,150.8,66.4z M146.4,64.8c1.4-0.3,2.5-0.6,3.7-0.9c-1.3-4.2-2.4-8.1-4-11.9
		C146.1,56.1,146.2,60.3,146.4,64.8z"/>
	<path class="st1" d="M142.6,69.1c-0.2,0.6-0.4,1.2-0.6,1.8c-1.7,4.8-7.1,4.7-9.9,2.4c-2.4-2-3.5-4.8-4.1-7.7
		c-0.9-4.8-1.1-9.6-0.1-14.4c0.5-2.3,1.3-4.4,3.1-6.1c1.6-1.6,3.6-1.8,5.6-1.4c1.7,0.4,2.5,1.8,2.2,3.8c-1.9,1.5-2.8-1.6-4.5-1.1
		c-1.2,0.5-1.8,1.5-2.2,2.6c-0.6,1.7-1.1,3.4-1.3,5.2c-0.5,4.3-0.6,8.6,0.7,12.8c0.4,1.2,0.9,2.4,1.7,3.3c0.6,0.8,1.6,1.4,2.5,1.7
		c1.4,0.6,2.3,0,3-1.5c0.2-0.5,0.3-1,0.6-1.5C140.1,67.6,141.2,67.5,142.6,69.1z"/>
</g>
<g>
	<path class="st1" d="M192.3,106.9c-0.8-0.2-1.4-0.3-2.4-0.5c1-0.2,1.5-0.3,1.7-0.3c0.1-0.9,0.3-1.7,0.4-2.6
		c-0.4-0.6-1.4-0.9-1.5-1.9c0-0.3-1-0.8-1.5-0.6c-1.4,0.4-2.8,0-4.2-0.1c-5.4-0.2-10.7-0.4-16.1-0.4c-3.9,0-7.7,0.3-11.6,0.3
		c-11.7-0.1-23.4,0.3-35.1-0.3c-5.2-0.3-10.4,0-15.7,0c-0.1,1.2-0.2,2-0.3,3c-0.2,0.3-0.6,0.7-1.1,1.2c0.5,0.4,0.8,0.7,1.2,1
		c-0.5,0.4-1,0.7-1.6,1.2c0.8,0.2,1.4,0.4,2.5,0.6c-1.5,0.6-2,1.5-2.1,2.6c0.7,0.9,1.3,1.8,1.9,2.6c4.2,0.2,8.3,0.5,12.5,0.6
		c10.8,0.1,21.6,0.1,32.4,0.1c1.6,0,3.3-0.3,4.9-0.3c1.9,0,3.8,0.3,5.8,0.3c7,0.1,14,0.1,21,0.1c0.7,0,1.4-0.1,2,0.1
		c1.7,0.5,3.2,0.1,4.9-0.4c0.1-0.8,0.2-1.7,0.3-2.5c0.4-0.4,0.9-0.8,1.4-1.2c-0.6-0.4-1.1-0.7-1.6-1.1
		C191.2,107.8,191.6,107.4,192.3,106.9z M114,108.8c-0.2,0-0.3,0.1-0.5,0.1c-0.2,0-0.5,0-0.6-0.1c-0.2-0.1-0.4-0.2-0.5-0.4
		s-0.3-0.4-0.3-0.7c-0.1-0.3-0.1-0.7-0.1-1.1c0-0.4,0-0.8,0.1-1.1c0.1-0.3,0.2-0.6,0.4-0.7c0.2-0.2,0.3-0.3,0.5-0.4
		c0.2-0.1,0.4-0.1,0.6-0.1c0.2,0,0.4,0,0.5,0c0.1,0,0.3,0.1,0.4,0.1l-0.1,0.5c-0.1,0-0.2-0.1-0.3-0.1c-0.1,0-0.3,0-0.4,0
		c-0.2,0-0.3,0-0.4,0.1c-0.1,0.1-0.3,0.2-0.4,0.3c-0.1,0.2-0.2,0.4-0.3,0.6c-0.1,0.2-0.1,0.5-0.1,0.9c0,0.6,0.1,1.1,0.3,1.5
		c0.2,0.3,0.5,0.5,0.9,0.5c0.1,0,0.3,0,0.4-0.1s0.2-0.1,0.3-0.1l0.1,0.4C114.3,108.7,114.2,108.8,114,108.8z M117.4,108.2
		c-0.3,0.4-0.6,0.6-1.2,0.6c-0.3,0-0.5-0.1-0.7-0.2c-0.2-0.1-0.4-0.3-0.5-0.5c-0.1-0.2-0.2-0.5-0.3-0.8s-0.1-0.6-0.1-1
		c0-0.8,0.1-1.4,0.4-1.8s0.6-0.6,1.2-0.6c0.3,0,0.5,0.1,0.7,0.2s0.4,0.3,0.5,0.5c0.1,0.2,0.2,0.5,0.3,0.8c0.1,0.3,0.1,0.6,0.1,1
		C117.8,107.2,117.7,107.8,117.4,108.2z M121.9,108.8h-0.5v-3l0.1-0.7h0l-0.2,0.7l-0.9,2h-0.2l-1-2l-0.2-0.7h0l0.1,0.7v3h-0.5v-4.6
		h0.4l1.1,2.3l0.2,0.5h0l0.2-0.5l1.1-2.3h0.4V108.8z M144.9,104.1h0.3l1.4,4.7H146l-0.4-1.3h-1.3l-0.4,1.3h-0.5L144.9,104.1z
		 M138.6,104.1l0.8,2l0.1,0.4h0l0.1-0.4l0.8-2h0.5l-1.2,2.8v1.8h-0.5v-1.8l-1.2-2.8H138.6z M135.2,104.1h2.8v0.5h-1.1v4.2h-0.5v-4.2
		h-1.1V104.1z M134.1,104.1h0.5v4.6h-0.5V104.1z M130.4,104.1h0.3l1.7,3l0.3,0.7h0l-0.1-0.7v-2.9h0.5v4.7h-0.3l-1.7-3l-0.3-0.7h0
		l0.1,0.7v2.9h-0.5V104.1z M127,104.1h0.5v3c0,0.2,0,0.4,0,0.6s0.1,0.3,0.2,0.4c0.1,0.1,0.2,0.2,0.3,0.2s0.2,0.1,0.4,0.1
		c0.3,0,0.5-0.1,0.6-0.3c0.1-0.2,0.2-0.5,0.2-1v-3h0.5v3.1c0,0.6-0.1,1-0.3,1.2c-0.2,0.2-0.5,0.4-0.9,0.4c-0.5,0-0.8-0.1-1-0.4
		c-0.2-0.2-0.3-0.6-0.3-1.1V104.1z M123.2,108.8h-0.5v-4.6h0.4l1.1,2.3l0.2,0.5h0l0.2-0.5l1.1-2.3h0.4v4.6h-0.5v-3l0.1-0.7h0
		l-0.2,0.7l-0.9,2h-0.2l-1-2l-0.2-0.7h0l0.1,0.7V108.8z M123.9,112.4c-0.2,0-0.5-0.3-0.7-0.4c0-0.1,0.1-0.2,0.1-0.3
		c7.6,0,15.2,0,22.8,0c0.2,0,0.5,0.3,0.6,0.8C139.2,112.5,131.5,112.5,123.9,112.4z M148.9,108.8c-0.2,0-0.3,0.1-0.5,0.1
		c-0.2,0-0.5,0-0.6-0.1c-0.2-0.1-0.4-0.2-0.5-0.4s-0.3-0.4-0.3-0.7c-0.1-0.3-0.1-0.7-0.1-1.1c0-0.4,0-0.8,0.1-1.1
		c0.1-0.3,0.2-0.6,0.4-0.7c0.2-0.2,0.3-0.3,0.5-0.4c0.2-0.1,0.4-0.1,0.6-0.1c0.2,0,0.4,0,0.5,0c0.1,0,0.3,0.1,0.4,0.1l-0.1,0.5
		c-0.1,0-0.2-0.1-0.3-0.1c-0.1,0-0.3,0-0.4,0c-0.2,0-0.3,0-0.4,0.1c-0.1,0.1-0.3,0.2-0.4,0.3c-0.1,0.2-0.2,0.4-0.3,0.6
		c-0.1,0.2-0.1,0.5-0.1,0.9c0,0.6,0.1,1.1,0.3,1.5c0.2,0.3,0.5,0.5,0.9,0.5c0.1,0,0.3,0,0.4-0.1s0.2-0.1,0.3-0.1l0.1,0.4
		C149.2,108.7,149.1,108.8,148.9,108.8z M152.2,104.6h-1.1v4.2h-0.5v-4.2h-1.1v-0.5h2.8V104.6z M153.3,108.8h-0.5v-4.6h0.5V108.8z
		 M156.8,108.2c-0.3,0.4-0.6,0.6-1.2,0.6c-0.3,0-0.5-0.1-0.7-0.2c-0.2-0.1-0.4-0.3-0.5-0.5c-0.1-0.2-0.2-0.5-0.3-0.8
		c-0.1-0.3-0.1-0.6-0.1-1c0-0.8,0.1-1.4,0.4-1.8c0.3-0.4,0.6-0.6,1.2-0.6c0.3,0,0.5,0.1,0.7,0.2s0.4,0.3,0.5,0.5
		c0.1,0.2,0.2,0.5,0.3,0.8s0.1,0.6,0.1,1C157.2,107.2,157.1,107.8,156.8,108.2z M160.6,108.9h-0.3l-1.7-3l-0.3-0.7h0l0.1,0.7v2.9
		h-0.5v-4.7h0.3l1.7,3l0.3,0.7h0l-0.1-0.7v-2.9h0.5V108.9z M165.6,108.9h-0.3l-1.7-3l-0.3-0.7h0l0.1,0.7v2.9h-0.5v-4.7h0.3l1.7,3
		l0.3,0.7h0l-0.1-0.7v-2.9h0.5V108.9z M168.5,108.8h-2.1v-4.6h2.1v0.5h-1.6v1.6h1.4v0.5h-1.4v1.7h1.6V108.8z M171.7,104.6h-1.1v4.2
		h-0.5v-4.2h-1.1v-0.5h2.8V104.6z M175.1,108.9h-0.3l-0.7-3.1l-0.1-0.7h0l-0.1,0.7l-0.7,3h-0.3l-1.1-4.7h0.5l0.6,3.1l0.1,0.8h0
		l0.1-0.8l0.7-3.1h0.3l0.7,3.1l0.1,0.8h0l0.1-0.8l0.6-3.1h0.5L175.1,108.9z M179.1,108.2c-0.3,0.4-0.6,0.6-1.2,0.6
		c-0.3,0-0.5-0.1-0.7-0.2c-0.2-0.1-0.4-0.3-0.5-0.5c-0.1-0.2-0.2-0.5-0.3-0.8c-0.1-0.3-0.1-0.6-0.1-1c0-0.8,0.1-1.4,0.4-1.8
		c0.3-0.4,0.6-0.6,1.2-0.6c0.3,0,0.5,0.1,0.7,0.2s0.4,0.3,0.5,0.5c0.1,0.2,0.2,0.5,0.3,0.8s0.1,0.6,0.1,1
		C179.4,107.2,179.3,107.8,179.1,108.2z M182.1,108.8l-1-2l-0.5-0.1v2.1h-0.5v-4.6c0.1,0,0.3-0.1,0.5-0.1s0.3,0,0.5,0
		c0.2,0,0.3,0,0.5,0.1c0.2,0,0.3,0.1,0.4,0.2c0.1,0.1,0.2,0.2,0.3,0.4s0.1,0.4,0.1,0.6c0,0.4-0.1,0.7-0.2,0.9s-0.4,0.4-0.6,0.4
		l0.3,0.2l0.9,1.8H182.1z M185.4,108.8l-1.3-2.1h-0.2v2.1h-0.5v-4.6h0.5v2.2l0.2-0.1l1.2-2.1h0.6l-1.2,2l-0.2,0.2l0.3,0.3l1.3,2.2
		H185.4z"/>
	<path class="st1" d="M178.7,105.1c-0.1-0.2-0.2-0.3-0.3-0.4s-0.3-0.2-0.5-0.2c-0.3,0-0.6,0.2-0.7,0.5c-0.2,0.3-0.3,0.8-0.3,1.5
		c0,0.3,0,0.5,0.1,0.7c0,0.2,0.1,0.4,0.2,0.6c0.1,0.2,0.2,0.3,0.3,0.4c0.1,0.1,0.3,0.2,0.5,0.2c0.3,0,0.6-0.2,0.8-0.5
		c0.2-0.3,0.3-0.8,0.3-1.5c0-0.3,0-0.5-0.1-0.7C178.8,105.5,178.8,105.3,178.7,105.1z"/>
	<polygon class="st1" points="145.1,105.6 145,104.9 145,104.9 144.9,105.6 144.5,107 145.5,107 	"/>
	<path class="st1" d="M156.4,105.1c-0.1-0.2-0.2-0.3-0.3-0.4s-0.3-0.2-0.5-0.2c-0.3,0-0.6,0.2-0.7,0.5c-0.2,0.3-0.3,0.8-0.3,1.5
		c0,0.3,0,0.5,0.1,0.7c0,0.2,0.1,0.4,0.2,0.6c0.1,0.2,0.2,0.3,0.3,0.4c0.1,0.1,0.3,0.2,0.5,0.2c0.3,0,0.6-0.2,0.8-0.5
		c0.2-0.3,0.3-0.8,0.3-1.5c0-0.3,0-0.5-0.1-0.7C156.6,105.5,156.5,105.3,156.4,105.1z"/>
	<path class="st1" d="M181.9,105.4c0-0.2-0.1-0.4-0.2-0.6c-0.1-0.2-0.3-0.2-0.5-0.2c-0.1,0-0.2,0-0.3,0c-0.1,0-0.2,0-0.2,0v1.7h0.4
		c0.3,0,0.5-0.1,0.6-0.2S181.9,105.7,181.9,105.4z"/>
	<path class="st1" d="M117.1,105.1c-0.1-0.2-0.2-0.3-0.3-0.4c-0.1-0.1-0.3-0.2-0.5-0.2c-0.3,0-0.6,0.2-0.7,0.5
		c-0.2,0.3-0.3,0.8-0.3,1.5c0,0.3,0,0.5,0.1,0.7s0.1,0.4,0.2,0.6c0.1,0.2,0.2,0.3,0.3,0.4c0.1,0.1,0.3,0.2,0.5,0.2
		c0.3,0,0.6-0.2,0.8-0.5c0.2-0.3,0.3-0.8,0.3-1.5c0-0.3,0-0.5-0.1-0.7S117.1,105.3,117.1,105.1z"/>
</g>
<g>
	<path class="st1" d="M111.9,118.2c0,0.1,0,0.1,0,0.2c0,0.1,0,0.1-0.1,0.2c0,0.1-0.1,0.1-0.1,0.1s-0.1,0.1-0.2,0.1v0
		c0.1,0,0.1,0,0.2,0.1c0.1,0,0.1,0.1,0.2,0.1c0.1,0.1,0.1,0.1,0.1,0.2c0,0.1,0,0.2,0,0.3c0,0.1,0,0.3-0.1,0.4
		c-0.1,0.1-0.1,0.2-0.2,0.2s-0.2,0.1-0.3,0.1s-0.3,0-0.4,0c0,0-0.1,0-0.2,0s-0.1,0-0.2,0s-0.2,0-0.2,0c-0.1,0-0.2,0-0.2,0v-2.6
		c0,0,0.1,0,0.2,0c0.1,0,0.1,0,0.2,0c0.1,0,0.1,0,0.2,0c0.1,0,0.1,0,0.2,0c0.1,0,0.2,0,0.4,0c0.1,0,0.2,0.1,0.3,0.1
		c0.1,0,0.2,0.1,0.2,0.2C111.8,118,111.9,118.1,111.9,118.2z M110.7,118.7c0,0,0.1,0,0.1,0c0,0,0.1,0,0.1,0c0.1,0,0.2-0.1,0.2-0.1
		c0.1-0.1,0.1-0.1,0.1-0.2c0-0.1,0-0.1,0-0.2s-0.1-0.1-0.1-0.1s-0.1,0-0.1-0.1c-0.1,0-0.1,0-0.2,0c-0.1,0-0.1,0-0.2,0
		c-0.1,0-0.1,0-0.1,0v0.7H110.7z M110.9,119.9c0.1,0,0.1,0,0.2,0c0.1,0,0.1,0,0.2-0.1s0.1-0.1,0.1-0.1c0,0,0-0.1,0-0.2
		c0-0.1,0-0.1,0-0.2s-0.1-0.1-0.1-0.1c-0.1,0-0.1,0-0.2-0.1c-0.1,0-0.1,0-0.2,0h-0.3v0.7c0,0,0,0,0.1,0c0,0,0.1,0,0.1,0
		S110.8,119.9,110.9,119.9C110.9,119.9,110.9,119.9,110.9,119.9z"/>
	<path class="st1" d="M112.3,118.9c0-0.4,0.1-0.8,0.3-1c0.2-0.2,0.5-0.4,0.8-0.4c0.2,0,0.4,0,0.5,0.1c0.1,0.1,0.3,0.2,0.4,0.3
		s0.2,0.3,0.2,0.4c0,0.2,0.1,0.4,0.1,0.6c0,0.4-0.1,0.8-0.3,1c-0.2,0.2-0.5,0.4-0.8,0.4c-0.2,0-0.4,0-0.5-0.1s-0.3-0.2-0.4-0.3
		c-0.1-0.1-0.2-0.3-0.2-0.4C112.3,119.3,112.3,119.1,112.3,118.9z M112.8,118.9c0,0.1,0,0.3,0,0.4c0,0.1,0.1,0.2,0.1,0.3
		c0,0.1,0.1,0.1,0.2,0.2c0.1,0,0.2,0.1,0.3,0.1c0.2,0,0.3-0.1,0.4-0.2c0.1-0.1,0.2-0.4,0.2-0.7c0-0.1,0-0.2,0-0.4
		c0-0.1-0.1-0.2-0.1-0.3s-0.1-0.1-0.2-0.2c-0.1,0-0.2-0.1-0.3-0.1c-0.2,0-0.3,0.1-0.4,0.2C112.9,118.4,112.8,118.6,112.8,118.9z"/>
	<path class="st1" d="M116.4,117.6h0.5v1.7c0,0.2,0,0.3-0.1,0.4c0,0.1-0.1,0.2-0.2,0.3c-0.1,0.1-0.2,0.1-0.3,0.2
		c-0.1,0-0.2,0.1-0.4,0.1c-0.7,0-1-0.3-1-0.9v-1.8h0.5v1.7c0,0.1,0,0.2,0,0.3c0,0.1,0,0.1,0.1,0.2c0,0,0.1,0.1,0.2,0.1
		c0.1,0,0.1,0,0.2,0c0.2,0,0.3,0,0.3-0.1c0.1-0.1,0.1-0.2,0.1-0.4V117.6z"/>
	<path class="st1" d="M117.4,117.6c0.1,0,0.1,0,0.2,0s0.1,0,0.2,0c0.1,0,0.1,0,0.2,0c0.1,0,0.1,0,0.2,0c0.1,0,0.2,0,0.4,0
		c0.1,0,0.2,0.1,0.3,0.1c0.1,0.1,0.2,0.1,0.2,0.2c0.1,0.1,0.1,0.2,0.1,0.4c0,0.2-0.1,0.4-0.2,0.5c-0.1,0.1-0.2,0.2-0.4,0.3l0.2,0.1
		l0.6,1h-0.6l-0.6-1l-0.3,0v1.1h-0.5V117.6z M118.2,118c-0.1,0-0.1,0-0.2,0c-0.1,0-0.1,0-0.1,0v0.8h0.2c0.1,0,0.3,0,0.3-0.1
		c0.1-0.1,0.1-0.2,0.1-0.3c0-0.1,0-0.2-0.1-0.3C118.4,118.1,118.3,118,118.2,118z"/>
	<path class="st1" d="M120.4,118.9l-0.2-0.4h0l0.1,0.4v1.4h-0.5v-2.7h0.4l1,1.4l0.2,0.4h0l-0.1-0.4v-1.4h0.5v2.7h-0.4L120.4,118.9z"
		/>
	<path class="st1" d="M122.3,117.6h1.6v0.5h-1.1v0.6h1v0.5h-1v0.7h1.1v0.5h-1.6V117.6z"/>
	<path class="st1" d="M126.4,118.9l0.1-0.5h0l-0.2,0.4l-0.6,1h-0.2l-0.6-1l-0.2-0.4h0l0.1,0.5v1.4h-0.5v-2.7h0.5l0.7,1.2l0.1,0.3h0
		l0.1-0.3l0.7-1.2h0.5v2.7h-0.5V118.9z"/>
	<path class="st1" d="M127.3,118.9c0-0.4,0.1-0.8,0.3-1c0.2-0.2,0.5-0.4,0.8-0.4c0.2,0,0.4,0,0.5,0.1c0.1,0.1,0.3,0.2,0.4,0.3
		s0.2,0.3,0.2,0.4c0,0.2,0.1,0.4,0.1,0.6c0,0.4-0.1,0.8-0.3,1c-0.2,0.2-0.5,0.4-0.8,0.4c-0.2,0-0.4,0-0.5-0.1s-0.3-0.2-0.4-0.3
		c-0.1-0.1-0.2-0.3-0.2-0.4C127.4,119.3,127.3,119.1,127.3,118.9z M127.9,118.9c0,0.1,0,0.3,0,0.4c0,0.1,0.1,0.2,0.1,0.3
		c0,0.1,0.1,0.1,0.2,0.2c0.1,0,0.2,0.1,0.3,0.1c0.2,0,0.3-0.1,0.4-0.2c0.1-0.1,0.2-0.4,0.2-0.7c0-0.1,0-0.2,0-0.4
		c0-0.1-0.1-0.2-0.1-0.3s-0.1-0.1-0.2-0.2c-0.1,0-0.2-0.1-0.3-0.1c-0.2,0-0.3,0.1-0.4,0.2C127.9,118.4,127.9,118.6,127.9,118.9z"/>
	<path class="st1" d="M131.5,117.6h0.5v1.7c0,0.2,0,0.3-0.1,0.4c0,0.1-0.1,0.2-0.2,0.3c-0.1,0.1-0.2,0.1-0.3,0.2
		c-0.1,0-0.2,0.1-0.4,0.1c-0.7,0-1-0.3-1-0.9v-1.8h0.5v1.7c0,0.1,0,0.2,0,0.3c0,0.1,0,0.1,0.1,0.2c0,0,0.1,0.1,0.2,0.1
		c0.1,0,0.1,0,0.2,0c0.2,0,0.3,0,0.3-0.1c0.1-0.1,0.1-0.2,0.1-0.4V117.6z"/>
	<path class="st1" d="M134.3,118.1h-0.8v2.2H133v-2.2h-0.8v-0.5h2.1V118.1z"/>
	<path class="st1" d="M136.2,119.2h-1v1.1h-0.5v-2.7h0.5v1.1h1v-1.1h0.5v2.7h-0.5V119.2z"/>
	<path class="st1" d="M139.2,117.6h0.4v3.2h-0.4V117.6z"/>
	<path class="st1" d="M143.9,120.2c-0.1,0.1-0.2,0.1-0.3,0.1s-0.3,0-0.4,0c-0.2,0-0.3,0-0.5-0.1c-0.1,0-0.3-0.1-0.4-0.2
		c-0.1-0.1-0.2-0.3-0.3-0.4s-0.1-0.4-0.1-0.6c0-0.3,0-0.5,0.1-0.7c0.1-0.2,0.2-0.3,0.3-0.4s0.2-0.2,0.4-0.2c0.1,0,0.3-0.1,0.4-0.1
		c0.2,0,0.3,0,0.4,0c0.1,0,0.2,0,0.3,0.1l-0.1,0.4c-0.1,0-0.1,0-0.2-0.1c-0.1,0-0.2,0-0.3,0c-0.2,0-0.4,0.1-0.5,0.2
		s-0.2,0.4-0.2,0.7c0,0.1,0,0.3,0,0.4s0.1,0.2,0.1,0.3c0.1,0.1,0.1,0.1,0.2,0.2c0.1,0,0.2,0.1,0.3,0.1c0.1,0,0.2,0,0.3,0
		c0.1,0,0.1-0.1,0.2-0.1L143.9,120.2z"/>
	<path class="st1" d="M145.7,119.2h-1v1.1h-0.5v-2.7h0.5v1.1h1v-1.1h0.5v2.7h-0.5V119.2z"/>
	<path class="st1" d="M146.8,117.6c0.1,0,0.1,0,0.2,0s0.1,0,0.2,0c0.1,0,0.1,0,0.2,0c0.1,0,0.1,0,0.2,0c0.1,0,0.2,0,0.4,0
		c0.1,0,0.2,0.1,0.3,0.1c0.1,0.1,0.2,0.1,0.2,0.2c0.1,0.1,0.1,0.2,0.1,0.4c0,0.2-0.1,0.4-0.2,0.5c-0.1,0.1-0.2,0.2-0.4,0.3l0.2,0.1
		l0.6,1h-0.6l-0.6-1l-0.3,0v1.1h-0.5V117.6z M147.6,118c-0.1,0-0.1,0-0.2,0c-0.1,0-0.1,0-0.1,0v0.8h0.2c0.1,0,0.3,0,0.3-0.1
		c0.1-0.1,0.1-0.2,0.1-0.3c0-0.1,0-0.2-0.1-0.3C147.8,118.1,147.7,118,147.6,118z"/>
	<path class="st1" d="M149.2,117.6h0.5v2.7h-0.5V117.6z"/>
	<path class="st1" d="M151.4,119.6c0-0.1,0-0.1-0.1-0.2c-0.1-0.1-0.1-0.1-0.2-0.1s-0.2-0.1-0.3-0.1c-0.1,0-0.2-0.1-0.3-0.2
		c-0.1-0.1-0.2-0.1-0.2-0.2s-0.1-0.2-0.1-0.4c0-0.1,0-0.2,0.1-0.3c0-0.1,0.1-0.2,0.2-0.2s0.2-0.1,0.3-0.1s0.2,0,0.4,0
		c0.2,0,0.3,0,0.4,0c0.1,0,0.3,0.1,0.3,0.1l-0.2,0.4c-0.1,0-0.1-0.1-0.3-0.1c-0.1,0-0.2,0-0.4,0c-0.1,0-0.2,0-0.3,0.1
		c-0.1,0-0.1,0.1-0.1,0.2c0,0.1,0,0.1,0.1,0.2s0.1,0.1,0.2,0.1c0.1,0,0.2,0.1,0.3,0.1c0.1,0,0.2,0.1,0.3,0.2
		c0.1,0.1,0.2,0.1,0.2,0.2c0.1,0.1,0.1,0.2,0.1,0.4s0,0.3-0.1,0.4c0,0.1-0.1,0.2-0.2,0.3c-0.1,0.1-0.2,0.1-0.3,0.2
		c-0.1,0-0.3,0-0.4,0c-0.2,0-0.4,0-0.5-0.1c-0.1,0-0.3-0.1-0.3-0.1l0.2-0.4c0,0,0.1,0,0.1,0c0,0,0.1,0,0.2,0s0.1,0,0.2,0
		c0.1,0,0.1,0,0.2,0c0.2,0,0.3,0,0.4-0.1C151.3,119.7,151.4,119.7,151.4,119.6z"/>
	<path class="st1" d="M154.2,118.1h-0.8v2.2h-0.5v-2.2h-0.8v-0.5h2.1V118.1z"/>
	<path class="st1" d="M156.2,120.2c-0.1,0.1-0.2,0.1-0.3,0.1s-0.3,0-0.4,0c-0.2,0-0.3,0-0.5-0.1c-0.1,0-0.3-0.1-0.4-0.2
		c-0.1-0.1-0.2-0.3-0.3-0.4c-0.1-0.2-0.1-0.4-0.1-0.6c0-0.3,0-0.5,0.1-0.7c0.1-0.2,0.2-0.3,0.3-0.4c0.1-0.1,0.2-0.2,0.4-0.2
		c0.1,0,0.3-0.1,0.4-0.1c0.2,0,0.3,0,0.4,0c0.1,0,0.2,0,0.3,0.1l-0.1,0.4c-0.1,0-0.1,0-0.2-0.1c-0.1,0-0.2,0-0.3,0
		c-0.2,0-0.4,0.1-0.5,0.2c-0.1,0.2-0.2,0.4-0.2,0.7c0,0.1,0,0.3,0,0.4s0.1,0.2,0.1,0.3c0.1,0.1,0.1,0.1,0.2,0.2
		c0.1,0,0.2,0.1,0.3,0.1c0.1,0,0.2,0,0.3,0c0.1,0,0.1-0.1,0.2-0.1L156.2,120.2z"/>
	<path class="st1" d="M158,119.2h-1v1.1h-0.5v-2.7h0.5v1.1h1v-1.1h0.5v2.7H158V119.2z"/>
	<path class="st1" d="M160.5,117.6h0.5v1.7c0,0.2,0,0.3-0.1,0.4c0,0.1-0.1,0.2-0.2,0.3c-0.1,0.1-0.2,0.1-0.3,0.2
		c-0.1,0-0.2,0.1-0.4,0.1c-0.7,0-1-0.3-1-0.9v-1.8h0.5v1.7c0,0.1,0,0.2,0,0.3c0,0.1,0,0.1,0.1,0.2c0,0,0.1,0.1,0.2,0.1
		c0.1,0,0.1,0,0.2,0c0.2,0,0.3,0,0.3-0.1c0.1-0.1,0.1-0.2,0.1-0.4V117.6z"/>
	<path class="st1" d="M161.5,117.6c0.1,0,0.1,0,0.2,0s0.1,0,0.2,0c0.1,0,0.1,0,0.2,0c0.1,0,0.1,0,0.2,0c0.1,0,0.2,0,0.4,0
		c0.1,0,0.2,0.1,0.3,0.1c0.1,0.1,0.2,0.1,0.2,0.2c0.1,0.1,0.1,0.2,0.1,0.4c0,0.2-0.1,0.4-0.2,0.5c-0.1,0.1-0.2,0.2-0.4,0.3l0.2,0.1
		l0.6,1h-0.6l-0.6-1l-0.3,0v1.1h-0.5V117.6z M162.3,118c-0.1,0-0.1,0-0.2,0c-0.1,0-0.1,0-0.1,0v0.8h0.2c0.1,0,0.3,0,0.3-0.1
		c0.1-0.1,0.1-0.2,0.1-0.3c0-0.1,0-0.2-0.1-0.3C162.5,118.1,162.4,118,162.3,118z"/>
	<path class="st1" d="M165.5,120.2c-0.1,0.1-0.2,0.1-0.3,0.1s-0.3,0-0.4,0c-0.2,0-0.3,0-0.5-0.1c-0.1,0-0.3-0.1-0.4-0.2
		c-0.1-0.1-0.2-0.3-0.3-0.4c-0.1-0.2-0.1-0.4-0.1-0.6c0-0.3,0-0.5,0.1-0.7c0.1-0.2,0.2-0.3,0.3-0.4c0.1-0.1,0.2-0.2,0.4-0.2
		c0.1,0,0.3-0.1,0.4-0.1c0.2,0,0.3,0,0.4,0c0.1,0,0.2,0,0.3,0.1l-0.1,0.4c-0.1,0-0.1,0-0.2-0.1c-0.1,0-0.2,0-0.3,0
		c-0.2,0-0.4,0.1-0.5,0.2c-0.1,0.2-0.2,0.4-0.2,0.7c0,0.1,0,0.3,0,0.4s0.1,0.2,0.1,0.3c0.1,0.1,0.1,0.1,0.2,0.2
		c0.1,0,0.2,0.1,0.3,0.1c0.1,0,0.2,0,0.3,0c0.1,0,0.1-0.1,0.2-0.1L165.5,120.2z"/>
	<path class="st1" d="M167.4,119.2h-1v1.1h-0.5v-2.7h0.5v1.1h1v-1.1h0.5v2.7h-0.5V119.2z"/>
	<path class="st1" d="M170.4,117.6h0.4v3.2h-0.4V117.6z"/>
	<path class="st1" d="M173.3,117.6c0.1,0,0.2,0,0.4,0c0.1,0,0.3,0,0.4,0c0.1,0,0.3,0,0.4,0s0.3,0.1,0.4,0.1s0.2,0.2,0.3,0.3
		c0.1,0.1,0.1,0.3,0.1,0.5c0,0.2,0,0.3-0.1,0.4c-0.1,0.1-0.1,0.2-0.2,0.3c-0.1,0.1-0.2,0.1-0.3,0.2s-0.3,0-0.4,0c0,0,0,0-0.1,0
		s-0.1,0-0.1,0s-0.1,0-0.1,0c0,0,0,0-0.1,0v0.9h-0.5V117.6z M174.1,118c-0.1,0-0.1,0-0.1,0s-0.1,0-0.1,0v0.9c0,0,0,0,0,0
		c0,0,0,0,0.1,0s0,0,0.1,0s0,0,0,0c0.1,0,0.1,0,0.2,0s0.1,0,0.2-0.1s0.1-0.1,0.1-0.1c0-0.1,0-0.1,0-0.2c0-0.1,0-0.2,0-0.2
		c0-0.1-0.1-0.1-0.1-0.1c0,0-0.1-0.1-0.2-0.1C174.3,118,174.2,118,174.1,118z"/>
	<path class="st1" d="M175.4,118.9c0-0.4,0.1-0.8,0.3-1c0.2-0.2,0.5-0.4,0.8-0.4c0.2,0,0.4,0,0.5,0.1s0.3,0.2,0.4,0.3
		s0.2,0.3,0.2,0.4c0,0.2,0.1,0.4,0.1,0.6c0,0.4-0.1,0.8-0.3,1c-0.2,0.2-0.5,0.4-0.8,0.4c-0.2,0-0.4,0-0.5-0.1s-0.3-0.2-0.4-0.3
		s-0.2-0.3-0.2-0.4C175.5,119.3,175.4,119.1,175.4,118.9z M176,118.9c0,0.1,0,0.3,0,0.4c0,0.1,0.1,0.2,0.1,0.3
		c0,0.1,0.1,0.1,0.2,0.2c0.1,0,0.2,0.1,0.3,0.1c0.2,0,0.3-0.1,0.4-0.2c0.1-0.1,0.2-0.4,0.2-0.7c0-0.1,0-0.2,0-0.4
		c0-0.1-0.1-0.2-0.1-0.3s-0.1-0.1-0.2-0.2c-0.1,0-0.2-0.1-0.3-0.1c-0.2,0-0.3,0.1-0.4,0.2C176,118.4,176,118.6,176,118.9z"/>
	<path class="st1" d="M178,118.9c0-0.4,0.1-0.8,0.3-1c0.2-0.2,0.5-0.4,0.8-0.4c0.2,0,0.4,0,0.5,0.1s0.3,0.2,0.4,0.3s0.2,0.3,0.2,0.4
		c0,0.2,0.1,0.4,0.1,0.6c0,0.4-0.1,0.8-0.3,1c-0.2,0.2-0.5,0.4-0.8,0.4c-0.2,0-0.4,0-0.5-0.1s-0.3-0.2-0.4-0.3s-0.2-0.3-0.2-0.4
		C178.1,119.3,178,119.1,178,118.9z M178.6,118.9c0,0.1,0,0.3,0,0.4c0,0.1,0.1,0.2,0.1,0.3c0,0.1,0.1,0.1,0.2,0.2
		c0.1,0,0.2,0.1,0.3,0.1c0.2,0,0.3-0.1,0.4-0.2c0.1-0.1,0.2-0.4,0.2-0.7c0-0.1,0-0.2,0-0.4c0-0.1-0.1-0.2-0.1-0.3s-0.1-0.1-0.2-0.2
		c-0.1,0-0.2-0.1-0.3-0.1c-0.2,0-0.3,0.1-0.4,0.2C178.6,118.4,178.6,118.6,178.6,118.9z"/>
	<path class="st1" d="M182.4,120.3h-1.7v-2.7h0.5v2.2h1.2V120.3z"/>
	<path class="st1" d="M182.7,117.6h1.6v0.5h-1.1v0.6h1v0.5h-1v0.7h1.1v0.5h-1.6V117.6z"/>
</g>
<g>
	<path class="st2" d="M151,131.7c-0.1-0.1-0.2-0.1-0.3-0.1c-0.1,0-0.2,0-0.3,0h-0.4v1.7c0,0,0.1,0,0.1,0c0,0,0.1,0,0.1,0
		c0.1,0,0.1,0,0.2,0c0.1,0,0.1,0,0.1,0c0.1,0,0.2,0,0.3-0.1c0.1,0,0.2-0.1,0.3-0.2c0.1-0.1,0.1-0.2,0.2-0.3s0.1-0.2,0.1-0.4
		c0-0.2,0-0.3-0.1-0.4C151.2,131.8,151.1,131.8,151,131.7z"/>
	<path class="st2" d="M150.4,131.1c0.1,0,0.1,0,0.2,0c0.2-0.1,0.3-0.2,0.4-0.3c0.1-0.1,0.2-0.3,0.2-0.5c0-0.1,0-0.3-0.1-0.4
		c0-0.1-0.1-0.2-0.2-0.2s-0.1-0.1-0.2-0.1c-0.1,0-0.2,0-0.3,0c-0.1,0-0.2,0-0.3,0c-0.1,0-0.2,0-0.2,0v1.6h0.3
		C150.3,131.1,150.3,131.1,150.4,131.1z"/>
	<path class="st2" d="M157.1,130.3c0-0.2-0.1-0.4-0.2-0.6c-0.1-0.2-0.3-0.2-0.5-0.2c-0.1,0-0.2,0-0.3,0c-0.1,0-0.2,0-0.2,0v1.7h0.4
		c0.3,0,0.5-0.1,0.6-0.2S157.1,130.6,157.1,130.3z"/>
	<path class="st2" d="M192.3,130.9c-0.8-0.2-1.4-0.3-2.4-0.5c1-0.2,1.5-0.3,1.7-0.3c0.1-0.9,0.3-1.7,0.4-2.6
		c-0.4-0.6-1.4-0.9-1.5-1.9c0-0.3-1-0.8-1.5-0.6c-1.4,0.4-2.8,0-4.2-0.1c-5.4-0.2-10.7-0.4-16.1-0.4c-3.9,0-7.7,0.3-11.6,0.3
		c-11.7-0.1-23.4,0.3-35.1-0.3c-5.2-0.3-10.4,0-15.7,0c-0.1,1.2-0.2,2-0.3,3c-0.2,0.3-0.6,0.7-1.1,1.2c0.5,0.4,0.8,0.7,1.2,1
		c-0.5,0.4-1,0.7-1.6,1.2c0.8,0.2,1.4,0.4,2.5,0.6c-1.5,0.6-2,1.5-2.1,2.6c0.7,0.9,1.3,1.8,1.9,2.6c4.2,0.2,8.3,0.5,12.5,0.6
		c10.8,0.1,21.6,0.1,32.4,0.1c1.6,0,3.3-0.3,4.9-0.3c1.9,0,3.8,0.3,5.8,0.3c7,0.1,14,0.1,21,0.1c0.7,0,1.4-0.1,2,0.1
		c1.7,0.5,3.2,0.1,4.9-0.4c0.1-0.8,0.2-1.7,0.3-2.5c0.4-0.4,0.9-0.8,1.4-1.2c-0.6-0.4-1.1-0.7-1.6-1.1
		C191.2,131.8,191.6,131.5,192.3,130.9z M141.5,133.7H141v-3l0.1-0.7h0l-0.2,0.7l-0.9,2h-0.2l-1-2l-0.2-0.7h0l0.1,0.7v3h-0.5V129
		h0.4l1.1,2.3l0.2,0.5h0l0.2-0.5l1.1-2.3h0.4V133.7z M144.5,133.7h-2.1V129h2.1v0.5h-1.6v1.6h1.4v0.5h-1.4v1.7h1.6V133.7z
		 M148.6,133.7h-0.5v-3l0.1-0.7h0l-0.2,0.7l-0.9,2h-0.2l-1-2l-0.2-0.7h0l0.1,0.7v3h-0.5V129h0.4l1.1,2.3l0.2,0.5h0l0.2-0.5l1.1-2.3
		h0.4V133.7z M151.7,133c-0.1,0.2-0.2,0.3-0.3,0.4c-0.1,0.1-0.3,0.2-0.5,0.2s-0.4,0.1-0.5,0.1c-0.1,0-0.1,0-0.2,0
		c-0.1,0-0.2,0-0.3,0s-0.2,0-0.3,0c-0.1,0-0.2,0-0.2,0v-4.6c0.1,0,0.3,0,0.5-0.1c0.2,0,0.4,0,0.6,0c0.2,0,0.3,0,0.5,0
		c0.1,0,0.3,0.1,0.4,0.2c0.1,0.1,0.2,0.2,0.3,0.3c0.1,0.1,0.1,0.3,0.1,0.6c0,0.1,0,0.2,0,0.3s-0.1,0.2-0.1,0.3
		c-0.1,0.1-0.1,0.2-0.2,0.3c-0.1,0.1-0.2,0.1-0.3,0.2v0c0.1,0,0.2,0.1,0.3,0.1c0.1,0.1,0.2,0.1,0.3,0.2s0.1,0.2,0.2,0.3
		c0,0.1,0.1,0.3,0.1,0.5C151.8,132.6,151.8,132.8,151.7,133z M154.6,133.7h-2.1V129h2.1v0.5H153v1.6h1.4v0.5H153v1.7h1.6V133.7z
		 M157.4,133.7l-1-2l-0.5-0.1v2.1h-0.5v-4.6c0.1,0,0.3-0.1,0.5-0.1s0.3,0,0.5,0c0.2,0,0.3,0,0.5,0.1c0.2,0,0.3,0.1,0.4,0.2
		c0.1,0.1,0.2,0.2,0.3,0.4s0.1,0.4,0.1,0.6c0,0.4-0.1,0.7-0.2,0.9s-0.4,0.4-0.6,0.4l0.3,0.2l0.9,1.8H157.4z"/>
</g>
</svg>
