<?xml version="1.0" encoding="utf-8"?>
<!-- Generator: Adobe Illustrator 24.2.2, SVG Export Plug-In . SVG Version: 6.00 Build 0)  -->
<svg version="1.1" id="Layer_1" xmlns="http://www.w3.org/2000/svg" xmlns:xlink="http://www.w3.org/1999/xlink" x="0px" y="0px"
	 viewBox="0 0 296.4 157.6" style="enable-background:new 0 0 296.4 157.6;" xml:space="preserve">
<style type="text/css">
	.st0{fill:none;}
	.st1{fill:#FFFFFF;}
</style>
<rect class="st0" width="296.4" height="157.6"/>
<g id="Group_96" transform="translate(-170.832 -252.262)">
	<path id="Path_467" class="st1" d="M345,310.7c0-3.2,0-6.4,0-9.6c0-1.9,0.1-2,2.1-2.1c3.1,0,6.1-0.1,9.2,0c5.6,0.2,8.8,3.6,9.4,8.6
		c0.4,3.2,0.5,6.5-1.2,9.5c-1.5,3.2-4.8,5.2-8.3,5.2c-3,0.1-6,0-9,0c-2.2,0-2.2-0.1-2.2-2.3C345,316.9,345,313.8,345,310.7z
		 M350.4,310.5c0,1.9,0,3.8,0,5.7c0,1.1,0.4,1.6,1.5,1.6c1.1,0,2.2,0,3.3,0c2.2,0,4.1-1.4,4.8-3.5c0.7-2,0.8-4.2,0.2-6.2
		c-0.4-2.6-2.7-4.5-5.3-4.5c-1-0.1-1.9-0.1-2.9,0c-1.5,0-1.6,0.1-1.7,1.6C350.3,307,350.4,308.8,350.4,310.5L350.4,310.5z"/>
	<path id="Path_468" class="st1" d="M303.8,271.4c0-3.1,0-6.2,0-9.4c0-2,0.1-2.1,2-2.1c4.7,0,9.4,0,14.1,0c1.7,0,1.8,0.2,1.9,1.9
		c0,0.1,0,0.3,0,0.4c0,2.1-0.1,2.2-2.1,2.2c-2.6,0-5.3,0-7.9,0c-0.8,0-2.1,0.1-2.2,0.4c-0.3,1.1-0.3,2.3-0.1,3.4
		c0,0.3,1,0.6,1.5,0.6c2.5,0.1,5,0,7.5,0.1c0.7,0,1.8,0.3,1.9,0.6c0.2,1.1,0.2,2.3,0,3.4c0,0.3-1,0.5-1.6,0.5c-2.5,0.1-5,0-7.5,0
		c-1.9,0-2,0.1-2,2c0,3.7-0.2,3.3,3.3,3.3c2.4,0,4.9,0,7.3,0c1.9,0,2,0.1,2,1.9c0,0.5,0,1,0,1.4c0,0.6-0.4,1.1-1,1.1
		c-0.1,0-0.1,0-0.2,0c-0.5,0-1,0-1.4,0c-4.2,0-8.4,0-12.6,0c-2.7,0-2.7,0-2.8-2.8C303.8,277.4,303.8,274.4,303.8,271.4z"/>
	<path id="Path_469" class="st1" d="M236.1,306.9c-1.2,0.2-2.2-0.2-3.1-1.6c-1.6-2.4-4.8-3.1-7.3-1.5c-0.8,0.5-1.5,1.3-1.9,2.2
		c-1.5,2.9-1.6,6.5-0.1,9.4c1.1,2.3,3.1,3,5.6,2.9c2,0,3.7-1.4,4.1-3.3c0.4-1.3,1.1-1.8,2.3-1.6c0.3,0,0.7,0,1,0
		c2.6,0,2.7,0.2,2,2.6c-1,3.8-4.2,6.6-8.2,6.9c-7.2,1.1-12-3.3-13-8.8c-0.6-3.7-0.5-7.4,1.6-10.8c2.2-3.7,7.6-5.6,11.5-4.9
		c3.1,0.6,5.7,1.9,7.2,4.7c0.1,0.2,0.3,0.5,0.4,0.7C239.5,306.4,239.2,306.9,236.1,306.9z"/>
	<path id="Path_470" class="st1" d="M217.4,349.7c-0.1-2,0.3-4.1,1.1-6c2.7-6.1,10.8-8.1,16.5-4.6c2,1.2,3.4,3.2,3.8,5.5
		c0.2,0.9-0.1,1.3-1,1.3c-0.7,0-1.4,0-2,0c-1.1,0.2-2.2-0.4-2.6-1.4c-1.5-2.5-4.8-3.3-7.4-1.8c-1,0.6-1.7,1.5-2.2,2.5
		c-1.3,2.8-1.3,6.1,0,8.9c1.1,2.4,3.1,3.2,5.6,3.2c2.4,0,3.6-1.4,4.2-3.4c0.1-1,1.1-1.7,2.1-1.5c0,0,0.1,0,0.1,0c0.5,0,1.1,0,1.6,0
		c1.9,0,2.1,0.2,1.6,2.2c-1,3.7-3.1,6.4-8,7.3c-3.1,0.7-6.3,0-8.9-1.8c-3-2-4.7-5.4-4.6-9C217.4,350.7,217.4,350.3,217.4,349.7z"/>
	<path id="Path_471" class="st1" d="M227.4,259.9c2.9,0.1,2.6-0.6,3.9,2.7c2.4,6.2,4.7,12.4,7,18.7c0.1,0.3,0.2,0.6,0.3,1
		c0.2,0.6-0.1,0.9-0.7,0.9c-1.2,0.1-2.4,0-3.7,0c-0.5-0.1-0.9-0.6-1.4-1c-0.2-0.2-0.2-0.5-0.3-0.8c-1.2-3.4-0.6-3.1-4.4-3.1
		c-1.3,0-2.6,0-3.9,0c-0.8-0.1-1.6,0.5-1.8,1.3c0,0.1,0,0.1-0.1,0.2c-1.4,3.7-1.4,3.7-5.4,3.5c-1.1-0.1-1.3-0.5-0.9-1.4
		c0.8-2,1.5-4.1,2.3-6.1c1.7-4.4,3.4-8.9,5.1-13.3C224.6,259.9,224,259.9,227.4,259.9z M227.5,274.2c0.3,0,0.7,0,1,0
		c1.5-0.1,1.6-0.1,1.1-1.5c-0.6-1.9-1.2-3.7-1.9-5.5c-0.1-0.2-0.2-0.3-0.3-0.5c-0.1,0.1-0.2,0.3-0.3,0.5c-0.5,1.4-1.1,2.9-1.6,4.4
		C224.5,274.2,224.5,274.2,227.5,274.2L227.5,274.2z"/>
	<path id="Path_472" class="st1" d="M331.1,349.8c0-3.1,0-6.1,0-9.2c0-2.4,0-2.4,2.5-2.4c0.2,0,0.4,0,0.6,0c1.6,0.1,1.7,0.2,1.8,1.8
		c0,1.6,0,3.3,0,4.9c0,0.7,0.2,0.9,0.8,0.4c0.5-0.4,1-0.7,1.6-0.9c4.4-1.5,8.2,0.4,9.4,4.9c0.9,3.5,0.9,7-1.4,10.2
		c-0.8,1.2-2,2.1-3.5,2.3c-2.3,0.3-4.6,0.6-6.6-1.2c-0.3-0.3-0.5-0.4-0.9,0.1c-0.5,0.8-3.4,1.2-4,0.6c-0.3-0.5-0.5-1.1-0.5-1.7
		C331.1,356.3,331.1,353.1,331.1,349.8z M343.7,353.2l-0.3-0.1c0-0.7,0-1.3-0.1-2c-0.3-1.6-1.5-2.8-3-3.2c-1.4-0.1-2.8,0.6-3.6,1.8
		c-1.2,1.8-0.8,5.9,0.6,7.5c1.2,1.3,3.3,1.4,4.6,0.1c0.2-0.2,0.4-0.4,0.5-0.6C343,355.6,343.4,354.4,343.7,353.2L343.7,353.2z"/>
	<path id="Path_473" class="st1" d="M312.4,389.1c0,3.2,0,6.4,0,9.6c0,1.9-0.1,2.1-2.1,2c-0.9,0-2.1,0.5-2.5-1c-0.3,0-0.5,0-0.8,0.1
		c-4.5,3.1-9.9,1.2-11.5-4c-1.1-3.2-0.7-6.7,1.1-9.5c2.2-3.2,6.4-4.1,9.7-2.1c1.1,0.7,1.2,0.7,1.2-0.7c0-1.5,0-3,0-4.5
		c0-1.1,0.4-1.6,1.5-1.6c3.9,0,3.4,0,3.4,3.2C312.4,383.4,312.4,386.2,312.4,389.1z M307.7,391.8c-0.2-1.1-0.5-2.1-0.9-3.1
		c-0.9-1.7-3.1-2.3-4.8-1.4c-0.3,0.2-0.6,0.4-0.8,0.6c-2,2-1.9,6.4,0.2,8.4c1.3,1.3,3.5,1.3,4.8,0c0.4-0.4,0.6-0.8,0.8-1.3
		C307.4,394,307.6,392.9,307.7,391.8L307.7,391.8z"/>
	<path id="Path_474" class="st1" d="M281.8,316.8c0-3,0-6,0-9c0-2.6,0.1-2.7,2.8-2.6c0.7,0,1.5-0.1,1.8,0.9c0.3,0.1,0.6,0.1,0.9-0.1
		c2-1.4,4.5-1.7,6.8-0.8c3.5,1.2,4.7,4.1,5.2,7.4c0.3,2.2-0.1,4.4-1.1,6.3c-1.7,3.8-6.2,4.5-9.4,3.4c-0.3-0.1-0.5-0.2-0.7-0.4
		c-1.3-0.6-1.3-0.6-1.4,0.9c0,1.4,0,2.7,0,4.1c0,1-0.4,1.5-1.5,1.5c-4,0.1-3.5,0-3.5-3.1C281.8,322.5,281.8,319.6,281.8,316.8z
		 M294.5,314c-0.2-0.9-0.4-1.9-0.6-2.8c-0.5-1.5-1.8-2.5-3.4-2.5c-1.5,0-2.8,0.9-3.4,2.2c-0.8,1.8-0.9,3.9-0.2,5.7
		c0.5,1.5,2,2.5,3.6,2.5c1.5,0,2.9-1,3.4-2.5C294.2,315.7,294.4,314.8,294.5,314L294.5,314z"/>
	<path id="Path_475" class="st1" d="M241.9,349.8c0-3.3,0-6.5,0-9.8c0-1.7,0.2-1.8,1.9-1.9c0.3,0,0.5,0,0.8,0c2.2,0,2.2,0.1,2.2,2.3
		c0,1.4,0,2.7,0,4.1c0,1.1,0.2,1.2,1.1,0.6c1.8-1.3,4.1-1.6,6.2-0.9c2.1,0.5,3.6,2.4,3.6,4.6c0.1,3.7,0,7.3,0.1,11
		c0,1.1-0.4,1.6-1.5,1.6c-3.8,0-3.4,0.1-3.4-3.2c0-2.5,0-5,0-7.5c0.1-1.1-0.5-2.2-1.6-2.6c-1.1-0.4-3-0.1-3.5,0.9
		c-0.5,0.9-0.8,2-0.9,3c-0.1,2.3,0,4.6,0,6.9c0,2.5,0,2.5-2.5,2.5c-0.3,0-0.5,0-0.8,0c-1.5-0.1-1.6-0.2-1.6-1.7
		C241.8,356.5,241.9,353.2,241.9,349.8z"/>
	<path id="Path_476" class="st1" d="M226.6,377.3c2.2,0,4.3,0,6.5,0c1.6,0,1.7,0.2,1.8,1.7c0,0.3,0,0.7,0,1
		c-0.1,1.6-0.2,1.8-1.8,1.8c-2.6,0-5.2,0-7.7,0c-1.8,0-1.8,0.1-1.9,1.9c-0.1,3-0.1,3,3,3c1.7,0,3.4,0,5.1,0c1.5,0,1.6,0.2,1.7,1.6
		c0,0.3,0,0.5,0,0.8c0,1.9-0.1,2-2.1,2c-2,0-4.1,0-6.1,0c-1.1,0-1.6,0.5-1.6,1.6c0,2,0,4.1,0,6.1c0,1.5-0.2,1.7-1.6,1.7
		c-4.3,0.1-3.7,0.2-3.7-3.5c0-5.8,0-11.7,0-17.5c0-2.2,0.1-2.3,2.3-2.3C222.5,377.3,224.6,377.3,226.6,377.3z"/>
	<path id="Path_477" class="st1" d="M331.1,393.4c0.1,2.2,0.2,4.3,0.4,6.5c0.1,0.7-0.2,0.9-0.8,0.8c-1.4-0.2-3,0.3-4.4-0.5
		c-0.3-0.2-0.9,0.1-1.3,0.3c-2,0.8-4.3,1-6.4,0.5c-2.3-0.4-3.7-2.4-3.7-4.9c-0.1-2.2,1.3-4.2,3.5-4.7c1.5-0.4,3.1-0.6,4.6-0.9
		c0.8-0.1,1.6-0.3,2.3-0.6c0.5-0.3,0.8-0.8,0.8-1.4c-0.1-0.6-0.6-1.2-1.1-1.5c-0.9-0.2-1.7-0.2-2.6-0.1c-1,0-1.5,0.8-1.8,1.7
		c-0.2,0.4-0.6,0.6-1.1,0.7c-0.6,0.1-1.2,0.1-1.8,0c-2.3,0-2.6-0.6-1.6-2.6c0.8-1.5,2.1-2.5,3.7-3c2.6-0.7,5.3-0.7,7.8,0
		c2.4,0.7,3.6,2.1,3.6,4.8c0,1.7,0,3.4,0,5.1L331.1,393.4z M322.3,397.7c2.5,0,4.2-1.7,3.9-3.9c0-0.3-0.5-0.8-0.7-0.8
		c-1.5,0.2-3,0.6-4.5,1.1c-0.6,0.4-1,1-1,1.8c0.1,0.6,0.9,1.2,1.5,1.7C321.7,397.8,322.2,397.7,322.3,397.7z"/>
	<path id="Path_478" class="st1" d="M276.8,354.1c0.1,2.2,0.3,4.5,0.3,6.7c0,0.2-0.4,0.7-0.6,0.7c-1.5-0.1-2.9-0.3-4.4-0.5
		c-0.4-0.1-0.9,0-1.3,0.1c-2.1,1-4.3,0.9-6.4,0.6c-2.3-0.3-3.8-2.3-3.9-4.8c-0.2-2.3,1.3-4.3,3.5-4.9c1.5-0.4,3.1-0.6,4.6-0.9
		c0.7-0.1,1.5-0.2,2.1-0.5c0.5-0.3,0.9-0.9,1-1.5c-0.1-0.6-0.6-1.2-1.2-1.4c-0.9-0.2-1.7-0.2-2.6-0.1c-1,0.1-1.4,0.8-1.8,1.7
		c-0.3,0.4-0.7,0.6-1.1,0.7c-0.9,0.1-1.9,0-2.8,0s-1.1-0.5-0.9-1.3c0.4-2.1,2.1-3.8,4.2-4.3c2.5-0.7,5.1-0.7,7.6,0
		c2.5,0.7,3.7,2.1,3.8,4.8c0,1.6,0,3.3,0,4.9L276.8,354.1z M268.1,358.6c2.5,0,4.2-1.7,3.9-3.9c0-0.3-0.5-0.8-0.7-0.8
		c-1.5,0.2-3,0.6-4.5,1.1c-0.6,0.4-1,1-1,1.8c0.1,0.6,0.9,1.2,1.5,1.7C267.5,358.7,267.9,358.6,268.1,358.6z"/>
	<path id="Path_479" class="st1" d="M327.8,354.2c0.1,2.2,0.2,4.3,0.3,6.5c0,0.6,0,0.9-0.7,0.9c-1.5-0.2-2.9-0.4-4.4-0.5
		c-0.4,0-0.9,0-1.3,0.2c-2,0.8-4.3,1-6.4,0.6c-2.3-0.3-3.7-2.3-3.8-4.8c-0.2-2.2,1.3-4.2,3.4-4.8c1.6-0.4,3.2-0.6,4.8-0.9
		c0.7-0.1,1.5-0.3,2.2-0.5c0.7-0.3,1.2-0.8,0.9-1.6c-0.2-0.6-0.7-1.1-1.3-1.4c-0.9-0.2-1.7-0.2-2.6-0.1c-1.1,0.1-1.4,0.9-1.7,1.8
		c-0.1,0.3-0.7,0.5-1.2,0.6c-0.7,0.1-1.4,0.1-2,0c-1.9,0-2.1-0.3-1.5-2c0.6-1.7,2-3,3.7-3.5c2.7-0.9,5.7-0.9,8.4,0
		c2.3,0.7,3.2,2.1,3.3,4.6c0,0.1,0,0.3,0,0.4L327.8,354.2L327.8,354.2z M319,358.6c2.5,0,4.2-1.7,3.9-3.9c0-0.3-0.5-0.8-0.7-0.8
		c-1.5,0.2-3,0.6-4.5,1.1c-0.6,0.4-1,1-1,1.8c0.1,0.6,0.9,1.2,1.5,1.7C318.5,358.7,318.9,358.6,319,358.6L319,358.6z"/>
	<path id="Path_480" class="st1" d="M402.8,315.6c0.1,2,0.3,4,0.3,6.1c0,0.2-0.4,0.7-0.6,0.7c-1.5-0.1-2.9-0.3-4.4-0.5
		c-0.4-0.1-0.9,0-1.3,0.1c-2.1,1-4.3,0.9-6.4,0.6c-2.3-0.3-3.8-2.2-3.9-4.8c-0.2-2.3,1.3-4.3,3.5-4.9c1.5-0.4,3.1-0.6,4.6-0.9
		c0.8-0.1,1.6-0.3,2.3-0.6c0.5-0.3,0.8-0.8,0.8-1.4c-0.2-0.6-0.6-1.2-1.2-1.4c-0.9-0.2-1.7-0.2-2.6-0.1c-1,0.1-1.5,0.8-1.8,1.7
		c-0.2,0.3-0.5,0.6-0.9,0.6c-1.1,0.1-2.2,0.1-3.3,0c-0.7,0-0.9-0.4-0.8-1.1c0.3-2.2,1.9-3.9,4-4.4c2.7-0.9,5.5-0.9,8.2,0
		c2.1,0.5,3.5,2.4,3.4,4.5c0,0.1,0,0.3,0,0.4v5.3L402.8,315.6z M394.1,319.5c2.4,0,4.1-1.8,3.8-3.9c0-0.3-0.5-0.8-0.7-0.7
		c-1.5,0.2-2.9,0.6-4.3,1c-0.7,0.4-1.1,1.1-1.2,1.9c0,0.9,0.8,1.5,1.8,1.7C393.7,319.5,393.9,319.5,394.1,319.5L394.1,319.5z"/>
	<path id="Path_481" class="st1" d="M378.7,315.1c-1.6,0-3.1,0-4.7,0c-1.1,0-1.4,0.5-1,1.6c0.7,1.9,2.9,2.9,4.9,2.2
		c0.4-0.1,0.7-0.3,1-0.6c1.2-1,2.8-1.5,4.3-1.2c1.2,0.1,1.3,0.3,0.9,1.4c-1,2.8-3.3,4-6.1,4.4c-0.7,0.1-1.5,0-2.2,0
		c-4.7,0.3-7.9-4.2-8-7.8c-0.1-3.2,0.6-6.1,3.2-8.2c5-4.1,11.9-1.5,13.4,3.7c0.3,1,0.5,2,0.6,3c0.1,1-0.3,1.5-1.4,1.5
		C382,315,380.3,315,378.7,315.1L378.7,315.1z M376.1,311.7L376.1,311.7c0.9,0,1.8,0,2.6,0c0.8-0.1,1-0.5,0.6-1.3
		c-0.9-1.7-3.1-2.3-4.7-1.3c-0.4,0.2-0.8,0.5-1,0.9c-0.2,0.4-0.4,0.8-0.5,1.3c0.4,0.2,0.8,0.3,1.2,0.4
		C374.9,311.8,375.5,311.8,376.1,311.7L376.1,311.7z"/>
	<path id="Path_482" class="st1" d="M309.8,322.8c-5.5,0.6-9.1-4.3-8.8-9.2c0.3-5.1,3.9-8.8,9-8.7c3.5,0.1,6.5,2.4,7.6,5.8
		c0.2,0.8,0.4,1.6,0.6,2.4c0.2,1.7-0.1,2.1-1.8,2.1c-2.2,0-4.5,0-6.7,0c-0.5,0-1.1,0-1.6,0c-0.6,0.1-1.3,0.3-1.9,0.5
		c0.1,0.8,0.4,1.5,0.7,2.2c1.2,1.6,3.6,1.9,5.2,0.7c0.1-0.1,0.2-0.1,0.3-0.2c0.8-0.7,1.8-1.2,2.9-1.1c2.7,0,2.8,0.2,1.5,2.5
		c-1.2,2.2-3.3,2.9-5.5,3.3C310.7,322.8,310.2,322.8,309.8,322.8z M309.4,308.6c-1.3,0.1-2.5,0.8-3.1,2c-0.3,0.7-0.1,1.1,0.6,1.1
		c1.6,0,3.2,0.1,4.9,0c1,0,1.1-0.5,0.6-1.4C311.7,309.3,310.6,308.6,309.4,308.6L309.4,308.6z"/>
	<path id="Path_483" class="st1" d="M285.8,275.9c-1.5,0-3,0-4.5,0c-1.5,0-1.8,0.6-1.1,2c0.9,1.9,3.2,2.6,5,1.7
		c0.3-0.2,0.6-0.3,0.8-0.6c1.4-1.3,2.9-1.1,4.5-1.1c0.8,0,0.8,0.5,0.6,1.1c-0.9,2.6-3.4,4.4-6.1,4.6c-0.7,0.1-1.5,0-2.2,0
		c-4.8,0.3-8-4.3-8-8c-0.1-3.1,0.6-5.8,3-7.9c4.8-4.2,12.1-1.9,13.6,3.8c0.3,0.8,0.4,1.7,0.5,2.6c0.1,1.4-0.2,1.7-1.5,1.8
		C288.9,275.9,287.3,275.9,285.8,275.9L285.8,275.9z M283.2,272.6L283.2,272.6c0.9,0,1.8,0,2.6,0c0.7-0.1,0.9-0.5,0.6-1.2
		c-0.6-1.2-1.8-1.9-3.1-1.9c-1.3,0-2.5,0.7-3.1,2c-0.3,0.6-0.1,1.1,0.6,1.1C281.6,272.6,282.4,272.6,283.2,272.6z"/>
	<path id="Path_484" class="st1" d="M351.5,275.9c-1.6,0-3.3,0-4.9,0c-1,0-1.3,0.5-1,1.5c0.7,2,2.9,3,4.9,2.3
		c0.4-0.2,0.8-0.4,1.2-0.7c1.3-1.2,2.8-1.2,4.3-1.2c0.9,0,1.3,0.3,0.9,1.3c-0.6,1.7-2,3.1-3.7,3.9c-3.7,1.6-8,0.8-10.8-2.2
		c-2.5-2.9-2.6-8.6-0.3-11.6c2.5-3.4,7.1-4.5,10.9-2.6c3.2,1.6,4.3,4.5,4.6,7.8c0.1,1-0.5,1.5-1.5,1.4
		C354.6,275.9,353.1,275.9,351.5,275.9L351.5,275.9z M348.9,272.6L348.9,272.6c0.9,0,1.8,0,2.6,0c0.7-0.1,0.9-0.5,0.6-1.2
		c-0.6-1.2-1.8-1.9-3.1-1.9c-1.3,0-2.5,0.7-3.1,2c-0.3,0.6-0.2,1.1,0.6,1.1C347.2,272.6,348.1,272.6,348.9,272.6L348.9,272.6z"/>
	<path id="Path_485" class="st1" d="M367.7,361.9c-5.6,0.6-9.2-4.3-8.9-9.2c0.3-5.2,4-9,9.2-8.8c3.4,0.2,6.3,2.5,7.4,5.7
		c0.3,0.9,0.5,1.8,0.6,2.8c0.1,1.4-0.2,1.7-1.6,1.7c-2.6,0-5.2,0-7.7,0c-0.5,0-1.1,0-1.6,0c-1.1,0.1-1.4,0.5-1,1.6
		c0.7,1.9,2.9,2.9,4.9,2.2c0.4-0.1,0.7-0.3,1-0.6c1.2-1,2.8-1.5,4.3-1.2c1.3,0.1,1.3,0.3,0.8,1.5c-1.1,2.7-3.3,3.8-6,4.2
		C368.6,361.9,368.2,361.9,367.7,361.9z M367.3,350.8L367.3,350.8c0.8,0,1.6,0,2.4,0s1.1-0.5,0.7-1.2c-0.6-1.2-1.8-1.9-3.2-1.8
		c-1.3,0-2.5,0.8-3.1,2c-0.3,0.7-0.1,1,0.7,1.1C365.6,350.9,366.4,350.8,367.3,350.8L367.3,350.8z"/>
	<path id="Path_486" class="st1" d="M270.2,322.8c-4.9,0.6-9-3.6-8.9-9c0.2-5.7,3.5-8.9,8.8-9c5.2,0,8.9,3.1,9,9.2
		C279.2,319,275.4,323.4,270.2,322.8z M266.3,313.8c0,0.8,0.1,1.6,0.3,2.4c0.3,1.7,1.9,3,3.6,2.9c1.8,0.1,3.4-1.1,3.6-2.9
		c0.3-1.5,0.3-3,0.1-4.4c-0.3-1.5-1.5-2.7-3-3c-1.5-0.4-2.6,0.4-3.6,1.4C266.5,311.2,266.1,312.5,266.3,313.8L266.3,313.8z"/>
	<path id="Path_487" class="st1" d="M259,314.2c0.3,2.8-1,5.6-3.3,7.2c-0.1,0-0.1,0.1-0.2,0.1c-4.6,3.4-12.4,1-13.8-4.4
		c-0.5-2-0.5-4.2,0-6.2c1.1-5.2,6.4-6.5,9.9-6C256.9,305.7,259.3,309.2,259,314.2z M254.2,314l-0.1,0c0-0.6,0-1.2,0-1.8
		c-0.3-1.9-1.8-3.3-3.7-3.5c-1.8,0.1-3.4,1.3-3.8,3.1c-0.2,1.6-0.1,3.2,0.2,4.8c0.4,1.6,1.8,2.7,3.5,2.5c1.6,0.1,3.1-0.9,3.5-2.5
		C254,315.7,254.1,314.9,254.2,314L254.2,314z"/>
	<path id="Path_488" class="st1" d="M245.2,401.1c-4.6,0.5-8.9-3.4-8.7-9.1c0.2-5.6,3.6-8.9,9-8.8c5.2,0,8.7,3.2,8.8,9.2
		C254.3,397.2,250.6,401.7,245.2,401.1z M249.3,392.5c0-1,0-1.6-0.1-2.2c-0.4-1.8-1.8-3.1-3.6-3.4c-1.8,0-3.4,1.3-3.9,3
		c-0.2,1.6-0.2,3.2,0.1,4.8c0.3,1.6,1.8,2.7,3.4,2.6c1.7,0.1,3.2-1,3.6-2.6C249.1,394,249.2,393.3,249.3,392.5L249.3,392.5z"/>
	<path id="Path_489" class="st1" d="M362.8,401.1c-5,0.6-9-3.6-8.9-8.9c0.1-5.8,3.7-9.1,9-9c5.2,0,8.7,3.2,8.8,9.2
		C371.7,397.3,367.9,401.6,362.8,401.1z M366.7,392.4c0-0.7,0-1.5-0.1-2.2c-0.4-1.8-1.9-3.1-3.7-3.3c-1.8,0.1-3.4,1.3-3.8,3.1
		c-0.2,1.5-0.2,3.1,0.1,4.6c0.3,1.7,1.8,2.9,3.5,2.7c1.7,0.1,3.2-1,3.6-2.7C366.5,393.9,366.6,393.2,366.7,392.4L366.7,392.4z"/>
	<path id="Path_490" class="st1" d="M272.9,392.1c0,2.3,0,4.6,0,6.9c0,1.1-0.4,1.7-1.5,1.6c-1.1-0.1-2.5,0.6-3.1-1.1
		c-0.3,0-0.6,0.1-0.8,0.2c-1.4,1.1-3.1,1.2-4.8,1.3c-2.8,0.3-5.3-1.7-5.6-4.5c0-0.1,0-0.3,0-0.4c-0.2-3.8-0.1-7.6-0.1-11.4
		c0-0.1,0-0.3,0.1-0.4c0.8-1.5,2.2-0.6,3.3-0.8c0.8-0.1,1.5,0.1,1.6,1.1c0,0.4,0,0.8,0,1.2c0,2.3,0,4.6,0,6.9c0,0.5,0,1,0,1.4
		c-0.1,1.5,1.1,2.8,2.6,2.9c1.6,0.2,3.1-1,3.4-2.6c0.1-0.7,0.2-1.3,0.1-2c0-2.5,0-5,0-7.5c0-1,0.4-1.6,1.4-1.5c0.1,0,0.1,0,0.2,0
		c3.2-0.2,3.3-0.1,3.3,3.1C272.9,388.4,272.9,390.3,272.9,392.1L272.9,392.1z"/>
	<path id="Path_491" class="st1" d="M406.2,313.8c0-2.3,0-4.6,0-6.9c0-1.1,0.4-1.7,1.5-1.6c0.6,0,1.2,0,1.8,0c0.3,0,0.8,0.2,0.9,0.3
		c0.5,2.2,1.3,0.6,2,0.2c2.8-1.7,7.9-1.4,9.2,2.4c0.2,0.6,0.4,1.3,0.4,2c0,3.5,0.1,6.9,0,10.4c0,1.7-0.1,1.8-1.9,1.9
		c-0.3,0-0.5,0-0.8,0c-2.2,0-2.2-0.1-2.2-2.3c0-2.9,0-5.7-0.1-8.6c0.1-1.3-0.8-2.4-2.1-2.6c-1.5-0.3-2.9,0.4-3.5,1.8
		c-0.3,0.8-0.4,1.6-0.4,2.4c-0.1,2.1,0,4.2,0,6.3c0,3,0,3-3.1,2.9c-1.7-0.1-1.8-0.2-1.9-1.9c0-0.1,0-0.1,0-0.2L406.2,313.8
		L406.2,313.8z"/>
	<path id="Path_492" class="st1" d="M276.5,392c0-2.3,0-4.6,0-6.9c0-1.1,0.4-1.7,1.6-1.6c0.6,0,1.2,0,1.8,0c0.3,0,0.9,0.2,0.9,0.4
		c0.4,2.1,1.1,0.8,1.9,0.3c2.7-1.9,8-1.6,9.4,2.3c0.2,0.6,0.4,1.3,0.4,2c0,3.5,0.1,6.9,0,10.4c0,1.7-0.1,1.8-1.9,1.9
		c-0.2,0-0.4,0-0.6,0c-2.4,0-2.4,0-2.4-2.3c0-2.8,0-5.6,0-8.4c0.1-1.1-0.5-2.2-1.6-2.6c-1.2-0.5-2.5-0.2-3.4,0.7c-0.6,0.9-1,1.9-1,3
		c-0.2,2.2-0.1,4.5-0.1,6.7c0,0.5,0,1,0,1.4c0,1-0.4,1.5-1.5,1.5c-4,0-3.5,0-3.5-3.1C276.5,395.7,276.5,393.8,276.5,392L276.5,392z"
		/>
	<path id="Path_493" class="st1" d="M360.1,274.7c0-2.3,0-4.6,0-6.9c0-1.5,0.2-1.7,1.7-1.6c1.2,0,2.8-0.6,3,1.4
		c0.3-0.1,0.7-0.2,1-0.4c1.9-1.6,4.6-2,6.9-1.1c2,0.6,3.3,2.4,3.4,4.4c0.2,3.7,0,7.5,0.1,11.2c0,1.2-0.5,1.6-1.6,1.5
		c-0.1,0-0.3,0-0.4,0c-2.9,0.1-2.9,0.1-2.9-2.9c0-2.4,0-4.9,0-7.3c0-2.1-0.8-3.1-2.3-3.2c-1.7-0.3-3.3,0.8-3.6,2.5
		c0,0.2,0,0.3-0.1,0.5c-0.2,1.7-0.1,3.5-0.1,5.3c0,1.3,0,2.6,0,3.9c0,0.9-0.5,1.3-1.4,1.4c-3.3,0.3-3.5,0.1-3.5-3.3
		C360.1,278.2,360.1,276.4,360.1,274.7L360.1,274.7z"/>
	<path id="Path_494" class="st1" d="M374.4,392.1c0-2.3,0-4.6,0-6.9c0-1.5,0.2-1.7,1.7-1.6c1.2,0,2.8-0.6,3,1.4
		c0.3-0.1,0.7-0.2,1-0.4c1.9-1.6,4.6-2,6.9-1.1c1.9,0.5,3.3,2.2,3.3,4.2c0.2,3.9,0.1,7.7,0.1,11.6c0,0.9-0.5,1.3-1.4,1.3
		c-3.3,0.3-3.5,0.1-3.5-3.3c0-2.3,0-4.6,0-6.9c0-2.1-0.8-3.1-2.3-3.2c-1.7-0.3-3.3,0.7-3.6,2.4c0,0.2-0.1,0.4-0.1,0.5
		c-0.2,2.5-0.1,5-0.1,7.5c0,3.1,0,3.1-3,3c-1.8-0.1-1.9-0.2-1.9-2C374.3,396.4,374.4,394.3,374.4,392.1z"/>
	<path id="Path_495" class="st1" d="M256.5,274.8c-0.4-3.3,1.2-6.4,4.1-8.1c3.6-2,8.1-1.3,11.1,1.5c0.1,0.1,0.2,0.2,0.3,0.3
		c0.9,0.9,1.3,2.2,1.1,3.5c-0.1,0.5-3.2,0.8-4.1,0.3c-0.4-0.2-0.7-0.6-0.9-1c-0.5-1.3-1.7-2-3.1-1.9c-1.3,0.1-2.5,0.9-3,2.2
		c-0.8,2-0.8,4.2,0,6.1c0.8,1.7,2.8,2.5,4.5,1.7c0.7-0.3,1.2-0.8,1.6-1.4c0.3-0.5,0.7-1.3,1.2-1.4c1.1-0.1,2.3-0.1,3.4,0.1
		c0.2,0,0.4,0.8,0.3,1.2c-0.6,3.2-3.4,5.5-6.6,5.7c-0.7,0-1.5,0-2.2,0c-4.2,0.1-7.6-3.3-7.7-7.5c0,0,0-0.1,0-0.1
		C256.5,275.7,256.5,275.2,256.5,274.8z"/>
	<path id="Path_496" class="st1" d="M335.6,392.8c0-1.4,0-2.7,0-4.1c0-1-0.3-1.6-1.4-1.6c-1.4,0.1-1.5-0.8-1.5-1.9
		c0-1.1,0.2-1.9,1.5-1.8c1.1,0,1.4-0.6,1.3-1.6c0-0.1,0-0.3,0-0.4c0.2-0.9,0.1-2.4,0.5-2.6c1.2-0.3,2.4-0.4,3.6-0.2
		c0.3,0,0.6,0.5,0.8,0.8c0.1,0.5,0.1,0.9,0.1,1.4c0,2.2,0,2.2,2.2,2.6c1.2,0.2,1.1,1,1.1,1.8s0.1,1.7-1.1,1.8c-0.3,0-0.5,0-0.8,0
		c-0.6-0.1-1.2,0.3-1.4,0.9c0,0.1,0,0.3,0,0.4c0,2.2,0,4.3,0,6.5c-0.1,1,0.7,1.8,1.7,1.9c0,0,0,0,0,0c0.5,0.1,1.3,0.4,1.4,0.8
		c0.1,0.9,0.1,1.9-0.1,2.8c0,0.2-0.6,0.5-1,0.5c-0.8,0.1-1.6,0.1-2.4,0c-3.2-0.2-4.5-1.5-4.5-4.8C335.6,395.1,335.6,394,335.6,392.8
		L335.6,392.8z"/>
	<path id="Path_497" class="st1" d="M302.2,353.7c0-1.4,0-2.7,0-4.1c0-1-0.3-1.6-1.4-1.6c-1.4,0.1-1.5-0.8-1.5-1.9
		c0-1.1,0.2-1.9,1.5-1.8c0.9,0,1.4-0.5,1.3-1.4c0-0.2,0-0.4,0-0.6c0.1-0.9,0.1-2.4,0.5-2.6c1.2-0.3,2.4-0.4,3.6-0.2
		c0.3,0,0.6,0.5,0.7,0.8c0.1,0.5,0.1,0.9,0.1,1.4c0,2.2,0,2.2,2.2,2.6c1.2,0.2,1.1,1,1.1,1.8s0.1,1.7-1.1,1.8c-0.3,0-0.7,0-1,0
		c-0.6-0.1-1.1,0.3-1.1,0.9c0,0.1,0,0.1,0,0.2c0,2.3,0,4.6,0,6.9c0,0.9,0.6,1.6,1.5,1.7c0.6,0.1,1.5,0.3,1.5,0.6
		c0.2,0.9,0.2,1.9,0.1,2.8c0,0.3-0.7,0.6-1.1,0.7c-0.8,0.1-1.6,0.1-2.4,0c-3.2-0.2-4.5-1.5-4.5-4.8
		C302.2,356,302.2,354.8,302.2,353.7L302.2,353.7z"/>
	<path id="Path_498" class="st1" d="M356.1,349.8c0,3.2,0,6.4,0,9.6c0,2-0.1,2.1-2,2.1c-2.9,0.1-2.9,0.1-2.9-2.9c0-6,0-11.9,0-17.9
		c0-2.5,0-2.5,2.5-2.5c0.3,0,0.5,0,0.8,0c1.5,0.1,1.6,0.2,1.7,1.7C356.1,343.2,356.1,346.5,356.1,349.8z"/>
	<path id="Path_499" class="st1" d="M245.2,271.6c0,3.3,0,6.5,0,9.8c0,1.7-0.1,1.8-1.9,1.9c-0.3,0-0.5,0-0.8,0
		c-2.2,0-2.2-0.1-2.2-2.3c0-6.2,0-12.5,0-18.7c0-2.2,0.1-2.3,2.3-2.3c0.3,0,0.7,0,1,0c1.4,0.1,1.6,0.2,1.6,1.7
		C245.2,265,245.2,268.3,245.2,271.6z"/>
	<path id="Path_500" class="st1" d="M338.1,271.6c0,3.3,0,6.5,0,9.8c0,1.8-0.1,1.8-1.8,1.9c-0.1,0-0.3,0-0.4,0c-2.7,0-2.7,0-2.7-2.7
		c0-6,0-12.1,0-18.1c0-2.5,0-2.5,2.5-2.5c0.3,0,0.5,0,0.8,0c1.5,0.1,1.6,0.2,1.6,1.7C338.2,264.9,338.1,268.2,338.1,271.6z"/>
	<path id="Path_501" class="st1" d="M329.6,271.7c0,3.2,0,6.4,0,9.6c0,1.9-0.1,1.9-2,2c-3,0.1-3,0.1-3-2.8c0-6.1,0-12.2,0-18.3
		c0-2.1,0.1-2.2,2.2-2.2c0.3,0,0.7,0,1,0c1.6,0.1,1.7,0.2,1.7,1.8C329.6,265,329.6,268.4,329.6,271.7z"/>
	<path id="Path_502" class="st1" d="M280.2,352.9c0-2.2,0-4.5,0-6.7c0-1.6,0.2-1.7,1.8-1.8c0.5,0,1,0,1.4,0c0.8,0,1.3,0.3,1.4,1.2
		c0,1.4,0.6,0.9,1.1,0.3c1-1,2.3-1.7,3.8-1.8c1-0.1,1.6,0.2,1.6,1.3c0,0.4,0,0.8,0,1.2c0,1.9,0,1.9-1.9,2c-2.4,0.1-4.3,2.2-4.3,4.6
		c-0.1,2.2,0,4.3,0,6.5c0,1.7-0.2,1.8-1.9,1.9c-0.3,0-0.5,0-0.8,0c-2.1,0-2.2-0.1-2.2-2.1C280.2,357.2,280.2,355,280.2,352.9z"/>
	<path id="Path_503" class="st1" d="M320.5,313.7c0-2.2,0-4.3,0-6.5c0-1.8,0.2-1.9,2-1.9c0.5-0.1,0.9,0,1.4,0.1
		c0.4,0.1,0.8,0.4,1,0.8c0.6,1.2,0.4,1.1,1.6,0.3c1.1-0.6,2.3-1.2,3.5-1.5c0.4-0.1,1.3,0.3,1.3,0.5c0.1,1.2,0.2,2.4,0.1,3.6
		c0,0.2-0.6,0.4-1,0.4c-3.5-0.1-5.2,2.3-5,5.2c0.1,2,0,4.1,0,6.1c0,1.1-0.4,1.6-1.5,1.6c-3.9,0-3.4,0-3.4-3.2
		C320.5,317.3,320.5,315.5,320.5,313.7z"/>
	<path id="Path_504" class="st1" d="M292.8,352.9c0-2.3,0-4.6,0-6.9c0-1.5,0.2-1.6,1.7-1.7c3.2-0.2,3.3-0.1,3.3,3.1c0,4,0,8,0,12
		c0,2-0.1,2-2.1,2.1c-0.1,0-0.3,0-0.4,0c-2.4,0-2.4,0-2.4-2.5C292.8,357,292.8,354.9,292.8,352.9L292.8,352.9z"/>
	<path id="Path_505" class="st1" d="M248.4,274.5c0-2.2,0-4.3,0-6.5c0-1.7,0.2-1.9,1.8-1.9c3.1-0.1,3.1-0.1,3.1,3.1
		c0,3.9,0,7.8,0,11.8c0,2.3,0,2.3-2.4,2.3c-0.2,0-0.4,0-0.6,0c-1.7-0.1-1.9-0.2-1.9-1.8C248.4,279.1,248.4,276.8,248.4,274.5z"/>
	<path id="Path_506" class="st1" d="M350.8,392.2c0,2.2,0,4.3,0,6.5c0,1.8-0.1,1.9-1.8,1.9c-3.1,0.1-3.1,0.1-3.1-3.1
		c0-3.9,0-7.8,0-11.8c0-2.3,0-2.3,2.4-2.3c0.1,0,0.3,0,0.4,0c2,0,2.1,0.1,2.1,2C350.8,387.8,350.8,390,350.8,392.2z"/>
	<path id="Path_507" class="st1" d="M336.2,315.4c-1.1,0-2.3,0-3.4,0c-1.1,0-1.6-0.5-1.6-1.6c0-0.5,0-0.9,0-1.4
		c-0.1-0.6,0.4-1.1,0.9-1.1c0.1,0,0.1,0,0.2,0c2.6,0,5.3,0,7.9,0c0.6-0.1,1.1,0.4,1.1,0.9c0,0.1,0,0.1,0,0.2c0,0.5,0,1.1,0,1.6
		c0.1,0.6-0.3,1.3-1,1.4c-0.1,0-0.3,0-0.4,0C338.7,315.4,337.4,315.4,336.2,315.4L336.2,315.4z"/>
	<path id="Path_508" class="st1" d="M348.4,377.3c2.1,0,3.1,1.4,2.2,3.4c-0.1,0.3-0.4,0.6-0.7,0.6c-1.1,0.1-2.3,0.1-3.4,0
		c-0.3,0-0.6-0.5-0.7-0.9c-0.1-0.5-0.1-0.9-0.1-1.4c0.1-1.5,0.2-1.7,1.8-1.7C347.9,377.3,348.2,377.3,348.4,377.3z"/>
	<path id="Path_509" class="st1" d="M250.8,264c-2.2,0-3.1-1.3-2.3-3.3c0.1-0.2,0.3-0.6,0.5-0.6c1.3-0.1,2.5-0.1,3.8,0
		c0.2,0,0.4,0.5,0.5,0.8C253.9,263.2,253.2,264.1,250.8,264z"/>
	<path id="Path_510" class="st1" d="M295.2,342.3c-2.2,0-3.1-1.3-2.3-3.4c0.1-0.3,0.4-0.6,0.7-0.7c1.1-0.1,2.3-0.1,3.4,0
		c0.3,0,0.6,0.5,0.7,0.8c0.1,0.5,0.1,0.9,0.1,1.4c0,1.5-0.2,1.7-1.8,1.8C295.7,342.3,295.5,342.3,295.2,342.3z"/>
</g>
</svg>
