<?xml version="1.0" encoding="utf-8"?>
<!-- Generator: Adobe Illustrator 25.2.3, SVG Export Plug-In . SVG Version: 6.00 Build 0)  -->
<svg version="1.1" id="Layer_1" xmlns="http://www.w3.org/2000/svg" xmlns:xlink="http://www.w3.org/1999/xlink" x="0px" y="0px"
	 viewBox="0 0 296.4 157.6" style="enable-background:new 0 0 296.4 157.6;" xml:space="preserve">
<style type="text/css">
	.st0{fill:#FFFFFF;}
</style>
<g>
	<g>
		<path class="st0" d="M228.6,77c-26.6,17-52.6,33.6-78.8,50.3c-25.8-16.7-51.6-33.3-78-50.3c26.3-16.8,52.3-33.3,78.4-49.9
			C176.1,43.5,202.1,60.1,228.6,77z M151.8,77c12,7.6,23.5,15,35.1,22.4c11.8-7.5,23.4-14.8,35.3-22.3c-12-7.6-23.5-15-35.2-22.4
			C175.3,62.1,163.8,69.4,151.8,77z M113.2,99.6c11.6-7.4,23.3-14.8,35.4-22.6c-12.2-7.7-23.8-15.1-35.3-22.5
			C101.5,62.1,90,69.3,78.1,76.9C90,84.6,101.4,92,113.2,99.6z M140.8,64.8c4.3-0.3,8.5,0,12.3-1.1c5.7-1.6,8.7-7,8.7-14.1
			c0-3.7-0.7-7.3-3.9-9.7c-5.3-4-11.3-1.7-17.1-2.4C140.8,46.7,140.8,55.3,140.8,64.8z M161.4,114.2c-2.7-8.8-5.4-17.4-8.1-26.2
			c-2.5,0.2-4.6,0.5-6.5,0.6c-2.9,8.9-5.6,17.2-8.4,25.9c1.7,0,2.9,0,4.3,0c0.7-2.4,1.3-4.6,2-7c3.3,0,6.5,0,9.8,0
			c0.7,2.5,1.4,4.9,2.1,7.4C158.2,114.7,159.6,114.5,161.4,114.2z"/>
		<path class="st0" d="M196,69.5c-1.4-0.6-2.4-1-3.5-1.4c-3.6-1.2-6.8,0.1-7.4,3.8c-0.5,2.9-0.2,6,0.3,8.9c0.5,2.5,2.5,4.2,5.3,4.2
			c2.4,0,4-1.5,5.1-4.1c1.1,0.5,2.2,0.9,3.6,1.6c-0.3,1-0.5,1.9-0.9,2.7c-2.2,3.7-5.6,5.6-9.9,5.3c-4-0.2-7.9-3.5-9-7.5
			c-1.9-6.9-1-13.1,4.4-18.2c3-2.9,9.8-3.7,13.4-1.7c0.4,0.2,0.7,0.4,1.2,0.7C197.8,66,196.9,67.7,196,69.5z"/>
		<path class="st0" d="M99.6,89.5c2.8-8.8,5.4-17.1,8.1-25.4c0.2-0.6,0.9-1.3,1.4-1.4c2-0.3,4.1-0.4,6.3-0.5
			c2.8,9,5.6,17.9,8.4,27.1c-2.2,0.4-3.9,0.7-5.9,1c-0.7-2.6-1.4-5-2.1-7.5c-2.9,0-5.8,0-8.8,0c-0.7,2.4-1.5,4.7-2.3,7.3
			C102.9,89.9,101.2,89.7,99.6,89.5z M111.8,68.7c-0.2,0-0.4,0-0.6,0c-0.9,2.9-1.9,5.8-2.9,9c2.2,0,4,0,6.1,0
			C113.5,74.6,112.7,71.7,111.8,68.7z"/>
		<path class="st0" d="M145.2,41.7c8.3-1.4,11.9,1.3,11.7,9.8c-0.1,3.4-0.3,7.2-3.9,8.7c-2,0.8-4.5,0.6-6.7,0.7c-0.3,0-1-0.8-1-1.2
			C145.1,53.7,145.2,47.7,145.2,41.7z"/>
		<path class="st0" d="M150.3,92.8c1,3.5,2,7.1,3.1,10.9c-2.6,0-4.7,0-7.5,0c1.2-3.8,2.3-7.3,3.4-10.9
			C149.7,92.7,150,92.8,150.3,92.8z"/>
	</g>
</g>
</svg>
