<?xml version="1.0" encoding="utf-8"?>
<!-- Generator: Adobe Illustrator 25.0.0, SVG Export Plug-In . SVG Version: 6.00 Build 0)  -->
<svg version="1.1" id="Layer_1" xmlns="http://www.w3.org/2000/svg" xmlns:xlink="http://www.w3.org/1999/xlink" x="0px" y="0px"
	 viewBox="0 0 296.4 157.6" style="enable-background:new 0 0 296.4 157.6;" xml:space="preserve">
<style type="text/css">
	.st0{fill:none;}
	.st1{fill:#FFFFFF;}
</style>
<rect y="0" class="st0" width="296.4" height="157.6"/>
<g id="KJV7iO_1_">
	<g>
		<path class="st1" d="M184.8,44c0.1-0.1,0.2-0.3,0.3-0.4c5.1-5.1,10.3-10.3,15.4-15.4c2.7-2.7,5.4-5.4,8.1-8.1
			c0.9-0.9,1.9-1.5,3-2.1c1.9-1,4-1.7,6.1-2.1c4-0.6,7.8-0.1,11.4,1.6c2,0.9,3.8,2.2,5.4,3.7c2.9,2.9,4.8,6.4,5.6,10.4
			c0.3,1.8,0.4,3.7,0.3,5.5c0,2.2-0.4,4.4-1,6.5c-0.1,0.5-0.2,0.5-0.7,0.5c-0.1,0-0.3,0-0.4,0c-17.6,0-35.2,0-52.8,0
			c-0.3,0-0.5,0-0.8,0C184.8,44.1,184.8,44.1,184.8,44z"/>
		<path class="st1" d="M234.3,54.6c-0.1,0.2-0.2,0.4-0.3,0.5c-1,1.3-2,2.7-3,4c-1.5,1.9-3.3,3.7-5,5.4c-2.6,2.5-5.4,4.8-8.3,6.9
			c-1.5,1-3,2-4.4,3c-0.4,0.3-0.7,0.3-1.2,0.2c-2.3-0.6-4.5-1.4-6.7-2.2c-2.5-0.9-4.9-2-7.2-3.2c-3.5-1.8-6.8-3.7-9.9-6.1
			c-1.4-1.1-2.8-2.4-4.1-3.5c-0.1,0-0.1-0.1-0.2-0.2c0.2-0.1,0.4-0.2,0.6-0.2c2.9-0.6,5.7-1.3,8.6-1.9c2.5-0.5,5.1-0.9,7.6-1.3
			c2.2-0.3,4.5-0.6,6.8-0.8c1.9-0.2,3.7-0.4,5.6-0.5c0.7-0.1,1.3-0.1,2-0.1c1.3-0.1,2.6-0.1,3.9-0.1c2.3,0,4.7-0.1,7-0.1
			c2.1,0,4.2,0.2,6.3,0.3c0.5,0,1,0.1,1.5,0.1C234,54.5,234.1,54.5,234.3,54.6z"/>
		<path class="st1" d="M175.6,45.7c20.9,0,41.8,0,62.6,0c0.1,0,0.3,0,0.5,0.1c-0.1,0.2-0.1,0.4-0.2,0.6c-0.7,1.9-1.5,3.7-2.5,5.5
			c-0.2,0.3-0.4,0.6-0.5,0.9c-0.1,0.2-0.3,0.3-0.5,0.3c-1-0.1-2-0.1-3-0.2c-0.8,0-1.6-0.1-2.4-0.1c-2.9-0.1-5.8-0.1-8.6-0.1
			c-2,0-3.9,0.1-5.9,0.2c-2.1,0.1-4.3,0.3-6.4,0.5c-2.4,0.2-4.7,0.5-7,0.8c-3.9,0.5-7.8,1.2-11.6,2c-2.3,0.5-4.5,1-6.8,1.6
			c-0.4,0.1-0.6,0-0.9-0.3c-1.6-1.8-3.1-3.7-4.3-5.9c-1-1.7-1.8-3.5-2.4-5.3c0-0.1-0.1-0.2-0.1-0.4
			C175.6,45.9,175.6,45.8,175.6,45.7z"/>
		<path class="st1" d="M204.1,22.5c-0.1,0.1-0.2,0.3-0.3,0.4c-7,7-13.9,13.9-20.9,20.9c-0.3,0.3-0.6,0.4-1,0.4c-2,0-4.1,0-6.1,0
			c-0.7,0-0.7,0-0.8-0.7c-0.3-1.6-0.6-3.2-0.5-4.9c0.1-3.5,1-6.8,2.9-9.8c1.9-3.1,4.5-5.5,7.8-7.2c2.3-1.2,4.7-1.8,7.3-2.1
			c3.8-0.3,7.4,0.5,10.8,2.2c0.3,0.2,0.6,0.3,0.9,0.5C204,22.3,204.1,22.4,204.1,22.5z"/>
		<path class="st1" d="M172.2,101.7c-1.6,0-3.2,0-4.8,0c-0.1,0-0.3,0-0.4,0c-0.4,0-0.5-0.1-0.5-0.4c0-1.2,0-2.3,0-3.5
			c0-0.4,0.1-0.4,0.5-0.4c1.2,0,2.4,0,3.7,0c0.2,0,0.3,0,0.5,0c0.5,0,0.7-0.2,0.5-0.7c-0.3-0.9-0.9-1.5-1.7-1.8
			c-1.6-0.6-3.6-0.1-4.5,1.8c-0.3,0.7-0.5,1.4-0.5,2.2c0,0.7,0,1.5,0.2,2.2c0.4,1.4,1.3,2.3,2.7,2.7c1.5,0.4,3,0.3,4.5-0.2
			c0.7-0.2,1.3-0.5,1.9-0.8c0.5-0.2,0.6-0.3,0.8,0.2c0.7,1.2,1.3,2.5,2,3.7c0.2,0.3,0.1,0.4-0.2,0.7c-1.3,0.9-2.7,1.6-4.2,1.9
			c-2.6,0.6-5.3,0.5-7.8-0.5c-2.9-1.2-4.9-3.3-5.8-6.3c-0.8-3-0.5-5.9,1.2-8.5c1.6-2.5,4-4,6.9-4.4c2.1-0.3,4.2-0.2,6.2,0.8
			c2.3,1.2,3.8,3.1,4.5,5.5c0.5,1.8,0.5,3.6,0.1,5.5c-0.1,0.5-0.2,0.6-0.7,0.6C175.6,101.7,173.9,101.6,172.2,101.7z"/>
		<path class="st1" d="M137.5,69.2c0-1.5,0-2.8,0-4.3c0.2,0,0.4-0.1,0.6-0.1c1.3,0,2.6,0,3.9,0c0.2,0,0.4,0,0.7,0
			c0-0.7-0.2-1.2-0.6-1.7c-1.2-1.4-3.4-1.5-4.8-0.2c-1,0.9-1.3,2-1.4,3.3c0,0.6,0,1.3,0.1,1.9c0.3,1.6,1.2,2.7,2.8,3.1
			c1.6,0.4,3.1,0.2,4.7-0.3c0.6-0.2,1.2-0.5,1.8-0.8c0.1,0,0.2-0.1,0.3-0.1c0.2,0.4,0.4,0.8,0.6,1.1c0.5,0.9,1,1.9,1.5,2.9
			c0.3,0.5,0.3,0.6-0.2,0.9c-1.8,1.2-3.8,2-6,2.2c-2,0.2-3.9,0-5.8-0.8c-3.6-1.5-5.8-4.1-6.2-8c-0.4-3.3,0.5-6.3,3-8.7
			c1.6-1.6,3.6-2.5,5.9-2.8c1.2-0.1,2.4-0.1,3.5,0.1c3.8,0.6,6.5,3.8,7.1,7.3c0.2,1.5,0.2,2.9-0.1,4.4c-0.1,0.5-0.2,0.6-0.7,0.6
			c-3.3,0-6.7,0-10,0C137.9,69.2,137.7,69.2,137.5,69.2z"/>
		<path class="st1" d="M46.2,128.7c0-4,0-7.9,0-11.9c0-0.8,0-0.8,0.8-0.8c5.2,0,10.5,0,15.7,0c0.8,0,0.8,0,0.8,0.8
			c0,1.5,0,2.9,0,4.4c0,0.1,0,0.3,0,0.4c0,0.3-0.1,0.4-0.4,0.4c-0.2,0-0.3,0-0.5,0c-2.9,0-5.8,0-8.7,0c-0.1,0-0.3,0-0.4,0
			c-0.7,0-0.7,0-0.7,0.7c0,6,0,12,0,18c0,0.9,0,0.9-0.9,0.9c-1.6,0-3.3,0-4.9,0c-0.1,0-0.3,0-0.4,0c-0.4,0-0.5-0.1-0.5-0.5
			c0-0.1,0-0.3,0-0.4C46.2,136.6,46.2,132.6,46.2,128.7z"/>
		<path class="st1" d="M51.7,84.8c0,0.3,0,0.5,0,0.7c0,3.3,0,6.5,0,9.8c0,1.3,0.1,2.7,0.6,4c1.1,2.5,3,3.8,5.7,4
			c1.1,0.1,2.2,0,3.3-0.4c1.3-0.6,2.4-1.4,3.2-2.6c0.2-0.2,0.3-0.5,0.5-0.7c0.3-0.4,0.3-0.4,0.7-0.1c0.9,0.6,1.7,1.2,2.6,1.8
			c0.6,0.4,1.1,0.8,1.7,1.2c0.1,0.1,0.2,0.1,0.3,0.2c-0.3,0.7-0.7,1.2-1.1,1.8c-1.1,1.4-2.4,2.6-3.9,3.4c-1.7,0.9-3.4,1.4-5.3,1.6
			c-1.5,0.1-3,0-4.5-0.3c-2.2-0.4-4.1-1.4-5.8-2.8c-1.8-1.5-3.2-3.3-4-5.5c-0.5-1.3-0.7-2.6-0.8-4c0-1.5,0.1-3,0.5-4.5
			c0.5-1.7,1.4-3.3,2.6-4.7c0.9-1,1.9-1.9,3-2.6C51.3,85,51.4,85,51.7,84.8z"/>
		<path class="st1" d="M54.3,73.5c0-0.8,0-1.6,0-2.5c0-0.5,0.1-0.6,0.6-0.6c0.9,0,1.9-0.1,2.7-0.4c1.4-0.4,2.6-1.2,3.5-2.5
			c0.6-0.9,0.9-1.9,1-2.9c0.1-1.1,0.1-2.3-0.2-3.4c-0.6-2.1-2.1-3.3-4.2-4c-0.8-0.3-1.6-0.4-2.5-0.4c-0.2,0-0.4,0-0.6,0
			c-0.2,0-0.3-0.1-0.3-0.3c0-0.1,0-0.2,0-0.3c0-1.6,0-3.2,0-4.9c0-0.5,0.1-0.6,0.5-0.6c2.7-0.1,5.2,0.4,7.6,1.6
			c2.2,1.1,3.9,2.7,5.1,4.8c0.7,1.3,1.2,2.7,1.4,4.2c0.2,1.7,0.2,3.5-0.2,5.2c-0.7,2.9-2.3,5.1-4.6,6.9c-2,1.5-4.2,2.3-6.7,2.6
			c-0.8,0.1-1.5,0.1-2.3,0.2c-0.8,0-0.8,0-0.8-0.8C54.3,75.1,54.3,74.3,54.3,73.5z"/>
		<path class="st1" d="M132,94.5c0-4.6,0-9.1,0-13.7c0-0.8,0-0.8,0.8-0.8c1.7,0,3.5,0,5.2,0c0.7,0,0.8,0,0.8,0.8c0,3.3,0,6.7,0,10
			c0,5.8,0,11.6,0,17.4c0,0.9,0,0.9-0.9,0.9c-1.7,0-3.3,0-5,0c-0.1,0-0.3,0-0.4,0c-0.4,0-0.4-0.1-0.4-0.4c0-0.2,0-0.4,0-0.5
			C132,103.6,132,99,132,94.5z"/>
		<path class="st1" d="M114.5,94.5c0,4.6,0,9.1,0,13.7c0,0.9,0,0.9-0.9,0.9c-1.7,0-3.3,0-5,0c-0.1,0-0.3,0-0.4,0
			c-0.4,0-0.5-0.1-0.5-0.5c0-0.2,0-0.3,0-0.5c0-9,0-18.1,0-27.1c0-1,0-0.9,0.9-0.9c1.7,0,3.4,0,5.1,0c0.7,0,0.7,0,0.7,0.7
			C114.5,85.3,114.5,89.9,114.5,94.5z"/>
		<path class="st1" d="M148.7,127c0-4.5,0-9.1,0-13.6c0-0.9,0-0.9,0.9-0.9c1.7,0,3.4,0,5.1,0c0.7,0,0.8,0,0.8,0.8c0,5,0,10,0,15
			c0,4.1,0,8.3,0,12.4c0,0.9,0,0.9-0.9,0.9c-1.7,0-3.3,0-5,0c-0.1,0-0.3,0-0.4,0c-0.4,0-0.4-0.1-0.5-0.5c0-0.2,0-0.4,0-0.5
			C148.7,136,148.7,131.5,148.7,127z"/>
		<path class="st1" d="M73.8,94.5c0-4.5,0-9.1,0-13.6c0-0.8,0-0.8,0.8-0.8c1.7,0,3.3,0,5,0c0.1,0,0.3,0,0.4,0c0.3,0,0.4,0.1,0.4,0.4
			c0,0.1,0,0.3,0,0.4c0,9.2,0,18.3,0,27.5c0,0.8,0,0.8-0.8,0.8c-1.7,0-3.4,0-5.1,0c-0.7,0-0.8,0-0.8-0.8c0-2.1,0-4.1,0-6.2
			C73.8,99.6,73.8,97,73.8,94.5z"/>
		<path class="st1" d="M162.5,129.8c-0.4-0.5-0.7-0.9-1-1.4c-0.6-0.8-1.2-1.6-1.7-2.4c-0.4-0.5-0.4-0.5,0.1-0.9
			c2.6-2.5,5.7-3.7,9.3-3.4c1.4,0.1,2.7,0.4,3.9,1.1c2,1.1,3.2,2.7,3.7,4.9c0.2,0.9,0.3,1.9,0.3,2.9c0,3.4,0,6.8,0,10.3
			c0,0.1,0,0.1,0,0.2c0,0.5-0.1,0.6-0.6,0.6c-1.9,0-3.7,0-5.6,0c-0.5,0-0.5-0.1-0.6-0.6c0-1.5,0-3.1,0-4.6c0-2,0-4,0-6.1
			c0-0.2,0-0.4,0-0.7c-0.1-1.1-0.7-1.8-1.8-2.1c-1.3-0.3-2.6-0.1-3.8,0.6c-0.6,0.4-1.1,0.8-1.7,1.2
			C162.9,129.5,162.7,129.6,162.5,129.8z"/>
		<path class="st1" d="M147.2,127.8c-0.8,0-1.5,0-2.1,0c-2,0-3.3,1.2-3.6,3.2c-0.1,0.7-0.1,1.3,0,2c0.3,1.7,1.7,2.8,3.5,2.9
			c0.6,0,1.1,0,1.7,0c0.5,0,0.6,0,0.6,0.5c0,1.5,0,3,0,4.5c0,0.4-0.2,0.6-0.5,0.7c-1.3,0.5-2.6,0.6-3.9,0.5
			c-1.4-0.1-2.7-0.5-3.9-1.2c-1.7-1.1-2.9-2.5-3.7-4.4c-1-2.6-1.2-5.3-0.4-7.9c1-3.5,3.3-5.8,6.9-6.5c1.6-0.4,3.3-0.3,4.9,0.3
			c0.6,0.2,0.6,0.2,0.6,0.8c0,1.4,0,2.8,0,4.3C147.2,127.4,147.2,127.6,147.2,127.8z"/>
		<path class="st1" d="M130.6,95.3c-0.8,0-1.6,0-2.3,0c-1,0-1.9,0.4-2.6,1.2c-0.3,0.3-0.5,0.7-0.6,1.1c-0.4,1.2-0.5,2.5,0.1,3.7
			c0.6,1.3,1.7,2,3.1,2.1c0.6,0.1,1.2,0,1.9,0c0.6,0,0.6,0,0.6,0.6c0,1.1,0,2.3,0,3.4c0,0.3,0,0.6,0,0.9c0,0.4-0.1,0.6-0.5,0.7
			c-1.2,0.4-2.5,0.6-3.8,0.5c-0.9-0.1-1.7-0.2-2.6-0.5c-2.1-0.8-3.6-2.2-4.6-4.1c-1.2-2.1-1.5-4.5-1.3-6.9c0.2-1.6,0.6-3.1,1.5-4.5
			c1.5-2.4,3.6-3.8,6.4-4.2c1.4-0.2,2.8-0.1,4.2,0.4c0.6,0.2,0.6,0.2,0.6,0.9c0,1.4,0,2.8,0,4.2C130.6,94.9,130.6,95.1,130.6,95.3z"
			/>
		<path class="st1" d="M52.9,63.8c0,4,0,8,0,12c0,0.8,0,0.8-0.8,0.8c-1.7,0-3.4,0-5,0c-0.1,0-0.3,0-0.4,0c-0.3,0-0.4-0.1-0.4-0.4
			c0-0.1,0-0.3,0-0.4c0-8,0-15.9,0-23.9c0-0.9,0-0.9,0.9-0.9c1.7,0,3.3,0,5,0c0.2,0,0.3,0,0.5,0c0.2,0,0.3,0.1,0.3,0.3
			c0,0.2,0,0.4,0,0.5C52.9,55.9,52.9,59.9,52.9,63.8z"/>
		<path class="st1" d="M200.5,102.7c0,1.9,0,3.7,0,5.6c0,0.8,0,0.8-0.8,0.8c-1.7,0-3.5,0-5.2,0c-0.1,0-0.3,0-0.4,0
			c-0.2,0-0.3-0.1-0.3-0.3c0-0.2,0-0.4,0-0.5c0-3.3,0-6.7,0-10c0-0.5-0.1-1-0.3-1.5c-0.6-1.1-1.6-1.4-2.7-1.4c0,0-0.1,0-0.1,0
			c-1.1,0.2-1-0.1-1-0.9c0-1.3,0-2.6,0-3.9c0-0.6,0-0.6,0.6-0.8c1.8-0.5,3.5-0.6,5.3-0.1c1.7,0.5,3,1.6,3.9,3.1c0.6,1.1,1,2.2,1,3.5
			C200.5,98.3,200.5,100.5,200.5,102.7C200.6,102.7,200.5,102.7,200.5,102.7z"/>
		<path class="st1" d="M251.5,135c0,1.9,0,3.7,0,5.6c0,0.1,0,0.3,0,0.4c0,0.4-0.1,0.5-0.5,0.5c-0.1,0-0.2,0-0.3,0
			c-1.7,0-3.5,0-5.2,0c-0.1,0-0.1,0-0.2,0c-0.5,0-0.5-0.1-0.6-0.5c0-0.6,0-1.1,0-1.7c0-2.9,0-5.8,0-8.7c0-0.7-0.1-1.3-0.5-1.8
			c-0.7-0.9-1.6-1.1-2.7-1c-0.9,0.1-0.9,0.1-0.9-0.8c0-1.4,0-2.7,0-4.1c0-0.5,0-0.5,0.5-0.7c1.8-0.6,3.6-0.7,5.5-0.1
			c2,0.6,3.4,2,4.2,3.9c0.5,1.2,0.7,2.4,0.7,3.7C251.5,131.3,251.5,133.2,251.5,135C251.5,135,251.5,135,251.5,135z"/>
		<path class="st1" d="M120.5,127.7c0-0.3,0-0.6,0-0.8c0-1.4,0-2.8,0-4.2c0-0.5,0.1-0.5,0.5-0.7c1.6-0.5,3.1-0.7,4.7-0.3
			c2.7,0.6,4.4,2.3,5.2,4.9c0.3,1,0.4,2,0.4,3c0,3.6,0,7.2,0,10.9c0,0.1,0,0.1,0,0.2c0,0.6-0.1,0.7-0.7,0.7c-1.8,0-3.6,0-5.4,0
			c-0.1,0-0.2,0-0.3,0c-0.2,0-0.3-0.1-0.3-0.4c0-0.2,0-0.3,0-0.5c0-3.2,0-6.5,0-9.7c0-0.3,0-0.7,0-1c-0.2-1.4-1.2-2.2-2.7-2.3
			c-0.2,0-0.5,0-0.7,0C121,127.7,120.8,127.7,120.5,127.7z"/>
		<path class="st1" d="M92.7,102.3c0,2,0,3.9,0,5.9c0,0.1,0,0.3,0,0.4c0,0.3-0.1,0.4-0.4,0.4c-0.1,0-0.2,0-0.3,0c-1.7,0-3.5,0-5.2,0
			c-0.1,0-0.2,0-0.3,0c-0.3,0-0.4-0.2-0.4-0.4c0-0.2,0-0.4,0-0.5c0-3.3,0-6.6,0-9.9c0-0.6-0.1-1.2-0.4-1.7c-0.6-1.1-1.7-1.3-2.8-1.3
			c-0.9,0.1-0.9,0.1-0.9-0.8c0-1.3,0-2.6,0-3.9c0-0.7,0-0.7,0.6-0.9c2.2-0.7,4.3-0.7,6.4,0.3c1.5,0.7,2.5,1.9,3.1,3.4
			c0.4,1.1,0.7,2.2,0.7,3.4C92.7,98.6,92.7,100.5,92.7,102.3C92.7,102.3,92.7,102.3,92.7,102.3z"/>
		<path class="st1" d="M100.1,135.7c0,0.2,0,0.4,0,0.5c0,1.6,0,3.3,0,4.9c0,0.6,0,0.7-0.7,0.7c-1.8,0.1-3.5-0.1-5.1-0.9
			c-2.8-1.4-4.5-3.7-4.9-6.9c-0.1-0.5-0.1-1.1-0.1-1.6c0-3.2,0-6.4,0-9.6c0-0.8,0-0.8,0.8-0.8c1.7,0,3.4,0,5.1,0c0.2,0,0.3,0,0.5,0
			c0.2,0,0.3,0.1,0.3,0.3c0,0.2,0,0.4,0,0.5c0,3.1,0,6.3,0,9.4c0,0.4,0,0.8,0.1,1.1c0.2,1.2,1.2,2.1,2.4,2.2
			C99,135.7,99.5,135.7,100.1,135.7z"/>
		<path class="st1" d="M71.9,122.3c0,0.3,0,0.6,0,0.8c0,2.8,0,5.6,0,8.4c0,0.5,0,1,0.1,1.5c0.4,1.6,1.7,2.7,3.4,2.7
			c0.8,0,1.6-0.1,2.4-0.3c0,0.2,0.1,0.4,0.1,0.5c0,1.7,0,3.5,0,5.2c0,0.5,0,0.5-0.5,0.6c-2.4,0.4-4.7,0.1-6.9-1
			c-1.8-0.9-3.2-2.3-4.2-4c-1.9-3.3-1.7-8.1,0.9-11.2c1.1-1.3,2.5-2.4,4.1-3C71.5,122.4,71.6,122.4,71.9,122.3z"/>
		<path class="st1" d="M214.9,122.4c0,0.3,0,0.5,0,0.7c0,2.8,0,5.6,0,8.4c0,0.7,0,1.3,0.3,1.9c0.5,1.4,1.7,2.2,3.2,2.3
			c0.7,0,1.3,0,2-0.2c0.1,0,0.2,0,0.4-0.1c0,0.2,0.1,0.4,0.1,0.6c0,1.7,0,3.4,0,5c0,0.6,0,0.6-0.6,0.7c-2,0.4-4,0.1-5.9-0.7
			c-2.5-1.1-4.4-2.9-5.6-5.4c-0.7-1.7-0.9-3.4-0.7-5.2c0.3-2.3,1.3-4.2,2.9-5.8c1-1,2.1-1.7,3.4-2.2c0.1,0,0.2-0.1,0.3-0.1
			C214.7,122.4,214.8,122.4,214.9,122.4z"/>
		<path class="st1" d="M79.8,63.2c0-0.2,0-0.4,0-0.6c0-1.7,0-3.3,0-5c0-0.6,0.1-0.7,0.7-0.8c3.4-0.5,6.5,0.4,9.1,2.8
			c2.1,2,3.2,4.4,3.1,7.3c0,3.7-1.7,6.5-4.8,8.5c-0.4,0.3-0.9,0.5-1.4,0.7c-0.2,0.1-0.3,0.1-0.6,0.2c0-0.3-0.1-0.6-0.1-0.8
			c0-2.8,0-5.5,0-8.3c0-0.5-0.1-1.1-0.2-1.6c-0.4-1.6-1.4-2.4-3-2.7c-0.8-0.1-1.5,0-2.3,0.2C80.1,63.2,80,63.2,79.8,63.2z"/>
		<path class="st1" d="M84.3,70.5c0,0.2,0,0.4,0,0.6c0,1.7,0,3.3,0,5c0,0.7,0,0.7-0.7,0.8c-3.1,0.4-6-0.2-8.4-2.2
			c-1.4-1.1-2.5-2.5-3.1-4.3c-0.5-1.3-0.6-2.6-0.6-4c0.1-1.6,0.5-3,1.2-4.4c1.2-2.1,2.8-3.5,5-4.4c0.1,0,0.2-0.1,0.4-0.1
			c0,0,0.1,0,0.2,0c0,0.2,0.1,0.4,0.1,0.7c0,2.7,0,5.3,0,8c0,0.7,0.1,1.4,0.2,2c0.4,1.7,1.7,2.7,3.4,2.7c0.7,0,1.3,0,1.9-0.2
			C84,70.5,84.1,70.6,84.3,70.5z"/>
		<path class="st1" d="M121.2,76.9c0-0.3,0-0.5,0-0.7c0-1.4,0-2.8,0-4.2c0-0.2,0-0.3,0-0.5c0-0.8-0.4-1.3-1.1-1.5
			c-1.3-0.5-2.5-1-3.8-1.6c-0.9-0.4-1.8-1-2.5-1.7c-1-1-1.5-2.2-1.5-3.6c0-1,0.1-1.9,0.5-2.8c0.6-1.2,1.5-2,2.6-2.6
			c0.8-0.4,1.6-0.7,2.5-0.8c0.2,0,0.4,0,0.6,0c0,0.2,0,0.4,0,0.6c0,1.4,0,2.8,0,4.1c0,0.2,0,0.4,0,0.7c0,0.5,0.3,1,0.8,1.2
			c0.3,0.1,0.6,0.3,0.8,0.4c1.2,0.5,2.5,1,3.7,1.6c0.8,0.4,1.5,0.9,2.1,1.5c0.8,0.8,1.3,1.9,1.4,3.1c0,0.6,0,1.2-0.1,1.7
			c-0.3,1.9-1.4,3.2-3.1,4.1c-0.8,0.4-1.7,0.7-2.6,0.9C121.6,76.9,121.4,76.8,121.2,76.9z"/>
		<path class="st1" d="M222.4,141.3c0-0.3,0-0.6,0-0.8c0-2.8,0-5.6,0-8.4c0-0.5,0-1-0.1-1.5c-0.3-1.5-1.5-2.6-3.1-2.7
			c-0.8-0.1-1.6,0-2.3,0.2c-0.1,0-0.2,0-0.3,0.1c0-0.2-0.1-0.3-0.1-0.5c0-1.7,0-3.5,0-5.2c0-0.5,0.1-0.6,0.6-0.7
			c2.6-0.4,5.1,0,7.3,1.4c1.4,0.9,2.6,2,3.5,3.5c0.8,1.3,1.3,2.8,1.4,4.3c0.1,2.2-0.3,4.2-1.5,6.1c-1.2,1.8-2.7,3.2-4.7,4
			C222.8,141.1,222.6,141.2,222.4,141.3z"/>
		<path class="st1" d="M79.3,141.3c0-0.3-0.1-0.5-0.1-0.8c0-2.8,0-5.5,0-8.3c0-0.6,0-1.1-0.2-1.7c-0.4-1.5-1.5-2.5-3-2.7
			c-0.8-0.1-1.5,0-2.2,0.2c-0.1,0-0.3,0.1-0.5,0.1c0-0.2,0-0.4,0-0.6c0-1.7,0-3.4,0-5.1c0-0.6,0.1-0.6,0.6-0.7
			c1.9-0.3,3.7-0.1,5.5,0.6c2.4,0.9,4.3,2.6,5.5,4.8c0.7,1.2,1,2.4,1.1,3.8c0.1,1.9-0.1,3.7-1,5.4c-1.1,2.1-2.8,3.7-5.1,4.7
			C79.8,141.1,79.6,141.2,79.3,141.3z"/>
		<path class="st1" d="M224.4,106.3c0-0.7,0-1.3,0-2c0-1.2-0.2-1.5-1.3-2c-1.2-0.5-2.4-1-3.5-1.5c-0.9-0.4-1.7-1-2.4-1.6
			c-1.4-1.3-1.8-2.9-1.6-4.8c0.3-2.4,1.8-3.8,4-4.6c0.5-0.2,1.1-0.3,1.6-0.4c0.5-0.1,0.6,0,0.6,0.5c0,1.4,0,2.8,0,4.2
			c0,1.4,0.2,1.7,1.5,2.3c1.3,0.5,2.6,1,3.8,1.6c1,0.5,1.9,1.1,2.6,2c0.6,0.9,1,1.8,1,2.9c0,0.7,0,1.3-0.2,1.9
			c-0.3,1.1-0.9,2.1-1.8,2.8c-1.1,0.9-2.3,1.4-3.7,1.7c-0.5,0.1-0.6,0-0.6-0.5C224.4,108,224.4,107.2,224.4,106.3
			C224.4,106.3,224.4,106.3,224.4,106.3z"/>
		<path class="st1" d="M198,131.8c0-3,0-5.9,0-8.9c0-0.8,0-0.8,0.8-0.8c1.7,0,3.5,0,5.2,0c0.1,0,0.3,0,0.4,0c0.3,0,0.4,0.1,0.4,0.4
			c0,0.1,0,0.3,0,0.4c0,5.9,0,11.9,0,17.8c0,0.1,0,0.1,0,0.2c0,0.6-0.1,0.7-0.7,0.7c-1.8,0-3.6,0-5.4,0c-0.6,0-0.7-0.1-0.7-0.7
			C198,137.8,198,134.8,198,131.8z"/>
		<path class="st1" d="M112.4,131.8c0-3,0-5.9,0-8.9c0-0.8,0-0.8,0.8-0.8c1.7,0,3.4,0,5.1,0c0.1,0,0.3,0,0.4,0
			c0.3,0,0.4,0.1,0.4,0.4c0,0.1,0,0.3,0,0.4c0,5.9,0,11.8,0,17.7c0,0.9,0,0.9-0.9,0.9c-1.7,0-3.4,0-5.1,0c-0.2,0-0.3,0-0.5,0
			c-0.2,0-0.3-0.1-0.3-0.3c0-0.2,0-0.4,0-0.5C112.4,137.7,112.4,134.7,112.4,131.8z"/>
		<path class="st1" d="M95.9,66.8c0-2.9,0-5.8,0-8.7c0-0.1,0-0.3,0-0.4c0-0.4,0.1-0.5,0.5-0.5c1.9,0,3.9,0,5.8,0
			c0.4,0,0.5,0.1,0.5,0.5c0,0.1,0,0.3,0,0.4c0,5.9,0,11.7,0,17.6c0,0.9,0,0.9-0.9,0.9c-1.6,0-3.3,0-4.9,0c0,0,0,0-0.1,0
			c-0.9,0-0.9,0-0.9-0.9C95.9,72.8,95.9,69.8,95.9,66.8z"/>
		<path class="st1" d="M149.7,99.3c0,3,0,5.9,0,8.9c0,0.8,0,0.8-0.8,0.8c-1.7,0-3.4,0-5.1,0c-0.1,0-0.2,0-0.3,0
			c-0.4,0-0.4-0.1-0.5-0.5c0-0.2,0-0.3,0-0.5c0-5.8,0-11.7,0-17.5c0-1,0-1,1-1c1.7,0,3.3,0,5,0c0.1,0,0.3,0,0.4,0
			c0.2,0,0.4,0.1,0.4,0.4c0,0.2,0,0.3,0,0.5C149.7,93.4,149.7,96.4,149.7,99.3z"/>
		<path class="st1" d="M239.2,131.8c0,2.9,0,5.8,0,8.7c0,0.1,0,0.3,0,0.4c0,0.6-0.1,0.6-0.6,0.6c-1.8,0-3.6,0-5.4,0
			c-0.7,0-0.7-0.1-0.7-0.7c0-4.9,0-9.8,0-14.7c0-1.1,0-2.2,0-3.3c0-0.6,0.1-0.7,0.7-0.7c1.8,0,3.6,0,5.4,0c0.1,0,0.2,0,0.3,0
			c0.2,0,0.4,0.2,0.4,0.4c0,0.2,0,0.4,0,0.5C239.2,125.9,239.2,128.9,239.2,131.8z"/>
		<path class="st1" d="M96.8,99.3c0-2.9,0-5.8,0-8.7c0-0.1,0-0.3,0-0.4c0-0.5,0.1-0.6,0.6-0.6c1.9,0,3.7,0,5.6,0
			c0.5,0,0.6,0.1,0.6,0.6c0,0.1,0,0.2,0,0.3c0,5.9,0,11.8,0,17.7c0,0.9,0,0.9-0.9,0.9c-1.7,0-3.3,0-5,0c-0.2,0-0.3,0-0.5,0
			c-0.2,0-0.4-0.1-0.4-0.4c0-0.2,0-0.3,0-0.5C96.8,105.2,96.8,102.2,96.8,99.3z"/>
		<path class="st1" d="M188.2,99.3c0,2.9,0,5.8,0,8.7c0,0.1,0,0.3,0,0.4c0,0.5-0.1,0.6-0.6,0.6c-1.4,0-2.7,0-4.1,0c-0.5,0-1,0-1.5,0
			c-0.4,0-0.5-0.1-0.5-0.5c0-0.1,0-0.3,0-0.4c0-5.9,0-11.7,0-17.6c0-0.9,0-0.9,0.9-0.9c1.6,0,3.3,0,4.9,0c0.2,0,0.3,0,0.5,0
			c0.2,0,0.4,0.1,0.4,0.4c0,0.2,0,0.3,0,0.5C188.2,93.4,188.2,96.4,188.2,99.3z"/>
		<path class="st1" d="M101.6,141.5c0-0.3,0-0.5,0-0.7c0-6,0-12.1,0-18.1c0-0.1,0-0.3,0-0.4c0-0.2,0.1-0.3,0.3-0.3
			c0.1,0,0.3,0,0.4,0c1.8,0,3.5,0,5.3,0c0.1,0,0.2,0,0.3,0c0.3,0,0.4,0.1,0.4,0.4c0,0.1,0,0.3,0,0.4c0,3.1,0,6.1,0,9.2
			c0,1.6-0.2,3.2-0.9,4.7c-1.1,2.2-2.8,3.8-5.1,4.6C102.1,141.4,101.9,141.5,101.6,141.5z"/>
		<path class="st1" d="M158,62.8c-2.2,0-4.4,0-6.6,0c-0.2,0-0.3,0-0.5,0c-0.2,0-0.3-0.1-0.3-0.3c0-0.1,0-0.2,0-0.3
			c0-1.5,0-2.9,0-4.4c0-0.6,0-0.6,0.6-0.6c0.5,0,1.1,0,1.6,0c0.7,0,0.7,0,0.7-0.7c0-1,0-2.1,0-3.1c0-0.1,0-0.3,0-0.4
			c0-0.2,0.1-0.3,0.3-0.3c0.1,0,0.3,0,0.4,0c1.7,0,3.5,0,5.2,0c0.1,0,0.2,0,0.3,0c0.3,0,0.4,0.1,0.4,0.4c0,0.1,0,0.3,0,0.4
			c0,1,0,1.9,0,2.9c0,0.9,0,0.9,0.9,0.9c1.2,0,2.3,0,3.5,0c0.1,0,0.3,0,0.4,0c0.2,0,0.4,0.1,0.4,0.4c0,0.1,0,0.1,0,0.2
			c0,1.5,0,2.9,0,4.4c0,0.6-0.1,0.7-0.7,0.7C162.6,62.8,160.3,62.8,158,62.8z"/>
		<path class="st1" d="M186.7,127.7c-2.1,0-4.3,0-6.4,0c-0.1,0-0.3,0-0.4,0c-0.6,0-0.6-0.1-0.6-0.6c0-1.5,0-3,0-4.5
			c0-0.5,0.1-0.6,0.6-0.6c0.6,0,1.2,0,1.8,0c0.5,0,0.5-0.1,0.5-0.5c0-1.1,0-2.1,0-3.2c0-0.2,0-0.3,0-0.5c0-0.2,0.1-0.3,0.3-0.3
			c0.1,0,0.2,0,0.3,0c1.8,0,3.6,0,5.4,0c0.1,0,0.1,0,0.2,0c0.3,0,0.4,0.1,0.4,0.4c0,0.5,0,0.9,0,1.4c0,0.7,0,1.5,0,2.2
			c0,0.5,0.1,0.6,0.6,0.6c1.2,0,2.4,0,3.6,0c0.2,0,0.3,0,0.5,0c0.5,0,0.5,0.1,0.5,0.6c0,1.3,0,2.6,0,3.9c0,0.3,0,0.5,0,0.8
			c0,0.3-0.1,0.4-0.4,0.4c-0.2,0-0.3,0-0.5,0C191.1,127.7,188.9,127.7,186.7,127.7z"/>
		<path class="st1" d="M182.3,129.2c0.2,0,0.4,0,0.5,0c1.8,0,3.6,0,5.5,0c0.1,0,0.1,0,0.2,0c0.5,0,0.5,0.1,0.5,0.5
			c0,1.2,0,2.4,0,3.5c0,0.2,0,0.5,0,0.7c0.2,1.1,0.8,1.7,1.9,1.9c0.8,0.1,1.7,0.2,2.6,0.1c0.3,0,0.5,0,0.8,0c0.4,0,0.4,0.1,0.5,0.4
			c0,0.1,0,0.1,0,0.2c0,1.5,0,2.9,0,4.4c0,0.5,0,0.6-0.5,0.7c-2.3,0.5-4.5,0.5-6.8-0.1c-1.7-0.5-3.1-1.4-4.1-2.9
			c-0.5-0.8-0.8-1.7-0.9-2.7c-0.1-0.7-0.1-1.5-0.1-2.2c0-1.3,0-2.5,0-3.8C182.3,129.6,182.3,129.4,182.3,129.2z"/>
		<path class="st1" d="M156.9,64.2c0.9,0,1.7,0,2.6,0c0.7,0,0.7,0,0.7,0.7c0,1.1,0,2.2,0,3.3c0,0.4,0,0.8,0.1,1.1
			c0.1,0.7,0.5,1.2,1.2,1.4c0.5,0.1,1,0.2,1.5,0.3c0.7,0,1.3,0,2-0.1c0.1,0,0.2,0,0.3,0c0.6,0,0.6,0.1,0.6,0.6c0,1.5,0,3,0,4.5
			c0,0.5,0,0.5-0.5,0.6c-2.3,0.5-4.7,0.6-7-0.1c-2.8-0.8-4.5-2.8-4.8-5.8c-0.1-1.2-0.1-2.4-0.1-3.6c0-0.7,0-1.5,0-2.2
			c0-0.7,0-0.7,0.7-0.7C155.1,64.2,156,64.2,156.9,64.2z"/>
		<path class="st1" d="M65.3,93.3c-1.3-2.1-2.9-3.7-5.4-4c-2.4-0.4-4.6,0.1-6.6,1.7c0-0.2-0.1-0.3-0.1-0.5c0-2,0-4,0-6.1
			c0-0.3,0.1-0.5,0.5-0.6c1.3-0.4,2.6-0.7,4-0.8c2-0.2,4,0.1,5.9,0.8c2.8,1,5,2.8,6.6,5.3c0.5,0.8,0.4,0.7-0.3,1.2
			c-1.3,0.9-2.6,1.8-3.9,2.6C65.7,93.1,65.6,93.2,65.3,93.3z"/>
		<path class="st1" d="M168.9,139.1c0,0.5,0,1.1,0,1.6c0,0.3-0.1,0.5-0.4,0.7c-1.2,0.5-2.5,0.7-3.7,0.6c-0.8-0.1-1.5-0.2-2.2-0.4
			c-2.1-0.8-3.7-2.9-3.8-5.2c0-0.7,0-1.5,0.2-2.2c0.3-1,1-1.9,1.8-2.5c1-0.8,2.2-1.2,3.5-1.4c1.4-0.2,2.8-0.1,4.2-0.1
			c0.3,0,0.4,0.1,0.4,0.4c0,1.1,0,2.1,0,3.2c0,0.3-0.1,0.4-0.4,0.4c-0.6,0-1.1,0-1.7,0.1c-0.9,0.1-1.3,0.6-1.3,1.5
			c0,0.6,0.3,0.9,0.9,1.1c0.6,0.2,1.2,0.2,1.8,0.1c0.1,0,0.2,0,0.3,0c0.3,0,0.4,0,0.4,0.4c0,0.4,0,0.9,0,1.3
			C168.9,138.9,168.9,139,168.9,139.1C168.9,139.1,168.9,139.1,168.9,139.1z"/>
		<path class="st1" d="M212.5,83.5c0,0.2,0,0.4-0.1,0.6c-0.7,3.3-1.5,6.7-2.2,10c-0.1,0.6-0.2,0.6-0.8,0.6c-1.3,0-2.5,0-3.8,0
			c-0.6,0-0.7,0-0.7-0.6c0-3.3,0-6.7,0-10c0-0.6,0.1-0.6,0.6-0.6c2.1,0,4.3,0,6.4,0C212.2,83.5,212.3,83.5,212.5,83.5z"/>
		<path class="st1" d="M100.1,78.9c2-0.1,3.7,1.4,4.1,3c0.5,2.2-0.8,4.3-3,4.8c-1.3,0.3-2.5,0.1-3.6-0.7c-2.1-1.5-2.1-4.8,0.1-6.3
			C98.4,79.1,99.2,78.8,100.1,78.9z"/>
		<path class="st1" d="M205.5,115.3c0.1,1.9-1.7,3.8-3.8,3.9c-1.7,0.1-3.1-0.5-3.9-2c-1.6-2.8,0.6-5.8,3.1-5.9c0.6,0,1.3,0,1.9,0.2
			C204.3,112,205.6,113.4,205.5,115.3z"/>
		<path class="st1" d="M58,126.8c1,0,2,0,3,0c0.5,0,0.6,0.1,0.6,0.6c0,1.6,0,3.3,0,4.9c0,0.5-0.1,0.5-0.5,0.5c-2.1,0-4.1,0-6.2,0
			c-0.5,0-0.5-0.1-0.5-0.5c0-1.7,0-3.3,0-5c0-0.5,0.1-0.5,0.6-0.5C55.9,126.7,57,126.8,58,126.8z"/>
		<path class="st1" d="M217.4,101.8c0.2,0.2,0.4,0.3,0.5,0.4c1.1,0.9,2.3,1.6,3.8,1.8c0.3,0,0.5,0,0.8,0.1c0.4,0,0.4,0.1,0.4,0.5
			c0,0.7,0,1.3,0,2c0,0.8,0,1.6,0,2.4c0,0.5-0.1,0.5-0.5,0.5c-2.9-0.1-5.6-0.8-7.6-3c-0.7-0.7-0.7-0.7-0.1-1.4
			c0.7-0.9,1.5-1.9,2.2-2.8C217.1,102.1,217.2,102,217.4,101.8z"/>
		<path class="st1" d="M119.8,74.4c0,0.7,0,1.4,0,2.1c0,0.4-0.1,0.5-0.5,0.5c-2.7-0.1-5.1-0.7-7.2-2.6c-0.3-0.2-0.5-0.5-0.7-0.8
			c-0.3-0.3-0.3-0.4,0-0.8c0.6-0.8,1.2-1.5,1.7-2.2c0.3-0.3,0.5-0.7,0.8-1c0.3-0.3,0.4-0.3,0.7,0c0.7,0.7,1.5,1.2,2.5,1.6
			c0.7,0.3,1.4,0.4,2.2,0.5c0.5,0,0.6,0.1,0.6,0.6C119.8,73,119.8,73.7,119.8,74.4z"/>
		<path class="st1" d="M107.1,56.7c2,0,3.5,1.6,3.5,3.6c0,1.9-1.6,3.5-3.5,3.4c-1.9,0-3.5-1.4-3.5-3.5
			C103.7,58,105.3,56.6,107.1,56.7z"/>
		<path class="st1" d="M150.8,92.7c-0.1-1.9,1.5-3.5,3.5-3.5c1.9,0,3.5,1.6,3.5,3.5c0,1.9-1.6,3.5-3.5,3.5
			C152.3,96.1,150.7,94.6,150.8,92.7z"/>
		<path class="st1" d="M227.1,96.1c-0.2-0.1-0.3-0.2-0.5-0.3c-0.9-0.7-1.9-1.2-3.1-1.3c-0.3,0-0.4-0.2-0.4-0.5c0-0.7,0-1.5,0-2.2
			c0-0.7,0-1.4,0-2.1c0-0.5,0.1-0.6,0.5-0.6c2.4,0,4.6,0.8,6.3,2.5c0.3,0.3,0.3,0.4,0.1,0.7c-0.9,1.1-1.7,2.2-2.6,3.4
			C227.4,95.8,227.3,95.9,227.1,96.1z"/>
		<path class="st1" d="M124,63.6c-0.2-0.2-0.5-0.3-0.7-0.5c-0.8-0.6-1.8-1-2.8-1.1c-0.4-0.1-0.5-0.1-0.5-0.5c0-1.4,0-2.8,0-4.3
			c0-0.4,0.1-0.5,0.5-0.5c1.8,0,3.4,0.4,4.9,1.4c0.5,0.3,1,0.7,1.4,1.1c0.3,0.2,0.3,0.3,0,0.6c-0.9,1.1-1.7,2.2-2.6,3.4
			C124.2,63.4,124.1,63.5,124,63.6z"/>
	</g>
</g>
</svg>
