<?xml version="1.0" encoding="utf-8"?>
<!-- Generator: Adobe Illustrator 24.3.0, SVG Export Plug-In . SVG Version: 6.00 Build 0)  -->
<svg version="1.1" id="Layer_1" xmlns="http://www.w3.org/2000/svg" xmlns:xlink="http://www.w3.org/1999/xlink" x="0px" y="0px"
	 viewBox="0 0 296.4 157.6" style="enable-background:new 0 0 296.4 157.6;" xml:space="preserve">
<style type="text/css">
	.st0{fill:#FFFFFF;}
	.st1{fill:none;}
</style>
<g>
	<g>
		<path class="st0" d="M79.2,34.8c0,1.4,0,2.7,0,4.1c0,5.9-0.1,11.8-0.1,17.7c0,2.9,0,5.8,0,8.6c0,0.3,0,0.6,0,0.9c0.4,0,0.7,0,1,0
			c10,0,20,0,30-0.1c0.1,0,0.1,0,0.2,0C106.2,51,94.3,39,79.2,34.7C79.2,34.7,79.2,34.8,79.2,34.8z"/>
		<path class="st0" d="M108.7,91c-9.5,0-19,0-28.5,0c-1,0-1,0-1,1c0,7.2,0,14.4,0,21.6c0,2.8,0,5.7,0.1,8.5
			c15-4.3,26.7-16.1,31-31.1C109.8,91,109.2,91,108.7,91z"/>
		<path class="st0" d="M22.8,66.1c0.7,0,1.5,0,2.2,0c9.4,0,18.9,0,28.3,0c1,0,1,0,1-1c0-10,0-19.9-0.1-29.9c0-0.3,0-0.5,0-0.7
			C39,38.9,27.1,50.9,22.8,66.1C22.8,66.1,22.8,66.1,22.8,66.1z"/>
		<path class="st0" d="M54.3,120.2c0-9.4,0-18.8,0.1-28.2c0-1,0-1-1-1c-10,0-20,0-30,0.1c-0.2,0-0.3,0-0.4,0
			c4.3,15.1,16.3,26.9,31.4,31.2C54.2,121.5,54.3,120.9,54.3,120.2z"/>
		<path class="st0" d="M74.7,86.4c12.2,0,24.4,0,36.7,0c0.5-2.6,0.7-5.3,0.7-8.1c0-2.6-0.2-5.2-0.7-7.7c-12.3,0-24.5,0-36.7,0
			c0-12.3,0-24.6,0-37c-2.6-0.5-5.3-0.7-8.1-0.7c-2.6,0-5.2,0.2-7.8,0.7c0,12.4,0,24.7,0,37.1c-12.3,0-24.6,0-37.1,0
			c-0.4,2.5-0.7,5.1-0.7,7.8c0,2.8,0.3,5.4,0.7,8.1c12.4,0,24.7,0,37,0c0,12.2,0,24.4,0,36.8c2.5,0.4,5.1,0.7,7.7,0.7
			c2.8,0,5.4-0.3,8.1-0.7C74.7,110.9,74.7,98.7,74.7,86.4z"/>
	</g>
	<path class="st0" d="M124.3,61.8c0-7.3,0-14.5,0-21.7c0.2,0,0.4,0,0.7,0c2.8,0,5.6,0,8.4,0c5.3,0,9.5,3.4,10.4,8.6
		c1.2,6.5-2.6,12.3-9.3,13c-2.7,0.3-5.4,0.1-8.1,0.2C125.7,61.9,125,61.8,124.3,61.8z M129.3,57.9c1.6,0,3.1,0.1,4.6,0
		c2.3-0.2,3.7-1.7,4.5-3.8c0.7-2,0.7-4.1,0.1-6.1c-0.6-1.8-1.7-3.1-3.5-3.7c-1.8-0.6-3.7-0.2-5.6-0.3
		C129.3,48.7,129.3,53.3,129.3,57.9z"/>
	<path class="st0" d="M182.1,89.5c-1.5,0-3,0-4.6,0c0-0.3,0-0.6,0-0.8c0-3,0-6.1,0-9.1c0-1.7-1.3-2.6-2.9-2.1
		c-0.9,0.3-1.4,1.1-1.4,2.2c0,3,0,6,0,9c0,0.3,0,0.6,0,0.9c-1.5,0-3,0-4.6,0c0-0.3,0-0.6,0-0.9c0-2.8,0-5.6,0-8.4c0-0.2,0-0.4,0-0.6
		c0-0.9-0.1-1.8-1.2-2.2c-0.9-0.4-2.3,0-3,0.8c-0.2,0.2-0.2,0.6-0.2,0.9c0,3.2,0,6.3,0,9.5c0,0.3,0,0.6,0,0.9c-1.5,0-3,0-4.5,0
		c0-5.1,0-10.2,0-15.3c1.1,0,2.1,0,3.1,0c0.3,0,0.6,0.4,0.8,0.7c0.2,0.2,0.2,0.5,0.3,0.8c1.2-1.1,2.5-1.9,4.1-1.8
		c1.7,0,2.8,1,3.6,2.6c0.8-1.2,1.8-2,3.2-2.4c1.2-0.3,2.4-0.3,3.6,0c2.2,0.6,3.6,2.3,3.7,4.8C182.2,82.3,182.1,85.9,182.1,89.5z"/>
	<path class="st0" d="M206.7,89.5c-1.6,0-3.1,0-4.6,0c0-0.3,0-0.6,0-0.9c0-2.9,0-5.7,0-8.6c0-0.2,0-0.4,0-0.6
		c-0.1-1.4-0.8-2.1-2.1-2.1c-1.2,0-2.1,0.9-2.2,2.1c-0.1,1.4,0,2.8,0,4.2c0,1.9,0,3.9,0,5.9c-1.5,0-3,0-4.5,0c0-0.2,0-0.5,0-0.8
		c0-2.8,0-5.6,0-8.4c0-0.3,0-0.7,0-1c-0.2-1.6-1.3-2.3-2.8-1.9c-1.1,0.3-1.5,0.8-1.5,2c0,3.3,0,6.7,0,10.1c-1.5,0-3,0-4.5,0
		c0-5.1,0-10.2,0-15.3c1.1,0,2.1,0,3.1,0c0.3,0,0.5,0.4,0.7,0.6c0.1,0.2,0.2,0.5,0.3,0.8c1.2-1.1,2.5-1.8,4.1-1.8
		c1.7,0.1,2.8,1,3.5,2.5c0.1-0.1,0.2-0.1,0.2-0.1c1.5-2.5,5.1-2.9,7.4-1.9c1.8,0.8,2.7,2.3,2.8,4.2c0.1,3.1,0.1,6.1,0.1,9.2
		C206.7,88.3,206.7,88.9,206.7,89.5z"/>
	<path class="st0" d="M198.2,103c0-0.3,0-0.5,0-0.8c0-2.1,0-4.1,0-6.2c0-0.5,0.1-0.7,0.7-0.7c1.3,0,2.5,0,3.8,0c0,7.5,0,14.9,0,22.3
		c-1,0-2,0.1-3,0c-0.3,0-0.6-0.4-0.8-0.7c-0.2-0.3-0.3-0.7-0.4-1.1c-0.4,0.3-0.7,0.6-1,0.9c-2.3,1.8-6.7,2.1-8.5-2.2
		c-0.2-0.6-0.5-1.2-0.6-1.8c-0.5-2.5-0.4-4.9,0.8-7.2c1.4-2.7,4.1-4,7-3.3C196.8,102.3,197.4,102.7,198.2,103z M198.2,109.6
		c0-0.9,0-1.9,0-2.8c0-0.3-0.1-0.6-0.3-0.8c-1.3-1.3-3.8-0.9-4.5,0.7c-0.9,2.1-0.9,4.2-0.1,6.3c0.4,0.9,1.1,1.3,2.1,1.3
		c0.9,0,1.7-0.3,2.3-1c0.2-0.3,0.4-0.7,0.5-1.1C198.3,111.5,198.2,110.5,198.2,109.6z"/>
	<path class="st0" d="M141.5,86.4c-0.9,1.2-2.1,2.1-3.6,2.6c-2.6,0.9-5.2,1-7.8,0.2c-3.9-1.2-6.6-4.7-7-8.9
		c-0.3-2.9,0.1-5.7,1.7-8.1c1.8-2.8,4.5-4.3,7.8-4.6c3.1-0.3,5.9,0.3,8.3,2.4c0.1,0.1,0.3,0.2,0.5,0.4c-0.7,0.9-1.3,1.8-2,2.6
		c-0.5,0.5-1.1,0.3-1.6-0.1c-0.9-0.6-2-1.1-3.1-1.2c-2.6-0.3-4.8,0.9-5.8,3.3c-1,2.5-1,5,0.2,7.5c1.6,3.3,6,4.2,8.8,1.9
		c1-0.8,1.2-0.7,2.1,0.2c0.5,0.5,1,1,1.5,1.6C141.4,86.2,141.4,86.3,141.5,86.4z"/>
	<path class="st0" d="M136.6,105.4c0,1.3,0,2.5,0,3.8c-2.4,0-4.9,0-7.4,0c0,2.8,0,5.6,0,8.4c-1.7,0-3.3,0-5,0c0-7.2,0-14.4,0-21.7
		c4.6,0,9.2,0,13.8,0c0,1.2,0,2.4,0,3.7c-0.3,0-0.5,0-0.8,0c-2.4,0-4.9,0-7.3,0c-0.6,0-0.8,0.2-0.7,0.7c0,1.4,0,2.8,0,4.2
		c0,0.5,0.1,0.7,0.7,0.7c2,0,3.9,0,5.9,0C136,105.4,136.3,105.4,136.6,105.4z"/>
	<path class="st0" d="M161.1,53.9c0,4.4-2.2,7.2-6,8c-3.4,0.7-6.8-0.5-8.5-3.1c-2.3-3.5-1.5-9,1.8-11.3c3.5-2.5,9.1-1.6,11.4,1.7
		C160.8,50.7,161.1,52.4,161.1,53.9z M156.5,54c-0.2-1-0.4-2-0.7-3c-0.4-1.1-1.4-1.5-2.5-1.5c-1.2,0-2.2,0.4-2.6,1.5
		c-0.8,2-0.8,4.1,0,6.1c0.5,1.2,1.5,1.6,2.8,1.5c1.2,0,2.2-0.6,2.5-1.8C156.2,56,156.3,55.1,156.5,54z"/>
	<path class="st0" d="M157.9,81.8c-0.1,3.2-1.1,5.8-4.2,7.2c-3.2,1.5-7.3,0.8-9.6-1.6c-1.7-1.8-2.2-4-2-6.3c0.2-3,1.5-5.4,4.4-6.6
		c3.1-1.2,6.2-1,8.8,1.2C157.3,77.2,157.9,79.4,157.9,81.8z M153.3,81.8c-0.2-0.9-0.3-1.9-0.7-2.9c-0.4-1.2-1.4-1.6-2.6-1.6
		c-1.2,0-2.2,0.5-2.7,1.6c-0.7,1.9-0.7,3.8,0,5.8c0.5,1.3,1.4,1.8,2.9,1.7c1.2,0,2.1-0.6,2.5-1.9C153,83.7,153.1,82.7,153.3,81.8z"
		/>
	<path class="st0" d="M247.2,117.9c-4.8,0-7.9-3.1-7.9-7.8c0-5,3.1-8.2,7.9-8.2c4.8,0,7.9,3.2,7.9,7.9
		C255.1,114.8,252,117.9,247.2,117.9z M250.4,110.2c-0.1-0.9-0.1-1.5-0.2-2.1c-0.1-0.3-0.2-0.7-0.3-1c-0.5-1.2-1.4-1.8-2.7-1.7
		c-1.3,0-2.3,0.5-2.7,1.8c-0.7,1.9-0.7,3.8,0,5.6c0.5,1.3,1.4,1.8,2.9,1.7c1.3,0,2.2-0.6,2.5-1.8
		C250.2,111.8,250.3,110.9,250.4,110.2z"/>
	<path class="st0" d="M138.3,109.9c0-4.2,2.2-7,6.1-7.8c3.3-0.6,6.7,0.4,8.4,3.1c2.1,3.3,1.4,8.6-1.5,11c-4.7,3.8-11.9,1.2-13-4.7
		C138.3,111,138.3,110.5,138.3,109.9z M149.5,109.9c-0.2-1-0.3-2-0.7-3c-0.4-1.2-1.5-1.6-2.7-1.6c-1.2,0-2.2,0.5-2.6,1.7
		c-0.7,1.9-0.7,3.9,0,5.8c0.4,1.2,1.4,1.7,2.7,1.6c1.3,0,2.2-0.5,2.6-1.7C149.2,111.9,149.3,110.9,149.5,109.9z"/>
	<path class="st0" d="M261.1,117.6c-1.6,0-3,0-4.5,0c0-5.1,0-10.2,0-15.4c1.1,0,2.2-0.1,3.2,0.1c0.4,0.1,0.8,0.8,1.2,1.4
		c0.1-0.1,0.3-0.3,0.6-0.4c1.5-1.2,3.3-1.5,5.2-1.1c2.1,0.5,3.6,2.3,3.8,4.6c0.1,1,0.1,2,0.1,2.9c0,2.4,0,4.8,0,7.3
		c0,0.6-0.2,0.8-0.8,0.8c-1,0-2.1,0-3.1,0c-0.6,0-0.8-0.2-0.8-0.8c0-2.9,0-5.9,0-8.8c0-1,0-1.9-1-2.4c-1-0.5-1.9-0.2-2.9,0.3
		c-0.7,0.4-1,0.8-1,1.6c0.1,3.1,0,6.1,0,9.2C261.1,117.1,261.1,117.3,261.1,117.6z"/>
	<path class="st0" d="M218.5,88.1c-1.1,0.5-2.1,1.2-3.2,1.5c-3.6,0.8-6.4-1.2-6.6-5c-0.2-3.4,0-6.9,0-10.4c1.5,0,3,0,4.5,0
		c0,0.3,0,0.5,0,0.8c0,2.9,0,5.8,0,8.7c0,1.1,0.1,2,1.3,2.5c1,0.4,2.7-0.1,3.4-1c0.1-0.2,0.2-0.5,0.2-0.7c0-3.2,0-6.3,0-9.5
		c0-0.3,0-0.6,0-0.9c1.5,0,3,0,4.5,0c0,0.3,0.1,0.5,0.1,0.8c0,4.6,0,9.2,0,13.8c0,0.6-0.1,0.9-0.8,0.8c-0.6-0.1-1.2,0-1.8,0
		c-1,0-1.2-0.1-1.5-1.1C218.6,88.3,218.6,88.2,218.5,88.1C218.5,88.1,218.5,88,218.5,88.1z"/>
	<path class="st0" d="M172.4,102.2c1,0,2-0.1,3,0c0.3,0,0.7,0.4,0.9,0.7c0.2,0.2,0.2,0.5,0.3,0.8c0.2-0.2,0.4-0.3,0.6-0.5
		c1.5-1.3,3.3-1.6,5.2-1.3c2.1,0.4,3.7,2.1,3.8,4.5c0.2,3.7,0,7.3,0,11.1c-1.4,0-2.8,0-4.2,0c-0.1,0-0.3-0.4-0.3-0.6
		c0-2.3,0-4.7,0-7c0-0.8,0-1.6,0-2.4c-0.1-1.5-0.9-2.3-2.4-2.1c-0.7,0.1-1.4,0.6-2.1,1c-0.2,0.1-0.2,0.5-0.2,0.8c0,3.2,0,6.3,0,9.5
		c0,0.3,0,0.5,0,0.8c-1.5,0-3,0-4.5,0C172.4,112.5,172.4,107.4,172.4,102.2z"/>
	<path class="st0" d="M155.8,102.3c1.5,0,3,0,4.5,0c0,0.2,0,0.5,0,0.7c0,3,0,6,0,9c0,2.1,1.4,3,3.3,2.2c1.3-0.5,1.5-0.8,1.5-2.2
		c0-3.2,0-6.4,0-9.6c0,0,0-0.1,0-0.2c1.5,0,2.9,0,4.5,0c0,5.1,0,10.2,0,15.4c-1,0-2.1,0.1-3.1-0.1c-0.5-0.1-0.8-0.8-1.3-1.3
		c-0.1,0-0.3,0.2-0.5,0.4c-1.5,1.2-3.2,1.5-5,1.2c-2.2-0.4-3.9-2.2-4-4.7C155.7,109.5,155.8,105.9,155.8,102.3z"/>
	<path class="st0" d="M229.6,89.5c-1.6,0-3,0-4.5,0c0-5.1,0-10.2,0-15.3c1.1,0,2.2,0,3.3,0c0.2,0,0.5,0.4,0.7,0.7
		c0.1,0.2,0.2,0.5,0.3,0.9c0.3-0.2,0.5-0.4,0.7-0.5c1.6-1.3,3.4-1.6,5.4-1.2c1.9,0.5,3.3,2.1,3.6,4.3c0.1,0.7,0.1,1.4,0.1,2.1
		c0,3,0,6,0,9.1c-1.5,0-3,0-4.6,0c0-0.3,0-0.5,0-0.8c0-2.9,0-5.7,0-8.6c0-1,0-2-1-2.5c-1-0.6-2-0.2-3,0.3c-0.6,0.3-0.9,0.8-0.9,1.6
		c0,3,0,6.1,0,9.1C229.6,88.9,229.6,89.1,229.6,89.5z"/>
	<path class="st0" d="M191.5,54.9c0,2.8,2.3,4.4,4.9,3.6c0.6-0.2,1.2-0.5,1.8-0.8c1-0.5,1.4-0.4,2.1,0.4c0.3,0.4,0.7,0.8,1,1.3
		c-0.1,0.1-0.1,0.2-0.2,0.3c-2.6,2.9-9.1,3.3-12.1,0c-3-3.2-3.3-10.8,2.6-13.1c2-0.8,4-0.8,6,0c3.4,1.3,4.2,4.9,3.9,7.4
		c-0.1,0.6-0.5,0.8-1.1,0.8c-2.7,0-5.3,0-8,0C192.1,54.9,191.8,54.9,191.5,54.9z M197.3,52.2c0.1-1.7-0.9-2.8-2.5-2.9
		c-1.8-0.1-3.1,1-3.2,2.9C193.4,52.2,195.3,52.2,197.3,52.2z"/>
	<path class="st0" d="M218.1,117.7c-0.9,0-1.7,0-2.5,0c-0.5,0-0.9-0.3-1.1-0.8c-0.1-0.3-0.2-0.5-0.4-0.9c-0.3,0.3-0.6,0.5-0.9,0.7
		c-1.7,1.3-3.7,1.5-5.7,1c-1.5-0.4-2.5-1.4-2.8-3c-0.3-1.5,0-2.9,1.3-3.9c1.6-1.3,3.5-1.7,5.5-2c0.7-0.1,1.4-0.1,2.1-0.2
		c0.6-2.3-0.9-3.8-3.2-3.1c-0.5,0.2-1.1,0.4-1.6,0.7c-1.3,0.6-2.1,0.4-2.8-0.8c-0.2-0.3-0.4-0.7-0.6-1.1c1.4-1.3,3-2,4.8-2.3
		c1.2-0.1,2.4-0.2,3.6,0c2.4,0.4,4.2,2.4,4.3,5C218.3,110.6,218.1,114.1,218.1,117.7z M213.7,111.5c-1.2-0.1-3.1,0.2-3.9,0.7
		c-0.6,0.3-0.8,0.8-0.8,1.5c0,0.5,0.2,0.9,0.7,1.1c1.1,0.5,3.1-0.1,3.8-1.1c0.1-0.1,0.1-0.3,0.1-0.4
		C213.7,112.7,213.7,112.1,213.7,111.5z"/>
	<path class="st0" d="M268.1,83.3c0.6-1.6,1.1-3,1.6-4.5c0.4-1.2,0.9-2.5,1.3-3.7c0.2-0.5,0.5-0.9,1-1c1.3,0,2.5,0,3.9,0
		c-0.1,0.3-0.2,0.5-0.3,0.7c-2.6,6.1-5.2,12.3-7.8,18.5c-0.3,0.8-0.8,1.2-1.7,1.1c-1-0.1-2.1,0-3.3,0c0.2-0.5,0.4-0.9,0.6-1.3
		c0.7-1.5,1.4-2.9,2.1-4.4c0.1-0.3,0.1-0.8,0-1.1c-1.8-4.2-3.7-8.5-5.5-12.7c-0.1-0.2-0.2-0.5-0.3-0.8c1.5,0,2.9-0.1,4.4,0
		c0.3,0,0.8,0.5,0.9,0.9C266,77.7,267,80.4,268.1,83.3z"/>
	<path class="st0" d="M185.5,48.2c-0.3,0.5-0.6,0.9-0.9,1.4c-0.5,0.8-0.9,0.9-1.8,0.6c-0.7-0.3-1.4-0.5-2.1-0.7
		c-0.4-0.1-1-0.1-1.4,0.1c-0.4,0.2-0.8,0.6-0.8,1c-0.1,0.3,0.3,0.8,0.6,1c0.6,0.3,1.2,0.5,1.8,0.8c0.6,0.2,1.3,0.4,2,0.7
		c3.2,1.4,3.7,5.5,0.9,7.6c-1.3,1-2.9,1.3-4.5,1.3c-2.1,0-4-0.5-5.7-1.9c0.4-0.7,0.8-1.3,1.3-1.9c0.4-0.5,1.1-0.6,1.8-0.2
		c0.9,0.5,1.8,1,2.9,0.9c0.3,0,0.7,0,0.9-0.2c0.3-0.3,0.8-0.7,0.8-1.1c0-0.3-0.3-0.9-0.6-1.1c-0.5-0.3-1.1-0.5-1.6-0.7
		c-0.8-0.3-1.6-0.6-2.4-0.9c-3.3-1.4-3.1-5.8-0.9-7.6C178.2,45.5,183.1,45.8,185.5,48.2z"/>
	<path class="st0" d="M213.1,60.8c-2,1.2-4,1.7-6.2,1c-1.8-0.5-2.7-2.1-2.7-4.5c0-2.3,0-4.6,0-6.9c0-0.3,0-0.5,0-0.9
		c-0.5,0-0.8,0-1.2,0c-0.6,0-0.9-0.3-1-0.9c-0.1-1.7-0.1-1.8,1.6-2c0.7-0.1,1-0.4,1.2-1.1c0.1-0.9,0.4-1.8,0.6-2.7
		c0.1-0.7,0.5-1,1.2-1c0.7,0,1.4,0,2.3,0c0,1.5,0,3,0,4.6c1.3,0,2.5,0,3.8,0c0,1.1,0,2,0,3.1c-1.2,0-2.4,0-3.7,0c0,0.3,0,0.5,0,0.8
		c0,2.2,0,4.5,0,6.7c0,1.4,0.6,1.8,1.8,1.3c0.5-0.2,0.8-0.1,1,0.3C212.2,59.3,212.6,60,213.1,60.8z"/>
	<path class="st0" d="M226.2,97.7c0,1.5,0,2.9,0,4.5c1.3,0,2.5,0,3.8,0c0,1.1,0,2.1,0,3.1c-1,0-2,0-3,0c-0.6,0-0.8,0.2-0.8,0.8
		c0,2.3,0,4.5,0,6.8c0,1.3,0.6,1.7,1.8,1.2c0.5-0.2,0.8-0.1,1,0.3c0,0.1,0.1,0.2,0.2,0.2c0.4,0.6,0.8,1.2,1.2,1.9
		c-0.3,0.2-0.5,0.4-0.8,0.5c-1.4,0.8-3,1-4.6,0.7c-2.2-0.3-3.4-2-3.5-4.6c0-2.4,0-4.7,0-7.1c0-0.6-0.2-0.8-0.8-0.8
		c-1.3,0-1.4-0.1-1.4-1.5c0-1.2,0-1.3,1.2-1.4c0.9-0.1,1.5-0.5,1.6-1.5c0.1-0.8,0.4-1.7,0.6-2.5c0.1-0.5,0.4-0.7,0.9-0.7
		C224.5,97.7,225.3,97.7,226.2,97.7z"/>
	<path class="st0" d="M259,88.4c-1.7,1.5-5,1.8-6.8,0.8c-1.3-0.7-1.9-1.9-1.9-3.3c-0.1-2.5,0-5.1,0-7.6c0-0.3,0-0.6,0-1
		c-0.5,0-0.9,0-1.3,0c-0.6,0-0.9-0.3-0.9-0.9c-0.1-1.8-0.1-1.8,1.6-2.1c0.6-0.1,0.9-0.4,1-1c0.2-1,0.5-1.9,0.7-2.9
		c0.1-0.5,0.4-0.8,0.9-0.8c0.8,0,1.7,0,2.6,0c0,1.5,0,3,0,4.5c1.3,0,2.5,0,3.8,0c0,1.1,0,2.1,0,3.1c-1.3,0-2.5,0-3.8,0
		c0,0.3,0,0.5,0,0.7c0,2.3,0,4.5,0,6.8c0,1.3,0.6,1.8,1.8,1.3c0.5-0.2,0.8-0.1,1.1,0.4C258.1,87,258.5,87.7,259,88.4z"/>
	<path class="st0" d="M167.8,61.8c-1.6,0-3,0-4.6,0c0-0.3,0-0.5,0-0.8c0-4.6,0-9.2,0-13.8c0-0.7,0.2-0.9,0.8-0.8
		c0.6,0.1,1.2,0,1.8,0c1,0,1.3,0.2,1.5,1.3c0.1,0.3,0.1,0.6,0.2,1c0.4-0.4,0.6-0.8,0.9-1.2c1-1.1,2.2-1.6,3.7-1.3
		c0.6,0.1,0.9,0.3,0.8,1c-0.1,0.8-0.1,1.6-0.2,2.4c-0.1,0.8-0.2,0.9-1,0.9c-0.3,0-0.7,0-1-0.1c-1.8-0.1-2.9,1-2.9,2.8
		c0,2.6,0,5.2,0,7.8C167.8,61.3,167.8,61.5,167.8,61.8z"/>
	<path class="st0" d="M232.5,102.3c1.5,0,3,0,4.5,0c0,5.1,0,10.2,0,15.4c-1.5,0-3,0-4.5,0C232.5,112.5,232.5,107.4,232.5,102.3z"/>
	<path class="st0" d="M245.8,89.5c-1.5,0-3,0-4.5,0c0-5.1,0-10.2,0-15.3c1.5,0,2.9,0,4.5,0C245.8,79.2,245.8,84.3,245.8,89.5z"/>
	<path class="st0" d="M237.5,98c0,1.5-1.2,2.7-2.8,2.6c-1.5,0-2.7-1.2-2.7-2.7c0-1.5,1.2-2.6,2.7-2.6
		C236.3,95.3,237.5,96.4,237.5,98z"/>
	<path class="st0" d="M240.8,69.8c0-1.5,1.2-2.7,2.8-2.7c1.5,0,2.8,1.3,2.8,2.7c0,1.5-1.3,2.7-2.8,2.7
		C242,72.5,240.8,71.3,240.8,69.8z"/>
</g>
<rect y="0" class="st1" width="296.4" height="157.6"/>
</svg>
