<?xml version="1.0" encoding="utf-8"?>
<!-- Generator: Adobe Illustrator 25.0.0, SVG Export Plug-In . SVG Version: 6.00 Build 0)  -->
<svg version="1.1" id="Layer_1" xmlns="http://www.w3.org/2000/svg" xmlns:xlink="http://www.w3.org/1999/xlink" x="0px" y="0px"
	 viewBox="0 0 296.4 157.6" style="enable-background:new 0 0 296.4 157.6;" xml:space="preserve">
<style type="text/css">
	.st0{fill:none;}
	.st1{fill:#FFFFFF;}
</style>
<rect y="0" class="st0" width="296.4" height="157.6"/>
<g>
	<path class="st1" d="M94.3,79.5c-0.4-30.4,24.4-55.2,54.9-54.7c29.1,0.5,52.9,24.2,53,53.9c0,29.9-24.2,54-53.9,53.9
		C118.3,132.7,94.6,108.6,94.3,79.5z M146,86.7C146,86.7,146,86.7,146,86.7c0-2.7,0-5.5,0-8.2c0-0.9,0.1-1,1.1-1c2.1,0,4.1,0,6.2,0
		c0.7,0,1-0.2,1.2-0.9c0.1-0.4,0.1-0.8,0.1-1.1c0-0.4-0.2-0.7-0.8-0.7c-2.3,0-4.6,0-6.9,0c-0.8,0-1-0.1-1-0.9c0-3.3,0-6.6,0.5-9.9
		c0.3-1.6,0.6-3.1,1.4-4.5c1.4-2.3,3.8-3.1,6.3-1.9c1.1,0.5,2,1.4,2.8,2.2c0.3,0.3,0.7,0.6,1.2,0.7c0.9,0.2,1.7-0.2,2.3-1
		c0.6-0.8,0.6-1.6,0.2-2.4c-0.4-0.8-1-1.4-1.8-1.7c-2.7-1.3-5.5-1.2-8.3-0.2c-3.5,1.3-5.7,3.9-7.2,7.2c-1.6,3.5-2,7.2-2,11
		c0,0.8-0.3,1.3-1,1.6c-0.8,0.4-1.6,0.8-2.5,1.2c-0.4,0.2-0.4,0.6-0.3,0.9c0.1,0.4,0.3,0.5,0.7,0.5c0.8,0,1.6,0,2.4,0
		c0.4,0,0.7,0.2,0.7,0.7c0,0.3,0,0.7,0,1c0,5,0,9.9,0,14.9c0,0.6,0,1.2-0.1,1.8c-0.1,1.5-0.6,2-2.1,2.2c-0.4,0.1-0.9,0.1-1.3,0.2
		c-0.5,0.1-0.7,0.4-0.7,0.9c0.1,0.6,0.3,0.8,0.8,0.8c1-0.1,2-0.1,3-0.1c3.1,0,6.2,0.1,9.3,0.1c0.2,0,0.5-0.1,0.5-0.2
		c0.1-0.4,0.2-0.8,0.1-1.2c0-0.1-0.4-0.3-0.7-0.3c-0.8-0.1-1.6-0.1-2.3-0.2c-1-0.1-1.4-0.6-1.6-1.5c-0.1-0.7-0.2-1.3-0.2-2
		C146,91.9,146,89.3,146,86.7z M106.5,76.5c-1.3,0-2.3,1-2.3,2.3c0,1.3,1,2.4,2.3,2.4c1.3,0,2.3-1,2.3-2.3
		C108.8,77.5,107.8,76.5,106.5,76.5z M192.2,78.8c0-1.3-1-2.3-2.3-2.3c-1.3,0-2.3,1-2.3,2.3c0,1.3,1,2.3,2.3,2.3
		C191.2,81.1,192.2,80.1,192.2,78.8z M172.3,46.4c-0.2-0.4-0.4-0.9-0.5-1.3c-0.1-0.8-0.1-1.7-0.2-2.5c0-0.3,0.1-0.3,0.4-0.4
		c0.5-0.1,1-0.2,1.4-0.5c0.8-0.7,0.7-1.8-0.2-2.5c-0.8-0.6-1.6-1-2.5-1.5c-0.1-0.1-0.2,0-0.4,0c0,0-0.1,0.1-0.1,0.1
		c0.8,0.5,0.4,1,0.1,1.4c-0.7,1.1-1.4,2.3-2.1,3.4c-0.2,0.4-0.5,0.7-1,0.4c-0.1,0-0.2,0-0.2,0c0,0.1,0,0.2,0.1,0.2
		c0.6,0.4,1.2,0.7,1.8,1.1c0.1,0,0.2,0,0.3,0c0-0.1,0-0.2-0.1-0.3c-0.1-0.2-0.3-0.5-0.2-0.6c0.3-0.7,0.7-1.3,1.1-1.9
		c0.7,0.2,0.9,0.6,0.9,1.2c0,0.7,0,1.4,0.1,2C170.9,45.6,171.5,46.2,172.3,46.4z M163.1,36.6c0-2-1.6-3.4-3.6-3.4
		c-1.9,0-3.5,1.6-3.5,3.6c0,1.9,1.7,3.5,3.7,3.4C161.6,40.2,163.1,38.7,163.1,36.6z M146.2,122.2c0.2,0,0.3,0.1,0.4,0.1
		c0.8,0,1.6,0,2.5,0c0.6,0,1.2-0.1,1.7-0.3c1.4-0.4,2.2-1.7,2.2-3.2c-0.1-1.5-0.9-2.5-2.5-2.8c-1.4-0.3-2.8-0.1-4.2,0.1
		c0,0,0,0-0.1,0.1c0.7,0.6,0.7,0.6,0.8,1.6c0,1.1,0.1,2.3,0.1,3.4c0,0.5,0,0.9-0.6,0.9C146.3,122,146.3,122.1,146.2,122.2z M173,113
		c0-1.8-1.5-3.4-3.3-3.4c-1.9,0-3.6,1.7-3.6,3.5c0,1.9,1.5,3.4,3.3,3.4C171.3,116.5,173,114.9,173,113z M134.8,113.5
		c0,0.1,0,0.1,0,0.2c0.7,0.6,0.7,0.6,0.5,1.5c-0.3,1-0.5,1.9-0.7,2.9c-0.2,1.2,0.2,2,1.3,2.5c1.8,0.8,3.1,0.2,3.8-1.6
		c0.1-0.2,0.1-0.4,0.2-0.7c0.2-0.6,0.3-1.2,0.5-1.8c0.3-0.8,0.3-0.8,1.1-0.9c0,0,0,0,0.1-0.2c-0.8-0.2-1.5-0.4-2.2-0.6
		c0,0,0,0.1-0.1,0.1c0.1,0.1,0.1,0.2,0.2,0.2c0.4,0.1,0.5,0.4,0.4,0.8c-0.3,1.1-0.5,2.2-0.9,3.3c-0.4,1.1-1.4,1.5-2.5,1.1
		c-0.9-0.4-1.3-1.2-1-2.3c0.2-1,0.5-2,0.8-3c0.1-0.4,0.3-0.7,0.8-0.5c0.1,0,0.2,0,0.2-0.1c0,0,0-0.1,0-0.1
		C136.4,114,135.6,113.7,134.8,113.5z M124.8,45.5c-0.2-0.6-0.3-1.3-0.5-2c0.6-0.4,1.2-0.8,1.8-1.2c0.6,0.5,1.1,0.9,1.8,1.5
		c-0.3,0.2-0.5,0.3-0.7,0.4c0.3,0.2,1.2-0.3,2.3-1.1c-0.1-0.1-0.2-0.2-0.3-0.1c-0.6,0.3-1,0-1.3-0.3c-1.4-1.1-2.8-2.2-4.2-3.4
		c-0.1-0.1-0.3-0.2-0.5-0.4c-0.1,0.4-0.2,0.6-0.2,0.9c0.3,1.8,0.7,3.5,1.1,5.2c0.1,0.6,0.3,1.1-0.4,1.5c0.2,0,0.3,0,0.4,0
		c0.3-0.2,0.7-0.4,1-0.6c0.2-0.1,0.3-0.3,0.4-0.4C125.3,45.4,125.1,45.4,124.8,45.5z M139.2,37.9c-0.1,0-0.1,0-0.2-0.1
		c-0.1,0.1-0.1,0.2-0.2,0.3c-0.3,1.4-1.5,1.9-2.7,1.8c-1.4-0.1-2.3-1.1-2.7-2.7c-0.4-1.7,0.5-3.1,2.2-3.4c0.8-0.2,1.4,0,1.9,0.6
		c0.1,0.1,0.2,0.1,0.3,0.2c-0.1-0.5-0.2-0.8-0.4-1.2c-0.1-0.1-0.2-0.3-0.4-0.2c-1.2,0-2.4,0.3-3.4,1c-2.1,1.5-1.8,4.7,0.5,5.8
		c1.5,0.7,3.5,0.2,4.7-0.7c0.1-0.1,0.2-0.2,0.2-0.3C139.2,38.7,139.2,38.3,139.2,37.9z M115.7,44.9c-0.1,0.2-0.3,0.3-0.4,0.4
		c-0.8,0.9-1.6,1.7-2.5,2.6c-0.1,0.1-0.1,0.2-0.1,0.3c0.1,0,0.2,0,0.3,0c0.4-0.4,0.7-0.1,0.9,0.1c1.1,1,2.2,2.1,3.2,3.1
		c0.3,0.3,0.6,0.6,0.2,1.1c0,0,0,0.2,0,0.3c0.1,0,0.2,0,0.2,0c0.6-0.6,1.1-1.2,1.7-1.8c0,0-0.1-0.1-0.1-0.1
		c-0.1,0.1-0.3,0.1-0.4,0.2c-0.2,0.2-0.5,0.3-0.7,0.1c-0.6-0.5-1.2-1.1-1.8-1.6c0.3-0.3,0.5-0.6,0.8-0.9c0.3-0.3,0.6-0.6,1.1-0.3
		c0.1,0,0.2,0,0.3,0c0-0.1-0.1-0.2-0.1-0.3c-0.3-0.3-0.7-0.7-1.1-1c-0.1-0.1-0.2-0.1-0.3-0.1c0,0.1,0,0.2,0,0.3
		c0,0.2,0.2,0.5,0.1,0.6c-0.3,0.5-0.7,0.8-1.2,1.3c-0.6-0.7-1.2-1.4-1.9-2.1c0.3-0.3,0.7-0.6,1-0.9c0.4-0.3,0.8-0.5,1.2-0.2
		c0.1,0,0.2,0,0.3,0c0,0,0-0.1,0-0.1C116.4,45.5,116.1,45.2,115.7,44.9z M176.4,49.8c0,0-0.1,0.1-0.1,0.1c0.6,0.6,1.2,1.3,1.8,1.9
		c0,0,0.2,0,0.3-0.1c-0.5-0.9-0.6-0.7,0.2-1.6c0.6-0.7,1.4-1.2,2.3-1.3c0.3,0,0.6-0.1,0.9-0.2c0.7-0.2,1.5-0.5,2.2,0
		c0-0.4-0.9-1.4-1.4-1.6c0.1,0.3,0.2,0.5,0.3,0.7c-1.1,0.3-2.1,0.6-3.3,0.9c0.4-1.1,0.8-2.1,1.1-3.2c0.2,0.1,0.4,0.2,0.6,0.3
		c0.1-0.3-0.7-1.2-1.5-1.9c0,0.2,0,0.3,0,0.4c0.3,0.4,0.2,0.7,0.1,1.1c-0.2,0.6-0.4,1.2-0.6,1.8c-0.2,0.8-0.6,1.6-1.3,2.2
		C177.2,50.2,177.2,50.2,176.4,49.8z M146,38.4c0.1,0.1,0.2,0.2,0.3,0.2c0.8,0,1.6,0,2.3,0c0.1,0,0.1-0.1,0.2-0.2
		c-0.1-0.1-0.1-0.2-0.2-0.2c-0.7,0-0.7-0.5-0.7-0.9c0-1.2,0-2.5-0.1-3.7c0-1.5,0.1-1.6,1.5-1.3c0.4,0.1,0.7,0.2,0.8,0.6
		c0,0.1,0.1,0.2,0.2,0.3c0,0,0.1,0,0.1-0.1c0-0.5,0.1-1,0.1-1.5c-0.5,0.1-0.9,0.2-1.3,0.2c-1.1,0-2.2,0-3.4,0
		c-0.5,0-0.9-0.1-1.4-0.1c-0.1,0.4-0.2,0.9-0.3,1.4c0,0,0.1,0.1,0.1,0.1c0.1-0.1,0.2-0.2,0.3-0.3c0.2-0.5,0.6-0.6,1.1-0.7
		c0.3,0,0.6,0,0.9,0c0.3,0,0.4,0.1,0.4,0.4c0,1.5,0.1,2.9,0.1,4.4C147,38.1,147,38.1,146,38.4z M127.3,110c-0.2,0.4-0.4,0.7-0.6,1
		c-0.7,1.1-1.4,2.2-2.1,3.3c-0.2,0.4-0.5,0.6-1,0.3c-0.1-0.1-0.2-0.1-0.3-0.1c0,0.1,0,0.1-0.1,0.2c0.8,0.5,1.5,1,2.3,1.4
		c0,0,0.1-0.1,0.1-0.1c0-0.1,0-0.1-0.1-0.2c-0.6-0.5-0.6-0.5-0.2-1.2c0.6-1,1.3-2,1.9-3.1c0.7-1.2,0.7-1.2,1.8-0.3
		c0.4,0.3,0.7,0.6,0.4,1.1c0,0.1,0,0.2,0.1,0.4c0.4-0.5,0.7-0.9,1-1.2c-0.3-0.1-0.7-0.2-0.9-0.4c-1.1-0.7-2.1-1.3-3.2-2
		c-0.3-0.2-0.5-0.5-0.8-0.7c-0.3,0.3-0.7,0.6-1,1c0.4,0,0.9-0.2,1.3-0.1C126.5,109.4,126.8,109.7,127.3,110z M178.2,108.3
		c0,0-0.1,0.1-0.1,0.1c0.4,0.2,0.8,0.5,1.2,0.7c0.1,0,0.2,0,0.2,0c0.8-0.3,1.3-0.9,1.7-1.7c0.3-0.8,0-1.8-0.8-2.1
		c-0.5-0.2-1.1-0.2-1.6-0.2c-0.5,0-1,0.3-1.5,0.3c-0.7,0.1-1.2-0.2-1.4-0.7c-0.1-0.5,0.2-1.1,0.8-1.4c0.3-0.1,0.6-0.1,0.9-0.1
		c0.1,0,0.3,0.1,0.4,0.1c-0.1-0.5-0.8-1-1.1-0.8c-0.5,0.4-1,0.8-1.3,1.3c-0.6,1.1,0.2,2.4,1.5,2.3c0.6,0,1.2-0.2,1.9-0.3
		c0.3,0,0.7-0.1,1,0c0.6,0.2,0.9,0.7,0.8,1.3c-0.1,0.6-0.7,1.2-1.3,1.2C179.1,108.4,178.7,108.3,178.2,108.3z M120.4,105.8
		c0.8-0.3,1-0.8,0.6-1.4c-0.2-0.3-0.5-0.7-0.8-0.9c-0.4-0.3-0.9-0.5-1.5-0.3c-0.9,0.2-1.3,1.1-1.2,2.2c0.1,0.5,0.2,1,0.2,1.5
		c0,0.6-0.4,1.2-0.9,1.3c-0.5,0.1-1-0.1-1.4-0.7c-0.3-0.5-0.3-1.1,0-1.6c0.1-0.1,0.1-0.3,0.2-0.5c-0.9,0.5-1.2,1.2-0.7,1.9
		c0.2,0.3,0.4,0.6,0.7,0.8c0.7,0.6,1.4,0.7,2.1,0.4c0.7-0.4,1.1-1.2,1-2.1c-0.1-0.4-0.2-0.9-0.2-1.3c0-0.4,0-0.7,0.1-1.1
		c0.2-0.5,0.8-0.7,1.3-0.5c0.6,0.2,1,0.9,0.8,1.5C120.6,105.3,120.5,105.5,120.4,105.8z M159.5,120.7c0.6,0,2.4-0.5,2.6-0.9
		c-0.6,0.2-1,0.1-1.1-0.6c-0.4-1.4-0.8-2.8-1.2-4.2c-0.1-0.4,0-0.6,0.4-0.8c0.1,0,0.2-0.1,0.3-0.2c-0.6-0.1-2.4,0.5-2.5,0.8
		c0.9,0.1,0.9,0.1,1.2,1.1c0.3,1.1,0.7,2.3,1,3.4c0.2,0.8,0.2,0.8-0.4,1.2C159.6,120.5,159.6,120.6,159.5,120.7z"/>
	<path class="st1" d="M170.1,41c0.5-0.8,1-1.5,1.4-2.3c0,0,0.1-0.1,0.1-0.1c0.8,0.2,1.3,0.8,1.4,1.4c0.1,0.6-0.4,1.3-0.9,1.6
		C171.5,41.9,170.9,41.7,170.1,41z"/>
	<path class="st1" d="M162.1,36.3c-0.1,1-0.2,1.9-0.8,2.6c-1,1.4-3.1,1.2-3.9-0.3c-0.6-1.2-0.3-3.3,0.6-4.3c0.6-0.6,1.4-0.9,2.2-0.6
		c0.9,0.2,1.5,0.8,1.7,1.7C162,35.7,162.1,36,162.1,36.3z"/>
	<path class="st1" d="M147.7,118.7c0-0.7,0-1.4,0-2.1c0-0.2,0.1-0.4,0.3-0.4c1.4-0.5,3.2,0.2,3.7,1.6c0.4,1,0.3,1.9-0.2,2.9
		c-0.5,1-2.1,1.6-3.1,1.1c-0.3-0.1-0.5-0.5-0.5-0.8c-0.1-0.8,0-1.5,0-2.3C147.8,118.7,147.8,118.7,147.7,118.7z"/>
	<path class="st1" d="M172.3,113.7c0,1.3-1.1,2.3-2.4,2.2c-1.5-0.1-3.2-2-3.1-3.6c0.1-1.5,1.6-2.5,3.1-2
		C171.1,110.7,172.3,112.4,172.3,113.7z"/>
	<path class="st1" d="M123.7,40.3c0.6,0.5,1.3,1,2,1.6c-0.5,0.3-1,0.6-1.5,0.9C123.9,41.9,123.8,41.2,123.7,40.3
		C123.6,40.3,123.6,40.3,123.7,40.3z"/>
</g>
</svg>
