<?xml version="1.0" encoding="utf-8"?>
<!-- Generator: Adobe Illustrator 24.2.2, SVG Export Plug-In . SVG Version: 6.00 Build 0)  -->
<svg version="1.1" id="Layer_1" xmlns="http://www.w3.org/2000/svg" xmlns:xlink="http://www.w3.org/1999/xlink" x="0px" y="0px"
	 viewBox="0 0 296.4 157.6" style="enable-background:new 0 0 296.4 157.6;" xml:space="preserve">
<style type="text/css">
	.st0{fill:none;}
	.st1{fill:#FFFFFF;}
</style>
<rect class="st0" width="296.4" height="157.6"/>
<g id="_9Xuxbg" transform="translate(-11.237 -106.335)">
	<g id="Group_133" transform="translate(11.237 106.335)">
		<path id="Path_650" class="st1" d="M61.6,61.6V50.3h23.6v3.6H65.4v21h19.4v3.6H65.6c-0.1,0.1-0.1,0.1-0.2,0.2c0,0-0.1,0.1-0.1,0.2
			c0,10,0,19.9,0,29.9h-3.6v-13c-0.5,0.3-0.9,0.4-1,0.6c-1,1.9-2.3,3.6-3.8,5.2c-1.3,1.4-2.8,2.6-4.4,3.6c-2.1,1.2-4.2,2.3-6.4,3.2
			c-1.3,0-2.4,0.7-3.7,0.9c-1,0-2,0.1-3,0.4c-0.9,0.3-1.9,0.4-2.8,0.3c-1,0.1-2.1,0.1-3.1,0c-2.7-0.2-5.4-0.6-8.1-1.3
			c-1.1-0.3-2.1-0.7-3.1-1c-1-0.4-2-0.8-3-1.3c-1.2-0.6-2.4-1.4-3.5-2.2c-1.4-1-2.6-2.1-3.8-3.4c-1.3-1.3-2.5-2.7-3.4-4.3
			c-1-1.5-1.8-3.1-2.3-4.7c-0.4-1-0.8-2-1-3.1c-0.2-1.1-0.5-2.1-0.8-3.2C4,84.2,4.3,83.1,4,81.9c-0.2-1.2-0.3-2.4-0.2-3.6
			c0-1.6,0.1-3.2,0.4-4.8c0.3-1.5,0.6-2.9,1-4.4c0.8-3.6,2.4-6.9,4.6-9.9c1.3-1.9,2.9-3.6,4.7-4.9c1.3-0.9,2.6-2,4-2.8
			c2.2-1.3,4.7-2.4,7.2-3.1c1.7-0.5,3.4-0.8,5.2-0.9c2.8,0.1,5.6,0.1,8.5,0c2.8,0.1,5.5,0.7,8.1,1.8c4.2,1.7,4,2,6.7,3.8
			c2.5,1.7,4,4.2,5.9,6.4c0.2,0.3,0.3,0.8,0.5,1.1C60.8,61,61.2,61.3,61.6,61.6z M35.2,97.4c0.6-0.4,1.3-0.5,2-0.4
			c1.7-0.1,3.3-0.5,4.8-1.3c0.9-0.4,1.7-1,2.4-1.7c0.4-0.4,0.8-0.9,1-1.4c0.9-1.7,2-3.4,1.6-5.6h-12V74.9h26.4V64.1l-13.9,5.8
			c-0.4-0.9-0.8-1.7-1.2-2.4c-2.3-4.3-6.1-6.5-10.9-6.9c-1.1,0-2.3,0.1-3.4,0.3c-2.2,0.4-4.2,1.3-5.9,2.7c-2.5,2-4.3,4.7-5.2,7.8
			c-0.8,2.1-1.2,4.4-1.2,6.7c-0.1,2.8,0.3,5.6,1.1,8.2c1,3.3,3,6.2,5.8,8.3c2,1.7,4.6,2.6,7.2,2.6C34.5,97.1,34.9,97.2,35.2,97.4z
			 M61.4,62h0.1v-0.4h-0.1V62z"/>
		<path id="Path_651" class="st1" d="M279.5,56.5h-12.2v21.3h-7.4V56.5h-5.9c-0.1-2.1,0-4.2,0-6.3h38.6v6.2h-5.8v21.4h-7.3
			L279.5,56.5z"/>
		<path id="Path_652" class="st1" d="M171.9,50.2h7.3l12.9,16.6V50.2h7.3v27.5c0,0,0,0-0.1,0.1c0,0-0.1,0.1-0.2,0.1
			c-2.3,0-4.5,0-7,0l-13-16.7v16.7h-7.3L171.9,50.2z"/>
		<path id="Path_653" class="st1" d="M224.2,66.7c0-5.3,0-10.1,0-15c0-0.5-0.2-1.1,0.6-1.5h6.7v27.6h-7.2l-13-16.8v16.8H204V50.2
			h7.3L224.2,66.7z"/>
		<path id="Path_654" class="st1" d="M125.9,49.2c0.6,0.1,1.2,0.2,1.9,0.2c2.7,0.1,5.3,1.1,7.3,2.9c0.8,0.7,1.6,1.5,2.3,2.4
			c0.6,0.7,1,1.5,1.4,2.3l-6.8,3c-0.3-0.3-0.5-0.6-0.7-0.9c-1.1-2.4-3-3.3-5.5-3.4c-1.5,0-3,0.5-4.2,1.5c-1.1,0.7-2.4,3.5-2.5,4.8
			c-0.1,0.5-0.3,1-0.3,1.5c-0.1,0.5-0.1,1.1,0,1.6c0.2,0.6,0.4,1.3,0.3,2c0.4,0.9,0.8,1.7,1.2,2.5c1.2,2,3.4,3.1,5.7,3.1
			c1.3,0,2.7-0.4,3.8-1.1c0.6-0.4,1-0.9,1.3-1.6c0.2-0.5,0.4-1.1,0.5-1.7h-5.9c-0.1-1,0-2,0-2.9c0-1,0-1.9,0-3h14.3
			c0.1,1.7,0,3.3-0.3,5c-0.3,1.6-0.8,3.2-1.6,4.7c-1.9,2.9-4.3,5.3-7.8,6.2c-0.4,0.1-0.8,0.3-1.1,0.4c-1.2,0.2-2.3,0.3-3.5,0.4
			c-0.7,0-1.5-0.4-2.2-0.3c-0.8-0.1-1.6-0.2-2.4-0.5c-0.7-0.1-1.5-0.3-2.1-0.7c-0.9-0.7-2-1-2.8-1.9c-1.2-1.3-2.6-2.5-3.4-4.1
			c-0.7-1.5-1.2-3.1-1.5-4.7c0-0.7,0.2-1.5-0.4-2.1c-0.1-0.1,0-0.2,0-0.4c0.5-2.1,0.4-4.4,1.3-6.5c0.9-2.2,2.4-4.1,4.2-5.6
			c1.6-1.2,3.4-2.1,5.4-2.5c0.9-0.2,1.9-0.3,2.8-0.3C125.2,49.4,125.6,49.3,125.9,49.2z"/>
		<path id="Path_655" class="st1" d="M151.5,50.2h7.9c3.5,9.1,6.9,18.3,10.4,27.5H162l-1.8-4.7h-9.7l-2,4.7h-7.8
			c1.8-4.7,3.5-9.3,5.3-13.9C147.9,59.3,149.6,54.7,151.5,50.2z M152.5,67.5c2,0.1,3.9,0.1,5.8,0l-2.9-8.6L152.5,67.5z"/>
		<path id="Path_656" class="st1" d="M243.7,56.4v4.4h7.6v6.3h-7.6v4.4h8.1c0.2,0.4,0.3,0.8,0.3,1.2c0,1.7,0,3.3,0,5.1h-15.8V50.2
			h15.8v6.1L243.7,56.4z"/>
		<path id="Path_657" class="st1" d="M168.6,86.3c0.5,0.4,0.9,0.8,1.3,1.2c1.7,2.4,4.1,4.1,6,6.4c2.4,2.8,5.1,5.4,7.7,8.1
			c1.1,1.1,2,2.4,3,3.5c0.2,0,0.2,0,0.3,0c0,0,0.1-0.1,0.1-0.1c0-6.1,0-12.3,0-18.5c0.6-0.3,1.3-0.1,1.8,0.4v22.5
			c-1.8-1.8-3.7-3.4-5.2-5.3c-1.7-2-3.7-3.7-5.3-5.7c-1.9-2.3-4.1-4.3-6.1-6.5c-0.5-0.6-0.9-1.2-1.6-2.1v1.8c0,5,0,10,0,14.9
			c0,0.6-0.1,1.2-0.2,1.7l0.3,0.3l-1.9,0.1L168.6,86.3z"/>
		<path id="Path_658" class="st1" d="M257.6,109.2c-1.8,0.1-3.5-0.4-5-1.3c-1.9-1-3.4-2.5-4.5-4.3c-1.2-2-1.7-4.3-1.5-6.6
			c0.1-2.5,1.1-4.8,2.7-6.6c2.1-2.5,5.2-4,8.4-4c3.1-0.1,6.1,1.2,8.3,3.4c2.2,2.1,3.5,5.1,3.4,8.2
			C269.3,104.4,264,109.4,257.6,109.2z M248.1,97.8c-0.1,2.7,0.9,5.3,2.9,7.1c1.8,1.8,4.3,2.9,6.9,2.9c1.6,0,3.2-0.4,4.7-1.2
			c1.8-1,3.3-2.4,4.3-4.2c0.8-1.3,1.1-2.8,1.1-4.3c0-5.6-4.5-10.1-10.1-10.1c-1.5-0.1-3,0.3-4.3,1.1c-1.6,0.9-2.9,2.1-3.9,3.6
			C248.6,94.1,248,95.9,248.1,97.8z"/>
		<path id="Path_659" class="st1" d="M272.9,86.5c1.6,1.9,3.6,3.3,4.9,5.3c0.5,0.6,1,1.1,1.5,1.6c1.3,1.3,2.7,2.5,3.9,3.9
			c2.3,2.7,4.8,5.1,7.3,7.7c0.2,0.3,0.4,0.6,0.5,0.9c0,0,0.1,0,0.1-0.1c0,0,0.1-0.1,0.1-0.2c0-6.3,0-12.5,0-18.9h1.3
			c0,0,0.1,0.1,0.1,0.2c0,7.5,0,15,0,22.8c-0.6-0.6-1.1-1-1.5-1.5c-0.4-0.5-1-0.8-1.2-1.5c-0.1-0.4-0.6-0.6-0.9-0.9
			c-3.4-3.6-7-7-10.2-10.7c-1.4-1.6-3-3.1-4.6-4.9v18.6h-1.4L272.9,86.5z"/>
		<path id="Path_660" class="st1" d="M146,98.1c0,2.8-1.1,5.5-3.1,7.4c-1.2,1.2-2.6,2.2-4.1,2.9c-0.8,0.4-1.7,0.7-2.6,0.7
			c-1.4,0.1-2.9,0-4.3-0.2c-1.3-0.4-2.6-0.9-3.7-1.7c-1.2-0.7-2.2-1.8-3-2.9c-0.8-1.3-1.5-2.7-1.9-4.1c-0.2-0.8-0.2-1.7,0-2.6
			c0.1-0.8-0.4-1.6,0.4-2.2c0.8-3,1.3-4.1,3.3-5.8c1.6-1.5,3.5-2.5,5.6-2.9c0.6-0.1,1.1-0.3,1.7-0.4c2.4,0.1,4.7,0.8,6.7,2
			c2,1.3,3.5,3.2,4.5,5.3c0.1,0.2,0.2,0.4,0.3,0.6c0.1,0.6,0.2,1.1,0.4,1.7C146.1,96.7,146.1,97.4,146,98.1z M131.9,88.2
			c-1.1,0.8-2.5,0.9-3.4,1.8c-1,0.9-1.9,2-2.7,3.1c-0.6,1.1-0.9,2.3-1.2,3.6c-0.3,1.4,0.4,2.7,0.4,4.1c0.8,2.1,2.2,3.8,4,5.1
			c1.5,1.1,3.3,1.7,5.2,1.8c4.8,0.2,9.1-3.4,10.4-8.3c0.2-1.9-0.1-3.8-0.7-5.6c-1.3-2.7-3.6-4.7-6.5-5.6c-0.8-0.2-1.6,0.1-2.4-0.4
			c-0.2-0.1-0.5-0.1-0.7,0C133.5,88.4,132.6,88.1,131.9,88.2z"/>
		<path id="Path_661" class="st1" d="M193.3,108.8V86.7h6.2c0.6,0.6,1.5,0.2,2.2,0.5c1,0.4,1.9,0.8,2.7,1.4c1.8,1.3,3.2,3.2,4,5.3
			c0.2,0.4,0.3,0.7,0.4,1.1c0,1.3,0.7,2.6,0.4,3.9c-0.5,2.4-1.1,4.7-3,6.5c-1,1.1-2.3,2.1-3.7,2.7c-0.8,0.4-1.7,0.6-2.7,0.7
			C197.6,108.9,195.5,108.8,193.3,108.8z M194.7,107.4c1.4,0,2.6-0.1,3.8,0c0.8,0,1.7-0.1,2.4-0.4c1.7-0.6,3.2-1.7,4.4-3.1
			c1-1.1,1.2-2.6,1.9-3.8c0-2.5,0.2-5.1-1.2-7.4c-1-1.6-2.4-2.9-4.2-3.7c-2.3-0.9-4.7-1.1-7.1-0.7L194.7,107.4z"/>
		<path id="Path_662" class="st1" d="M149,87.3c0.6-0.8,1.2-0.6,1.8-0.5v8.3c0,2.5,0,5,0,7.6c-0.1,1.5,0.6,2.9,1.9,3.8
			c1.9,1.4,4.4,1.7,6.6,0.8c2.1-0.7,3.5-2.8,3.3-5c0-5.1,0-10.2,0-15.4h1.4v17.4c-0.3,0.5-0.7,1.2-1,1.8c-0.1,0.3-0.3,0.6-0.5,0.9
			c-1.5,1.2-3.2,2-5.1,2.3c-1.5,0-2.9-0.2-4.3-0.8c-1.9-0.8-3.2-2.4-3.7-4.4c-0.2-1.3-0.4-2.6-0.4-3.9C149,95.9,149,91.6,149,87.3z"
			/>
		<path id="Path_663" class="st1" d="M228.6,108.8h-1.7l-2.9-6.9h-9.7l-2.8,6.9h-1.5c0-0.3-0.1-0.7,0-0.9c0.5-0.8,0.9-1.7,1.2-2.6
			c0.4-1.2,1-2.4,1.4-3.6c0.4-1.2,0.9-2.4,1.5-3.6c0.9-1.7,1.3-3.5,2.1-5.2c0.7-1.5,1.3-3,1.9-4.6c0.2-0.6,0.6-1.2,1-2
			c0.4,0.7,0.7,1.3,1,1.9c1.1,2.7,2.3,5.5,3.3,8.2c0.5,1.3,1.1,2.6,1.6,4C226.1,103.1,227.4,105.9,228.6,108.8z M219.4,90.1l-0.4,0
			c0,0.3,0.1,0.6,0,0.9c-1.3,2.3-1.9,4.8-3,7.2c-0.3,0.7-0.9,1.4-0.5,2.2c2.6,0,5.2,0,7.8,0c0,0,0.1-0.1,0.1-0.1
			c0,0,0.1-0.1,0.1-0.1L219.4,90.1z"/>
		<path id="Path_664" class="st1" d="M98.8,109.2h-1V49.5l1-0.1V109.2z"/>
		<path id="Path_665" class="st1" d="M111.4,86.7h9.1v1.3c0,0,0,0.1-0.1,0.1c-2.4,0-4.7,0-7.2,0v7.7c0,0,0,0,0.1,0.1
			c0,0,0.1,0.1,0.2,0.1c2.2,0,4.4,0,6.7,0v1.4h-6.9v11.4h-1.8L111.4,86.7z"/>
		<path id="Path_666" class="st1" d="M233.8,88.1v20.7h-1.8V88.3h-5.4c0-0.5-0.1-1-0.1-1.5h12.9v1.3L233.8,88.1z"/>
		<path id="Path_667" class="st1" d="M241.9,86.7h1.3v22.1h-1.6c0,0-0.1-0.1-0.1-0.1c0.1-0.1,0.2-0.3,0.3-0.4
			c-0.1-0.1-0.3-0.3-0.3-0.4c0-0.2,0-0.5,0-0.7c0-6.1,0-12.1,0-18.2C241.6,88.2,241.7,87.5,241.9,86.7z"/>
	</g>
</g>
</svg>
