<?xml version="1.0" encoding="utf-8"?>
<!-- Generator: Adobe Illustrator 24.2.2, SVG Export Plug-In . SVG Version: 6.00 Build 0)  -->
<svg version="1.1" id="Layer_1" xmlns="http://www.w3.org/2000/svg" xmlns:xlink="http://www.w3.org/1999/xlink" x="0px" y="0px"
	 viewBox="0 0 296.4 157.6" style="enable-background:new 0 0 296.4 157.6;" xml:space="preserve">
<style type="text/css">
	.st0{fill:none;}
	.st1{fill:#FFFFFF;}
</style>
<rect class="st0" width="296.4" height="157.6"/>
<g id="Group_79" transform="translate(-123.226 -246.359)">
	<g id="Group_76" transform="translate(123.226 246.604)">
		<g id="Group_73" transform="translate(0 22.058)">
			<g id="Group_72">
				<path id="Path_263" class="st1" d="M127.2,62.2c0.7-0.5,1.2-1.2,1.5-1.9c-0.6,0.2-1.2,0.4-1.8,0.5c0,0.2,0,0.3,0,0.5
					c0,0.4-0.1,0.8-0.2,1.1C126.9,62.4,127.1,62.3,127.2,62.2z"/>
				<path id="Path_264" class="st1" d="M122.4,62.2c0.3,0,0.5-0.1,0.8-0.2L122.4,62.2z"/>
				<path id="Path_265" class="st1" d="M132.3,59.1c0,1-0.2,2.1-0.7,3c6.4-3.7,10.4-6.5,10.4-6.5S138.5,57.1,132.3,59.1z"/>
				<path id="Path_266" class="st1" d="M96.9,68c-1,0.2-1.9,0.3-2.9,0.5c0.4,0.2,0.9,0.4,1.3,0.6C95.9,68.8,96.5,68.5,96.9,68z"/>
				<path id="Path_267" class="st1" d="M122.3,67.1c-1.2,0-2.4-0.2-3.6-0.6c-1-0.3-1.4-0.4-1.6-0.4c0,0-0.1,0.1-0.1,0.1
					c-0.3,0.5-0.9,0.9-1.5,0.9H114c-0.9,0-1.7-0.8-1.7-1.7c0-0.1,0-0.2,0-0.3l0-0.3c-2.2,0.5-4.6,1.1-7,1.6
					c-1.9,2.5-4.1,4.7-6.4,6.7c-2.3,2-5.2,3.1-8.2,3.2c-1.3,0-2.7-0.4-3.7-1.3c-1-0.8-1.6-2-1.6-3.3c0-0.8,0.2-1.5,0.6-2.2
					c-2.7,0.3-5.5,0.6-8.3,0.8c-13.9,1-29.2-1-42.5-3.8H24.8c-0.9,0-1.7-0.8-1.7-1.7l0,0v-1.1c-13.6-3.5-23-7-23-7
					s35.2,25.1,76.8,24.5c15.4-0.2,32.9-7.4,45.8-14.1C122.5,67.1,122.4,67.1,122.3,67.1z"/>
				<path id="Path_268" class="st1" d="M89.1,71.2c-0.2,0.1-0.3,0.3-0.2,0.5c0,0.1,0,0.3,0.4,0.7c0.4,0.3,0.9,0.5,1.4,0.5
					c1.1,0,2.1-0.2,3.1-0.7c-0.5-0.2-1.1-0.5-1.6-0.7c-0.6-0.4-1.3-0.6-2-0.6C89.9,70.8,89.5,70.9,89.1,71.2z"/>
			</g>
		</g>
		<g id="Group_75" transform="translate(131.788)">
			<g id="Group_74">
				<path id="Path_269" class="st1" d="M148.5,66.1l-1.1,3.3c10.5,1.7,17.2,3.1,17.2,3.1S158.5,69.6,148.5,66.1z"/>
				<path id="Path_270" class="st1" d="M48,64.3c0.3,0,0.6-0.1,0.9-0.1c1-0.1,2.8-0.4,5.2-0.8c0.9-0.2,1.8,0.5,2,1.4
					c0,0,0,0.1,0,0.1c1.2-1,2.6-1.5,4.1-1.5c1.4-0.1,2.8,0.5,3.7,1.5c0.3,0.4,0.6,0.8,0.7,1.2c1-0.1,2-0.2,3.1-0.3
					c2.2-1.6,4.8-2.5,7.5-2.5c1.4-0.1,2.8,0.4,3.9,1.2c0.3-0.3,0.7-0.5,1.1-0.5l6.2-0.4c0.7,0,1.4,0.4,1.7,1l0.6,0
					c0.1,0,0.2,0,0.2-0.1l1.8-0.2c1.3-0.2,2.4-0.3,3.2-0.5c0.8-0.1,2-0.3,3.6-0.6c0.8-0.1,1.6,0.3,1.9,1.1c0,0.1,0.1,0.2,0.1,0.3
					c1.3,0,2.6,0.1,3.9,0.1c0.1-0.2,0.3-0.3,0.4-0.4c0.9-0.8,2.1-1.2,3.2-1.1c1.3,0,2.5,0.4,3.5,1.3c0.3,0.2,0.5,0.5,0.7,0.7
					c2.5,0.2,4.9,0.4,7.4,0.6c2.6-1.7,5.6-2.6,8.6-2.6c1.8-0.1,3.6,0.4,5.2,1.3c1.1,0.7,1.9,1.7,2.3,3c1,0.1,1.9,0.2,2.8,0.4
					l1.6-4.8c-16.2-4.9-38.2-9.8-60.5-9c-10.1,0.5-20.1,2.3-29.8,5.3L48,64.3z"/>
				<path id="Path_271" class="st1" d="M144,68.9l1.3-3.8c-0.9-0.3-1.7-0.6-2.6-0.9l-1.4,4.3C142.2,68.6,143.1,68.7,144,68.9z"/>
				<path id="Path_272" class="st1" d="M49.3,67.6c-0.5,0.1-1,0.1-1.6,0.2c0.1,0.2,0.1,0.3,0.2,0.5c1.2-0.2,2.4-0.4,3.7-0.6l0.2-0.5
					C50.7,67.4,49.9,67.5,49.3,67.6z"/>
				<path id="Path_273" class="st1" d="M22.7,70.3c-4.6,2.3-9.1,5-13.5,7.8c4-1.6,8.1-3,12.3-4.2L22.7,70.3z"/>
				<path id="Path_274" class="st1" d="M41.5,67.6v-1.2c0.9,0,1.6-0.8,1.6-1.7c0-0.1,0-0.2-0.1-0.4c0-0.9-0.2-1.8-0.4-2.6
					c-2.1,0.7-4.1,1.5-6,2.3l-2.2,6.8c2.5-0.5,5.2-1.1,8.2-1.6C41.9,68.9,41.5,68.3,41.5,67.6z"/>
				<path id="Path_275" class="st1" d="M30.5,71.7l1.9-5.9c-1.9,0.8-3.7,1.6-5.4,2.5l-1.5,4.7C27,72.5,28.7,72.1,30.5,71.7z"/>
			</g>
		</g>
	</g>
	<g id="Group_77" transform="translate(146.359 246.359)">
		<path id="Path_276" class="st1" d="M1.6,85.9c1.1,0,2.1-0.3,3-0.8c0.7-0.7,1.3-1.6,1.5-2.5L13,61.3c0.1-0.5,0.3-1,0.4-1.4
			c0.1-0.4,0.2-0.8,0.2-1.2c0-0.8-0.3-1.3-0.8-1.5c-1.1-0.3-2.2-0.5-3.3-0.5v-1.2h17.6v1.2c-1.3,0.1-2.7,0.3-3.9,0.8
			c-0.9,0.6-1.5,1.6-1.7,2.6l-3,9.4h13.3l2.6-8.2c0.2-0.5,0.3-1,0.4-1.5c0.1-0.4,0.2-0.7,0.2-1.1c0.1-0.7-0.4-1.4-1.1-1.6
			c-1-0.2-2-0.4-3-0.4v-1.2h16.6v1.2c-0.9,0.1-1.8,0.3-2.7,0.7c-0.9,0.7-1.6,1.6-1.8,2.7l-6.8,21.2l-0.5,1.6
			c-0.1,0.3-0.1,0.6-0.2,0.7c0,0.1,0,0.2,0,0.3c0,0.8,0.5,1.4,1.2,1.6c1,0.2,1.9,0.3,2.9,0.3v1.2H22v-1.2c1.3,0,2.7-0.3,3.9-0.8
			c0.9-0.6,1.5-1.6,1.7-2.6l3.5-10.9H17.9l-3.2,9.7c-0.2,0.7-0.4,1.2-0.4,1.5c-0.1,0.4-0.1,0.7-0.1,1.1c0,0.8,0.2,1.2,0.7,1.4
			c1.1,0.3,2.2,0.4,3.3,0.5v1.2H1.6V85.9z"/>
		<path id="Path_277" class="st1" d="M46.8,70.8c3.4-3.7,6.8-5.6,10.3-5.6c1.1-0.1,2.3,0.3,3.1,1.1c0.5,0.6,0.9,1.4,1.1,2.1l1-2.5
			l6.2-0.4l-3.9,11c-0.6,1.6-1,2.8-1.2,3.6c-0.4,1.1-0.6,2.2-0.7,3.4c0,0.2,0.1,0.4,0.2,0.6c0.1,0.1,0.3,0.2,0.5,0.2
			c0.3,0,0.7-0.1,1-0.3c0.4-0.3,0.7-0.6,1-0.9c0.2-0.2,0.5-0.5,0.9-0.9c0.4-0.5,0.8-0.9,1.1-1.2l1.2,0.7c-1.3,1.6-2.7,3.1-4.3,4.4
			c-1.2,1-2.6,1.5-4.1,1.6c-0.9,0-1.8-0.3-2.5-0.8c-0.8-0.5-1.2-1.4-1.2-2.4c0.1-1,0.4-2,0.7-2.9c0.1-0.1,0,0.1-0.2,0.3
			c-0.2,0.3-0.5,0.7-1,1.2c-1,1.2-2.1,2.3-3.5,3.2c-1.3,0.9-2.9,1.3-4.4,1.3c-1.5,0-2.9-0.5-4.1-1.4c-1.3-0.9-1.9-2.5-1.9-4.8
			C41.9,78,43.5,74.5,46.8,70.8z M59.6,68.3c-0.4-0.7-1.1-1.1-1.9-1.1c-2,0-4.1,2-6.2,6c-1.9,3.6-2.8,6.3-2.8,8.2
			c0,0.7,0.2,1.4,0.7,2c0.4,0.5,1.1,0.9,1.8,0.8c1.8,0,3.9-2.1,6.3-6.2c1.7-3.5,2.5-6.3,2.5-8.3C59.9,69.3,59.8,68.7,59.6,68.3
			L59.6,68.3z"/>
		<path id="Path_278" class="st1" d="M75.4,91.1c1.1-0.9,1.8-2.3,1.9-3.7c-0.2-2.2-0.5-4.3-1.1-6.5c-0.5-2.1-0.9-4.1-1.4-6.1
			c-0.5-2.1-1.1-4.2-2.1-6.2c-0.7-0.7-1.6-1.1-2.6-1v-1.3c1.7-0.1,3.5-0.3,5.4-0.6s2.8-0.4,2.6-0.4l0.4-0.1c0.4,1.1,1.1,3.3,2,6.5
			c0.9,3.2,1.6,6.2,2.1,8.8l0.2,1.1l1-1.5c1-1.4,1.8-2.9,2.5-4.4c0.6-1.1,1.1-2.3,1.3-3.5c0-0.3-0.1-0.6-0.3-0.8
			c-0.2-0.3-0.5-0.6-0.9-0.8L86,70.4c-0.3-0.2-0.6-0.5-0.9-0.7c-0.4-0.5-0.6-1-0.6-1.6c0-0.7,0.4-1.4,0.9-1.9
			c0.6-0.6,1.4-0.9,2.3-0.9c0.8,0,1.7,0.3,2.3,0.8c0.8,0.6,1.2,1.5,1.1,2.5c0,1.9-1,4.7-3.1,8.5c-1.6,2.9-3.4,5.7-5.4,8.4
			c-2.3,3.2-4.9,6.1-7.9,8.6c-2,1.7-4.5,2.7-7.1,2.8c-0.9,0-1.9-0.3-2.6-0.9c-0.6-0.5-1-1.2-1-2c0-0.7,0.3-1.4,1-1.9
			c0.6-0.5,1.4-0.7,2.1-0.7c1,0,2,0.3,2.8,0.8c0.6,0.4,1.4,0.7,2.1,0.8C73,93,74.1,92.4,75.4,91.1z"/>
		<path id="Path_279" class="st1" d="M92.1,79.8l1.5,0.1c0.3,2.3,1,4,2.1,4.9c0.9,0.9,2.1,1.4,3.3,1.4c0.8,0,1.6-0.2,2.3-0.8
			c0.5-0.4,0.8-1.1,0.8-1.8c0-0.8-0.3-1.5-0.7-2.1c-0.5-0.8-1.1-1.5-1.8-2.2l-2.1-2.2c-0.9-0.8-1.7-1.8-2.3-2.9
			c-0.6-1-0.9-2.1-0.9-3.3c0-1.6,0.8-3.1,2.1-4.1c1.6-1.2,3.6-1.8,5.7-1.7c1.1,0,2.1,0.2,3.1,0.5c0.7,0.3,1.4,0.4,2.1,0.5
			c0.3,0,0.7-0.1,1-0.3c0.2-0.2,0.4-0.5,0.6-0.7h1.6l-1.3,7.2l-1.5-0.1c-0.2-1.6-0.8-3.1-1.9-4.3c-0.8-0.8-1.8-1.3-2.9-1.3
			c-0.8-0.1-1.7,0.2-2.3,0.8c-0.5,0.5-0.7,1.1-0.7,1.7c0,0.6,0.2,1.1,0.5,1.6c0.6,0.9,1.3,1.7,2.1,2.4l2.7,3
			c0.6,0.7,1.2,1.5,1.6,2.3c0.5,0.8,0.7,1.8,0.7,2.7c0,1.8-0.9,3.6-2.4,4.6c-1.7,1.2-3.8,1.8-5.9,1.7c-1.1,0-2.1-0.2-3.1-0.5
			c-0.7-0.2-1.3-0.4-2-0.5c-0.4,0-0.7,0.1-1,0.3c-0.2,0.2-0.4,0.4-0.6,0.7h-1.5L92.1,79.8z"/>
		<path id="Path_280" class="st1" d="M123.5,85.9c1.2,0.1,2.4-0.1,3.5-0.4c1.2-0.6,2-1.7,2.3-3l8.3-25.3c-2.5-0.1-4.9,0.5-7.1,1.7
			c-2.1,1.2-3.8,3-4.9,5.1l-1.4-0.3l2.1-8.1h30.7l-2,9.1l-1.5,0.1c-0.1-3.1-1.1-5.4-3-6.5c-1.5-0.7-3.1-1.1-4.7-1l-7.8,24.1
			l-0.5,1.6c0,0.2-0.1,0.4-0.1,0.5c0,0.1,0,0.3,0,0.4c-0.1,0.7,0.3,1.3,0.9,1.5c1.2,0.3,2.5,0.4,3.8,0.4v1.2h-18.4V85.9z"/>
		<path id="Path_281" class="st1" d="M149.2,87c1.6-4.5,3-8.4,4-11.6c0.7-2,1.3-4.1,1.7-6.2c0.1-0.5-0.2-1-0.7-1.1
			c-0.8-0.2-1.5-0.3-2.3-0.2v-1.2c2.3-0.1,4.3-0.3,5.9-0.5c1-0.1,2.8-0.4,5.3-0.8l-3.1,8.4l0.2,0.1c1.1-2,2.4-3.8,3.8-5.6
			c1.7-1.9,3.3-2.9,4.9-2.9c0.9-0.1,1.8,0.3,2.4,0.9c0.5,0.6,0.8,1.3,0.8,2.1c0,0.9-0.3,1.7-0.9,2.4c-0.6,0.7-1.5,1.1-2.4,1.1
			c-0.4,0-0.9-0.1-1.3-0.2c-0.4-0.1-0.7-0.4-1-0.7l-0.5-0.5c-0.1-0.1-0.2-0.2-0.3-0.2c-0.1-0.1-0.3-0.1-0.4-0.1
			c-0.7,0-1.6,0.8-2.8,2.4c-1.1,1.6-2.1,3.2-2.9,5c-0.5,1.2-1.2,2.8-2,5c-0.8,2.1-1.4,3.7-1.8,4.6L149.2,87z"/>
		<path id="Path_282" class="st1" d="M173.6,70.8c3.4-3.7,6.8-5.6,10.3-5.6c1.1-0.1,2.3,0.3,3.1,1.1c0.5,0.6,0.9,1.4,1.1,2.1l1-2.5
			l6.2-0.4l-3.9,11c-0.6,1.6-1,2.8-1.2,3.6c-0.4,1.1-0.6,2.2-0.7,3.4c0,0.2,0.1,0.4,0.2,0.6c0.1,0.1,0.3,0.2,0.5,0.2
			c0.3,0,0.7-0.1,1-0.3c0.4-0.3,0.7-0.6,1-0.9c0.2-0.2,0.5-0.5,0.9-0.9c0.4-0.5,0.8-0.9,1.1-1.2l1.2,0.7c-1.3,1.6-2.7,3.1-4.3,4.4
			c-1.2,1-2.6,1.5-4.1,1.6c-0.9,0-1.8-0.3-2.5-0.8c-0.8-0.5-1.2-1.4-1.2-2.4c0.1-1,0.4-2,0.7-2.9c0.1-0.1,0,0.1-0.2,0.3
			c-0.2,0.3-0.5,0.7-1,1.2c-1,1.2-2.1,2.3-3.5,3.2c-1.3,0.9-2.9,1.3-4.4,1.3c-1.5,0-2.9-0.5-4.1-1.4c-1.3-0.9-1.9-2.5-1.9-4.8
			C168.7,78,170.4,74.5,173.6,70.8z M186.5,68.3c-0.4-0.7-1.1-1.1-1.9-1.1c-2,0-4.1,2-6.2,6c-1.9,3.6-2.8,6.3-2.8,8.2
			c0,0.7,0.2,1.4,0.7,2c0.4,0.5,1.1,0.9,1.8,0.8c1.8,0,3.9-2.1,6.3-6.2c1.7-3.5,2.5-6.3,2.5-8.3C186.8,69.3,186.7,68.7,186.5,68.3
			L186.5,68.3z"/>
		<path id="Path_283" class="st1" d="M203.2,87.7h-1.4l0.2-6.4c0.1-1.9,0-3.6,0-5.2c-0.1-1.6-0.3-3.1-0.5-4.6
			c-0.1-1.1-0.5-2.1-1.1-3c-0.7-0.4-1.5-0.6-2.4-0.5v-1.3l1.8-0.2c1.3-0.2,2.4-0.3,3.2-0.5c0.8-0.1,2.1-0.3,3.7-0.6
			c0.8,2.7,1.3,5.4,1.4,8.2c0.1,1.9,0.2,4.4,0.3,7.5c1.4-1.2,2.7-2.5,3.9-3.9c2.1-2.2,3.1-3.9,3.1-4.8c-0.1-0.8-0.6-1.5-1.2-1.9
			c-0.7-0.6-1.2-1.4-1.2-2.3c0-0.8,0.3-1.5,0.9-2c0.6-0.5,1.4-0.8,2.2-0.7c0.9,0,1.7,0.3,2.4,0.9c0.7,0.6,1.1,1.6,1,2.5
			c0,2-1.6,4.9-4.7,8.5c-2.5,2.9-5.3,5.6-8.3,8L203.2,87.7z"/>
		<path id="Path_284" class="st1" d="M225.1,70.2c3.3-3.3,7-5,11-5c1.5-0.1,3,0.3,4.3,1.1c1.1,0.6,1.7,1.8,1.7,3.1
			c0,2-1.3,3.9-4,5.7c-3.1,1.9-6.6,3.1-10.3,3.4c-0.1,0.5-0.2,0.9-0.2,1.3c0,0.3-0.1,0.7-0.1,1c0,0.8,0.1,1.6,0.5,2.3
			c0.7,1.1,2,1.7,3.3,1.5c1.5-0.1,2.9-0.7,4-1.7c0.8-0.8,1.6-1.6,2.3-2.6l1.6,0.8c-1.1,1.6-2.4,3.1-3.9,4.3c-2,1.5-4.4,2.3-6.9,2.2
			c-2,0-3.9-0.6-5.5-1.8c-1.8-1.3-2.7-3.3-2.6-5.5C220.3,76.8,221.9,73.4,225.1,70.2z M236.7,67.3c-0.3-0.4-0.8-0.6-1.3-0.6
			c-1.3,0-2.6,0.9-3.8,2.7c-1.5,2.3-2.6,4.8-3.4,7.5c3.2-0.6,5.5-1.8,6.8-3.5c1.2-1.3,1.9-2.9,2-4.7C237,68.2,236.9,67.7,236.7,67.3
			z"/>
		<path id="Path_285" class="st1" d="M243.7,82.4c0.1-0.4,0.3-1,0.5-1.8l6.6-20.3c0.2-0.5,0.3-1,0.4-1.3c0.1-0.3,0.1-0.5,0.1-0.8
			c0.1-0.6-0.3-1.1-0.8-1.3c-0.9-0.2-1.8-0.2-2.7-0.2v-1.3c2.8-0.2,4.6-0.4,5.6-0.5c1-0.1,3-0.4,6-0.9l-8,24.7
			c-0.4,1.2-0.6,2-0.7,2.4c-0.2,0.7-0.4,1.5-0.5,2.2c0,0.3,0.1,0.5,0.3,0.7c0.2,0.1,0.4,0.2,0.5,0.2c0.8-0.1,1.5-0.6,2.1-1.2
			c0.8-0.8,1.6-1.6,2.2-2.6l1.2,0.7c-1.2,1.6-2.5,3.1-4,4.4c-1.5,1.3-3.4,2-5.4,2.1c-1,0-1.9-0.3-2.7-0.9c-0.7-0.5-1.2-1.4-1.1-2.3
			C243.4,83.6,243.5,83,243.7,82.4z"/>
	</g>
</g>
</svg>
