<?xml version="1.0" encoding="utf-8"?>
<!-- Generator: Adobe Illustrator 24.2.2, SVG Export Plug-In . SVG Version: 6.00 Build 0)  -->
<svg version="1.1" id="Layer_1" xmlns="http://www.w3.org/2000/svg" xmlns:xlink="http://www.w3.org/1999/xlink" x="0px" y="0px"
	 viewBox="0 0 296.4 157.6" style="enable-background:new 0 0 296.4 157.6;" xml:space="preserve">
<style type="text/css">
	.st0{fill:none;}
	.st1{fill:#FFFFFF;}
</style>
<rect class="st0" width="296.4" height="157.6"/>
<g id="Group_99" transform="translate(-224.669 -272.949)">
	<g id="Group_97" transform="translate(274.944 272.949)">
		<path id="Path_511" class="st1" d="M143.1,31.1H81.4V5.2C82,5.1,82.6,5,83.2,5c10.5-0.1,20.9-0.2,31.4-0.2c1.2,0,2.3,0.4,3.2,1.1
			c8.1,7.8,16.1,15.8,24.1,23.7C142.2,29.9,142.4,30.2,143.1,31.1z"/>
		<path id="Path_512" class="st1" d="M117.4,95.6V34.2h26.3c0,1.1,0,2.2,0,3.3c0,10,0.1,20,0,30c0,1-0.3,2-1,2.8
			C134.6,78.5,126.3,86.8,117.4,95.6z"/>
		<path id="Path_513" class="st1" d="M52.5,67c-0.1-0.7-0.1-1.4-0.1-2.1C52.2,54.5,52,44.2,52,33.9c0-1.2,0.4-2.3,1.2-3.2
			c8.1-8.2,16.4-16.4,24.6-24.6C78,6.1,78.2,6,78.5,5.9V67H52.5z"/>
		<path id="Path_514" class="st1" d="M53.1,70h61.3c0.1,0.6,0.2,1.1,0.2,1.7c0,7.3,0,14.5,0.1,21.8c0,1.9-0.5,2.6-2.6,2.6
			c-10.4-0.1-20.8,0.1-31.1,0c-1,0-2-0.3-2.8-0.9c-8.4-8.1-16.6-16.3-24.9-24.5C53.3,70.6,53.3,70.4,53.1,70z"/>
	</g>
	<g id="layer1" transform="translate(224.669 381.812)">
		<path id="path33" class="st1" d="M60.1,4.8v1h3.6v18.8c0,5.6-1.6,7.2-5.1,7.2c-1.3,0.1-2.4-0.8-2.6-2.1c0-0.1,0-0.3,0-0.4
			c0-2.1-0.1-3.3-2-3.3S52,27.8,52,28.4c0,2.6,1.2,4.6,6.3,4.6c6.1,0,9.4-2.1,9.4-8.9V5.8l3.7,0v-1L60.1,4.8 M71.4,29.3
			c-0.4,0.4-0.7,1-0.7,1.6c0,0.6,0.2,1.1,0.7,1.5c0.4,0.4,1,0.6,1.6,0.6c0.6,0,1.2-0.2,1.6-0.6c0.4-0.4,0.7-1,0.6-1.5
			c0-1.2-1-2.2-2.2-2.2c0,0,0,0-0.1,0C72.3,28.6,71.8,28.8,71.4,29.3 M96.5,29.3c-0.4,0.4-0.7,1-0.6,1.6c0,0.6,0.2,1.1,0.6,1.5
			c0.9,0.9,2.3,0.9,3.2,0c0.4-0.4,0.7-1,0.7-1.5c0-0.6-0.2-1.2-0.7-1.6c-0.4-0.4-1-0.7-1.6-0.6C97.5,28.6,96.9,28.8,96.5,29.3
			 M79.1,4.8v1h3.3v21.4c0.1,0.9,0,1.8-0.3,2.6c-0.2,0.6-0.7,1-1.3,1.3c-0.7,0.2-1.5,0.4-2.3,0.3v0.9h11.9v-0.9
			c-0.8,0-1.5-0.1-2.3-0.3c-0.6-0.2-1.1-0.7-1.4-1.3c-0.2-0.6-0.3-1.2-0.3-1.8v-7.3l3,0c8.6,0,11-3.4,11-8c0-4.7-1.5-7.9-10.2-7.9
			L79.1,4.8 M86.4,5.9l2.1,0c6.6,0,8.1,2.7,8.1,7.1c0,4.4-2.6,6.7-7.8,6.7h-2.3V5.9 M131.3,4.9c-0.1,0.3-8.4,20.9-8.4,20.9l-0.2,0.1
			l-0.2-0.1c0,0-8.8-20.7-8.9-20.9h-7.8v0.9h3.4V27l-0.1,1.9c0,0.5-0.2,0.9-0.5,1.3c-0.3,0.4-0.7,0.7-1.3,0.9
			c-0.5,0.1-1.1,0.2-1.6,0.2v0.9h7.7v-0.9c-0.5,0-0.9-0.1-1.3-0.2c-0.5-0.1-1-0.4-1.3-0.9c-0.3-0.4-0.4-0.9-0.5-1.4l-0.1-1.9V8.7
			h0.5c0,0,10,23.4,10.1,23.6h0.8l9.5-23.4h0.2v18.9c0,0.6-0.1,1.3-0.2,1.9c-0.2,0.6-0.6,1-1.2,1.3c-0.6,0.2-1.3,0.3-2,0.3v0.9h10.8
			v-0.9c-0.7,0-1.3-0.1-2-0.4c-0.6-0.2-1-0.7-1.2-1.3c-0.2-0.6-0.3-1.2-0.2-1.9V5.8l2.9,0V4.9L131.3,4.9 M140.8,22.7
			c0,9.8,7.6,10.4,9.3,10.4c3.3,0,9.4-2,9.4-10.6c0-6.7-3.9-10.3-9.3-10.3C144.4,12.2,140.8,16,140.8,22.7 M145.1,22.8
			c0-5.4,0.3-9.4,5-9.4c5,0,5.1,4.2,5.1,9.1c0,7-1.2,9.5-5.1,9.5C145.8,31.9,145.1,29.7,145.1,22.8 M169.1,16.6l-0.3,0
			c0,0-0.5-3-0.7-3.9c-1.3,0-6.7,0-6.7,0v1h3.6c0,0,0,3.1,0,4.2v9.4c0.1,1-0.1,1.9-0.4,2.9c-0.4,0.7-1.2,1-2.6,1h-0.6v1.2h11.2v-1.2
			h-0.6c-1.5,0-2.1-0.3-2.5-1c-0.4-0.9-0.6-1.9-0.5-2.9v-7c0-2.4,1.8-5.1,3.9-5.1c2.2,0,2.2,3.5,4.7,2.1c1.4-0.8,1.1-4.7-3.1-4.7
			C171.2,12.5,170.1,14.5,169.1,16.6 M204.1,13.7c-1.1,0.7-1.8,1.9-1.8,3.2c0,0.5,0.1,1,0.5,1.3c0.3,0.3,0.8,0.5,1.2,0.4
			c1.1,0,1.7-0.6,2-2c0.1-0.8,0.4-1.6,0.9-2.3c0.7-0.7,1.7-1,2.7-0.9c1.1-0.1,2.2,0.3,3,1.1c0.6,0.9,0.8,1.9,0.8,2.9v3.3
			c-3.6,0.3-12.1,1-11.7,7.5c0.2,2.7,2.5,4.8,5.2,4.7c2.6-0.1,4.9-1.3,6.6-3.3c0.3,1.8,2,3.1,3.8,3c2.6,0,4.2-1.3,4.3-4.5h-0.7
			c-0.2,1.4-1,2.1-1.7,2.1c-1.2,0-1.6-0.7-1.7-1.8l-0.1-2.5v-8.2c0.2-1.5-0.3-2.9-1.3-4c-1-1-3-1.6-5.9-1.6
			C207.4,12.2,205.4,12.7,204.1,13.7 M205.6,27.4c0-3.7,5-5.5,7.8-5.5v6.3l-0.1,0.2l-0.1,0.1c-1.9,1.7-3.4,2.4-4.5,2.4
			C206,30.8,205.6,28.5,205.6,27.4 M229.5,16.2l-0.4,0l-0.7-3.6l-6.1,0v1c1.1,0,3,0.1,3,0.1v13.5c0,0.8-0.1,1.6-0.2,2.3
			c-0.1,0.6-0.6,1-1.1,1.3c-0.5,0.2-1.1,0.3-1.7,0.3v1.2h9.7V31c-0.8,0-1.5-0.3-2-0.8c-0.4-0.9-0.6-1.8-0.5-2.8v-5.2
			c0-2.2,0-4.3,0.7-5.6c0.8-1.4,2.3-2.2,3.9-2.2c1.1-0.2,2.2,0.4,2.7,1.4c0.5,1.5,0.7,3,0.7,4.6l0,6.4c0,1.1,0.1,1.9,0,2.4
			c-0.1,0.6-0.4,1-0.8,1.4c-0.5,0.3-1,0.4-1.6,0.4v1.3h9.3v-1.2c-1.2-0.1-2-0.4-2.3-0.9c-0.5-0.9-0.8-1.9-0.7-2.9l0.1-8.9
			c0.1-1.1-0.2-2.3-0.7-3.3c-0.5-0.9-1.2-1.5-2-2c-0.9-0.4-1.9-0.7-3-0.7C233.2,12.3,230.7,13.8,229.5,16.2 M198.3,11.4
			c-0.6,0.3-1.1,0.9-1.2,1.6c-0.2,0.8-0.5,1.3-0.9,1.4c-0.5,0.1-1,0.1-1.4-0.1c-1-0.9-2.9-2.1-6.3-2.1c-5.5,0-7.9,3.9-7.9,7.4
			c0,4.1,1.6,6.2,5.1,6.9c0.2,0,0.2,0.3,0,0.3c-3,0.6-5.6,1.5-5.6,4.3c0,1.4,0.9,2.7,2.2,3.2c1.9,0.6,3.8,0.9,5.8,0.9
			c2.1,0,3.7,0.1,4.7,0.2c0.9,0.1,1.8,0.4,2.5,0.9c0.7,0.5,1,1.3,1,2.2c0,1.4-0.8,2.6-2.1,3.2c-1.6,0.8-3.5,1.2-5.3,1.1
			c-1.7,0.1-3.4-0.3-4.9-1.1c-0.9-0.6-1.3-1.8-1-2.8c0.3-0.8-0.2-1.7-1-2c-0.1,0-0.1,0-0.2-0.1c-0.7-0.1-1.3,0.2-1.7,0.8
			c-0.3,0.5-0.5,1.2-0.4,1.8c0,1.9,1.4,3.5,3.2,3.8c1.8,0.6,3.6,0.8,5.4,0.8c2.1,0.1,4.2-0.3,6.1-1.1c1.3-0.6,2.4-1.5,3.1-2.7
			c0.6-1,0.9-2.1,0.9-3.2c0.1-1.2-0.3-2.4-0.9-3.4c-1.9-2.7-4.7-2.3-10.9-2.6c-3,0-3.6-0.5-3.6-1.5c0-1.3,1.1-1.9,5.4-2.5
			c4.3-0.7,8.2-2.2,8.2-7.4c0-1.3-0.3-2.5-0.8-3.7c0.8,0.2,1.7,0.2,2.5-0.1c0.7-0.2,1.4-0.6,1.7-1.3c0.3-0.5,0.4-1.2,0.2-1.7
			c-0.3-0.9-0.8-1.4-1.5-1.4C198.8,11.3,198.5,11.3,198.3,11.4 M184.7,19.6c0-3.7,1.3-6.4,4-6.4c3.2,0,4.1,2.5,4.1,6.3
			c0,5.5-1.7,6.2-4.1,6.2C186.2,25.7,184.7,24.8,184.7,19.6"/>
	</g>
</g>
</svg>
