<?xml version="1.0" encoding="utf-8"?>
<!-- Generator: Adobe Illustrator 24.2.2, SVG Export Plug-In . SVG Version: 6.00 Build 0)  -->
<svg version="1.1" id="Layer_1" xmlns="http://www.w3.org/2000/svg" xmlns:xlink="http://www.w3.org/1999/xlink" x="0px" y="0px"
	 viewBox="0 0 296.4 157.6" style="enable-background:new 0 0 296.4 157.6;" xml:space="preserve">
<style type="text/css">
	.st0{fill:none;}
	.st1{fill:#FFFFFF;}
</style>
<rect class="st0" width="296.4" height="157.6"/>
<g id="Group_132" transform="translate(-20.675 -181.8)">
	<g id="Group_127" transform="translate(77.261 181.8)">
		<g id="Group_126">
			<path id="Path_626" class="st1" d="M25.5,12c0.4-0.6,0.9-0.6,1.3,0l5.5,10.1c0.5,0.7,1,1.3,1.7,1.7l10.1,5.5
				c0.6,0.4,0.6,0.9,0,1.3L34,36c-0.7,0.4-1.3,1-1.7,1.7l-5.5,10c-0.4,0.6-0.9,0.6-1.3,0L20,37.7c-0.5-0.7-1-1.3-1.7-1.7L8.1,30.5
				c-0.7-0.4-0.7-0.9,0-1.3l10.1-5.5c0.7-0.5,1.3-1,1.7-1.7L25.5,12z"/>
		</g>
	</g>
	<g id="Group_129" transform="translate(108.086 219.051)">
		<g id="Group_128">
			<path id="Path_627" class="st1" d="M27.4,14.5c0.4-0.6,0.9-0.6,1.3,0l5.5,10.1c0.5,0.7,1,1.3,1.7,1.7L46,31.8
				c0.6,0.4,0.6,0.9,0,1.3l-10.1,5.5c-0.7,0.4-1.3,1-1.7,1.7l-5.5,10.1c-0.4,0.6-0.9,0.6-1.3,0L22,40.2c-0.5-0.7-1-1.3-1.7-1.7
				L10.1,33c-0.6-0.4-0.6-0.9,0-1.3l10.1-5.5c0.7-0.5,1.3-1,1.7-1.7L27.4,14.5z"/>
		</g>
	</g>
	<g id="Group_130" transform="translate(20.675 201.722)">
		<path id="Path_628" class="st1" d="M39.4,80c-3.4-1-5.3-3.1-5.3-6.1c0-2.1,1.3-4,3.4-5.6c2.5-1.6,5.5-2.5,8.5-2.4
			c3,0,6,0.7,8.8,2.1l0.3-0.5c0.9-1.5,2.1-2.7,3.6-3.6l7-3.9c0.8-2,1.7-4,2.7-6.2v-0.1c-1.9-3.9-3.3-8.1-4.3-12.4l-5.4-2.9
			c-1.5-0.9-2.7-2.1-3.6-3.6L43.6,13.9c-0.7-1.3-1.8-1.3-2.5,0L29.5,34.7c-0.9,1.5-2.1,2.7-3.6,3.6l-21,11.5c-1.3,0.7-1.3,1.8,0,2.5
			l21.1,11.5c1.5,0.9,2.7,2.1,3.6,3.6L41,88.4c0.7,1.3,1.8,1.3,2.5,0l2.2-4.1C44.3,82.2,42,80.6,39.4,80z"/>
		<path id="Path_629" class="st1" d="M103.6,69c-1.4,0.1-2.8,0.6-3.8,1.5c0.4-4.5-1.3-7.7-4.3-8.9c-1.9-0.7-3.9-0.6-5.7,0.3l-2.5-6
			c2.3-5.6,6.3-12.4,6.3-18c0-4.3-2.2-7.5-6.4-7.5c-2.5,0-5.3,2.1-7.5,4.8c-2.9-6.5-6-9.5-9.3-9.5c-5.2,0-7.4,5.2-7.4,9.7
			c0,3.7,1,9.8,5,18.4c-2.8,6-5.2,12.2-7.2,18.6c-3.9-4.2-9.3-6.6-15-6.6c-3.1-0.1-6.1,0.8-8.7,2.5c-2,1.2-3.3,3.4-3.5,5.7
			c0,3.2,2.2,5.3,5.5,6.2c5.7,1.5,8.2,6.2,10.4,15.2c4,16.3,14.1,26.1,29.7,26.1c16.6,0,30-13.5,30-30c0-2.2-0.2-4.4-0.7-6.5
			c0.5-1.3,0.9-2.5,1.2-3.8C111.4,74,108.8,69,103.6,69 M94.2,65.2c2.7,1.3,2.9,6.8,0.2,13.4c-2.2,6.4-5.3,10.2-8.2,10.2
			c-2.3,0-4.2-1.6-4.2-5.9C82.1,74.8,88.7,62.6,94.2,65.2 M66.7,35.4c0-2.7,1.2-5.9,3.7-5.9c1.8,0,4,2.8,6.5,8.4
			c-2.6,3.5-4.8,7.2-6.7,11.1C67.9,43,66.7,38.5,66.7,35.4 M79.5,117.5c-13.4,0-22.5-9.3-26.1-23.2c-2.4-9.5-5.5-15.9-13.2-17.9
			c-0.9-0.3-2.5-0.9-2.5-2.5c0-1.8,3-4.3,8.2-4.3c6.4,0,11.5,3.9,15.2,9l2.7-1c0.4-5.2,3-12.4,7.7-22.3
			c5.9-12.6,11.8-21.2,15.7-21.1c1.3,0,2.7,1.5,2.7,3.7c0,5.2-4.6,13-8.6,21.5c-0.4,0.9-2.3,4.9-2.3,4.9l2.6,1.2
			c0.9-1.4,2.7-4.9,2.9-5.5l2,4.3c-4.2,3.6-7.9,12-7.9,18.6c0,4.9,2.2,7.9,5.3,8.9c2.9,0.9,6.1-0.1,7.9-2.5c0.5,3,2.5,5.7,6.5,5.7
			c3.5,0,5.8-2,7.5-5.4c0.6,14.9-11,27.4-25.9,28C79.9,117.5,79.7,117.5,79.5,117.5 M106.6,80.5c-0.9,5.3-4.1,11.3-8.2,11.3
			c-3.8,0-3.6-5.1-2.7-8.1c1.4-5.5,5.1-11.2,7.9-11.2C106.2,72.5,107.4,75.9,106.6,80.5 M93.1,107.3c-11.4,6.4-21.9,2.3-25.8-9.4
			l3.3-1.5c3.3,9.5,12.6,12.2,21.2,7.7L93.1,107.3z M90,82.8c0,1.6-1.3,3-3,3s-3-1.3-3-3c0-1.6,1.3-3,3-3c0,0,0,0,0,0
			c1.6,0,3,1.3,3,2.9C90,82.7,90,82.8,90,82.8 M102.5,86.3c0,1.5-1.2,2.7-2.7,2.7c-1.5,0-2.7-1.2-2.7-2.7c0-1.5,1.2-2.7,2.7-2.7h0
			C101.2,83.6,102.5,84.8,102.5,86.3C102.5,86.3,102.5,86.3,102.5,86.3"/>
	</g>
	<path id="Path_630" class="st1" d="M168.1,234.6h-6.7v-5.1h19.3v5.1H174v16.8h-5.9L168.1,234.6L168.1,234.6z"/>
	<path id="Path_631" class="st1" d="M182,229.5h5.9v8h8.1v-8h5.9v21.9H196v-8.6h-8.1v8.6H182V229.5z"/>
	<path id="Path_632" class="st1" d="M204.4,229.5h15.8v5.1h-10v3.3h8.2v4.8h-8.2v3.8h10.7v5.1h-16.5L204.4,229.5L204.4,229.5z"/>
	<path id="Path_633" class="st1" d="M161.5,256.3h5.3l8.5,12.2v-12.2h5.8v21.9h-5l-8.8-12.6v12.6h-5.8V256.3z"/>
	<path id="Path_634" class="st1" d="M189.8,256.3h6.6l7.8,21.9h-6.3l-1.4-4.6h-7.4l-1.4,4.6h-6L189.8,256.3z M195.3,269.4l-2.5-8.1
		l-2.5,8.1H195.3z"/>
	<path id="Path_635" class="st1" d="M206.8,261.3h-6.7v-5.1h19.3v5.1h-6.6v16.8h-5.9L206.8,261.3L206.8,261.3z"/>
	<path id="Path_636" class="st1" d="M220.8,256.3h5.9v21.9h-5.9V256.3z"/>
	<path id="Path_637" class="st1" d="M240.1,278.7c-1.6,0-3.1-0.3-4.6-0.9c-2.8-1.1-4.9-3.3-6-6.1c-1.2-3-1.2-6.3,0-9.2
		c0.6-1.4,1.4-2.6,2.4-3.7c1-1,2.3-1.8,3.6-2.4c2.9-1.2,6.2-1.2,9.1,0c2.8,1.1,4.9,3.3,6,6.1c1.2,3,1.2,6.3,0,9.2
		c-0.6,1.4-1.4,2.6-2.4,3.7c-1,1-2.3,1.8-3.6,2.4C243.2,278.5,241.7,278.8,240.1,278.7z M240.1,273.3c0.8,0,1.6-0.2,2.3-0.5
		c0.7-0.3,1.2-0.7,1.7-1.3c0.5-0.6,0.8-1.3,1.1-2c0.3-0.8,0.4-1.6,0.4-2.4c0-0.8-0.1-1.6-0.4-2.4c-0.2-0.7-0.6-1.4-1.1-2
		c-0.4-0.6-1-1-1.7-1.3c-0.7-0.3-1.5-0.5-2.3-0.5c-0.8,0-1.6,0.2-2.3,0.5c-0.7,0.3-1.2,0.7-1.7,1.3c-0.5,0.6-0.8,1.3-1.1,2
		c-0.3,0.8-0.4,1.6-0.4,2.4c0,0.8,0.1,1.6,0.4,2.4c0.2,0.7,0.6,1.4,1.1,2c0.4,0.6,1,1,1.7,1.3C238.5,273.1,239.3,273.3,240.1,273.3
		L240.1,273.3z"/>
	<path id="Path_638" class="st1" d="M253.7,256.3h5.3l8.5,12.2v-12.2h5.8v21.9h-5l-8.8-12.6v12.6h-5.8V256.3z"/>
	<path id="Path_639" class="st1" d="M281.9,256.3h6.6l7.8,21.9h-6.3l-1.4-4.6h-7.4l-1.4,4.6h-6L281.9,256.3z M287.5,269.4l-2.5-8.1
		l-2.5,8.1H287.5z"/>
	<path id="Path_640" class="st1" d="M297.2,256.3h5.9v16.8h10.2v5.1h-16L297.2,256.3L297.2,256.3L297.2,256.3z"/>
	<path id="Path_641" class="st1" d="M161.7,283h5.9v16.8h10.2v5.1h-16L161.7,283L161.7,283z"/>
	<path id="Path_642" class="st1" d="M188.9,305.4c-1.6,0-3.1-0.3-4.6-0.9c-2.8-1.1-4.9-3.3-6-6.1c-1.2-3-1.2-6.3,0-9.2
		c0.6-1.4,1.4-2.6,2.4-3.7c1-1,2.3-1.8,3.6-2.4c2.9-1.2,6.2-1.2,9.1,0c2.8,1.1,4.9,3.3,6,6.1c0.6,1.5,0.9,3,0.9,4.6
		c0,1.6-0.3,3.1-0.9,4.6c-0.6,1.4-1.4,2.6-2.4,3.7c-1,1-2.3,1.8-3.6,2.4C192,305.2,190.5,305.5,188.9,305.4z M188.9,300.1
		c0.8,0,1.6-0.2,2.3-0.5c0.7-0.3,1.2-0.7,1.7-1.3c0.5-0.6,0.8-1.3,1.1-2c0.3-0.8,0.4-1.6,0.4-2.4c0-0.8-0.1-1.6-0.4-2.4
		c-0.2-0.7-0.6-1.4-1.1-2c-0.4-0.6-1-1-1.7-1.3c-0.7-0.3-1.5-0.5-2.3-0.5c-0.8,0-1.6,0.2-2.3,0.5c-0.7,0.3-1.2,0.7-1.7,1.3
		c-0.5,0.6-0.8,1.3-1.1,2c-0.3,0.8-0.4,1.6-0.4,2.4c0,0.8,0.1,1.6,0.4,2.4c0.2,0.7,0.6,1.4,1.1,2c0.4,0.6,1,1,1.7,1.3
		C187.3,299.9,188.1,300.1,188.9,300.1z"/>
	<path id="Path_643" class="st1" d="M206.8,288.1h-6.7V283h19.3v5.1h-6.6V305h-5.9L206.8,288.1L206.8,288.1z"/>
	<path id="Path_644" class="st1" d="M227.3,288.1h-6.7V283h19.3v5.1h-6.6V305h-5.9L227.3,288.1L227.3,288.1z"/>
	<path id="Path_645" class="st1" d="M241.2,283h15.8v5.1h-10v3.4h8.2v4.8h-8.2v3.8h10.7v5.1h-16.5L241.2,283L241.2,283z"/>
	<path id="Path_646" class="st1" d="M259.6,283h9.1c1.1,0,2.1,0.1,3.2,0.4c0.9,0.3,1.7,0.8,2.5,1.4c0.7,0.6,1.2,1.4,1.6,2.3
		c0.4,1,0.6,2.1,0.6,3.1c0,1.3-0.3,2.6-1,3.8c-0.6,1.1-1.5,1.9-2.5,2.5l4.7,8.5h-6.3l-3.7-7.5h-2.4v7.5h-5.7L259.6,283L259.6,283z
		 M268.1,292.9c0.7,0,1.4-0.2,1.9-0.7c1-1.1,1-2.7,0-3.8c-0.5-0.5-1.2-0.8-2-0.7h-2.8v5.3L268.1,292.9z"/>
	<path id="Path_647" class="st1" d="M283.2,296.2l-7.8-13.2h6.6l4.3,7.8l4-7.8h6.5l-7.8,13.1v8.8h-5.9L283.2,296.2L283.2,296.2z"/>
	<g id="Group_131" transform="translate(276.931 265.817)">
		<path id="Path_648" class="st1" d="M26.5,28.2c-0.7,0-1.5-0.1-2.2-0.4c-0.6-0.3-1.2-0.7-1.7-1.2c-0.5-0.5-0.9-1.1-1.2-1.7
			c-0.3-0.7-0.4-1.4-0.4-2.2c0-0.7,0.1-1.5,0.4-2.2c0.5-1.3,1.6-2.3,2.9-2.9c0.7-0.3,1.4-0.4,2.2-0.4c0.7,0,1.5,0.1,2.2,0.4
			c0.6,0.3,1.2,0.7,1.7,1.2c0.5,0.5,0.9,1.1,1.2,1.7c0.3,0.7,0.4,1.4,0.4,2.2c0,0.7-0.1,1.5-0.4,2.2c-0.3,0.6-0.7,1.2-1.2,1.7
			c-0.5,0.5-1.1,0.9-1.7,1.2C27.9,28,27.2,28.2,26.5,28.2z M26.5,27.2c0.6,0,1.2-0.1,1.7-0.4c0.5-0.2,1-0.5,1.4-1
			c0.4-0.4,0.7-0.9,0.9-1.4c0.2-0.5,0.3-1.1,0.3-1.7c0-0.6-0.1-1.2-0.3-1.7c-0.2-0.5-0.5-1-0.9-1.4c-0.4-0.4-0.9-0.7-1.4-1
			c-1.1-0.5-2.4-0.5-3.5,0c-0.5,0.2-1,0.6-1.4,1c-0.4,0.4-0.7,0.9-1,1.4c-0.2,0.5-0.3,1.1-0.3,1.7c0,0.6,0.1,1.2,0.3,1.7
			c0.2,0.5,0.5,1,0.9,1.4c0.4,0.4,0.9,0.7,1.4,1C25.2,27,25.8,27.2,26.5,27.2z M24.5,19.9h2.2c0.3,0,0.6,0.1,0.9,0.1
			c0.2,0.1,0.5,0.2,0.7,0.4c0.1,0.2,0.3,0.3,0.4,0.5c0.1,0.2,0.1,0.4,0.1,0.6c0,0.3-0.1,0.7-0.3,1c-0.2,0.3-0.5,0.6-0.8,0.7l1.4,2.3
			h-1.3l-1.3-2.2h-0.9v2.2h-1.1L24.5,19.9L24.5,19.9z M26.6,22.5c0.3,0,0.5-0.1,0.7-0.2c0.3-0.4,0.3-1,0-1.3
			c-0.2-0.2-0.5-0.2-0.7-0.2h-1v1.7h1V22.5z"/>
	</g>
	<path id="Path_649" class="st1" d="M72.6,303.3c0,0-0.1,0.1-0.1,0.1l-10.1,5.5c-0.6,0.4-0.6,0.9,0,1.3l10.1,5.5
		c0.7,0.5,1.3,1,1.7,1.7l5.5,10.1c0.4,0.6,0.9,0.6,1.3,0l4.5-8.2C79.8,315.9,75.5,310.5,72.6,303.3z"/>
</g>
</svg>
