<?xml version="1.0" encoding="utf-8"?>
<!-- Generator: Adobe Illustrator 24.3.0, SVG Export Plug-In . SVG Version: 6.00 Build 0)  -->
<svg version="1.1" id="Layer_1" xmlns="http://www.w3.org/2000/svg" xmlns:xlink="http://www.w3.org/1999/xlink" x="0px" y="0px"
	 viewBox="0 0 296.4 157.6" style="enable-background:new 0 0 296.4 157.6;" xml:space="preserve">
<style type="text/css">
	.st0{fill:none;}
	.st1{fill:#FFFFFF;}
</style>
<rect y="0" class="st0" width="296.4" height="157.6"/>
<g id="vzAOpP_1_">
	<g>
		<path class="st1" d="M71.6,121.3c0-2.5,0-4.9,0-7.4c0-1.2,0-1.2,1.2-1.2c2.8,0,5.5,0,8.3,0c1.2,0,2.4,0.3,3.5,0.9
			c3.1,1.6,3.2,6.7,0.3,8.4c-0.8,0.4-0.8,0.9-0.5,1.6c0.8,1.8,1.5,3.6,2.2,5.4c0.4,1,0.4,1-0.8,1c-1.2,0-2.5,0-3.7,0
			c-1.2,0-1.2,0-1.6-1.2c-0.5-1.3-1-2.7-1.5-4c-0.1-0.3-0.2-0.6-0.3-0.8c-0.2-0.6-0.7-0.6-1.1-0.4c-0.2,0.1-0.4,0.5-0.4,0.8
			c0,1.4,0,2.8,0,4.1c0,1.5,0,1.5-1.6,1.5c-1,0-1.9,0-2.9,0c-1,0-1-0.1-1-1.1C71.6,126.4,71.6,123.8,71.6,121.3
			C71.6,121.3,71.6,121.3,71.6,121.3z M77.2,118.1c0,0.2,0,0.3,0,0.5c0,1.1,0.1,1.1,1.1,1.1c0.7,0,1.3-0.1,1.9-0.2
			c0.7-0.2,1.2-0.8,1.1-1.4c-0.1-0.7-0.4-1.2-1.2-1.4c-0.4-0.1-0.9-0.2-1.3-0.2C77.2,116.4,77.2,116.5,77.2,118.1z"/>
		<path class="st1" d="M236.7,121.2c0-2.4,0-4.8,0-7.2c0-1.2,0-1.2,1.2-1.2c2.8,0,5.5,0,8.3,0c0.6,0,1.2,0.1,1.8,0.3
			c3.5,0.9,4.8,3.8,3.7,7c-0.3,0.8-1,1.5-1.6,2c-0.7,0.5-0.8,1-0.5,1.8c0.7,1.7,1.4,3.4,2.1,5.1c0.5,1.2,0.4,1.2-0.8,1.2
			c-1.2,0-2.5,0-3.7,0c-0.8,0-1.2-0.2-1.5-1c-0.5-1.4-1-2.7-1.5-4c-0.1-0.3-0.3-0.7-0.4-1c-0.2-0.6-0.7-0.6-1.1-0.5
			c-0.2,0.1-0.5,0.5-0.5,0.8c0,1.5,0,3,0,4.4c0,1.2-0.1,1.2-1.2,1.2c-0.9,0-1.8,0-2.8,0c-1.5,0-1.5,0-1.5-1.5
			C236.7,126.1,236.7,123.6,236.7,121.2C236.7,121.2,236.7,121.2,236.7,121.2z M242.3,118c0,1.8,0,1.8,1.8,1.7
			c0.5,0,0.9-0.1,1.4-0.2c0.7-0.2,1-0.7,0.9-1.4c0-0.7-0.2-1.2-1-1.3c-0.8-0.1-1.6-0.2-2.4-0.2c-0.2,0-0.5,0.4-0.6,0.7
			C242.2,117.4,242.3,117.7,242.3,118z"/>
		<path class="st1" d="M123.2,121.3c-0.1-1.9,0.4-3.6,1.5-5.2c1.8-2.8,4.6-3.9,7.8-3.5c6,0.7,7.8,6.1,7.2,10.4
			c-0.6,3.9-3,6.6-6.4,7.2c-6.3,1.1-9.9-3.2-10.1-8.1C123.2,121.8,123.2,121.5,123.2,121.3z M134.1,121.4c-0.2-1.1-0.5-2.3-0.8-3.4
			c-0.2-0.8-0.9-1.4-1.8-1.4c-0.9,0-1.5,0.5-1.9,1.4c-0.9,2.2-0.9,4.5-0.2,6.7c0.3,0.9,1,1.6,2,1.5c1.1,0,1.7-0.7,2-1.6
			C133.8,123.6,133.9,122.5,134.1,121.4z"/>
		<path class="st1" d="M234.7,121.4c0,2.7-0.8,5.1-2.9,7c-3.5,3.2-11.7,2.8-13.4-4.5c-0.6-2.8-0.3-5.5,1.3-7.9
			c1.9-2.8,4.7-3.8,7.9-3.4C232.1,113.1,234.7,116.5,234.7,121.4z M229,121.5c-0.1-1.9-0.3-3-0.9-3.9c-0.8-1.4-2.3-1.5-3.3-0.2
			c-0.2,0.2-0.3,0.5-0.4,0.8c-0.7,2.1-0.7,4.2,0,6.3c0.3,0.9,0.9,1.6,2,1.6c0.9,0.1,1.7-0.5,2.1-1.7
			C228.7,123.5,228.8,122.5,229,121.5z"/>
		<path class="st1" d="M121.8,121.3c0,2.3-0.4,4.3-1.8,6c-1.4,1.8-3.2,2.8-5.5,2.9c-1.1,0-2.3,0-3.3-0.3c-2.3-0.6-3.9-2-4.8-4.1
			c-1.5-3.6-1.4-7.1,0.8-10.3c1.9-2.7,5.5-3.7,9-2.7c3.1,0.9,5.2,3.5,5.6,6.9C121.7,120.3,121.8,120.9,121.8,121.3z M111,121.3
			c0.2,1.4,0.2,2.7,0.9,3.9c0.8,1.3,2.4,1.3,3.3,0.1c0.2-0.3,0.5-0.7,0.5-1.1c0.2-1,0.3-2,0.3-3c-0.1-1.2-0.3-2.3-0.7-3.4
			c-0.2-0.8-1-1.2-1.8-1.2c-0.8,0-1.5,0.5-1.7,1.3C111.5,119,111.2,120.2,111,121.3z"/>
		<path class="st1" d="M56.3,121.3c0-2.5,0-5,0-7.5c0-1,0-1.1,1-1.1c3.6,0,7.3,0,10.9,0c1,0,1.1,0,1.1,1c0,1-0.1,1.9-0.1,2.9
			c-1,0.1-1.9,0.1-2.9,0.2c-1.3,0-2.6,0-3.8,0c-0.3,0-0.8,0.3-0.8,0.5c-0.1,0.5,0,1.1,0.1,1.6c0,0.1,0.5,0.2,0.8,0.2
			c1.3,0,2.7,0,4,0c1.1,0,1.1,0.1,1.1,1.1c0,0.7,0,1.3,0,2c0,0.7-0.3,0.9-0.9,0.9c-1.3,0-2.6,0-3.8,0c-1.4,0-1.4,0-1.4,1.5
			c0,0.1,0,0.1,0,0.2c-0.1,0.7,0.2,1,1,1c1.4,0,2.9,0,4.3,0c2.8,0,2.4-0.3,2.4,2.5c0,1.8,0.1,1.7-1.8,1.7c-3.1,0-6.2,0-9.4,0
			c-2,0-1.9,0.1-1.9-1.8C56.3,125.9,56.3,123.6,56.3,121.3z"/>
		<path class="st1" d="M94,112.6c1.8,0.1,3.6,0.1,5.3,0.4c4.1,0.6,5.7,5.2,3.4,8.5c-1,1.5-2.6,2.1-4.4,2.2c-0.9,0.1-1.7,0-2.6,0.1
			c-1.1,0-1.1,0-1.1,1.1c0,1.3,0,2.6,0,3.8c0,1.2-0.1,1.2-1.2,1.2c-1,0-2,0-3.1,0c-1.2,0-1.2,0-1.2-1.3c0-1.1,0-2.1,0-3.2
			c0-3.8,0-7.6,0-11.4c0-1.4,0-1.4,1.3-1.4c1.2,0,2.4,0,3.5,0C94,112.7,94,112.6,94,112.6z M94.6,118.3
			C94.6,118.3,94.6,118.3,94.6,118.3c0,0.4-0.1,0.7,0,1.1c0.1,0.2,0.3,0.6,0.5,0.6c0.8,0,1.5-0.1,2.2-0.2c0.7-0.2,0.9-0.7,0.9-1.4
			c0-0.7-0.4-1.2-1-1.3c-0.6-0.1-1.3-0.2-2-0.2c-0.5,0-0.7,0.3-0.7,0.8C94.6,117.8,94.6,118.1,94.6,118.3z"/>
		<path class="st1" d="M196.3,130.2c-4.1,0.3-7.3-2.7-7.8-6.5c-0.4-2.7-0.3-5.4,1.2-7.8c1.7-2.8,4.3-3.7,7.3-3.4
			c3.3,0.3,5.4,2.3,6.1,5.3c0.1,0.3,0.2,0.7,0.1,1.1c0,0.2-0.3,0.6-0.5,0.6c-1.2,0.1-2.4,0.2-3.7,0.3c-0.5,0-0.7-0.2-0.8-0.7
			c-0.1-0.4-0.2-0.9-0.4-1.3c-0.3-0.8-0.9-1.2-1.8-1.3c-0.8,0-1.3,0.4-1.7,1.1c-0.1,0.2-0.3,0.5-0.3,0.7c-0.4,2-0.5,4.1,0,6.1
			c0.3,1,1,1.7,1.9,1.7c0.9,0.1,1.6-0.4,2.1-1.5c0.6-1.3,0.6-1.3,1.9-1.2c0.7,0,1.4,0,2.1,0.1c1.1,0.1,1.3,0.3,1.1,1.3
			c-0.5,2.8-3.2,5.2-6.1,5.4C196.8,130.2,196.4,130.2,196.3,130.2z"/>
		<path class="st1" d="M269.7,112.7c3.4,0.1,2.5-0.6,3.6,2.7c1.5,4.4,2.8,8.9,4.2,13.3c0.1,0.2,0.2,0.5,0.2,0.7
			c0,0.2-0.3,0.6-0.5,0.6c-1.4,0-2.9,0.1-4.3,0c-0.3,0-0.5-0.4-0.8-0.6c-0.1-0.1-0.1-0.2-0.1-0.3c-0.3-0.8-0.6-1.6-0.9-2.4
			c-1.3,0-2.5-0.1-3.8,0c-0.2,0-0.5,0.4-0.6,0.7c-0.2,0.6-0.4,1.2-0.5,1.8c-0.2,0.6-0.5,0.8-1.1,0.8c-1,0-1.9,0-2.9,0
			c-0.6,0-0.7-0.3-0.5-0.8c0.4-1.5,0.9-2.9,1.4-4.4c1.2-3.8,2.4-7.5,3.5-11.3c0.2-0.7,0.5-0.9,1.2-0.9
			C268.4,112.7,269.1,112.7,269.7,112.7z M269,122.8c1.2,0,1.3-0.1,1.1-1.3c0-0.1-0.1-0.3-0.1-0.4c-0.3-0.8-0.5-1.5-0.8-2.3
			c-0.3,0.8-0.5,1.6-0.8,2.4c-0.1,0.2-0.1,0.4-0.2,0.6C268,122.7,268.1,122.7,269,122.8z"/>
		<path class="st1" d="M46.5,130c-3-0.1-2.5,0.6-3.5-2.6c-1.3-4.3-2.8-8.5-4.1-12.8c0-0.1-0.1-0.3-0.1-0.4c-0.4-1.4-0.4-1.4,1.1-1.4
			c1,0,2,0,3.1,0c0.8,0,1.2,0.3,1.4,1c0.4,1.5,0.8,3,1.3,4.6c0.4,1.4,0.8,2.7,1.2,4.1c0,0.1,0.2,0.2,0.3,0.3
			c0.1-0.1,0.2-0.2,0.3-0.3c0.4-1.5,0.9-2.9,1.3-4.4c0.4-1.4,0.8-2.8,1.2-4.3c0.2-0.7,0.5-1.1,1.3-1c0.9,0.1,1.7,0,2.6,0
			c0.6,0,0.8,0.3,0.7,0.9c0,0.2-0.1,0.4-0.1,0.6c-1.5,4.9-3.1,9.8-4.6,14.8c-0.3,0.9-0.7,1.1-1.5,1.1C47.6,130,47,130,46.5,130z"/>
		<path class="st1" d="M165.5,112.6c0.9,0.1,2-0.1,2.6,0.4c0.6,0.4,0.6,1.5,0.9,2.4c0.7,2.3,1.4,4.7,2.1,7c0.1,0.2,0.2,0.3,0.3,0.5
			c0.1-0.2,0.2-0.3,0.2-0.5c0.8-2.9,1.7-5.8,2.5-8.7c0.2-0.8,0.6-1.1,1.4-1c0.8,0.1,1.6,0,2.5,0c0.9,0,1,0.1,0.7,1
			c-0.6,2-1.2,3.9-1.8,5.9c-1,3.1-2,6.2-2.9,9.3c-0.2,0.8-0.6,1.2-1.5,1.1c-1.2-0.1-2.4,0-3.5,0c-0.6,0-0.9-0.2-1.1-0.8
			c-1.7-5.2-3.4-10.3-5-15.4c-0.3-0.9-0.2-1,0.8-1C164.3,112.7,164.9,112.7,165.5,112.6C165.5,112.7,165.5,112.7,165.5,112.6z"/>
		<path class="st1" d="M17.1,121.2c0-2.4,0-4.8,0-7.2c0-1.2,0-1.2,1.2-1.2c1.1,0,2.1,0,3.2,0c1.1,0,1.2,0.1,1.2,1.3
			c0,3.2,0,6.3,0,9.5c0,2.4-0.3,2.2,2.1,2.2c1.2,0,2.5,0,3.7,0c0.6,0,1,0.2,0.9,0.9c0,0.9,0,1.7,0,2.6c0,0.7-0.3,0.9-0.9,0.9
			c-3.5,0-6.9,0-10.4,0c-0.9,0-1-0.5-0.9-1.2C17.1,126.3,17.1,123.7,17.1,121.2C17.1,121.2,17.1,121.2,17.1,121.2z"/>
		<path class="st1" d="M141.9,121.3c0-2.4,0-4.8,0-7.2c0-1.4,0-1.4,1.5-1.4c0.9,0,1.7,0,2.6,0c1.5,0,1.5,0,1.5,1.6
			c0,3.2,0,6.4,0,9.6c0,1.9-0.1,1.7,1.8,1.7c1.3,0,2.7,0,4,0c0.7,0,1,0.3,1,1c0,0.8,0,1.6,0,2.4c0,0.6-0.2,1-0.9,0.9
			c-0.3,0-0.6,0-0.9,0c-2.9,0-5.7,0-8.6,0c-2,0-1.9,0.1-1.9-1.9C141.9,125.8,141.9,123.6,141.9,121.3z"/>
		<path class="st1" d="M213.5,123.8c0,1.7,0,3.5,0,5.2c0,1,0,1-1,1c-1,0-2,0-3.1,0c-1,0-1.1-0.1-1.1-1.2c0-1.8,0-3.6,0-5.4
			c0-1.8,0-3.6,0-5.4c0-1-0.1-1-1-1.1c-0.8,0-1.8,0.2-2.2-0.2c-0.4-0.5-0.2-1.5-0.3-2.3c0-0.3,0-0.5,0-0.8c-0.1-0.7,0.2-1,1-1
			c3.5,0,6.9,0,10.4,0c0.7,0,0.9,0.3,0.9,0.9c0,0.9,0,1.7,0,2.6c0,0.6-0.3,0.8-0.9,0.8c-0.6,0-1.2,0-1.8,0c-0.7,0-0.9,0.3-0.9,0.9
			C213.5,119.9,213.5,121.8,213.5,123.8C213.5,123.8,213.5,123.8,213.5,123.8z"/>
		<path class="st1" d="M259.8,121.5c0,2.4,0,4.9,0,7.3c0,1.1,0,1.2-1.2,1.2c-1,0-2,0-3.1,0c-1.2,0-1.2,0-1.2-1.2c0-1.5,0-3.1,0-4.6
			c0-3.3,0-6.5,0-9.8c0-1.9,0-1.7,1.8-1.7c0.9,0,1.7,0,2.6,0c1.1,0,1.1,0.1,1.1,1.1C259.8,116.4,259.8,119,259.8,121.5z"/>
		<path class="st1" d="M186.2,121.4c0,2.5,0,4.9,0,7.4c0,1.2,0,1.2-1.2,1.2c-1.1,0-2.1,0-3.2,0c-0.9,0-1-0.1-1.1-1.1
			c0-1.4,0-2.8,0-4.1c0-3.5,0-7.1,0-10.6c0-1.5,0-1.5,1.5-1.5c1,0,1.9,0,2.9,0c1,0,1,0,1,1.1C186.2,116.3,186.2,118.9,186.2,121.4z"
			/>
		<path class="st1" d="M36.5,121.4c0,2.6,0,5.1,0,7.7c0,0.6-0.1,1-0.8,0.9c-1.2-0.1-2.4,0-3.5,0c-1,0-1.1-0.1-1.1-1.2c0-5,0-10,0-15
			c0-1,0.1-1.1,1-1.1c1.1,0,2.2,0,3.4,0c1,0,1,0.1,1,1.1C36.5,116.3,36.5,118.9,36.5,121.4C36.5,121.4,36.5,121.4,36.5,121.4z"/>
	</g>
</g>
<g>
	<polygon class="st1" points="47.8,74.1 47.8,29.9 18,29.9 18,102.3 90.6,102.3 90.6,74.1 	"/>
	<rect x="207.4" y="74" class="st1" width="72.6" height="28.2"/>
	<rect x="207.4" y="30" class="st1" width="72.6" height="28.2"/>
	<path class="st1" d="M189.7,54.2c2.7-2.8,4.2-6.4,4.2-10c0-3.7-1.8-7.9-4.6-10.7c-3.1-3.1-7.6-4.5-11.6-4.1
		c-3.2,0.3-6.4,1.7-8.8,4.2l-26.7,28.2l-26.9-28.3c-2.4-2.3-5.4-3.7-8.4-4.1c-4.2-0.5-8.8,1-12,4.2c-2.9,2.9-4.7,7.4-4.5,11.3
		c0.1,3.5,1.5,7,4.2,9.6l47.7,49.5L189.7,54.2z"/>
</g>
</svg>
