<?xml version="1.0" encoding="utf-8"?>
<!-- Generator: Adobe Illustrator 25.0.0, SVG Export Plug-In . SVG Version: 6.00 Build 0)  -->
<svg version="1.1" id="Layer_1" xmlns="http://www.w3.org/2000/svg" xmlns:xlink="http://www.w3.org/1999/xlink" x="0px" y="0px"
	 viewBox="0 0 296.4 157.6" style="enable-background:new 0 0 296.4 157.6;" xml:space="preserve">
<style type="text/css">
	.st0{fill:none;}
	.st1{fill:#FFFFFF;}
</style>
<rect y="0" class="st0" width="296.4" height="157.6"/>
<g>
	<path class="st1" d="M269.1,104.7c-0.4,0.5-0.7,0.8-0.9,1c-0.3,0.1-0.5,0.1-0.6,0.1c-5.6,0.8-11.3,0.5-16.9,0.7
		c-6.2,0.3-12.4,0.3-18.6,0.5c-6.7,0.2-13.5,0.4-20.2,0.6c-4.2,0.1-8.4,0.1-12.6,0.2c-6.5,0.1-13.1,0.3-19.6,0.4c-0.6,0-1.3,0-2.2,0
		c0.6-0.7,1-1.2,1.6-1.9c-1.1,0-1.8-0.3-2,1c-0.1,0.7-1,1.4-2.2,1.2c0.4-0.6,0.6-1,1-1.6c-1-0.3-1.9-0.4-3,0.2
		c0.5,0.4,0.8,0.7,1.2,1c-0.1,0-0.2,0.1-0.2,0.1c-6.3,0.2-12.7,0.3-19,0.5c-6,0.1-12,0.3-18,0.4c-6,0.1-12,0.3-18,0.4
		c-5.7,0.1-11.3,0.3-17,0.4c-5.8,0.1-11.6,0.2-17.4,0.4c-4.5,0.1-8.9,0.3-13.4,0.4c-4.9,0.1-9.9,0.2-14.8,0.3
		c-6.7,0.1-13.4,0.3-20,0.4c-2,0-4.1-0.1-6.3-0.2c0-0.9,0-1.9,0-2.8c-0.2-8.2-0.3-16.4-0.5-24.7c-0.1-7.3-0.3-14.7-0.4-22
		c-0.2-10-0.5-20-0.7-30c0-0.5,0-0.9,0-1.2c1.6-0.1,3-0.3,4.4-0.4c1.7-0.1,3.5-0.1,5.2-0.1c4,0,8-0.1,12-0.1
		c5.4-0.1,10.8-0.3,16.2-0.4c4.4-0.1,8.8-0.2,13.2-0.3c1.9-0.1,3.7-0.3,5.6-0.3c4.4-0.1,8.8,0,13.2-0.1c6.9-0.1,13.8-0.3,20.6-0.5
		c4.7-0.1,9.4-0.2,14-0.3c7.5-0.2,15.1-0.3,22.6-0.5c5.5-0.1,11-0.3,16.4-0.4c4.5-0.1,9.1-0.2,13.6-0.3c7.7-0.2,15.5-0.3,23.2-0.5
		c4.9-0.1,9.9-0.2,14.8-0.3c4.5-0.1,9.1-0.3,13.6-0.4c7.9-0.2,15.9-0.3,23.8-0.4c1.8,0,3.6-0.2,5.4-0.2c0.4,0,0.9,0.2,1.4,0.3
		c0.1,0.6,0.2,1.2,0.2,1.8c0.1,5.2,0.1,10.4,0.1,15.6c0.1,6.3,0.3,12.6,0.4,18.8c0.1,5.5,0.2,10.9,0.4,16.4c0.1,2.4,0.2,4.8,0.3,7.2
		c0.1,4.1,0.1,8.1,0.1,12.2c0,1.9,0,3.7,0,5.6C269.1,103.6,269.1,104.2,269.1,104.7z M34.8,105.6c1.2,0,2.1,0,3,0
		c4.1-0.1,8.1-0.2,12.2-0.3c5.9-0.1,11.9-0.3,17.8-0.4c7.3-0.2,14.6-0.3,21.8-0.5c4.7-0.1,9.5-0.2,14.2-0.3
		c5.6-0.1,11.2-0.3,16.8-0.4c5.7-0.1,11.5-0.3,17.2-0.4c6.2-0.1,12.4-0.3,18.6-0.4c5.8-0.1,11.6-0.3,17.4-0.4c6-0.2,12-0.3,18-0.5
		c6-0.1,12-0.2,18-0.3c5.9-0.1,11.8-0.3,17.6-0.5c5.3-0.1,10.7-0.2,16-0.3c5.9-0.1,11.8-0.1,17.6-0.2c0.6,0,1.3-0.1,2.1-0.2
		c0-1.4,0-2.5,0-3.7c-0.1-5.3-0.3-10.6-0.4-15.8c-0.1-6.6-0.2-13.2-0.4-19.8c-0.2-8.5-0.3-17-0.5-25.5c0-1.5,0-2.9-0.1-4.5
		c-0.8-0.1-1.3-0.2-1.9-0.2c-2.4,0-4.8,0.1-7.2,0.2c-8.9,0.3-17.9,0.5-26.8,0.8c-5.9,0.1-11.7,0.2-17.6,0.3
		c-6.7,0.1-13.3,0.3-20,0.5c-4.9,0.1-9.7,0.3-14.6,0.4c-8.6,0.2-17.2,0.3-25.8,0.5c-3.7,0.1-7.4,0-11,0.1
		c-5.7,0.2-11.5,0.4-17.2,0.6c-6.9,0.2-13.8,0.3-20.8,0.4c-4.9,0.1-9.9,0.1-14.8,0.2c-6.1,0.1-12.3,0.3-18.4,0.4
		c-6.4,0.2-12.8,0.4-19.2,0.5c-3.7,0.1-7.4,0.1-11,0.1c-0.7,0-1.4,0.1-2.3,0.1c-0.1,0.8-0.2,1.5-0.1,2.1c0.1,1.9,0.2,3.9,0.3,5.8
		c0.2,8.1,0.3,16.3,0.5,24.4c0.1,6,0.2,12,0.3,18c0.1,5.7,0.1,11.4,0.2,17C34.7,104.1,34.8,104.7,34.8,105.6z"/>
	<path class="st1" d="M168,118.7c1-0.1,1.9-0.2,2.7-0.3c2,2.4,3.1,5.3,5.5,7.6c0.4-2.6-0.1-4.9,0-7.4c0.6-0.1,1.2-0.1,1.6-0.2
		c0.6,0.6,0.8,10.2,0.4,12.6c-0.2,0.1-0.3,0.1-0.5,0.2c-0.5,0-0.9,0-1.5,0c-1.8-2.8-3.7-5.6-5.7-8.7c0.2,3.2,0.3,6,0.4,8.9
		c-0.7,0-1.3,0-2.2,0C168.4,127.2,168.3,123,168,118.7z"/>
	<path class="st1" d="M224,117.3c1.8-0.1,3.3-0.2,4.9-0.3c1.8-0.1,3.2,0.8,3.9,2.3c0.6,1.5,0.5,3.1-0.8,4.4
		c-0.2,0.2-0.3,0.4-0.5,0.7c0.8,1.7,1.6,3.5,2.4,5.3c-0.8,0.5-1.5,0.2-2.4,0.4c-0.9-1.6-1.7-3.1-2.6-4.7c-0.6,0-1.2,0-2.1,0
		c0,1.5,0,2.9,0,4.5c-0.8,0.1-1.4,0.1-2.2,0.2C224.4,126,224.2,121.8,224,117.3z M226.5,122.7c3.4,0.3,4.1-0.2,3.9-2.4
		c-1.5-0.9-2.1-1-3.9-0.4C226.5,120.8,226.5,121.7,226.5,122.7z"/>
	<path class="st1" d="M255.9,129.4c-0.9-1.6-1.7-3.1-2.6-4.6c-0.7,0-1.3,0-2.1,0c0,1.5,0,2.8,0,4.5c-0.7,0.1-1.3,0.2-2.2,0.3
		c-0.2-4.4-0.4-8.6-0.6-12.9c2.1-0.2,4-0.5,5.9-0.2c3.2,0.7,3.9,3.6,2.5,6.1c-0.2,0.4-0.6,0.7-1.1,1.2c0.4,0.8,0.9,1.7,1.3,2.5
		c0.4,0.9,0.8,1.8,1.2,2.9c-0.4,0.1-0.8,0.1-1.2,0.2C256.9,129.3,256.5,129.3,255.9,129.4z M251.1,122.2c1.2-0.1,2.1-0.2,3-0.4
		c0.8-0.2,1.1-0.9,1.1-1.7c0-0.7-0.6-1-1.2-1.1c-1-0.2-1.9-0.4-2.9,0.2c0,0.4-0.1,0.8-0.1,1.2C251,120.8,251,121.3,251.1,122.2z"/>
	<path class="st1" d="M152.3,125.6c0,0.6-0.1,1.3-0.1,2c-0.2,3.6-4.1,5.7-7.4,4.5c-2-0.7-3.4-2.4-3.7-4.6c-0.1-1.2,0-2.4,0-3.6
		c0.1-3.7,4-5.8,7.3-4.6c1.7,0.6,3.3,1.4,3.7,3.3C152.3,123.6,152.2,124.5,152.3,125.6z M150,125.3c0-2-0.7-3.3-2.1-3.7
		c-1.3-0.4-3.3,0.5-3.9,1.8c-0.7,1.6-0.8,3.2-0.2,4.9c0.5,1.3,1.8,1.9,3.5,1.8c1.4-0.1,2.1-0.7,2.4-2.2
		C149.8,127.1,149.8,126.2,150,125.3z"/>
	<path class="st1" d="M236.4,117c3,0,5.8,0,8.8,0c0.1,0.2,0.2,0.4,0.2,0.7c0,0.3,0,0.7,0,1c-2.1,0.1-4.2,0.3-6.4,0.4
		c-0.1,1-0.2,1.9-0.3,2.9c2.4,0.2,4.6-0.1,6.8-0.4c0.4,0.7,0.2,1.5,0.2,2.4c-2.2,0.2-4.4,0.4-6.7,0.6c0.1,1,0.2,1.8,0.2,2.8
		c1.1,0,2.2,0.1,3.2,0.1c1.1,0,2.1,0,3.3,0c0.1,0.6,0.1,1.1,0.2,1.8c-3,0.1-5.9,0.3-9,0.4C236.2,125.7,236.3,121.5,236.4,117z"/>
	<path class="st1" d="M190.8,120c-0.6,0.5-1.1,1-1.6,1.4c-0.2-0.1-0.4-0.2-0.5-0.4c-0.9-1-2-1.4-3.2-1c-1.3,0.4-2.1,1.5-2.3,2.8
		c-0.2,1.7,0,3.3,1.5,4.5c0.9,0.8,1.9,0.9,3,0.6c1.1-0.3,1.6-1.2,1.5-2.4c-0.9-0.1-1.8-0.1-2.9-0.2c-0.1-0.6-0.1-1.1-0.2-1.8
		c1.9-0.1,3.7-0.3,5.4-0.4c1.3,3.2-0.8,6.9-3.5,7.5c-3,0.7-6.4-1.5-6.7-4.7c-0.2-1.3-0.1-2.7,0-4c0.3-2.2,2.6-4.2,4.8-4.4
		C188,117.4,189,118,190.8,120z"/>
	<path class="st1" d="M214.2,117.3c1.2,0,2.2,0,3.4,0c1.5,4.1,2.9,8.2,4.5,12.4c-0.4,0.1-0.6,0.2-0.9,0.3c-0.5,0.1-0.9,0.1-1.6,0.1
		c-0.3-0.9-0.7-1.8-1.1-2.8c-1.4-0.3-2.7,0-4.1,0.3c-0.3,0.9-0.6,1.7-0.9,2.6c-0.7,0-1.4,0-2.3,0c0.6-2.3,1.1-4.4,1.6-6.5
		C213.3,121.6,213.8,119.5,214.2,117.3z M217.3,125c0.2-1.6-0.3-2.9-1.4-3.7c-0.2,1.2-0.4,2.4-0.6,3.7C216,125,216.6,125,217.3,125z
		"/>
	<path class="st1" d="M209.6,120.1c-0.7,0.5-1.2,0.9-1.8,1.3c-0.6-0.4-1-0.8-1.5-1.1c-1.6-1-3.5-0.3-3.9,1.5
		c-0.2,1.2-0.1,2.5,0.1,3.8c0.2,1.3,1.1,1.9,2.3,2.2c1.2,0.3,1.9-0.3,2.4-1.3c0.1-0.2,0.2-0.3,0.4-0.5c0.7,0.2,1.3,0.4,2,0.6
		c-0.2,1.8-1,3-2.5,3.6c-1.7,0.7-3.5,0.6-4.9-0.6c-1.4-1.2-2.5-2.6-2.3-4.6c0.1-0.9-0.2-1.9-0.2-2.8c0-2.1,1-3.8,2.9-4.4
		c1.9-0.7,4.1-0.7,5.9,0.9C208.8,119.1,209.2,119.6,209.6,120.1z"/>
	<path class="st1" d="M162.6,118.9c0.7,0,1.3,0,2.1,0c0.1,0.5,0.2,1,0.2,1.5c0,2.2,0,4.4,0.1,6.6c0.1,4.3-3,5.3-6.5,4.6
		c-1.8-0.3-2.9-1.6-2.9-3.5c0-0.7-0.2-1.3-0.2-2c0-2.3,0-4.5,0-7c0.5,0,1.2-0.1,2.1-0.2c0,0.7,0.1,1.3,0.1,1.9
		c0.1,2.1,0.2,4.3,0.4,6.4c0.2,1.7,1.2,2.5,2.8,2.4c1.3-0.1,2.2-1,2.2-2.6c0-2.5-0.2-4.9-0.2-7.4
		C162.5,119.4,162.6,119.2,162.6,118.9z"/>
	<path class="st1" d="M268.1,117.6c-0.5,0.6-0.9,1.1-1.3,1.6c-0.8-0.3-1.6-0.6-2.3-0.8c-0.8-0.2-1.6,0.2-1.7,1
		c-0.1,0.8,0.2,1.3,1,1.5c0.8,0.2,1.7,0.5,2.5,0.8c1.7,0.6,2.7,1.8,2.7,3.6c0,1.4-0.6,2.8-2,3.5c-1.6,0.8-3.3,0.8-4.7-0.3
		c-0.8-0.6-1.5-1.5-2.3-2.5c0.8-0.4,1.4-0.6,1.9-0.9c2.4,2.4,3.6,2.5,4.9,0.3c-0.5-0.4-0.9-1-1.5-1.3c-0.7-0.4-1.6-0.7-2.4-1
		c-2.1-0.8-3.1-2.7-2.3-4.8c0.2-0.6,0.7-1.2,1.2-1.5C263.3,115.4,266.2,115.8,268.1,117.6z"/>
	<path class="st1" d="M137.5,119.7c0.6,0,1.2,0,2.1,0c-0.2,0.6-0.4,1.1-0.6,1.6c-0.3,0.7-0.5,1.4-0.9,2c-1.6,2.4-2.4,5.1-1.9,8
		c0,0.3,0,0.5,0,0.8c0,0.1-0.1,0.2-0.2,0.5c-0.6,0-1.2,0-2.1,0c0-1,0-2-0.1-3c0-1.3-0.2-2.6-1-3.8c-1.1-1.8-2-3.8-3-5.8
		c0.9,0,1.7,0,2.7,0c0.7,1.2,1.5,2.5,2.3,3.9C136.2,122.7,136.4,121,137.5,119.7z"/>
	<path class="st1" d="M48.1,87.2c0-12.8,0-25.5,0-38.2c2.4,0,4.7,0,7.2,0c3.8,6.8,7.6,13.7,11.5,20.9c3.9-7.1,7.6-14,11.4-20.9
		c2.4,0,4.7,0,7.3,0c0.3,4.3,0.1,8.5,0.1,12.8c0,4.2,0,8.4,0,12.6c0,4.3,0,8.5,0,12.8c-2.7,0-5.2,0-7.9,0c0-7.2,0-14.2,0-21.3
		c-0.1,0-0.2,0-0.3-0.1c-2.4,4.4-4.8,8.9-7.2,13.2c-2.4,0-4.6,0-6.9,0c-2.4-4.3-4.8-8.7-7.4-13.4c0,7.4,0,14.4,0,21.5
		C53.4,87.2,50.9,87.2,48.1,87.2z M81.6,60.3c0.4-0.8,0.9-1.5,1.3-2.4c-1.5,0.1-1.5,0.1-2.3-0.9c-1,0.9-2.3,0.5-3.5,0.5
		c-0.2,0.4-0.4,0.8-0.6,1.1c0.2,0.5,0.4,0.9,0.7,1.6c-1-0.4-1.6-0.6-2.2-0.8c0.2,0.9,0.4,1.6,0.5,2.3c-0.3,0.3-0.5,0.5-0.7,0.7
		c0.9,0,1.7-0.1,2.5-0.1c-0.1,0.5-0.1,0.8-0.2,1.1c0.8,0.3,1.4,0.6,2.1,0.8c0.6,0.2,1.1,0.3,1.7,0.4c0.7,0.1,1-0.3,0.9-1
		c-0.5-0.5-1-1-1.6-1.5c0.3-0.6,0.7-1.2,1-1.7l0.1,0L81.6,60.3z M83.5,77.6c-0.1-0.1-0.2-0.1-0.3-0.2c0-0.8-0.1-1.6-0.1-2.4
		c0-1.2,0.2-2.4,0.2-3.4c-0.6-0.5-1.1-1-1.7-1.5c0.5-0.6,0.9-1.1,1.3-1.7c-0.8-1,0-2.2-0.4-3.5c-0.3,0.6-0.5,1-0.7,1.4
		c-0.2-0.1-0.5-0.3-0.7-0.4c-0.3,1.5-0.7,2.9-1,4.4c0.2,0.3,0.5,0.6,0.8,0.9c-0.3,0.4-0.6,0.8-0.8,1.1c0.2,0.3,0.4,0.5,0.4,0.6
		c-0.2,0.7-0.3,1.4-0.6,1.9c-1,1.8,0.6,3.7-0.2,5.5c0,0,0.1,0.1,0.1,0.2c0.2,0.1,0.4,0.1,0.6,0.2c-0.1,0.2-0.2,0.4-0.3,0.6
		c1.2,0.3,1.2,0.3,2.4-0.1C82.8,80.1,83.2,78.8,83.5,77.6z"/>
	<path class="st1" d="M193.2,69.9c3.9-7.1,7.6-13.9,11.4-20.8c2.4,0,4.8,0,7.3,0c0,12.8,0,25.5,0,38.2c-2.5,0-5,0-7.7,0
		c-0.2-7.1,0-14.2-0.3-21.3c-2.4,4.4-4.8,8.8-7.2,13.2c-2.3,0-4.5,0-6.8,0c-2.3-4.2-4.7-8.6-7.4-13.4c0,7.5,0,14.4,0,21.5
		c-2.7,0-5.2,0-7.9,0c0-12.8,0-25.4,0-38.2c2.3,0,4.6,0,7.1,0c2.2,3.1,3.8,6.8,5.8,10.1C189.4,62.6,191.2,66.1,193.2,69.9z
		 M207.7,60.3l0.1,0c0,0,0.1-0.1,0.1-0.1c0.4-0.8,0.9-1.5,1.3-2.4c-1.5,0-1.5,0-2.3-0.9c-1,1-2.3,0.5-3.5,0.5
		c-0.2,0.4-0.4,0.8-0.6,1c0.2,0.5,0.4,0.9,0.7,1.6c-1-0.4-1.6-0.6-2.2-0.8c0.2,0.9,0.4,1.6,0.5,2.3c-0.3,0.3-0.5,0.5-0.7,0.7
		c0.9,0,1.7-0.1,2.5-0.1c-0.1,0.5-0.1,0.8-0.2,1.1c0.8,0.3,1.4,0.6,2.1,0.8c0.6,0.2,1.1,0.3,1.7,0.4c0.7,0.1,1-0.3,0.9-1
		c-0.5-0.5-1-1-1.6-1.5C207.1,61.5,207.4,60.9,207.7,60.3z M209.9,77.6c-0.1-0.1-0.2-0.1-0.3-0.2c0-0.8-0.1-1.6-0.1-2.4
		c0-1.2,0.2-2.4,0.2-3.4c-0.6-0.5-1.1-1-1.7-1.5c0.5-0.6,0.9-1.1,1.1-1.4c0-1.3,0-2.4,0-3.5c-0.2,0.1-0.4,0.1-0.4,0.2
		c-0.2,0.3-0.3,0.7-0.4,1.1c-0.3-0.1-0.5-0.3-0.7-0.4c-0.3,1.5-0.7,2.9-1,4.4c0.2,0.3,0.5,0.6,0.8,0.9c-0.3,0.4-0.6,0.8-0.8,1.1
		c0.2,0.3,0.4,0.5,0.4,0.6c-0.2,0.7-0.3,1.4-0.6,1.9c-1,1.8,0.6,3.7-0.2,5.5c0,0,0.1,0.1,0.1,0.2c0.2,0.1,0.4,0.1,0.6,0.2
		c-0.1,0.2-0.2,0.4-0.3,0.6c0.9,0.6,1.6,0.4,2.4-0.1C209.3,80.1,209.6,78.8,209.9,77.6z"/>
	<path class="st1" d="M247.6,56.2c-1.9,0.4-3.8,0.1-5.7,0.2c-2,0-4,0-6,0c-1.9,0-3.9,0-5.8,0c-1.9,0-3.8,0-5.8,0c0,2.6,0,5.1,0,7.7
		c6.2,0.2,12.3,0,18.4,0.1c0,2.5,0,4.9,0,7.5c-6.2,0-12.2,0-18.4,0c0,2.9,0,5.5,0,8.3c7.7,0,15.4,0,23.1,0c0.5,1.3,0.5,5.8,0.1,7.4
		c-10.3,0-20.6,0-31.1,0c0-12.8,0-25.5,0-38.4c10.4,0,20.8,0,31.3,0C247.6,51.5,247.6,53.8,247.6,56.2z M218.4,54.4
		c0,0.3,0.2,1,0.1,1.5c-0.4,1.8-0.3,3.6-0.2,5.4c0,0.2,0.1,0.6-0.1,0.7c-0.6,0.8-0.5,1.8-0.3,2.7c0.3,2.4-0.6,4.8,0.4,7.1
		c0.1,0.2-0.1,0.6-0.2,1c0.5,0.3,1,0.5,1.5,0.7c-0.4,0.2-0.7,0.5-1.1,0.7c0.5,0.3,0.8,0.5,1,0.7c1.4-0.6,1.8-1.9,2.4-3
		c0.6-1.1,1.8-1.8,1.9-3.4c0.4,0.5,0.6,0.8,1,1.3c0-0.4,0-0.7,0.1-0.9c0.5-0.9,0.8-1.8-0.5-2.3c0.1-0.2,0.2-0.4,0.3-0.7
		c-1.3-0.6-1.8-1.5-2.1-2.8c-0.2-1-0.3-2-0.2-3c0.1-1.4,0-2.7,0-4.1c0.5-0.5,1-1,1.5-1.4c0.8-0.1,1.6-0.2,2.4-0.2c0-0.5,0-0.9,0-1.5
		c0.6,1.1,1.4,1.5,2.4,1.1c1.2-0.4,1.8-1.4,2.2-2.5c0-0.1-0.3-0.2-0.5-0.3c-0.3,0.6-0.7,1.2-1,1.7c0,0.1-0.2,0-0.4,0
		c-0.1-0.5-0.2-0.9-0.4-1.7c-0.8,1.1-1.7,0.8-2.5,0.9c-0.1-0.2-0.3-0.5-0.5-0.9c-1.1,0-2.2,0-3.3,0c-0.6-0.1-1.3,0-1.9,0.2
		c-0.4,0.2-0.9,0.5-1.2,0.8C219,52.9,218.8,53.6,218.4,54.4z M229.2,85.5c1-0.3,1.9-0.5,2.7-0.7c0.3,0.2,0.6,0.4,0.9,0.6
		c0.2-0.4,0.4-0.7,0.7-1.2c-1.5-0.5-2.9-1-4.3-1.4c-0.2,0.7-0.4,1.2-0.6,1.7c0.3,0,0.6,0,0.9,0C229.5,84.9,229.4,85.1,229.2,85.5z
		 M228.2,84.7c-0.1-0.6-0.1-1-0.2-1.6c-0.2,0.4-0.3,0.7-0.5,1c-0.3-0.3-0.6-0.6-0.9-0.9c0.3-0.2,0.4-0.3,0.6-0.5
		c-0.3-0.2-0.5-0.4-0.7-0.5c-0.5,0.3-0.9,0.7-1.3,1c-0.4-0.2-0.7-0.4-1.2-0.6c0.2,0.5,0.2,0.8,0.3,1c-0.3,0.3-0.5,0.6-0.8,1
		c0.1,0.1,0.1,0.1,0.2,0.2c0.4-0.2,0.9-0.4,1.3-0.7c0.1,0.3,0.2,0.6,0.4,1c0.2-0.5,0.4-0.7,0.6-1.2c0.4,0.4,0.7,0.8,1.1,1.1
		C227.4,84.9,227.7,84.8,228.2,84.7z"/>
	<path class="st1" d="M88.3,49c3.1,0,6,0,9,0c2.9,4.6,5.8,9.2,8.8,14c3-4.8,5.9-9.4,8.8-14c2.9,0,5.8,0,8.9,0
		c-0.5,0.8-0.9,1.3-1.3,1.9c-4,6.2-7.9,12.4-11.9,18.5c-0.4,0.6-0.6,1.3-0.6,2.1c0,4.5,0,9,0,13.4c0,0.7,0,1.4,0,2.3
		c-2.6,0.5-5.1-0.1-7.8,0.2c-0.1-0.7-0.1-1.3-0.1-1.9c0-4.5,0-9.1,0-13.6c0-1.1-0.3-2-0.9-3C97,62.4,92.7,55.8,88.3,49z"/>
	<path class="st1" d="M125.3,49.1c10.4,0,20.7,0,31.1,0c0.5,1.2,0.2,2.4,0.2,3.5c0.1,1.2,0,2.4,0,3.8c-3.8,0.2-7.6-0.1-11.6,0.1
		c-0.2,10.4,0.1,20.6-0.1,31c-2.6,0-5.1,0-7.8,0c0-0.9-0.1-1.6-0.1-2.3c0-7.8,0-15.5,0-23.3c0-1.7,0-3.4,0-5.4c-3.9,0-7.8,0-11.7,0
		C125.3,53.9,125.3,51.6,125.3,49.1z M138,56.1c0.5,0.4,1,0.8,1.4,1.1c0,1,0.1,1.9,0.1,2.9c1.3,0.1,1.8-1.2,2.7-0.9
		c0.1-1,0.2-2,0.2-2.5c0.7-1,1.2-1.7,1.5-2.2c1-0.3,1.8-0.6,2.7-0.8c-0.2-0.5-0.5-0.9-0.7-1.4c0-0.1-0.1-0.1-0.2-0.1
		c-0.3,0.1-0.6,0.1-1,0.2c0-0.3,0-0.6,0-0.9c-1.5,0.1-2.2,0.1-2.9-0.3c-0.8-0.5-1.6-0.4-2.4-0.2c-0.1,0.4-0.2,0.7-0.2,1.1
		c-0.9-0.3-1.8-0.5-2.6-0.8c-0.9,0.2-2,0.4-3.1,0.6c0.4,0.5,0.6,0.8,0.8,1.1c0.5-0.2,0.9-0.4,1.3-0.6c1.4,0.5,1.5,0.8,1,2.2
		c0.4,0,0.9,0.1,1.3,0.1c0.2,0.4,0.4,0.6,0.5,0.9C138.3,55.7,138.2,55.9,138,56.1z M133.3,54.2c0.2-0.5,0.3-0.8,0.4-1
		c-0.3-1.5-1.9-0.9-2.5-2c-0.3,1.1-0.5,1.9-0.8,3.1c0.7-0.4,1-0.6,1.1-0.6C132.1,53.9,132.7,54,133.3,54.2z"/>
	<path class="st1" d="M161.4,49c2.7,0,5.2,0,7.7,0c0.7,3.2,0,6.3,0.2,9.5c0.2,3.2,0.1,6.4,0.1,9.6c0,3.2,0,6.4,0,9.6
		c0,3.2,0,6.4,0,9.6c-2.9,0-5.4,0-8,0C161.4,74.5,161.4,61.9,161.4,49z M164.4,53.1c-0.7,2.6-0.6,3.6,0.1,5.3
		c0.6-0.1,1.1-0.2,1.8-0.3c0.1-0.5,0.2-1.1,0.3-1.7c-0.4,0.1-0.6,0.2-1.3,0.3c0.5-0.6,0.6-1,0.9-1.3c0.3-0.3,0.7-0.6,1-0.9
		c-0.4-0.7-0.6-1.4-0.9-2C165.5,52.8,164.9,52.9,164.4,53.1z M163.5,72c0.1,1.1,0.3,2.1,0.4,3.2c1-0.2,1.9-0.3,2.8-0.5
		c-0.6-0.7-1.1-1.3-1.4-1.6c0.2-1.2,0.4-2,0.5-2.7c0.4,0.1,0.8,0.2,1.5,0.4c-0.7-1.2-1.6-1.1-2.4-1.5c0,0.5,0.1,0.9,0.1,1.2
		C164.6,71,164.1,71.4,163.5,72z"/>
	<path class="st1" d="M81.3,60.3c0.1-0.1,0.2-0.1,0.3,0l-0.1,0.1L81.3,60.3z"/>
	<path class="st1" d="M207.7,60.3c0.1-0.1,0.2-0.1,0.3,0l-0.1,0.1L207.7,60.3z"/>
</g>
</svg>
