<?xml version="1.0" encoding="utf-8"?>
<!-- Generator: Adobe Illustrator 24.2.2, SVG Export Plug-In . SVG Version: 6.00 Build 0)  -->
<svg version="1.1" id="Layer_1" xmlns="http://www.w3.org/2000/svg" xmlns:xlink="http://www.w3.org/1999/xlink" x="0px" y="0px"
	 viewBox="0 0 296.4 157.6" style="enable-background:new 0 0 296.4 157.6;" xml:space="preserve">
<style type="text/css">
	.st0{fill:none;}
	.st1{fill:#FFFFFF;}
</style>
<rect class="st0" width="296.4" height="157.6"/>
<g id="Group_144" transform="translate(-239.53 -388.383)">
	<path id="Path_671" class="st1" d="M403.3,445.9h8.8l0.4,3.3c0.5-0.4,1-0.6,1.4-0.9c6.4-5.2,17.4-3.2,21,4.1
		c4.2,8.3,4.4,17-0.3,25.1c-4.3,7.5-14.4,9.2-21.3,4c-0.3-0.2-0.6-0.3-1-0.5V497c-2.9,0.3-5.9,0.3-8.8,0.1c-0.2-0.7-0.3-1.5-0.4-2.3
		c0-15.8,0-31.5,0-47.3C403.1,447.1,403.2,446.6,403.3,445.9z M428.8,465c-0.2-2.2-0.6-4.4-1.1-6.5c-1.2-3.8-4.1-5.4-8.3-5
		c-3.7,0.3-6,2.4-6.8,6.2c-0.7,3.4-0.7,6.8,0,10.2c0.7,3.9,3,6.1,6.9,6.5c3.5,0.5,7-1.5,8.1-4.9C428.1,469.4,428.5,467.2,428.8,465z
		"/>
	<path id="Path_672" class="st1" d="M280.5,445.8h8.9c0,1,0.1,1.9,0.1,2.9c0,6.4,0,12.8,0,19.2c0,0.9,0,1.8,0,2.7
		c0.1,4.1,1.7,5.9,5.5,6.3c3.5,0.5,6.8-1.8,7.3-5.3c0.2-1.3,0.3-2.5,0.3-3.8c0-6.2,0-12.4,0-18.6v-3.3h8.8
		c0.6,2.4,0.6,35.4,0.1,38.2h-8.3c-0.1-1-0.3-1.9-0.4-3c-0.8,0.5-1.5,0.9-2.2,1.4c-3.3,1.9-7.1,2.5-10.8,1.7
		c-5.4-0.9-9.3-5.6-9.3-11c-0.1-5.3-0.1-10.6-0.1-16C280.5,453.4,280.5,449.8,280.5,445.8z"/>
	<path id="Path_673" class="st1" d="M509.2,457h-8.6c-1-4.2-4.4-4.3-7.8-4.1c-2.2,0.2-4.1,0.8-4.4,3.5c0.1,1.6,1.4,2.9,3,3
		c3,0.5,6,1,9,1.7c2.1,0.5,4.1,1.3,5.9,2.4c5.9,3.8,4.7,14.6-0.7,17.9c-2.1,1.3-4.5,2.1-6.9,2.4c-4.3,0.7-8.7,0.4-12.8-0.9
		c-4.7-1.7-7.6-6.4-7-11.4h8.2c0.3,0.7,0.5,1.3,0.8,1.9c0.1,0.3,0.2,0.5,0.4,0.8c1.9,2.9,10,3.1,12.1,0.4c0.7-1,0.9-2.3,0.4-3.5
		c-1.3-1.8-3.5-1.9-5.5-2.3c-2.8-0.6-5.6-1-8.4-1.7c-4.7-1.3-7.3-4.5-7.6-9.4c-0.5-4.4,1.9-8.6,5.9-10.4c6.3-3.2,12.7-2.9,19,0.2
		C507.1,449.3,508.7,452.3,509.2,457z"/>
	<path id="Path_674" class="st1" d="M277,465.1c-0.3,2.6-0.8,5.2-1.4,7.8c-2.1,6.8-7,10.5-14,11.3c-3.7,0.5-7.5-0.1-10.9-1.7
		c-3.8-1.8-6.6-5.1-7.9-9.1c-1.8-5.4-1.8-11.1-0.1-16.5c1.5-5.5,6.1-9.8,11.7-10.9c5-1.4,10.4-0.5,14.7,2.2c4.7,3,6.8,7.5,7.4,12.8
		c0.1,1.4,0.1,2.8,0,4.1L277,465.1z M268,464.5l-0.2,0c-0.1-1.4-0.2-2.8-0.3-4.1c-0.1-0.7-0.3-1.3-0.5-2c-1.3-3.6-3.9-5.5-7.5-5.6
		c-4-0.1-6.6,1.6-7.9,5.4c-1.5,4.3-1.5,9,0,13.3c1.4,4.2,5.9,6.5,10.1,5.1c2.5-0.8,4.4-2.8,5.2-5.4C267.4,469,267.8,466.8,268,464.5
		L268,464.5z"/>
	<path id="Path_675" class="st1" d="M476.6,464.8c-0.2,2.3-0.5,4.7-1,7c-1.8,6.6-6.1,10.8-13,12.1c-6.4,1.1-12.1,0-16.8-4.8
		c-1.8-1.8-3.1-4.1-3.7-6.6c-1.4-5-1.4-10.2,0-15.1c2.5-8.4,9.2-12.2,17.5-12c8.1,0.3,13.8,4.8,15.9,12.4c0.3,1,0.5,2.1,0.6,3.2
		c0.2,1.3,0.2,2.5,0.3,3.8L476.6,464.8z M449.9,464.7l0.2,0.1c0.1,1.5,0.1,2.9,0.3,4.4c0.1,0.8,0.3,1.5,0.6,2.3
		c1.1,3.3,4.1,5.5,7.6,5.5c3.5,0.1,6.6-2.1,7.6-5.4c1.6-4.4,1.5-9.2-0.1-13.6c-1.3-3.5-3.8-5.1-7.5-5.1c-3.7,0-6.5,1.8-7.6,5.3
		C450.5,460.3,450.1,462.5,449.9,464.7L449.9,464.7z"/>
	<path id="Path_676" class="st1" d="M330.6,475.3c2.1,1.7,4.4,0.5,6.6,0.9c0.5,2.4,0.2,4.8,0.2,7.4c-4.2,0.8-8.2,1.1-12.1-0.2
		c-2.2-0.6-3.7-2.5-4-4.7c-0.2-1.6-0.4-3.1-0.4-4.7c0-5.5,0-11,0-16.5v-3.1l-5.3-0.4v-8.2l5.1-0.4c0.1-2.8,0.2-5.6,0.3-8.4h9.1v8.6
		h7.8v8.4h-7.2C330.1,456.7,330,472.2,330.6,475.3z"/>
	<path id="Path_677" class="st1" d="M517,437.1h9v8.4h8.1v8.7h-7.5c-0.9,4.3-0.5,19.1,0.4,21.3c1.9,1.5,4.2,0.2,6.4,0.8
		c0.5,2.3,0.2,4.7,0.2,7.1c-0.3,0.2-0.7,0.4-1,0.5c-3.4,0.6-6.9,0.6-10.2-0.1c-2.5-0.5-4.4-2.5-4.8-5c-0.2-1.3-0.4-2.5-0.4-3.8
		c0-5.8,0-11.6,0-17.4v-3.1l-5.2-0.4v-8.2l5.2-0.3L517,437.1z"/>
	<path id="Path_678" class="st1" d="M341.8,483.9v-3.7c0.1-0.1,0.2-0.2,0.3-0.4c0.1-0.1,0.2-0.1,0.3-0.1c0.4-0.1,0.8-0.1,1.2-0.2
		c18.1,0,36.2,0,54.3,0c0.3,0,0.6,0,0.9,0.1c0.2,0.1,0.4,0.2,0.6,0.4v3.6C397.2,484.3,346.7,484.6,341.8,483.9z"/>
	<path id="Path_679" class="st1" d="M341.9,466.8V463c2.6-0.6,54.7-0.6,57.4,0v3.6C397.2,467.2,345.9,467.4,341.9,466.8z"/>
	<path id="Path_680" class="st1" d="M341.8,449.8v-4h57.5v3.8C397.1,450.1,347.1,450.3,341.8,449.8z"/>
	<path id="Path_681" class="st1" d="M399.4,454.2v3.7c-2.2,0.6-52,0.9-57.5,0.3c-0.1-1.2-0.1-2.5-0.2-4H399.4z"/>
	<path id="Path_682" class="st1" d="M341.8,475.3v-4h57.5v3.8C397.1,475.6,346.9,475.9,341.8,475.3z"/>
</g>
</svg>
