<?xml version="1.0" encoding="utf-8"?>
<!-- Generator: Adobe Illustrator 24.3.0, SVG Export Plug-In . SVG Version: 6.00 Build 0)  -->
<svg version="1.1" id="Layer_1" xmlns="http://www.w3.org/2000/svg" xmlns:xlink="http://www.w3.org/1999/xlink" x="0px" y="0px"
	 viewBox="0 0 296.4 157.6" style="enable-background:new 0 0 296.4 157.6;" xml:space="preserve">
<style type="text/css">
	.st0{fill:none;}
	.st1{fill:#FFFFFF;}
</style>
<rect y="0" class="st0" width="296.4" height="157.6"/>
<g>
	<path class="st1" d="M16.1,82.8v-1H22v1h-2.4v9.6h-1.1v-9.6H16.1z"/>
	<path class="st1" d="M23.3,81.5h1v4.5c0.8-1.1,1.8-1.6,3-1.6c1.7,0,2.9,1.2,2.9,3.6v4.5h-1v-4.3c0-1.9-0.6-2.9-2.1-2.9
		c-0.8,0-1.5,0.4-2.1,1.1c-0.6,0.8-0.7,1.5-0.7,2.8v3.3h-1V81.5z"/>
	<path class="st1" d="M33.1,88.5c0,1.8,1.3,3.1,3,3.1c1.6,0,2.4-0.9,3-1.9l0.8,0.4c-0.8,1.6-2,2.4-3.8,2.4c-2.6,0-4.1-2-4.1-4.1
		c0-2.2,1.6-4.2,4.1-4.2c2.2,0,4.1,1.6,4.1,4.2H33.1z M39,87.6c-0.4-1.6-1.6-2.4-3-2.4c-1.4,0-2.5,0.8-2.9,2.4H39z"/>
</g>
<g>
	<path class="st1" d="M238.8,84.3c-0.9-1.2-2.3-1.8-3.8-1.8c-2.5,0-4.7,1.9-4.7,4.6c0,2.6,2,4.6,4.7,4.6c1.5,0,2.7-0.6,3.7-1.8
		l0.8,0.6c-1.1,1.4-2.7,2.1-4.7,2.1c-3.6,0-5.8-2.5-5.8-5.6c0-3.1,2.4-5.5,5.8-5.5c2,0,3.6,0.8,4.7,2.2L238.8,84.3z"/>
	<path class="st1" d="M241.7,81.5h1v4.5c0.8-1.1,1.8-1.6,3-1.6c1.7,0,2.9,1.2,2.9,3.6v4.5h-1v-4.3c0-1.9-0.6-2.9-2.1-2.9
		c-0.8,0-1.5,0.4-2.1,1.1c-0.6,0.8-0.7,1.5-0.7,2.8v3.3h-1V81.5z"/>
	<path class="st1" d="M257.6,84.5h1v7.9h-1V91c-0.9,1-1.9,1.5-3.2,1.5c-2.3,0-4-1.9-4-4.2c0-2.2,1.8-4.1,4.1-4.1
		c1.3,0,2.4,0.5,3.2,1.6V84.5z M251.4,88.5c0,1.7,1.3,3.2,3.1,3.2c1.6,0,3.2-1.2,3.2-3.2c0-1.8-1.4-3.2-3.1-3.2
		C252.7,85.3,251.4,86.8,251.4,88.5z"/>
	<path class="st1" d="M261.5,85.7c0.6-0.9,1.2-1.4,2-1.4c0.5,0,0.7,0.1,0.9,0.3l-0.5,0.9c-0.1-0.1-0.3-0.1-0.5-0.1
		c-0.7,0-1.4,0.6-1.7,1.7c-0.1,0.5-0.2,1.3-0.2,2.4v3h-1.1v-7.9h1.1V85.7z"/>
	<path class="st1" d="M266.5,82.1c0,0.5-0.4,0.8-0.8,0.8c-0.5,0-0.8-0.4-0.8-0.8c0-0.5,0.4-0.8,0.8-0.8
		C266.2,81.3,266.5,81.6,266.5,82.1z M265.2,84.5h1v7.9h-1V84.5z"/>
	<path class="st1" d="M269.2,81.6h1v2.9h1.6v0.9h-1.6v7h-1v-7h-1.4v-0.9h1.4V81.6z"/>
	<path class="st1" d="M272.5,84.5h1.1l2.7,6.1l2.6-6.1h1.1l-4.7,10.8h-1.1l1.5-3.5L272.5,84.5z"/>
</g>
<g id="tMAwH5_1_">
	<g>
		<path class="st1" d="M129.9,71c1.2-0.1,2.1-0.2,3.1-0.2c4.9,0,9.9,0,14.8,0c2.9,0,4.9,1.9,5.3,4.6c0.3,2-0.5,3.5-2.3,4.5
			c-0.7,0.4-1.4,0.6-2.2,1c0.7,0.2,1.4,0.3,2,0.6c2.5,0.8,3.8,2.5,3.9,5c0.1,2.6-1.2,4.7-3.6,5.6c-0.9,0.3-1.8,0.6-2.8,0.6
			c-5.8,0-11.6,0-17.4,0c-0.2,0-0.3-0.1-0.8-0.3c0.7-0.2,1.2-0.3,1.7-0.4c1.4-0.4,1.6-1.4,1.6-2.7c0-2.6,0-5.1,0-7.7
			c0-2.3,0-4.6,0-6.8C133.1,71.8,133,71.8,129.9,71z M140.7,86.8C140.7,86.8,140.7,86.8,140.7,86.8c0,1.3,0,2.7,0,4
			c0,0.4,0.3,0.9,0.7,1c1.2,0.5,3.2-0.2,3.8-1.1c1.2-1.8,1.1-6.4-0.2-8.2c-0.6-0.8-2.6-1.2-3.7-0.8c-1,0.4-0.6,1.3-0.6,2
			C140.7,84.7,140.7,85.8,140.7,86.8z M145.3,75.8c-0.2-0.7-0.3-1.7-0.6-2.7c-0.4-1.3-1.3-1.8-2.6-1.8c-0.8,0-1.3,0.2-1.3,1.1
			c0,2.4,0,4.8,0,7.1c0,0.3,0.5,0.9,0.8,0.9c1.7,0.4,3-0.4,3.4-2.1C145.2,77.7,145.2,76.9,145.3,75.8z"/>
		<path class="st1" d="M56.3,92.5c-4.6,0-9.2,0-13.9,0c0-0.1,0-0.2-0.1-0.3c0.3-0.1,0.5-0.2,0.8-0.3c2.2-0.5,2.5-0.7,2.5-3
			c0-4.8,0-9.7,0-14.5c0-2.6-0.2-2.7-2.8-3.7c1.6,0,3.1,0,4.7,0c4,0,8,0,12,0c4.8,0.1,7.6,4.3,5.8,8.7c-0.9,2.3-2.8,3.2-5.1,3.4
			C58.4,83,56.7,83,55,83c-1.2,0-1.8,0.3-1.7,1.6c0.1,1.5,0,3,0,4.6c0.1,2.2,0.2,2.3,2.4,2.8c0.3,0.1,0.5,0.2,0.8,0.3
			C56.4,92.3,56.4,92.4,56.3,92.5z M53.3,76.7C53.3,76.7,53.3,76.7,53.3,76.7c0,1.1-0.1,2.3,0,3.4c0.1,0.7-0.5,1.9,0.8,2.1
			c1.1,0.1,2.3,0,3-1.1c0.2-0.3,0.4-0.7,0.4-1.1c0-2.2,0.2-4.4-0.1-6.5c-0.2-1.7-1.4-2.3-3.1-2.1c-0.4,0.1-1,0.6-1,1
			C53.3,73.8,53.3,75.3,53.3,76.7z"/>
		<path class="st1" d="M155.9,78.2c2.1,0,4.2,0,6.2,0c1.2,0,1.4,0.6,1.4,1.6c0,2.4,0,4.8,0,7.1c0,1,0,2.1,0,3.1c0.1,1.5,0.6,2,2.1,2
			c1.5,0,2.1-0.5,2.1-2c0-5.6,0-11.2,0-16.8c0-1.2-0.5-1.9-1.6-2.4c2,0,4,0,6,0c1.2,0,1.7,0.5,1.6,1.7c0,4.8,0,9.5,0,14.3
			c0,1,0,1.9,0,2.9c0.1,1.7,0.1,1.7,1.9,3c-6.7,0-13.3,0-20.4,0c1.7-0.7,2.3-1.4,2.3-2.8c-0.1-2.8,0-5.7,0-8.6c0-1.2-0.3-2.3-2-2.4
			C155.7,78.6,155.8,78.4,155.9,78.2z"/>
		<path class="st1" d="M188.5,85.3c0.1-3.9,3.2-7.1,7.5-7.5c3.9-0.4,7.7,2.2,8.7,5.8c0.6,2.2,0.2,4.2-1.1,5.9
			c-3,4.2-9.7,4.6-13.3,0.9C189.1,89,188.5,87.4,188.5,85.3z M194.9,85.5C194.9,85.5,194.9,85.5,194.9,85.5c0.1,1.5,0,3,0.1,4.5
			c0.1,1,0.4,1.9,1.6,2c1.2,0.1,1.7-0.7,1.8-1.7c0.5-3.3,0.6-6.6,0-9.9c-0.1-0.4-0.2-0.7-0.4-1c-0.6-0.8-1.9-0.9-2.4,0
			c-0.4,0.6-0.6,1.4-0.7,2.1C194.8,82.8,194.9,84.2,194.9,85.5z"/>
		<path class="st1" d="M91.3,79.6c-0.3,0.8-0.9,1.6-1,2.5c-0.1,2.8-0.1,5.5,0,8.3c0,0.8,0.8,1.5,1.2,2.2c-2.7,0-5.7,0-9.2,0
			c1.2-0.8,1.8-1.6,1.7-2.9c-0.1-2.8-0.1-5.7,0-8.6c0-1.2-0.3-2-1.5-2.6c2.7,0,5.3-1.2,7.8,0.5c0.2,0.1,0.7-0.1,0.9-0.2
			c1.2-0.8,2.5-0.8,3.8-0.5c1.6,0.3,2.8,2.1,2.6,3.6c-0.2,1.8-1.8,3-3.6,2.9c-1.7-0.1-2.8-1.3-2.6-3.1c0.1-0.6,0.3-1.2,0.5-1.9
			C91.7,79.7,91.5,79.6,91.3,79.6z"/>
		<path class="st1" d="M188.4,88.5c-0.3,2.9-0.8,3.8-2.9,4.2c-1.4,0.2-3,0.2-4.5-0.1c-2.3-0.5-3.2-2-3.3-4.4c0-2.1-0.1-4.2,0-6.3
			c0.1-1.4-0.1-2.5-2.3-2.8c0.9-0.6,1.3-1,1.8-1.2c2.2-1.3,3.9-3,5.3-5.1c0.2-0.3,0.7-0.6,0.9-0.5c0.3,0.1,0.5,0.5,0.6,0.9
			c0.1,1.1,0.1,2.3,0,3.4c0,1,0.3,1.7,1.5,1.5c0.5,0,1,0,1.4,0.1c0.2,0,0.5,0.3,0.5,0.5c0,0.2-0.2,0.4-0.4,0.7
			c0,0.1-0.2,0.1-0.3,0.1c-0.8,0.1-2.1,0-2.4,0.4c-0.4,0.8-0.3,2-0.3,3c0,2,0,4,0,6c0,1.1,0,2.2,1.3,2.5c1,0.3,1.6-0.1,2.5-1.7
			C188,89.4,188.1,89.1,188.4,88.5z"/>
		<path class="st1" d="M79.8,91c-3.3,2.5-6.5,2.5-9.7,0.9c-2.8-1.3-4-3.9-3.8-7.3c0.2-4.3,5.2-7.5,9.5-6.7c2.9,0.5,4.9,2,5.7,4.9
			c0.5,1.7,0.2,2-1.5,2c-2,0-4,0.1-6,0.1c-1.1,0-1.5,0.5-1.4,1.6c0.2,3.7,2.4,5.3,6.1,4.4C78.9,90.9,79.1,91,79.8,91z M76.2,81.7
			c0-0.3-0.1-1.1-0.3-1.8c-0.3-0.9-1.2-1.3-2-1c-1,0.4-1.8,4-1,4.8c0.1,0.1,0.1,0.1,0.2,0.2C74.6,84.6,76.2,83.7,76.2,81.7z"/>
		<path class="st1" d="M111.8,90.8c-3.4,3.5-9.8,2.4-12.3-0.6c-2.2-2.7-2.3-6.8,0-9.4c3.1-3.5,9.1-3.9,12.7-0.9
			c0.2,0.2,0.4,0.4,0.6,0.6c1.1,1.3,1.2,2.5,0.4,3.6c-0.7,1-2.2,1.4-3.6,0.9c-1.4-0.6-2.2-1.9-2-3.4c0.1-0.4,0.3-0.7,0.3-1.1
			c0-0.5-0.2-1.5-0.3-1.5c-0.7,0-1.6,0-2.1,0.4c-2.2,2-1.9,9.6,0.4,11.5c0.8,0.7,1.8,1.1,2.9,0.8C109.7,91.4,110.5,91.2,111.8,90.8z
			"/>
		<path class="st1" d="M119.4,97.1c1.6-2.5,1.4-4.8,0-7.4c-1.4-2.7-2.4-5.6-3.7-8.3c-0.5-1-1.3-1.9-2-3c2.8,0,5.7,0,8.7,0
			c-0.1,0.7-0.5,1.5-0.4,2.3c0.1,0.8,0.6,1.6,0.9,2.4c0.4,0.8,0.8,1.7,1.3,2.9c0.7-1.9,1.3-3.4,1.9-4.9c0.5-1.2,0.3-2.2-1.1-2.8
			c1.5,0,3,0,4.5,0c-1.8,0.7-2.1,2.3-2.7,3.8c-1.6,3.9-3.2,7.7-4.9,11.5c-0.6,1.3-1.5,2.4-2.2,3.6C119.6,97.2,119.4,97.1,119.4,97.1
			z"/>
		<path class="st1" d="M214.3,79.5c0.3-0.4,0.6-1,1-1.2c3.2-1.4,8.6,0.5,8,5.4c-0.3,2.1-0.1,4.2,0,6.3c0,1.4,0.1,1.4,1.7,2.6
			c-3.1,0-6,0-8.8,0c0.3-0.9,0.9-1.8,0.9-2.8c0.1-2.6,0.1-5.1,0-7.7C217.1,79.5,217,79.4,214.3,79.5
			C214.3,79.4,214.3,79.5,214.3,79.5z"/>
		<path class="st1" d="M214.3,79.4c-0.2,1-0.6,2-0.6,3c-0.1,2.5-0.1,4.9,0,7.4c0,0.9,0.4,1.7,0.7,2.7c-2.6,0-5.5,0-8.4,0
			c1.3-0.6,1.5-1.6,1.5-2.9c0-2.7-0.1-5.3,0-8c0-1.4-0.1-2.5-1.4-3.5c2,0,4-0.1,5.9,0.1C212.8,78.3,213.6,79,214.3,79.4
			C214.3,79.5,214.3,79.4,214.3,79.4z"/>
		<path class="st1" d="M119.6,97.2c-1.4,2.1-2.9,2.7-4.9,2.1c-1.4-0.4-2.2-1.6-2.1-3c0.1-1.5,1.2-2.6,2.7-2.7
			c1.6-0.1,2.7,0.7,3.1,2.3c0.1,0.4,0,0.8,0,1.1c0.3,0,0.7,0,1,0L119.6,97.2z"/>
	</g>
</g>
</svg>
