<?xml version="1.0" encoding="utf-8"?>
<!-- Generator: Adobe Illustrator 25.3.1, SVG Export Plug-In . SVG Version: 6.00 Build 0)  -->
<svg version="1.1" id="Layer_1" xmlns="http://www.w3.org/2000/svg" xmlns:xlink="http://www.w3.org/1999/xlink" x="0px" y="0px"
	 viewBox="0 0 296.4 157.6" style="enable-background:new 0 0 296.4 157.6;" xml:space="preserve">
<style type="text/css">
	.st0{fill:#FFFFFF;fill-opacity:0.996;}
	.st1{fill:#FFFFFF;}
</style>
<path class="st0" d="M36.1,55.9l-4.9,0.3c-0.1,0-0.2,0-0.3,0.1c-0.5,0.1-0.8,0.4-0.9,0.8v33.5c0.1,0.6,0.4,0.9,0.9,0.9h4.3
	c0.4,0,0.7-0.3,1-0.9l0-13.4c2.3,0.3,4.6,0.4,6.7,0.3l5.8,13.1c0,0,0,0,0,0c0.2,0.5,0.6,0.8,1.1,0.8h4.7c0.6-0.2,0.9-0.6,0.8-1.4
	l-6.3-14.3c1.8-0.8,3.2-1.9,4.2-3.3c1.9-2.5,2.3-5.8,1.2-10c0,0,0-0.1,0-0.1c-1.2-3.4-3.8-5.5-7.8-6.4
	C43.6,55.6,40.1,55.6,36.1,55.9 M43.8,61.4L43.8,61.4L43.8,61.4c3,0.4,4.6,2.1,5,5.1c0,3-1.8,4.9-5.4,5.5v0
	c-2.4,0.2-4.9,0.1-7.3-0.2l0-10.1h0.1C36.7,61.4,39.3,61.3,43.8,61.4 M118.8,73l0.1,2.3l-8.3,0.7c-3.5,0.4-5.7,2.2-6.6,5.1
	c-0.4,2.5-0.3,4.6,0.3,6.2c1,2.7,3.1,4.3,6,4.6c3.2,0.1,6.3-0.5,9.3-1.8c1.6,1.2,3.1,1.7,4.4,1.6c0,0,0,0,0.1,0
	c0.4-0.2,0.6-0.5,0.6-0.8l0-19c-0.4-2.3-1.2-4-2.2-5c-1.6-1.3-3.6-2-5.9-2c-3.5,0.1-7,0.5-10.5,1c-0.5,0.1-0.7,0.4-0.7,0.8l0.1,3.8
	c0.2,0.5,0.5,0.7,1,0.7c0,0,0,0,0.1,0c4.7-0.5,8-0.7,9.9-0.5c0,0,0,0,0,0C117.8,71.1,118.6,71.8,118.8,73 M112.8,80.2L112.8,80.2
	c2.1-0.2,4.1-0.3,6.1-0.3v5.8c-1.9,0.6-4,1-6.3,1.2c-1.8-0.1-2.8-1.1-2.9-3.3l0,0C109.8,81.6,110.8,80.4,112.8,80.2 M79.2,88.8
	c1.7-2,2.7-5.2,2.9-9.7c0-5.2-1-8.9-3-11.2c-2.2-2.1-5.1-3.1-8.7-3c-3.6-0.1-6.5,1-8.7,3c-2,2.3-3.1,6.1-3,11.2
	c0.2,4.4,1.2,7.7,2.9,9.7c1.8,2,4.7,3.1,8.8,3.1C74.5,91.9,77.4,90.8,79.2,88.8 M76,79.1c0.1,5.1-1.8,7.6-5.6,7.5
	c-3.8,0.1-5.7-2.4-5.6-7.5c-0.3-6.1,1.6-9.1,5.6-8.8C74.5,70.1,76.3,73,76,79.1 M93.7,60.3c-0.1-0.4-0.4-0.7-1-0.8l-4.3,1
	c-0.4,0.2-0.6,0.5-0.7,0.9v3.9h-2.3c-0.5,0.1-0.8,0.4-0.9,0.9V70c0,0.6,0.3,0.9,0.7,0.9h2.4v12.9c0.2,5.2,2.1,8,5.9,8.2
	c2.5,0.2,4.7,0,6.5-0.5c0.3,0,0.5-0.3,0.6-0.9c0,0,0-0.1,0-0.1l-0.1-3.2c-0.1-0.6-0.4-0.9-0.8-1c0,0-0.1,0-0.1,0l-4.3,0.1
	c-1.2-0.3-1.8-1.3-1.9-3V70.9h6.2c0.4-0.1,0.7-0.3,0.8-0.6v-4.1c0-0.3-0.3-0.6-0.9-0.8h-6.1L93.7,60.3 M144.2,65.4
	C144.2,65.3,144.2,65.3,144.2,65.4c-2.5,0.2-4.9,1.1-7.1,2.9v-1.9c-0.1-0.5-0.4-0.7-0.9-0.8h-4.1c-0.5,0.1-0.9,0.4-1,1v24.1
	c0.1,0.5,0.4,0.8,0.8,0.9h4.6c0.3-0.2,0.6-0.4,0.6-0.7V73.9c2.6-1.9,5-3,7-3.1c0.4-0.1,0.7-0.4,0.9-0.9v-3.8
	C144.9,65.7,144.6,65.5,144.2,65.4 M149,65.5c-0.5,0.2-0.8,0.6-0.9,1.2l5.8,22.1c0.5,1.5,1.4,2.3,2.7,2.6c0.5,0,1,0,1.5,0
	c0,1.3-0.5,2.4-1.5,3.2c-0.9,0.5-1.9,0.7-3,0.6l-3.7-0.2c-1-0.2-1.5,0.2-1.5,1l0.1,2.4c0.1,0.6,0.4,0.9,0.9,1c0.1,0,0.2,0.1,0.4,0.1
	c2.2,0.4,4.3,0.6,6.3,0.7l0,0c2.1,0,3.9-0.8,5.3-2.5c0.8-1.2,1.4-2.3,1.8-3.4l7.2-27.6c0.1-0.7-0.2-1.1-0.9-1.3h-4
	c-0.4,0.1-0.7,0.3-0.9,0.7l-5,19.4c-0.1,0.2-0.3,0.2-0.5,0L154,66.2c-0.2-0.5-0.6-0.7-0.9-0.8H149L149,65.5z"/>
<path class="st0" d="M260.3,45.5c-0.6-0.8-1.3-1.4-2.1-2.1c-2.4,0.6-4.5,1.9-6.3,3.7c-0.9-0.8-1.8-1.5-2.7-2.1c1.3-2.3,2-4.6,1.9-7
	c-0.8-0.6-1.6-1.1-2.5-1.5c-2.1,1.2-3.8,2.9-5.1,5.2c-1.1-0.5-2.2-1-3.3-1.4c0.3-1.1,0.5-2.3,0.5-3.6c0-1.3-0.1-2.6-0.5-3.7
	c-0.9-0.4-1.8-0.6-2.8-0.8c-1.8,1.7-3,3.8-3.6,6.3c-1.1-0.2-2.3-0.4-3.5-0.4c0-1.2-0.1-2.4-0.4-3.6c-0.3-1.3-0.8-2.4-1.4-3.5h-0.1
	l-0.6,0c-0.3,0-0.5,0-0.8,0c-0.3,0-0.5,0-0.8,0l-0.7,0c-1.2,2.1-1.8,4.4-1.8,7c-1.1,0.1-2.2,0.2-3.5,0.4c-0.3-1.2-0.8-2.3-1.4-3.4
	c-0.6-1.2-1.4-2.2-2.3-3c-1.1,0.2-2,0.4-2.8,0.8c-0.6,2.3-0.6,4.8,0,7.3c-1,0.4-2.1,0.8-3.3,1.4c-1.3-2.3-3.1-4-5.1-5.2
	c-0.2,0.1-0.5,0.2-0.7,0.3c-0.2,0.1-0.4,0.2-0.6,0.4c-0.1,0.1-0.2,0.1-0.4,0.2l-0.8,0.6c-0.1,2.4,0.6,4.8,1.9,7.1
	c-1,0.7-1.8,1.4-2.5,2c-1.9-1.9-4-3.1-6.3-3.7c-0.8,0.6-1.4,1.3-2.1,2c0.6,2.4,1.9,4.5,3.7,6.3c-0.9,1.1-1.6,2-2.1,2.8
	c-2.3-1.3-4.7-2-7-1.9c-0.3,0.4-0.5,0.8-0.8,1.2l-0.7,1.3c1.2,2.1,2.9,3.8,5.2,5.2c-0.6,1.5-1.1,2.5-1.3,3.1c-2.6-0.7-5-0.7-7.3,0
	c-0.4,0.8-0.6,1.8-0.8,2.8c1.7,1.7,3.8,3,6.3,3.6l-0.4,3.4c-1.2,0-2.4,0.2-3.6,0.4c-1.2,0.3-2.4,0.8-3.5,1.4c-0.1,1-0.1,1.9,0,2.9
	c2.1,1.2,4.4,1.8,7,1.8c0,0.6,0.2,1.7,0.5,3.5c-2.5,0.7-4.6,1.9-6.3,3.7c0.2,1,0.4,1.9,0.8,2.8c2.3,0.7,4.8,0.7,7.3,0
	c0.4,1.1,0.8,2.1,1.3,3.1c-2.3,1.3-4,3-5.2,5.1c0.1,0.3,0.3,0.6,0.4,0.9c0,0.1,0.1,0.1,0.1,0.2c0.3,0.6,0.6,1,0.9,1.4
	c2.4,0.1,4.7-0.6,7-1.9c0.7,0.9,1.4,1.9,2.1,2.8c-1.9,1.8-3.1,3.9-3.7,6.3c0.6,0.8,1.3,1.5,2,2.1c2.3-0.6,4.4-1.8,6.3-3.7
	c0.9,0.7,1.8,1.5,2.8,2.1c-1.3,2.4-1.9,4.7-1.9,7c0.8,0.6,1.6,1.1,2.5,1.5c2.1-1.2,3.8-2.9,5.2-5.2c1.1,0.5,2.2,0.9,3.1,1.2
	c-0.3,1.2-0.5,2.4-0.5,3.6c0,1.3,0.1,2.6,0.5,3.7c0.9,0.4,1.8,0.6,2.8,0.8c0.9-0.8,1.6-1.8,2.2-3c0.6-1.1,1.1-2.2,1.3-3.3
	c1,0.2,2.2,0.4,3.5,0.5c0,2.7,0.7,5,1.9,7c0.1,0,0.1,0,0.2,0l0.6,0.1h1.5l0.7-0.1c1.3-2.1,1.9-4.4,1.9-7c1.1-0.1,2.2-0.3,3.3-0.5
	c0.7,2.6,1.9,4.7,3.6,6.3c1-0.2,2-0.4,2.8-0.7c0.7-2.3,0.7-4.8,0-7.3c1-0.4,2.1-0.8,3.2-1.4c1.3,2.3,3.1,4,5.1,5.2
	c0.9-0.4,1.7-0.8,2.5-1.4c0.1-2.4-0.6-4.7-1.9-7.1c0.9-0.6,1.8-1.3,2.6-2c1.9,1.9,4,3.1,6.3,3.7c0.8-0.6,1.5-1.3,2.1-2.1
	c-0.6-2.3-1.9-4.4-3.7-6.3c0.8-0.9,1.5-1.8,2.1-2.7c2.3,1.3,4.7,1.9,7,1.9l0.1-0.1c0.2-0.2,0.4-0.5,0.6-0.9c0.2-0.4,0.4-0.7,0.6-1
	l0.1-0.1c0.1-0.2,0.1-0.3,0.2-0.4c-1.1-2.1-2.9-3.8-5.1-5.2c0.3-0.7,0.7-1.7,1.3-3.1c1.2,0.3,2.3,0.5,3.6,0.5c1.3,0,2.6-0.1,3.7-0.5
	c0.4-0.8,0.6-1.8,0.8-2.8c-1.7-1.8-3.8-3-6.3-3.6c0.2-1,0.3-2.1,0.4-3.3c2.6,0,5-0.6,7.1-1.9c0.1-1,0.1-1.9,0-2.9
	c-2.1-1.2-4.4-1.9-7-1.9c-0.1-1.1-0.3-2.3-0.5-3.4c1.2-0.3,2.3-0.8,3.4-1.4c1.2-0.6,2.2-1.4,3-2.2c-0.2-1.1-0.4-2-0.8-2.8
	c-2.3-0.7-4.8-0.7-7.3,0c-0.3-0.8-0.7-1.9-1.3-3.1c1.9-1.1,3.4-2.5,4.6-4.1l0.5-0.8c0.1-0.1,0.1-0.2,0.2-0.3
	c-0.2-0.5-0.5-1.1-0.8-1.6c-0.1-0.2-0.2-0.4-0.3-0.5c-0.1-0.1-0.2-0.3-0.3-0.4c-2.4-0.1-4.7,0.6-7,1.9c-0.7-0.9-1.3-1.8-2.1-2.7
	C258.5,50,259.7,47.9,260.3,45.5 M252.3,52c0.2-0.2,0.4-0.4,0.7-0.4c0.4,0,0.7,0.2,0.9,0.5c3.9,4.1,6.6,8.9,8.2,14.6
	c1.6,5.9,1.8,11.9,0.4,17.9c-0.1,0.3-0.2,0.6-0.4,0.7c-0.3,0.2-0.5,0.2-0.9,0.1l-5.4-1.6c-0.3-0.1-0.5-0.2-0.6-0.5
	c-0.2-0.2-0.3-0.6-0.3-0.9c1.9-9.7-0.3-17.9-6.4-24.8c-0.3-0.2-0.5-0.5-0.5-0.9c0-0.4,0.1-0.7,0.4-1L252.3,52 M231.1,51
	c0.2-0.1,0.5-0.1,0.9,0c3,0.7,5.7,1.8,8.1,3.1c2.3,1.3,4.6,3.1,6.7,5.4c0.4,0.4,0.5,0.8,0.4,1.1c-0.1,0.2-0.4,0.3-0.8,0.6l-12.7,6.1
	c-0.5,0.2-0.9,0.2-1.2,0c-0.4-0.2-0.5-0.5-0.6-1.1l-1-14C230.8,51.6,230.9,51.2,231.1,51 M236.4,49.6c-3-1-6.1-1.6-9.3-1.6
	c-3.2,0-6.3,0.5-9.3,1.6c-2.9,1-5.6,2.5-8,4.3c-0.4,0.3-0.7,0.5-1,0.5c-0.3,0-0.6-0.1-0.9-0.4l-3.8-4.2c-0.5-0.6-0.4-1.2,0.4-1.8
	c3.1-2.5,6.7-4.5,10.4-5.8c3.9-1.4,8-2.1,12.2-2.1c4.2,0,8.2,0.7,12.2,2.1c3.7,1.4,7.2,3.3,10.5,5.8c0.8,0.6,0.9,1.2,0.4,1.8
	l-3.8,4.2c-0.3,0.3-0.6,0.4-0.9,0.4c-0.3,0-0.6-0.2-1-0.5C242.1,52,239.3,50.6,236.4,49.6 M250,67.5c0.5-0.4,0.9-0.5,1.2-0.3
	c0.2,0.1,0.3,0.3,0.5,0.8c0.9,3,1.3,5.8,1.3,8.5c0,2.7-0.4,5.6-1.3,8.5c-0.2,0.6-0.4,0.9-0.7,0.9c-0.2,0-0.5-0.1-0.9-0.4l-11.7-7.9
	c-0.4-0.3-0.6-0.6-0.6-1c0-0.4,0.2-0.7,0.6-1L250,67.5 M227.1,67.4c2.5,0,4.6,0.9,6.4,2.7c1.8,1.8,2.6,3.9,2.6,6.4
	c0,2.5-0.9,4.6-2.6,6.4c-1.8,1.8-3.9,2.6-6.4,2.6s-4.6-0.9-6.4-2.6c-1.8-1.8-2.7-3.9-2.7-6.4c0-2.5,0.9-4.6,2.7-6.4
	C222.5,68.3,224.6,67.4,227.1,67.4 M231.9,86.5c0-0.5,0.2-0.9,0.6-1.1c0.4-0.2,0.8-0.2,1.2,0l12.7,6.1c0.6,0.3,0.9,0.6,0.9,0.9
	c0,0.2-0.2,0.5-0.5,0.8c-2.1,2.3-4.4,4.1-6.7,5.4c-2.3,1.3-5,2.4-8.1,3.1c-0.6,0.1-0.9,0.1-1.1-0.2c-0.1-0.2-0.1-0.5-0.1-1
	L231.9,86.5 M253.4,87.3c0.2-0.4,0.4-0.7,0.8-0.8c0.2-0.1,0.5-0.1,0.7,0l5.4,1.8c0.3,0.1,0.5,0.3,0.6,0.5c0.1,0.3,0.1,0.5,0,0.9
	c-2.7,6.8-7.1,12.4-13.2,16.6c-6.2,4.3-13.1,6.5-20.6,6.5c-7.5,0-14.4-2.1-20.6-6.4c-6.1-4.2-10.4-9.7-13.1-16.6
	c-0.1-0.4-0.1-0.7,0-0.9c0.1-0.3,0.3-0.4,0.6-0.5l5.4-1.8c0.2-0.1,0.4-0.1,0.7,0c0.3,0.1,0.5,0.4,0.7,0.7c2.1,5.3,5.6,9.6,10.3,12.8
	c4.8,3.3,10.2,5,16,5c5.8,0,11.2-1.6,16-4.9C247.8,96.8,251.2,92.6,253.4,87.3 M206.3,56.9c0,0.3-0.2,0.7-0.5,0.9
	c-6.1,6.8-8.3,15.1-6.4,24.8c0,0.3-0.1,0.6-0.2,0.9c-0.2,0.2-0.4,0.4-0.7,0.5l-5.4,1.6c-0.4,0.1-0.6,0.1-0.9-0.1
	c-0.2-0.2-0.4-0.4-0.5-0.7c-1.4-6-1.2-12,0.4-17.9c1.5-5.6,4.3-10.5,8.1-14.5c0.3-0.3,0.6-0.5,0.9-0.5c0.3,0,0.6,0.1,0.8,0.3
	l3.9,3.9C206.2,56.2,206.3,56.5,206.3,56.9 M207.2,60.7c-0.2-0.3,0-0.6,0.4-1.1l6.4-5.2c0.1-0.1,0.2-0.1,0.3-0.2
	c2.4-1.4,5.1-2.4,8.1-3.1c0.4-0.1,0.7-0.1,0.9,0c0.3,0.2,0.4,0.6,0.3,1.2l-1,14c-0.1,0.5-0.2,0.9-0.6,1.1c-0.2,0.1-0.4,0.2-0.7,0.2
	l-0.5-0.2c0,0,0,0,0,0L208,61.3C207.6,61.1,207.3,60.9,207.2,60.7 M203.4,67.1c0.2,0,0.5,0.1,0.9,0.4l11.6,7.9
	c0.4,0.3,0.7,0.6,0.7,1c0,0.4-0.2,0.7-0.6,1l-11.7,7.9c-0.5,0.4-0.9,0.5-1.2,0.4c-0.2-0.1-0.3-0.3-0.4-0.8c-0.9-3-1.3-5.8-1.3-8.5
	c0-2.7,0.4-5.5,1.3-8.5C202.9,67.4,203.1,67.2,203.4,67.1 M220.9,85.7c0.5-0.2,0.9-0.2,1.2,0c0.4,0.2,0.5,0.6,0.6,1.1l1,14
	c0.1,0.7,0,1.1-0.3,1.2c-0.2,0.1-0.5,0.1-0.9,0c-3-0.7-5.7-1.8-8.1-3.1c-2.3-1.3-4.6-3.2-6.7-5.4c-0.4-0.4-0.5-0.8-0.4-1
	c0.1-0.2,0.4-0.4,0.8-0.6L220.9,85.7 M196.9,94.8l5-2.9l-0.6-1.1l-4.9,2.9L196.9,94.8 M210.3,103.5l0.7-1c1.3,0.7,2.1,1.2,2.4,1.3
	l0.5-0.9c-0.9-0.4-2-1.1-3.3-2l-3.3,4.8c1.2,0.8,2.4,1.5,3.6,2.2l0.5-0.9l-2.6-1.5l0.9-1.3l1.7,1l0.5-0.8
	C211.5,104.3,210.9,103.9,210.3,103.5 M205.9,97.1l-0.7,0.7l1.4,1.3l-3.2,3.5l1,0.8l3-3.6l1.5,1.1l0.6-0.8
	C208,98.9,206.8,97.9,205.9,97.1 M203.2,93.8c-0.2-0.4-0.4-0.7-0.6-0.9l-4.8,3.3c0.2,0.2,0.4,0.5,0.7,1l2.9-2l-1.4,4
	c0.1,0.1,0.2,0.2,0.4,0.5c0.2,0.2,0.3,0.4,0.4,0.5l4.5-3.8l-0.8-0.8l-2.7,2.3L203.2,93.8 M224.7,105.9c-0.5,0-0.9,0-1.1-0.1
	l-0.4,3.5l-1.7-3.8l-1-0.2l-1.3,5.7c0.3,0.1,0.6,0.1,1.2,0.2l0.7-3.4l1.7,3.9l1.3,0.2L224.7,105.9 M217.8,104.5l-2.6-1l-2.2,5.3
	c0.4,0.2,0.7,0.3,1.1,0.4l0.9-2.2l1.1,0.5l0.1,2.5c0.3,0.1,0.7,0.2,1.2,0.4l-0.2-2.7c0.4-0.1,0.7-0.2,1-0.6c0.3-0.3,0.4-0.7,0.4-1.1
	l0-0.3C218.6,105.2,218.3,104.7,217.8,104.5 M217.3,105.4c0.2,0.1,0.3,0.2,0.3,0.4c0,0.1,0,0.2-0.1,0.3c-0.1,0.2-0.2,0.3-0.3,0.5
	c-0.1,0.1-0.3,0.1-0.5,0.1l-1.3-0.5v0l0.5-1.3L217.3,105.4 M237.7,104.1l-1.2,0.4l1.9,5.4c0.5-0.1,0.9-0.3,1.2-0.4L237.7,104.1
	 M235.4,105.9l-0.3-0.9c-2.3,0.5-3.8,0.8-4.6,0.9l0.2,1l1.8-0.3l0.8,4.7l1.2-0.3l-1-4.6L235.4,105.9 M227.2,106L227.2,106l-1.9,5.7
	l1.2,0.1l0.3-1l2.5-0.1l0.3,1l1.1-0.1l-2.2-5.4l-0.1-0.2L227.2,106 M227.9,107.3l0.9,2.3l-1.7,0.1L227.9,107.3 M239.8,104.9
	c0,0.4,0.1,0.8,0.3,1.2l0.2,0.3c0.4,0.7,1,1.2,1.7,1.3c0.8,0.2,1.5,0.1,2.2-0.3c0.5-0.3,0.9-0.8,1.2-1.3c0.2-0.4,0.3-0.8,0.3-1.2
	c0-0.5-0.1-1-0.4-1.4c-0.4-0.7-1-1.1-1.8-1.3c-0.7-0.2-1.5-0.1-2.2,0.3C240.3,103,239.8,103.8,239.8,104.9 M240.8,104.9
	c0-0.7,0.3-1.2,0.9-1.6c0.4-0.3,0.9-0.3,1.4-0.2c0.5,0.1,0.9,0.4,1.1,0.9c0.2,0.3,0.3,0.7,0.3,0.9c0,0.5-0.2,0.9-0.5,1.2
	c-0.1,0.1-0.2,0.3-0.5,0.4c-0.4,0.2-0.8,0.3-1.2,0.2c-0.4-0.1-0.8-0.3-1.1-0.6l-0.2-0.3C240.9,105.5,240.8,105.2,240.8,104.9
	 M248,97.3c-0.4,0.5-0.7,0.7-0.8,0.8l2.4,2.6l-4-1.2c-0.2,0.2-0.5,0.4-0.9,0.6l3.5,4.7l0.9-0.8l-2.1-2.8l4,1.2
	c0.5-0.4,0.8-0.7,0.9-0.9L248,97.3 M255.9,96.9c0.2-0.3,0.3-0.5,0.4-0.5l-5.8-1.9l-0.8,1l3.1,5.1l0.8-0.8l-0.6-0.9l1.6-1.9l1,0.4
	L255.9,96.9 M253.5,96.6l-1.1,1.3l-1.3-2.1L253.5,96.6 M259.1,91.7l-0.9-0.5l-1.4,2.5l-4.2-2.3l-0.6,1l5.1,2.8L259.1,91.7
	 M232.9,70.7c-1.6-1.6-3.6-2.4-5.8-2.4c-2.3,0-4.2,0.8-5.8,2.4c-1.6,1.6-2.4,3.5-2.4,5.8c0,2.3,0.8,4.2,2.4,5.8
	c1.6,1.6,3.5,2.4,5.8,2.4c2.3,0,4.2-0.8,5.8-2.4c1.6-1.6,2.4-3.6,2.4-5.8C235.3,74.2,234.5,72.3,232.9,70.7 M231.1,73.2
	c0.1,0.1,0.2,0.3,0.3,0.4l0.2,0.3c0.5,0.8,0.7,1.7,0.7,2.6v0.1l-0.2,1.3c-0.1,0.4-0.3,0.8-0.6,1.2c-0.4,0.8-1.1,1.4-1.8,1.8
	c-0.2,0.1-0.3,0.2-0.5,0.3l-1.6,0.4c-0.2,0-0.4,0-0.5,0H227c-0.7,0-1.4-0.2-2-0.5l-0.2-0.1c-0.2-0.1-0.3-0.2-0.5-0.3
	c-0.8-0.5-1.5-1.2-1.9-2.1c0-0.1-0.1-0.2-0.1-0.3c-0.2-0.6-0.4-1.2-0.4-1.8v-0.1v-0.1v-0.1v-0.2v-0.1l0.4-1.7
	c0.1-0.2,0.2-0.4,0.3-0.5c0.5-0.8,1.1-1.5,1.9-1.9c0.2-0.1,0.5-0.2,0.7-0.3l0.4-0.2l0.1-1.4h2.3l0.1,1.3c0.9,0.2,1.6,0.6,2.3,1.1
	L231.1,73.2C231.1,73.1,231.1,73.2,231.1,73.2 M212.7,45.4c-0.6-0.5-1.1-0.6-1.6-0.3c-1.2,0.6-2,1.1-2.6,1.4l2.8,4.9l1.1-0.7
	l-1.1-1.8l1-0.6l1.8,1.4l1.2-0.5l-2.1-1.5c0.1-0.2,0.2-0.4,0.2-0.6C213.5,46.5,213.3,45.9,212.7,45.4 M212.2,47.1
	c0,0.2-0.1,0.3-0.2,0.4l-1.2,0.6l-0.7-1.2l1.2-0.7c0.3-0.2,0.5-0.1,0.7,0.2C212.2,46.5,212.3,46.8,212.2,47.1 M221.6,42.6l1.8-0.3
	l0.5,4.7l1.2-0.1l-0.5-4.7l1.8-0.1l-0.1-1c-1.7,0.1-3.3,0.3-5,0.5L221.6,42.6 M215.9,43.4c-0.5,0.5-0.8,1.2-0.8,1.9l0,0.3
	c0.1,0.8,0.4,1.4,1,1.9c0.6,0.5,1.3,0.7,2.1,0.7c0.7-0.1,1.4-0.4,1.9-0.9c0.5-0.6,0.8-1.2,0.8-1.9v-0.2c-0.1-0.8-0.4-1.5-1-1.9
	c-0.6-0.5-1.3-0.7-2.1-0.7C217.1,42.5,216.4,42.8,215.9,43.4 M216.2,45.4v-0.2c0-0.5,0.1-0.9,0.5-1.3c0.3-0.4,0.7-0.6,1.2-0.6
	c0.5,0,1,0.1,1.3,0.4c0.4,0.3,0.6,0.7,0.7,1.2v0.2c0,0.5-0.2,0.9-0.5,1.2c-0.3,0.4-0.7,0.6-1.2,0.6c-0.5,0-1-0.1-1.3-0.4
	C216.5,46.4,216.3,46,216.2,45.4 M239.1,44.4c0-0.8-0.3-1.2-0.9-1.4c-1.7-0.5-2.6-0.8-2.9-0.9l-1.6,5.5c0.3,0.1,0.8,0.2,1.3,0.3
	l0.5-2l1.1,0.3l0.3,2.2l1.2,0.5l-0.4-2.6c0.4-0.1,0.8-0.3,1-0.7C239.1,45.3,239.1,44.9,239.1,44.4 M237.6,43.9
	c0.3,0.1,0.4,0.2,0.4,0.5c0,0.2-0.1,0.5-0.3,0.7c-0.2,0.2-0.4,0.3-0.6,0.3l-1.3-0.4l0.4-1.4C237,43.7,237.4,43.8,237.6,43.9
	 M231,41.4l-1.3-0.1l-2.7,5.6l1.2,0l0.5-1c0.9,0,1.7,0.1,2.4,0.2l0.3,1.1l1.2,0.2L231,41.4 M230.2,42.7l0.7,2.5
	c-0.6-0.1-1.2-0.2-1.8-0.2L230.2,42.7 M242.2,44.5l-1.3-0.6l0.7,3.6l-1.2,2.4l1.1,0.6l1.2-2.4l3.4-1.6c-0.5-0.3-0.9-0.5-1.1-0.7
	l-2.3,1.1L242.2,44.5L242.2,44.5z"/>
<g>
	<path class="st1" d="M30,113.4v-9.4h3.4c0.6,0,1,0.1,1.4,0.2s0.7,0.3,1,0.5s0.4,0.5,0.5,0.8c0.1,0.3,0.2,0.6,0.2,1
		c0,0.3,0,0.6-0.1,0.9c-0.1,0.2-0.2,0.4-0.3,0.6c-0.1,0.2-0.3,0.3-0.5,0.4c-0.2,0.1-0.4,0.2-0.6,0.2v0c0.7,0.1,1.1,0.4,1.5,0.8
		c0.3,0.4,0.5,0.9,0.5,1.6c0,0.5-0.1,0.9-0.2,1.2c-0.2,0.3-0.4,0.6-0.6,0.8c-0.3,0.2-0.6,0.4-1,0.5c-0.4,0.1-0.8,0.1-1.2,0.1H30z
		 M30.9,108.1h2.3c0.5,0,0.9,0,1.2-0.1c0.3-0.1,0.6-0.2,0.8-0.3c0.2-0.2,0.3-0.3,0.4-0.6c0.1-0.2,0.1-0.5,0.1-0.8
		c0-0.3,0-0.5-0.1-0.8c-0.1-0.2-0.2-0.4-0.5-0.5s-0.5-0.2-0.8-0.3c-0.3-0.1-0.8-0.1-1.2-0.1h-2.1V108.1z M30.9,112.6h2.3
		c0.5,0,0.9,0,1.3-0.1c0.4,0,0.7-0.1,0.9-0.3c0.2-0.1,0.4-0.3,0.5-0.6c0.1-0.2,0.2-0.6,0.2-1c0-0.4-0.1-0.7-0.2-1
		c-0.1-0.2-0.3-0.4-0.6-0.6c-0.2-0.1-0.5-0.2-0.9-0.3c-0.3,0-0.7-0.1-1.1-0.1h-2.4V112.6z"/>
	<path class="st1" d="M41.3,113.6c-0.4,0-0.8-0.1-1.2-0.2c-0.4-0.1-0.7-0.4-1-0.7c-0.3-0.3-0.5-0.7-0.7-1.1c-0.2-0.4-0.2-1-0.2-1.6
		c0-0.5,0.1-1,0.2-1.4c0.1-0.4,0.3-0.8,0.6-1.1c0.3-0.3,0.6-0.6,1-0.8c0.4-0.2,0.9-0.3,1.4-0.3c0.5,0,1,0.1,1.4,0.3
		c0.4,0.2,0.7,0.4,1,0.8c0.3,0.3,0.5,0.7,0.6,1.1c0.1,0.4,0.2,0.9,0.2,1.4c0,0.5-0.1,1-0.2,1.5s-0.4,0.8-0.6,1.1
		c-0.3,0.3-0.6,0.6-1,0.7S41.8,113.6,41.3,113.6z M43.6,110c0-0.4,0-0.8-0.1-1.1c-0.1-0.3-0.2-0.7-0.4-0.9c-0.2-0.3-0.4-0.5-0.7-0.6
		c-0.3-0.1-0.6-0.2-1.1-0.2c-0.4,0-0.8,0.1-1.1,0.2c-0.3,0.2-0.5,0.4-0.7,0.6c-0.2,0.3-0.3,0.6-0.4,0.9c-0.1,0.3-0.1,0.7-0.1,1.1
		c0,0.4,0.1,0.8,0.2,1.2c0.1,0.4,0.2,0.7,0.4,0.9c0.2,0.3,0.4,0.5,0.7,0.6s0.6,0.2,1,0.2c0.4,0,0.8-0.1,1.1-0.2
		c0.3-0.2,0.5-0.4,0.7-0.6c0.2-0.3,0.3-0.6,0.4-0.9C43.6,110.7,43.6,110.3,43.6,110z"/>
	<path class="st1" d="M46.4,111.2c0.1,0.6,0.3,1,0.7,1.2c0.3,0.2,0.8,0.4,1.4,0.4c0.3,0,0.5,0,0.7-0.1c0.2-0.1,0.4-0.2,0.5-0.3
		c0.1-0.1,0.2-0.3,0.3-0.4c0.1-0.1,0.1-0.3,0.1-0.5c0-0.3-0.1-0.6-0.3-0.7c-0.2-0.2-0.5-0.3-0.8-0.4c-0.3-0.1-0.7-0.2-1.1-0.2
		c-0.4-0.1-0.7-0.2-1-0.3c-0.3-0.1-0.6-0.3-0.8-0.6c-0.2-0.2-0.3-0.6-0.3-1c0-0.6,0.2-1,0.6-1.4c0.4-0.4,1-0.5,1.8-0.5
		c0.7,0,1.3,0.2,1.8,0.5c0.5,0.3,0.7,0.9,0.8,1.6h-0.8c-0.1-0.5-0.3-0.9-0.6-1.1c-0.3-0.2-0.7-0.3-1.2-0.3c-0.5,0-0.9,0.1-1.1,0.3
		c-0.3,0.2-0.4,0.5-0.4,0.8c0,0.3,0.1,0.5,0.3,0.7c0.2,0.2,0.5,0.3,0.8,0.4s0.7,0.2,1,0.3c0.4,0.1,0.7,0.2,1.1,0.3
		c0.3,0.1,0.6,0.3,0.8,0.6c0.2,0.2,0.3,0.6,0.3,1c0,0.3-0.1,0.6-0.2,0.9c-0.1,0.2-0.3,0.5-0.6,0.6c-0.2,0.2-0.5,0.3-0.9,0.4
		c-0.3,0.1-0.7,0.1-1.1,0.1c-0.4,0-0.8-0.1-1.1-0.2c-0.3-0.1-0.6-0.3-0.8-0.5c-0.2-0.2-0.4-0.5-0.5-0.7c-0.1-0.3-0.2-0.6-0.2-0.9
		H46.4z"/>
	<path class="st1" d="M57.3,108.7c-0.1-0.5-0.4-0.9-0.7-1.2s-0.8-0.4-1.3-0.4c-0.4,0-0.7,0.1-1,0.2c-0.3,0.2-0.5,0.4-0.7,0.7
		c-0.2,0.3-0.3,0.6-0.4,0.9c-0.1,0.3-0.1,0.7-0.1,1c0,0.4,0,0.7,0.1,1c0.1,0.3,0.2,0.6,0.4,0.9c0.2,0.3,0.4,0.5,0.7,0.6
		c0.3,0.2,0.6,0.2,1.1,0.2c0.6,0,1.1-0.2,1.4-0.5c0.4-0.3,0.6-0.8,0.7-1.3h0.8c-0.1,0.4-0.2,0.7-0.3,1c-0.2,0.3-0.3,0.6-0.6,0.8
		c-0.2,0.2-0.5,0.4-0.9,0.5c-0.3,0.1-0.7,0.2-1.1,0.2c-0.5,0-1-0.1-1.4-0.3c-0.4-0.2-0.7-0.4-1-0.8c-0.3-0.3-0.4-0.7-0.6-1.1
		c-0.1-0.4-0.2-0.9-0.2-1.4c0-0.5,0.1-0.9,0.2-1.4c0.1-0.4,0.3-0.8,0.6-1.1c0.3-0.3,0.6-0.6,1-0.8c0.4-0.2,0.8-0.3,1.3-0.3
		c0.8,0,1.4,0.2,1.9,0.6c0.5,0.4,0.8,1,0.9,1.8H57.3z"/>
	<path class="st1" d="M62.5,113.6c-0.4,0-0.8-0.1-1.2-0.2c-0.4-0.1-0.7-0.4-1-0.7c-0.3-0.3-0.5-0.7-0.7-1.1c-0.2-0.4-0.2-1-0.2-1.6
		c0-0.5,0.1-1,0.2-1.4c0.1-0.4,0.3-0.8,0.6-1.1c0.3-0.3,0.6-0.6,1-0.8c0.4-0.2,0.9-0.3,1.4-0.3c0.5,0,1,0.1,1.4,0.3
		c0.4,0.2,0.7,0.4,1,0.8c0.3,0.3,0.5,0.7,0.6,1.1c0.1,0.4,0.2,0.9,0.2,1.4c0,0.5-0.1,1-0.2,1.5c-0.1,0.4-0.4,0.8-0.6,1.1
		c-0.3,0.3-0.6,0.6-1,0.7C63.4,113.5,62.9,113.6,62.5,113.6z M64.8,110c0-0.4,0-0.8-0.1-1.1c-0.1-0.3-0.2-0.7-0.4-0.9
		c-0.2-0.3-0.4-0.5-0.7-0.6c-0.3-0.1-0.6-0.2-1.1-0.2c-0.4,0-0.8,0.1-1.1,0.2c-0.3,0.2-0.5,0.4-0.7,0.6c-0.2,0.3-0.3,0.6-0.4,0.9
		c-0.1,0.3-0.1,0.7-0.1,1.1c0,0.4,0.1,0.8,0.2,1.2c0.1,0.4,0.2,0.7,0.4,0.9c0.2,0.3,0.4,0.5,0.7,0.6s0.6,0.2,1,0.2
		c0.4,0,0.8-0.1,1.1-0.2c0.3-0.2,0.5-0.4,0.7-0.6c0.2-0.3,0.3-0.6,0.4-0.9C64.7,110.7,64.8,110.3,64.8,110z"/>
	<path class="st1" d="M67.7,113.4H67v-6.8h0.8v1h0c0.2-0.4,0.5-0.7,0.9-0.9c0.4-0.2,0.8-0.3,1.2-0.3c0.3,0,0.6,0,0.8,0.1
		c0.2,0.1,0.4,0.2,0.6,0.3c0.2,0.1,0.3,0.3,0.4,0.4c0.1,0.2,0.2,0.3,0.3,0.5c0.2-0.4,0.5-0.8,0.9-1c0.4-0.2,0.8-0.3,1.3-0.3
		c0.5,0,0.8,0.1,1.1,0.2c0.3,0.2,0.5,0.4,0.6,0.6c0.1,0.2,0.2,0.5,0.3,0.9c0,0.3,0.1,0.7,0.1,1v4.3h-0.8v-4.7c0-0.5-0.1-0.9-0.3-1.2
		c-0.2-0.3-0.6-0.4-1.1-0.4c-0.3,0-0.6,0.1-0.8,0.2c-0.3,0.1-0.5,0.3-0.7,0.6c-0.1,0.1-0.2,0.2-0.2,0.4c-0.1,0.2-0.1,0.3-0.1,0.5
		c0,0.2-0.1,0.3-0.1,0.5c0,0.2,0,0.3,0,0.5v3.7h-0.8v-4.7c0-0.5-0.1-0.9-0.3-1.2c-0.2-0.3-0.6-0.4-1.1-0.4c-0.3,0-0.6,0.1-0.8,0.2
		c-0.3,0.1-0.5,0.3-0.7,0.6c-0.1,0.1-0.2,0.2-0.2,0.4c-0.1,0.2-0.1,0.3-0.1,0.5c0,0.2-0.1,0.3-0.1,0.5c0,0.2,0,0.3,0,0.5V113.4z"/>
	<path class="st1" d="M78.9,113.4h-0.8v-9.4h0.8v3.7c0.3-0.4,0.6-0.7,1-1c0.4-0.2,0.9-0.3,1.4-0.3c0.5,0,1,0.1,1.3,0.3
		c0.4,0.2,0.7,0.5,0.9,0.8s0.4,0.7,0.6,1.1c0.1,0.4,0.2,0.9,0.2,1.4c0,0.5-0.1,1-0.2,1.4c-0.1,0.4-0.3,0.8-0.5,1.1
		c-0.2,0.3-0.6,0.6-1,0.8c-0.4,0.2-0.9,0.3-1.4,0.3c-0.2,0-0.4,0-0.7-0.1c-0.2-0.1-0.4-0.1-0.7-0.3c-0.2-0.1-0.4-0.3-0.6-0.4
		c-0.2-0.2-0.3-0.4-0.4-0.6h0V113.4z M78.9,109.9c0,0.4,0.1,0.8,0.2,1.1c0.1,0.4,0.2,0.7,0.4,0.9c0.2,0.3,0.4,0.5,0.7,0.6
		c0.3,0.1,0.6,0.2,1,0.2c0.3,0,0.6-0.1,0.9-0.2c0.3-0.1,0.5-0.3,0.7-0.5c0.2-0.2,0.4-0.5,0.5-0.8c0.1-0.3,0.2-0.7,0.2-1.1
		c0-0.4,0-0.8-0.1-1.2c-0.1-0.4-0.2-0.7-0.4-1c-0.2-0.3-0.4-0.5-0.7-0.7c-0.3-0.2-0.7-0.2-1.1-0.2c-0.4,0-0.7,0.1-1,0.2
		c-0.3,0.2-0.5,0.4-0.7,0.6c-0.2,0.3-0.3,0.6-0.5,0.9C78.9,109.2,78.9,109.6,78.9,109.9z"/>
	<path class="st1" d="M86.5,110.2c0,0.4,0,0.7,0.1,1c0.1,0.3,0.2,0.6,0.4,0.9c0.2,0.2,0.4,0.4,0.7,0.6c0.3,0.1,0.6,0.2,1,0.2
		c0.5,0,1-0.1,1.3-0.4c0.4-0.3,0.6-0.7,0.7-1.2h0.9c-0.1,0.3-0.2,0.6-0.4,0.9c-0.2,0.3-0.4,0.5-0.6,0.7c-0.2,0.2-0.5,0.4-0.8,0.5
		c-0.3,0.1-0.7,0.2-1.1,0.2c-0.5,0-1-0.1-1.4-0.3c-0.4-0.2-0.7-0.4-1-0.8c-0.3-0.3-0.4-0.7-0.6-1.1c-0.1-0.4-0.2-0.9-0.2-1.4
		c0-0.5,0.1-1,0.2-1.4c0.1-0.4,0.3-0.8,0.6-1.1c0.3-0.3,0.6-0.6,1-0.8c0.4-0.2,0.8-0.3,1.3-0.3c0.9,0,1.7,0.3,2.2,1
		c0.5,0.6,0.8,1.6,0.8,2.8H86.5z M90.9,109.5c0-0.3,0-0.6-0.1-0.9c-0.1-0.3-0.2-0.5-0.4-0.8c-0.2-0.2-0.4-0.4-0.7-0.5
		c-0.3-0.1-0.6-0.2-0.9-0.2s-0.7,0.1-0.9,0.2c-0.3,0.1-0.5,0.3-0.7,0.5c-0.2,0.2-0.3,0.5-0.5,0.8c-0.1,0.3-0.2,0.6-0.2,0.9H90.9z"/>
	<path class="st1" d="M102.4,110.9c0.2-0.3,0.3-0.6,0.3-0.9c0-0.3,0.1-0.6,0.1-1h0.8c0,0.4-0.1,0.9-0.2,1.3
		c-0.1,0.4-0.3,0.8-0.5,1.2l1.5,1.8h-1.1l-0.9-1.1c-0.4,0.5-0.9,0.8-1.3,1c-0.5,0.2-1,0.3-1.7,0.3c-0.4,0-0.8-0.1-1.2-0.2
		c-0.4-0.1-0.7-0.3-0.9-0.6c-0.3-0.2-0.5-0.5-0.6-0.9c-0.2-0.3-0.2-0.7-0.2-1.1c0-0.3,0.1-0.7,0.2-1c0.1-0.3,0.3-0.6,0.5-0.8
		c0.2-0.2,0.4-0.5,0.7-0.6c0.3-0.2,0.6-0.4,0.9-0.5c-0.3-0.3-0.5-0.6-0.7-1c-0.2-0.3-0.3-0.7-0.3-1.1c0-0.3,0.1-0.6,0.2-0.8
		c0.1-0.2,0.3-0.4,0.5-0.6c0.2-0.2,0.4-0.3,0.7-0.4c0.3-0.1,0.5-0.1,0.8-0.1c0.3,0,0.6,0,0.8,0.1c0.2,0.1,0.5,0.2,0.6,0.4
		c0.2,0.2,0.3,0.4,0.4,0.6c0.1,0.2,0.1,0.5,0.1,0.7c0,0.3-0.1,0.6-0.2,0.8c-0.1,0.2-0.2,0.4-0.4,0.6c-0.2,0.2-0.4,0.3-0.6,0.5
		c-0.2,0.1-0.5,0.3-0.7,0.4L102.4,110.9z M99.3,108.4c-0.3,0.1-0.5,0.3-0.7,0.4c-0.2,0.2-0.4,0.4-0.6,0.6c-0.2,0.2-0.3,0.4-0.4,0.7
		c-0.1,0.2-0.1,0.5-0.1,0.7c0,0.3,0.1,0.6,0.2,0.8c0.1,0.2,0.3,0.5,0.4,0.6c0.2,0.2,0.4,0.3,0.7,0.4c0.3,0.1,0.5,0.1,0.8,0.1
		c0.5,0,1-0.1,1.3-0.3c0.4-0.2,0.7-0.5,1.1-0.9L99.3,108.4z M100.9,106.3c0.1-0.2,0.1-0.4,0.1-0.6c0-0.2-0.1-0.4-0.2-0.5
		s-0.2-0.3-0.4-0.4c-0.2-0.1-0.4-0.2-0.6-0.2c-0.2,0-0.3,0-0.5,0.1c-0.1,0.1-0.3,0.1-0.4,0.2c-0.1,0.1-0.2,0.2-0.3,0.4
		c-0.1,0.1-0.1,0.3-0.1,0.5c0,0.1,0,0.3,0.1,0.5c0.1,0.2,0.2,0.3,0.3,0.5c0.1,0.2,0.2,0.3,0.3,0.5c0.1,0.1,0.2,0.3,0.3,0.4
		c0.3-0.2,0.5-0.3,0.8-0.5C100.6,106.8,100.8,106.6,100.9,106.3z"/>
	<path class="st1" d="M109.8,110.5c0,0.4,0.1,0.8,0.3,1.1c0.2,0.3,0.3,0.5,0.6,0.7c0.2,0.2,0.5,0.3,0.8,0.4c0.3,0.1,0.7,0.1,1,0.1
		c0.4,0,0.8-0.1,1.1-0.2c0.3-0.1,0.6-0.2,0.7-0.4c0.2-0.2,0.3-0.4,0.4-0.6c0.1-0.2,0.1-0.5,0.1-0.7c0-0.4-0.1-0.7-0.2-0.9
		c-0.2-0.2-0.4-0.4-0.6-0.6c-0.3-0.1-0.6-0.3-0.9-0.3c-0.3-0.1-0.7-0.2-1.1-0.3c-0.4-0.1-0.7-0.2-1.1-0.3c-0.3-0.1-0.7-0.3-0.9-0.5
		c-0.3-0.2-0.5-0.4-0.6-0.7c-0.2-0.3-0.2-0.7-0.2-1.1c0-0.3,0.1-0.6,0.2-0.9c0.1-0.3,0.3-0.6,0.6-0.8c0.3-0.2,0.6-0.4,1-0.6
		c0.4-0.1,0.9-0.2,1.4-0.2c0.5,0,1,0.1,1.4,0.2c0.4,0.1,0.7,0.4,1,0.6c0.3,0.3,0.5,0.6,0.6,0.9c0.1,0.3,0.2,0.7,0.2,1.1h-0.9
		c0-0.4-0.1-0.7-0.2-0.9c-0.1-0.3-0.3-0.5-0.5-0.6c-0.2-0.2-0.5-0.3-0.7-0.4c-0.3-0.1-0.6-0.1-0.9-0.1c-0.5,0-0.8,0.1-1.1,0.2
		c-0.3,0.1-0.6,0.3-0.7,0.5c-0.2,0.2-0.3,0.4-0.4,0.7c-0.1,0.2-0.1,0.5,0,0.7c0.1,0.3,0.2,0.6,0.4,0.7c0.2,0.2,0.4,0.3,0.7,0.5
		c0.3,0.1,0.6,0.2,0.9,0.3c0.3,0.1,0.7,0.2,1,0.2c0.3,0.1,0.7,0.2,1,0.3c0.3,0.1,0.6,0.3,0.9,0.5c0.3,0.2,0.5,0.4,0.6,0.7
		c0.2,0.3,0.2,0.7,0.2,1.1c0,0.9-0.3,1.6-0.9,2c-0.6,0.5-1.5,0.7-2.5,0.7c-0.5,0-0.9-0.1-1.4-0.2c-0.4-0.1-0.8-0.3-1.1-0.6
		c-0.3-0.3-0.5-0.6-0.7-1s-0.3-0.8-0.3-1.3H109.8z"/>
	<path class="st1" d="M120.1,113.6c-0.4,0-0.8-0.1-1.2-0.2c-0.4-0.1-0.7-0.4-1-0.7c-0.3-0.3-0.5-0.7-0.7-1.1c-0.2-0.4-0.2-1-0.2-1.6
		c0-0.5,0.1-1,0.2-1.4c0.1-0.4,0.3-0.8,0.6-1.1c0.3-0.3,0.6-0.6,1-0.8c0.4-0.2,0.9-0.3,1.4-0.3c0.5,0,1,0.1,1.4,0.3
		c0.4,0.2,0.7,0.4,1,0.8c0.3,0.3,0.5,0.7,0.6,1.1c0.1,0.4,0.2,0.9,0.2,1.4c0,0.5-0.1,1-0.2,1.5c-0.1,0.4-0.4,0.8-0.6,1.1
		c-0.3,0.3-0.6,0.6-1,0.7C121,113.5,120.5,113.6,120.1,113.6z M122.4,110c0-0.4,0-0.8-0.1-1.1c-0.1-0.3-0.2-0.7-0.4-0.9
		c-0.2-0.3-0.4-0.5-0.7-0.6c-0.3-0.1-0.6-0.2-1.1-0.2c-0.4,0-0.8,0.1-1.1,0.2c-0.3,0.2-0.5,0.4-0.7,0.6c-0.2,0.3-0.3,0.6-0.4,0.9
		c-0.1,0.3-0.1,0.7-0.1,1.1c0,0.4,0.1,0.8,0.2,1.2c0.1,0.4,0.2,0.7,0.4,0.9c0.2,0.3,0.4,0.5,0.7,0.6c0.3,0.1,0.6,0.2,1,0.2
		c0.4,0,0.8-0.1,1.1-0.2c0.3-0.2,0.5-0.4,0.7-0.6c0.2-0.3,0.3-0.6,0.4-0.9C122.3,110.7,122.4,110.3,122.4,110z"/>
	<path class="st1" d="M129.3,106.6h0.8v6.8h-0.8v-0.9c-0.1,0.1-0.2,0.2-0.4,0.4c-0.1,0.1-0.3,0.3-0.5,0.4c-0.2,0.1-0.4,0.2-0.6,0.3
		c-0.2,0.1-0.5,0.1-0.8,0.1c-0.5,0-0.8-0.1-1.1-0.2c-0.3-0.1-0.6-0.3-0.7-0.5c-0.2-0.2-0.3-0.5-0.4-0.8c-0.1-0.3-0.1-0.6-0.1-1v-4.5
		h0.8v4.5c0,0.6,0.1,1,0.4,1.3c0.3,0.3,0.7,0.5,1.3,0.5c0.3,0,0.6-0.1,0.9-0.2c0.3-0.1,0.5-0.3,0.6-0.5c0.2-0.2,0.3-0.5,0.4-0.8
		c0.1-0.3,0.1-0.7,0.1-1V106.6z"/>
	<path class="st1" d="M134.3,113.4c-0.1,0-0.2,0-0.4,0.1c-0.2,0-0.3,0.1-0.5,0.1c-0.4,0-0.7-0.1-0.9-0.3c-0.2-0.2-0.3-0.5-0.3-1.1
		v-5h-1v-0.7h1v-1.9h0.8v1.9h1.3v0.7H133v4.7c0,0.2,0,0.3,0,0.4c0,0.1,0,0.2,0.1,0.3c0,0.1,0.1,0.1,0.2,0.2c0.1,0,0.2,0.1,0.4,0.1
		c0.1,0,0.2,0,0.3,0c0.1,0,0.2,0,0.3-0.1V113.4z"/>
	<path class="st1" d="M135.6,113.4v-9.4h0.8v3.6c0.3-0.3,0.6-0.6,1-0.8c0.3-0.2,0.7-0.3,1.2-0.3c0.4,0,0.8,0.1,1.2,0.2
		c0.4,0.1,0.7,0.4,0.9,0.8c0.2,0.2,0.3,0.5,0.3,0.8c0,0.3,0,0.5,0,0.8v4.4h-0.8v-4.4c0-0.6-0.1-1.1-0.4-1.4
		c-0.3-0.3-0.7-0.5-1.4-0.5c-0.2,0-0.5,0-0.7,0.1c-0.2,0.1-0.4,0.2-0.5,0.3c-0.2,0.1-0.3,0.3-0.4,0.4c-0.1,0.2-0.2,0.3-0.3,0.5
		c-0.1,0.2-0.1,0.4-0.1,0.6c0,0.2,0,0.4,0,0.7v3.7H135.6z"/>
	<path class="st1" d="M143.8,113.4H143v-9.4h0.8v3.7c0.3-0.4,0.6-0.7,1-1c0.4-0.2,0.9-0.3,1.4-0.3c0.5,0,1,0.1,1.3,0.3
		c0.4,0.2,0.7,0.5,0.9,0.8c0.2,0.3,0.4,0.7,0.6,1.1c0.1,0.4,0.2,0.9,0.2,1.4c0,0.5-0.1,1-0.2,1.4c-0.1,0.4-0.3,0.8-0.5,1.1
		c-0.2,0.3-0.6,0.6-1,0.8c-0.4,0.2-0.9,0.3-1.4,0.3c-0.2,0-0.4,0-0.7-0.1c-0.2-0.1-0.4-0.1-0.7-0.3c-0.2-0.1-0.4-0.3-0.6-0.4
		c-0.2-0.2-0.3-0.4-0.4-0.6h0V113.4z M143.8,109.9c0,0.4,0.1,0.8,0.2,1.1c0.1,0.4,0.2,0.7,0.4,0.9c0.2,0.3,0.4,0.5,0.7,0.6
		s0.6,0.2,1,0.2c0.3,0,0.6-0.1,0.9-0.2c0.3-0.1,0.5-0.3,0.7-0.5c0.2-0.2,0.4-0.5,0.5-0.8c0.1-0.3,0.2-0.7,0.2-1.1
		c0-0.4,0-0.8-0.1-1.2c-0.1-0.4-0.2-0.7-0.4-1c-0.2-0.3-0.4-0.5-0.7-0.7c-0.3-0.2-0.7-0.2-1.1-0.2c-0.4,0-0.7,0.1-1,0.2
		c-0.3,0.2-0.5,0.4-0.7,0.6c-0.2,0.3-0.3,0.6-0.5,0.9C143.8,109.2,143.8,109.6,143.8,109.9z"/>
	<path class="st1" d="M153.6,113.6c-0.4,0-0.8-0.1-1.2-0.2c-0.4-0.1-0.7-0.4-1-0.7c-0.3-0.3-0.5-0.7-0.7-1.1c-0.2-0.4-0.2-1-0.2-1.6
		c0-0.5,0.1-1,0.2-1.4c0.1-0.4,0.3-0.8,0.6-1.1c0.3-0.3,0.6-0.6,1-0.8c0.4-0.2,0.9-0.3,1.4-0.3c0.5,0,1,0.1,1.4,0.3
		c0.4,0.2,0.7,0.4,1,0.8c0.3,0.3,0.5,0.7,0.6,1.1c0.1,0.4,0.2,0.9,0.2,1.4c0,0.5-0.1,1-0.2,1.5s-0.4,0.8-0.6,1.1
		c-0.3,0.3-0.6,0.6-1,0.7C154.5,113.5,154.1,113.6,153.6,113.6z M155.9,110c0-0.4,0-0.8-0.1-1.1s-0.2-0.7-0.4-0.9
		c-0.2-0.3-0.4-0.5-0.7-0.6c-0.3-0.1-0.6-0.2-1.1-0.2c-0.4,0-0.8,0.1-1.1,0.2c-0.3,0.2-0.5,0.4-0.7,0.6c-0.2,0.3-0.3,0.6-0.4,0.9
		c-0.1,0.3-0.1,0.7-0.1,1.1c0,0.4,0.1,0.8,0.2,1.2c0.1,0.4,0.2,0.7,0.4,0.9c0.2,0.3,0.4,0.5,0.7,0.6c0.3,0.1,0.6,0.2,1,0.2
		c0.4,0,0.8-0.1,1.1-0.2c0.3-0.2,0.5-0.4,0.7-0.6c0.2-0.3,0.3-0.6,0.4-0.9C155.9,110.7,155.9,110.3,155.9,110z"/>
	<path class="st1" d="M162.8,106.6h0.8v6.8h-0.8v-0.9c-0.1,0.1-0.2,0.2-0.4,0.4c-0.1,0.1-0.3,0.3-0.5,0.4c-0.2,0.1-0.4,0.2-0.6,0.3
		c-0.2,0.1-0.5,0.1-0.8,0.1c-0.5,0-0.8-0.1-1.1-0.2c-0.3-0.1-0.6-0.3-0.7-0.5s-0.3-0.5-0.4-0.8c-0.1-0.3-0.1-0.6-0.1-1v-4.5h0.8v4.5
		c0,0.6,0.1,1,0.4,1.3c0.3,0.3,0.7,0.5,1.3,0.5c0.3,0,0.6-0.1,0.9-0.2c0.3-0.1,0.5-0.3,0.6-0.5c0.2-0.2,0.3-0.5,0.4-0.8
		c0.1-0.3,0.1-0.7,0.1-1V106.6z"/>
	<path class="st1" d="M166.3,113.4h-0.8v-6.8h0.8v1.3h0c0.2-0.5,0.5-0.9,0.8-1.1c0.3-0.2,0.8-0.3,1.4-0.3v0.9
		c-0.4,0-0.8,0.1-1.1,0.2c-0.3,0.1-0.5,0.4-0.7,0.6c-0.2,0.3-0.3,0.6-0.4,0.9c-0.1,0.3-0.1,0.7-0.1,1.1V113.4z"/>
	<path class="st1" d="M170.7,113.4h-0.8v-6.8h0.8v0.9c0.3-0.3,0.6-0.6,1-0.8c0.3-0.2,0.7-0.3,1.2-0.3c0.4,0,0.8,0.1,1.2,0.2
		c0.4,0.1,0.7,0.4,0.9,0.8c0.2,0.2,0.3,0.5,0.3,0.8c0,0.3,0,0.5,0,0.8v4.4h-0.8v-4.4c0-0.6-0.1-1.1-0.4-1.4
		c-0.3-0.3-0.7-0.5-1.4-0.5c-0.2,0-0.5,0-0.7,0.1c-0.2,0.1-0.4,0.2-0.5,0.3c-0.2,0.1-0.3,0.3-0.4,0.4c-0.1,0.2-0.2,0.3-0.3,0.5
		c-0.1,0.2-0.1,0.4-0.1,0.6c0,0.2,0,0.4,0,0.7V113.4z"/>
	<path class="st1" d="M177.7,110.2c0,0.4,0,0.7,0.1,1c0.1,0.3,0.2,0.6,0.4,0.9c0.2,0.2,0.4,0.4,0.7,0.6c0.3,0.1,0.6,0.2,1,0.2
		c0.5,0,1-0.1,1.3-0.4c0.4-0.3,0.6-0.7,0.7-1.2h0.9c-0.1,0.3-0.2,0.6-0.4,0.9c-0.2,0.3-0.4,0.5-0.6,0.7c-0.2,0.2-0.5,0.4-0.8,0.5
		c-0.3,0.1-0.7,0.2-1.1,0.2c-0.5,0-1-0.1-1.4-0.3c-0.4-0.2-0.7-0.4-1-0.8c-0.3-0.3-0.4-0.7-0.6-1.1c-0.1-0.4-0.2-0.9-0.2-1.4
		c0-0.5,0.1-1,0.2-1.4c0.1-0.4,0.3-0.8,0.6-1.1c0.3-0.3,0.6-0.6,1-0.8c0.4-0.2,0.8-0.3,1.3-0.3c0.9,0,1.7,0.3,2.2,1
		c0.5,0.6,0.8,1.6,0.8,2.8H177.7z M182.1,109.5c0-0.3,0-0.6-0.1-0.9s-0.2-0.5-0.4-0.8c-0.2-0.2-0.4-0.4-0.7-0.5
		c-0.3-0.1-0.6-0.2-0.9-0.2c-0.3,0-0.7,0.1-0.9,0.2c-0.3,0.1-0.5,0.3-0.7,0.5c-0.2,0.2-0.3,0.5-0.5,0.8c-0.1,0.3-0.2,0.6-0.2,0.9
		H182.1z"/>
</g>
</svg>
