<?xml version="1.0" encoding="utf-8"?>
<!-- Generator: Adobe Illustrator 25.0.0, SVG Export Plug-In . SVG Version: 6.00 Build 0)  -->
<svg version="1.1" id="Layer_1" xmlns="http://www.w3.org/2000/svg" xmlns:xlink="http://www.w3.org/1999/xlink" x="0px" y="0px"
	 viewBox="0 0 296.4 157.6" style="enable-background:new 0 0 296.4 157.6;" xml:space="preserve">
<style type="text/css">
	.st0{fill:none;}
	.st1{fill:#FFFFFF;}
</style>
<rect y="0" class="st0" width="296.4" height="157.6"/>
<g>
	<path class="st1" d="M124.8,73.8l0.7-1.3c-0.4,0-0.7,0.1-1,0.1s-0.5,0-0.7,0c-1.7,0-2.9-0.5-3.3-1.6c-0.4,0.4-0.6,0.8-0.6,1.1
		c0,0.3,0.2,0.7,0.6,1.1c0.3,0.3,0.7,0.5,1.2,0.6c0.4,0.1,0.9,0.2,1.4,0.2c0.2,0,0.5,0,0.8,0C124.1,73.9,124.4,73.8,124.8,73.8z"/>
	<path class="st1" d="M129.1,76.3c0-0.3-0.1-0.5-0.4-0.6c-0.3-0.1-0.7-0.2-1.3-0.2c-0.2,0-1.2,0.1-3.2,0.3l-0.6,1.3
		c0.8,0.1,2.1,0.5,3.8,1.1l0.9-0.8C128.9,77,129.1,76.6,129.1,76.3z"/>
	<path class="st1" d="M126.2,72.4l-0.7,1.4c0.6-0.1,1.1-0.1,1.5-0.1c0.4,0,0.8,0,1.1,0c1.5,0,2.4,0.4,2.8,1.3
		c0.1,0.2,0.2,0.5,0.2,0.8c0,0.6-0.3,1.1-1,1.7c-0.2,0.2-0.4,0.3-0.8,0.5c-0.3,0.2-0.7,0.4-1.2,0.7l2.1,0.8c1.4-1.3,2.2-2.5,2.2-3.7
		v-0.3c0-0.1,0-0.2,0-0.2c0-0.1,0-0.2,0-0.3c-0.3-1.7-1.7-2.5-4.1-2.5c-0.3,0-0.6,0-1,0C127,72.3,126.6,72.3,126.2,72.4z"/>
	<path class="st1" d="M106.3,85.4c-0.3-0.3-0.6-0.4-1.1-0.3c-0.4,0-0.8,0.2-1,0.5c-0.2,0.3-0.3,0.8-0.2,1.3l0.1,1.5l2.8-0.3
		l-0.1-1.5C106.8,86,106.6,85.6,106.3,85.4z"/>
	<polygon class="st1" points="144.7,136.7 146.3,133.8 143.7,133.5 	"/>
	<path class="st1" d="M120.2,78.6c-0.4,0-0.8,0.1-1.1,0.3c-0.4,0.2-0.6,0.5-0.6,0.9l0.1,0.4c0.3,0.6,0.8,0.8,1.7,0.8
		c1.3,0,2.7-0.4,4.2-1.2C122.8,78.9,121.3,78.6,120.2,78.6z"/>
	<path class="st1" d="M133.1,92.3c0,1.1-0.2,2-0.7,2.7c-0.3,0.5-0.9,1.3-1.9,2.1c1,0.8,2.3,1.2,3.8,1.2l0.3-0.1V87.8l-1.5-0.3V92.3z
		"/>
	<path class="st1" d="M130.8,87.1l-0.4-0.1c-1.6,1.7-2.3,3.5-2.3,5.4c0,1.7,0.6,3.1,1.9,4.3c0.5-0.5,0.8-1.1,0.8-1.9V87.1z"/>
	<path class="st1" d="M135.2,132.1c-0.4,0.1-0.6,0.4-0.8,0.8c-0.2,0.4-0.1,0.8,0.1,1.1c0.2,0.3,0.6,0.6,1.1,0.8l1.4,0.5l1-2.6
		l-1.4-0.5C136,132,135.5,131.9,135.2,132.1z"/>
	<polygon class="st1" points="167,71.4 167,75.4 169.2,73.7 	"/>
	<polygon class="st1" points="107.7,69.3 108.1,66.7 104.9,67.5 	"/>
	<polygon class="st1" points="154.1,58.4 154.1,60.2 155.1,59.4 	"/>
	<path class="st1" d="M177.2,76.8c0.6-0.9,0.8-1.7,0.8-2.5c0-1-0.4-1.9-1.1-2.5l-1.6,1.2v5.7C176.1,78.2,176.7,77.5,177.2,76.8z"/>
	<polygon class="st1" points="146.9,71.4 146.9,75.4 149.1,73.7 	"/>
	<path class="st1" d="M131,30.6c0.4,0.2,0.8,0.4,1.2,0.4s0.9-0.1,1.3-0.3c0.4-0.2,0.7-0.5,1-0.9c0.2-0.4,0.4-0.8,0.4-1.2
		c0-0.4-0.1-0.9-0.3-1.3c-0.2-0.4-0.5-0.7-0.9-1c-0.4-0.2-0.8-0.4-1.2-0.4s-0.9,0.1-1.3,0.3c-0.4,0.2-0.7,0.5-1,0.9
		c-0.2,0.4-0.4,0.8-0.4,1.2c0,0.4,0.1,0.9,0.3,1.3C130.3,30,130.6,30.3,131,30.6z"/>
	<path class="st1" d="M145.9,59.1c0,0.5-0.1,0.8-0.3,1.2c-0.1,0.2-0.4,0.5-0.8,0.9c0.4,0.3,1,0.5,1.6,0.5l0.1,0v-4.5l-0.7-0.1V59.1z
		"/>
	<path class="st1" d="M144.9,56.9l-0.1,0c-0.7,0.7-1,1.5-1,2.3c0,0.7,0.3,1.3,0.8,1.9c0.2-0.2,0.3-0.5,0.3-0.8V56.9z"/>
	<path class="st1" d="M124.2,70.6c0.2,0,0.4,0,0.6,0c0.2,0,0.4-0.1,0.7-0.1l1.3-0.2l0.8-1.4c-1.2-0.8-2.3-1.3-3.4-1.4h-0.4
		c-0.5,0-0.9,0.1-1.3,0.4c-0.4,0.3-0.6,0.7-0.6,1.1l0,0.1C121.8,70.1,122.6,70.6,124.2,70.6z"/>
	<polygon class="st1" points="187,106.5 184.7,104.1 183.7,106.6 	"/>
	<path class="st1" d="M164.5,91.3c-0.2,0-0.4,0.1-0.6,0.1c-0.2,0-0.5,0-0.7,0c-0.7,0-1.5-0.2-2.3-0.5l0,2.7l1.4,0.7L164.5,91.3z"/>
	<path class="st1" d="M164.2,95.2l-1.5-0.7l-2.6,3.4c0.4-0.1,0.9-0.1,1.5-0.1c0.8,0,1.7,0.2,2.5,0.6L164.2,95.2z"/>
	<path class="st1" d="M176.2,120.5c-0.3-0.3-0.7-0.5-1.1-0.6c-0.4-0.1-0.8-0.1-1.2,0c-0.4,0.1-0.8,0.4-1.1,0.7
		c-0.3,0.3-0.5,0.7-0.6,1.1c-0.1,0.4-0.1,0.8,0,1.2c0.1,0.4,0.4,0.8,0.7,1.1c0.3,0.3,0.7,0.5,1.1,0.6c0.4,0.1,0.8,0.1,1.2,0
		c0.4-0.1,0.8-0.4,1.1-0.7c0.3-0.3,0.5-0.7,0.6-1.1c0.1-0.4,0.1-0.8,0-1.2C176.8,121.2,176.6,120.8,176.2,120.5z"/>
	<path class="st1" d="M187.6,80.3c0,0.5,0.1,1,0.3,1.4c0.2,0.4,0.5,0.7,0.8,0.9c0.4,0.2,0.8,0.3,1.3,0.3c0.5,0,0.9-0.1,1.3-0.3
		c0.4-0.2,0.7-0.5,0.9-0.9c0.2-0.4,0.3-0.8,0.3-1.4l0-1.7l-4.8-0.1L187.6,80.3z"/>
	<path class="st1" d="M148.2,16C121,16,99,44.1,99,78.8c0,34.7,22,62.8,49.2,62.8c27.2,0,49.2-28.1,49.2-62.8
		C197.4,44.1,175.4,16,148.2,16z M193.4,74.4l-1.1,0.1l-0.4-3.8l-1.8,0.2l0.3,3.4l-1.1,0.1L189,71l-1.9,0.2l0.4,3.9l-1.1,0.1
		l-0.5-5.2l7-0.7L193.4,74.4z M189.3,60.2c0,0.8-0.6,1.4-1.4,1.4s-1.4-0.6-1.4-1.4c0-0.8,0.6-1.4,1.4-1.4S189.3,59.4,189.3,60.2z
		 M184.4,44.2l-2,3.4l4,0.2L187,49l-5.3-0.3l-2.2,1.2l-0.6-1.1l2.2-1.2l2.7-4.6L184.4,44.2z M171.9,82.3c0,0.4,0.2,0.8,0.6,1
		c0.3,0.2,0.7,0.3,1.2,0.3c0.6,0,1.1-0.1,1.4-0.4c0.5-0.4,0.8-0.6,1-0.6c0.1,0,0.2,0.1,0.3,0.2c0,0,0,0.1,0,0.2c0,0.3-0.3,0.6-1,0.8
		c-0.5,0.2-1,0.3-1.3,0.3h-0.3c-1.5,0-2.3-0.4-2.4-1.3v-0.2c0-0.5,0.3-1.1,0.9-1.9c0.6-0.8,0.9-1.3,0.9-1.5v-6.2
		c0-0.4-0.2-0.7-0.6-1.1l-0.7,0.5l-0.3-0.3l2.2-2c1,0.5,1.5,1.4,1.5,2.5l3.2-2.5c1,1,1.4,2.2,1.4,3.7c0,1.2-0.5,2.3-1.4,3.3
		c-0.8,0.8-1.8,1.6-3,2.2c-0.3,0.1-0.6,0.3-0.9,0.5c-0.4,0.2-0.8,0.4-1.2,0.7c-1.1,0.7-1.6,1.3-1.6,1.8L171.9,82.3z M171.8,98.5
		l0.7-0.5l0.3,0.3l-2.1,1.8c-1.1-0.9-2.1-1.5-2.9-1.8c0.4-0.4,0.6-1,0.6-1.7v-6h-0.8l0-0.3l3-3.8l0,3h2.4v1.2h-2.4v6.8L171.8,98.5z
		 M168.9,79.3l1.5-1l0.3,0.3c-0.2,0.1-0.4,0.3-0.6,0.4c-0.2,0.1-0.4,0.3-0.7,0.5l-2,1.4c-1-0.6-2.1-1-3.2-1.2c0.4-0.5,0.7-1,0.7-1.7
		v-6.2c0.5-0.2,1.1-0.5,1.6-0.8c0.5-0.3,1-0.6,1.6-1l3,3c-1.7,1.2-3.1,2.2-4,3.1v2.4L168.9,79.3z M179.5,37.1l3.5,4.8l-0.9,0.6
		l-1.4-1.9l-4.8,3.5l-0.8-1.1l4.8-3.5l-1.4-1.9L179.5,37.1z M178,35.3l-5.2,4.7l-0.9-1l5.2-4.7L178,35.3z M170.7,28.6l0,6.1l3-3.7
		l1,0.8l-4.4,5.4l-0.8-0.7l0-6.1l-3,3.7l-1-0.8l4.4-5.4L170.7,28.6z M159.4,26.8l1.7-3.6l1.2,0.6l-1.7,3.5c-0.6,1.2-0.3,2.1,0.7,2.6
		c1.1,0.5,1.9,0.1,2.5-1.1l1.7-3.5l1.2,0.5l-1.7,3.6c-0.4,0.9-1,1.5-1.7,1.8c-0.7,0.3-1.5,0.2-2.4-0.2c-0.9-0.4-1.4-1-1.7-1.7
		C158.9,28.5,158.9,27.7,159.4,26.8z M159.4,67.4l0.3,0c0.7-0.7,1.5-1.1,2.4-1.2c-0.8,0.6-1.1,1.3-1.1,2.1v9.8l1.7,1.1l0.6-0.4
		l0.3,0.3l-2.1,1.8c-0.7-0.6-1.8-1.2-3.3-1.8c0.4-0.5,0.6-1,0.6-1.7v-9.3c0-0.5-0.3-1-0.8-1.5C158.4,66.7,158.9,67,159.4,67.4z
		 M151.6,66.6c0.6,0.1,1.1,0.4,1.5,0.7l0.3,0c0.7-0.7,1.5-1.1,2.4-1.2c-0.8,0.6-1.1,1.3-1.1,2.1v9.8l1.7,1.1l0.6-0.4l0.3,0.3
		l-2.1,1.8c-0.7-0.6-1.8-1.2-3.3-1.8c0.4-0.5,0.6-1,0.6-1.7v-9.3C152.4,67.7,152.1,67.2,151.6,66.6z M148.8,79.3l1.5-1l0.3,0.3
		c-0.2,0.1-0.4,0.3-0.6,0.4c-0.2,0.1-0.4,0.3-0.7,0.5l-2,1.4c-1-0.6-2.1-1-3.2-1.2c0.4-0.5,0.7-1,0.7-1.7v-6.2
		c0.5-0.2,1.1-0.5,1.6-0.8c0.5-0.3,1-0.6,1.6-1l3,3c-1.7,1.2-3.1,2.2-4,3.1v2.4L148.8,79.3z M149.8,63.5L149.8,63.5
		c0.3-0.2,0.6-0.3,0.8-0.4c0.2-0.1,0.4-0.2,0.4-0.2c0.4-0.3,0.5-0.6,0.5-1.1V59c0-0.2-0.2-0.3-0.4-0.5l-0.8,0.6v2.5l0.3,0.3
		l-0.8,0.7l-0.8-0.6l0.3-0.3v-3.1h-0.5v-0.5h0.5v-0.6c0-0.4-0.1-0.8-0.4-1l0,0c0.2,0.1,0.5,0.2,0.6,0.3l0.2,0c0.3-0.3,0.6-0.5,1-0.5
		c-0.3,0.2-0.4,0.6-0.4,0.9v1.8l1.4-1c0.4,0.3,0.7,0.7,0.7,1.2v2.4c0,0.6-0.3,1.1-0.9,1.5C151.1,63.2,150.5,63.4,149.8,63.5z
		 M155,61.8l0.7-0.4l0.1,0.1c-0.1,0.1-0.2,0.1-0.3,0.2c-0.1,0.1-0.2,0.1-0.3,0.2l-0.9,0.6c-0.4-0.2-0.9-0.4-1.4-0.5
		c0.2-0.2,0.3-0.4,0.3-0.7v-2.7c0.2-0.1,0.5-0.2,0.7-0.4c0.2-0.1,0.4-0.3,0.7-0.4l1.3,1.3c-0.7,0.5-1.3,1-1.7,1.3v1L155,61.8z
		 M149.5,20.8l1.1,0.2l2.1,5l3.4-4.2l1.1,0.2l-1,6.9l-1.2-0.2l0.7-4.6l-2.8,3.5l-0.6-0.1l-1.7-4.1l-0.7,4.5l-1.2-0.2L149.5,20.8z
		 M147.5,56.4c0.4,0,0.8-0.2,1-0.5l0.1,0c0,0.5-0.2,0.8-0.5,1.1c-0.3,0.2-0.7,0.3-1.2,0.3l-0.1,0v4.4c0.7-0.2,1.3-0.7,1.7-1.3l0,0
		c-0.3,1.2-1,1.9-1.9,2.1c-0.3,0.1-0.5,0.1-0.8,0.1c-1.1,0-2-0.4-2.5-1.2c-0.3-0.5-0.5-1-0.5-1.5c0-0.2,0-0.5,0.1-0.8
		c0.1-0.5,0.3-0.9,0.6-1.2c0.1-0.1,0.3-0.3,0.4-0.5c0.2-0.2,0.4-0.3,0.6-0.5l-0.6,0c-0.3,0-0.6,0.1-0.8,0.2
		c-0.2,0.1-0.5,0.4-0.7,0.7h0c0.2-1.2,1-1.8,2.4-1.8c0.5,0,0.9,0,1.2,0.1c0.2,0.1,0.4,0.1,0.8,0.2C147,56.3,147.3,56.4,147.5,56.4z
		 M138.6,22.1l3.6,4l1.8-5.1l1.1-0.2l1.3,6.9l-1.2,0.2l-0.9-4.6l-1.5,4.2l-0.6,0.1l-3-3.3l0.9,4.5l-1.2,0.2l-1.3-6.9L138.6,22.1z
		 M137,67.3c0.7-0.8,1.4-1.2,2.2-1.2c-0.7,0.6-1,1.3-1,2.1v4.1l3.3-2.4c1,0.7,1.5,1.6,1.5,2.7v5.7c0,1.4-0.7,2.5-2.2,3.4
		c-1.1,0.7-2.4,1.2-4,1.5l-0.1-0.1c0.8-0.3,1.4-0.6,1.9-0.8c0.5-0.2,0.8-0.4,1-0.6c0.8-0.6,1.2-1.5,1.2-2.6v-6.5
		c-0.1-0.4-0.4-0.8-0.9-1.1l-1.8,1.4v5.8l0.6,0.7L137,81l-1.8-1.4l0.7-0.8v-7.3h-1.1v-1.1h1.2v-1.4c0-1-0.3-1.8-0.8-2.3l0,0
		c0.6,0.2,1.1,0.5,1.4,0.8L137,67.3z M129.1,26.6c0.4-0.5,0.9-1,1.5-1.3c0.6-0.3,1.3-0.5,1.9-0.5c0.7,0,1.3,0.2,1.8,0.5
		c0.5,0.3,1,0.8,1.3,1.4c0.3,0.6,0.5,1.2,0.4,1.9c0,0.6-0.2,1.2-0.6,1.8c-0.4,0.5-0.9,1-1.5,1.3c-0.6,0.3-1.3,0.5-1.9,0.5
		c-0.7,0-1.3-0.2-1.8-0.5c-0.5-0.3-1-0.8-1.3-1.4c-0.3-0.6-0.5-1.2-0.4-1.9C128.5,27.7,128.7,27.1,129.1,26.6z M121.9,32
		c0.2-0.6,0.6-1.1,1.1-1.6c0.4-0.4,0.9-0.6,1.4-0.8c0.5-0.2,1-0.2,1.5-0.1l-0.1,1.1c-0.7-0.1-1.4,0.1-2,0.6
		c-0.4,0.3-0.6,0.7-0.8,1.1c-0.2,0.4-0.2,0.8-0.1,1.2c0.1,0.4,0.3,0.8,0.6,1.2c0.3,0.4,0.7,0.6,1.1,0.8c0.4,0.1,0.8,0.2,1.2,0.1
		c0.4-0.1,0.8-0.3,1.2-0.6c0.6-0.5,0.9-1.1,0.9-1.9l1.2,0.1c0,0.5-0.1,1-0.3,1.4c-0.2,0.5-0.6,0.9-1,1.3c-0.5,0.5-1.1,0.8-1.8,0.9
		c-0.6,0.1-1.3,0.1-1.9-0.1c-0.6-0.2-1.1-0.6-1.6-1.1c-0.4-0.5-0.7-1.1-0.8-1.7C121.6,33.2,121.7,32.6,121.9,32z M109.6,48l1,0.4
		l-1.5,3.5l1.7,0.7l1.4-3.1l1,0.4l-1.4,3.1l1.8,0.8l1.6-3.6l1,0.4l-2.1,4.8l-6.4-2.8L109.6,48z M105.6,58.2c0.2-0.6,0.4-1,0.7-1.5
		c0.3-0.4,0.7-0.7,1.2-0.9l0.5,1c-0.7,0.4-1.1,0.9-1.3,1.6c-0.1,0.5-0.2,0.9-0.1,1.4c0.1,0.4,0.3,0.8,0.6,1.1
		c0.3,0.3,0.7,0.5,1.1,0.7c0.4,0.1,0.9,0.1,1.3,0c0.4-0.1,0.8-0.3,1.1-0.6c0.3-0.3,0.5-0.7,0.7-1.2c0.2-0.5,0.2-1,0.1-1.5l-2.1-0.6
		l0.3-1.2l2.7,0.8c0.2,0.4,0.3,0.9,0.3,1.4c0,0.5-0.1,1-0.2,1.5c-0.2,0.7-0.5,1.3-1,1.7c-0.5,0.5-1,0.8-1.6,0.9
		c-0.6,0.2-1.3,0.1-1.9-0.1c-0.7-0.2-1.2-0.5-1.6-1c-0.4-0.5-0.7-1-0.9-1.7C105.3,59.6,105.4,58.9,105.6,58.2z M103.7,66.6l7.4-2
		l-0.2,1.3l-1.7,0.4l-0.6,3.5l1.5,0.9l-0.2,1.3l-6.4-4.2L103.7,66.6z M102.9,71.9L104,72l-0.1,2.3l5.9,0.4l-0.1,1.3l-5.9-0.4
		l-0.1,2.3l-1.1-0.1L102.9,71.9z M102.6,80l7-0.1l0,1.3l-7,0.1L102.6,80z M102.9,86.9c-0.1-0.6,0-1.1,0.1-1.6
		c0.2-0.5,0.4-0.8,0.8-1.1c0.3-0.3,0.8-0.4,1.3-0.5c0.5-0.1,1,0,1.4,0.2s0.7,0.6,1,1l2.1-1.8l0.1,1.4l-1.9,1.6c0,0.1,0,0.1,0,0.3
		L108,88l2-0.2l0.1,1.3l-7,0.7L102.9,86.9z M103.7,92.7l1.1-0.2l0.8,3.7l1.8-0.4l-0.7-3.3l1-0.2l0.7,3.3l1.9-0.4l-0.8-3.9l1.1-0.2
		l1.1,5.1l-6.9,1.5L103.7,92.7z M107.7,106.8l-0.4-1.2l2.7-1l-1.2-3.4l-2.7,1l-0.4-1.2l6.6-2.3l0.4,1.2l-2.8,1l1.2,3.4l2.8-1
		l0.4,1.2L107.7,106.8z M116.1,116.2c-0.8,0-1.4-0.6-1.4-1.4c0-0.8,0.6-1.4,1.4-1.4c0.8,0,1.4,0.6,1.4,1.4
		C117.6,115.5,116.9,116.2,116.1,116.2z M116.1,43.1c0-0.8,0.6-1.4,1.4-1.4c0.8,0,1.4,0.6,1.4,1.4s-0.6,1.4-1.4,1.4
		C116.8,44.5,116.1,43.9,116.1,43.1z M119,81c-0.2-0.1-0.5-0.2-0.7-0.4c-0.2-0.2-0.3-0.4-0.4-0.6c-0.1-0.2-0.2-0.5-0.2-0.7
		c0-1.6,1.2-2.4,3.5-2.4c0.3,0,0.7,0,1,0c0.3,0,0.6,0.1,0.9,0.1l0.5-1.1l-0.3,0c-0.9,0.1-1.8-0.1-2.7-0.4c-1-0.4-1.7-1.1-2.1-1.9
		c-0.1-0.3-0.2-0.5-0.2-0.7c0-0.9,0.6-1.7,1.9-2.2c0-0.6,0.2-1.2,0.5-1.8c0.3-0.6,0.7-1.1,1.2-1.5l2.2-1.9c1.5,0.6,3,1.1,4.5,1.5
		l0.5-0.9l0.4,0.3l-2.2,4l0.8,0c1.8,0.1,3.1,0.4,4,0.9c1.3,0.8,2,1.9,2,3.3v0.1c0,1.8-1.1,3.5-3.2,4.9c-0.6,0.4-1.5,0.9-2.6,1.5
		l-2.9-1.2c-0.6,0.2-1.1,0.5-1.4,0.6c-0.4,0.2-0.7,0.3-0.9,0.3c-1,0.3-1.8,0.5-2.5,0.4l-0.7,0C119.5,81.2,119.3,81.1,119,81z
		 M123.9,128.2c-0.4,0.1-0.8,0.1-1.2-0.1c-0.4-0.2-0.9-0.4-1.3-0.8c-0.3-0.3-0.6-0.6-0.8-1c-0.2-0.4-0.4-0.7-0.5-1.1l1-0.5
		c0.1,0.3,0.2,0.7,0.4,1c0.2,0.3,0.4,0.5,0.6,0.8c0.4,0.3,0.7,0.5,1,0.6c0.3,0,0.6,0,0.7-0.3c0.1-0.1,0.2-0.3,0.2-0.5
		c0-0.2-0.1-0.4-0.2-0.6c-0.1-0.2-0.3-0.5-0.5-0.8c-0.3-0.4-0.5-0.8-0.7-1.1c-0.2-0.3-0.2-0.7-0.2-1s0.2-0.7,0.5-1
		c0.3-0.3,0.6-0.5,0.9-0.6c0.4-0.1,0.8-0.1,1.2,0.1c0.4,0.2,0.9,0.4,1.3,0.9c0.4,0.4,0.7,0.8,1,1.2c0.3,0.5,0.4,0.9,0.5,1.3l-1,0.4
		c-0.1-0.4-0.2-0.7-0.4-1.1c-0.2-0.4-0.5-0.7-0.8-1c-0.4-0.4-0.7-0.6-1-0.6c-0.3-0.1-0.5,0-0.7,0.2c-0.1,0.1-0.2,0.3-0.2,0.5
		c0,0.2,0.1,0.4,0.2,0.6c0.1,0.2,0.3,0.5,0.5,0.8c0.3,0.5,0.5,0.8,0.7,1.2c0.2,0.3,0.2,0.7,0.2,1c0,0.4-0.2,0.7-0.5,1
		C124.6,127.9,124.3,128.1,123.9,128.2z M130.8,132.7l-0.6,0.9l-5-3.2l0.6-0.9l2,1.3l3.2-5l1.1,0.7l-3.2,5L130.8,132.7z M127,97.4
		c-0.8-1.1-1.1-2.3-1.1-3.6c0-0.5,0.1-1.1,0.3-1.8c0.3-1.1,0.8-2,1.5-2.9c0.3-0.3,0.6-0.7,1-1.1c0.4-0.4,0.9-0.8,1.4-1.2l-1.4-0.1
		c-0.7,0-1.4,0.1-2,0.4c-0.5,0.3-1.1,0.9-1.7,1.7h-0.1c0.5-2.9,2.3-4.3,5.6-4.3c1.1,0,2,0.1,2.9,0.3c0.4,0.1,1,0.3,1.8,0.5
		c0.7,0.2,1.3,0.3,1.8,0.3c1,0,1.8-0.4,2.3-1.2l0.1,0c0,1.1-0.4,2-1.2,2.5c-0.8,0.6-1.7,0.8-2.7,0.7l-0.3,0v10.3
		c1.6-0.5,3-1.5,4-3.1l0.1,0.1c-0.8,2.7-2.2,4.4-4.4,4.9c-0.6,0.2-1.2,0.2-1.9,0.2C130.3,100.3,128.4,99.3,127,97.4z M137.8,136.8
		l-2.7-1c-0.6-0.2-1-0.5-1.4-0.8c-0.4-0.3-0.6-0.7-0.7-1.2c-0.1-0.4-0.1-0.9,0.1-1.4c0.2-0.5,0.5-0.9,0.8-1.1
		c0.4-0.3,0.8-0.4,1.3-0.4l-0.7-2.7l1.3,0.5l0.6,2.4c0.1,0,0.1,0,0.3,0.1l1.5,0.6l0.7-1.9l1.2,0.5L137.8,136.8z M140.8,90.9
		l-0.4,0.3l-0.3-0.3l2-1.8c0.5,0.2,0.8,0.5,1,0.7c0.2,0.3,0.4,0.6,0.5,1.1l2.4-1.8l1.5,1.7l-1.5,1.3l-1.4-1.4l-0.9,0.7v6.1l1.3,1
		l0.7-0.5l0.3,0.3l-2.1,1.8c-0.9-0.7-1.9-1.3-3-1.8c0.4-0.3,0.6-0.9,0.6-1.7v-4.7C141.3,91.5,141.2,91.2,140.8,90.9z M145.2,138.1
		l-1.3-0.1l-2.5-7.3l1.4,0.1l0.5,1.7l3.5,0.3l0.8-1.5l1.3,0.1L145.2,138.1z M153.9,97.7l-3.3,2.4c-1-0.6-1.5-1.5-1.5-2.7v-6.2
		l-0.4-0.4l-0.5,0.3l-0.2-0.3l2.2-1.7l1.8,1.4l-0.7,0.6v6.2c0,0.5,0.3,0.8,0.8,1.1l1.9-1.4v-5.9l-0.6-0.7l1.7-1.4l1.7,1.4l-0.7,0.6
		v6.7c0,0.2,0.2,0.5,0.7,0.7l0.4-0.3l0.2,0.2l-2.1,1.7C154.3,99.5,153.9,98.7,153.9,97.7z M156.7,135c-0.8,0-1.4-0.6-1.4-1.4
		c0-0.8,0.6-1.4,1.4-1.4s1.4,0.6,1.4,1.4C158.1,134.3,157.5,135,156.7,135z M158.5,100l-0.3-0.2l2.8-4l-2.2-1.2V91
		c1-0.5,2-1.1,2.9-1.9c1.3,0.6,2.3,1,3,1l0.6-0.1c0.2,0,0.4-0.1,0.6-0.2c0.2-0.2,0.3-0.4,0.3-0.6c0-0.2-0.2-0.5-0.5-0.9l-0.1-0.2
		c0-0.2,0.2-0.4,0.6-0.4c0.5,0,0.7,0.3,0.7,0.9c0,0.3-0.2,0.8-0.7,1.4l-2.1,2.9l2.2,1.4v4.3c-0.5,0.2-1,0.4-1.5,0.7
		c-0.1,0.1-0.3,0.2-0.5,0.3s-0.5,0.3-0.8,0.5c-0.8-0.4-1.6-0.6-2.4-0.6C160.1,99.5,159.3,99.6,158.5,100z M171.1,130.2l-5.9-1.7
		l2.7,3.9l-1.1,0.7l-4-5.8l0.9-0.6l5.9,1.7l-2.7-3.9l1.1-0.7l4,5.8L171.1,130.2z M178.2,123c-0.2,0.6-0.5,1.2-1,1.7
		c-0.5,0.5-1,0.9-1.7,1.1c-0.6,0.2-1.2,0.2-1.9,0.1c-0.6-0.1-1.2-0.4-1.7-0.9c-0.5-0.5-0.8-1-1-1.6c-0.2-0.6-0.2-1.2,0-1.9
		c0.2-0.6,0.5-1.2,1-1.7c0.5-0.5,1-0.9,1.7-1.1c0.6-0.2,1.2-0.2,1.9-0.1c0.6,0.1,1.2,0.4,1.7,0.9c0.5,0.5,0.8,1,1,1.6
		C178.3,121.8,178.3,122.4,178.2,123z M181.3,119.6l-5.7-4l0.7-1.1l5.7,4L181.3,119.6z M183.4,116.6l-1-0.5l1.1-2l-5.2-2.9l0.6-1.1
		l5.2,2.9l1.1-2l1,0.5L183.4,116.6z M188,107.6l-7.7,0.3l0.5-1.3l1.8,0l1.3-3.2l-1.2-1.3l0.5-1.2l5.3,5.6L188,107.6z M190.9,99.4
		c-0.1,0.6-0.4,1-0.7,1.4c-0.3,0.4-0.7,0.7-1.2,0.9l-0.5-1c0.7-0.3,1.1-0.9,1.3-1.6c0.1-0.5,0.1-0.9,0-1.3c-0.1-0.4-0.3-0.8-0.6-1.1
		c-0.3-0.3-0.7-0.5-1.1-0.6c-0.5-0.1-0.9-0.1-1.3,0c-0.4,0.1-0.8,0.3-1.1,0.6c-0.3,0.3-0.5,0.7-0.6,1.2c-0.2,0.7-0.1,1.4,0.3,2
		l-1,0.6c-0.3-0.4-0.5-0.9-0.5-1.4c-0.1-0.5,0-1,0.1-1.6c0.2-0.7,0.5-1.3,0.9-1.7c0.4-0.5,1-0.8,1.6-1c0.6-0.2,1.3-0.2,1.9,0
		c0.7,0.2,1.2,0.5,1.7,1c0.4,0.5,0.7,1,0.9,1.6C191.1,98,191.1,98.7,190.9,99.4z M193,88.3l-3.9-0.5c-1.4-0.2-2.1,0.3-2.3,1.5
		c-0.2,1.2,0.4,1.9,1.8,2l3.9,0.5l-0.2,1.3l-3.9-0.5c-1-0.1-1.7-0.5-2.2-1.1s-0.6-1.4-0.5-2.3c0.1-1,0.5-1.7,1.1-2.1
		c0.6-0.5,1.4-0.6,2.4-0.5l3.9,0.5L193,88.3z M193,82.4c-0.3,0.6-0.7,1-1.2,1.3c-0.5,0.3-1.2,0.5-1.8,0.5c-0.7,0-1.3-0.2-1.8-0.5
		c-0.5-0.3-0.9-0.8-1.2-1.4c-0.3-0.6-0.4-1.3-0.4-2l0-3.1l7,0.1l0,3.1C193.5,81.1,193.3,81.8,193,82.4z"/>
</g>
</svg>
