<?xml version="1.0" encoding="utf-8"?>
<!-- Generator: Adobe Illustrator 24.2.2, SVG Export Plug-In . SVG Version: 6.00 Build 0)  -->
<svg version="1.1" id="Layer_1" xmlns="http://www.w3.org/2000/svg" xmlns:xlink="http://www.w3.org/1999/xlink" x="0px" y="0px"
	 viewBox="0 0 296.4 157.6" style="enable-background:new 0 0 296.4 157.6;" xml:space="preserve">
<style type="text/css">
	.st0{fill:none;}
	.st1{fill:#FFFFFF;}
	.st2{enable-background:new    ;}
</style>
<rect class="st0" width="296.4" height="157.6"/>
<g id="Group_109" transform="translate(-337.574 -513.002)">
	<g id="Group_106" transform="translate(339.149 513.002)">
		<path id="Path_540" class="st1" d="M7,78.8c0.6,0.8,1.3,1.5,2,2.2c0.8,0.7,1.7,1.3,2.7,1.7c1,0.4,2.1,0.7,3.2,0.7
			c2,0,4-0.8,5.4-2.2c0.8-0.8,1.4-1.7,1.7-2.7c0.4-1.2,0.7-2.5,0.6-3.7c0.1-1.6-0.4-3.3-1.4-4.5c-1-1.1-2.2-2-3.5-2.6
			c-1.5-0.7-3-1.3-4.6-1.8c-1.6-0.5-3.2-1.2-4.6-2.2c-1.4-1-2.6-2.2-3.5-3.7c-1-1.9-1.5-4.1-1.4-6.3c0-2,0.3-3.9,0.9-5.8
			c0.5-1.7,1.4-3.2,2.6-4.5c1.2-1.3,2.6-2.3,4.2-3c1.8-0.8,3.8-1.1,5.7-1.1c1.7-0.1,3.5,0.3,5,1c1.4,0.6,2.7,1.2,3.9,1.7
			c-0.5,1.1-0.9,2.3-1.2,3.5c-0.3,1.1-0.5,2.2-0.7,3.3h-1c-0.5-1.6-1.3-3-2.5-4.1c-1.2-1.2-2.9-1.9-4.6-1.8c-0.8,0-1.7,0.2-2.4,0.5
			c-0.8,0.3-1.6,0.8-2.2,1.4c-0.7,0.7-1.3,1.6-1.6,2.5c-0.5,1.2-0.7,2.4-0.6,3.6c-0.1,1.7,0.4,3.4,1.4,4.7c1,1.1,2.2,2,3.5,2.6
			c1.5,0.7,3,1.2,4.6,1.7c1.6,0.5,3.2,1.1,4.6,2c1.4,0.9,2.6,2.1,3.5,3.6c1,1.9,1.5,4.1,1.4,6.3c0,3.8-1.4,7.5-3.9,10.3
			c-1.3,1.4-2.8,2.6-4.6,3.4c-1.9,0.8-4,1.2-6.1,1.2c-2.1,0.1-4.2-0.2-6.2-0.9c-1.5-0.5-2.9-1.2-4.2-2c0.4-1.1,0.7-2.2,1-3.4
			c0.3-1.2,0.5-2.4,0.5-3.6h1C6,77.5,6.5,78.2,7,78.8z"/>
		<path id="Path_541" class="st1" d="M30.2,63c-0.1-3.8,0.5-7.5,1.7-11.1c1-2.8,2.5-5.3,4.6-7.4c1.8-1.8,3.9-3.2,6.3-4.1
			c4.5-1.7,9.5-1.7,14,0c2.4,0.9,4.5,2.3,6.3,4.1c2,2.1,3.6,4.6,4.6,7.4c2.3,7.2,2.3,14.9,0,22.1c-1,2.8-2.5,5.3-4.6,7.4
			c-1.8,1.8-3.9,3.2-6.3,4c-4.5,1.5-9.5,1.5-14,0c-2.4-0.8-4.6-2.2-6.3-4c-2-2.1-3.6-4.6-4.6-7.4C30.7,70.5,30.1,66.8,30.2,63z
			 M37.3,63c0,2.6,0.2,5.2,0.6,7.8c0.3,2.3,1,4.6,2.1,6.7c0.9,1.8,2.2,3.4,3.9,4.6c3.7,2.3,8.3,2.3,12,0c1.7-1.2,3-2.8,3.9-4.6
			c1-2.1,1.7-4.3,2.1-6.7c0.8-5.1,0.8-10.4,0-15.5c-0.3-2.3-1-4.6-2.1-6.7c-0.9-1.8-2.2-3.4-3.9-4.6c-3.7-2.3-8.3-2.3-12,0
			c-1.7,1.2-3,2.8-3.9,4.6c-1,2.1-1.7,4.3-2.1,6.7C37.5,57.8,37.3,60.4,37.3,63L37.3,63z"/>
		<path id="Path_542" class="st1" d="M84.6,85.6c-2.5-7.5-5-15.1-7.5-22.6c-2.5-7.5-5.2-15.2-8.2-22.9c0.7,0.1,1.4,0.2,2,0.3
			c0.7,0.1,1.3,0.1,2,0.1c0.6,0,1.2,0,1.8-0.1c0.6-0.1,1.2-0.2,1.8-0.3c1.7,6.3,3.5,12.5,5.5,18.6c2,6.1,4.2,12.3,6.6,18.7
			c1.1-2.6,2.1-5.4,3.2-8.5c1.1-3,2.1-6.2,3.1-9.4c1.1-3.3,2.1-6.5,3.1-9.8c1-3.3,2-6.5,2.9-9.6c1.6,0.6,3.4,0.6,5,0
			c-2.9,7.7-5.8,15.4-8.6,22.9c-2.8,7.5-5.4,15.1-7.7,22.6c-0.8-0.1-1.7-0.2-2.5-0.2C86.3,85.4,85.5,85.5,84.6,85.6z"/>
		<path id="Path_543" class="st1" d="M105.4,64.3c0-7.9,1.6-14,4.7-18.5s7.7-6.7,13.8-6.7c2.6-0.1,5.1,0.5,7.4,1.6
			c2,1,3.8,2.4,5.2,4.2c1.4,1.8,2.5,3.9,3.1,6.2c0.7,2.5,1,5,1,7.6c0,0.6,0,1.3,0,1.9c0,0.6-0.1,1.2-0.1,1.9
			c-2.9-0.1-5.8-0.1-8.6-0.2c-2.9-0.1-5.7-0.1-8.6-0.1c-1.8,0-3.5,0-5.3,0.1c-1.7,0.1-3.5,0.1-5.3,0.2c-0.1,0.5-0.1,1-0.1,1.4v1.2
			c0,2.4,0.3,4.7,0.9,7c0.5,2,1.5,3.9,2.7,5.6c1.2,1.5,2.7,2.8,4.4,3.7c1.8,1,3.9,1.4,6,1.4c1.1,0,2.2-0.2,3.3-0.5
			c1.2-0.4,2.3-0.8,3.3-1.4c1.1-0.6,2.1-1.3,3-2.2c0.9-0.8,1.7-1.7,2.5-2.7l0.4,0.3l-0.5,4.7c-1.8,1.6-3.8,3-6,3.9
			c-2.3,1.1-4.9,1.6-7.5,1.6c-2.7,0-5.4-0.5-8-1.6c-2.4-1-4.5-2.6-6.2-4.6c-1.8-2.1-3.2-4.5-4-7.1C105.9,70.4,105.4,67.4,105.4,64.3
			z M124.1,42.2c-1.8-0.1-3.6,0.5-5,1.6c-1.4,1.1-2.5,2.5-3.4,4.1c-0.9,1.7-1.6,3.5-2,5.4c-0.4,1.8-0.7,3.7-0.8,5.5
			c1.7,0.1,3.4,0.1,5.2,0.2c1.8,0.1,3.6,0.1,5.3,0.1c1.8,0,3.6,0,5.4-0.1s3.6-0.1,5.3-0.2c0-1.8-0.1-3.6-0.4-5.5
			c-0.2-1.8-0.7-3.7-1.5-5.4c-0.7-1.6-1.7-3-3-4.1C127.7,42.7,125.9,42.1,124.1,42.2z"/>
		<path id="Path_544" class="st1" d="M162,46.9c-0.8-0.3-1.6-0.5-2.4-0.5c-1.2,0-2.5,0.4-3.5,1.1c-1.1,0.7-1.9,1.7-2.6,2.8
			c-0.8,1.3-1.3,2.7-1.6,4.2c-0.4,1.7-0.6,3.5-0.6,5.2v10.5c0,4.3,0,7.6,0,9.8s0.1,4.1,0.3,5.5c-1.1-0.1-2.2-0.2-3.2-0.2
			c-1.1,0-2.3,0.1-3.4,0.2c0.2-2.2,0.3-5.1,0.3-8.9c0-3.7,0-8.3,0-13.7v-3.1c0-2.5,0-5.4,0-8.6s-0.1-7-0.3-11.2
			c0.6,0.1,1.2,0.2,1.7,0.3c0.6,0.1,1.1,0.1,1.7,0.1c0.5,0,1-0.1,1.5-0.1c0.5-0.1,1.1-0.2,1.7-0.3c-0.2,2.3-0.3,4.1-0.4,5.5
			c0,1.3,0,2.6,0,3.8l0.2,0.1c3.2-6.9,6.7-10.3,10.7-10.3c0.4,0,0.8,0,1.3,0.1c0.5,0.1,0.9,0.3,1.3,0.5c-0.3,1.1-0.5,2.3-0.5,3.5
			c-0.1,1.6-0.1,3-0.1,4.3l-0.6,0.5C163.2,47.5,162.6,47.1,162,46.9z"/>
		<path id="Path_545" class="st1" d="M164.6,64.3c0-7.9,1.6-14,4.7-18.5s7.7-6.7,13.8-6.7c2.6-0.1,5.1,0.5,7.4,1.6
			c2,1,3.8,2.4,5.2,4.2c1.4,1.8,2.5,3.9,3.1,6.2c0.7,2.5,1,5,1,7.6c0,0.6,0,1.3,0,1.9c0,0.6-0.1,1.2-0.1,1.9
			c-2.9-0.1-5.8-0.1-8.6-0.2c-2.9-0.1-5.7-0.1-8.6-0.1c-1.8,0-3.5,0-5.3,0.1c-1.7,0.1-3.5,0.1-5.3,0.2c-0.1,0.5-0.1,1-0.1,1.4v1.2
			c0,2.4,0.3,4.7,0.9,7c0.5,2,1.5,3.9,2.7,5.6c1.2,1.5,2.7,2.8,4.4,3.7c1.8,1,3.9,1.4,6,1.4c1.1,0,2.2-0.2,3.3-0.5
			c1.2-0.4,2.3-0.8,3.3-1.4c1.1-0.6,2.1-1.3,3-2.2c0.9-0.8,1.7-1.7,2.5-2.7l0.4,0.3l-0.5,4.7c-1.8,1.6-3.8,3-6,3.9
			c-2.3,1.1-4.9,1.6-7.5,1.6c-2.7,0-5.4-0.5-8-1.6c-2.4-1-4.5-2.6-6.2-4.6c-1.8-2.1-3.2-4.5-4-7.1C165.1,70.4,164.6,67.4,164.6,64.3
			z M183.3,42.2c-1.8-0.1-3.6,0.5-5,1.6c-1.4,1.1-2.6,2.5-3.4,4.1c-0.9,1.7-1.6,3.5-2,5.4c-0.4,1.8-0.7,3.7-0.9,5.5
			c1.7,0.1,3.4,0.1,5.2,0.2c1.8,0.1,3.6,0.1,5.3,0.1c1.8,0,3.6,0,5.4-0.1c1.8-0.1,3.6-0.1,5.3-0.2c0-1.8-0.1-3.6-0.4-5.5
			c-0.2-1.8-0.7-3.7-1.5-5.4c-0.7-1.6-1.7-3-3-4.1C186.9,42.7,185.1,42.1,183.3,42.2L183.3,42.2z"/>
		<path id="Path_546" class="st1" d="M205.2,23.4c0-1.3,0.4-2.5,1.2-3.4c1.2-1.6,3.5-1.9,5.1-0.7c0.3,0.2,0.5,0.4,0.7,0.7
			c1.6,2,1.6,4.9,0,6.9c-1.2,1.6-3.5,1.9-5.1,0.7c-0.3-0.2-0.5-0.4-0.7-0.7C205.6,25.9,205.2,24.7,205.2,23.4z M206.4,58
			c0-2.9,0-5.9-0.1-9.1c-0.1-3.2-0.3-6.1-0.5-8.9c2.4,0.6,4.9,0.6,7.3,0c-0.3,2.7-0.4,5.7-0.5,8.9s-0.1,6.2-0.1,9.1v10
			c0,2.9,0,5.9,0.1,9.1c0.1,3.2,0.3,6,0.5,8.6c-2.4-0.3-4.9-0.3-7.3,0c0.3-2.6,0.4-5.4,0.5-8.6c0.1-3.2,0.1-6.2,0.1-9.1V58z"/>
		<path id="Path_547" class="st1" d="M249,95.8c0-3.8-0.9-6.5-2.8-8c-1.9-1.5-5-2.4-9.4-2.3c-6.9,0.2-9.2-0.7-9.2-0.7
			c-1.6-0.5-2.9-1.5-3.8-2.9c-0.9-1.4-1.3-3.1-1.3-4.8c0-1,0.2-2,0.5-3c0.3-0.9,0.8-1.7,1.3-2.4c0.5-0.7,1.1-1.3,1.9-1.7
			c0.6-0.4,1.3-0.7,2-0.9v-0.2c-2.4-1.2-4.4-3.1-5.8-5.4c-1.5-2.7-2.2-5.7-2.1-8.8c-0.1-2.4,0.4-4.7,1.2-6.9
			c0.7-1.8,1.9-3.5,3.3-4.8c1.4-1.3,3.1-2.3,4.9-2.9c1.9-0.6,3.9-1,5.9-1c1,0,2,0,2.9,0.1c0.9,0.1,2.1,0.2,3.6,0.3
			c1.2,0.1,2.3,0.2,3.3,0.3c1,0.1,1.7,0.1,2.3,0.1c2.2,0.1,4.4-0.1,6.5-0.5c-0.1,0.3-0.1,0.7-0.1,1s0,0.7,0,1s0,0.7,0,1
			s0.1,0.7,0.1,1c-1.6-0.1-3.1-0.3-4.6-0.4s-2.9-0.3-4.4-0.3l-0.2,0.2c1.8,1.3,3.2,3,4,5c1,2.2,1.5,4.6,1.5,7
			c0,4.8-1.4,8.5-4.1,11.3c-2.7,2.7-6.4,4.1-10.9,4.1c-0.8,0-1.5,0-2.2-0.1c-0.7-0.1-1.5-0.1-2.2-0.1c-1,0-2,0.5-2.7,1.2
			c-0.8,0.8-1.3,2-1.3,3.2c-0.1,1.3,0.2,2.6,1,3.6c0.7,0.8,1.9,1.2,3.8,1.2c1.5,0.1,3,0.1,4.4,0.1c1.5,0,2.9,0.1,4.4,0.1
			c2.2,0,4.3,0.4,6.3,1.1c1.6,0.5,3.1,1.4,4.3,2.6c1.1,1,1.9,2.3,2.4,3.7c0.5,1.5,0.8,3,0.8,4.6c0,2.3-0.4,4.6-1.1,6.8
			c0,0-4.5,14.7-45.5,14.7S127.8,93.6,77.1,94.7S9.7,108.5,9.7,108.5S31,93,78.6,91.3s92.5,17.4,129.9,17.1S249,95.8,249,95.8z
			 M231.4,107.6l13.3-53.3c0-4-0.8-7.1-2.4-9.2c-1.5-2-3.9-3.2-6.4-3.2c-2.7-0.1-5.3,1.2-6.8,3.5c-1.6,2.3-2.4,5.4-2.4,9.3
			c0,4,0.7,7.2,2.2,9.5c1.5,2.3,4.1,3.7,6.9,3.5c1.4,0,2.8-0.3,4-1.1c1.1-0.8,2.1-1.8,2.7-3c0.8-1.3,1.3-2.8,1.6-4.3
			c0.4-1.7,0.5-3.4,0.5-5.1L231.4,107.6z"/>
		<path id="Path_548" class="st1" d="M283,47.8c-1.3-2.3-3.8-3.7-6.5-3.7c-3.8,0-6.5,1.4-8.3,4.1s-2.6,6.6-2.6,11.6V68
			c0,2.9,0,5.9,0.1,9.1c0.1,3.2,0.3,6,0.5,8.6c-2.4-0.3-4.9-0.3-7.3,0c0.3-2.6,0.4-5.4,0.5-8.6c0.1-3.2,0.1-6.2,0.1-9.1V58
			c0-2.9,0-5.9-0.1-9.1s-0.3-6.1-0.5-8.9c1.2,0.3,2.4,0.4,3.6,0.5c0.5,0,0.9-0.1,1.4-0.1c0.5-0.1,1.1-0.2,1.8-0.3
			c-0.2,2.6-0.2,5.1-0.2,7.7h0.2c1.3-2.5,3.1-4.7,5.4-6.4c2.2-1.5,4.8-2.3,7.5-2.3c1.6,0,3.1,0.3,4.6,0.8c1.6,0.5,3,1.4,4.2,2.6
			c1.4,1.5,2.4,3.2,3,5.1c0.9,2.6,1.3,5.4,1.2,8.2c0,2.7-0.1,5.6-0.2,8.5c-0.1,2.9-0.2,6-0.2,9.2v6.2c0,1,0,2,0,3s0.1,1.9,0.1,2.8
			c-1.1-0.1-2.3-0.2-3.4-0.2c-1.1,0-2.2,0.1-3.3,0.2c0.1-3.3,0.2-6.7,0.4-10.2c0.1-3.5,0.2-7.1,0.2-10.8v-5.8
			C285.3,53.9,284.6,50.3,283,47.8z"/>
	</g>
	<g class="st2">
		<path class="st1" d="M342.4,645.9c0.2,0.2,0.3,0.4,0.6,0.6c0.2,0.2,0.5,0.3,0.8,0.4c0.3,0.1,0.6,0.2,1,0.2c0.4,0,0.7-0.1,1-0.2
			c0.3-0.1,0.6-0.3,0.8-0.5c0.2-0.2,0.4-0.5,0.5-0.8c0.1-0.3,0.2-0.6,0.2-1c0-0.5-0.1-0.9-0.4-1.2c-0.3-0.3-0.6-0.6-1-0.8
			c-0.4-0.2-0.8-0.4-1.3-0.6c-0.5-0.2-0.9-0.4-1.3-0.6c-0.4-0.3-0.7-0.6-1-1c-0.3-0.4-0.4-0.9-0.4-1.6c0-0.5,0.1-0.9,0.3-1.3
			c0.2-0.4,0.4-0.7,0.7-1c0.3-0.3,0.7-0.5,1.2-0.7c0.5-0.2,1-0.2,1.5-0.2c0.5,0,1,0.1,1.4,0.2c0.4,0.1,0.8,0.3,1.1,0.6
			c-0.1,0.2-0.2,0.4-0.3,0.6c-0.1,0.2-0.1,0.5-0.2,0.8h-0.2c-0.1-0.2-0.1-0.3-0.2-0.5c-0.1-0.2-0.2-0.4-0.4-0.5
			c-0.2-0.2-0.4-0.3-0.6-0.4c-0.2-0.1-0.5-0.2-0.8-0.2c-0.3,0-0.6,0.1-0.9,0.2c-0.3,0.1-0.5,0.2-0.7,0.4c-0.2,0.2-0.4,0.4-0.5,0.7
			c-0.1,0.3-0.2,0.5-0.2,0.8c0,0.5,0.1,1,0.4,1.3c0.3,0.3,0.6,0.6,1,0.8c0.4,0.2,0.8,0.4,1.3,0.6s0.9,0.4,1.3,0.6
			c0.4,0.2,0.7,0.5,1,0.9c0.3,0.4,0.4,0.9,0.4,1.5c0,0.5-0.1,1-0.3,1.5s-0.5,0.9-0.8,1.2s-0.8,0.6-1.3,0.8c-0.5,0.2-1.1,0.3-1.8,0.3
			c-0.7,0-1.3-0.1-1.7-0.3c-0.4-0.2-0.8-0.4-1.1-0.6c0.1-0.3,0.2-0.5,0.2-0.7c0-0.2,0.1-0.5,0.1-0.8h0.2
			C342.2,645.5,342.3,645.7,342.4,645.9z"/>
		<path class="st1" d="M367.4,638.1c0-0.7-0.1-1.5-0.1-2.2c0.1,0,0.3,0,0.4,0.1c0.1,0,0.3,0,0.4,0c0.1,0,0.3,0,0.4,0
			c0.1,0,0.3,0,0.4-0.1c0,0.7-0.1,1.5-0.1,2.2s0,1.5,0,2.2v2.9c0,0.7,0,1.5,0,2.2c0,0.7,0.1,1.4,0.1,2.1c-0.3,0-0.5,0-0.8,0
			c-0.3,0-0.6,0-0.8,0c0-0.7,0.1-1.4,0.1-2.1c0-0.7,0-1.5,0-2.2v-1.5c-0.6,0-1.2,0-1.8,0c-0.6,0-1.2,0-1.8,0c-0.6,0-1.2,0-1.8,0
			s-1.2,0-1.8,0v1.5c0,0.7,0,1.5,0,2.2c0,0.7,0.1,1.4,0.1,2.1c-0.3,0-0.5,0-0.8,0c-0.3,0-0.6,0-0.8,0c0-0.7,0.1-1.4,0.1-2.1
			c0-0.7,0-1.5,0-2.2v-2.9c0-0.7,0-1.5,0-2.2s-0.1-1.5-0.1-2.2c0.1,0,0.3,0,0.4,0.1c0.1,0,0.3,0,0.4,0c0.1,0,0.3,0,0.4,0
			c0.1,0,0.3,0,0.4-0.1c0,0.7-0.1,1.5-0.1,2.2s0,1.5,0,2.2v0.6c0.6,0,1.2,0,1.8,0c0.6,0,1.2,0,1.8,0c0.6,0,1.2,0,1.8,0
			c0.6,0,1.2,0,1.8,0v-0.6C367.5,639.5,367.4,638.8,367.4,638.1z"/>
		<path class="st1" d="M379.2,641.7c0-1,0.2-1.8,0.5-2.6c0.3-0.8,0.7-1.4,1.3-1.9c0.6-0.5,1.2-0.9,2-1.2c0.8-0.3,1.6-0.4,2.6-0.4
			c0.9,0,1.8,0.1,2.6,0.4c0.8,0.3,1.5,0.7,2,1.2s1,1.2,1.3,1.9c0.3,0.8,0.5,1.6,0.5,2.6c0,1-0.2,1.8-0.5,2.6
			c-0.3,0.8-0.7,1.4-1.3,1.9s-1.2,0.9-2,1.2c-0.8,0.3-1.6,0.4-2.6,0.4c-0.9,0-1.8-0.1-2.6-0.4c-0.8-0.3-1.5-0.6-2-1.2
			c-0.6-0.5-1-1.2-1.3-1.9C379.4,643.5,379.2,642.7,379.2,641.7z M390.3,641.7c0-0.9-0.1-1.8-0.4-2.4c-0.2-0.7-0.6-1.3-1-1.7
			c-0.4-0.4-0.9-0.8-1.5-1c-0.6-0.2-1.2-0.3-1.9-0.3c-0.7,0-1.3,0.1-1.8,0.3c-0.6,0.2-1.1,0.5-1.5,1c-0.4,0.4-0.8,1-1,1.7
			c-0.2,0.7-0.4,1.5-0.4,2.4c0,0.9,0.1,1.8,0.4,2.4c0.2,0.7,0.6,1.3,1,1.7c0.4,0.4,0.9,0.8,1.5,1c0.6,0.2,1.2,0.3,1.8,0.3
			c0.7,0,1.3-0.1,1.9-0.3c0.6-0.2,1.1-0.5,1.5-1c0.4-0.4,0.8-1,1-1.7C390.2,643.5,390.3,642.7,390.3,641.7z"/>
		<path class="st1" d="M402.4,640.3c0-0.7,0-1.5,0-2.2s-0.1-1.5-0.1-2.2c0.3,0,0.5,0,0.8,0.1c0.3,0,0.6,0,0.8,0c0.1,0,0.3,0,0.5,0
			c0.2,0,0.4,0,0.6,0s0.4,0,0.6,0c0.2,0,0.3,0,0.5,0c0.2,0,0.4,0,0.6,0c0.2,0,0.5,0,0.8,0.1c0.3,0.1,0.6,0.1,0.8,0.3
			c0.3,0.1,0.5,0.3,0.7,0.5c0.2,0.2,0.4,0.5,0.5,0.8c0.1,0.3,0.2,0.7,0.2,1.2c0,0.7-0.2,1.4-0.5,1.8c-0.3,0.5-0.7,0.8-1.2,1.1
			s-1,0.4-1.5,0.5c-0.5,0.1-1,0.1-1.4,0.1c-0.3,0-0.5,0-0.7,0c-0.2,0-0.4,0-0.7,0v0.9c0,0.7,0,1.5,0,2.2c0,0.7,0.1,1.4,0.1,2.1
			c-0.3,0-0.5,0-0.8,0c-0.3,0-0.6,0-0.8,0c0-0.7,0.1-1.4,0.1-2.1c0-0.7,0-1.5,0-2.2V640.3z M403.8,641.5c0.4,0.1,0.8,0.1,1.2,0.1
			c0.4,0,0.7,0,1.1-0.1c0.4-0.1,0.7-0.2,1-0.4c0.3-0.2,0.6-0.5,0.8-0.9c0.2-0.4,0.3-0.8,0.3-1.4c0-0.5-0.1-0.9-0.2-1.2
			c-0.1-0.3-0.3-0.5-0.6-0.7s-0.5-0.3-0.9-0.3c-0.4-0.1-0.7-0.1-1.2-0.1h-1.5V641.5z"/>
		<path class="st1" d="M419.8,640.3c0-0.7,0-1.5,0-2.2s-0.1-1.5-0.1-2.2c0.3,0,0.5,0,0.8,0.1c0.3,0,0.6,0,0.8,0c0.1,0,0.3,0,0.5,0
			c0.2,0,0.4,0,0.6,0s0.4,0,0.6,0c0.2,0,0.3,0,0.5,0c0.2,0,0.4,0,0.6,0c0.2,0,0.5,0,0.8,0.1c0.3,0.1,0.6,0.1,0.8,0.3
			c0.3,0.1,0.5,0.3,0.7,0.5c0.2,0.2,0.4,0.5,0.5,0.8c0.1,0.3,0.2,0.7,0.2,1.2c0,0.7-0.2,1.4-0.5,1.8c-0.3,0.5-0.7,0.8-1.2,1.1
			s-1,0.4-1.5,0.5c-0.5,0.1-1,0.1-1.4,0.1c-0.3,0-0.5,0-0.7,0c-0.2,0-0.4,0-0.7,0v0.9c0,0.7,0,1.5,0,2.2c0,0.7,0.1,1.4,0.1,2.1
			c-0.3,0-0.5,0-0.8,0c-0.3,0-0.6,0-0.8,0c0-0.7,0.1-1.4,0.1-2.1c0-0.7,0-1.5,0-2.2V640.3z M421.2,641.5c0.4,0.1,0.8,0.1,1.2,0.1
			c0.4,0,0.7,0,1.1-0.1c0.4-0.1,0.7-0.2,1-0.4c0.3-0.2,0.6-0.5,0.8-0.9c0.2-0.4,0.3-0.8,0.3-1.4c0-0.5-0.1-0.9-0.2-1.2
			c-0.1-0.3-0.3-0.5-0.6-0.7s-0.5-0.3-0.9-0.3c-0.4-0.1-0.7-0.1-1.2-0.1h-1.5V641.5z"/>
		<path class="st1" d="M437.2,638.1c0-0.7-0.1-1.5-0.1-2.2c0.1,0,0.3,0,0.4,0.1c0.1,0,0.3,0,0.4,0c0.1,0,0.3,0,0.4,0
			c0.1,0,0.3,0,0.4-0.1c0,0.7-0.1,1.5-0.1,2.2s0,1.5,0,2.2v2.9c0,0.7,0,1.5,0,2.2c0,0.7,0.1,1.4,0.1,2.1c-0.3,0-0.5,0-0.8,0
			c-0.3,0-0.6,0-0.8,0c0-0.7,0.1-1.4,0.1-2.1c0-0.7,0-1.5,0-2.2v-2.9C437.3,639.5,437.3,638.8,437.2,638.1z"/>
		<path class="st1" d="M455.4,643.1c-1.5-1.6-2.9-3.2-4.4-4.7c0,0.3,0,0.7,0,1.3c0,0.5,0,1.3,0,2.2c0,0.2,0,0.5,0,0.9s0,0.7,0,1.1
			c0,0.4,0,0.8,0,1.2c0,0.4,0,0.8,0,1.1c0,0.3,0,0.6,0,0.9c0,0.3,0,0.4,0,0.5c-0.2,0-0.4,0-0.6,0c-0.2,0-0.4,0-0.6,0
			c0-0.1,0-0.3,0.1-0.6c0-0.3,0.1-0.7,0.1-1.1s0-0.9,0.1-1.4c0-0.5,0.1-1,0.1-1.5c0-0.5,0-1,0-1.5c0-0.5,0-0.9,0-1.3
			c0-1.1,0-2,0-2.8s0-1.4,0-1.8h0.3c0.7,0.7,1.4,1.5,2.2,2.4c0.8,0.9,1.6,1.7,2.3,2.5s1.5,1.6,2.2,2.4c0.7,0.7,1.3,1.4,1.8,1.9v-2.3
			c0-1.2,0-2.3,0-3.5c0-1.1-0.1-2.2-0.1-3.2c0.2,0.1,0.4,0.1,0.6,0.1c0.1,0,0.3,0,0.5-0.1c0,0.2,0,0.6-0.1,1.1c0,0.5-0.1,1-0.1,1.6
			s-0.1,1.1-0.1,1.7c0,0.5,0,1,0,1.3c0,0.3,0,0.6,0,1c0,0.4,0,0.8,0,1.2c0,0.4,0,0.8,0,1.3c0,0.4,0,0.8,0,1.2s0,0.7,0,1
			c0,0.2,0,0.4,0,0.6h-0.2C458.3,646.3,456.9,644.7,455.4,643.1z"/>
		<path class="st1" d="M480.3,637.3c-0.3-0.2-0.5-0.4-0.8-0.5c-0.3-0.2-0.7-0.3-1-0.4c-0.4-0.1-0.8-0.1-1.2-0.1
			c-0.7,0-1.4,0.1-2,0.3c-0.6,0.2-1.1,0.5-1.6,1c-0.4,0.4-0.8,1-1.1,1.7c-0.3,0.7-0.4,1.5-0.4,2.4c0,0.8,0.1,1.6,0.3,2.2
			c0.2,0.7,0.6,1.2,1,1.7s1,0.8,1.6,1.1c0.6,0.2,1.3,0.4,2.1,0.4c0.2,0,0.5,0,0.7,0c0.3,0,0.5-0.1,0.8-0.1c0.2,0,0.5-0.1,0.7-0.2
			c0.2-0.1,0.4-0.1,0.5-0.2c0-0.3,0-0.7,0-1c0-0.3,0-0.7,0-1c0-0.4,0-0.8,0-1.2c0-0.4,0-0.8-0.1-1.1c0.3,0.1,0.6,0.1,0.8,0.1
			c0.1,0,0.2,0,0.4,0c0.1,0,0.2,0,0.4-0.1c0,0.3,0,0.7-0.1,1.2c0,0.6,0,1.3,0,2.2c0,0.2,0,0.5,0,0.7c0,0.2,0,0.5,0,0.7
			c-0.2,0.1-0.5,0.2-0.9,0.3c-0.4,0.1-0.7,0.2-1.1,0.2c-0.4,0.1-0.8,0.1-1.2,0.2s-0.8,0.1-1.1,0.1c-1,0-1.9-0.1-2.7-0.4
			c-0.8-0.2-1.5-0.6-2.1-1.1s-1-1.1-1.3-1.9c-0.3-0.8-0.5-1.6-0.5-2.6c0-1,0.2-1.8,0.5-2.6s0.8-1.4,1.3-1.9c0.6-0.5,1.3-0.9,2.1-1.2
			c0.8-0.3,1.7-0.4,2.7-0.4c0.6,0,1.1,0,1.5,0.1c0.4,0.1,0.8,0.1,1.2,0.2c0.3,0.1,0.6,0.2,0.9,0.3c0.3,0.1,0.5,0.2,0.7,0.3
			c-0.1,0.2-0.2,0.4-0.2,0.6c-0.1,0.2-0.1,0.5-0.1,0.7H481C480.8,637.7,480.6,637.5,480.3,637.3z"/>
		<path class="st1" d="M513.5,647.1c-0.2,0.1-0.5,0.2-0.8,0.3s-0.7,0.2-1,0.2c-0.4,0.1-0.8,0.1-1.2,0.1c-0.9,0-1.7-0.1-2.5-0.4
			c-0.8-0.3-1.4-0.6-2-1.2s-1-1.2-1.3-1.9s-0.5-1.6-0.5-2.6c0-1,0.2-1.8,0.5-2.6s0.7-1.4,1.3-1.9c0.6-0.5,1.2-0.9,2-1.2
			c0.8-0.3,1.6-0.4,2.6-0.4c0.7,0,1.4,0.1,2,0.2c0.6,0.2,1.2,0.3,1.6,0.6c-0.1,0.2-0.2,0.4-0.2,0.6c-0.1,0.3-0.1,0.5-0.1,0.7l-0.1,0
			c-0.1-0.1-0.3-0.3-0.5-0.5c-0.2-0.2-0.4-0.3-0.7-0.5c-0.3-0.2-0.6-0.3-0.9-0.4s-0.7-0.2-1.1-0.2c-0.7,0-1.3,0.1-1.9,0.3
			c-0.6,0.2-1.1,0.5-1.5,1c-0.4,0.4-0.8,1-1,1.7c-0.2,0.7-0.4,1.5-0.4,2.4c0,0.9,0.1,1.8,0.4,2.4c0.2,0.7,0.6,1.3,1,1.7
			c0.4,0.4,0.9,0.8,1.5,1c0.6,0.2,1.2,0.3,1.9,0.3c0.4,0,0.8-0.1,1.1-0.2c0.3-0.1,0.7-0.2,1-0.4c0.3-0.1,0.5-0.3,0.8-0.5
			c0.2-0.2,0.4-0.3,0.6-0.4l0.1,0.1l-0.2,1C513.9,646.9,513.7,647,513.5,647.1z"/>
		<path class="st1" d="M524.5,638c0-0.7-0.1-1.5-0.1-2.2c0.5,0,1,0,1.5,0.1c0.5,0,1,0,1.5,0s1,0,1.5,0c0.5,0,1,0,1.5-0.1
			c0,0.2-0.1,0.3-0.1,0.5s0,0.3,0.1,0.5c-0.4,0-0.7,0-1-0.1c-0.3,0-0.6,0-1-0.1c-0.3,0-0.7,0-1.1-0.1c-0.4,0-0.9,0-1.4,0
			c0,0.4,0,0.7,0,1c0,0.3,0,0.7,0,1.1c0,0.4,0,0.9,0,1.3c0,0.4,0,0.7,0,1c0.5,0,0.9,0,1.3,0c0.4,0,0.8,0,1.1,0c0.3,0,0.6,0,0.9-0.1
			c0.3,0,0.5,0,0.8-0.1c0,0.2-0.1,0.3-0.1,0.5c0,0.2,0,0.3,0.1,0.5c-0.3,0-0.6-0.1-1-0.1c-0.4,0-0.8,0-1.2,0s-0.8,0-1.1,0
			s-0.6,0-0.8,0c0,0.1,0,0.2,0,0.3s0,0.3,0,0.5v0.7v1c0,0.6,0,1.2,0,1.6c0,0.4,0,0.7,0,1c0.4,0,0.8,0,1.2,0c0.4,0,0.9,0,1.3,0
			c0.4,0,0.8,0,1.2-0.1s0.7-0.1,1-0.1c0,0.1,0,0.2,0,0.3c0,0.1,0,0.2,0,0.3c0,0.2,0,0.3,0.1,0.4c-0.5,0-1,0-1.5,0c-0.5,0-1,0-1.5,0
			s-1,0-1.5,0s-1,0-1.5,0c0-0.7,0.1-1.4,0.1-2.2s0-1.5,0-2.2v-2.9C524.6,639.5,524.5,638.8,524.5,638z"/>
		<path class="st1" d="M546.5,643.1c-1.5-1.6-2.9-3.2-4.4-4.7c0,0.3,0,0.7,0,1.3c0,0.5,0,1.3,0,2.2c0,0.2,0,0.5,0,0.9s0,0.7,0,1.1
			c0,0.4,0,0.8,0,1.2c0,0.4,0,0.8,0,1.1c0,0.3,0,0.6,0,0.9c0,0.3,0,0.4,0,0.5c-0.2,0-0.4,0-0.6,0c-0.2,0-0.4,0-0.6,0
			c0-0.1,0-0.3,0.1-0.6c0-0.3,0.1-0.7,0.1-1.1s0-0.9,0.1-1.4c0-0.5,0.1-1,0.1-1.5c0-0.5,0-1,0-1.5c0-0.5,0-0.9,0-1.3
			c0-1.1,0-2,0-2.8s0-1.4,0-1.8h0.3c0.7,0.7,1.4,1.5,2.2,2.4c0.8,0.9,1.6,1.7,2.3,2.5s1.5,1.6,2.2,2.4c0.7,0.7,1.3,1.4,1.8,1.9v-2.3
			c0-1.2,0-2.3,0-3.5c0-1.1-0.1-2.2-0.1-3.2c0.2,0.1,0.4,0.1,0.6,0.1c0.1,0,0.3,0,0.5-0.1c0,0.2,0,0.6-0.1,1.1c0,0.5-0.1,1-0.1,1.6
			s-0.1,1.1-0.1,1.7c0,0.5,0,1,0,1.3c0,0.3,0,0.6,0,1c0,0.4,0,0.8,0,1.2c0,0.4,0,0.8,0,1.3c0,0.4,0,0.8,0,1.2s0,0.7,0,1
			c0,0.2,0,0.4,0,0.6h-0.2C549.3,646.3,547.9,644.7,546.5,643.1z"/>
		<path class="st1" d="M564.6,636.7c-0.3,0-0.6,0-0.9,0c-0.3,0-0.6,0-1,0c-0.3,0-0.6,0-0.9,0.1c-0.3,0-0.6,0.1-0.8,0.1
			c0.1-0.2,0.1-0.4,0.1-0.5c0-0.1,0-0.3-0.1-0.5c0.7,0,1.5,0,2.2,0.1c0.7,0,1.4,0,2.2,0s1.5,0,2.2,0c0.7,0,1.4,0,2.2-0.1
			c-0.1,0.2-0.1,0.4-0.1,0.5c0,0.1,0,0.3,0.1,0.5c-0.2,0-0.5-0.1-0.8-0.1c-0.3,0-0.6,0-0.9-0.1c-0.3,0-0.6,0-1,0c-0.3,0-0.6,0-0.9,0
			c0,1.2-0.1,2.3-0.1,3.5v2.9c0,0.7,0,1.5,0,2.2c0,0.7,0.1,1.4,0.1,2.1c-0.3,0-0.5,0-0.8,0c-0.3,0-0.6,0-0.8,0
			c0-0.7,0.1-1.4,0.1-2.1c0-0.7,0-1.5,0-2.2v-2.9C564.7,639.1,564.6,637.9,564.6,636.7z"/>
		<path class="st1" d="M579.8,640.3c0-0.7,0-1.5,0-2.2s-0.1-1.5-0.1-2.2c0.3,0,0.7,0,1,0.1c0.3,0,0.6,0,1,0c0.3,0,0.7,0,1,0
			s0.6,0,1,0c0.5,0,0.9,0,1.4,0.1c0.4,0.1,0.8,0.2,1.1,0.5c0.3,0.2,0.6,0.5,0.8,0.8c0.2,0.3,0.3,0.8,0.3,1.3c0,0.5-0.1,1-0.4,1.4
			c-0.2,0.4-0.5,0.7-0.9,1c-0.4,0.3-0.7,0.5-1.1,0.6s-0.8,0.2-1.1,0.3c0.1,0.2,0.3,0.4,0.6,0.7c0.2,0.3,0.5,0.6,0.8,1
			s0.6,0.8,0.9,1.2s0.6,0.8,0.9,1.2c0.3,0.4,0.6,0.7,0.8,1s0.5,0.5,0.6,0.7c-0.2,0-0.3,0-0.5,0s-0.3,0-0.5,0c-0.2,0-0.3,0-0.5,0
			s-0.3,0-0.5,0c-0.2-0.2-0.4-0.6-0.8-1.1c-0.3-0.5-0.7-1-1.1-1.5c-0.4-0.5-0.8-1.1-1.3-1.6c-0.4-0.5-0.8-1-1.2-1.4h-0.6v1.2
			c0,0.7,0,1.5,0,2.2c0,0.7,0.1,1.4,0.1,2.1c-0.3,0-0.5,0-0.8,0s-0.6,0-0.8,0c0-0.7,0.1-1.4,0.1-2.1c0-0.7,0-1.5,0-2.2V640.3z
			 M581.1,641.2c0.2,0,0.3,0.1,0.5,0.1c0.2,0,0.4,0,0.6,0c0.4,0,0.7,0,1.1-0.1s0.7-0.2,1-0.4s0.6-0.5,0.8-0.8s0.3-0.8,0.3-1.3
			c0-0.4-0.1-0.8-0.2-1.1c-0.2-0.3-0.4-0.5-0.6-0.7s-0.5-0.3-0.9-0.3c-0.3-0.1-0.6-0.1-0.9-0.1c-0.4,0-0.7,0-1,0
			c-0.3,0-0.5,0-0.7,0.1c0,0.6,0,1.2-0.1,1.9c0,0.6,0,1.2,0,1.8V641.2z"/>
		<path class="st1" d="M598.1,638c0-0.7-0.1-1.5-0.1-2.2c0.5,0,1,0,1.5,0.1c0.5,0,1,0,1.5,0c0.5,0,1,0,1.5,0c0.5,0,1,0,1.5-0.1
			c0,0.2-0.1,0.3-0.1,0.5s0,0.3,0.1,0.5c-0.4,0-0.7,0-1-0.1c-0.3,0-0.6,0-1-0.1c-0.3,0-0.7,0-1.1-0.1c-0.4,0-0.9,0-1.4,0
			c0,0.4,0,0.7,0,1c0,0.3,0,0.7,0,1.1c0,0.4,0,0.9,0,1.3c0,0.4,0,0.7,0,1c0.5,0,0.9,0,1.3,0c0.4,0,0.8,0,1.1,0c0.3,0,0.6,0,0.9-0.1
			c0.3,0,0.5,0,0.8-0.1c0,0.2-0.1,0.3-0.1,0.5c0,0.2,0,0.3,0.1,0.5c-0.3,0-0.6-0.1-1-0.1c-0.4,0-0.8,0-1.2,0c-0.4,0-0.8,0-1.1,0
			s-0.6,0-0.8,0c0,0.1,0,0.2,0,0.3s0,0.3,0,0.5v0.7v1c0,0.6,0,1.2,0,1.6c0,0.4,0,0.7,0,1c0.4,0,0.8,0,1.2,0c0.4,0,0.9,0,1.3,0
			c0.4,0,0.8,0,1.2-0.1c0.4,0,0.7-0.1,1-0.1c0,0.1,0,0.2,0,0.3c0,0.1,0,0.2,0,0.3c0,0.2,0,0.3,0.1,0.4c-0.5,0-1,0-1.5,0s-1,0-1.5,0
			c-0.5,0-1,0-1.5,0c-0.5,0-1,0-1.5,0c0-0.7,0.1-1.4,0.1-2.2s0-1.5,0-2.2v-2.9C598.1,639.5,598.1,638.8,598.1,638z"/>
	</g>
</g>
</svg>
