<?xml version="1.0" encoding="utf-8"?>
<!-- Generator: Adobe Illustrator 24.2.2, SVG Export Plug-In . SVG Version: 6.00 Build 0)  -->
<svg version="1.1" id="Layer_1" xmlns="http://www.w3.org/2000/svg" xmlns:xlink="http://www.w3.org/1999/xlink" x="0px" y="0px"
	 viewBox="0 0 296.4 157.6" style="enable-background:new 0 0 296.4 157.6;" xml:space="preserve">
<style type="text/css">
	.st0{fill:#FFFFFF;}
	.st1{fill:none;}
</style>
<g id="Group_71" transform="translate(-145.67 -552.431)">
	<g id="Group_70" transform="translate(145.67 552.431)">
		<g id="Group_69">
			<path id="Path_222" class="st0" d="M250.1,66.1c-2,0-4,0-5.9,0c-0.5,0-0.6,0.1-0.6,0.6c0,2.5,0,5,0,7.5c0,1.5-0.1,3,0.1,4.5
				c0.1,1.6,0.9,3,2.2,3.9c1.3,0.9,2.9,1.3,4.5,1.1c1.8-0.1,3.4-0.9,4.5-2.3c0.1-0.1,0.2-0.2,0.3-0.3v2.2h6.3c0-0.1,0-0.3,0-0.4
				c0-5.4,0-10.9,0-16.3c0-0.4-0.1-0.5-0.5-0.5c-1.9,0-3.8,0-5.7,0c-0.1,0-0.3,0-0.4,0v0.6c0,2.5,0,5,0,7.5c0,0.6,0,1.1-0.1,1.7
				c-0.3,2.4-2,2.8-3.5,2.3c-0.3-0.1-0.6-0.3-0.7-0.7c-0.3-0.7-0.4-1.5-0.5-2.3c-0.1-2.8,0-5.7,0-8.5L250.1,66.1z M279.6,71.1
				c0-0.9-0.3-1.7-0.7-2.5c-0.8-1.3-2.2-2.2-3.7-2.5c-1-0.2-2-0.4-3-0.4c-2.1-0.2-4.2,0.1-6.1,1c-1.5,0.6-2.6,2-2.8,3.7
				c-0.3,1.8,0.5,3.6,2.1,4.4c1.4,0.8,3,1.3,4.6,1.5c1.1,0.2,2.2,0.5,3.3,0.8c0.5,0.1,0.7,0.6,0.7,1c0,0.4-0.2,0.9-0.7,1
				c-0.3,0.1-0.6,0.3-0.9,0.3c-1.1,0.3-2.8-0.1-3.2-1.6c-0.1-0.4-0.2-0.4-0.5-0.4c-1.7,0-3.4,0-5.1,0h-0.6c0,1.3,0.4,2.5,1.2,3.4
				c0.9,1.1,2.2,1.8,3.5,2.1c2.9,0.8,6,0.7,8.8-0.3c2-0.6,3.5-2.4,3.7-4.5c0.3-2-0.7-4-2.5-4.8c-1.5-0.6-3.2-1.1-4.8-1.3
				c-0.9-0.2-1.7-0.4-2.6-0.6c-0.4-0.1-0.7-0.5-0.7-0.9c0-0.5,0.3-0.9,0.7-1.1c1.3-0.6,2.8-0.1,3.5,1.1c0,0.1,0.1,0.1,0.1,0.2
				c0.1,0.1,0.2,0.2,0.3,0.2C275.8,71.1,277.7,71.1,279.6,71.1L279.6,71.1z M109.7,66.6c0.1,0.2,0.1,0.4,0.1,0.5
				c0.8,2.4,1.6,4.8,2.4,7.2c1,2.9,1.9,5.9,2.9,8.8c0.1,0.3,0.2,0.4,0.6,0.4c2.3,0,4.5,0,6.8,0c0.3,0,0.5-0.1,0.5-0.4
				c0.2-0.5,0.3-1,0.5-1.6c0.8-2.6,1.7-5.1,2.6-7.7c0.6-1.7,1.2-3.5,1.8-5.2c0.2-0.7,0.4-1.4,0.6-2.1c-0.1,0-0.2-0.1-0.2-0.1
				c-2,0-4,0-6,0c-0.1,0-0.4,0.2-0.4,0.4c-0.2,0.8-0.4,1.5-0.6,2.3c-0.6,2.2-1.1,4.3-1.7,6.5c-0.1,0.4-0.2,0.7-0.4,1.1
				c-0.1-0.1-0.2-0.2-0.3-0.4c-0.6-2.2-1.2-4.5-1.8-6.7c-0.2-0.9-0.5-1.9-0.7-2.8c-0.1-0.4-0.3-0.4-0.6-0.4c-1.9,0-3.7,0-5.6,0
				L109.7,66.6z M98,70.1v0.7c0,2.4,0,4.8,0,7.2c0,0.8,0.1,1.5,0.3,2.3c0.3,1.5,1.4,2.6,2.9,2.9c2.3,0.6,4.6,0.1,6.9,0.1v-4.9
				c-0.7,0-1.4,0-2.1,0c-0.6,0-1.1-0.4-1.2-1c-0.1-0.5-0.2-1-0.2-1.5c0-1.7,0-3.5,0-5.2c0-0.5,0.1-0.6,0.6-0.5c1,0,1.9,0,3,0V66
				h-3.5v-5.1c-0.1,0-0.1,0-0.2,0c-2,0-3.9,0-5.9,0C98,60.8,98,61,98,61.3c0,1.2,0,2.4,0,3.6v1.2h-2.9v4L98,70.1z M23.3,78.3
				c-0.4,0-0.7,0.1-1.1,0.1c-1.8,0.1-2.4-0.4-2.4-2.2c0-1.8,0-3.7,0-5.5c0-0.2,0-0.3,0-0.5h3.4v-4h-3.5v-0.6c0-1.4,0-2.7,0-4.1
				c0-0.4-0.1-0.5-0.5-0.5c-1.8,0-3.7,0-5.5,0c-0.4,0-0.5,0.1-0.5,0.5c0,1.4,0,2.7,0,4.1c0,0.7,0,0.7-0.6,0.7c-0.6,0-1.2,0-1.8,0
				c-0.4,0-0.5,0.1-0.5,0.5c0,1.1,0,2.1,0,3.2c0,0.1,0,0.3,0.1,0.4h2.2c0.6,0,0.6,0,0.6,0.7c0,2.7,0,5.4,0,8.1
				c0,2.5,1.4,4.2,3.9,4.4c2,0.2,4,0,6.1,0L23.3,78.3z M280.3,66.1v4c0.8,0,1.6,0,2.4,0c0.4,0,0.5,0.1,0.5,0.5c0,2.5,0,5,0,7.5
				c0,0.5,0,1.1,0.1,1.6c0.2,1.8,1.6,3.3,3.4,3.6c1.6,0.2,3.2,0.2,4.8,0.1l1.7-0.1v-4.8c-0.5,0-1.1,0-1.6,0
				c-1.4-0.1-1.9-0.6-1.9-1.9c0-2,0-4,0-6c0-0.1,0-0.3,0.1-0.4h3.4v-4h-3.5c0-1.6,0-3.1,0-4.6c0-0.4-0.1-0.6-0.5-0.6
				c-1.8,0-3.6,0-5.4,0c-0.2,0-0.4,0-0.6,0v5.2L280.3,66.1z M215.2,70.1c0.8,0,1.6,0,2.4,0c0.4,0,0.5,0.1,0.5,0.5c0,2.5,0,5.1,0,7.6
				c0,0.5,0,1,0.1,1.5c0.2,1.8,1.6,3.3,3.4,3.5c1.6,0.2,3.2,0.2,4.8,0c0.5,0,1.1-0.1,1.6-0.1v-4.8c-0.5,0-1,0-1.6,0
				c-1.4,0-1.9-0.5-1.9-1.9c0-1.8,0-3.6,0-5.4c0-0.9,0-0.9,0.9-0.9h2.6v-4h-3.5v-0.6c0-1.3,0-2.7,0-4c0-0.4-0.1-0.6-0.6-0.6
				c-1.8,0-3.6,0-5.4,0c-0.2,0-0.4,0-0.6,0v5.2h-2.8L215.2,70.1z M51,83.2V59.6h-6.4v23.6L51,83.2z M148.5,71.5c0,3.7,0,7.5,0,11.2
				c0,0.4,0.1,0.6,0.6,0.6c1.8,0,3.5,0,5.3,0c0.4,0,0.5-0.1,0.5-0.5c0-7.5,0-14.9,0-22.4c0-0.4-0.1-0.5-0.5-0.5c-1.8,0-3.5,0-5.3,0
				c-0.5,0-0.6,0.1-0.6,0.6C148.5,64.1,148.5,67.8,148.5,71.5L148.5,71.5z M146.1,71.6c0-3.7,0-7.5,0-11.2c0-0.4-0.1-0.5-0.5-0.5
				c-1.8,0-3.5,0-5.3,0c-0.4,0-0.6,0.2-0.6,0.6c0,7.4,0,14.9,0,22.3c0,0.4,0.1,0.6,0.6,0.6c1.8,0,3.5,0,5.3,0c0.5,0,0.6-0.2,0.6-0.6
				C146.1,79,146.1,75.3,146.1,71.6L146.1,71.6z M242.3,71.5v-4.3c0-1.4,0-1.5-1.4-1.6c-1.7-0.3-3.4,0.5-4.4,1.8
				c-0.3,0.4-0.6,0.8-0.8,1.2c-0.1-0.7-0.1-1.3-0.1-2c0-0.5-0.1-0.7-0.6-0.6c-1.7,0-3.4,0-5.1,0h-0.5v17.1h6.5c0-0.9,0-1.8,0-2.6
				c0-1.9,0-3.8,0.1-5.8c0-2,1.6-3.6,3.6-3.5c0.1,0,0.2,0,0.3,0C240.6,71.3,241.5,71.4,242.3,71.5L242.3,71.5z M136.8,75
				c0-2.6,0-5.3,0-7.9c0-0.4-0.1-0.5-0.5-0.5c-1.8,0-3.6,0-5.4,0c-0.4,0-0.5,0.1-0.5,0.5c0,5.3,0,10.6,0,15.9c0,0.4,0.1,0.5,0.5,0.5
				c1.8,0,3.5,0,5.3,0c0.4,0,0.6-0.1,0.6-0.6C136.7,80.4,136.8,77.7,136.8,75L136.8,75z M3.3,88.2c0.1,0.2,0.2,0.4,0.3,0.4
				c0.2,0,0.4,0,0.6,0h26.6c47.7,0,95.4,0,143.2,0c0.2,0,0.5-0.1,0.7-0.2c-0.2-0.1-0.4-0.2-0.7-0.2c-74.6,0-95.3,0-169.9,0L3.3,88.2
				z M72.9,69.2c6.7-2.5,13.4-2.8,20-0.1c0.4-0.6,0.6-1.4,0.4-2.2c-0.1-0.4-0.3-0.7-0.6-0.9c-1-0.6-2-1.1-3-1.5
				c-1.7-0.6-3.4-0.9-5.1-1c-0.2,0-0.5,0-0.6-0.3c-0.2-1.1-0.7-2-1.5-2.7c-0.5-0.6-1.3-1-2-1.1c-0.4-0.1-0.7,0.2-0.8,0.5
				c0,0.3,0.1,0.5,0.3,0.7c0.3,0.4,0.7,0.7,1.1,1c0.5,0.5,0.8,1.1,0.8,1.8c-1.2,0.2-2.4,0.4-3.6,0.6c-1.4,0.2-2.8,0.7-4,1.4
				c-0.5,0.3-1,0.6-1.4,1.1C72.3,67.4,72.4,68.4,72.9,69.2z M133.6,64.5c0.9,0,1.8,0,2.6,0c0.4,0,0.6-0.1,0.5-0.5c0-1.1,0-2.2,0-3.4
				c0-0.4-0.2-0.5-0.6-0.5c-1.8,0-3.5,0-5.3,0c-0.4,0-0.6,0.1-0.6,0.5c0,1.1,0,2.2,0,3.4c0,0.4,0.2,0.5,0.6,0.5
				C131.8,64.5,132.7,64.5,133.6,64.5L133.6,64.5z M95,94.1L95,94.1c0.1,0.1,0.2,0.1,0.2,0.2c0.5,1.1,1.1,2.2,1.5,3.3
				c0.2,0.5,0.5,0.6,1,0.4V93l-0.6,0v4.1c-0.6-1.1-1.1-2.3-1.6-3.5c-0.3-0.7-0.4-0.7-1.1-0.6v5h0.5L95,94.1z M49.2,93v5h0.5v-4
				c0.1,0.1,0.2,0.2,0.3,0.4c0.5,1.1,1,2.1,1.4,3.2c0.2,0.5,0.5,0.6,1,0.4c0-1.6,0-3.2,0-4.8c0-0.1-0.2-0.2-0.4-0.3l-0.1,0.1v4.1
				c-0.2-0.1-0.3-0.2-0.3-0.4c-0.5-1.1-1-2.1-1.4-3.2C50,93.1,49.7,92.9,49.2,93L49.2,93z M105.5,93.7c0-0.5,0-0.6-0.4-0.7
				c-0.5-0.1-1-0.1-1.5,0.1c-1.1,0.4-1.6,1.3-1.5,2.8c-0.1,1.2,0.8,2.3,2.1,2.4c0.3,0,0.6,0,0.9-0.1c0.4-0.1,0.6-0.2,0.5-0.7
				c0-0.4,0-0.7,0-1.1c0-1.1,0-1.1-1.1-1c-0.4,0-0.4,0.2-0.3,0.5c0.8,0.1,0.8,0.1,0.8,0.9v0.1c0,0.8-0.3,1-1.1,0.8
				c-0.5-0.1-0.8-0.4-1-0.8c-0.1-0.3-0.2-0.7-0.3-1c-0.1-1.3,0.7-2.8,2.5-2.2C105.3,93.7,105.4,93.7,105.5,93.7L105.5,93.7z
				 M29.6,93.7c0.1-0.5,0-0.6-0.6-0.7c-1-0.2-2,0.2-2.5,1.1c-0.5,1.1-0.4,2.3,0.2,3.3c0.7,0.8,1.8,1,2.8,0.6c0.1,0,0.2-0.2,0.2-0.4
				c0-0.4,0-0.9,0-1.3c0-1.1,0-1.1-1.1-1c-0.4,0-0.4,0.2-0.3,0.5l0.8,0.1c0,0.5,0,1,0,1.4c0,0.1-0.1,0.3-0.3,0.3
				c-0.7,0.2-1.4-0.1-1.7-0.8c-0.3-0.7-0.4-1.5-0.1-2.3c0.2-0.8,1.1-1.3,1.9-1.1C29.1,93.6,29.4,93.6,29.6,93.7L29.6,93.7z
				 M70.8,95.8c0.2,0,0.3,0,0.5,0c0.1,0,0.3,0.1,0.3,0.2c0,0.4,0,0.9,0,1.3c0,0.1-0.1,0.2-0.2,0.2c-0.6,0.2-1.4,0-1.7-0.6
				c-0.2-0.5-0.4-1-0.4-1.5c-0.1-1,0.6-1.9,1.5-2c0,0,0.1,0,0.1,0c0.4,0,0.8,0.1,1.1,0.2c0.2-0.5-0.2-0.6-0.5-0.7
				c-1.2-0.3-2.4,0.4-2.7,1.6c0,0.2-0.1,0.3-0.1,0.5c-0.3,2.2,1,3.6,3.1,3c0.3-0.1,0.4-0.2,0.4-0.5c0-0.4,0-0.8,0-1.2
				c0-1.1,0-1.1-1.1-1C70.8,95.3,70.7,95.5,70.8,95.8z M125.2,95.7c0,0.7,0,1.3,0,2c0,0.1,0.2,0.3,0.3,0.4c0.1-0.1,0.2-0.3,0.2-0.4
				c0-1.5,0-2.9,0-4.4c0-0.4-0.2-0.4-0.5-0.3c0,0.6,0,1.1,0,1.7c0,0.3-0.1,0.5-0.5,0.5c-0.3,0-0.6,0-0.9,0c-0.4,0-0.5-0.1-0.5-0.5
				c0-0.6,0-1.1,0-1.7l-0.6,0v5.1h0.6c0-0.7,0-1.3,0-1.9c0-0.1,0.2-0.4,0.3-0.4C124.1,95.7,124.6,95.7,125.2,95.7z M83.3,97.2
				l-0.1,0c-0.4-1.2-0.7-2.5-1-3.7c-0.1-0.4-0.3-0.6-0.7-0.4c0.5,1.6,1,3.2,1.5,4.9c0,0.1,0.3,0.2,0.4,0.2c0.1,0,0.3-0.1,0.4-0.2
				c0.5-1.6,1-3.2,1.5-4.9h-0.6L83.3,97.2z M118.3,97.5c-1.7,0.3-2.2,0-2.5-1.7c-0.2-1.5,0.8-2.8,2.4-2.2c0,0,0.1,0,0.1,0
				c0.1-0.3,0-0.5-0.3-0.6c-1.2-0.3-2.4,0.4-2.7,1.6c0,0,0,0.1,0,0.1c-0.1,0.5-0.1,1-0.1,1.5c0,1.2,1,2.1,2.2,2.1
				c0.1,0,0.3,0,0.4-0.1C118.2,98.1,118.4,98,118.3,97.5L118.3,97.5z M158.2,95.3c-0.4-0.7-0.7-1.3-0.9-1.9
				c-0.2-0.4-0.4-0.6-0.9-0.4c0.8,1.6,2,3.1,1.5,5.1h0.6c0-0.1,0-0.3,0-0.4c-0.1-1.2,0.2-2.5,0.9-3.5c0.2-0.4,0.4-0.8,0.6-1.2
				c-0.6-0.1-0.6-0.1-0.9,0.4C158.9,94,158.6,94.6,158.2,95.3L158.2,95.3z M56.6,93.5c0.2,0,0.5,0,0.7,0c0.3,0,0.5,0.1,0.5,0.5
				c0,0.4,0,0.9,0,1.3v2.8h0.6c0-0.2,0-0.4,0-0.6c0-1.1,0-2.1,0-3.2c0-1,0-0.8,0.7-0.8c0.4,0,0.4,0,0.3-0.5h-2.8L56.6,93.5z
				 M151,93.5v4.6l0.5,0v-4.6c0.3,0,0.5,0,0.8,0c0.4,0,0.5-0.2,0.3-0.5h-2.8v0.5L151,93.5z M77.3,98.1V93h-0.6v5.1H77.3z M89.3,93
				v5.1h0.5V93H89.3z M145.1,93v5.1l0.5,0V93H145.1z"/>
			<path id="Path_223" class="st0" d="M250.1,66.1v0.6c0,2.8,0,5.7,0,8.5c0,0.8,0.2,1.6,0.5,2.3c0.1,0.3,0.4,0.5,0.7,0.7
				c1.5,0.5,3.3,0.1,3.5-2.3c0.1-0.6,0.1-1.1,0.1-1.7c0-2.5,0-5,0-7.5v-0.6c0.1,0,0.3,0,0.4,0c1.9,0,3.8,0,5.7,0
				c0.3,0,0.5,0.1,0.5,0.5c0,5.4,0,10.9,0,16.3c0,0.1,0,0.2,0,0.4h-6.3V81c-0.1,0.1-0.2,0.2-0.3,0.3c-1.1,1.4-2.7,2.3-4.5,2.3
				c-1.6,0.2-3.2-0.2-4.5-1.1c-1.3-0.9-2.1-2.3-2.2-3.9c-0.1-1.5-0.1-3-0.1-4.5c0-2.5,0-5,0-7.5c0-0.4,0.1-0.6,0.6-0.6
				C246.1,66.1,248.1,66.1,250.1,66.1z"/>
			<path id="Path_224" class="st0" d="M279.6,71.1c-1.9,0-3.8,0-5.6,0c-0.1,0-0.2-0.1-0.3-0.2c-0.5-1.3-2-2-3.4-1.4
				c-0.1,0-0.1,0.1-0.2,0.1c-0.4,0.2-0.7,0.6-0.7,1.1c0,0.4,0.3,0.8,0.7,0.9c0.8,0.3,1.7,0.5,2.6,0.6c1.6,0.3,3.3,0.7,4.8,1.3
				c1.8,0.9,2.8,2.8,2.5,4.8c-0.2,2.1-1.7,3.9-3.7,4.5c-2.8,1-5.9,1.1-8.8,0.3c-1.4-0.3-2.6-1.1-3.5-2.1c-0.8-0.9-1.3-2.2-1.2-3.4
				h0.6c1.7,0,3.4,0,5.1,0c0.3,0,0.4,0.1,0.5,0.4c0.3,1.5,2.1,1.8,3.2,1.6c0.3-0.1,0.6-0.2,0.9-0.3c0.4-0.2,0.7-0.6,0.7-1
				c0.1-0.5-0.2-0.9-0.7-1c-1.1-0.3-2.2-0.6-3.3-0.8c-1.6-0.2-3.1-0.8-4.6-1.5c-1.6-0.9-2.4-2.7-2.1-4.4c0.2-1.6,1.3-3,2.8-3.7
				c1.9-0.9,4-1.2,6.1-1c1,0.1,2,0.2,3,0.4c1.5,0.3,2.9,1.2,3.7,2.5C279.3,69.4,279.6,70.2,279.6,71.1z"/>
			<path id="Path_225" class="st0" d="M109.7,66.6h0.6c1.9,0,3.7,0,5.6,0c0.4,0,0.6,0.1,0.6,0.4c0.2,0.9,0.5,1.9,0.7,2.8
				c0.6,2.2,1.2,4.5,1.8,6.7c0,0.1,0.1,0.3,0.3,0.4c0.1-0.4,0.3-0.7,0.4-1.1c0.6-2.2,1.1-4.3,1.7-6.5c0.2-0.8,0.4-1.5,0.6-2.3
				c0-0.2,0.3-0.4,0.4-0.4c2,0,4,0,6,0c0,0,0.1,0,0.2,0.1c-0.2,0.7-0.4,1.4-0.6,2.1c-0.6,1.7-1.2,3.5-1.8,5.2
				c-0.9,2.6-1.7,5.1-2.6,7.7c-0.2,0.5-0.3,1-0.5,1.6c-0.1,0.3-0.3,0.4-0.5,0.4c-2.3,0-4.5,0-6.8,0c-0.3,0-0.5-0.1-0.6-0.4
				c-0.9-2.9-1.9-5.9-2.9-8.8c-0.8-2.4-1.6-4.8-2.4-7.2C109.8,66.9,109.8,66.8,109.7,66.6z"/>
			<path id="Path_226" class="st0" d="M98,70.1h-2.9v-4H98v-1.2c0-1.2,0-2.4,0-3.6c0-0.3,0-0.4,0.4-0.4c2,0,3.9,0,5.9,0
				c0.1,0,0.1,0,0.2,0V66h3.5v4.1c-1,0-2,0-3,0c-0.4,0-0.6,0.1-0.6,0.5c0,1.7,0,3.5,0,5.2c0,0.5,0.1,1,0.2,1.5c0.1,0.6,0.6,1,1.2,1
				c0.7,0,1.4,0,2.1,0v4.9c-2.3,0-4.6,0.5-6.9-0.1c-1.5-0.3-2.6-1.4-2.9-2.9c-0.2-0.8-0.3-1.5-0.3-2.3c0-2.4,0-4.8,0-7.2L98,70.1z"
				/>
			<path id="Path_227" class="st0" d="M23.3,78.3v5c-2,0-4.1,0.1-6.1,0c-2.5-0.2-3.9-1.9-3.9-4.4c0-2.7,0-5.4,0-8.1
				c0-0.7,0-0.7-0.6-0.7h-2.2c0-0.1-0.1-0.3-0.1-0.4c0-1.1,0-2.1,0-3.2c0-0.3,0.1-0.5,0.5-0.5c0.6,0,1.2,0,1.8,0
				c0.6,0,0.6,0,0.6-0.7c0-1.4,0-2.7,0-4.1c0-0.4,0.1-0.5,0.5-0.5c1.8,0,3.7,0,5.5,0c0.4,0,0.5,0.1,0.5,0.5c0,1.4,0,2.7,0,4.1v0.6
				h3.5v4h-3.4c0,0.2,0,0.4,0,0.5c0,1.8,0,3.7,0,5.5c0,1.8,0.6,2.3,2.4,2.2C22.5,78.3,22.9,78.3,23.3,78.3z"/>
			<path id="Path_228" class="st0" d="M280.3,66.1h2.8v-5.2c0.2,0,0.4,0,0.6,0c1.8,0,3.6,0,5.4,0c0.5,0,0.6,0.2,0.5,0.6
				c0,1.5,0,3,0,4.6h3.5v4h-3.4c0,0.1,0,0.3-0.1,0.4c0,2,0,4,0,6c0,1.4,0.5,1.9,1.9,1.9c0.5,0,1,0,1.6,0v4.8l-1.7,0.1
				c-1.6,0.2-3.2,0.1-4.8-0.1c-1.8-0.3-3.2-1.7-3.4-3.6c-0.1-0.5-0.1-1.1-0.1-1.6c0-2.5,0-5,0-7.5c0-0.4-0.1-0.5-0.5-0.5
				c-0.8,0-1.6,0-2.4,0L280.3,66.1z"/>
			<path id="Path_229" class="st0" d="M215.2,70.1v-4h2.8v-5.2c0.2,0,0.4,0,0.6,0c1.8,0,3.6,0,5.4,0c0.5,0,0.6,0.2,0.6,0.6
				c0,1.3,0,2.7,0,4v0.6h3.5v4h-2.6c-0.9,0-0.9,0-0.9,0.9c0,1.8,0,3.6,0,5.4c0,1.4,0.5,1.9,1.9,1.9c0.5,0,1,0,1.6,0v4.8
				c-0.5,0-1.1,0.1-1.6,0.1c-1.6,0.2-3.2,0.2-4.8,0c-1.8-0.2-3.3-1.7-3.4-3.5c-0.1-0.5-0.1-1-0.1-1.5c0-2.5,0-5.1,0-7.6
				c0-0.4-0.1-0.6-0.5-0.5C216.8,70.1,216.1,70.1,215.2,70.1z"/>
			<path id="Path_230" class="st0" d="M51,83.2h-6.4V59.6H51V83.2z"/>
			<path id="Path_231" class="st0" d="M148.5,71.5c0-3.7,0-7.4,0-11.1c0-0.5,0.1-0.6,0.6-0.6c1.8,0,3.5,0,5.3,0
				c0.4,0,0.5,0.1,0.5,0.5c0,7.5,0,14.9,0,22.4c0,0.4-0.1,0.5-0.5,0.5c-1.8,0-3.5,0-5.3,0c-0.4,0-0.6-0.1-0.6-0.6
				C148.5,79,148.5,75.3,148.5,71.5z"/>
			<path id="Path_232" class="st0" d="M146.1,71.6c0,3.7,0,7.4,0,11.1c0,0.4-0.1,0.6-0.6,0.6c-1.8,0-3.5,0-5.3,0
				c-0.4,0-0.6-0.1-0.6-0.6c0-7.4,0-14.9,0-22.3c0-0.4,0.1-0.6,0.6-0.6c1.8,0,3.5,0,5.3,0c0.4,0,0.5,0.1,0.5,0.5
				C146.1,64.1,146.1,67.8,146.1,71.6z"/>
			<path id="Path_233" class="st0" d="M242.3,71.5c-0.9-0.1-1.7-0.2-2.5-0.2c-2-0.2-3.7,1.2-3.9,3.2c0,0.1,0,0.2,0,0.3
				c-0.1,1.9-0.1,3.8-0.1,5.8c0,0.9,0,1.7,0,2.6h-6.5V66.1h0.5c1.7,0,3.4,0,5.1,0c0.5,0,0.6,0.2,0.6,0.6c0,0.7,0,1.4,0.1,2
				c0.3-0.4,0.6-0.8,0.8-1.2c1-1.4,2.7-2.1,4.4-1.8c1.4,0.1,1.4,0.1,1.4,1.6L242.3,71.5z"/>
			<path id="Path_234" class="st0" d="M136.8,75c0,2.7,0,5.3,0,8c0,0.4-0.1,0.6-0.6,0.6c-1.8,0-3.5,0-5.3,0c-0.4,0-0.5-0.1-0.5-0.5
				c0-5.3,0-10.6,0-15.9c0-0.4,0.1-0.5,0.5-0.5c1.8,0,3.6,0,5.4,0c0.4,0,0.5,0.1,0.5,0.5C136.7,69.7,136.8,72.4,136.8,75z"/>
			<path id="Path_235" class="st0" d="M3.3,88.2H4c74.6,0,95.3,0,169.9,0c0.2,0,0.5,0.1,0.7,0.2c-0.2,0.1-0.4,0.2-0.7,0.2
				c-47.7,0-95.4,0-143.2,0H4.2c-0.2,0-0.4,0-0.6,0C3.5,88.6,3.5,88.4,3.3,88.2z"/>
			<path id="Path_236" class="st0" d="M72.9,69.2c-0.5-0.8-0.6-1.8-0.1-2.6c0.4-0.5,0.8-0.8,1.4-1.1c1.2-0.7,2.6-1.2,4-1.4
				c1.2-0.2,2.4-0.4,3.6-0.6c0-0.7-0.3-1.3-0.8-1.8c-0.3-0.4-0.7-0.7-1.1-1c-0.2-0.2-0.3-0.5-0.3-0.7c0.1-0.4,0.4-0.6,0.8-0.5
				c0.8,0.1,1.5,0.5,2,1.1c0.8,0.7,1.4,1.6,1.5,2.7c0.1,0.4,0.3,0.3,0.6,0.3c1.8,0.1,3.5,0.4,5.1,1c1,0.4,2,0.9,3,1.5
				c0.3,0.2,0.5,0.5,0.6,0.9c0.2,0.7,0.1,1.5-0.4,2.2C86.3,66.4,79.6,66.7,72.9,69.2z"/>
			<path id="Path_237" class="st0" d="M133.6,64.5c-0.9,0-1.8,0-2.7,0c-0.4,0-0.6-0.1-0.6-0.5c0-1.1,0-2.2,0-3.4
				c0-0.4,0.2-0.5,0.6-0.5c1.8,0,3.5,0,5.3,0c0.4,0,0.6,0.1,0.6,0.5c0,1.1,0,2.2,0,3.4c0,0.4-0.1,0.5-0.5,0.5
				C135.3,64.5,134.5,64.5,133.6,64.5z"/>
			<path id="Path_238" class="st0" d="M95,94.1v4h-0.5c0-1.7,0-3.4,0-5c0.7-0.1,0.8-0.1,1.1,0.6c0.5,1.2,1,2.3,1.6,3.5V93l0.6,0v5.1
				c-0.5,0.1-0.8,0.1-1-0.4c-0.5-1.1-1-2.2-1.5-3.3C95.2,94.2,95.1,94.1,95,94.1L95,94.1z"/>
			<path id="Path_239" class="st0" d="M49.2,93c0.5-0.2,0.8,0,1,0.5c0.4,1.1,0.9,2.1,1.4,3.2c0.1,0.2,0.2,0.3,0.3,0.4v-4.1l0.1-0.1
				c0.1,0.1,0.4,0.2,0.4,0.3c0,1.6,0,3.2,0,4.8c-0.5,0.2-0.8,0.1-1-0.4c-0.4-1.1-0.9-2.1-1.4-3.2c-0.1-0.1-0.2-0.3-0.3-0.4v4h-0.5
				L49.2,93z"/>
			<path id="Path_240" class="st0" d="M105.5,93.7c-0.1,0-0.2,0-0.3-0.1c-1.8-0.7-2.6,0.9-2.5,2.2c0.1,0.4,0.2,0.7,0.3,1
				c0.2,0.4,0.5,0.7,1,0.8c0.8,0.2,1.1,0,1.1-0.8v-0.1c0-0.8,0-0.8-0.8-0.9c-0.1-0.3-0.1-0.4,0.3-0.5c1.1-0.1,1.1-0.1,1.1,1
				c0,0.4,0,0.7,0,1.1c0,0.4-0.2,0.6-0.5,0.7c-1.2,0.4-2.4-0.2-2.9-1.3c-0.1-0.3-0.2-0.6-0.1-0.9c-0.1-1.5,0.4-2.4,1.5-2.8
				c0.5-0.1,1-0.1,1.5-0.1C105.5,93.1,105.5,93.2,105.5,93.7z"/>
			<path id="Path_241" class="st0" d="M29.6,93.7c-0.2-0.1-0.5-0.1-0.7-0.2c-0.8-0.2-1.6,0.3-1.9,1.1c-0.2,0.7-0.2,1.6,0.1,2.3
				c0.3,0.6,1,1,1.7,0.8c0.1-0.1,0.2-0.2,0.3-0.3c0-0.5,0-0.9,0-1.4l-0.8-0.1c-0.1-0.3-0.1-0.5,0.3-0.5c1.1-0.1,1.1-0.1,1.1,1
				c0,0.4,0,0.9,0,1.3c0,0.1-0.1,0.3-0.2,0.4c-1,0.4-2.1,0.2-2.8-0.6c-0.6-1-0.7-2.2-0.2-3.3C27,93.2,28,92.8,29,93
				C29.6,93.1,29.7,93.2,29.6,93.7z"/>
			<path id="Path_242" class="st0" d="M70.8,95.8c-0.1-0.4,0-0.5,0.3-0.5c1.1,0,1.1-0.1,1.1,1c0,0.4,0,0.8,0,1.2
				c0,0.3-0.1,0.5-0.4,0.5c-2.1,0.5-3.3-0.8-3.1-3c0-1.2,1.1-2.2,2.3-2.1c0.2,0,0.3,0,0.5,0.1c0.4,0.1,0.7,0.2,0.5,0.7
				c-0.4-0.1-0.7-0.2-1.1-0.2c-1,0.1-1.7,0.9-1.7,1.9c0,0,0,0.1,0,0.1c0.1,0.5,0.2,1,0.4,1.5c0.4,0.6,1.1,0.8,1.7,0.6
				c0.1,0,0.2-0.1,0.2-0.2c0-0.4,0-0.9,0-1.3c0-0.1-0.2-0.2-0.3-0.2C71.1,95.8,71,95.8,70.8,95.8z"/>
			<path id="Path_243" class="st0" d="M125.2,95.7c-0.6,0-1.1,0-1.6,0c-0.1,0-0.3,0.3-0.3,0.4c0,0.6,0,1.3,0,1.9h-0.6V93l0.6,0
				c0,0.6,0,1.1,0,1.7c0,0.4,0.1,0.6,0.5,0.5c0.3,0,0.6,0,0.9,0c0.4,0,0.5-0.1,0.5-0.5c0-0.6,0-1.1,0-1.7c0.4-0.1,0.5-0.1,0.5,0.3
				c0,1.5,0,2.9,0,4.4c0,0.1-0.2,0.3-0.2,0.4c-0.1-0.1-0.3-0.3-0.3-0.4C125.1,97.1,125.2,96.4,125.2,95.7z"/>
			<path id="Path_244" class="st0" d="M83.3,97.2l1.2-4.2h0.6c-0.5,1.6-1,3.3-1.5,4.9c-0.1,0.1-0.2,0.2-0.4,0.2
				c-0.1,0-0.4-0.1-0.4-0.2c-0.5-1.6-1-3.2-1.5-4.9c0.5-0.2,0.6,0,0.7,0.4c0.3,1.2,0.7,2.5,1,3.7L83.3,97.2z"/>
			<path id="Path_245" class="st0" d="M118.3,97.5c0.1,0.4,0,0.6-0.4,0.6c-1.2,0.3-2.3-0.4-2.6-1.6c0-0.1-0.1-0.3-0.1-0.4
				c0-0.5,0-1,0.1-1.5c0.2-1.2,1.4-1.9,2.6-1.7c0,0,0.1,0,0.1,0c0.3,0.1,0.4,0.3,0.3,0.6c0,0-0.1,0-0.1,0c-1.6-0.6-2.6,0.7-2.4,2.2
				C116,97.5,116.6,97.8,118.3,97.5z"/>
			<path id="Path_246" class="st0" d="M158.2,95.3c0.3-0.7,0.6-1.3,0.9-1.9c0.2-0.5,0.2-0.5,0.9-0.4c-0.2,0.4-0.4,0.8-0.6,1.2
				c-0.7,1-1,2.2-0.9,3.5c0,0.1,0,0.3,0,0.4h-0.6c0.5-2-0.7-3.4-1.5-5.1c0.5-0.2,0.7,0,0.9,0.4C157.6,94,157.9,94.6,158.2,95.3z"/>
			<path id="Path_247" class="st0" d="M56.6,93.5V93h2.8c0.1,0.5,0.1,0.5-0.3,0.5c-0.8,0-0.7-0.1-0.7,0.8c0,1.1,0,2.1,0,3.2
				c0,0.2,0,0.4,0,0.6h-0.6v-2.8c0-0.4,0-0.9,0-1.3c0-0.3-0.1-0.5-0.5-0.5C57.1,93.5,56.9,93.5,56.6,93.5z"/>
			<path id="Path_248" class="st0" d="M151,93.5h-1.2V93h2.8c0.1,0.3,0.1,0.5-0.3,0.5c-0.2,0-0.5,0-0.8,0v4.6l-0.5,0V93.5z"/>
			<path id="Path_249" class="st0" d="M77.3,98.1h-0.6V93h0.6V98.1z"/>
			<path id="Path_250" class="st0" d="M89.3,93h0.5v5.1h-0.5V93z"/>
			<path id="Path_251" class="st0" d="M145.1,93h0.5v5.1l-0.5,0V93z"/>
		</g>
		<path id="Path_252" class="st0" d="M17,97.5c-0.4-1.3-0.9-2.7-1.3-4c-0.1-0.5-0.4-0.6-0.9-0.5l-1.7,5c0.4,0.2,0.6,0,0.7-0.4
			c0.3-1.1,0-0.9,1.2-0.9c1,0,1,0,1.3,0.9c0.1,0.4,0.3,0.5,0.7,0.4C17.1,97.9,17.1,97.7,17,97.5z M14.4,96.3
			c0.3-0.9,0.5-1.7,0.8-2.6l0.8,2.6H14.4z"/>
		<path id="Path_253" class="st0" d="M36.3,95.5C36.3,95.5,36.3,95.5,36.3,95.5c0.6-0.4,0.9-1.1,0.7-1.7c-0.2-0.5-0.8-0.9-1.4-0.9
			c-0.4,0-0.8,0-1.2,0v5.1l0.5,0v-2.2c0.8-0.1,1,0,1.2,0.7c0.1,0.4,0.3,0.7,0.4,1.1c0.1,0.5,0.3,0.6,0.8,0.4L36.3,95.5z M35.6,95.3
			c-0.2,0-0.4,0-0.7,0c0-0.6,0-1,0-1.5c0-0.1,0.1-0.3,0.1-0.3c0.4,0,0.8,0.1,1.1,0.2c0.2,0.3,0.3,0.6,0.2,1
			C36.3,95.1,35.9,95.3,35.6,95.3L35.6,95.3z"/>
		<path id="Path_254" class="st0" d="M43.6,93.5c-0.1-0.5-0.3-0.6-0.9-0.5l-1.7,5c0.5,0.2,0.6,0,0.7-0.4c0.3-1.1,0-0.9,1.1-0.9H43
			c1,0,1,0,1.3,0.9c0.1,0.4,0.3,0.6,0.7,0.4C44.6,96.5,44.1,95,43.6,93.5z M42.2,96.3l0.8-2.6l0.8,2.6H42.2z"/>
		<path id="Path_255" class="st0" d="M132.2,93c-0.7-0.1-0.7-0.1-0.8,0.5c-0.3,0.8-0.6,1.6-0.8,2.4c-0.2,0.7-0.4,1.4-0.6,2.1
			c0.4,0.1,0.5,0,0.6-0.3c0.3-1,0.4-1,1.4-1c1.1,0,0.8-0.1,1.1,0.9c0.1,0.4,0.3,0.6,0.8,0.4C133.3,96.4,132.7,94.7,132.2,93z
			 M131,96.2l0.8-2.5l0.1,0c0.3,0.8,0.5,1.6,0.8,2.5H131z"/>
		<path id="Path_256" class="st0" d="M139.8,95.6l0.2-0.1c0.5-0.3,0.8-0.9,0.6-1.4c0-0.5-0.4-0.9-1-1c-0.6,0-1.1,0-1.7,0v5h0.5v-2.2
			c0.8-0.1,1,0,1.2,0.6c0.1,0.4,0.3,0.8,0.4,1.2c0.2,0.5,0.2,0.5,0.8,0.3C140.4,97.2,140.5,96.2,139.8,95.6z M139.3,95.3
			c-0.2,0.1-0.5,0-0.8,0c0-0.5,0-1,0-1.5c0-0.1,0.1-0.2,0.1-0.2c0.4,0,0.7,0,1,0.1c0.3,0.2,0.5,0.6,0.3,0.9c0,0,0,0,0,0
			C139.8,94.9,139.6,95.1,139.3,95.3L139.3,95.3z"/>
		<path id="Path_257" class="st0" d="M174.2,81.2c-0.1-0.7-0.1-1.4-0.1-2.1c0-2.7,0-5.4,0-8c0-0.8-0.2-1.6-0.5-2.3
			c-0.6-1.4-1.9-2.1-3.2-2.4c-1.8-0.4-3.7-0.5-5.6-0.4c-1.5,0-2.9,0.3-4.3,0.8c-1.7,0.7-2.9,2.3-3.2,4.1c-0.1,0.3,0,0.5,0.4,0.5
			c1.7,0,3.4,0,5.1,0c0.3,0,0.4-0.2,0.5-0.4c0.2-0.4,0.4-0.7,0.7-0.9c0.9-0.5,2-0.6,2.9-0.2c0.6,0.2,1,0.8,1,1.5
			c0,0.7-0.5,1.2-1.1,1.3c-0.7,0.2-1.3,0.3-2,0.4c-1.5,0.2-3,0.4-4.4,0.7c-1.5,0.3-2.9,1.3-3.6,2.7c-0.4,0.8-0.5,1.7-0.4,2.6
			c0.1,1.9,1.2,3.5,3,4.1c1.5,0.6,3.2,0.7,4.8,0.4c1-0.1,2-0.5,2.8-1.1c0.3-0.2,0.6-0.5,1-0.8c0.1,0.4,0.1,0.7,0.1,1.1
			c0,0.4,0.2,0.7,0.7,0.6c0.6,0,1.1,0,1.7,0h4.2C174.5,82.5,174.3,81.9,174.2,81.2z M167.4,78.8c-0.8,1.2-2.5,1.6-3.8,0.7
			c-0.1,0-0.1-0.1-0.2-0.1c-0.6-0.6-0.7-1.6-0.1-2.2c0.2-0.2,0.4-0.3,0.6-0.4c0.3-0.1,0.7-0.2,1-0.3c0.8-0.2,1.6-0.5,2.4-0.7
			l0.5-0.2C168.1,76.6,167.9,77.8,167.4,78.8z"/>
		<path id="Path_258" class="st0" d="M194.1,66.8c0-0.4-0.1-0.5-0.5-0.5c-1.8,0-3.5,0-5.3,0c-0.5,0-0.7,0.2-0.6,0.7
			c0,0.4,0,0.9,0,1.4c-0.1,0-0.1-0.1-0.2-0.2c-0.1-0.1-0.1-0.2-0.2-0.3c-0.5-0.9-1.5-1.6-2.5-1.8c-0.8-0.1-1.6-0.2-2.5-0.2
			c-2.6,0.1-4.9,1.7-5.9,4.2c-0.7,1.7-0.9,3.6-0.7,5.4c0.1,1.4,0.6,2.7,1.3,3.8c1.3,2,3.6,3.1,6,2.9c1.6,0,3.1-0.7,4.2-2
			c0.1-0.1,0.2-0.2,0.4-0.4c0,1,0,1.8,0,2.7c0,0.9-0.4,1.7-0.9,2.3c-0.5,0.6-1.2,0.9-1.9,0.7c-0.8-0.1-1.4-0.7-1.8-1.4
			c-0.2-0.3-0.5-0.5-0.8-0.4c-1.2,0-2.3,0-3.5,0h-2.3c0.2,2.1,1.5,4,3.5,4.7c3.1,1.2,6.6,1.3,9.8,0.2c1.8-0.6,3.3-2,3.9-3.8
			c0.4-1.2,0.6-2.4,0.6-3.7C194.1,76.3,194.1,71.5,194.1,66.8z M187.5,76.5c-0.3,1-1.2,1.7-2.3,1.7c-1,0.1-2-0.4-2.4-1.3
			c-0.1-0.2-0.2-0.4-0.3-0.7c-0.2-0.7-0.4-1.4-0.3-2.1c0-0.6,0.1-1.2,0.3-1.8c0.1-0.2,0.2-0.4,0.3-0.5c0.8-1.3,2.5-1.6,3.8-0.8
			c0.6,0.4,1,0.9,1.2,1.6C188,73.8,187.9,75.2,187.5,76.5L187.5,76.5z"/>
		<path id="Path_259" class="st0" d="M213.9,76.1c0.6,0,0.6,0,0.6-0.6c0-1.5-0.3-3-0.8-4.5c-0.8-2.4-2.8-4.2-5.2-4.8
			c-1.7-0.5-3.5-0.6-5.3-0.3c-3.2,0.4-5.8,2.6-6.8,5.7c-0.5,1.5-0.6,3.1-0.4,4.7c0.4,3.4,2.9,6.1,6.2,6.9c1.5,0.4,3.1,0.5,4.6,0.3
			c2.6-0.2,5-1.5,6.5-3.6c0.3-0.5,0.6-1,0.9-1.6c-0.1,0-0.1-0.1-0.2-0.1c-1.8,0-3.7,0-5.5,0c-0.1,0-0.3,0-0.4,0.1
			c-0.5,0.6-1.2,1-2,1c-1.8,0.4-3.5-0.7-3.9-2.4c-0.1-0.3-0.1-0.6-0.1-1c0.2,0,0.4,0,0.6,0C206.4,76.1,210.1,76.1,213.9,76.1z
			 M204.7,70c1.1-0.1,2.3-0.1,3,1c0.3,0.4,0.5,0.9,0.6,1.4c0.2,0.4,0,0.6-0.5,0.6c-1.6,0-3.3,0-4.9,0h-0.9
			C202,71.4,203.2,70.1,204.7,70z"/>
	</g>
	<path id="Path_260" class="st0" d="M216.5,623.1c-0.4-1.7-1.5-3.1-2.9-4.1c-1.1-0.6-2.3-1-3.6-0.9c-1.5-0.1-2.9,0.4-4,1.3
		c-0.3,0.3-0.6,0.6-0.9,0.9V612h-0.6c-1.8,0-3.5,0-5.3,0c-0.5,0-0.6,0.1-0.6,0.6c0,7.5,0,14.9,0,22.4c0,0.2,0,0.4,0,0.6h6.3v-1.9
		c0.4,0.4,0.7,0.8,1.1,1.1c0.9,0.7,1.9,1.1,3.1,1.2c1.9,0.3,3.7-0.3,5.2-1.5c1.7-1.6,2.7-3.8,2.9-6.1
		C217.2,626.7,217,624.8,216.5,623.1z M210,629.9c-0.4,0.9-1.3,1.5-2.3,1.4c-1,0.1-2-0.5-2.4-1.4c-0.9-1.9-0.8-4,0.1-5.8
		c0.4-0.9,1.4-1.4,2.4-1.2c0.9,0,1.8,0.5,2.2,1.4c0.4,0.9,0.7,1.9,0.6,2.9C210.6,628.1,210.4,629,210,629.9L210,629.9z"/>
	<path id="Path_261" class="st0" d="M188.2,634.9c-0.4-1-0.5-2.1-0.4-3.1c0-2.9,0-5.9-0.1-8.8c0-0.7-0.2-1.4-0.5-2.1
		c-0.7-1.3-2-2.2-3.4-2.4c-2.6-0.5-5.3-0.6-7.9-0.1c-1.8,0.2-3.5,1.2-4.4,2.8c-0.4,0.7-0.6,1.6-0.6,2.4h5.9c0.2-0.4,0.3-0.7,0.5-1
		c0.6-0.9,2.9-0.9,3.6-0.3c0.5,0.4,0.7,0.9,0.5,1.5c-0.1,0.5-0.5,0.9-1,1c-0.2,0.1-0.4,0.1-0.6,0.2c-1.7,0.3-3.4,0.5-5.1,0.8
		c-1.4,0.2-2.7,0.8-3.6,1.8c-1,1.2-1.4,2.7-1.1,4.2c0.1,1.1,0.7,2.1,1.5,2.8c1,0.8,2.2,1.3,3.4,1.4c1.7,0.3,3.5,0,5-0.8
		c0.6-0.3,1.1-0.7,1.6-1.1c0.1,0.5,0.2,1,0.3,1.5h6.6C188.4,635.4,188.3,635.1,188.2,634.9z M181.4,630.4c-0.4,1.4-1.9,2.1-3.3,1.7
		c-0.3-0.1-0.5-0.2-0.8-0.4c-0.7-0.5-0.8-1.4-0.3-2.1c0.2-0.2,0.4-0.4,0.6-0.5c0.3-0.1,0.5-0.2,0.8-0.3c1-0.3,2-0.5,3.2-0.9
		C181.6,628.8,181.5,629.6,181.4,630.4L181.4,630.4z"/>
	<path id="Path_262" class="st0" d="M238,623.1c-3.1-1.2-6.4-1.9-9.7-1.9c-1,0.1-2,0.1-3.1,0.3c-2.1,0.3-4.1,0.8-6,1.7
		c-0.2,0.1-0.3,0.3-0.3,0.5c0,0.5,0,1,0.1,1.4c0.2,2.3,0.8,4.6,1.9,6.6c1,2.2,2.9,3.9,5.3,4.5c0.9,0.2,1.6,0.8,1.8,1.6
		c0.1,0.3,0.3,0.6,0.7,0.6c0.4,0,0.5-0.3,0.7-0.6c0.2-0.7,0.7-1.2,1.3-1.5c0.3-0.1,0.7-0.2,1-0.3c1.7-0.6,3.1-1.7,4-3.3
		c0.6-0.9,1-1.9,1.4-2.9c0.8-2,1.2-4.1,1.2-6.2C238.5,623.4,238.3,623.1,238,623.1z M233.9,631.1c-0.9,1.3-2.4,2.1-3.9,2.3
		c-0.4,0.1-0.8,0.1-1.2,0.1c-2.8,0.1-5.3-1.6-6.2-4.2c-0.4-1.1-0.7-2.3-0.8-3.6c0-0.3,0.1-0.5,0.4-0.6c1.6-0.7,3.3-1.1,5-1.1
		c2.2-0.1,4.4,0.2,6.6,0.9c0.5,0.1,1,0.4,1.5,0.6c0.3,0.1,0.4,0.3,0.4,0.6C235.5,627.9,234.9,629.6,233.9,631.1L233.9,631.1z"/>
</g>
<rect class="st1" width="296.4" height="157.6"/>
</svg>
