<?xml version="1.0" encoding="utf-8"?>
<!-- Generator: Adobe Illustrator 25.0.0, SVG Export Plug-In . SVG Version: 6.00 Build 0)  -->
<svg version="1.1" id="Layer_1" xmlns="http://www.w3.org/2000/svg" xmlns:xlink="http://www.w3.org/1999/xlink" x="0px" y="0px"
	 viewBox="0 0 296.4 157.6" style="enable-background:new 0 0 296.4 157.6;" xml:space="preserve">
<style type="text/css">
	.st0{fill:none;}
	.st1{fill:#FFFFFF;}
</style>
<rect y="0" class="st0" width="296.4" height="157.6"/>
<g id="_x33_Eb3xC_1_">
	<g>
		<path class="st1" d="M56.9,112.1c0.2-0.7,0.7-0.9,1.4-0.9c6,0,11.9,0,17.9,0c7.9,0,15.8,0,23.8,0c0.4,0,0.8,0,1.2-0.1
			c0.6,0,1.1,0.2,1,0.9C87.1,112.1,72,112.1,56.9,112.1z"/>
		<path class="st1" d="M201.3,112.1c-0.2-0.6,0-0.9,0.7-0.9c4.1,0,8.2,0,12.4,0c2.8,0,5.7,0,8.5,0c0.4,0,0.8-0.2,1.1,0.4
			c0.1,0.2,1.1,0,1.6-0.1c0.4-0.1,0.8-0.3,1.2-0.3c1.2,0,2.3,0,3.5,0c0.3,0,0.6,0.1,0.9,0.2c0.2,0,0.3,0.1,0.5,0.1
			c2.1-0.7,4.3-0.1,6.4-0.3c0.7-0.1,0.5,0.5,0.2,0.9C226,112.1,213.6,112.1,201.3,112.1z"/>
		<path class="st1" d="M264.9,112.1c-0.4-0.2-0.8-0.4-1.1-0.6c0-0.1,0-0.1,0-0.2c2.6,0,5.3,0,8,0c0-0.4,0-0.7,0-1c0-2.3,0-4.6,0-6.9
			c0-0.6,0.3-0.9,0.8-1.1c0,1.7,0,3.3,0,5c-0.9,0.6-0.2,1.6-0.5,2.4c-0.1,0.3,0,0.6-0.1,1c-0.1,0.5,0.1,0.7,0.6,0.6
			c0,0.3,0,0.6,0,0.8c-0.2,0-0.4,0-0.7,0c-0.9-0.9-1.5-0.9-2,0C268.3,112.1,266.6,112.1,264.9,112.1z"/>
		<path class="st1" d="M124.6,112.1c0.2-0.7,0.6-0.9,1.3-0.9c1.3,0.1,2.6,0,4,0c-0.2,0.3-0.4,0.6-0.6,0.8
			C127.7,112.1,126.2,112.1,124.6,112.1z"/>
		<path class="st1" d="M272.7,96.5c-0.1-0.4-0.2-0.8-0.3-1.3c-0.1-0.5-0.3-1-0.4-1.5c-0.1-0.6-0.2-1.3-0.1-1.9
			c0.1-0.9,0.1-1.9,0.8-2.7C272.7,91.6,272.7,94.1,272.7,96.5z"/>
		<path class="st1" d="M183,112.1c-0.4-0.2-0.8-0.4-1.2-0.6c0-0.1,0-0.1,0.1-0.2c1.5,0,2.9,0,4.5,0c-0.2,0.3-0.3,0.6-0.4,0.8
			C185,112.1,184,112.1,183,112.1z"/>
		<path class="st1" d="M272.7,100.8c-0.6,0.1-0.9-0.1-0.8-0.8c0-0.5,0-0.9,0-1.4c0-0.8-0.1-1.6,0.8-2
			C272.7,98.1,272.7,99.4,272.7,100.8z"/>
		<path class="st1" d="M191.7,112.1c0-0.2,0.1-0.5,0.1-0.8c1.4,0,2.9,0,4.4,0c-0.1,0.3-0.1,0.6-0.2,0.8c-0.7,0-1.3,0-2,0
			C193.4,111.4,192.3,111.4,191.7,112.1z"/>
		<path class="st1" d="M164.6,112.1c-0.1-0.2-0.2-0.5-0.3-0.8c1.1,0,2.2,0,3.3,0c-0.3,0.3-0.5,0.6-0.7,0.8
			C166.2,112.1,165.4,112.1,164.6,112.1z"/>
		<path class="st1" d="M121.1,112.1c-0.1-0.2-0.2-0.5-0.3-0.8c1,0,2,0,3,0c-0.1,0.3-0.1,0.5-0.2,0.8
			C122.8,112.1,122,112.1,121.1,112.1z"/>
		<path class="st1" d="M170.4,112.1c0-0.2-0.1-0.5-0.1-0.8c0.7,0.1,1.3-0.4,1.8,0.4c0.1,0.1,0.5,0,0.7,0c0.5,0.1,0.9,0.3,1.4,0.4
			C173,112.1,171.7,112.1,170.4,112.1z"/>
		<path class="st1" d="M150.9,112.1c-0.1-0.3-0.1-0.5-0.2-0.8c0.7,0,1.4,0,2.1,0c0.5,0,0.8,0.3,0.5,0.8
			C152.5,112.1,151.7,112.1,150.9,112.1z"/>
		<path class="st1" d="M253.1,112.1c0-0.6,0.2-0.9,0.8-0.8c0.5,0,0.9,0,1.4,0.2c0.2,0.1,0.2,0.4,0.3,0.6
			C254.7,112.1,253.9,112.1,253.1,112.1z"/>
		<path class="st1" d="M105.5,112.1c-0.1-0.2-0.3-0.4-0.4-0.8c0.7,0,1.4,0,2.1,0c-0.1,0.3-0.2,0.5-0.3,0.8
			C106.4,112.1,106,112.1,105.5,112.1z"/>
		<path class="st1" d="M159.8,112.1c-0.1-0.2-0.1-0.5-0.2-0.7c0.6,0,1.2-0.1,1.7,0c0.2,0,0.3,0.4,0.5,0.6
			C161.1,112.1,160.5,112.1,159.8,112.1z"/>
		<path class="st1" d="M272.7,62.4c-0.3-0.1-0.5-0.1-0.8-0.2c-0.1-0.7-0.2-1.4,0.8-1.5C272.7,61.3,272.7,61.8,272.7,62.4z"/>
		<path class="st1" d="M118.8,112.1c0.3-0.2,0.6-0.5,1.1-0.7c0.1,0.1,0.4,0.4,0.6,0.7C119.9,112.1,119.4,112.1,118.8,112.1z"/>
		<path class="st1" d="M162.6,112.1c0.1-0.7,0.5-1,1.2-0.8c-0.1,0.3-0.1,0.5-0.2,0.8C163.3,112.1,163,112.1,162.6,112.1z"/>
		<path class="st1" d="M272.7,67.9c-0.2,0.1-0.5,0.2-0.8,0.3c0-0.5,0-0.8,0-1.3c0.3,0.1,0.6,0.2,0.8,0.3
			C272.7,67.4,272.7,67.6,272.7,67.9z"/>
		<path class="st1" d="M178.2,112.1c0.1-0.5,0.6-0.8,1-0.5c0.2,0.1,0.3,0.3,0.5,0.5C179.2,112.1,178.7,112.1,178.2,112.1z"/>
		<path class="st1" d="M146.5,56.9c0,0.5,0,1,0,1.4c-0.1,0-0.2,0.1-0.3,0.1c-2,0.2-2.5,0.5-2.5,2.6c-0.1,2.6,0,5.2,0,7.8
			c2.5,0,5,0,7.6,0c0-0.9,0-1.8,0-2.7c0-1.6,0.1-3.2,0-4.8c-0.2-2.5-0.3-2.6-2.8-3c0-0.4,0-0.8-0.1-1.4c0.3,0,0.6,0,0.9,0
			c3.1,0,6.1,0,9.2,0c1.3,0,1.3,0,1.1,1.4c-0.3,0-0.6,0.1-0.9,0.1c-1.1,0.1-1.6,0.5-1.8,1.6c-0.1,0.3-0.1,0.7-0.1,1.1
			c0,4.9-0.1,9.7-0.1,14.6c0,1.7,0,3.4,0.1,5c0.1,2,0.8,2.9,2.6,2.7c0.1,0,0.2,0,0.3,0.1c0,0.4,0,0.8,0,1.3c-3.7,0-7.4,0-11.1,0
			c-0.2-1.2-0.2-1.2,1-1.3c0.8-0.1,1.3-0.5,1.5-1.2c0.2-0.6,0.3-1.3,0.3-1.9c0-2.8,0-5.7-0.1-8.5c0-0.1,0-0.3-0.1-0.4
			c-2.5,0-4.9,0-7.4,0c0,0.2-0.1,0.4-0.1,0.6c0,2.8,0,5.6,0,8.4c0,0.3,0,0.7,0.1,1c0.2,1.5,0.8,2,2.3,2c0.1,0,0.3,0,0.5,0
			c0,0.4,0,0.8,0,1.4c-1.8,0-3.7,0-5.5,0c-1.9,0-3.7,0-5.6,0c0-0.5,0-0.9,0-1.3c2.5-0.5,2.9-1,2.9-3.6c0-3,0-6-0.1-8.9
			c0-3.2,0-6.4,0-9.6c0-0.4,0-0.8-0.1-1.2c-0.2-1.3-0.8-1.7-2.1-1.8c-0.2,0-0.4,0-0.7,0c0-0.4,0-0.8,0-1.4
			C139,56.8,142.7,56.9,146.5,56.9z"/>
		<path class="st1" d="M68.8,72.9c0,2.9,0,5.8,0,8.7c0,1.4,0.6,1.8,2.5,2.1c0,0.3,0,0.6,0,1c-3.3,0-6.6,0-9.9,0c0-0.4,0-0.7,0-1
			c0,0,0.1-0.1,0.1-0.1c2-0.2,2.4-0.5,2.4-2.5C64,75.9,64,70.8,64,65.6c0-0.8,0-1.5-0.1-2.3c-0.1-1.4-0.6-1.8-2-1.9
			c-0.1,0-0.3,0-0.4-0.1c0-0.4,0-0.7,0-1.1c0.3,0,0.6,0,0.8,0c3.3,0,6.6-0.1,10,0c1.2,0,2.5,0.3,3.7,0.6c2,0.5,3,1.8,3.3,3.8
			c0.3,2.2,0.4,4.5-1.3,6.3c-0.9,1.1-2.2,1.5-3.6,1.7c0,0.1,0,0.2,0.1,0.3c1.4,2.8,2.7,5.6,4.2,8.3c0.4,0.8,1.3,1.4,1.8,2.2
			c0.3,0.3,0.3,0.8,0.5,1.5c-2,0-3.8,0-5.5,0c-0.2,0-0.5-0.4-0.6-0.6c-1.7-3.5-3.4-7.1-5.1-10.6c-0.1-0.3-0.4-0.6-0.6-0.8
			C69,72.8,68.9,72.8,68.8,72.9z M68.9,70.6c1.9,0,3.9,0.3,5-1.6c1-1.7,1-3.6-0.1-5.2c-1.1-1.7-3.1-1.5-4.9-1.5
			C68.9,65.1,68.9,67.8,68.9,70.6z"/>
		<path class="st1" d="M254.2,59.4c0,3.1,0,6.2,0,9.4c1.4,0,2.8,0.1,4.2,0c0.9-0.1,1.6-1.1,1.6-2c0-0.5,0-0.9,0-1.4
			c0.4,0,0.6,0,0.9,0c0,3.2,0,6.4,0,9.7c-0.3,0-0.5,0-0.9,0.1c0-0.5,0-1,0-1.4c-0.2-1.7-0.8-2.5-2.4-2.4c-1.1,0.1-2.3,0-3.4,0
			c0,3.7,0,7.3,0,11c0.3,0,0.6,0,1,0c1.6,0,3.2,0,4.8,0c1.9,0,2.9-1.1,3.6-2.7c0.2-0.4,0.3-0.9,0.5-1.4c0.3,0.1,0.5,0.2,0.9,0.3
			c-0.4,1.6-0.7,3.2-1.1,4.8c-0.4,1.7-0.1,1.4-1.7,1.4c-5.1,0-10.1,0-15.2,0c-0.3,0-0.7,0-1.1,0c0-0.4,0-0.8,0-1.2
			c0.2,0,0.4-0.1,0.6-0.1c1.4-0.1,2-0.5,2.2-2c0.1-0.4,0.1-0.8,0.1-1.2c0-6.2,0-12.5,0-18.7c0-0.3,0-0.6,0-0.8
			c-0.2-1.8-0.6-2.2-2.5-2.3c-0.1,0-0.2,0-0.4-0.1c0-0.4,0-0.8,0-1.3c0.3,0,0.6,0,0.9-0.1c3.7,0,7.4-0.1,11.1-0.1
			c1.7,0,3.4,0.1,5.1,0.1c0.5,0,0.7,0.2,0.7,0.7c0.1,1.6,0.2,3.1,0.3,4.7c0,0.2,0,0.3,0,0.5c-0.1,0.1-0.2,0.3-0.3,0.3
			c-0.1,0-0.3-0.2-0.3-0.3c-0.1-0.4-0.1-0.9-0.2-1.3c-0.3-1.2-1-2.1-2.2-2.1C258.6,59.4,256.4,59.4,254.2,59.4z"/>
		<path class="st1" d="M185.9,71.3c-0.2,4.2-0.4,7.3-2,10.2c-2.8,5-9.6,5.5-13,0.9c-1.7-2.2-2.3-4.7-2.6-7.4
			c-0.4-3.4-0.1-6.8,1.2-10c1.6-4.1,4.8-6,9-5.4c3.7,0.5,5.5,3,6.5,6.3C185.5,67.9,185.7,70.2,185.9,71.3z M172.8,72.4
			c0.2,1.6,0.3,3.1,0.5,4.7c0.2,1.1,0.5,2.2,0.8,3.3c0.3,0.7,0.6,1.5,1.1,2.1c1,1.1,2.5,1.2,3.5,0c0.6-0.7,1-1.6,1.3-2.5
			c1.3-5.1,1.4-10.2,0-15.3c-0.2-0.7-0.5-1.5-1-2.1c-1-1.4-2.9-1.5-3.9-0.1c-0.6,0.7-0.9,1.6-1.2,2.5
			C173.1,67.4,172.9,69.9,172.8,72.4z"/>
		<path class="st1" d="M53,62.6c-0.7,0.3-1,0-1.3-0.6c-0.7-1.5-1.6-2.9-3.4-3.2c-0.6-0.1-1.3-0.1-2.1-0.2c0,0.4,0,0.6,0,0.9
			c0,4.4,0,8.9,0,13.3c0,2.5,0,4.9,0,7.4c0,0.5,0,1.1,0.2,1.6c0.3,1.1,0.9,1.5,2.1,1.6c0.2,0,0.3,0,0.5,0c0.1,0,0.1,0,0.2,0.1
			c0,0.3,0,0.7,0,1.2c-3.8,0-7.5,0-11.4,0c0-0.4,0-0.8,0-1.2c0.1,0,0.2-0.1,0.3-0.1c1.9-0.2,2.6-0.9,2.6-2.9c0-5.8,0-11.6,0-17.4
			c0-1.4,0-2.9,0-4.3c-2.6-0.4-4.3,0.6-5.5,3.2c-0.3,0.6-0.5,0.8-1.3,0.6c0.2-2.1,0.4-4.2,0.7-6.3c0.5,0,0.8,0,1.2,0
			c5.3,0,10.5,0,15.8,0c0.7,0,0.9,0.2,1,0.9C52.7,59,52.9,60.8,53,62.6z"/>
		<path class="st1" d="M222.8,84.8c0-2.5,0-4.8,0-7c0-0.1,0-0.1,0-0.2c0.1-0.2,0.2-0.5,0.3-0.7c0.1,0.2,0.3,0.4,0.4,0.6
			c0.4,0.9,0.6,1.8,1,2.6c1.2,2.3,3.3,3.3,5.6,2.8c1.9-0.4,3-1.9,2.9-3.9c-0.1-2.6-1.5-4.1-3.7-5.1c-1.6-0.7-3.2-1.5-4.6-2.5
			c-2.4-1.7-2.6-4.3-2-7c0.6-2.6,2.4-4.1,5-4.6c2.3-0.4,4.6-0.2,6.8,1c1.2,0.6,1.2,0.6,1.9-0.6c0.1-0.1,0.2-0.2,0.3-0.2
			c0.1,0,0.3,0.1,0.3,0.3c0.1,0.1,0.1,0.3,0.1,0.4c0.1,2,0.2,4,0.3,5.9c0,0.2-0.2,0.5-0.3,0.7c-0.2-0.2-0.4-0.4-0.5-0.6
			c-0.5-1.5-1.2-2.8-2.5-3.8c-1.4-1-2.8-1.3-4.5-0.8c-1.2,0.4-1.8,1.2-2,2.4c-0.2,1.2,0.1,2.2,1.1,2.8c1,0.6,2.1,1.1,3.2,1.6
			c1.3,0.7,2.7,1.3,3.8,2.3c2.8,2.4,3.1,5.5,2.2,8.8c-1.1,4-3.9,5.6-8.5,5.1c-1.6-0.2-3.1-0.5-4.5-1.4c-0.8-0.5-1.2-0.3-1.7,0.5
			C223.2,84.5,222.9,84.7,222.8,84.8z"/>
		<path class="st1" d="M111.1,61.3c0-0.4,0-0.8,0-1.2c5.3,0,10.5,0,15.9,0c0.1,1.8,0.2,3.7,0.3,5.5c-0.1,0.1-0.1,0.1-0.2,0.2
			c-0.2-0.2-0.4-0.3-0.5-0.5c-0.1-0.2-0.1-0.5-0.1-0.8c-0.2-1.4-0.9-2.1-2.3-2.2c-1.8-0.1-3.7,0-5.6,0c0,2.8,0,5.6,0,8.4
			c1.2,0,2.4,0.1,3.6,0c0.8,0,1.4-0.8,1.5-1.7c0-0.2,0-0.4,0-0.7c0-0.3-0.2-0.8,0.5-0.8c0.6,0,0.4,0.4,0.4,0.8c0,2.4,0,4.8,0,7.2
			c0,0.2,0,0.4-0.1,0.7c-0.3,0-0.5,0-0.8,0c-0.1-0.7-0.1-1.5-0.3-2.2c-0.1-0.7-0.6-1.1-1.3-1.1c-1.2-0.1-2.4,0-3.6,0
			c0,3.3,0,6.5,0,9.9c2.1-0.1,4.1-0.1,6.2-0.4c0.7-0.1,1.3-1,1.8-1.6c0.4-0.5,0.5-1.1,0.8-1.7c0.5,0,0.8,0.1,0.7,0.8
			c-0.4,1.5-0.7,3-1,4.4c-0.1,0.5-0.3,0.6-0.8,0.6c-3.1,0-6.2,0-9.3,0c-1.9,0-3.8,0-5.8,0c0-0.5,0-0.8,0-1.1
			c2.3-0.4,2.6-0.8,2.6-3.1c0-5.5,0-10.9,0-16.4C113.6,61.9,113.3,61.6,111.1,61.3z"/>
		<path class="st1" d="M94.7,82.5c2,0,3.9,0.1,5.8,0c1,0,1.7-0.8,2.1-1.6c0.3-0.6,0.6-1.3,0.8-1.9c0.3,0.1,0.5,0.2,0.8,0.3
			c-0.4,1.7-0.8,3.5-1.2,5.2c0,0.2-0.5,0.4-0.8,0.4c-3,0-5.9,0-8.9,0c-2,0-4,0-6.1,0c0-0.4,0-0.7,0-1.1c0.1,0,0.1-0.1,0.1-0.1
			c2.1-0.3,2.4-0.7,2.4-2.8c0-5.6,0-11.2,0-16.7c0-2.2-0.4-2.6-2.6-2.8c0-0.4,0-0.8,0-1.2c5.3,0,10.5,0,15.8,0
			c0.1,1.8,0.2,3.6,0.3,5.5c-0.1,0.1-0.1,0.1-0.2,0.2c-0.2-0.1-0.4-0.3-0.5-0.4c-0.1-0.1,0-0.3-0.1-0.4c-0.3-2.1-1-2.7-3.1-2.7
			c-1.6,0-3.1,0-4.8,0c0,2.8,0,5.6,0,8.4c1.2,0,2.4,0.1,3.6,0c0.8-0.1,1.4-0.9,1.5-1.8c0-0.4,0-0.8,0-1.2c0.3,0,0.6,0,0.8,0
			c0,2.9,0,5.7,0,8.6c-0.3,0-0.5,0-0.8,0c-0.1-0.7-0.1-1.3-0.2-2c-0.2-0.9-0.7-1.3-1.6-1.4c-1,0-1.9,0-2.9,0c-0.2,0-0.5,0.3-0.5,0.5
			C94.6,76.3,94.7,79.4,94.7,82.5z"/>
		<path class="st1" d="M208.2,61.2c0-0.4,0-0.7,0-1.1c2.1,0,4.2,0,6.3,0c0.2,0.9-0.1,1.3-1,1.4c-0.4,0-0.8,0.5-1.1,0.9
			c-0.2,0.3-0.2,0.7-0.2,1c0,2.8,0,5.5,0,8.3c0,2.6-0.1,5.2-0.2,7.8c0,0.6-0.3,1.3-0.5,1.9c-0.8,2.2-2.3,3.5-4.6,3.9
			c-1.9,0.3-3.9,0.2-5.7-0.4c-3.1-1-4.7-3.2-4.7-6.7c-0.1-4.6-0.1-9.2-0.1-13.8c0-0.4,0-0.7-0.1-1.1c-0.2-1.4-0.6-1.7-2-1.8
			c-0.1,0-0.3,0-0.5,0c0-0.4,0-0.8,0-1.3c3.3,0,6.6,0,9.9,0c0,0.4,0,0.8,0,1.2c-0.1,0-0.1,0.1-0.2,0.1c-2-0.2-2.3,1-2.4,2.6
			c0,4.7,0,9.3,0,14c0,0.7,0.1,1.4,0.2,2.1c0.4,2,1.8,3.2,3.8,3.3c2.4,0.2,4.1-0.6,4.7-2.7c0.4-1.5,0.5-3.1,0.5-4.6
			c0.1-2.1,0-4.1,0-6.2c0-2,0-4.1,0-6.1C210.3,62.1,209.9,61.6,208.2,61.2z"/>
		<path class="st1" d="M182.5,46c-0.6,0.1-1.1,0.4-1.7,0.4c-2.2,0-4.4,0-6.6,0c-0.5,0-1.1-0.2-1.6-0.2c-0.2,0-0.4,0-0.6,0
			c-0.4,0.1-0.9,0.2-1.3,0.2c-16.6,0-33.1,0-49.7,0c-0.3,0-0.6,0-1,0c0-0.1-0.1-0.2-0.1-0.3c0.3-0.1,0.6-0.4,1-0.4
			c2.5-0.1,5.1-0.1,7.6-0.1c1.2,0,2.4,0,3.6,0c4.7,0,9.3,0.1,14,0.1c4.3,0,8.7-0.1,13-0.1c4.3,0,8.7,0,13,0.1c3.4,0,6.9,0,10.3,0
			C182.5,45.8,182.5,45.9,182.5,46z"/>
		<path class="st1" d="M119.2,46.4c-5.7,0-11.5,0-17.2,0c-5.8,0-11.6,0-17.3,0c-5.8,0-11.6,0-17.3,0c-0.4-0.7-0.1-0.8,0.5-0.8
			c2.2,0,4.5,0,6.7,0c3.1,0,6.3,0,9.4,0c3.4,0,6.8,0,10.3,0.1c3.3,0,6.6,0,9.8,0c4,0,8,0,12,0c0.8,0,1.5,0,2.3,0
			c0.3,0,0.6,0.3,0.9,0.4C119.3,46.2,119.2,46.3,119.2,46.4z"/>
		<path class="st1" d="M226.7,46.4c-0.3,0-0.5,0-0.8,0c-10.2,0-20.5,0-30.7,0c-0.5,0-1,0.1-1-0.8c2,0,4.1,0,6.2,0
			c4.4,0,8.8,0,13.3,0c4,0,8.1,0,12.1,0.1c0.4,0,0.7,0.3,1.1,0.4C226.8,46.2,226.8,46.3,226.7,46.4z"/>
		<path class="st1" d="M76.5,94.4c1.3,0.1,2.5,0.1,3.7,0.2c0.8,0.1,1.3,0.6,1.7,1.3c0.6,1.3,0.6,2.7,0.1,4c-0.4,1-1.2,1.4-2.2,1.5
			c-1.1,0.1-2.1,0-3.3,0C76.5,99.1,76.5,96.8,76.5,94.4z M77.8,100.4c1-0.1,2.2,0.3,2.7-0.8c0.5-1.1,0.6-2.3-0.1-3.3
			c-0.6-0.9-1.7-0.6-2.6-0.6C77.8,97.2,77.8,98.7,77.8,100.4z"/>
		<path class="st1" d="M108.6,98.9c-0.7,0-1.2-0.1-1.7-0.1c0-0.4,0-0.7,0-1.1c1,0,2,0,3,0c0,0.9,0,1.7,0,2.6c0,0.2-0.3,0.4-0.4,0.5
			c-1.4,1-3.7,1-4.9,0c-1.2-1-1.6-3-0.9-4.7c0.8-1.8,3.8-2.6,5.3-1.3c0.4,0.3,0.6,0.8,1.1,1.4c-0.6,0.1-1,0.2-1.3,0.3
			c-0.4-0.3-0.7-0.8-1.2-0.9c-1.2-0.5-2.5,0.2-2.6,1.5c-0.1,0.6,0,1.2,0.1,1.7c0.4,1.5,2.1,2,3.3,1.1
			C108.4,99.8,108.4,99.4,108.6,98.9z"/>
		<path class="st1" d="M217.1,101.5c0-2.4,0-4.7,0-7.1c1.3,0.1,2.7,0,3.9,0.3c1.5,0.3,1.8,1.7,1.9,3c0.3,2.6-1.2,4.1-3.8,3.9
			C218.4,101.5,217.8,101.5,217.1,101.5z M218.4,100.3c1-0.1,2.2,0.3,2.7-0.7c0.6-1.1,0.5-2.3-0.1-3.3c-0.6-1-1.7-0.5-2.6-0.6
			C218.4,97.3,218.4,98.7,218.4,100.3z"/>
		<path class="st1" d="M152.2,101.4c-1.4,0.2-1.4,0.2-1.9-1c-0.2-0.4-0.4-0.6-0.9-0.6c-0.3,0-0.7,0-1,0c-0.9-0.1-1.4,0.1-1.7,1.1
			c-0.2,0.9-1,0.4-1.6,0.5c0.6-1.7,1.3-3.3,1.9-4.9c0.2-0.4,0.3-0.9,0.5-1.3c0.2-0.5,0.3-0.9,1-0.9c0.7,0,0.9,0.3,1.2,0.9
			C150.5,97.3,151.4,99.3,152.2,101.4z M148.7,96.3c-0.1,0-0.1,0-0.2,0c-0.3,0.8-0.5,1.5-0.8,2.3c0.7,0,1.2,0,1.9,0
			C149.3,97.8,149,97.1,148.7,96.3z"/>
		<path class="st1" d="M136.2,94.5c0,0.4,0,0.7,0,1.1c-0.7,0-1.3,0-2,0c0,2,0,3.9,0,5.8c-0.5,0-0.9,0-1.4,0c0-1.9,0-3.8,0-5.8
			c-0.7,0-1.4,0-2.1,0c0-0.4,0-0.8,0-1.2C132.6,94.5,134.4,94.5,136.2,94.5z"/>
		<path class="st1" d="M249.7,45.9c-0.2,0.2-0.4,0.5-0.6,0.5c-5.8,0-11.5,0-17.3,0c0,0-0.1-0.1-0.1-0.1c0.2-0.8,1-0.7,1.5-0.7
			c4.9,0,9.7,0,14.6,0c0.6,0,1.1,0,1.7,0C249.5,45.7,249.6,45.8,249.7,45.9z"/>
		<path class="st1" d="M163,100.3c1.3,0,2.3,0,3.5,0c0,0.4,0,0.7,0,1.1c-1.6,0-3.2,0-4.8,0c0-2.3,0-4.6,0-6.9c0.4,0,0.8,0,1.3,0
			C163,96.4,163,98.3,163,100.3z"/>
		<path class="st1" d="M207.4,94.5c0,0.4,0,0.7,0,1.1c-0.7,0-1.3,0-2.1,0c0,2,0,3.9,0,5.8c-0.5,0-0.9,0-1.4,0c0-1.9,0-3.8,0-5.8
			c-0.8,0-1.4,0-2.1,0c0-0.4,0-0.7,0-1.1C203.7,94.5,205.5,94.5,207.4,94.5z"/>
		<path class="st1" d="M23.8,45.6c2.1,0,4.1,0,6,0c0.8,0,1.6,0,2.4,0.1c0.5,0,1,0.3,1.4,0.4c0,0.1,0,0.2-0.1,0.3c-3,0-6,0-9.1,0
			c0,2.7,0,5.2,0,7.8c-0.4,0.2-0.7,0.1-0.7-0.4c0-0.6,0-1.2,0-1.7C23.8,49.9,23.8,47.8,23.8,45.6z"/>
		<path class="st1" d="M187.7,101.4c0-2.3,0-4.6,0-6.9c0.5,0,0.9,0,1.4,0c0,1.9,0,3.8,0,5.8c1.2,0,2.3,0,3.5,0c0,0.4,0,0.7,0,1.1
			C191,101.4,189.4,101.4,187.7,101.4z"/>
		<path class="st1" d="M119.9,94.5c0.4,0,0.8,0,1.3,0c0,2.3,0,4.6,0,6.9c-0.4,0-0.8,0-1.3,0C119.9,99.1,119.9,96.8,119.9,94.5z"/>
		<path class="st1" d="M92.2,94.5c0.5,0,0.8,0,1.3,0c0,2.3,0,4.6,0,6.9c-0.4,0-0.8,0-1.3,0C92.2,99.1,92.2,96.8,92.2,94.5z"/>
		<path class="st1" d="M183.3,45.7c2.6-0.4,3.8-0.2,4,0.3c0.7-0.1,1.4-0.3,2.1-0.3c0.6,0,1.4-0.3,1.7,0.6c0.8-0.7,1.1-0.7,2.9-0.4
			c-0.3,0.2-0.5,0.5-0.8,0.5c-3.1,0-6.1,0-9.2,0C183.5,46.4,183.2,46.3,183.3,45.7z"/>
		<path class="st1" d="M258.6,45.6c-0.8,1-1.8,0.8-2.7,0.8c-1.6,0-3.1,0-4.7,0c-0.3,0-0.5,0-1,0C253.1,45.1,255.9,45.9,258.6,45.6z"
			/>
		<path class="st1" d="M261.8,45.7c0.4,0,0.9,0,1.3,0c1.5,0,3,0,4.5,0c0.2,0,0.4,0.2,0.6,0.4c-0.2,0.1-0.4,0.4-0.6,0.4
			c-1.7,0-3.4,0-5,0c-0.3,0-0.6-0.3-0.8-0.4C261.7,45.9,261.7,45.8,261.8,45.7z"/>
		<path class="st1" d="M24.6,80.6c0,1.7,0,3.5,0,5.2c-0.1,0-0.2,0.1-0.3,0.1c-0.2-0.4-0.5-0.7-0.5-1.1c0-1.2,0-2.4,0.1-3.5
			c0-0.3,0.3-0.5,0.4-0.8C24.4,80.5,24.5,80.6,24.6,80.6z"/>
		<path class="st1" d="M24.4,59.8c-0.2-1.5-0.4-3-0.6-4.5c0.1-0.1,0.2-0.1,0.4-0.2c0.2,0.2,0.5,0.4,0.5,0.6c0,1.4,0,2.7,0,4.1
			C24.5,59.8,24.4,59.8,24.4,59.8z"/>
	</g>
</g>
</svg>
