<?xml version="1.0" encoding="utf-8"?>
<!-- Generator: Adobe Illustrator 24.2.2, SVG Export Plug-In . SVG Version: 6.00 Build 0)  -->
<svg version="1.1" id="Layer_1" xmlns="http://www.w3.org/2000/svg" xmlns:xlink="http://www.w3.org/1999/xlink" x="0px" y="0px"
	 viewBox="0 0 296.4 157.6" style="enable-background:new 0 0 296.4 157.6;" xml:space="preserve">
<style type="text/css">
	.st0{fill:none;}
	.st1{fill:#FFFFFF;}
</style>
<rect class="st0" width="296.4" height="157.6"/>
<g id="Group_111" transform="translate(-241.216 -252.281)">
	<path id="Path_549" class="st1" d="M331.5,346.7h-5.1c-0.5-1.6-1.7-3-3.3-3.6c-3-1.1-6.4,0.4-7.6,3.5c-0.9,2.6-0.9,5.3-0.1,7.9
		c0.7,2.5,2.9,4.2,5.5,4.3c2.2,0.1,4.2-1.2,5-3.3c0.3-0.6,0.5-1.3,0.7-2h4.9c0,0.4,0,0.8,0,1.2c-0.9,4-3,7.1-7.1,8
		c-4.3,1-8.5,0.5-11.8-3.1c-1.7-1.8-2.8-4.2-3-6.6c-0.5-3.2,0.1-6.4,1.6-9.2c1.6-2.9,4.5-4.9,7.8-5.4c3.1-0.6,6.2,0.1,8.8,1.9
		c1.7,1.2,2.9,3,3.4,5C331.3,345.7,331.4,346.1,331.5,346.7z"/>
	<path id="Path_550" class="st1" d="M425.3,338.9h4.8v7.6c1.3-0.5,2.3-1,3.5-1.5c2.9-1.1,6.5,0.9,7.9,3.5c1.5,2.8,1.5,8.8-0.6,11.6
		c-2.4,3.2-6.8,3.8-10,1.4c-0.4-0.3-0.8-0.6-1.1-1c0,0.6-0.1,1.1-0.1,1.8h-4.3C425.1,360.9,425,342.6,425.3,338.9z M435.3,359.2
		c1-0.6,1.8-1.6,2.2-2.7c0.6-1.9,0.5-3.9-0.3-5.8c-0.5-1.3-1.8-2.2-3.2-2.2c-1.3-0.1-2.6,0.6-3.2,1.8c-1.3,2.7-1.4,7,1.8,8.9
		L435.3,359.2z"/>
	<path id="Path_551" class="st1" d="M321.7,322.7h-6l-7.7-23.5h5.5l5.1,16c2.1-5.5,3.4-10.8,5.3-16c1.8-0.2,3.7-0.2,5.5,0
		L321.7,322.7z"/>
	<path id="Path_552" class="st1" d="M330.4,259.3c1.3,0,2.4,0,3.6,0c0.3,0,0.7,0.1,1.2,0.1v8.5c1.1-1.4,2.7-2.4,4.5-2.7
		c3.2-0.6,6.6,1.8,6.7,5c0.2,4.1,0,8.3,0,12.4c0,0-0.1,0.1-0.3,0.3h-4.3v-3c0-2,0-4,0-6c0-1-0.2-2-0.4-3c-0.2-1-1.1-1.7-2.1-1.6
		c-0.7,0-1.4,0-1.9,0c-1.5,0.8-2.3,2.4-2.1,4.1c0.1,3.1,0,6.2,0,9.4c-1.5,0.3-3.1,0.4-4.7,0.2C330.2,281.4,330.1,262.9,330.4,259.3z
		"/>
	<path id="Path_553" class="st1" d="M334.6,338.9h4.8v8.4c1-1.3,2.5-2.1,4.1-2.4c3.9-0.6,7.1,1.4,7.2,5.3c0.1,4,0,8,0,12.1
		c-1.5,0.5-3,0.2-4.6,0.2v-3c0-2,0-4,0-6c0-1-0.2-2-0.4-3c-0.2-1-1.1-1.7-2.1-1.6c-0.7,0-1.4,0-1.9,0c-1.5,0.8-2.3,2.4-2.1,4.1
		c0.1,3.1,0,6.2,0,9.4c-1.5,0.3-3.1,0.4-4.7,0.2C334.4,361,334.2,342.4,334.6,338.9z"/>
	<path id="Path_554" class="st1" d="M344.5,308.3c0.1,1.4,0.2,3.1,0.2,4.8c0,2.3,0,4.7,0,7c0,0.8,0.1,1.6,0.2,2.5h-4.5l-0.5-1.1
		c-0.2,0-0.4,0.1-0.6,0.2c-2.1,1.7-4.7,1.7-7.1,1.3c-2.5-0.5-3.8-2.3-4.1-5c0.1-0.3,0.3-0.7,0.3-1c0.2-2.3,1.8-3.3,3.7-3.8
		c1.6-0.4,3.2-0.5,4.8-0.9c0.9-0.2,1.7-0.4,2.6-0.7c0-0.8,0.1-1.4,0.1-1.9c-2.2-2.3-4.8-1.9-6.1,1h-4.5c-0.4-1.8,0.6-2.9,1.7-3.8
		c1.1-0.9,2.5-1.5,3.9-1.7c1.8-0.3,3.7-0.3,5.5,0.1C342,305.6,343.6,306.7,344.5,308.3z M334.1,319.7c4.7,0.5,6.2-0.9,5.4-4.9
		c-1,0.2-2,0.4-3,0.5c-1.3,0.2-2.6,0.5-3.2,1.9C333.2,318.1,333.5,319,334.1,319.7z"/>
	<path id="Path_555" class="st1" d="M422.1,362.5h-4.5l-0.5-1.2c-0.2,0.1-0.4,0.1-0.6,0.2c-2.1,1.7-4.7,1.7-7.1,1.3
		c-2.5-0.5-3.8-2.4-4.1-5c0.1-0.3,0.3-0.7,0.3-1c0.2-2.3,1.8-3.3,3.8-3.8c1.6-0.4,3.2-0.5,4.8-0.9c0.9-0.2,1.7-0.5,2.6-0.7v-2
		c-0.7-1.1-2.1-1.6-3.4-1.2c-1.3,0.3-2.4,0.8-2.4,2.3h-4.8c-0.2-1.5,0.5-2.9,1.7-3.8c1.1-0.9,2.5-1.5,3.9-1.7
		c1.8-0.3,3.7-0.3,5.5,0.1c1.8,0.3,3.3,1.4,4.3,2.9c0.1,1.2,0.3,2.8,0.3,4.3c0.1,2.3,0,4.7,0,7C421.9,360.4,422,361.4,422.1,362.5z
		 M411,359.4c3.7,0.9,6.5,0,5.8-4.8c-1.1,0.2-2.1,0.4-3.2,0.6c-1.4,0.1-2.7,0.9-3.3,2.2L411,359.4z"/>
	<path id="Path_556" class="st1" d="M364.6,351.5c0-0.9,0.1-1.4,0.1-1.8c-0.5-1.1-1.6-1.7-2.8-1.6c-1.5,0.1-2.9,0.5-3.2,2.4h-4.6
		c-0.4-1.7,0.5-2.8,1.7-3.8c1.1-0.9,2.5-1.5,3.9-1.7c1.8-0.3,3.7-0.3,5.5,0.1c1.7,0.3,3.2,1.3,4.1,2.8c0.1,1.1,0.3,2.6,0.4,4.1
		c0.1,2.5,0,5.1,0,7.7c0,0.9,0.1,1.8,0.2,2.8h-4.5l-0.6-1.2c-1.9,1.6-4,1.9-6.2,1.8c-2.7,0.1-5-1.9-5.4-4.5c-0.4-2.6,1.3-5,3.9-5.5
		c1.5-0.4,3.1-0.5,4.6-0.8C362.6,352,363.5,351.8,364.6,351.5z M364.6,354.5c-1.1,0.2-2.2,0.4-3.4,0.6c-1.3,0.1-2.4,0.8-3,1.9
		c-0.2,0.9,0.2,1.9,0.9,2.5C363.7,360,364.9,358.9,364.6,354.5z"/>
	<path id="Path_557" class="st1" d="M366.4,275.5h-12.2c-0.5,2.4,0.6,3.9,2.7,4.2c2,0.2,3.7-0.1,4.7-2h4.1c-0.3,1.5-1,2.9-2.2,3.8
		c-1.2,1.1-2.7,1.7-4.3,1.9c-1.4,0.1-2.7,0.1-4.1-0.2c-2.5-0.5-4.5-2.2-5.4-4.6c-1.7-4-1-8.2,2-11c1.9-1.9,4.7-2.8,7.4-2.1
		c4.2,1,6.3,3.3,6.8,7.6C366.1,273.7,366.3,274.4,366.4,275.5z M354,272.4h6.9c0-2.3-1.1-3.5-3.1-3.5c-1.9-0.2-3.6,1.2-3.7,3.1
		C354,272.1,354,272.3,354,272.4z"/>
	<path id="Path_558" class="st1" d="M458.5,355.1c0,2.9,1.1,4,3.6,4.1c1.6,0.3,3.2-0.6,4-2h4.1c-0.6,3.1-3.3,5.5-6.5,5.7
		c-1.3,0.1-2.6,0.1-3.9-0.1c-2.6-0.5-4.7-2.3-5.6-4.7c-1.7-4-0.9-8.3,2.1-11c1.9-1.9,4.7-2.7,7.4-2.1c4,1,6.3,3.3,6.8,7.4
		c0.1,0.8,0.3,1.6,0.4,2.5c-1.4,0.3-2.8,0.4-4.2,0.2c-1.3,0-2.6,0-3.9,0H458.5z M465.3,352c0.3-1-0.1-2-0.8-2.6
		c-0.6-0.6-1.5-1-2.4-0.9c-1,0-2,0.4-2.8,1.1c-0.5,0.6-1.3,1.3-0.7,2.4H465.3z"/>
	<path id="Path_559" class="st1" d="M372.7,315.3h-11.8c-0.5,2.3,0.6,4,2.7,4.2c2,0.2,3.7-0.1,4.7-2h4c-0.5,3.1-3.1,5.4-6.1,5.7
		c-1.7,0.3-3.5,0.2-5.1-0.4c-2-0.7-3.7-2.2-4.5-4.2c-1.7-3.3-1.3-7.2,0.9-10.1c1.9-2.7,5.2-3.9,8.3-3.2c4.2,0.9,6.3,3.2,6.9,7.5
		c0.1,0.7,0.2,1.3,0.3,2C372.9,314.9,372.8,315,372.7,315.3z M360.7,312.2h6.9c-0.1-2.3-1.2-3.5-3.2-3.5c-1.9-0.2-3.5,1.2-3.7,3.1
		C360.7,311.9,360.6,312.1,360.7,312.2z"/>
	<path id="Path_560" class="st1" d="M451.8,315.3h-12.2c-0.5,2.5,0.7,4,3,4.1c1.8,0.1,3.5-0.1,4.4-2h4.1c-0.6,3.1-3.2,5.5-6.4,5.7
		c-1.4,0.1-2.7,0-4.1-0.2c-2.5-0.5-4.5-2.2-5.4-4.6c-1.7-4-1-8.3,2-11c1.9-1.9,4.7-2.7,7.4-2.1c4.1,1,6.4,3.3,6.8,7.4
		C451.5,313.4,451.6,314.2,451.8,315.3z M446.3,312.2c-0.1-2.5-1.3-3.7-3.6-3.6c-1,0-2,0.5-2.6,1.3c-0.5,0.6-1.1,1.2-0.5,2.2
		L446.3,312.2z"/>
	<path id="Path_561" class="st1" d="M315.8,282.9V264c-2.3-0.3-4.6,0-6.9-0.2v-4.4h19.3v4.4c-2.2,0.3-4.5,0-6.8,0.2
		c-0.2,2.1-0.2,4.1-0.1,6.2c0,2.1,0,4.3,0,6.4v6.3C319.4,283,317.6,283.1,315.8,282.9z"/>
	<path id="Path_562" class="st1" d="M321.2,402.3h-5.3c-0.2-2.1-0.2-4.1-0.1-6.2c0-2.1,0-4.3,0-6.4v-6.4c-2.3-0.2-4.6,0-6.9-0.2
		v-4.4h19.3v4.4c-2.2,0.3-4.5,0-6.8,0.2c-0.2,2.1-0.2,4.1-0.1,6.2c0,2.1,0,4.3,0,6.4L321.2,402.3z"/>
	<path id="Path_563" class="st1" d="M391.7,322.7h-4.5c-0.1-0.4-0.1-0.9-0.2-1.3c0-2.5,0-5,0-7.4c0-1-0.2-2-0.4-3
		c-0.1-1.1-1.1-1.9-2.1-1.8c-0.2,0-0.4,0-0.6,0c-0.5,0-1,0-1.4,0.1c-1.4,0.8-2.2,2.3-2,3.8c0,3.2,0,6.3,0,9.6
		c-1.5,0.3-3.1,0.4-4.7,0.2c-0.4-1.6-0.5-12.6-0.2-16.8c1.4-0.4,2.8-0.1,4.3-0.2c0.1,0.6,0.2,1.2,0.3,1.8c3-3.1,6.3-3.2,9.7-1.2
		c1.3,1.5,1.9,3.5,1.8,5.4C391.6,315.3,391.7,318.9,391.7,322.7z"/>
	<path id="Path_564" class="st1" d="M431.5,322.7H427c-0.1-0.4-0.1-0.9-0.2-1.3c0-2.5,0-5,0-7.4c0-1-0.2-2-0.4-3
		c-0.1-1.1-1.1-1.9-2.1-1.8c-0.7,0-1.4,0-1.9,0c-1.5,0.8-2.3,2.4-2.1,4.1c0.1,3.1,0,6.2,0,9.4c-1.5,0.3-3.1,0.4-4.7,0.2
		c-0.4-1.6-0.5-12.3-0.2-16.8c1.4-0.4,2.8-0.1,4.3-0.2c0.1,0.6,0.2,1.2,0.3,1.8c3-3.1,6.3-3.2,9.7-1.2c1.3,1.5,1.9,3.5,1.8,5.4
		C431.4,315.3,431.5,318.9,431.5,322.7z"/>
	<path id="Path_565" class="st1" d="M355.9,402.3h-4.3l-0.2-1.9c-1.8,2.3-4.9,3.2-7.7,2.1c-3-1-3.5-2.3-3.8-5.5
		c-0.2-3.8-0.1-7.6-0.1-11.5c1.6-0.5,3.1-0.2,4.8-0.2c0.1,0.6,0.1,1.1,0.1,1.6c0,2.8,0,5.7,0,8.5c-0.1,1,0.2,2,0.8,2.8
		c0.6,0.5,1.4,0.8,2.2,0.7c1.4,0.1,2.7-0.8,3.1-2.2c0.3-1,0.4-2,0.5-3c0.1-2.2,0-4.4,0-6.6v-1.7h4.4
		C356.1,391,356.1,396.6,355.9,402.3z"/>
	<path id="Path_566" class="st1" d="M374.5,390.2h-4.4l-0.7-1.4c-1.6-1.1-3.3-1.4-5-0.1l-0.1,1.5c0.7,0.3,1.3,0.6,2,0.9
		c1.2,0.3,2.4,0.5,3.6,0.9c0.7,0.2,1.4,0.5,2.1,0.8c1.7,0.7,2.9,1.8,3,3.8c0.2,2-0.8,4-2.6,5c-2.6,1.6-5.5,1.5-8.4,1
		c-1.9-0.2-3.5-1.3-4.5-3c-0.6-0.8-0.8-1.8-0.7-2.8c1.4-0.2,2.7-0.3,4.1-0.1l2.1,2.9c0.9,0,1.7,0,2.5,0c1.8-0.1,2.3-0.6,2.3-2.8
		c-0.6-0.3-1.2-0.6-1.9-0.9c-1.2-0.4-2.4-0.5-3.6-0.9c-0.9-0.2-1.8-0.6-2.7-1c-2.2-1-3.2-3.5-2.2-5.7c0.2-0.6,0.6-1.1,1.1-1.5
		c1-1,2.2-1.6,3.6-1.8c1.7-0.3,3.4-0.3,5.1,0C372.1,385.2,374.2,387.4,374.5,390.2z"/>
	<path id="Path_567" class="st1" d="M400.8,340.1v5.3h3.2v2.9l-3,0.2c-0.4,3.3-0.3,6.7,0.1,10.1l2.8,0.3c0.2,1.1,0.2,2.2,0.1,3.4
		c-1.7,0.8-1.7,0.8-6,0.1c-1.6-1-2.5-2.8-2.3-4.7c0.1-3,0-5.9,0-9l-2.8-0.2v-2.8l2.7-0.2v-4.9c0.8-0.4,1.7-0.5,2.5-0.3
		C399,340.1,399.8,340.1,400.8,340.1z"/>
	<path id="Path_568" class="st1" d="M396.6,308.8l-2.8-0.2v-2.8l2.7-0.3v-5.1h4.9v5.1l3.2,0.2c0.3,0.9,0.3,1.9,0.1,2.9H402
		c-0.4,1.5-0.5,7.6-0.2,9.9c0.8,0.8,2,0.2,3,0.6v3.4c-1.8,1.3-3.8,0.3-5.9,0.1l-1.9-1.7c-0.1-1-0.3-2.2-0.4-3.3
		C396.6,314.7,396.6,311.8,396.6,308.8z"/>
	<path id="Path_569" class="st1" d="M387.1,385.3v2.8l-3,0.2c-0.4,3.3-0.4,6.6-0.1,9.8c0.8,0.8,2,0.2,3,0.6v3.4
		c-1.9,1.3-3.9,0.3-6,0.1l-1.5-1.4c-0.6-1.1-0.9-2.4-0.8-3.7c0-2.9,0-5.8,0-8.8l-2.8-0.2v-2.8l2.6-0.2c0.4-1.6,0-3.4,0.3-5.1h4.8
		v5.1L387.1,385.3z"/>
	<path id="Path_570" class="st1" d="M384.2,349.1c-1,0.1-2.1,0.2-3.1,0.4c-1.9,0.3-3.3,2-3.1,4c-0.1,2.4,0,4.8,0,7.3
		c0,0.5,0,1,0,1.5c-1.6,0.5-3.2,0.1-4.7,0.3c-0.4-1.6-0.4-14.7-0.1-17.3h4.3c0.1,0.9,0.1,1.7,0.2,2.7c0.7-1.1,1.7-2,2.9-2.5
		c1.1-0.4,2.2-1.2,3.5-0.4c0.1,0.3,0.1,0.6,0.1,0.9C384.2,347,384.2,348,384.2,349.1z"/>
	<path id="Path_571" class="st1" d="M327.1,385h4.3c0.1,0.9,0.1,1.7,0.2,2.7c0.7-1.1,1.7-2,2.9-2.5c1.1-0.4,2.2-1.2,3.6-0.4v4.1
		c-0.6,0-1.2,0-1.8,0.1c-2.5,0.3-4.2,1.1-4.3,4.4c-0.1,2.8,0,5.7,0,8.6c-1.6,0.6-3.2,0.1-4.7,0.3C326.9,400.8,326.8,387.7,327.1,385
		z"/>
	<path id="Path_572" class="st1" d="M353,322.7h-4.2c-0.1-0.1-0.1-0.1-0.2-0.2c0,0-0.1-0.1-0.1-0.2c0-7.4,0-14.9-0.1-22.3
		c0-0.3,0.1-0.6,0.1-0.9h4.4V322.7z"/>
	<path id="Path_573" class="st1" d="M450.4,362.5h-4.2c-0.1,0-0.1-0.1-0.2-0.1s-0.1-0.1-0.1-0.2c0-7.4,0-14.8-0.1-22.1
		c0-0.3,0-0.7,0.1-1.1h4.3C450.6,340.6,450.7,358.5,450.4,362.5z"/>
	<path id="Path_574" class="st1" d="M411.9,322.7h-4.2c-0.4-1.4-0.5-14.1-0.1-16.9h4.2C412.1,311.4,412.2,317.1,411.9,322.7z"/>
	<path id="Path_575" class="st1" d="M386.7,362.5v-16.8c1.5-0.3,3-0.3,4.5-0.2v16.9H386.7z"/>
	<path id="Path_576" class="st1" d="M386.6,338.9h4.5v3.6h-4.4C386.6,341.4,386.5,340.2,386.6,338.9z"/>
	<path id="Path_577" class="st1" d="M407.4,302.8v-3.6h4.5v3.6H407.4z"/>
</g>
</svg>
