<?xml version="1.0" encoding="utf-8"?>
<!-- Generator: Adobe Illustrator 24.2.2, SVG Export Plug-In . SVG Version: 6.00 Build 0)  -->
<svg version="1.1" id="Layer_1" xmlns="http://www.w3.org/2000/svg" xmlns:xlink="http://www.w3.org/1999/xlink" x="0px" y="0px"
	 viewBox="0 0 296.4 157.6" style="enable-background:new 0 0 296.4 157.6;" xml:space="preserve">
<style type="text/css">
	.st0{fill:none;}
	.st1{fill:#FFFFFF;}
</style>
<rect class="st0" width="296.4" height="157.6"/>
<g id="Group_94" transform="translate(-146.143 -145.265)">
	<g id="Group_91" transform="translate(302.355 145.264)">
		<path id="Path_438" class="st1" d="M112.7,117.5c-0.1,0-0.1-0.1-0.2-0.1c-1.9-0.6-3.3-2-3.9-3.9c-0.8-2.2-0.7-4.7,0.3-6.8
			c0.6-1.6,2-2.8,3.7-3.3c1.8-0.5,3.7-0.1,5,1.2c0.1,0.1,0.2,0.2,0.4,0.3c0-0.3,0.1-0.4,0.1-0.6c0-1.5,0-3,0-4.5c0-0.2,0-0.5,0-0.7
			h5.6c0.2,0.6,0.2,17.6,0,18.2H118c0-0.3,0-0.5-0.1-0.7c0-0.2,0-0.4,0-0.8c-0.4,0.3-0.6,0.5-0.9,0.7c-0.3,0.2-0.6,0.4-0.9,0.6
			c-0.3,0.2-0.6,0.3-1,0.4L112.7,117.5z M118.1,110.4c0.1-1.1-0.7-2.2-1.8-2.4c-1.2-0.2-2.3,0.6-2.5,1.8c0,0,0,0,0,0
			c-0.3,1.2,0.4,2.5,1.6,2.9c0.3,0.1,0.6,0.1,0.9,0.1C117.3,112.6,118.1,111.6,118.1,110.4L118.1,110.4z"/>
		<path id="Path_439" class="st1" d="M4.1,117.5c-0.1-0.1-0.2-0.1-0.4-0.2c-1.8-0.5-3-2.4-2.8-4.3c0-1.8,1.2-3.3,3-3.7
			c1.5-0.4,3.1-0.4,4.6-0.1c0.2,0,0.4,0.1,0.6,0.1c0,0,0,0,0.1,0c0.2-0.7-0.1-1.4-0.8-1.7c-0.4-0.2-0.9-0.3-1.4-0.3
			c-1.1,0-2.2,0.1-3.3,0.5c-0.2,0.1-0.4,0.1-0.7,0.2l-1-3.8c0.3-0.1,0.5-0.2,0.7-0.3c2.5-0.8,5.1-1,7.7-0.5c0.4,0.1,0.8,0.2,1.2,0.3
			c1.9,0.6,3.3,2.4,3.3,4.4c0,0.3,0,0.7,0,1c0,2.3,0,4.7,0,7v0.8c-1.9,0.2-3.8,0.2-5.7,0.1l-0.1-1.1c-0.5,0.3-0.8,0.6-1.2,0.8
			c-0.4,0.2-0.9,0.4-1.3,0.6L4.1,117.5z M7.7,114.3c0.3-0.1,0.6-0.2,0.9-0.4c0.6-0.5,0.9-1.3,0.8-2.1c0-0.1-0.1-0.2-0.2-0.3
			c-0.7-0.3-1.4-0.2-2.1,0.1c-0.5,0.3-0.8,1-0.6,1.6C6.7,113.9,7.2,114.3,7.7,114.3L7.7,114.3z"/>
		<path id="Path_440" class="st1" d="M21.7,117.5c-0.3-0.1-0.7-0.2-1-0.2c-1.2-0.2-2.3-0.7-3.3-1.3c-0.2-0.1-0.4-0.3-0.7-0.4
			l1.9-3.2c0.3,0.1,0.5,0.3,0.7,0.4c1.3,0.7,2.7,1.1,4.2,1.1c0.2,0,0.4,0,0.6-0.1c0.2-0.1,0.3-0.2,0.2-0.4c0-0.1-0.1-0.2-0.1-0.2
			c-0.2-0.1-0.4-0.2-0.7-0.3c-0.7-0.2-1.4-0.4-2.1-0.6c-0.7-0.2-1.4-0.5-2-0.8c-3.2-1.4-2.6-5.6-0.6-7c0.9-0.7,2-1.1,3.1-1.2
			c2.2-0.3,4.5,0.1,6.5,1c0.3,0.1,0.5,0.3,0.9,0.5l-1.8,3.4c-0.3-0.1-0.4-0.2-0.6-0.3c-0.9-0.4-1.9-0.8-2.9-0.9
			c-0.4,0-0.8-0.1-1.2,0c-0.2,0.1-0.3,0.2-0.3,0.3c0,0.1,0.1,0.3,0.2,0.3c0.3,0.1,0.5,0.2,0.8,0.3c0.8,0.2,1.6,0.4,2.3,0.7
			c0.7,0.2,1.3,0.5,2,0.9c1.3,0.7,2,2.1,1.8,3.5c0,2-1.4,3.7-3.3,4.1c-0.3,0.1-0.7,0.2-1,0.3L21.7,117.5z"/>
		<path id="Path_441" class="st1" d="M130.4,117.5c-0.5-0.1-1.1-0.2-1.6-0.4c-1-0.3-2-0.6-2.9-1.2c-0.2-0.1-0.4-0.2-0.6-0.4l1.9-3.2
			l0.7,0.4c1.3,0.7,2.7,1.1,4.2,1.1c0.2,0,0.4,0,0.6-0.1c0.2,0,0.3-0.2,0.2-0.4c0-0.1-0.1-0.2-0.2-0.2c-0.2-0.1-0.4-0.2-0.7-0.3
			c-0.7-0.2-1.4-0.4-2.1-0.6c-0.7-0.2-1.3-0.5-2-0.7c-3.3-1.5-2.7-5.7-0.6-7.1c0.9-0.6,2-1,3.1-1.1c2.2-0.2,4.5,0.1,6.5,1
			c0.3,0.1,0.5,0.3,0.9,0.5l-1.8,3.4l-0.7-0.3c-1-0.5-2.1-0.8-3.3-0.9c-0.2,0-0.4,0-0.7,0c-0.2,0.1-0.3,0.2-0.4,0.3
			c0,0.1,0.1,0.3,0.3,0.4c0.2,0.1,0.5,0.2,0.7,0.3c0.7,0.2,1.3,0.3,2,0.5c0.8,0.3,1.5,0.6,2.2,0.9c1,0.5,1.7,1.4,1.8,2.4
			c0,0.1,0,0.1,0.1,0.2v1.4c-0.1,0.4-0.2,0.7-0.3,1.1c-0.5,1.3-1.6,2.3-3,2.6c-0.3,0.1-0.6,0.2-0.9,0.3L130.4,117.5z"/>
		<path id="Path_442" class="st1" d="M-7.9,117.5c-0.2-0.1-0.4-0.1-0.6-0.2c-3.8-1.1-6-5.1-4.8-8.9c0.8-2.6,2.9-4.5,5.6-5
			c1.3-0.3,2.5-0.2,3.8,0.1c1.6,0.5,3,1.5,3.8,3c0.1,0.2,0.2,0.3,0.2,0.5l-4,2.3c-0.2-0.2-0.3-0.3-0.4-0.5c-0.4-0.7-1.2-1-2-0.8
			c-0.8,0.2-1.4,0.8-1.6,1.6c-0.2,0.7-0.1,1.5,0.2,2.1c0.5,1,1.6,1.4,2.6,0.9c0.2-0.1,0.3-0.2,0.5-0.3c0.3-0.2,0.5-0.5,0.8-0.8
			l4.1,2.3c-0.4,0.8-1,1.6-1.7,2.2c-0.7,0.6-1.5,1-2.4,1.3c-0.3,0.1-0.5,0.2-0.7,0.2L-7.9,117.5z"/>
		<path id="Path_443" class="st1" d="M62.8,117.5c-0.2-0.1-0.5-0.2-0.7-0.2c-3.1-0.9-5.2-3.9-4.9-7.1c0.2-3.9,3.5-6.8,7.4-6.6
			c3.9,0.2,6.8,3.5,6.6,7.4c-0.2,2.9-2.1,5.3-4.8,6.3c-0.3,0.1-0.6,0.2-0.9,0.3L62.8,117.5z M60.2,110.5c0,0.4,0,0.6,0.1,0.8
			c0.2,1.9,1.7,3.3,3.6,3.5c1.9,0.2,3.6-1,4.1-2.8c0.3-1,0.3-2-0.1-2.9c-0.6-1.7-2.2-2.8-4-2.7c-1.7,0.1-3.2,1.3-3.5,3
			C60.3,109.8,60.3,110.2,60.2,110.5L60.2,110.5z"/>
		<path id="Path_444" class="st1" d="M40.9,75.5c0-0.7,0-1.5,0-2.2c0-0.7-0.2-1.4-0.7-2c-0.2-0.3-0.4-0.6-0.5-0.9
			c-0.5-1.1-1.1-2-1.9-2.9c-0.2-0.2-0.5-0.4-0.7-0.5c-0.5-0.3-1.1-0.6-1.5-1c-0.4-0.3-0.6-0.7-0.5-1.2c0.1-1.5-0.2-2.9-1-4.2
			c-0.4-0.8-0.8-1.5-1.1-2.3c-0.2-0.5-0.4-1-0.5-1.5c-0.3-0.8,0.2-1.7,1-2c0,0,0,0,0.1,0c1.3-0.6,2.8-0.4,4,0.3
			c1.5,0.8,2.4,2.3,2.5,3.9c0.1,2.8,1.8,4.6,4,6c1.4,0.9,3.2,1.1,4.7,0.4c0.8-0.3,1.6-0.7,2.4-1.2c1.6-0.8,2.4-2.6,2.1-4.4
			c-0.1-0.6-0.2-1.3-0.2-1.9c-0.1-1.1,0-2.1,0.2-3.1c0.2-1.1,0.3-2.2,0.6-3.3c0.2-1.2,0.6-2.4,1.2-3.5c0.7-1.3,1.1-2.8,1.4-4.2
			c0.2-0.7,0.3-1.5,0.5-2.2c0.1-0.2,0.1-0.5,0.2-0.7c0.8-2.4,2.9-2.4,4.4-1.7c0.8,0.4,1.4,1.3,1.4,2.2c0.1,0.9,0,1.8-0.2,2.6
			c-0.3,1.1-0.7,2.1-0.9,3.2c-0.2,1.1-0.4,2.2-0.5,3.4c-0.3,2.3-0.9,4.5-1.6,6.6c-0.2,0.5-0.3,1.1-0.4,1.6c-0.2,0.6,0.1,1.4,0.8,1.6
			c0.1,0,0.2,0,0.2,0.1c0.3,0.1,0.6,0.2,0.9,0.2c1.5,0.4,3,1,4.4,1.8c1.1,0.5,2,1.4,2.6,2.5c0.1,0.4,0.6,0.7,1,0.5
			c0.2-0.1,0.3-0.2,0.4-0.3c0.4-0.4,0.6-0.8,0.9-1.2c0.4-0.8,0.9-1.5,1.6-2.2c0.2-0.2,0.4-0.4,0.6-0.6c0.5-0.7,1.2-1.4,1.9-1.8
			c1.6-1.1,3.4-2.1,5.2-2.8c0.7-0.3,1.3-0.6,1.9-1.1c0,0,0.1-0.1,0.1-0.1c1.7-1.4,2.9-1.5,4.8-0.4c0.4,0.2,0.7,0.6,0.8,1.1
			c0.3,1.5,0,3.1-0.7,4.4c0,0.1-0.1,0.1-0.2,0.2c-1.5,1.6-3.4,2.8-5.6,3.3c-2.8,0.6-5.3,1.9-7.4,3.8c-0.4,0.3-0.7,0.7-1,1.1
			c-0.5,0.6-0.5,1.5,0,2.1c0.2,0.3,0.4,0.5,0.6,0.7c0.3,0.3,0.8,0.5,1.3,0.4c0.2,0,0.3-0.1,0.5-0.1c2.7-0.9,5.6-1.4,8.4-2
			c0.6-0.2,1.3-0.3,1.9-0.4c2.2-0.4,4.3,0.6,5.5,2.4c0.2,0.4,0.3,0.8,0.4,1.2c0.1,0.5-0.1,1-0.5,1.2c-0.3,0.2-0.5,0.3-0.8,0.4
			c-1.8,0.5-3.6,1.2-5.2,2.1c-1.5,0.7-3,1.2-4.6,1.5c-0.6,0.1-1.3,0.1-2,0.2c-0.4,0-0.9,0.1-1.3,0.3c-1.3,0.6-2.5,1.4-3.5,2.5
			c-0.7,0.9-1.6,1.7-2.5,2.4c-1.1,0.8-1.9,2-2.3,3.2c-0.2,0.6-0.5,1.2-0.7,1.9c-0.4,1.2-1.4,2.2-2.6,2.7c-1.7,0.7-3.5,1.2-5.4,1.3
			c-0.8,0-1.6-0.1-2.3-0.2c-0.6-0.1-1.2-0.5-1.6-1c-0.4-0.5-0.9-0.8-1.6-0.9c-1.2-0.2-2.4-0.8-3.3-1.6c-0.9-0.7-1.9-1.3-3-1.6
			c-1.4-0.4-2.6-1.3-3.4-2.5c-0.6-0.8-1.3-1.5-1.9-2.3c-1.2-1.4-1.8-3.3-1.8-5.1C40.9,76.9,41,76.2,40.9,75.5L40.9,75.5z"/>
		<path id="Path_445" class="st1" d="M41.8,83.4c-0.7,1.3-1.6,2.5-2.5,3.6c-0.5,0.5-1.1,0.8-1.7,1c-0.2,0-0.4,0.1-0.6,0.2
			c-0.6,0.1-1,0.6-1,1.2c0,0.5-0.4,1-0.9,1.2c-0.5,0.2-1,0.4-1.5,0.7c-0.5,0.3-1,0.6-1.5,0.9c-0.4,0.3-0.7,0.7-0.9,1.1
			c-0.3,0.8-1,1.4-1.9,1.6c-0.8,0.2-1.6,0.3-2.3,0.2c-2.2-0.1-4.3-0.6-6.4-1.3c-0.8-0.3-1.6-1-2-1.8c-0.4-0.7-0.8-1.4-1.1-2.1
			c-0.5-1-1.3-1.9-2.3-2.6c-0.1-0.1-0.2-0.2-0.3-0.2c-1.1-0.5-2.2-1.2-3.1-2.1c-2-1.5-4.2-2.5-6.6-3.1c-2.1-0.5-4.3-0.9-6.4-1.1
			c-1.2-0.1-2.3-0.3-3.5-0.5c-0.4-0.1-0.7-0.2-1.1-0.3c-1.2-0.5-1.9-1.9-1.3-3.2c0-0.1,0.1-0.2,0.2-0.3c0.3-0.5,0.6-1,1-1.5
			c0.3-0.4,0.7-0.6,1.2-0.6c0.4-0.1,0.7-0.1,1.1-0.1c2.7,0,5.5,0.2,8.2,0.7c1.5,0.3,3,0.6,4.5,0.9c1.1,0.3,2.2-0.4,2.5-1.4
			c0-0.1,0.1-0.3,0.1-0.4c0-0.3,0-0.5,0-0.8c-0.3-1.3-1.1-2.4-2.2-3c-0.6-0.3-1.3-0.6-1.9-0.8c-2.1-0.7-4.2-1.1-6.4-1.3
			c-1.7-0.2-3.4-0.7-5-1.4c-1.7-0.7-2.6-4-0.9-5.4c0.3-0.3,0.6-0.5,1-0.8c0.4-0.3,1-0.4,1.5-0.3c1.1,0.1,2.3,0.3,3.4,0.4
			c1.9,0.2,3.8,0.9,5.5,2c0.9,0.5,1.8,0.9,2.6,1.5c1.4,0.8,2.7,1.9,3.6,3.3c0.1,0.1,0.2,0.2,0.3,0.3c1,1,1.7,1,2.5-0.2
			c1-1.4,2.2-2.7,3.7-3.7c0.6-0.4,1.2-0.7,1.8-1c0.4-0.2,0.8-0.4,1.2-0.6c0.8-0.4,0.9-0.7,0.7-1.6c-0.3-1.3-0.6-2.5-1-3.8
			c-0.6-2.2-1.4-4.3-2.4-6.2c-0.7-1.4-1.3-2.8-1.8-4.2c-0.4-1-0.6-2-0.6-3.1c-0.1-1.3,0.8-2.4,2-2.6c1.2-0.4,2.5-0.1,3.3,0.9
			c1.9,2,3,4.6,3.3,7.4c0.1,1.3,0.5,2.6,1.1,3.8c0.3,0.6,0.7,1.2,1,1.8c1,1.6,1.7,3.4,2,5.2c0.2,2.2,1.6,4.1,3.5,5
			c0.2,0.1,0.5,0.2,0.7,0.4c0.1,0.1,0.3,0.2,0.3,0.4c0.3,0.9,1,1.6,1.9,2c1,0.5,1.8,1.3,2.2,2.2c0.5,0.8,1,1.7,1.4,2.5
			c0.2,0.4,0.2,0.8,0.2,1.3c0,0.7,0,1.5,0,2.2c0,1.2,0.1,2.3,0.2,3.5c0.1,1.3,0.6,2.5,1.4,3.6C41.5,83,41.6,83.1,41.8,83.4z"/>
		<path id="Path_446" class="st1" d="M46,117.2h-5.6c0-0.3-0.1-0.5-0.1-0.8c0-1.9,0-3.9,0-5.8c0-0.4,0-0.8-0.1-1.2
			c-0.1-0.6-0.6-1.1-1.2-1.2c-0.7-0.1-1.3,0.3-1.6,0.9c-0.1,0.3-0.2,0.7-0.2,1c0,2,0,4.1,0,6.1v0.8c-1.9,0.2-3.8,0.2-5.7,0.1
			c0-0.2-0.1-0.4-0.1-0.6c0-5.6,0-11.3,0-16.9c0-0.2,0-0.4,0-0.6c1.9-0.2,3.8-0.2,5.7,0v6.1c0.3-0.2,0.4-0.4,0.5-0.5
			c1.3-1.3,3.2-1.8,5-1.3c1.4,0.3,2.5,1.3,2.9,2.6c0.2,0.6,0.4,1.2,0.4,1.9c0,3,0,6,0,8.9C46.1,116.9,46,117.1,46,117.2z"/>
		<path id="Path_447" class="st1" d="M90.5,113.6c-0.3,0.4-0.6,0.7-0.9,1.1c-0.1,0.2-0.2,0.5-0.2,0.7c0,0.6,0,1.1,0,1.7
			c-1.9,0.2-3.8,0.2-5.6,0.1c-0.2-0.5-0.2-17.4,0-18.1c1.9-0.2,3.7-0.2,5.6,0c0,0.3,0.1,0.5,0.1,0.8c0,2.3,0,4.5,0,6.8v0.9
			c0.1-0.1,0.3-0.3,0.4-0.4c0.7-1,1.4-2,2.1-3.1c0.1-0.3,0.4-0.4,0.7-0.4c1.8,0,3.5,0,5.3,0c0.2,0,0.3,0,0.5,0.1
			c-0.2,0.3-0.3,0.5-0.4,0.6c-1.1,1.5-2.2,2.9-3.4,4.4c-0.3,0.3-0.3,0.7-0.1,1.1c1.2,2.2,2.4,4.5,3.6,6.8c0.1,0.2,0.2,0.4,0.4,0.7
			c-0.2,0-0.4,0.1-0.6,0.1c-1.7,0-3.3,0-5,0c-0.4,0-0.7-0.2-0.8-0.5c-0.4-0.8-0.9-1.7-1.3-2.5C90.8,114.1,90.7,113.9,90.5,113.6z"/>
		<path id="Path_448" class="st1" d="M6.2,45.8c0.7,0.1,1.1,0.1,1.6,0.2c1,0.1,2,0.8,2.5,1.7c0.4,0.7,0.6,1.4,0.9,2.1
			c0.4,1.4,0.8,2.8,1.3,4.1c0.6,1.6,1.7,3,3.1,4.1c0.3,0.2,0.5,0.4,0.8,0.5c0.7,0.3,1.3,0.9,1.6,1.6c0.4,0.5,0.4,1.3,0,1.8
			c-0.4,0.7-0.8,1.3-1.3,1.9c-0.6,0.7-1.6,0.9-2.4,0.5c-0.6-0.3-1.1-0.7-1.5-1.3c-0.4-0.5-0.7-1-1-1.6c-0.4-0.7-0.9-1.4-1.5-1.9
			c-0.4-0.3-0.9-0.6-1.4-0.8c-1.2-0.4-2.1-1.3-2.6-2.4c-0.2-0.5-0.4-1-0.5-1.6c-0.3-1.3-0.8-2.5-1.4-3.7c-0.3-0.7-0.6-1.4-0.9-2.1
			c-0.1-0.4-0.2-0.8-0.1-1.2c0-0.8,0.5-1.5,1.3-1.7C5.1,45.9,5.7,45.8,6.2,45.8z"/>
		<path id="Path_449" class="st1" d="M64.3,57.5c0.1-0.4,0.2-0.9,0.3-1.3c0.1-0.4,0.3-0.8,0.4-1.3c0.2-1.3,0.9-2.5,2-3.3
			c0.5-0.4,1-0.8,1.4-1.1c0.5-0.4,0.8-0.9,0.9-1.5c0.2-1,0.4-2,0.4-3.1c0.1-1.3,0.6-2.5,1.5-3.3c0.1-0.1,0.3-0.2,0.4-0.3
			c1-0.6,2.2-0.8,3.4-0.6c0.8,0.1,1.4,0.7,1.5,1.5c0.1,0.4,0.1,0.9,0.1,1.3c0,0.5-0.1,1-0.2,1.4c-0.1,0.8-0.5,1.5-0.9,2.2
			c-1.6,2.2-2.8,4.6-3.6,7.2c-0.1,0.4-0.3,0.7-0.6,1c-0.5,0.6-1,1.2-1.3,2c-0.2,0.5-0.4,1-0.7,1.4c-0.2,0.3-0.3,0.5-0.6,0.7
			c-0.7,0.8-2,0.9-2.8,0.2C64.9,59.8,64.3,58.7,64.3,57.5z"/>
		<path id="Path_450" class="st1" d="M100.3,117.2c-0.1-0.7-0.1-13,0-13.6h5.5c0.2,0.5,0.2,12.5,0.1,13.5
			C104,117.3,102.2,117.3,100.3,117.2z"/>
		<path id="Path_451" class="st1" d="M57.3,101.7c-0.3-0.1-0.5-0.1-0.6-0.1c-0.2,0-0.3-0.1-0.4-0.1c-1.8-0.3-2.7,0.6-2.4,2.5
			c1.1,0.1,2.2,0,3.4,0.1c0,0.8,0.1,1.6,0,2.5c-1.1,0.2-2.2,0-3.4,0.1c0,0.3-0.1,0.6-0.1,0.8c0,2.9,0,5.8,0,8.7c0,0.3,0,0.6-0.1,0.9
			h-3c0-0.3-0.1-0.6-0.1-0.8c0-2.9,0-5.9,0-8.8c0-0.3,0-0.5,0-0.8l-1.5-0.1v-2.5l1.5-0.1c0-0.2,0-0.4,0.1-0.6c0-0.5,0-1,0.1-1.5
			c0.2-1.6,1.4-2.8,3-3c1-0.2,2.1-0.1,3.1,0.2c0.2,0.1,0.4,0.1,0.4,0.4C57.3,100.2,57.3,100.9,57.3,101.7z"/>
		<path id="Path_452" class="st1" d="M42.5,59.4c-0.1-1.1-0.2-2.2-0.3-3.2c0-0.5,0-1,0.1-1.5c0.3-1.3,1.3-2.4,2.7-2.6
			c0.9-0.2,1.8-0.2,2.7,0.2c0.1,0,0.2,0.1,0.2,0.1c1.2,0.8,2,2.2,2,3.6c-0.2,1-0.5,2-0.9,2.9c-0.4,0.8-0.8,1.6-1.1,2.5
			c-0.3,0.7-0.4,1.5-0.6,2.3c-0.2,1-0.3,1-1.3,0.8c-0.8-0.1-1.6-0.5-2.2-1c-0.8-0.6-1.5-1.4-2-2.3c-0.2-0.4-0.2-0.5,0.1-0.6
			c0.5-0.1,0.8-0.5,0.7-1C42.5,59.5,42.5,59.4,42.5,59.4z"/>
		<path id="Path_453" class="st1" d="M80.8,103.9v3.1c-0.4,0.1-0.7,0.1-1.1,0.2c-1.3,0.2-2.5,1.1-3,2.3c-0.4,0.8-0.5,1.7-0.5,2.6
			c0,1.4,0,2.9,0,4.3c0,0.3,0,0.5,0,0.8c-1,0.1-2,0-2.9,0c-0.2-0.5-0.2-12.2-0.1-13.2c1-0.1,2-0.1,3,0v2.4l0.1,0.1
			c0.6-1.2,1.6-2.1,2.8-2.5C79.7,103.8,80.3,103.7,80.8,103.9z"/>
		<path id="Path_454" class="st1" d="M100.2,102.6v-3.5c2-0.2,3.9-0.2,5.9,0c0.1,1.1,0,2.3,0,3.5
			C104.1,102.7,102.1,102.7,100.2,102.6z"/>
	</g>
	<g id="kQzEeJ" transform="translate(146.143 158.32)">
		<g id="Group_92" transform="translate(0)">
			<path id="Path_455" class="st1" d="M65.2,106.2c-2.2-0.1-4.3-0.2-6.5-0.2c-0.1,0-0.3,0-0.4-0.1c0.1,0,0.3-0.1,0.4-0.1
				c5.9-0.4,11.8-1.7,17.4-3.6c5.3-1.7,10.2-4.4,14.5-7.8c3.5-2.7,6.3-6.2,8.1-10.3c2.1-4.8,2.1-10.3-0.2-15.1
				c-1.8-4-4.6-7.4-8.1-10.1c-4.8-3.7-10.3-6.5-16.2-8.3c-4.4-1.4-8.9-2.3-13.4-2.8c-3.5-0.4-7-0.5-10.6-0.4
				c-9.7,0.1-19.3,2.4-28.1,6.6c-3.9,1.9-7.4,4.3-10.4,7.3c-3,2.9-5.3,6.5-6.5,10.5c-0.9,3.4-0.8,6.9,0.2,10.3
				c0,0.2,0.1,0.3,0.2,0.5c0,0.1,0,0.2,0,0.3c-0.1-0.1-0.2-0.1-0.2-0.2c-0.3-0.6-0.6-1.1-0.9-1.7c-1.7-3.2-2.5-6.8-2.3-10.4
				c0.2-3.4,1.2-6.6,3-9.5c2.3-3.7,5.3-7,8.9-9.6c5.4-3.9,11.3-7,17.6-9c5.7-2,11.7-3.4,17.7-4.2c6.2-0.9,12.5-1.2,18.7-1.1
				c4,0.1,8.1,0.4,12.1,1c5.4,0.7,10.7,1.9,15.9,3.5c6.5,1.9,12.6,4.8,18.2,8.5c4.4,2.8,8,6.6,10.7,11c1.7,2.9,2.7,6.1,2.9,9.4
				c0.2,4-0.8,8-2.9,11.5c-2.5,4.1-5.9,7.7-9.9,10.4c-6.2,4.3-13.1,7.5-20.3,9.5c-4.6,1.3-9.3,2.3-14.1,3
				C75.4,105.8,70.3,106.2,65.2,106.2z"/>
			<path id="Path_456" class="st1" d="M18.7,62.1c0.6,0,1.2,0,1.8,0c0.8,0,0.9,0,1.1,0.8c0.6,2.3,1.2,4.7,1.8,7
				c0.1,0.3,0.2,0.6,0.3,0.9c0.1-0.3,0.3-0.5,0.4-0.8c0.8-2.4,1.6-4.8,2.3-7.2c0.1-0.5,0.5-0.8,0.9-0.7c0,0,0,0,0,0
				c1.2,0,2.3,0,3.5,0c0.5-0.1,0.9,0.2,1,0.7c0.8,2.5,1.6,4.9,2.5,7.3c0.1,0.2,0.2,0.5,0.4,0.7c0.1-0.2,0.2-0.4,0.2-0.7
				c0.6-2.4,1.3-4.9,1.9-7.3c0-0.4,0.4-0.8,0.9-0.8c0,0,0.1,0,0.1,0c1.2,0,2.4,0,3.6,0c0.8,0,0.8,0,0.6,0.8c-1.5,4-3,8.1-4.5,12.1
				c-0.5,1.4-0.5,1.4-2,1.4c-0.8,0-1.7,0-2.5,0c-0.5,0.1-1-0.2-1.1-0.7c0,0,0,0,0,0c-0.7-2.3-1.5-4.6-2.3-6.9c0-0.1-0.1-0.2-0.1-0.3
				c-0.1-0.1-0.1-0.2-0.2-0.3c-0.1,0.1-0.1,0.2-0.2,0.3c-0.5,1.4-0.9,2.8-1.4,4.2c-0.3,1.1-0.7,2.1-1,3.2c-0.1,0.4-0.4,0.7-0.8,0.6
				c0,0,0,0,0,0c-1.2,0-2.3,0-3.5,0c-0.5,0.1-0.9-0.2-1-0.7c-1.3-3.5-2.6-6.9-3.8-10.4c-0.3-0.9-0.7-1.8-1-2.7
				c-0.2-0.4,0-0.5,0.4-0.5C17.4,62.1,18,62.1,18.7,62.1z"/>
			<path id="Path_457" class="st1" d="M57,70.6c0,0.8,0,1.6,0,2.4c-0.1,1,0.1,2,0.5,3c0.2,0.4,0.1,0.5-0.3,0.5c-1.4,0-2.8,0-4.1,0
				c-0.2,0-0.5-0.2-0.6-0.4c-0.2-0.3-0.3-0.5-0.3-0.8c-0.1-0.4-0.2-0.5-0.5-0.2c-2,1.7-4.7,2.2-7.2,1.4c-2.1-0.4-3.5-2.4-3.1-4.5
				c0-0.1,0-0.2,0.1-0.3c0.1-1,0.8-1.8,1.7-2.2c1-0.4,2.1-0.8,3.2-1c1.5-0.4,3.1-0.7,4.6-1.1c0.3-0.1,0.7-0.3,0.8-0.5
				c0.1-0.5-0.1-1-0.5-1.3c-1-0.7-3.3-0.3-3.9,0.7c-0.2,0.4-0.7,0.7-1.1,0.6c-1.3-0.2-2.5-0.3-3.8-0.4c-0.5,0-0.6-0.2-0.4-0.7
				c0.4-1.7,1.8-3,3.5-3.3c2.6-0.6,5.2-0.6,7.8-0.1c2.4,0.4,3.8,2.3,3.9,5C57,68.3,57,69.4,57,70.6z M51.6,70.5c0-0.8,0-0.9-0.8-0.6
				c-0.7,0.2-1.4,0.4-2.1,0.6c-0.5,0.1-0.9,0.3-1.4,0.5c-0.5,0.3-0.8,0.9-0.7,1.5c0.1,0.6,0.6,1.1,1.2,1.1c1.7,0.3,3.3-0.7,3.7-2.4
				C51.6,71,51.7,70.7,51.6,70.5L51.6,70.5z"/>
			<path id="Path_458" class="st1" d="M83.2,70.6c-1.6,0-3.1,0-4.7,0c-0.7,0-0.8,0.1-0.6,0.8c0.4,1.5,1.8,2.4,3.3,2
				c0.5-0.1,0.9-0.3,1.2-0.6c0.4-0.4,1-0.6,1.6-0.5c1.2,0.1,2.4,0.2,3.5,0.3c0.8,0.1,0.8,0.1,0.4,0.9c-1,1.6-2.6,2.7-4.5,3
				c-1.8,0.3-3.6,0.4-5.4,0.1c-2.6-0.3-4.7-2.2-5.4-4.8c-0.8-2.4-0.4-5.1,1.1-7.1c1.1-1.5,2.8-2.4,4.6-2.7c1.7-0.3,3.5-0.2,5.1,0.2
				c2.6,0.5,4.6,2.7,5,5.3c0.1,0.8,0.2,1.6,0.2,2.3c0,0.8,0,0.8-0.8,0.8C86.3,70.6,84.7,70.6,83.2,70.6z M80.4,68h2.2
				c0.3,0,0.5,0,0.5-0.4c0-1.4-1.2-2.5-2.6-2.5c-1.4,0-2.6,1-2.7,2.4c-0.1,0.5,0.1,0.6,0.5,0.6C79,68,79.7,68,80.4,68L80.4,68z"/>
			<path id="Path_459" class="st1" d="M59.5,62.1c0.7,0,1.4,0,2.1,0c0.4-0.1,0.8,0.2,0.8,0.6c0,0,0,0,0,0c0.7,2.5,1.5,4.9,2.3,7.4
				c0,0.1,0,0.1,0.1,0.2c0.1,0.2,0.2,0.3,0.3,0.5c0.1-0.1,0.2-0.3,0.3-0.5c0.8-2.5,1.6-5,2.4-7.5c0.1-0.5,0.5-0.8,1-0.7c0,0,0,0,0,0
				c1.3,0,2.7,0,4,0c0.7,0,0.7,0.1,0.5,0.7c-1.9,4.4-3.7,8.7-5.6,13.1c-0.1,0.3-0.4,0.6-0.8,0.5c-1.2,0-2.4,0-3.6,0
				c-0.6,0-0.8-0.3-0.9-0.7c-1.5-3.6-3-7.1-4.4-10.7c-0.3-0.8-0.6-1.5-1-2.3c-0.2-0.4-0.1-0.6,0.4-0.6C58,62.1,58.8,62.1,59.5,62.1z
				"/>
			<path id="Path_460" class="st1" d="M88.5,86.1c0,1.7,0,3.4,0,5.1c0,0.8,0,0.8-0.8,0.8c-0.5,0-0.9,0-1.4,0c-0.8,0-0.8,0-0.8-0.8
				c0-2.2,0-4.5,0-6.7c0-0.3-0.1-0.6-0.1-0.9c-0.1,0.3-0.2,0.5-0.3,0.8c-0.6,2.3-1.2,4.6-1.8,6.9c0,0.5-0.5,0.8-0.9,0.8
				c0,0-0.1,0-0.1,0c-1.9,0-1.9,0-2.3-1.8c-0.5-2.1-1.1-4.2-1.6-6.3c0-0.1-0.1-0.2-0.1-0.4c0-0.1-0.1-0.1-0.2-0.1
				c0,0.1,0,0.1-0.1,0.2c0,0.3,0,0.5,0,0.8c0,2.2,0,4.5,0,6.7c0,0.8,0,0.8-0.8,0.8c-0.6,0-1.1,0-1.7,0c-0.3,0-0.5-0.1-0.4-0.4
				c0-0.1,0-0.2,0-0.4c0-3.4,0-6.9,0-10.3c0-0.8,0-0.8,0.9-0.8c1.1,0,2.1,0,3.2,0c0.4-0.1,0.9,0.2,0.9,0.6c0,0,0,0.1,0,0.1
				c0.4,1.9,0.9,3.7,1.4,5.6c0,0.1,0,0.2,0.1,0.4c0.1,0.1,0.1,0.2,0.2,0.3c0.1-0.1,0.1-0.2,0.1-0.3c0.1-0.5,0.3-1,0.4-1.5
				c0.4-1.5,0.8-3,1.2-4.5c0-0.4,0.4-0.7,0.8-0.7c0,0,0.1,0,0.1,0c1.1,0,2.3,0,3.4,0c0.7,0,0.7,0,0.8,0.7
				C88.5,82.6,88.5,84.4,88.5,86.1z"/>
			<path id="Path_461" class="st1" d="M25.7,86c0.1-1,0.2-2,0.4-2.8c0.3-1.7,1.6-3,3.3-3.1c0.8-0.1,1.7-0.1,2.5,0
				c1.7,0.2,3,1.5,3.3,3.1c0.5,1.9,0.5,3.9,0,5.8c-0.3,1.9-1.9,3.3-3.8,3.2c-0.8,0.1-1.6,0-2.4-0.2c-1.4-0.3-2.5-1.4-2.8-2.8
				C25.9,88.2,25.8,87,25.7,86z M28.9,86c0.1,0.9,0.2,1.9,0.4,2.8c0.1,0.6,0.6,1.1,1.3,1.2c0.7,0,1.2-0.5,1.3-1.2
				c0.2-0.5,0.2-1,0.2-1.5c0-1.3-0.1-2.7-0.3-4c-0.1-0.7-0.6-1.2-1.3-1.2c-0.7,0-1.3,0.5-1.3,1.2C29.1,84.2,29,85.1,28.9,86z"/>
			<path id="Path_462" class="st1" d="M41.3,80.1c1.1,0,2.2,0,3.3,0c0.5,0,0.7,0.2,0.6,0.6c0,2.4,0.3,1.9-1.8,2c-0.8,0-1.7,0-2.5,0
				c-1,0-1,0-1.1,0.9c-0.1,0.8-0.1,0.8,0.7,0.6c1.4-0.5,2.9-0.2,4.1,0.7c1.2,0.9,1.6,2.5,1.2,3.9c-0.3,1.6-1.5,2.8-3.1,3.1
				c-1.3,0.3-2.7,0.3-3.9-0.1c-1.2-0.4-2.1-1.3-2.5-2.4c-0.2-0.4-0.1-0.6,0.3-0.6c0.8-0.1,1.6-0.2,2.4-0.2c0.2,0,0.3,0.1,0.4,0.3
				c0.1,0.2,0.2,0.3,0.3,0.5c0.3,0.6,1,0.9,1.6,0.7c0.6-0.1,1.1-0.5,1.2-1.1c0.1-0.5,0.1-1,0.1-1.5c0-0.9-0.8-1.6-1.7-1.5
				c-0.4,0-0.7,0.2-1,0.4c-0.4,0.4-1,0.5-1.5,0.3c-0.4-0.1-0.9-0.2-1.3-0.2c-0.4,0-0.6-0.2-0.5-0.6c0.3-1.7,0.6-3.5,0.8-5.2
				c0.1-0.5,0.3-0.6,0.8-0.6C39.2,80.1,40.3,80.1,41.3,80.1z"/>
			<path id="Path_463" class="st1" d="M56,92c-1.4,0-2.8,0-4.2,0c-0.7,0-0.8-0.1-0.6-0.8c0.4-1.4,1.2-2.6,2.3-3.5c1-0.8,2-1.6,3-2.4
				c0.3-0.3,0.6-0.6,0.9-1c0.4-0.6,0.2-1.4-0.4-1.8c-0.1,0-0.1-0.1-0.2-0.1c-0.8-0.3-1.6,0-2,0.8c0,0.1-0.1,0.2-0.1,0.3
				c-0.1,0.5-0.3,0.6-0.8,0.5c-0.7-0.1-1.4-0.1-2.1-0.2c-0.4,0-0.6-0.2-0.5-0.7c0.2-1.6,1.5-2.9,3.1-3c1.1-0.1,2.2-0.1,3.2,0
				c1.4,0.1,2.5,1,2.9,2.3c0.5,1.3,0.1,2.8-1,3.7c-0.8,0.7-1.6,1.4-2.4,2c-0.3,0.2-0.6,0.4-0.9,0.7c-0.1,0.2-0.3,0.3-0.4,0.5
				c0.2,0.1,0.4,0.1,0.6,0.1c1.1,0,2.2,0,3.3,0c1,0,1,0,1,1c0,1.8,0.3,1.6-1.6,1.6C58.2,92,57.1,92,56,92z"/>
			<path id="Path_464" class="st1" d="M64.7,86.1c0-1.7,0-3.5,0-5.2c0-0.6,0.2-0.7,0.7-0.7c2.6,0,5.1,0,7.7,0c0.5,0,0.7,0.1,0.7,0.7
				c0,1.8,0,1.8-1.8,1.8c-1,0-2,0-3,0c-0.4,0-0.7,0.1-0.7,0.6c0,1.8-0.2,1.6,1.5,1.6c0.8,0,1.7,0,2.5,0c0.4,0,0.6,0.1,0.6,0.6
				c0.2,1.8,0.2,1.8-1.6,1.8c-0.7,0-1.4,0-2.1,0c-0.8,0-0.8,0-0.8,0.8c0,1.1,0,2.2,0,3.3c0,0.7,0,0.7-0.8,0.7c-0.7,0-1.4,0-2.1,0
				c-0.8,0-0.8,0-0.8-0.8C64.7,89.5,64.7,87.8,64.7,86.1z"/>
			<path id="Path_465" class="st1" d="M24.4,86c0,1.8,0,3.5,0,5.3c0,0.5-0.2,0.8-0.7,0.7c-0.6,0-1.2,0-1.8,0c-0.5,0-0.7-0.2-0.7-0.7
				c0-1.9,0-3.9,0-5.8c0-0.2,0-0.4,0-0.6c0-0.8-0.1-0.8-0.7-0.4c-0.7,0.4-1.5,0.7-2.3,1.1c-0.3,0.2-0.5,0-0.5-0.3c0,0,0-0.1,0-0.1
				c0-0.6-0.2-1.3,0.1-1.8c0.2-0.4,1-0.6,1.5-0.8c0.9-0.4,1.7-1.2,2.2-2.1c0.1-0.3,0.5-0.5,0.8-0.5c0.5,0,1,0,1.5,0
				c0.5,0,0.7,0.2,0.7,0.7C24.4,82.4,24.4,84.2,24.4,86z"/>
			<path id="Path_466" class="st1" d="M48.3,92.1c-0.4,0-0.8,0-1.2,0c-0.4,0-0.5-0.1-0.5-0.5c0-0.8,0-1.5,0-2.3
				c0-0.4,0.1-0.5,0.5-0.5c0.8,0,1.7,0,2.5,0c0.3,0,0.5,0.1,0.5,0.5c0,0.8,0,1.6,0,2.4c0,0.4-0.2,0.5-0.5,0.5
				C49.2,92,48.8,92.1,48.3,92.1z"/>
		</g>
	</g>
</g>
</svg>
