<?xml version="1.0" encoding="utf-8"?>
<!-- Generator: Adobe Illustrator 24.3.0, SVG Export Plug-In . SVG Version: 6.00 Build 0)  -->
<svg version="1.1" id="Layer_1" xmlns="http://www.w3.org/2000/svg" xmlns:xlink="http://www.w3.org/1999/xlink" x="0px" y="0px"
	 viewBox="0 0 296.4 157.6" style="enable-background:new 0 0 296.4 157.6;" xml:space="preserve">
<style type="text/css">
	.st0{fill:none;}
	.st1{fill:#FFFFFF;}
</style>
<rect class="st0" width="296.4" height="157.6"/>
<g>
	<path class="st1" d="M208.2,118.2c-0.7-0.9-1.7-1.6-2.2-2.6c-0.9-1.8-0.2-4.1,1.6-5.1c1.6-1,4.2-0.7,5.4,0.7
		c1.4,1.6,1.6,3.7,0.2,5.4c-0.5,0.6-1.2,1.1-1.8,1.6C210.4,118.2,209.3,118.2,208.2,118.2z M209.9,111.3c-2,1-2.5,1.7-2.2,3.2
		c0.2,1.1,1.1,1.9,2.2,2c1.1,0,2.3-1,2.5-2.1C212.6,113.2,211.8,112.2,209.9,111.3z"/>
	<path class="st1" d="M247.6,118.2c-1.2-1.1-2.4-2.1-2.6-4.3c0-0.1,0.1-0.7,0.3-1.2c0.8-2,1.9-2.8,4.1-2.8c2,0,3.3,0.9,3.9,2.7
		c0.6,1.6,0,3.5-1.5,4.8c-0.3,0.3-0.7,0.5-1,0.8C249.8,118.2,248.7,118.2,247.6,118.2z M251.9,114c-0.3-1.6-1.1-2.6-2.8-2.7
		c-1.9,1-2.3,1.9-2,3.3c0.2,1,1.1,1.8,2.1,1.8C250.9,116.5,251.6,115.5,251.9,114z"/>
	<path class="st1" d="M255.2,118.2c-0.1-2.7-0.5-5.4,0.2-8.3c2.6,0.9,3,3.5,4.9,4.8c0.1-1.6,0.2-3,0.3-4.5c0.2-0.1,0.4-0.1,0.5-0.2
		c0.3,0.4,0.9,0.9,0.9,1.3c0,2.3-0.2,4.6-0.4,6.9c-0.4,0-0.7,0-1.1,0c-1.3-1.7-2.6-3.4-4.1-5.3c-0.1,2-0.2,3.7-0.3,5.3
		C255.9,118.2,255.6,118.2,255.2,118.2z"/>
	<path class="st1" d="M183.4,118.2c-0.1-0.5-0.4-1.1-0.2-1.5c0.9-2.1,1.8-4.1,2.8-6.1c0.1-0.3,0.5-0.4,0.9-0.7c0.5,0.4,1,0.6,1.2,1
		c0.9,1.9,1.8,3.9,2.6,5.9c0.2,0.4-0.2,1-0.3,1.5c-0.2,0-0.4,0-0.5,0c-0.5-0.7-1-1.4-1.4-2c-1.2,0-2.1,0-3.1,0c-0.5,0.7-1,1.4-1.5,2
		C183.7,118.2,183.5,118.2,183.4,118.2z M186.9,112.2c-0.3,0.9-0.5,1.4-0.8,2.2c0.7-0.1,1.1-0.2,1.7-0.3
		C187.4,113.5,187.2,113,186.9,112.2z"/>
	<path class="st1" d="M193.1,118.2c-0.5-0.5-1.1-1.1-1.6-1.6c0.3-0.3,0.5-0.5,0.7-0.8c1.2,0.1,2.5,1.7,3.9,0.1
		c-0.9-1.5-2.9-0.9-4-2.4c-0.3-1-0.6-2.3,0.7-3.1c0.6-0.4,1.5-0.4,2.3-0.4c0.9,0,1.8,0.2,2.2,1.2c-0.1,0.2-0.3,0.4-0.3,0.6
		c-1.1,0.7-2.4-1.4-3.5,0.6c0.6,0.3,1.2,0.7,1.8,0.9c2.6,0.6,3.2,2.9,1.2,4.5c-0.1,0.1-0.2,0.3-0.3,0.4
		C195.2,118.2,194.2,118.2,193.1,118.2z"/>
	<path class="st1" d="M200.1,118.2c-0.5-0.5-1-0.9-1.6-1.4c0.2-0.3,0.3-0.6,0.5-1c1.3,0,2.6,1.7,3.9,0.1c-0.4-1.2-1.5-1-2.2-1.4
		c-1.3-0.6-2.1-1.5-1.9-2.5c0.2-1.2,1.2-2,2.7-2.1c1.1,0,2.2-0.1,3,1.1c-0.1,0.2-0.3,0.5-0.4,0.7c-1.1,0.5-2.5-1.4-3.4,0.6
		c1.3,0.6,2.5,1.2,3.6,1.7c1,1.8,0.2,3-0.8,4.1C202.3,118.2,201.2,118.2,200.1,118.2z"/>
	<path class="st1" d="M227.1,118.2c-0.2-0.3-0.3-0.6-0.5-1.1c1.2-2.4,1.8-5.2,3.9-7.4c0.6,0.5,1,0.8,1.2,1.1
		c0.9,1.8,1.8,3.7,2.5,5.6c0.2,0.5,0,1.2-0.1,1.7c-0.2,0-0.4,0-0.5,0c-0.5-0.7-1.1-1.4-1.5-2c-1.1,0-2.1,0-3.1,0
		c-0.5,0.7-0.9,1.4-1.3,2C227.5,118.2,227.3,118.2,227.1,118.2z M231.5,114.3c-0.3-0.8-0.6-1.3-0.9-2.2c-0.3,0.9-0.5,1.5-0.7,2.2
		C230.4,114.3,230.7,114.3,231.5,114.3z"/>
	<path class="st1" d="M217.9,118.2c-1.4-1-2.8-1.9-2.8-3.9c0-1.9,0.7-3.4,2.2-3.9c1.7-0.6,3.5-0.7,5,0.9c-0.3,0.4-0.5,0.7-0.7,1
		c-0.8-0.3-1.5-0.5-2.3-0.8c-1,0.2-1.9,0.6-2.3,1.6c-0.4,1-0.1,2.3,0.7,3c1.3,1.1,2.5,0.3,4-0.4c0.2,0.2,0.5,0.4,0.9,0.7
		c-0.9,0.8-1.5,1.3-2.1,1.8C219.7,118.2,218.8,118.2,217.9,118.2z"/>
	<path class="st1" d="M237.4,118.2c-0.2-0.9-0.5-1.9-0.6-2.8c-0.1-1.1,0-2.1,0-3.4c-0.8-0.3-1.6-0.6-2.6-0.9
		c0.3-0.4,0.5-0.9,0.7-0.9c1.9-0.2,3.8-0.4,5.7,0.1c0.1,1.5-1.3,1-1.9,1.6c-0.6,2,0.4,4.2-0.7,6.2
		C237.7,118.2,237.6,118.2,237.4,118.2z"/>
	<path class="st1" d="M224.4,118.2c-0.1-0.1-0.2-0.3-0.3-0.5c-0.8-2.5-0.4-5-0.2-8.1c0.8,0.8,1.3,1.1,1.4,1.4
		c0.1,2.4,0.5,4.8-0.3,7.1C224.8,118.2,224.6,118.2,224.4,118.2z"/>
	<path class="st1" d="M242.8,118.2c-0.2-0.6-0.6-1.1-0.7-1.7c-0.1-1.7-0.1-3.4,0-5.1c0-0.5,0.4-0.9,0.7-1.6c0.4,0.6,0.9,0.9,0.9,1.3
		c0.1,2.4,0.5,4.8-0.4,7.2C243.1,118.2,243,118.2,242.8,118.2z"/>
	<path class="st1" d="M119.9,48c1.8,0,4-0.2,6.1,0.1c3.7,0.5,6.3,3.9,6.1,7.4c-0.3,3.8-3,6.4-6.9,6.6c-1.9,0.1-3.7,0-5.8,0
		c-1.3-3.6-0.4-7.2-0.7-10.7C118.6,50.3,118.5,49.1,119.9,48z M122.4,58.9c2.2,0.5,4,0.3,5.3-1.6c0.9-1.2,0.8-3.6-0.2-4.8
		c-1.4-1.7-3.2-1.6-5.2-1.2C122.4,53.9,122.4,56.4,122.4,58.9z"/>
	<path class="st1" d="M140.3,47.8c4.3-0.4,7.6,3.3,7.6,7.2c-0.1,4.4-3.4,7.4-7.5,7.5c-4.2,0.1-7.7-3.2-7.7-7.4
		C132.8,50.3,136.7,47.5,140.3,47.8z M136.4,55.1c0,2.4,1.8,4.2,4,4.1c2.2,0,4-2,4-4.2c-0.1-2.2-2.1-4.3-4.1-4.2
		C138,50.9,136.4,52.7,136.4,55.1z"/>
	<path class="st1" d="M158.9,57c0.9,1.4,1.6,2.6,2.5,3.9c-0.6,0.6-1.1,1.1-1.5,1.6c-2.7-0.6-3.1-3.2-5.2-4.6c-0.2,0-0.9-0.1-1.6-0.1
		c-1,1.5,0.7,3.9-2,4.6c-1.1-0.2-1.7-0.9-1.7-2c0-3.6,0-7.2,0-10.8c0-0.5,0.4-0.9,0.7-1.6c2.4,0,4.9-0.2,7.2,0.1
		c3.8,0.5,5.4,4.7,3,7.8C159.9,56.3,159.4,56.5,158.9,57z M156.9,51.3c-1.3,0-2.7,0-4.3,0c0.2,1.3-0.3,2.4,0.4,3.6
		c1-0.1,2,0,2.9-0.2C157.9,54.2,158.2,53.3,156.9,51.3z"/>
	<path class="st1" d="M176.2,48.4c3.7-0.9,6.9-0.3,10.5-0.5c0.2,0.8,0.4,1.5,0.6,2.2c-2.4,1.7-5,0.5-7.4,1.2c0,0.5-0.1,1.1-0.1,1.9
		c2.1,0.1,4.1,0.3,6.3,0.4c0,1,0,1.7,0,2.4c-2.1,1-4.1,0.2-6.2,0.7c0,0.7,0,1.5,0,2.5c2.3,0,4.5,0,6.5,0c1.1,0.9,1.1,1.7,0.3,2.7
		c-3.2,0-6.4,0-10,0C175.8,57.5,176.5,53.1,176.2,48.4z"/>
	<path class="st1" d="M166.6,51.4c0.5,1.5,1.4,1.6,2.2,1.9c1,0.4,2.1,0.6,3,1.1c2.8,1.4,3.1,4.9,0.7,6.9c-2.3,1.9-7.5,1.4-9.3-1.1
		c-0.2-0.3-0.3-0.6-0.4-1c0.2-0.3,0.4-0.7,0.6-0.9c0.2-0.2,0.6-0.4,0.9-0.5c2.2,0.5,4.2,2.9,6.8,0.1c-1-0.5-1.8-0.9-2.6-1.2
		c-0.8-0.3-1.8-0.4-2.6-0.8c-1.9-0.8-2.7-2.1-2.6-3.9c0.1-1.8,1.1-3.3,2.9-3.9c2-0.6,4.1-0.5,6,0.4c1.2,0.6,1.7,1.5,1.3,2.3
		c-0.4,0.9-1.2,1.1-2.5,0.7c-0.8-0.3-1.5-0.7-2.3-0.8C168.1,50.8,167.4,51.1,166.6,51.4z"/>
	<path class="st1" d="M196.3,51.2c0,2.9,0,5.6,0,8.2c0,1.2-0.1,2.4-1.7,2.9c-0.4-0.2-1-0.4-1.7-0.7c0-3.4,0-6.8,0-10.3
		c-1.5-0.2-2.8-0.4-4.3-0.6c0.1-1,0.1-1.7,0.2-2.5c0.8-0.1,1.5-0.3,2.1-0.3c2.6,0,5.2,0,7.8,0c1,0,1.8,0.3,1.9,1.4
		c0.1,0.9-0.6,1.5-1.7,1.7c-0.4,0.1-0.7,0-1.1,0C197.4,51.1,197.1,51.2,196.3,51.2z"/>
</g>
<g>
	<path class="st1" d="M93.2,39.8c1.6,1.6,3.7,1.7,5.7,1.7c3.4-0.1,6.6,0.6,9.5,2.4c1.9,1.2,2.8,2.8,3,5.1c0.5,5.5,1.1,10.9,1.6,16.4
		c0,0.3,0.2,0.7,0.3,1.3c1.3,0,2.6,0.1,3.9,0c5-0.4,9.9-0.1,14.7,0.9c2.8,0.6,3.4,1.3,3.7,4.1c1.1,8.7,0.7,17.4,0.1,26.1
		c-0.2,3-2,4.9-5,5.3c-2.4,0.3-4.8,0.4-7.2,0.4c-3.9,0.1-7.8,0-11.8,0c-1.7,2.9-0.2,7-5.2,9.4c-3.6,0.2-8.6,0.7-13.6,0.8
		c-13.7,0.3-27.3,0.4-41,0.5c-4.7,0-9.1-1.1-13.1-3.6c-1.5-0.9-2.5-2.1-2.7-3.8c-0.4-4-0.8-8-1.2-12c-0.2-1.6-0.4-3.2-0.6-4.8
		c0-10.4,0-20.9,0-31.3c0.2-1,0.4-1.9,0.6-2.9c0.7-3.3,1.5-6.6,2.2-10c0.7-3.1,2.9-4.1,5.8-4.3c1.9-0.1,3.8-0.2,5.7-0.2
		c7.6,0,15.3,0,22.9,0.1c4.5,0,9,0.3,13.5,0c2.2-0.1,4.4-1.1,6.7-1.7C92.1,39.8,92.6,39.8,93.2,39.8z M67.3,107.2
		c-0.2-1.4-0.5-2.6-0.5-3.9c0-5.8-0.1-11.5,0-17.3c0-2-0.5-3.6-1.4-5.4c-4.6-8.6-9.1-17.2-13.6-25.8c-0.4-0.7-0.6-1.4-0.8-2.2
		c5.4-2.3,11.3-3.4,15.3-2.8c4.1,4.1,5,10.1,8.1,15.4c2.7-5.5,5.3-10.6,7.7-15.5c4.6-2,9.6-0.7,13.9-2.6c-0.9-0.3-1.7-0.4-2.6-0.4
		c-3.5-0.2-7-0.3-10.5-0.6c-11.3-1.1-22.7-2.3-34.1-1.5c-2.2,0.1-4.5,0-7.1,0c-1,2.1-2.8,4.1-2.9,6.2c-0.5,9-0.5,18-0.6,27
		c0,2.1,0.2,4.1,0.1,6.2c-0.3,7.5-0.3,14.9,1.6,22.2c0.5,1.9,1.5,2.9,3.3,3.4c4.7,1.4,9.6,1.7,14.4,1.6c4.6,0,9.1-0.6,13.7-1
		c2-0.2,4-0.9,6-1.1c2.4-0.2,4.9-0.2,7.3-0.1c6,0.2,12,0.4,18.1,0.5c2.9,0.1,3.5-0.6,3.6-3.4c0-0.7,0-1.4,0-2.2
		c-2.2-0.4-4.3-0.7-6.7-1.2c-1.2-11.9-3.8-23.5,0.5-35.1c3.1-0.3,5.8-0.6,8.3-0.9c2.5-7.1-1.1-12.7-3.2-19c-2.1-0.2-4.2-0.3-6.2-0.5
		c-0.5,0.7-0.8,1.1-1.1,1.6C92.5,59,87,69.1,81.5,79.2c-0.4,0.8-0.7,1.7-0.8,2.5c-0.3,4.1-0.4,8.3-0.6,12.4
		c-0.2,3.8-0.4,7.5-0.6,11.3c-0.1,1.2-0.5,2-1.8,2.3C74.3,108.5,71,108.1,67.3,107.2z M95,50c-4.2,0.4-7.9,0.8-11.4,1.1
		c-0.6,1.1-1,1.8-1.3,2.6c-2.3,4.7-4.6,9.4-6.9,14c-0.5,0.9-0.7,2.2-2.2,1.7c-1.7-6.3-4.1-12.2-7.5-17.5c-4.4-0.8-8,0.7-12.1,1.9
		c0.5,1.2,0.9,2.2,1.4,3.1c4.1,7.8,8.2,15.6,12.5,23.3c1,1.8,1.5,3.6,1.5,5.6c-0.1,5.5-0.1,11,0,16.5c0,1.1,0.1,2.1,0.2,3.2
		c2.9,1,5.6,1.1,8.6,0.1c0.4-6.6,0.8-13.2,1.1-19.7c0.2-3.7,0.8-7.2,2.7-10.5c4.1-7.2,8-14.5,11.9-21.8C93.8,52.6,94.2,51.6,95,50z
		 M133.5,101.7c0.5-4.5,0.6-8.5,1.4-12.5c1.1-5.5-0.1-10.9-0.4-16.3c-0.2-3.8-1.8-4.8-5.6-5c-0.6,0-1.3,0-1.9,0
		c-7.1,0.2-14.2,0.3-21.3,0.6c-1.6,0.1-3.2,0.4-5.1,0.7c-0.4,1.2-1,2.4-1,3.5c0.1,8.3,0.3,16.7,0.6,25c0.1,3.5,1.9,4.9,5.5,4.6
		c1.5-0.1,3-0.4,4.5-0.4c6.4-0.1,12.8,0,19.1,0C130.7,101.9,131.9,101.8,133.5,101.7z"/>
	<path class="st1" d="M184.4,103.2c-0.5-4.2-1.2-7.9-1.3-11.5c-0.2-5.7-0.1-11.3-0.1-17c0-3.8,1.6-5.4,5.4-5.5c3.7-0.1,7.3,0,11,0
		c4.7,0,9.3-0.1,14-0.1c1,0,2,0.2,2.9,0.5c2.5,0.7,3.1,1.4,3.1,4c0,7.3,0.1,14.6,0,21.9c0,1.6-0.2,3.2-0.5,4.8
		c-0.4,2.5-1.6,3.7-4.1,3.7c-4.6,0.1-9.2,0.1-13.8,0.1c-3.1,0-6.1,0.2-9.2,0.1C189.5,104.1,187.2,103.6,184.4,103.2z M184.7,101.4
		c2,0.4,3.7,1,5.5,1.1c1.9,0.1,3.9-0.3,5.9-0.3c5.7-0.1,11.3,0,17-0.1c3.3-0.1,4.5-1.2,5-4.4c0.2-1.4,0.4-2.9,0.3-4.3
		c-0.1-4.2-0.1-8.4-0.4-12.7c-0.2-3.3-0.9-6.5-1.3-9.8c-1-0.1-1.6-0.3-2.2-0.3c-6.7-0.2-13.5-0.4-20.2-0.6c-2.1-0.1-4.3,0-6.4,0.1
		c-1.5,0-2.6,0.7-2.9,2.3c-0.4,1.9-1,3.9-1,5.8C184.1,85.8,184.4,93.4,184.7,101.4z"/>
	<path class="st1" d="M226.4,102.7c-1.2-9.3-2.4-18.4-0.8-27.6c0.1-0.9,0.4-1.7,0.5-2.6c0.2-1.6,1.2-2.5,2.7-2.9
		c1.4-0.3,2.7-0.8,4-1c6.6,0,13.1,0,19.7,0c1.6,0,3.2,0.2,4.8,0.4c2.9,0.4,4.4,2,4.7,5c0.3,3,0.6,6.1,0.6,9.1
		c-0.1,5.3-0.4,10.6-0.8,15.9c-0.3,4-1.8,5.4-5.8,5.5c-5.6,0.1-11.1,0-16.7,0.1c-1.8,0-3.6,0-5.4,0.2
		C231.1,105.2,228.8,104.1,226.4,102.7z M228,70.8c-0.5,2.1-1.4,3.9-1.3,5.7c0,7.8,0.2,15.6,0.5,23.5c0.1,2.4,1.3,3.7,3.8,3.7
		c7.9,0.1,15.8,0.3,23.7-0.9c1.7-0.3,3.3-0.3,5.4-0.5c0.6-3.4,1.3-6.5,1.6-9.7c0.3-3.3,0.3-6.7,0.1-10c-0.2-3.2-0.6-6.4-1.4-9.5
		c-0.7-2.7-1.3-2.9-4.1-2.9c-7.7,0-15.3-0.1-23,0C231.6,70.1,230,70.5,228,70.8z"/>
	<path class="st1" d="M176.4,69.9c2,6.9,2.4,14,1.7,21.1c-0.3,3.1-0.9,6.2-1.4,9.3c-0.3,1.9-1.3,2.9-3.1,3.1
		c-1.4,0.2-2.8,0.5-4.3,0.5c-7.5,0-15.1,0-22.6,0c-2.9,0-4.7-1.3-5.6-4.1c-0.2-0.5-0.3-1-0.3-1.6c-0.2-6.6-0.6-13.1-0.5-19.7
		c0-2.6,1-5.3,1.6-7.9c0.4-1.4,1.4-2.2,3-2.2c5.8,0,11.7,0,17.5-0.1c1.2,0,2.4-0.1,3.4-0.5C169.9,66.5,173.1,68.3,176.4,69.9z
		 M141.7,80.4c0.2,3.3,0.5,6.1,0.6,8.9c0.1,2.9,0,5.8,0.1,8.6c0,3.4,1.4,5,4.8,5.2c4.6,0.3,9.3,0.5,14,0.5c3.4,0,6.8-0.4,10.2-0.5
		c2.2-0.1,3.8-1,4.5-3.1c0.5-1.3,0.8-2.7,0.9-4.1c0.2-2.3-0.2-4.7,0.2-7c0.5-3,0.2-5.9-0.3-8.8c-0.4-2.3-0.8-4.6-1-6.9
		c-0.2-1.8-1-3.1-2.8-3.5c-1.1-0.3-2.3-0.5-3.4-0.5c-3.9,0-7.9,0-11.8,0.1c-3.5,0.1-7,0.3-10.5,0.5c-3.4,0.3-4.5,1.4-4.9,4.9
		C142,76.6,141.9,78.8,141.7,80.4z"/>
	<path class="st1" d="M131.6,85.6c0.1,7.3-4.8,13.9-11.6,15.6c-4.4,1.1-8.1-0.7-10.9-3.8c-7.4-8.2-6.7-19.6,2.3-26.5
		c4.4-3.4,12.7-3.6,17.1,3.7C130.5,78.1,131.6,81.8,131.6,85.6z M105,84.9c0.8,2.6,1.1,5.5,2.4,7.9c5,9.6,14.9,9,20.1,1.6
		c5-7.1,2.3-16.9-2.3-21.6c-3.8-4-9.1-3.5-12.6-1.2C108.2,74.6,105.5,79.1,105,84.9z"/>
	<path class="st1" d="M197.3,80.7c-2-0.4-3.6-0.7-5.7-1.1c-0.2-2.4-0.4-4.9-0.7-7.7c6.9-0.3,13.4-0.1,20.2,0.6c0,2.3,0,4.6,0,7.1
		c-1.7,0.2-3.3,0.3-5.2,0.5c0,6.6,0,13.1,0,19.6c-2.7,1.9-3.7,2-8.3,1.2C197.4,94.2,197.3,87.5,197.3,80.7z M192.8,78.2
		c1.8,0.4,3.6,0.9,5.6,1.4c0.1,6.7,0.2,13.3,0.3,20c1.4,0.1,2.3,0.2,3.1,0.2c2.4,0,3.1-0.6,3.1-3c0-2-0.3-3.9-0.4-5.9
		c-0.1-3.9,0-7.8,0-11.8c1.8-0.2,3.3-0.4,4.8-0.6c0-1.7,0-3.2,0-5.1c-5.7,0-11,0-16.5,0C192.8,74.8,192.8,76.3,192.8,78.2z"/>
	<path class="st1" d="M240.2,71.9c0,3.7,0,6.9,0,10.4c2.2,0.2,4,0.5,6.2,0.7c0.3-1.8,0.5-3.4,0.7-4.9c0.2-1.6,0.4-3.2,0.6-5.1
		c2.8,0,5.4,0,8.3,0c-0.4,9.5-0.8,19-1.2,28.9c-2.4-0.2-4.6-0.4-7.2-0.6c0-4,0-7.6,0-11.5c-2.4,0.1-4.4,0.2-6.7,0.3
		c-0.3,3.4-0.5,6.6-0.8,10c-2.8,0.3-5.1,0.5-7.7,0.7c-0.2-1-0.4-1.7-0.4-2.3c-0.2-8-0.3-16-0.4-24c0-0.8,0.1-1.6,0.2-2.7
		C234.4,71.9,237,71.9,240.2,71.9z M238.8,99.1c0.3-3.4,0.6-6.6,0.9-9.9c3.2-0.9,6.2-1.1,9.3-0.1c0,3.8,0,7.3,0,11.1
		c1.6,0,3,0,4.5,0c0.4-8.8,0.9-17.3,1.3-26c-2.2,0-4,0-5.9,0c-0.4,3.4-0.8,6.5-1.1,9.9c-3-0.1-5.9,0.6-8.9-0.8c0-3.3,0-6.6,0-10.2
		c-2.1,0-3.8,0-5.5,0c-0.8,3-0.6,24.1,0.2,26.1C235.3,99.1,236.9,99.1,238.8,99.1z"/>
	<path class="st1" d="M171.5,69.9c0,2.2,0,3.9,0,5.6c-0.2,5.3,0.1,10.6-0.6,15.9c-1.5,11.2-12.8,12.7-18.9,8.6c-1-0.7-2-1.7-2.5-2.7
		c-0.9-1.9-1.9-4-2-6.1c-0.3-6.1-0.1-12.2-0.1-18.2c2.8-1.6,5.2-2,7.7-1.1c0.2,2.3,0.6,4.8,0.7,7.3c0.1,2.6,0,5.2,0.1,7.8
		c0,1.2,0.2,2.5,0.5,3.7c0.3,1.4,1.1,2.5,2.7,2.6c1.7,0,2.8-1.1,3-2.6c0.4-2.3,0.4-4.6,0.4-6.9c0.1-4.2,0-8.4,0-12.9
		C165.4,70.5,168.2,70.3,171.5,69.9z M148.8,73.5c-0.2,3.7-0.5,6.7-0.4,9.7c0.1,3.5,0.4,7,1.1,10.4c0.4,1.7,1.4,3.7,2.7,4.8
		c4.4,3.8,11.5,2.6,14.6-1.1c2-2.5,3-5.3,3.1-8.4c0.1-2.2,0.2-4.5,0.4-6.7c0.2-3.6,0.2-7.1-0.8-10.8c-2,0.3-3.9,0.5-5.9,0.7
		c0,2.9,0,5.4,0,7.9c-0.1,3.7,0.1,7.4-0.3,11c-0.3,2.4-2.5,3.9-4.3,3.7c-2.2-0.2-4-2-4.1-4.6c-0.3-4.1-0.4-8.2-0.5-12.4
		c-0.1-1.6-0.1-3.2-0.2-5.3C152,72.9,150.3,73.2,148.8,73.5z"/>
	<path class="st1" d="M118.1,93.8c-2.1,0.3-3.5-0.7-4.8-2.1c-3.9-4.1-3-10,0.1-13.5c2.3-2.6,4.9-2.8,7.6-0.5c3,2.6,4,5.9,3.3,9.7
		c-0.2,1.1-0.7,2.2-1.2,3.3C122.1,92.9,120.6,94.2,118.1,93.8z M123.2,85.6c0.1-3-1.2-5.2-3.3-6.9c-1.5-1.3-3.5-1.3-4.9-0.1
		c-3.8,3.1-3.8,9.7-0.1,12.9c2.5,2.1,5.5,1.6,6.9-1.4C122.4,88.7,122.7,87.1,123.2,85.6z"/>
</g>
</svg>
