<?xml version="1.0" encoding="UTF-8"?>
<svg enable-background="new 0 0 802.3 329.9" version="1.1" viewBox="0 0 802.3 329.9" xml:space="preserve" xmlns="http://www.w3.org/2000/svg">
<style type="text/css">
	.queens{fill:#FFFFFF;}
</style>
<g transform="translate(-7.308 -42.447)">
	<path class="queens" d="m248.9 274c0.2 0.5 0.3 1.1 0.3 1.6v64.5c0.1 1.2-0.5 2.4-1.6 3-7.5 4.9-14.9 9.9-22.5 14.6-3.2 1.8-6.5 3.4-9.9 4.7-3.5 1.5-6.9 2.9-10.5 4-3.3 1.1-6.8 1.8-10.2 2.5-4.2 0.9-8.6 1.3-12.7 2.5-2.4 0.6-4.9 0.9-7.3 0.8-7.9 0-15.8 0.1-23.7-0.1-3.2-0.2-6.3-0.7-9.4-1.4-3.7-0.7-7.4-1.3-11-2.1s-7.3-1.7-10.8-2.8c-3.8-1.1-7.6-2.3-11.3-3.7-2.7-1-5.4-2.1-8-3.4-4-1.9-7.9-3.8-11.7-6-5-2.9-9.8-6.1-14.5-9.4-7-4.9-13.6-10.6-19.5-16.8-7.1-7.2-13.3-15.2-18.7-23.7-4.1-6.8-8.1-13.7-11.5-20.8-2.8-5.9-5.2-11.9-7.1-18.1-2.4-7.4-4.3-14.9-6.1-22.4-1-4.4-1.3-8.9-2.2-13.4-1.6-13.6-2-27.4-1.2-41.1 0.2-3.3 0.7-6.6 1.5-9.7 1.2-6.5 2.1-13.2 3.9-19.6 2-7.1 4.3-14.1 7.1-20.9 2.3-5.7 5-11.3 7.9-16.7 4.7-8.7 10.4-16.9 16.9-24.4 6.1-7.1 12.8-13.6 20-19.4 4.2-3.4 8.7-6.4 13.3-9.2 5.2-3.2 10.5-6.2 16-8.8 6-2.8 12.2-5.2 18.5-7.3 6-2 12.2-3.5 18.3-5 3-0.8 6.2-1.1 9.2-1.6 3.2-0.6 6.5-1.2 9.7-1.8 0.7-0.1 1.3-0.2 2-0.2 13.2 0 26.5-0.1 39.7 0.1 2.8 0.1 5.7 0.5 8.5 1.1 5.3 0.9 10.6 2 15.8 3 3.5 0.7 7.1 1.3 10.6 2.3s6.8 2.2 10.1 3.4c5.4 2.1 10.9 4 16.1 6.6 5.6 2.8 10.9 6.1 16.3 9.3 6.6 4.1 12.7 8.9 18.4 14.2 13 12.2 23.3 26.8 30.4 43.2 2.2 5.3 4.4 10.6 6.1 16 1.5 5 2.8 10 3.7 15.2 1.2 6 2.1 12.1 2.8 18.3 0.4 4.7 0.6 9.3 0.6 14v170.4c0 1.4 0.1 2.9 0.2 4.3 0.1 1.2-0.4 1.8-1.6 1.8h-1.3-52.5c-2.8 0-2.8 0-2.8-2.7v-174.5c0.1-7.5-0.7-15.1-2.4-22.4-1.4-5.9-3.4-11.6-6.1-17.1-4.5-9.4-10.9-17.8-18.6-24.8-3.6-3.1-7.5-6-11.5-8.6-3.2-2.2-6.6-4.1-10.1-5.8-4.1-2-8.4-3.6-12.7-5.2-2.8-1.1-5.7-2-8.6-2.8-2.6-0.7-5.2-1-7.9-1.5-1.1-0.2-2.1-0.7-3.1-0.9-5.4-0.9-10.9-1.4-16.4-1.4-5.9 0.2-11.8-0.2-17.7 0.2-3.6 0.4-7.2 1.1-10.7 2-1.7 0.3-3.4 0.7-5.1 1.1-2.5 0.7-5 1.4-7.5 2.3-2.7 0.9-5.4 1.9-8 3-4.5 2.1-8.9 4.4-13.2 7-6.3 3.8-12.1 8.6-17.1 14-4.1 4.7-8 9.5-11.5 14.6-2.6 3.6-4.9 7.4-6.8 11.5-2.4 5.2-4.6 10.4-6.4 15.8-1.6 4.8-2.9 9.7-3.9 14.6-0.8 4.2-1.3 8.4-1.7 12.6-0.5 3.8-0.7 7.7-0.6 11.5 0.3 6.6 0.9 13.3 1.7 19.9 1 7.5 3 14.9 5.9 22 3.2 8.2 7.4 16 12.4 23.2 5.7 8.1 12.5 15.4 20.3 21.6 6.5 5.4 13.8 9.7 21.6 12.9 4.7 2 9.5 3.7 14.3 5.2 4.2 1.2 8.8 1.4 13.1 2.4 5.1 1 10.4 1.4 15.6 1.2 5.8 0.1 11.6-0.6 17.2-2.1 4.3-1.2 8.6-2.2 12.8-3.7 3.6-1.4 7.2-3 10.5-5 4.5-2.6 9-5.3 13.3-8.2 3.3-2.4 6.5-5 9.4-7.8 4.2-4 8.1-8.2 12.1-12.4 0.9-1.1 1.8-2.3 2.6-3.5l0.5 0.2z"/>
	<path class="queens" d="m562.4 352.8h-186.3-1.6c-1.4 0.1-1.9-0.5-1.8-1.9v-0.7-62.5c0-2.5 0-2.5 2.4-2.5h145.8c2.4 0 2.3 0 2.2 2.4-0.1 2-0.1 4 0 5.9 0.1 2.3-0.1 2.6-2.4 2.6h-3.5c-0.7-0.1-1.4 0.4-1.5 1.1v0.4c0 5.1-0.3 4.8 4.4 4.7 0.4 0 0.9 0 1.3-0.1 1.4-0.2 1.8 0.4 1.8 1.7v15c0 3.8-0.2 7.6-0.2 11.4-0.2 2.7 0.6 5.3 2.3 7.4 1.5 1.4 3.5 2.1 5.6 2 2.2 0.2 4.4 0 6.6 0.1 1.3 0 2-0.6 1.7-2 0-0.3-0.1-0.7 0-1 0-3 0-3-3.1-3-0.6 0-1.1 0-1.6-0.1-3.3-0.7-4.2-1.1-4.2-4.7 0.1-8.1 0-16.1 0-24.2 0-2.5 0.1-2.6 2.6-2.6h4.5c1.3 0 2.1-0.6 1.9-2.1 0-0.3-0.1-0.7-0.1-1-0.1-3.2-0.1-3.2-3.2-3.2h-4.1c-0.8 0.1-1.5-0.4-1.6-1.2v-0.5-7.9c0-1 0.4-1.4 1.4-1.4h1.5 216.5 1.3c1.2-0.1 1.7 0.4 1.5 1.7-0.1 0.8-0.1 1.5-0.1 2.3v59.4 1.2c0 3 0.1 3-3.1 3l-186.9 0.3zm-108.6-32.8h14.4c1.5 0 2.3-0.5 2.1-2.1-0.2-2.5-0.5-4.9-1-7.3-1.4-8.1-8-14.3-16.2-15.2-10.3-1.3-19.9 5.5-22.2 15.6-1.5 5.8-1.1 11.8 1.1 17.4 1.3 3.9 3.8 7.2 7.2 9.4 4.7 2.8 10.3 3.8 15.8 2.8 6.8-0.9 12.4-5.8 14.2-12.4 0.3-1.2-0.1-1.8-1.4-1.8h-3.1c-1 0-1.9 0.6-2.2 1.6-0.5 1.2-1.2 2.4-2 3.4-3.1 3.3-7.7 4.7-12.1 3.6-6.4-0.8-11.1-6.2-11.1-12.7-0.2-1.9 0.2-2.2 2.2-2.2 4.7-0.1 9.5-0.1 14.3-0.1zm138.3 0h14.4c2 0 2.2-0.2 2.2-2.2 0-4.2-1-8.3-2.8-12.1-3.7-8.2-12.9-12.5-21.5-10-7.9 1.8-13.9 8.2-15.2 16.2-0.9 4.2-0.9 8.6 0.2 12.8 1 6.3 5 11.7 10.8 14.4 4.1 1.7 8.6 2.2 13 1.5 6.8-0.7 12.6-5.5 14.5-12.1 0.4-1.5 0-2.1-1.7-2.2-0.7 0-1.4 0.1-2.2 0-1.6-0.2-2.3 0.6-3 2-0.6 1.5-1.6 2.8-2.8 4-4 3.3-9.7 4-14.4 1.7-4.7-2-7.8-6.5-8-11.7-0.2-1.9 0.2-2.3 2.1-2.3h14.4zm-109.1-17.4h-0.6c-0.1-0.8-0.2-1.6-0.2-2.5 0-4.1 0.4-3.9-3.8-3.9-2.4 0-2.5 0.1-2.5 2.5v36.7c0 4.9-0.6 4.4 4.4 4.4 2.4 0 2.5-0.1 2.5-2.6v-23.5c-0.3-6.2 4.2-11.6 10.3-12.5 5-1.6 10.3 1.2 11.9 6.2 0.4 1.2 0.5 2.5 0.4 3.7-0.3 8.6-0.1 17.3-0.1 26 0 2.6 0 2.6 2.7 2.6h2c1.4 0.1 1.9-0.6 1.9-2 0-9.5 0-19.1-0.1-28.6 0.1-3-0.7-6-2.3-8.5-2.2-3.2-5.9-5.2-9.8-5.4-4.7-0.9-9.6 0.4-13.4 3.4-1.1 1.4-2.2 2.7-3.3 4zm-90.9 15.2c0.1-1.1 0.3-3 0.7-4.8 0.5-6.8 6.2-12 13-11.9 4.3-0.7 8.5 1.5 10.3 5.4 0.7 2.5 3.3 4 5.8 3.3h0.1 0.5c1.8 0 2.1-0.5 1.7-2.3-1.2-5.4-5.3-9.7-10.7-11.2-3.6-1.1-7.4-1.4-11.1-0.9-6.5 0.6-12.2 4.7-14.7 10.8-3.1 6.9-3.5 14.8-1 21.9 1.6 5.5 5.9 9.9 11.4 11.5 4.9 1.6 10.1 1.6 14.9 0 6.2-2.2 10.6-7.6 11.5-14.1 0.1-0.9-0.2-1.3-1-1.3-1.4-0.1-2.9 0-4.3 0.1-0.6 0.2-1.1 0.6-1.4 1.1s-0.5 1.1-0.6 1.7c-1.4 4.5-5.4 7.6-10.1 7.9-4.3 0.7-8.6-1.1-11.3-4.5-2.6-3.7-3.9-8.1-3.7-12.7zm161-12.8-0.8-0.1v-4.8c0-4.1 0.4-3.8-3.8-3.8-2.3 0-2.4 0.1-2.4 2.4v37.4c0 4.1-0.4 3.8 3.9 3.8 2.8 0 2.7 0 2.8-2.7-0.3-7.7-0.1-15.3 0.6-23 0.9-5.8 5.3-10.4 11.1-11.4 1.4-0.2 3.5-0.1 4.1-1 0.8-1 0.3-2.9 0.4-4.5 0-1.9-0.4-2.2-2.3-2-5.2 0.3-9.8 3.3-12.3 7.8-0.4 0.7-0.8 1.3-1.3 1.9z"/>
	<path class="queens" d="m454.1 208.4v-31.4c0-2.4 0.1-2.5 2.5-2.5h11.7c2.1 0 2.3 0.2 2.3 2.3 0 19 0.1 37.9 0 56.9-0.1 4.7 1.3 9.3 4 13.2 1.9 2.5 4.6 4.2 7.6 5 1.4 0.6 2.9 0.9 4.5 0.9 4.4 0.2 8.6-1.1 12.2-3.6 2.8-2.3 4.9-5.5 5.7-9.1 0.9-3.6 1.3-7.4 1.1-11.1v-52.1c0-2.5 0-2.5 2.5-2.5h11.6c2.3 0 2.4 0.1 2.4 2.4v51.5 5.1c-0.1 4 0.9 7.9 3 11.4 1.9 4.1 5.9 6.8 10.4 7.2 1.3 0 2.5 0.8 3.8 0.8 5.5 0.4 10.9-2 14.2-6.5 1.4-2 2.4-4.3 2.9-6.7 1-2.7 1.2-5.6 0.5-8.4-0.1-0.5-0.1-1.1-0.1-1.6v-51.5-1.6c0-1.1 0.9-2 2-2h0.2 12.9c1.2 0 1.7 0.5 1.7 1.7v1.5 54.9c0 3.1-0.1 6.2-0.3 9.2-0.2 1.5-0.6 2.9-1.1 4.3-1.9 6.1-5.7 11.5-10.8 15.4-4.4 3.4-9.6 5.5-15 6.3-2.1 0.4-4.2 0.7-6.4 0.7-5.6-0.1-11-1.6-15.9-4.4-2.5-1.6-4.9-3.4-7.3-5.3-0.7-0.6-1.1-1.5-1.7-2.2-1.1-1.2-1.8-1-2.9 0.3-1.5 1.6-3.1 3.2-4.8 4.6-1.1 0.9-2.3 1.7-3.5 2.4-3.7 2.3-8 3.7-12.4 4.1-1.3 0.2-2.6 0.6-3.9 0.6-6.1 0.1-12.2-1.5-17.5-4.6-3.6-1.7-6.7-4.2-9.2-7.3-3-3.8-5.1-8.2-6.3-12.9-0.7-3.7-0.9-7.5-0.8-11.3 0.1-8.1 0.2-16.1 0.2-24.1z"/>
	<path class="queens" d="m785 195.5c-2.6-1.3-5-2.7-7.6-3.7-3.6-1.8-7.5-2.9-11.5-3.2-1.6 0-3.2-0.7-4.7-0.6-5.9 0-11.6 1.6-16.6 4.6-4.5 3.1-8.1 7.4-10.3 12.4-1.7 3.7-2.6 7.7-2.6 11.8-0.1 3.6 0 7.2 0.4 10.7 0.5 2.9 1.3 5.6 2.6 8.3 1.4 3.3 3.5 6.3 6.1 8.7 4.3 4 9.8 6.6 15.6 7.4 1.7 0.4 3.3 0.7 5 0.9 5.9 0.1 11.7-1.5 16.7-4.7 3.9-2.7 7-6.2 9.1-10.4 1.8-3.8 3.2-7.8 4.2-11.9 0.2-1 0.3-2 0.3-2.9 0.3-4.1 0.8-8.2 0.8-12.3 0.1-24.7 0-49.4 0-74.1v-1.5c-0.3-3.4 0.2-3.1 3.1-3.2h11.7c1.5 0 2.1 0.5 2.1 2 0 29.9-0.1 59.8-0.1 89.7-0.1 1.1-0.4 2.2-0.9 3.3-1 3.6-1.8 7.3-3.1 10.9-1.1 3-2.4 5.9-3.9 8.7-2.9 5-6.8 9.4-11.5 12.9-3.8 3-8 5.2-12.6 6.6-5.5 2-11.3 2.8-17.2 2.5-4.7-0.3-9.4-1.2-13.9-2.6-4.7-1.6-9.1-3.9-13-6.9-3.6-2.4-6.6-5.6-8.8-9.3-1.2-2-2.6-3.9-3.7-6-1.4-2.7-2.6-5.5-3.6-8.4-1.7-4.9-2.5-10.1-2.4-15.4-0.3-3.8 0-7.6 1-11.3 0.9-2.4 1.2-5.2 2.2-7.5 1.3-3.7 3.3-7.2 5.9-10.2 2.2-2.2 3.9-4.8 6.1-6.9 1.7-1.7 3.7-3.1 5.8-4.3 3.1-1.8 6.4-3.3 9.7-4.7 2.3-0.9 4.6-1.4 7-1.7 3.2-0.6 6.4-0.8 9.6-0.7 4.8 0.2 9.5 1.1 14 2.6 2.1 0.9 4.3 1.6 6.4 2.5 1.6 0.5 2.6 2 2.6 3.7v12.6c0.3 0.6 0.2 1.1 0 1.6z"/>
	<path class="queens" d="m447.8 140v26.3c0 2.6-0.1 2.6-2.7 2.6-4-0.1-8 0-12.1 0.1-0.9 0.2-1.9-0.4-2.1-1.4v-0.4-1.5-49.5c0.2-6.9-2.7-13.6-8-18.1-4.2-3.6-9.3-6-14.7-6.9-3.7-0.8-7.5-1-11.3-0.6-6.5 0.8-12.5 3.7-17.1 8.4-4.9 5.1-8 11.7-8.9 18.7-0.6 4.3-0.4 8.6 0.6 12.8 1.1 5.8 4.1 11 8.5 15 2.1 2 4.4 3.7 6.9 5.3 2.6 1.7 5.6 2.6 8.7 2.8 0.8 0.1 1.6 0.2 2.4 0.5 1.9 0.6 4 0.5 5.9-0.1 1.8-0.5 3.6-0.8 5.4-1.3 4-1.3 7.6-3.5 10.6-6.4 1-0.9 1.9-2 2.9-3 0.3-0.2 0.7-0.4 1.1-0.5 0.2 0.4 0.3 0.7 0.4 1.1 0 5.2-0.1 10.5 0 15.7 0.2 1.5-0.6 3-2 3.7-3 1.9-6.2 3.5-9.4 5-5.3 2.3-11.2 3.1-17 2.2-1-0.2-2.1-0.2-3.1-0.4-2.6-0.4-5.1-1-7.7-1.6-6.5-2.1-12.4-5.8-17.3-10.6-4.1-3.9-7.3-8.6-9.4-13.9-1.8-4.4-3.2-8.9-4.2-13.5-0.5-3.9-0.6-7.9-0.5-11.9 0-0.6 0.1-1.2 0.1-1.8 0.3-6.3 1.9-12.5 4.9-18.2 3-6.2 7.6-11.6 13.2-15.7 3.2-2.3 6.6-4.1 10.3-5.4 6.6-2.6 13.6-3.8 20.7-3.6 4.4 0.3 8.7 1 13 2 6.8 1.4 13 4.5 18.2 9 3.2 2.7 5.9 6 8 9.6 4 7 6 15 5.8 23.1-0.2 7.5-0.1 15-0.1 22.4z"/>
	<path class="queens" d="m423.6 241.5c0.1 0.7 0.2 1.4 0.3 2.2v14c0.2 1.1-0.4 2.1-1.3 2.6-3.2 1.8-6.2 3.8-9.4 5.4-1.8 0.8-3.8 1.4-5.8 1.7-2.6 0.5-5.2 0.9-7.8 1-8.3 0.1-16.5-2.1-23.5-6.5-4.3-2.5-8.1-5.9-11.2-9.9-3.3-4.1-5.9-8.7-7.8-13.7-1.2-3.5-2-7.2-2.5-10.9-0.5-3.3-0.8-6.6-0.7-10 0.1-7.4 2-14.6 5.4-21.2 5.2-10.2 14.3-17.8 25.2-21.2 3.4-1 6.9-1.5 10.4-2.2 3.1-0.6 6.3-0.9 9.4-0.7 3.3 0.3 6.6 0.8 9.8 1.7 2.8 0.7 5.5 1.5 8.2 2.5 1.7 0.6 3.4 1.4 4.9 2.3 2.1 1.1 4 2.5 5.8 4.1 3.2 2.7 6 5.8 8.4 9.3 1.9 3.3 3.4 6.9 4.5 10.6 1.7 6.3 2.3 12.9 1.9 19.4v42c0 2.3-0.1 2.5-2.4 2.5h-11.7c-2.3 0-2.4-0.1-2.4-2.5v-50.1c0.2-7.8-3.5-15.2-9.9-19.7-4.4-3.4-9.7-5.3-15.3-5.5-1.6 0-3.3-0.7-4.9-0.6-6.5-0.2-12.9 1.8-18.2 5.7-2.7 2.3-5.1 4.9-7.2 7.9-1.6 2.3-2.9 4.8-3.8 7.4-0.8 2.4-1.3 5-1.6 7.5-0.3 2.6-0.3 5.3 0 7.9 0.5 3 1.2 6 2.2 8.9 1.8 5.2 5.1 9.7 9.5 13 3.8 3.2 8.5 5.2 13.4 5.7 1.4 0.3 2.9 0.6 4.3 0.8 6.1 0.1 12.1-2 16.9-5.8 2.2-1.9 4.5-3.6 6.9-5.6z"/>
	<path class="queens" d="m647.4 240.9c0.2 0.5 0.3 1 0.3 1.6v14.2c0.1 1.5-0.6 2.9-1.8 3.7-5.1 3.9-11.2 6.5-17.6 7.4-1.7 0.3-3.4 0.5-5 0.6-3.6-0.1-7.2-0.5-10.8-1.1-2.3-0.5-4.5-1.4-6.6-2.4-2.4-1-4.7-2.1-6.8-3.5-2.7-1.9-5.2-4-7.6-6.2-1.6-1.4-3-2.9-4.2-4.6-2.9-3.8-5.2-8.1-6.6-12.6-2.4-6.2-3.5-12.8-3.2-19.4 0-0.6 0.2-1.2 0.2-1.8 0.2-6.9 1.9-13.7 5-19.9 2.7-5.5 6.6-10.3 11.3-14.2 4.2-3.5 9.2-6.1 14.4-7.7 4.9-1.4 9.9-2.3 15-2.6 2.5 0 5 0.2 7.5 0.6 0.4 0 0.9 0.2 1.3 0.2 4.9 0.3 9.7 1.5 14.1 3.5 5.5 2.2 10.5 5.7 14.5 10.1 3.2 3.4 5.6 7.4 7.1 11.8 1.1 3.2 2 6.5 2.8 9.8 0.4 2.9 0.6 5.8 0.5 8.7v43.2c0 1.4 0.2 2.8 0.3 4.2 0.2 0.9-0.5 1.8-1.4 2h-0.4c-4.5 0.1-8.9 0-13.4 0-0.7 0.1-1.4-0.4-1.5-1.1v-0.6c0.1-1.1 0.2-2.2 0.1-3.3 0-15.6 0.1-31.2-0.1-46.8 0.1-4.6-1.1-9.1-3.4-13.1-2.6-4.4-6.5-7.9-11.2-10-3.4-1.7-7.1-2.6-10.9-2.8-1.8 0-3.7-0.7-5.5-0.6-6.3 0.2-12.5 2.2-17.7 5.8-4.1 3.2-7.4 7.4-9.4 12.2-1.9 3.8-2.8 8.1-2.6 12.3-0.1 3.2 0.1 6.3 0.5 9.5 0.7 4.6 2.7 9 5.7 12.6 1.2 1.7 2.6 3.3 4.2 4.8 3.2 2.8 7 4.9 11.1 5.9 3 0.9 6.2 1.4 9.4 1.4 6.7-0.2 13.1-2.9 18-7.6 1.2-1.4 2.7-2.7 4.4-4.2z"/>
	<path class="queens" d="m586.3 169c-8.2 0-16.4 0-24.6-0.1-0.5 0-1.5-0.8-1.5-1.2-0.1-4.6-0.1-9.2-0.1-13.9 0-0.4 0.7-0.9 1.1-1.1 0.5-0.1 1.1-0.1 1.6-0.1 15.1 0 30.1 0.1 45.2-0.1 2.6-0.1 5.1-0.8 7.3-2.1 3.5-2.8 4-8 1.2-11.5-0.4-0.5-0.9-1-1.5-1.4-3.2-2.1-6.7-3.6-10.4-4.6-3-0.8-5.9-2-8.9-2.9-4-1.2-8.1-2.3-12.1-3.6-2.8-1-5.6-2.1-8.3-3.5-4.1-1.9-7.8-4.7-10.7-8.1-2.6-3-4.1-6.8-4.5-10.8-0.4-3.9 0-7.8 1.1-11.6 1.4-4.2 4-7.9 7.7-10.5 3.1-2.2 6.5-3.7 10.1-4.6 3.4-0.8 6.8-1.2 10.3-1.2 13.2-0.1 26.4-0.1 39.5-0.1 2.6 0 2.8 0.2 2.9 2.8v11.1c0 2.2-0.2 2.4-2.4 2.4h-41.2c-1.9 0-3.7 0.3-5.5 0.8-2.8 0.8-4.8 3.3-4.8 6.2-0.3 2.9 1.2 5.6 3.8 7 3.6 2.2 7.6 3.7 11.7 4.6 3.4 0.9 6.7 2.1 10 3.1 3 0.9 6.1 1.5 9 2.6 3.6 1.4 7 3 10.4 4.8 4.7 2.2 8.5 5.9 10.9 10.4 2.3 4.3 3.2 9.3 2.5 14.2-0.5 4.6-2.1 9-4.8 12.8-2.3 2.9-5.3 5.3-8.8 6.8-5 2.2-10.4 3.2-15.8 3.1-6.7 0.2-13.5 0.2-20.4 0.3z"/>
	<path class="queens" d="m504.1 97.9v-42c0-2.6 0.2-2.8 2.9-2.8h12.1c2 0 2.2 0.4 2.1 2.4-0.2 6.2-0.2 12.5-0.2 18.8 0 1.7 1.1 1.9 2.5 1.9h27.6c3.2 0 3.1 0.1 3 3.3-0.1 3.5 0 7.1 0.1 10.6 0.1 2-0.1 2.4-2.2 2.4h-28.2c-2.7 0-2.9 0.3-2.9 2.9v45.5c-0.3 3.1 0.8 6.2 2.9 8.6 2.3 2.1 5.4 3.3 8.6 3.1 6.4 0.2 12.9 0 19.4 0.1 2.3 0 2.5 0.4 2.4 2.8-0.1 3.5-0.1 7 0 10.6 0.1 2.4-0.4 3-2.8 2.9-7.1-0.1-14.2 0.2-21.3-0.1-9.9 0.2-19-5.5-23.1-14.5-1.7-3.4-2.6-7.1-2.6-10.8v-45.6l-0.3-0.1z"/>
	<path class="queens" d="m469.9 86.2c0.6-0.4 1.2-0.9 1.6-1.4 2.6-3.8 6.2-6.7 10.4-8.4 5-2 10.4-2.9 15.8-2.5 0.7 0.2 1.3 0.8 1.5 1.6 0.1 4.5 0.1 9 0.1 13.6 0 1.2-1 1.2-1.9 1.3-3 0.1-6 0.5-9 1.2-4.5 1.1-8.4 3.8-11.1 7.5-2.2 3-3.7 6.5-4.7 10.1-1.5 6.5-2.2 13.2-2.1 19.9v36.9c0 2.9 0 2.9-2.9 2.9-4 0-7.9 0.1-11.9 0.2-1.2 0.2-2.2-0.6-2.4-1.8v-0.7c0.1-1.6 0.2-3.2 0.2-4.8v-79c0-1.5-0.1-3.1-0.2-4.6-0.1-1.2 0.4-2 1.6-2h13.2c1.1 0 1.6 0.6 1.6 1.7-0.1 2.3-0.1 4.5-0.2 6.8 0.3 0.3 0.3 0.6 0.4 1.5z"/>
	<path class="queens" d="m692.7 183.8c1.7-1.5 3.1-2.6 4.3-3.9 3.9-4 9-6.4 14.6-6.9 2.5-0.2 5-0.5 7.5-0.8 1.6-0.2 2.1 0.2 2.2 1.9v11.9c0 1.3-0.6 1.8-1.9 2-2.6 0.1-5.1 0.4-7.7 0.9-2.4 0.7-4.6 1.6-6.8 2.8-4.4 2.5-7.6 6.7-8.9 11.5-2.2 6.3-3.3 12.9-3.2 19.6-0.1 13.6 0 27.2 0 40.9 0 2.6-0.1 2.8-2.6 2.8h-11.7c-1.5 0-2.2-0.5-2.2-2.1v-87.8c0-1.6 0.7-2.1 2.2-2.1 3.8 0.1 7.6 0 11.4 0 2.1 0 2.6 0.6 2.6 2.7v4.5c-0.1 0.5 0 1.1 0.2 2.1z"/>
	<path class="queens" d="m450 314.1h-11.1c-1.4 0-2-0.6-1.7-1.9 0.7-4.2 3.3-7.8 7.1-9.8 6.6-3.1 14.4-0.3 17.5 6.3 0.2 0.4 0.3 0.7 0.5 1.1 1.3 4.2 1.2 4.3-3.2 4.3h-9.1z"/>
	<path class="queens" d="m588.6 314.1h-11.1c-1.9 0-2.1-0.4-1.7-2.2 1.1-7 7.7-11.9 14.8-10.8 5.3 0.8 9.5 4.8 10.6 10 0.5 2.4 0.1 2.9-2.4 2.9h-10.2z"/>
</g>
</svg>
