<?xml version="1.0" encoding="utf-8"?>
<!-- Generator: Adobe Illustrator 25.0.0, SVG Export Plug-In . SVG Version: 6.00 Build 0)  -->
<svg version="1.1" id="Layer_1" xmlns="http://www.w3.org/2000/svg" xmlns:xlink="http://www.w3.org/1999/xlink" x="0px" y="0px"
	 viewBox="0 0 779.8 143" style="enable-background:new 0 0 779.8 143;" xml:space="preserve">
<style type="text/css">
	.st0{fill:#FFFFFF;}
</style>
<g>
	<path class="st0" d="M285.6,142.6c-19.1-0.2-35.6-6.6-49.4-19.9c-14.5-14-21.8-31.3-21.8-51.3c0-19.4,6.9-36.3,20.7-50.1
		C249,7.5,265.9,0.6,285.6,0.4c38.3-0.4,71.2,31.2,71.1,71.3C356.5,111.4,324.2,142.8,285.6,142.6z M286.5,106.9
		c0.8,0.5,1.7,0.3,2.6,0.3c9.4,0,18.9,0,28.3,0c3.6,0,7.2,0,10.8,0c0.7,0,1.4,0.2,2.1-0.4c0.3-0.8,0.3-1.6-0.1-2.6
		c-0.6-0.2-1.2-0.4-1.8-0.5c-3.4-0.5-5.9-2.4-7.7-5.2c-1.2-1.9-2.2-3.9-3.2-5.9c-2.1-4.7-4.1-9.4-6.1-14.1
		c-4.1-9.5-8.1-18.9-12.2-28.4c-3.8-9-7.7-17.9-11.6-26.9c-0.2-0.4-0.4-0.9-0.6-1.3c-0.6-1.2-3-1.2-3.4,0.1
		c-0.1,0.5-0.4,0.9-0.5,1.3c-1.2,3.1-2.4,6.3-3.6,9.4c-1.5,4-2.9,7.9-4.5,11.9c-0.6,1.5-0.7,2.8,0.1,4.3c1.5,3.1,2.8,6.3,4.2,9.4
		c4.5,10.1,9.1,20.3,13.6,30.4c1.1,2.5,2.1,5,2.4,7.8c0.4,3.8-1.2,5.5-3.7,6.4c-0.8,0.3-1.7,0.5-2.5,0.6c-0.9,0.2-1.9,0.3-2.8,0.7
		C286.1,105.2,285.9,106,286.5,106.9z M240.8,106.8c0.9,0.5,1.8,0.3,2.6,0.3c8.3,0,16.6,0,24.9,0c2.3,0,4.6,0,6.9,0
		c0.5,0,1-0.2,1.6-0.3c0-0.9,0-1.7,0-2.6c-0.8-0.2-1.4-0.5-2.1-0.6c-8.2-2.1-11.2-10.2-9.9-15.3c0.2-0.9,0.4-1.7,0.5-2.6
		c0.1-0.5,0-0.9,0-1.4c-0.7-0.5-1.4-1-2.3-1c-0.8,0.6-0.9,1.4-1.2,2.1c-1.6,3.9-3.5,7.5-6.3,10.7c-3.4,3.9-7.5,6.7-12.7,7.6
		c-0.8,0.1-1.5,0.4-2.2,0.6C240.4,105.2,240.4,106,240.8,106.8z"/>
	<path class="st0" d="M609,93.2c-0.2,0.1-0.4,0.2-0.7,0.2c-3.9,0-7.8,0-11.8,0c-0.2,0-0.4-0.2-0.7-0.2c-0.4-0.9-0.2-1.7-0.2-2.6
		c0-8.6,0-17.3,0-25.9c0-0.9,0-1.8-0.1-2.6c-0.7-5.3-4.2-7.9-9.2-7.7c-4.5,0.2-7.8,3.2-8.5,7.7c-0.2,1.3-0.3,2.5-0.3,3.8
		c0,8.2,0,16.5,0,24.7c0,0.9,0.1,1.8-0.2,2.6c-0.3,0.1-0.5,0.3-0.7,0.3c-3.8,0-7.5,0-11.3,0c-0.4,0-0.8-0.1-1.2-0.1
		c-0.4-0.9-0.3-1.8-0.3-2.6c0-7.8,0-15.7,0-23.5c0-7,0-13.9,0-20.9c0-0.9,0-1.7,0-2.7c0.4-0.2,0.7-0.4,1-0.4c3.8,0,7.5,0,11.3,0
		c0.1,0,0.3,0.1,0.6,0.2c0.5,1.5,0,3.2,0.3,5c0.3-0.2,0.5-0.3,0.7-0.5c2.4-3,5.6-4.7,9.3-5.6c3.7-0.9,7.3-0.7,10.9,0.5
		c3.2,1.1,5.8,3,7.7,5.8c0.2,0.3,0.4,0.7,0.7,1.1c0.3-0.3,0.6-0.6,0.8-0.9c4.3-5.8,10.2-7.6,17.1-7c2.2,0.2,4.4,0.7,6.5,1.7
		c5,2.4,7.9,6.4,9,11.7c0.4,1.7,0.5,3.5,0.5,5.2c0.1,10.2,0,20.5,0,30.7c0,0.6-0.1,1.2-0.1,1.8c-2,0.4-10.7,0.4-12.8,0
		c-0.4-0.8-0.2-1.7-0.2-2.5c0-8.5,0-17,0-25.4c0-1.4-0.1-2.9-0.4-4.3c-0.7-3.5-2.7-5.7-6.3-6.4c-5.3-1.1-9.9,1.8-11,7
		c-0.3,1.2-0.4,2.5-0.4,3.8c0,8.4,0,16.8,0,25.2C609.3,91.5,609.4,92.3,609,93.2z"/>
	<path class="st0" d="M446.3,93.2c-1.9,0.3-12.7,0.4-15.1,0c-2.1-5.2-3.9-10.7-6-16.1c-0.5-0.1-1-0.2-1.4-0.2c-8.8,0-17.6,0-26.4,0
		c-0.4,0-0.8,0.1-1.3,0.1c-2.2,5.3-3.9,10.8-6,16.2c-1.6,0.4-3.2,0.2-4.8,0.2c-1.7,0-3.4,0-5,0c-1.6,0-3.2,0.2-4.9-0.2
		c0.1-0.5,0.1-0.9,0.2-1.3c2.6-7.8,26.3-68.9,27.3-70.6c2.1-0.3,14.1-0.3,16,0C419.8,23.1,445.6,90.6,446.3,93.2z M410.8,37.8
		c-3.6,8.6-6.8,17.2-9.9,25.9c0.6,0.1,0.9,0.2,1.3,0.2c5.6,0,11.2,0,16.8,0c0.3,0,0.7-0.2,1.2-0.3C417,54.9,413.9,46.4,410.8,37.8z"
		/>
	<path class="st0" d="M747.5,74.4c-1.9,2-3.6,3.8-5.5,5.7c0,1.4,0,2.8,0,4.2c0,1.5,0,3,0,4.6c0,1.4,0.1,2.8-0.1,4.2
		c-0.4,0.1-0.6,0.3-0.8,0.3c-3.8,0-7.5,0-11.3,0c-0.4,0-0.8-0.1-1.3-0.2c-0.1-0.5-0.2-0.9-0.2-1.4c0-0.6,0-1.1,0-1.7
		c0-22.5,0-44.9,0-67.4c0-0.9-0.1-1.9,0.2-2.9c1.4-0.3,2.9-0.1,4.3-0.2c1.5,0,3,0,4.6,0c1.4,0,2.9,0,4.4,0c0.1,0.7,0.3,1.2,0.3,1.7
		c0,2.6,0,5.1,0,7.7c0,9.8,0,19.5,0,29.3c0,0.9,0,1.7,0,3c0.7-0.5,1.1-0.8,1.4-1.2c4.6-5,9.2-10,13.9-14.9c0.6-0.6,1.2-1.3,1.7-1.8
		c2.6-0.3,15.5-0.2,17.5,0.1c-1.4,2.1-3.2,3.6-4.8,5.3c-1.6,1.8-3.3,3.5-4.9,5.2c-1.6,1.7-3.2,3.4-4.8,5c-1.7,1.7-3.3,3.5-5,5.3
		c0.5,0.8,0.9,1.4,1.4,2.1c5.8,8.2,11.6,16.5,17.4,24.7c0.4,0.6,0.8,1.3,1.2,1.9c-0.1,0.2-0.1,0.3-0.2,0.4c-0.1,0-0.1,0.1-0.2,0.1
		c-4.9,0-9.8,0-14.6,0.1c-0.4,0-0.8-0.1-1.3-0.1C756.4,87.2,752,80.9,747.5,74.4z"/>
	<path class="st0" d="M658.3,60.9c-4-0.8-7.8-1.6-11.5-2.4c-0.4-0.9-0.2-1.7,0-2.5c1.3-4.7,4.1-8.2,8.2-10.8c3.2-2,6.7-3,10.4-3.3
		c4.1-0.4,8.2,0,12.1,1.3c7,2.3,11,7.1,12,14.4c0.2,1.3,0.3,2.7,0.3,4.1c0,8.4,0,16.8,0.1,25.2c0,2.1,0.2,4.1,0.3,6.3
		c-0.2,0.1-0.5,0.3-0.8,0.3c-3.6,0-7.2,0-10.8,0c-0.2,0-0.3-0.1-0.6-0.2c-0.7-1.5-0.5-3.2-0.7-4.8c-0.6-0.3-0.7,0.2-0.9,0.5
		c-3.9,4.6-9,6.1-14.8,5.9c-2.5-0.1-4.9-0.6-7.2-1.7c-3.7-1.7-6.5-4.4-8-8.2c-2.1-5.5-1.1-13.5,6.1-17.7c2.9-1.7,6-2.4,9.3-2.9
		c3.6-0.5,7.1-1,10.7-1.5c0.4-0.1,0.8-0.2,1.2-0.3c2.2-0.7,3.1-2.1,2.7-4.4c-0.4-1.9-1.5-3.4-3.2-4.2c-3.4-1.5-6.8-1.5-10.2,0.2
		c-1.8,0.9-3,2.4-3.7,4.3C658.9,59.1,658.7,59.9,658.3,60.9z M676.2,71.2c-0.4,0-0.6-0.1-0.8-0.1c-3.3,0.5-6.6,1-9.9,1.5
		c-1.3,0.2-2.5,0.5-3.6,1.2c-2.1,1.3-3.1,3.6-2.6,6.2c0.4,2.3,2.3,4.1,4.8,4.4c1.5,0.1,3,0.1,4.5-0.1c2.3-0.4,4.2-1.4,5.6-3.3
		C676.2,78,676.6,74.7,676.2,71.2z"/>
	<path class="st0" d="M558.4,56.4c-3.8,0.8-7.3,1.6-11,2.5c-0.3-0.7-0.5-1.2-0.7-1.7c-1.2-3.1-3.5-4.7-6.7-4.9
		c-1.4-0.1-2.9,0-4.2,0.6c-1,0.5-1.8,1.1-2.4,2c-1.1,1.8-0.8,4.2,0.9,5.4c0.8,0.6,1.8,1,2.8,1.2c2.8,0.7,5.6,1.2,8.4,1.9
		c2.5,0.6,4.9,1.5,7,3c3.3,2.2,5.6,5.2,6.3,9.2c1.1,6.5-1.1,11.8-6.3,15.8c-2.1,1.6-4.6,2.6-7.2,3.1c-5,1.1-9.9,0.8-14.6-0.9
		c-5.9-2.1-9.8-6.1-11.5-12.2c-0.1-0.5-0.2-0.9-0.2-1.4c0-0.1,0.1-0.3,0.2-0.6c3.6-0.9,7.3-1.7,11.1-2.4c0.2,0.5,0.3,0.8,0.4,1.2
		c0.9,3.7,3.5,5.6,7.1,6.2c1.7,0.3,3.4,0.2,5-0.4c1.4-0.5,2.5-1.4,3-2.9c0.6-1.7,0.2-3.3-1.2-4.6c-0.9-0.8-2-1.3-3.2-1.5
		c-2.7-0.6-5.4-1.3-8.2-1.9c-2.1-0.5-4.1-1.3-6-2.4c-7.4-4.3-8.3-12.1-6.1-17.9c2-5.1,5.9-8.3,11-9.9c5.6-1.8,11.2-1.4,16.6,0.9
		c4.6,1.9,7.7,5.3,9.2,10.1c0.1,0.5,0.3,0.9,0.3,1.4C558.4,55.5,558.4,55.8,558.4,56.4z"/>
	<path class="st0" d="M504.6,28.6c0,4.9,0,9.6,0,14.3c1.1,0.5,2.2,0.3,3.2,0.3c1.1,0,2.2,0,3.4,0c1,0,2.1,0,3.1,0
		c0.2,0.4,0.4,0.6,0.4,0.8c0,3.7,0,7.3,0,11.2c-0.6,0.1-1.1,0.3-1.6,0.3c-2,0-4,0-6,0c-0.7,0-1.4,0.1-2.2,0.1
		c-0.1,0.7-0.2,1.2-0.2,1.7c0,6.3,0,12.6,0,18.9c0,4.1,2,5.7,5.8,5.7c1.3,0,2.7-0.2,4-0.2c0.4,1.9,0.4,8.8,0.1,11.1
		c-1.1,0.8-2.4,0.8-3.6,1c-3,0.5-6.1,0.5-9-0.3c-6.7-1.8-10.1-6.7-10.6-12.7c-0.1-1.2-0.1-2.4-0.1-3.6c0-6.4,0-12.8,0-19.2
		c0-0.8,0.1-1.6-0.3-2.4c-2.8-0.5-5.7,0.2-8.5-0.4c-0.4-2.4-0.3-10.1,0.1-11.9c0.7,0,1.5-0.1,2.3-0.1c0.8-0.1,1.6,0,2.4-0.2
		c2.9-0.7,4.9-3.1,5.1-6.2c0.1-1.9,0.1-3.8,0.1-5.8c0-0.8,0.1-1.6,0.1-2.4c1.5-0.4,2.8-0.2,4.1-0.2c1.3,0,2.6,0,3.8,0
		C501.6,28.4,502.9,28.2,504.6,28.6z"/>
	<path class="st0" d="M449.2,93.2c-0.3-2.2-0.5-40.1-0.2-48.3c0-0.5,0.1-0.9,0.2-1.3c1.8-0.4,9.8-0.5,12.9-0.2
		c0.1,0.4,0.2,0.8,0.3,1.3c0,1.6,0,3.2,0,5.1c1-1.1,1.6-2,2.4-2.7c0.8-0.7,1.7-1.4,2.7-2c0.9-0.5,1.9-0.8,2.9-1.1
		c1.1-0.3,2.2-0.4,3.3-0.6c1.1-0.2,2.2-0.3,3.4-0.1c0.5,1.3,0.2,2.6,0.3,3.8c0,1.4,0,2.7,0,4.1c0,1.3,0,2.5-0.1,3.9
		c-0.6,0.1-1.1,0.1-1.5,0.2c-1.3,0.2-2.7,0.2-4,0.6c-4.6,1.3-7.1,4.7-8.3,9.1c-0.5,1.9-0.6,3.9-0.6,5.9c0,6.5,0,12.9,0,19.4
		c0,0.9,0,1.7,0,2.7c-0.4,0.2-0.7,0.3-1,0.4C459.8,93.7,450.7,93.5,449.2,93.2z"/>
	<path class="st0" d="M708.5,49.9c0.8-0.9,1.2-1.5,1.8-2.1c0.6-0.6,1.1-1.1,1.8-1.6c0.6-0.5,1.3-0.9,2.1-1.2c0.6-0.3,1.3-0.6,2-0.8
		c0.8-0.2,1.5-0.4,2.3-0.5c0.8-0.1,1.6-0.3,2.4-0.3c0.8-0.1,1.6,0,2.4,0c0.4,1.4,0.2,2.6,0.2,3.9c0,1.4,0,2.7,0,4.1
		c0,1.3,0.1,2.5-0.1,3.9c-0.6,0.1-1.2,0.1-1.7,0.2c-1.3,0.2-2.6,0.3-3.8,0.6c-3.3,1-5.7,3.1-7.2,6.2c-0.9,1.8-1.4,3.7-1.6,5.7
		c-0.1,1.2-0.1,2.4-0.1,3.6c0,6.3,0,12.6,0,18.9c0,0.9,0,1.7,0,2.7c-0.5,0.1-0.8,0.3-1.2,0.3c-3.8,0-7.5,0-11.3,0
		c-0.3,0-0.6-0.1-1.1-0.2c-0.1-0.6-0.2-1.3-0.2-1.9c0-3.7,0-7.4,0-11c0-11.3,0-22.7,0-34c0-0.9,0-1.7,0-2.6c0.3-0.2,0.5-0.4,0.7-0.4
		c4.1,0,8.1,0,12.3,0c0.1,0.5,0.3,0.9,0.3,1.4C708.5,46.3,708.5,47.9,708.5,49.9z"/>
	<path class="st0" d="M178.8,0.1c0.7,0,1.1,0,1.5,0c0.1,0.2,0.3,0.3,0.3,0.5c0.1,0.8,0.1,1.6,0.1,2.4c0,45.7,0,91.3,0,137
		c0,0.9,0,1.7,0,2.5c-0.7,0.7-1.3,0.6-1.9,0.3c-0.1-0.2-0.2-0.4-0.2-0.7c0-46.9,0-93.9,0-140.8C178.6,0.9,178.7,0.6,178.8,0.1z"/>
	<path class="st0" d="M118.2,24.5c-0.4,0.3-0.9,0.6-1.3,0.9c-2.4,2.2-4.7,4.5-7.1,6.8c-1.2-0.5-1.9-1.5-2.7-2.5
		c0.2-0.3,0.4-0.7,0.7-0.9c3.8-3.7,7.6-7.3,11.4-11c0.2-0.2,0.5-0.4,0.8-0.6c1,0.2,1.4,1.1,2,1.7c0.6,0.5,1.1,1.2,1.7,1.8
		c-1.2,2.8-2.4,5.6-3.6,8.4c-0.3,0.8-0.6,1.6-0.9,2.5c0,0.2-0.1,0.3-0.1,0.5c0.1-0.1,0.2-0.2,0.3-0.3c1.4-1.2,2.7-2.4,4.1-3.7
		c1.2-1.1,2.4-2.3,3.7-3.5c1.1,0.7,1.8,1.6,2.7,2.5c-0.2,0.3-0.4,0.7-0.6,0.9c-3.8,3.7-7.7,7.4-11.5,11.1c-0.2,0.2-0.5,0.4-0.9,0.7
		c-0.7-0.6-1.3-1.2-1.9-1.8c-0.5-0.6-1.1-1.2-1.6-1.8c0.3-0.8,0.6-1.4,0.8-2.1c1.1-2.5,2.3-5.1,3.4-7.6
		C117.7,25.9,117.9,25.2,118.2,24.5l0-0.1L118.2,24.5z"/>
	<path class="st0" d="M20.3,57.3c-0.4,1.3-0.8,2.5-1.3,3.9c-3.1-0.6-5.9-1.8-8.8-2.7c-2.8-0.9-5.6-1.8-8.5-2.8
		c0.1-0.6,0.2-1,0.3-1.5c0.5-1.6,1-3.2,1.6-4.8C3.7,49,4,48.5,4.2,48c0.9-1.8,2.3-3,4.4-2.8c2,0.2,3.7,1.1,4.4,3.2
		c0.1,0.3,0.2,0.6,0.3,1.1c1.6-0.7,3.1-0.6,4.7-0.6c1.6,0,3.2-0.1,4.9,0.2c-0.4,1.4-0.8,2.7-1.3,4c-1.4,0.4-2.8,0.1-4.1,0.1
		c-0.9,0-1.8,0-2.6,0.1c-0.8,0.1-1.3,0.6-1.3,1.5C15.6,55.9,18,56.2,20.3,57.3z M10.2,53.8c0.8-2.3,0.5-3.5-1-3.9
		c-0.6-0.2-1.3-0.2-1.8,0.2c-0.8,0.6-1.1,1.5-1.1,2.6C7.5,53.1,8.6,53.7,10.2,53.8z"/>
	<path class="st0" d="M72,10.7c0.2-2.5,0.5-4.5,1.4-6.4C75,1.2,77.7-0.4,81,0.1c3.4,0.4,5.7,2.4,6.5,5.8c0.7,3.1,0.3,6-1,8.8
		c-2,4.3-7.3,5.6-11.2,2.9c-1.4-0.9-2.3-2.3-2.7-3.8C72.3,12.7,72.2,11.5,72,10.7z M76.5,11.1c0.3,1.1,0.4,2.1,0.8,3
		c0.8,1.9,3,2.1,4.3,0.5c0.4-0.5,0.7-1.1,0.9-1.6c0.7-1.7,0.9-3.6,0.9-5.4c0-0.9-0.2-1.9-0.6-2.8c-0.8-1.8-3-2.1-4.3-0.5
		c-0.4,0.5-0.8,1.2-1,1.9C77,7.8,76.8,9.5,76.5,11.1z"/>
	<path class="st0" d="M107,8.8c1.4,0.3,2.5,1.2,3.8,1.8c-0.2,0.5-0.3,0.9-0.4,1.2c-1.5,3-3,6-4.6,8.9c-0.5,1-1.2,1.9-1.9,2.7
		c-1.1,1.2-2.6,1.8-4.3,1.6c-2.3-0.2-4.3-1.2-5.8-3.1c-1.2-1.6-1.3-3.4-0.8-5.2c0.2-0.7,0.5-1.4,0.8-2c1.5-3,3-6,4.6-9
		c0.2-0.3,0.4-0.6,0.7-1.1c0.7,0.3,1.4,0.6,2,0.9c0.6,0.3,1.1,0.6,1.8,1c-0.3,0.6-0.5,1.2-0.8,1.8c-1.4,2.8-2.8,5.5-4.2,8.3
		c-0.3,0.6-0.6,1.3-0.8,2c-0.3,1,0.2,1.9,1.1,2.4c1,0.5,2,0.4,2.6-0.4c0.5-0.5,0.8-1.2,1.1-1.8c1.5-2.8,2.9-5.7,4.4-8.5
		C106.4,9.7,106.7,9.3,107,8.8z"/>
	<path class="st0" d="M18.2,78.6c0.3,1.3,0.4,2.6,0.2,3.8c-0.3,0.1-0.6,0.2-0.8,0.1c-1.8-0.3-16.1-4.7-17.5-5.3
		c-0.3-1.4-0.2-2.9-0.2-4.6c5.9-2.2,11.7-4.3,17.7-6.4c0.5,1.4,0.5,2.7,0.5,4.1c-1.1,1.1-2.8,0.8-3.9,1.9c-0.1,1.7,0.2,3.4,0.2,5.2
		C15.8,77.9,17,78.3,18.2,78.6z M11,76.8c0-1.4,0.2-2.5-0.2-3.7c-2.1,0.6-4.2,1-6.4,2C6.7,75.7,8.7,76.2,11,76.8z"/>
	<path class="st0" d="M33.2,33.9c-0.7-1-1.3-1.8-2-2.8c0.9-0.4,1.6-0.6,2.3-1c0.9-0.5,1.8-1,2.3-2c0.6-1.2-0.2-2.6-1.5-2.6
		c-0.7,0-1.4,0.1-2.1,0.2c-0.7,0.1-1.4,0.4-2.1,0.6c-1.9,0.6-4.3-0.4-5.6-2.3c-1.3-2-1.2-3.9,0-5.8c1-1.5,2.4-2.6,4-3.4
		c0.4-0.2,0.8-0.4,1.4-0.7c0.9,0.7,1.5,1.6,2,2.7c-0.7,0.3-1.4,0.6-2,1c-0.5,0.3-1.1,0.7-1.5,1.2c-0.6,0.7-0.7,1.5-0.3,2.2
		c0.4,0.7,1.1,1,1.8,0.9c0.6-0.1,1.3-0.3,1.9-0.4c0.7-0.2,1.4-0.4,2.1-0.5c2.3-0.4,4.1,0.5,5.4,2.4c1.3,1.9,1.4,3.9,0.2,5.9
		c-0.6,0.9-1.4,1.8-2.2,2.5C36,32.6,34.8,33.3,33.2,33.9z"/>
	<path class="st0" d="M140.4,47.5c-0.9,0.4-1.6,0.7-2.3,1c-0.2,0.1-0.5,0-0.8,0c-0.1-0.5-0.2-1.1-0.3-1.6c-0.2-0.8-0.4-1.6-0.8-2.2
		c-0.7-1.2-1.9-1.9-3.3-2c-2.5-0.1-4.5,0.9-6.1,2.7c-1.5,1.7-1.6,3.6-0.4,5.5c0.5,0.8,1.2,1.5,1.8,2.3c-0.9,0.8-1.9,1.3-3,1.8
		c-5.4-4.7-4.6-11.3,0.2-14.5c2.2-1.5,4.5-2.3,7.2-2.2c2.3,0.1,4.2,1.1,5.6,2.8C139.5,42.8,140.3,44.9,140.4,47.5z"/>
	<path class="st0" d="M62.8,1c0.2,1,0.3,1.8,0.5,2.7c0,0.1-0.1,0.3-0.2,0.5c-0.7,0-1.5,0-2.3,0c-2.9,0.1-4.6,1.8-4.6,4.7
		c0,1.7,0.4,3.3,1.3,4.8c1.4,2,3.3,2.7,5.6,1.8c0.8-0.3,1.6-0.8,2.4-1.2c0.7,1,0.8,2.2,1.1,3.3c-5.1,4-11.5,2.5-14-3.2
		c-0.8-1.9-1.1-3.8-1-5.8C51.9,5,54,2.3,57.4,1.2C59.1,0.7,60.8,0.4,62.8,1z"/>
	<path class="st0" d="M402.5,119c1.2-4.3,2.2-8.1,3.2-11.9c0.4-0.1,0.7-0.2,1-0.2c0.3,0,0.6,0.1,0.9,0.1c0.1,0.2,0.2,0.4,0.2,0.5
		c-0.5,1.9-1.1,3.8-1.6,5.8c-0.9,2.9-1.7,5.8-2.6,8.6c-0.8,0.6-1.6,0.5-2.5,0.3c-1.4-3.8-2.1-7.9-3.5-12.1c-0.3,0.5-0.5,0.7-0.5,1
		c-0.9,3.1-1.8,6.3-2.7,9.4c-0.2,0.6-0.4,1.2-0.6,1.8c-0.7,0-1.4,0-2,0c-0.1-0.1-0.3-0.2-0.4-0.3c-1.4-4.8-2.7-9.5-4.1-14.3
		c0-0.1,0-0.3,0.1-0.6c0.6,0,1.2,0,1.9,0c1.3,3.7,2,7.5,3.3,11.2c0.2,0,0.2,0,0.3,0c0.1,0,0.1-0.1,0.2-0.2c1.1-3.6,2.1-7.2,3.2-10.8
		c0.8-0.7,1.7-0.3,2.7-0.4c0.2,0.5,0.5,1,0.6,1.5c0.8,2.9,1.6,5.9,2.4,8.8C402,117.7,402.2,118.1,402.5,119z"/>
	<path class="st0" d="M14.3,35.1c-0.8,1.1-1.6,2-2.3,2.9c-1.1-0.5-1.9-1-2.7-1.9c2.3-3.3,4.5-6.5,6.9-9.8c1.1,0.5,1.9,1,2.7,1.9
		c-0.6,1-1.2,2-2,3.1c2,1.6,4.1,2.9,6,4.3c1.9,1.4,4,2.6,5.9,4.3c-0.7,1.2-1.4,2.4-2.5,3.4c-1.4-0.8-2.7-1.8-4-2.7
		c-1.4-0.9-2.7-1.9-4.1-2.9C17,36.9,15.7,36,14.3,35.1z"/>
	<path class="st0" d="M130.2,76.5c-0.2,2.1-0.4,3.9-0.6,5.8c-0.6,0-1.2,0-1.7,0c-0.5,0-0.9-0.1-1.3-0.2c-0.2-1.6,0.2-8.1,0.6-10
		c3-0.4,6,0.3,8.9,0.4c2.9,0.1,5.9,0.4,8.7,0.7c0.3,2,0.3,2.2-0.2,4.1c-2.4,0.2-4.7-0.2-7.1-0.3C135.2,76.8,132.8,76.6,130.2,76.5z"
		/>
	<path class="st0" d="M495,114.1c0.4,0.3,0.7,0.6,1.1,1c2.3,2.5,1.3,6-2,7c-0.4,0.1-0.8,0.2-1.2,0.2c-2.1,0-4.1,0-6.3,0
		c-0.1-0.5-0.3-0.8-0.3-1.2c0-4.4,0-8.8,0-13.2c0-0.2,0.1-0.5,0.2-0.8c0.4-0.1,0.9-0.2,1.3-0.2c1.4,0,2.9,0,4.3,0
		c0.6,0,1.3,0.1,1.9,0.2c2.7,0.8,3.7,3.7,2,5.9C495.7,113.4,495.4,113.7,495,114.1z M488.8,120.1c1.5,0.2,2.9,0.3,4.3,0
		c1.2-0.3,1.8-1.1,1.8-2.2c0-1.2-0.6-2.2-1.8-2.5c-1.4-0.3-2.9-0.4-4.4,0.1C488.5,117.1,488.4,118.6,488.8,120.1z M488.7,113.2
		c0.7,0,1.2,0.1,1.7,0.1c0.6,0,1.1,0,1.7,0c0.5-0.1,0.9-0.2,1.4-0.4c0.8-0.4,1.2-1.2,1-2.2c-0.1-0.8-0.6-1.5-1.5-1.7
		c-1.4-0.2-2.8-0.3-4.3,0.1C488.7,110.5,488.7,111.7,488.7,113.2z"/>
	<path class="st0" d="M465.6,106.9c2.4,0,4.8-0.2,7.2,0.1c2.5,0.4,4,2.2,4.8,4.5c0.6,1.9,0.6,4,0,5.9c-0.8,2.6-2.5,4.2-5.2,4.7
		c-2.2,0.4-4.4,0.2-6.7,0.2c-0.1-0.5-0.3-0.8-0.3-1.2c0-4.3,0-8.6,0-12.9C465.3,107.8,465.4,107.4,465.6,106.9z M467.7,120.2
		c1.7,0.2,3.1,0.2,4.5-0.1c1.1-0.3,1.9-0.8,2.4-1.8c1.4-2.5,1.4-5-0.1-7.5c-0.4-0.6-1.1-1.3-1.8-1.5c-1.6-0.6-3.4-0.6-5.1-0.1
		C467.7,112.9,467.7,116.4,467.7,120.2z"/>
	<path class="st0" d="M767.4,122.2c-0.1-0.3-0.3-0.6-0.3-0.8c0-4.5,0-9.1,0-13.6c0-0.2,0.1-0.4,0.2-0.6c1.8-0.4,6.3-0.4,7.6,0
		c2,0.6,3.4,1.8,4.1,3.7c0.9,2.4,1,4.8,0.1,7.2c-0.9,2.2-2.4,3.7-4.9,4C771.9,122.5,769.7,122.4,767.4,122.2z M769.8,120.2
		c1.3,0.2,2.6,0.2,4-0.1c1.4-0.3,2.3-1,2.9-2.3c1-2.1,1-4.3,0.1-6.5c-0.5-1.1-1.4-2-2.6-2.3c-1.1-0.3-3-0.2-4.4,0.1
		C769.3,111.6,769.3,118.4,769.8,120.2z"/>
	<path class="st0" d="M751.5,107.1c0.9-0.3,1.9-0.3,2.9,0c1.1,1.9,2.3,3.9,3.5,5.9c1.1,1.9,2.2,3.8,3.5,5.6
		c0.3-3.8,0.1-7.6,0.3-11.2c0.6-0.7,1.2-0.5,1.8-0.3c0.4,1.6,0.2,3.3,0.2,5c0,1.7,0,3.4,0,5c0,1.7,0.1,3.3-0.1,4.9
		c-0.4,0.1-0.6,0.3-0.8,0.3c-0.6,0-1.1,0-1.8,0c-2.6-3.9-4.8-8.1-7.4-12.2c-0.4,0.8-0.3,1.4-0.3,1.9c0,0.7,0,1.4,0,2.2
		c0,0.6,0,1.3,0,1.9s0,1.3,0,1.9c0,0.7,0,1.4,0,2.2c0,0.6-0.1,1.2-0.1,2c-0.6,0-1.1,0-1.6,0c-0.1-0.3-0.2-0.5-0.2-0.8
		c0-4.5,0-9.1,0-13.6C751.3,107.6,751.4,107.3,751.5,107.1z"/>
	<path class="st0" d="M703.9,122.2c-0.7,0-1.5,0.1-2.3,0.1c-1.6-2-2.6-4.1-3.8-6.2c-1.2-2-2.4-3.9-3.6-5.9c-0.7,0.2-0.5,0.7-0.5,1
		c0,2.9,0,5.8,0,8.6c0,0.7-0.1,1.4-0.1,2.2c-0.6,0-1.1,0-1.6,0c-0.4-1.9-0.4-12.3-0.1-15c0.8-0.4,1.8-0.3,2.9-0.1
		c2.4,3.7,4.5,7.7,7.1,11.8c0.3-0.8,0.2-1.3,0.2-1.8c0-0.6,0-1.1,0-1.7s0-1.1,0-1.7c0-0.5,0-1,0-1.4c0-0.6,0-1.1,0-1.7s0-1.1,0-1.7
		c0-0.5,0.1-1.1,0.1-1.5c0.6-0.5,1.1-0.5,1.8-0.2c0.1,0.3,0.2,0.7,0.2,1.1C704.4,114.4,704.3,120.2,703.9,122.2z"/>
	<path class="st0" d="M438.1,107c2.4-0.3,4.9-0.3,7.3,0.1c2.1,0.4,3.6,1.8,4.3,3.7c1,2.4,1,4.8,0.1,7.2c-0.9,2.2-2.5,3.7-4.9,4
		c-2.3,0.3-4.6,0.3-6.8,0.1c-0.1-0.3-0.3-0.6-0.3-0.8c0-4.5,0-9.1,0-13.6C437.8,107.6,437.9,107.4,438.1,107z M440.3,120
		c1.7,0.4,2.9,0.4,4.2,0.1c1.3-0.3,2.2-1,2.7-2.2c1-2.2,1.1-4.5,0-6.7c-0.3-0.7-0.9-1.3-1.6-1.7c-0.6-0.4-1.3-0.6-2-0.6
		c-1.2-0.1-2.4-0.3-3.4,0.3C440,112.1,440,118.3,440.3,120z"/>
	<path class="st0" d="M536.9,115.5c-0.4,2.2,0,4.4-0.3,6.5c-0.2,0.1-0.4,0.3-0.6,0.3c-0.5,0-0.9,0-1.5-0.1c-0.2-1.8-0.1-3.4-0.1-5.1
		c0-1.6,0-3.2,0-4.8c0-1.7,0-3.3,0-5.1c0.6-0.1,1-0.3,1.4-0.3c1.5,0,3,0,4.6,0c0.7,0,1.5,0.1,2.1,0.3c2.8,0.8,3.7,3.9,1.9,6.1
		c-0.3,0.4-0.8,0.8-1.3,1.2c1.3,0.7,1.5,2,1.7,3.2c0.2,1.4,0.4,2.8,0.7,4.4c-0.7,0.1-1.3,0.1-1.9,0.2c-0.2-0.5-0.5-1-0.5-1.4
		c-0.2-1.1-0.3-2.2-0.5-3.3c-0.3-1.4-0.8-2-2.1-2.2C539.2,115.3,538.1,115.2,536.9,115.5z M536.8,113.2c1.6,0.1,3.1,0.2,4.5-0.1
		c1-0.2,1.6-1,1.6-2.1c0-1-0.6-1.9-1.6-2.1c-1.5-0.3-2.9-0.3-4.5,0C536.8,110.5,536.8,111.7,536.8,113.2z"/>
	<path class="st0" d="M636.5,122.3c-2.6-4-4.7-8.1-7.5-12.3c-0.3,4.3,0,8.2-0.2,12.1c-0.6,0.1-1.1,0.1-1.6,0.2
		c-0.2-0.3-0.3-0.5-0.4-0.7c-0.2-2.1-0.1-12.8,0.2-14.3c1.3-0.4,1.3-0.4,2.9-0.2c2.3,3.6,4.4,7.5,7.1,11.7c0.4-4.3,0-8,0.3-11.8
		c0.6,0,1.1-0.1,1.5-0.1c0.1,0.3,0.3,0.5,0.3,0.7c0.2,2.3,0.1,12.8-0.2,14.5c-0.3,0.1-0.7,0.2-1.1,0.2
		C637.4,122.4,637,122.3,636.5,122.3z"/>
	<path class="st0" d="M432.6,114.5c1.2,0.8,1.5,2,1.7,3.2c0.2,1.4,0.5,2.8,0.7,4.2c-0.7,0.6-1.4,0.5-2,0.2c-0.1-0.2-0.3-0.3-0.3-0.4
		c-0.2-1.1-0.4-2.2-0.6-3.3c-0.1-0.5-0.1-0.9-0.3-1.4c-0.2-0.8-0.8-1.4-1.7-1.5c-1.2-0.2-2.4-0.2-3.6-0.1c-0.4,1.1-0.2,2.3-0.2,3.3
		c-0.1,1.1,0.2,2.2-0.2,3.4c-0.6,0-1.2,0-1.8,0c-0.1-0.2-0.3-0.4-0.3-0.5c0-4.6,0-9.2-0.1-13.9c0-0.2,0.1-0.4,0.2-0.7
		c0.3-0.1,0.6-0.2,0.9-0.2c1.8,0,3.5,0,5.3,0c0.5,0,1,0.1,1.4,0.2c3,0.7,4,4,2,6.3C433.4,113.8,433,114.1,432.6,114.5z M426.4,109
		c-0.2,1.4-0.2,2.8,0,4c1.7,0.3,3.6,0.4,4.4,0.2c1-0.3,1.7-1.1,1.7-2.1c0-1-0.7-1.9-1.7-2.1C429.3,108.8,427.9,108.8,426.4,109z"/>
	<path class="st0" d="M720,121.7c-2.3,0.9-4.5,1-6.7,0.8c-2.9-0.3-4.9-1.8-5.7-4.7c-0.9-2.7-0.6-5.4,0.8-7.9
		c0.8-1.5,2.1-2.6,3.8-3.1c1.9-0.5,3.8-0.5,5.6,0.3c1.1,0.5,1.9,1.2,2.3,2.3c0.1,0.3,0.1,0.8,0.1,1.3c-0.6,0-1.2,0.1-1.7,0.1
		c-0.2-0.2-0.5-0.3-0.6-0.5c-0.8-1.5-2.1-1.9-3.6-1.8c-1.6,0.1-3,0.7-3.8,2.1c-1.4,2.6-1.3,5.2,0,7.8c0.5,1.1,1.5,1.6,2.7,1.9
		c1.3,0.3,3,0.2,4.8-0.3c0.4-1.2,0.2-2.4,0.1-3.6c-1-0.8-2.1-0.1-3.2-0.7c0-0.4,0-0.9,0-1.5c1.8-0.4,3.5-0.2,5.2-0.1
		C720.4,116.2,720.4,119.7,720,121.7z"/>
	<path class="st0" d="M115.8,127.8c-0.7,0.5-1.2,0.8-1.8,1.2c-4.7-2.8-9.3-5.7-14.3-8.2c2.6,4.1,5.2,8.1,7.9,12.3
		c-0.5,0.3-0.9,0.6-1.2,0.8c-1.5-1.7-9-13.3-9.8-15.1c0.1-0.2,0.3-0.4,0.5-0.5c0.3-0.2,0.7-0.4,1.1-0.7c2.4,1.5,4.7,2.9,7.1,4.4
		c2.3,1.4,4.5,2.8,7.3,4.5c-0.7-1.6-1.4-2.5-2-3.5c-0.7-1.1-1.4-2.1-2.1-3.2c-0.7-1-1.3-2-2-3c-0.6-1-1.3-2-2-3.1
		c0.5-0.3,0.9-0.6,1.4-0.9C109.2,117.7,112.5,122.8,115.8,127.8z"/>
	<path class="st0" d="M39.4,112.8c0.2,0.1,0.4,0.1,0.6,0.2c0.3,0.2,0.5,0.4,0.8,0.6c0.3,1,0,1.9-0.1,2.8c-0.7,4.6-1.4,9.1-2.2,14.1
		c1.2-1.1,1.7-2.2,2.4-3.2c0.7-1,1.4-2,2-3c0.7-1.1,1.4-2.1,2.1-3.2c0.7-1,1.4-2,2.1-3.1c0.4,0.2,0.8,0.4,1.1,0.6
		c0,0.3,0.1,0.5,0,0.6c-3.2,4.8-6.5,9.7-9.6,14.4c-0.3,0-0.5,0.1-0.6,0c-0.5-0.3-0.9-0.6-1.4-1c0.4-2.7,0.9-5.4,1.2-8.1
		c0.3-2.7,0.9-5.3,0.8-8.1c-0.7,1-1.4,1.9-2,2.9c-0.7,1-1.3,2-2,3c-0.7,1-1.3,2-2,3c-0.7,1-1.3,2-2.1,3c-0.5-0.3-0.9-0.5-1.3-0.7
		C30.2,125.7,38,114.1,39.4,112.8z"/>
	<path class="st0" d="M601,122.6c-3.6,0-5.9-1.9-6.8-5.5c-0.4-1.8-0.4-3.6,0.1-5.4c0.8-3.3,3.3-5.1,6.9-5.1c3.4,0,5.8,1.9,6.6,5.2
		c0.5,1.8,0.5,3.6,0.1,5.4C607,120.7,604.6,122.6,601,122.6z M605.8,114.9c-0.1-0.9-0.1-1.5-0.2-2c-0.1-0.5-0.2-0.9-0.3-1.4
		c-0.6-2-2-2.9-4.1-3c-2.3,0-3.8,0.9-4.4,2.9c-0.6,1.8-0.7,3.6-0.2,5.4c0.7,2.8,2.2,3.9,5,3.7c1.9-0.1,3.1-1.1,3.7-2.9
		C605.5,116.7,605.7,115.6,605.8,114.9z"/>
	<path class="st0" d="M571.8,110.7c-0.8,0-1.3,0-1.9,0c-0.1-0.1-0.3-0.1-0.3-0.3c-0.4-1-1-1.6-2-1.8c-1.2-0.2-2.4-0.1-3.5,0.5
		c-0.7,0.4-1,1-0.9,1.8c0,0.8,0.5,1.3,1.2,1.6c0.8,0.3,1.7,0.5,2.5,0.8c1,0.3,2,0.5,3,0.9c1.5,0.6,2.3,1.6,2.4,3.2
		c0.1,1.6-0.4,3-1.8,3.9c-0.5,0.4-1.1,0.6-1.7,0.8c-1.6,0.5-3.3,0.5-5,0.1c-2.2-0.5-3.1-1.9-3.1-4.5c0.6-0.1,1.2-0.1,1.7-0.2
		c0.2,0.2,0.4,0.3,0.4,0.5c0.3,1,0.7,2,1.9,2.3c1.3,0.3,2.7,0.3,4-0.3c0.8-0.4,1.2-1,1.2-1.9c0-0.9-0.4-1.6-1.2-1.9
		c-0.6-0.3-1.2-0.4-1.8-0.6c-1.2-0.4-2.5-0.6-3.7-1.1c-1.5-0.6-2.5-1.7-2.5-3.5c0-1.8,0.8-3.1,2.4-3.8c2-1,4.2-1.1,6.3-0.3
		C570.8,107.6,571.8,108.6,571.8,110.7z"/>
	<path class="st0" d="M383.7,118.3c-2.3,0-4.5,0-6.8,0c-0.6,1.3-1.2,2.6-1.8,3.9c-0.7,0-1.3,0-2,0c0-0.3-0.1-0.6,0-0.8
		c1.7-4,3.3-8,5-11.9c0.3-0.8,0.7-1.6,1-2.3c0.9-0.4,1.6-0.4,2.4-0.2c1.1,2,5.7,13.3,6.1,15.2c-0.6,0-1.2,0.1-1.8,0.1
		c-0.2-0.2-0.4-0.4-0.5-0.6C384.8,120.7,384.3,119.6,383.7,118.3z M383,116.2c-0.9-2.3-1.6-4.4-2.5-6.8c-0.6,1.4-1.1,2.4-1.4,3.4
		c-0.4,1.1-1.1,2.1-1.1,3.4C379.6,116.2,381.1,116.2,383,116.2z"/>
	<path class="st0" d="M419.8,122.3c-0.6-1.4-1.3-2.7-1.9-4c-2.3-0.2-4.5-0.1-6.8-0.1c-0.6,1.3-1.2,2.6-1.7,3.7
		c-0.7,0.4-1.4,0.4-2.1,0c0.5-1.9,5.1-13,6.3-15c0.7-0.3,1.5-0.3,2.4,0.2c2,4.8,4,9.7,6,14.8c-0.3,0.2-0.5,0.3-0.7,0.3
		C420.8,122.3,420.3,122.3,419.8,122.3z M412,116c2.6,0.4,3.6,0.4,5.1-0.2c-0.8-2-1.3-4.1-2.6-6.2C413.6,111.8,412.8,113.8,412,116z
		"/>
	<path class="st0" d="M523.9,107c0.7,0,1.1-0.1,1.5-0.1c0.3,0,0.6,0.1,1.1,0.2c2,4.9,4,9.8,6,14.8c-0.7,0.7-1.4,0.5-2.3,0.3
		c-0.6-1.2-1.2-2.5-1.8-3.7c-1.2-0.4-2.3-0.2-3.4-0.2c-1.1,0-2.2,0-3.4,0c-0.6,1.4-1.2,2.7-1.9,3.9c-0.7,0-1.3,0-2,0
		c0.1-0.4,0.1-0.8,0.2-1C519.9,116.5,521.9,111.8,523.9,107z M525,109.5c-0.9,2.3-1.7,4.4-2.5,6.4c2,0.5,3.3,0.4,5,0
		C526.8,113.8,526.2,111.7,525,109.5z"/>
	<path class="st0" d="M143.5,58.2c0.7,1.2,0.6,2.5,0.8,4c-1,0.2-1.9,0.5-2.8,0.6c-4.9,0.9-9.9,1.7-14.9,2.6c-0.5-1.4-0.8-2.7-0.8-4
		C127.8,60.6,141.4,58.2,143.5,58.2z"/>
	<path class="st0" d="M736.2,122.3c-0.5-0.1-1.1-0.1-1.7-0.2c0.4-2,5.2-13.3,6.3-15.2c0.6,0,1.3,0,2.2,0c1.3,2.4,2.1,5,3.1,7.5
		c1,2.5,2.2,4.9,3,7.5c-0.7,0.6-1.4,0.4-2.3,0.1c-0.5-1.1-1-2.3-1.6-3.7c-2.2-0.4-4.4,0-6.5-0.2
		C737.4,119.3,737.4,120.9,736.2,122.3z M739.3,116c1.9,0.4,2.9,0.4,4.9,0c-0.6-2.1-1.4-4.1-2.5-6.7
		C740.9,111.9,739.8,113.8,739.3,116z"/>
	<path class="st0" d="M110.3,108.3c1.2-1.6,2.2-3,3.5-4.1c2.5-2.1,5.3-2.5,8.2-1c1.9,1,3.5,2.3,4.8,3.9c2.2,2.8,2.3,6.2,0.4,9.2
		c-0.7,1.1-1.5,2-2.4,3.2C119.8,115.8,115.2,112.1,110.3,108.3z M112.6,107.8c1.5,1.2,2.8,2.2,4,3.2c1.3,1,2.6,2.1,4,3.1
		c1.3,0.9,2.3,2.2,3.8,2.7c3-3.1,3-6.1,0.2-9.1c-1.3-1.3-2.7-2.4-4.5-3.1c-1.8-0.7-3.5-0.5-5,0.7
		C114.3,105.9,113.6,106.8,112.6,107.8z"/>
	<path class="st0" d="M462.3,106.9c0,0.7,0,1.2,0,1.7c-2.3,0.6-4.7,0-7,0.4c-0.4,1.3-0.2,2.7-0.1,4.1c2.2,0.6,4.5-0.1,6.8,0.4
		c0.1,0.5,0.1,0.9,0.2,1.4c-0.3,0.1-0.5,0.3-0.7,0.4c-1.4,0-2.9,0-4.3,0.1c-0.6,0-1.2,0.1-1.8,0.1c-0.4,1-0.2,1.9-0.3,2.7
		c0,0.6,0.1,1.2,0.1,1.9c2.5,0.4,4.9-0.1,7.3,0.3c0.1,0.4,0.2,0.7,0.1,1c0,0.2-0.1,0.4-0.2,0.6c-0.1,0.1-0.2,0.2-0.3,0.2
		c-0.1,0-0.2,0.1-0.2,0.1c-2.6,0-5.3,0.1-7.9,0.1c-0.4,0-0.8-0.1-1.1-0.1c-0.4-1.8-0.5-11.8-0.1-15c1.5-0.6,3.1-0.2,4.6-0.3
		C459,106.8,460.5,106.9,462.3,106.9z"/>
	<path class="st0" d="M64,124.7c-0.2,0.6-0.3,1-0.5,1.4c-0.3,0-0.5,0-0.6,0c-0.6-0.4-1.2-0.8-1.8-1.1c-2.2-1.2-4.9-0.8-6.6,1
		c-2.5,2.6-3.2,5.8-2.5,9.3c0.6,2.8,3.1,4.3,6.4,3.9c0.3-0.9,0.7-1.9,0.9-2.8c0.2-0.9,0.7-1.8,0.6-2.9c-0.9-0.3-1.7-0.7-2.8-1
		c0.2-0.5,0.3-0.9,0.6-1.4c1.6,0.4,3,0.8,4.6,1.3c-0.7,3-1.5,5.8-2.4,8.5c-4.7,1.4-9.2-1.5-9.9-6.2c-0.5-3.1,0.2-6,2.1-8.6
		c0.4-0.6,0.9-1.1,1.5-1.6c2.1-1.8,4.5-2.4,7.1-1.5C61.9,123.2,62.9,123.7,64,124.7z"/>
	<path class="st0" d="M611,107c0.7,0,1.2,0,2,0c0.1,0.7,0.1,1.4,0.1,2c0,2.2,0,4.3,0,6.5c0,0.5,0,1,0,1.4c0.3,3.1,3.3,4.7,6,3.2
		c0.8-0.4,1.4-1.1,1.6-2c0.2-0.9,0.3-1.7,0.3-2.6c0-2.2,0-4.3,0-6.5c0-0.6,0.1-1.2,0.1-2c0.6,0,1.2,0,1.7,0c0.1,0.2,0.3,0.4,0.3,0.6
		c0,3.2,0.1,6.4,0,9.6c-0.1,3.1-2.1,5-5.1,5.3c-4.7,0.4-7.1-1.6-7.3-6.3c-0.1-2.7,0-5.4,0-8.2C610.7,107.7,610.9,107.4,611,107z"/>
	<path class="st0" d="M679.3,107c3.1-0.3,6.2-0.1,9.3-0.1c0.1,0.6,0.1,1.1,0.2,1.7c-2.5,0.6-4.9,0-7.3,0.4c-0.3,1.4-0.2,2.7-0.1,4.2
		c2.3,0.5,4.5-0.1,6.7,0.4c0.1,0.3,0.2,0.5,0.3,0.7c0,0.2,0,0.5-0.1,0.7c-0.2,0.1-0.4,0.3-0.6,0.3c-1.1,0-2.2,0.1-3.4,0.1
		c-0.9,0-1.7,0-2.6,0c-0.6,1.5-0.6,1.8-0.3,4.6c1.2,0.6,2.5,0.2,3.7,0.3c1.2,0.1,2.4-0.1,3.6,0.2c0.1,0.3,0.2,0.5,0.2,0.8
		c0,0.3-0.1,0.6-0.2,0.9c-2.1,0.4-7.4,0.4-9.3,0C679.1,120.4,678.9,110.8,679.3,107z"/>
	<path class="st0" d="M87.1,136.1c-0.1,1.8-0.2,3.3-0.2,5c-0.4,0.2-0.8,0.4-1.3,0.6c-0.2-0.3-0.4-0.5-0.4-0.7
		c0.1-4.1,0.3-8.1,0.5-12.2c0.1-2,0.2-4,0.3-6.1c0.5-0.2,1-0.3,1.5-0.5c1.3,1.3,9.3,12.9,10.8,15.5c-0.3,0.7-0.8,0.6-1.5,0.6
		c-0.9-1.2-1.8-2.5-2.7-3.8c-1.3-0.3-2.4,0.4-3.5,0.6C89.4,135.3,88.4,135.7,87.1,136.1z M87.5,125.1c-0.1,2.7-0.2,5.4-0.3,8.1
		c0,0.2,0.1,0.4,0.2,0.7c1.9,0,3.5-0.8,5.4-1.4C91.1,129.9,89.6,127.4,87.5,125.1z"/>
	<path class="st0" d="M654.1,110.6c-0.1,0.1-0.2,0.2-0.4,0.3c-0.5,0-1,0-1.6,0c0-0.1-0.2-0.2-0.3-0.5c-0.8-1.6-2.2-2-3.8-1.8
		c-1.7,0.2-2.7,1.3-3.2,2.9c-0.7,2.1-0.7,4.2,0,6.4c0.7,2,2.1,2.9,4.2,2.8c0.9-0.1,1.7-0.4,2.3-1.1c0.3-0.4,0.5-0.8,0.9-1.2
		c0.6,0,1.2,0.1,1.9,0.1c0,1.5-0.8,2.5-1.9,3.2c-3.7,2.5-8.6,0.8-9.8-3.5c-0.6-2.2-0.7-4.4,0-6.6c1.1-4.1,5.1-6,9.1-4.4
		C653.1,107.7,653.7,108.5,654.1,110.6z"/>
	<path class="st0" d="M592.3,110.7c-0.7,0.1-1.3,0.2-2,0.3c-0.2-0.2-0.3-0.4-0.4-0.6c-0.8-1.5-2.2-2-3.8-1.8
		c-1.7,0.2-2.7,1.3-3.2,2.9c-0.7,2.1-0.7,4.3,0,6.4c0.7,2,2.1,2.9,4.2,2.7c0.9-0.1,1.7-0.4,2.3-1.1c0.3-0.4,0.5-0.8,0.9-1.2
		c0.6,0,1.2,0.1,1.9,0.1c0,1.5-0.8,2.5-1.9,3.2c-3.7,2.5-8.4,0.9-9.7-3.3c-0.8-2.5-0.8-5,0.1-7.5c1.5-3.9,5.9-5.5,9.5-3.4
		C591.4,108.1,592.2,109.1,592.3,110.7z"/>
	<path class="st0" d="M30.1,102.6c0.3,0.2,0.5,0.3,0.7,0.5c1.4,1.7,2.9,3.4,4.4,5.2c-0.4,0.4-0.7,0.7-1.1,1.1c-1.5-1.3-2.5-3-4-4.3
		c-1.7,1-3.1,2.4-4.7,3.8c1.2,1.5,2.3,2.8,3.5,4.3c-0.3,0.4-0.6,0.7-1,1.1c-1.5-1.2-2.4-2.9-3.9-4.1c-1,0.5-1.7,1.3-2.6,2
		c-0.9,0.7-1.7,1.4-2.6,2.2c1.1,1.8,2.6,3.1,3.8,4.9c-0.3,0.3-0.7,0.6-1,0.9c-1.5-1.2-4-4.2-5.2-6.2c4.1-3.6,8.4-7,12.6-10.6
		C29.3,103.1,29.7,102.9,30.1,102.6z"/>
	<path class="st0" d="M497.9,107c1,0,1.6,0,2.3,0c0.2,0.2,0.4,0.3,0.5,0.5c1.1,1.7,2.1,3.4,3.2,5c0.3,0.4,0.6,0.8,1.1,1.4
		c1-1.2,1.6-2.4,2.3-3.5c0.7-1.1,1.4-2.3,2.1-3.3c0.9-0.3,1.6-0.3,2.4,0.1c-0.4,0.7-0.7,1.3-1,1.9c-1.3,2.1-2.5,4.3-3.9,6.3
		c-0.6,0.9-0.8,1.9-0.8,2.9c0,1.2,0,2.4,0,3.7c-0.7,0.1-1.3,0.1-1.8,0.2c-0.8-0.8-0.5-1.6-0.5-2.4c-0.1-3.9,0.3-2.6-1.7-6
		c-1.1-1.8-2.1-3.6-3.2-5.3C498.5,108.2,498.3,107.7,497.9,107z"/>
	<path class="st0" d="M732.8,120.5c0.1,0.4,0.2,0.6,0.2,0.8c0,0.2-0.1,0.5-0.1,0.7c-0.7,0.5-6.4,0.6-9.1,0.1
		c-0.1-0.4-0.2-0.9-0.2-1.3c-0.2-5.1-0.1-11.8,0.3-13.7c0.6,0,1.2,0,1.8,0c0.1,0.3,0.2,0.5,0.2,0.7c0,3.2,0,6.4,0,9.6
		c0,0.9,0,1.7,0,2.7C728.2,120.7,730.5,120,732.8,120.5z"/>
	<path class="st0" d="M559.2,107.1c0.1,0.4,0.1,0.6,0.1,0.8c0,0.2-0.1,0.4-0.2,0.8c-1.5,0.1-3,0.1-4.6,0.2c-0.1,0.6-0.2,1.1-0.2,1.6
		c0,3,0,6.1,0,9.1c0,0.8,0.2,1.6-0.3,2.5c-0.4,0-1,0.1-1.6,0.1c-0.1-0.4-0.3-0.6-0.3-0.9c0-3.3,0-6.5,0-9.8c0-0.8-0.1-1.6-0.1-2.4
		c-1.6-0.6-3.3,0-4.8-0.5c-0.1-0.3-0.2-0.5-0.2-0.7c0-0.2,0-0.5,0.1-0.7c0.2-0.1,0.3-0.3,0.4-0.3
		C549.1,106.8,557.3,106.8,559.2,107.1z"/>
	<path class="st0" d="M662.4,107c0.7,0,1.2,0,1.8,0c0.1,0.3,0.2,0.6,0.2,0.9c0,3.1,0,6.2,0,9.3c0,0.9,0,1.7,0,2.7
		c2.3,0.8,4.7,0,7,0.5c0,0.6,0,1.1,0,1.6c-2.2,0.4-7,0.4-8.9,0C662.2,120.4,662.1,110.9,662.4,107z"/>
	<path class="st0" d="M70.3,124.4c0.6,0,1,0,1.5,0c0.1,0.4,0.2,0.8,0.2,1.1c0,4.2,0,8.4,0,12.7c0,0.8,0,1.6,0,2.5
		c0.6,0.1,1.2,0.2,1.7,0.2c1.3,0,2.5,0,3.9,0c0,0.6,0.1,1,0.1,1.5c-0.6,0-1.1,0.1-1.6,0.1c-1.9,0-3.8,0-5.8,0
		c-0.1-0.6-0.3-1.1-0.3-1.5c0-5.1,0-10.2,0-15.3C70.2,125.4,70.3,125,70.3,124.4z"/>
	<path class="st0" d="M658.8,122.2c-0.8,0-1.4,0-1.9,0c-0.1-0.3-0.3-0.5-0.3-0.8c0-4.5,0-8.9,0-13.4c0-0.3,0.1-0.6,0.2-1
		c0.6,0,1.1,0,1.7-0.1c0.6,1.7,0.2,3.4,0.3,5c0.1,1.7,0,3.3,0,5C658.8,118.6,658.8,120.3,658.8,122.2z"/>
</g>
</svg>
