<?xml version="1.0" encoding="UTF-8"?>
<svg enable-background="new 0 0 824.4 195.2" version="1.1" viewBox="0 0 824.4 195.2" xml:space="preserve" xmlns="http://www.w3.org/2000/svg">
<style type="text/css">
	.charity-logo{fill:#FFFFFF;}
	.charity-logobg{enable-background:new    ;}
</style>
<g transform="translate(16.25 -334.46)">
	<path class="charity-logo" d="m-16.2 347.8c0.3-0.8 0.7-1.6 0.9-2.5 1.7-5.1 6-8.9 11.3-10.1 1.9-0.5 3.9-0.8 5.9-0.8h171.5c4.7-0.3 9.3 1.5 12.6 5 2.5 2.9 4 6.6 4.4 10.5 0.1 0.8 0.1 1.6 0 2.5v131c0.2 3.4-0.6 6.8-2.2 9.7-2.8 4.4-7.5 7.2-12.8 7.5-1.5 0.1-3 0.1-4.6 0.1h-166.2c-1.9 0.1-3.9 0.1-5.8 0-6.4-0.3-11.9-4.6-13.6-10.8-0.4-0.9-0.8-1.8-1.3-2.7l-0.1-139.4zm102.7 150.8h84.9 3.2c6.3-0.1 11.7-4.5 13.1-10.7 0.3-1.6 0.4-3.2 0.4-4.9v-129.2-3.2c-0.1-5.8-3.7-10.9-9.1-12.9-2.4-0.8-5-1.2-7.6-1.1h-166.6c-2.4-0.1-4.9 0.2-7.3 0.7-5.6 0.7-10.2 5-11.1 10.6-0.3 1.7-0.5 3.4-0.5 5.2 0 43 0 85.9-0.1 128.9 0 2.7 0.5 5.3 1.4 7.8 1.2 4 4.4 7.1 8.5 8.1 1.8 0.4 3.7 0.7 5.5 0.7h85.3z"/>
	<path class="charity-logo" d="m603.7 401.1 9.2-32.1h8.2l4.9 43.5c-2.5 0.1-5.1 0.1-7.6 0l-3.2-32.5-9.4 32.5h-4.8l-9-31.4h-0.4c-1 10.4-2 20.8-3.1 31.4h-6.9c1.6-14.6 3.1-28.9 4.9-43.4h8c3.4 10.3 5.9 21 9.2 32z"/>
	<path class="charity-logo" d="m554 400.8c1.3-3.5 2.3-7.1 3.2-10.8 1.1-3.4 2.3-6.8 3.2-10.3 0.8-3.6 1.9-7.2 3.2-10.7h7.9c0.3 2.7 0.7 5.3 1 7.9 0.3 3.1 0.5 6.3 0.9 9.4 0.3 2.6 0.8 5.3 1.2 7.9 0.3 2 0.4 3.9 0.6 5.9 0.4 4 0.8 8.1 1.2 12.3h-7.5c-0.6-5.4-1.4-10.6-1.7-15.9-0.3-5.2-1-10.3-1.9-15.4l-8.9 31.4h-4.7c-2.1-5.1-3.2-10.6-4.9-16s-3-10.8-4.7-16.1c-0.8 10.7-2.1 21.3-3.1 32.1h-7c0.8-6.6 1.7-13.3 2.5-19.9 0.4-3.1 0.5-6.3 0.9-9.4 0.3-3 0.8-6 1.1-9 0.2-1.6 0.3-3.2 0.4-5.2 2.6-0.2 5.3 0 8.2 0l8.9 31.8z"/>
	<path class="charity-logo" d="m768.4 412.6h-6.8v-43.4h7.7l17.8 30.3c0.4-3.7 0.2-6.9 0.2-10v-10.2-10c2-0.2 4-0.3 5.9-0.2 0.9 14.5 1 29 0.4 43.5l-6.3 0.5-19-32.3c0.1 10.7 0.1 21 0.1 31.8z"/>
	<path class="charity-logo" d="m354.3 393.6 12.6 18.9h-9l-11.9-18.8c-0.3 2-0.4 4.1-0.3 6.2-0.1 2.1 0 4.2 0 6.3s0 4.2 0 6.4h-8.1v-41.7c1.4-0.5 3-1 4.5-1.5 5.2-1.6 10.7-1.4 15.8 0.4 4.8 1.5 7.9 5.9 7.8 10.9 0.4 3.5-0.8 7.1-3.4 9.5-1.6 1.6-3.7 2.5-5.9 2.8-0.8 0.1-1.5 0.3-2.1 0.6zm-8.6-19.9c0 3.3-0.1 6.1 0 8.9-0.2 2.9-0.1 5.9 0.4 8.7 1 0.1 2 0.1 3 0 5.4-0.9 7.7-2.4 8.6-7.5 0.2-1.3 0.2-2.6 0-3.9-0.1-2-0.9-3.9-2.4-5.3-2.9-1.7-6.4-2.1-9.6-0.9z"/>
	<path class="charity-logo" d="m721.7 391c0.1-4.2 0.9-8.4 2.2-12.3 2.8-8.1 11.6-12.4 19.6-9.6 1.4 0.5 2.6 1.1 3.8 1.9 3.1 2.2 5.2 5.5 6.1 9.1 2.3 7.5 2.1 15.6-0.6 23-1.3 4.7-5 8.4-9.7 9.7-5.2 1.7-11 0.6-15.1-3.1-2.8-2.8-4.7-6.5-5.3-10.4-0.5-2.7-0.7-5.5-1-8.3zm8.3-0.2h0.4c0 1.9-0.1 3.8 0 5.6 0.2 3.1 1.3 6.2 3.2 8.7 2.2 2.7 6.1 3.1 8.8 0.9l0.1-0.1c1.8-1.8 3-4.2 3.4-6.7 0.8-4.2 1-8.6 0.6-12.9-0.1-3.3-1-6.5-2.6-9.3-1.7-3-5.4-4.1-8.4-2.4-1 0.6-1.9 1.4-2.4 2.4-0.8 1.7-1.5 3.4-2 5.2-0.6 2.8-0.7 5.7-1.1 8.6z"/>
	<path class="charity-logo" d="m495.1 391.7c-0.4-5.2 0.6-10.4 2.8-15.1 3.6-7.2 12.3-10.3 19.6-7 4.2 1.7 7.3 5.3 8.5 9.6 0.8 2.7 1.3 5.4 1.6 8.2 0.5 4.4 0.2 8.8-1 13.1-0.4 2.7-1.5 5.2-3.2 7.3-2.6 3.7-6.9 5.8-11.4 5.7-1.8-0.1-3.7-0.3-5.5-0.6-5-1.3-8.8-5.2-10-10.2-1.2-3.7-1.7-7.4-1.4-11zm25-0.6c-0.1-4.2-0.9-8.4-2.3-12.4-0.8-2.6-3.1-4.6-5.8-4.9-2.9-0.3-5.6 1.4-6.6 4.2-0.5 1-0.9 2.1-1.1 3.3-0.4 2.2-0.5 4.4-0.8 6.6-0.7 4.7-0.2 9.5 1.4 14 0.4 1.2 1 2.3 1.8 3.4 1.7 1.7 4.2 2.5 6.6 1.9 2.7-0.8 4.6-3 5-5.8 0.7-3.4 1.4-6.8 1.8-10.3z"/>
	<path class="charity-logo" d="m290.1 412.5h-7.4c-0.4-2-0.5-4.1-0.3-6.1-0.1-2.2 0-4.5 0-6.7v-6.3c-4.5-0.7-9.2-0.7-13.7 0-0.3 3.1-0.4 6.2-0.2 9.3-0.1 3.2 0 6.3 0 9.8-2.4 0.2-4.9 0.2-7.3 0.1l-0.3-0.3c-0.1-0.1-0.2-0.2-0.2-0.3 0-14 0-27.9-0.1-41.9 0-0.4 0.1-0.7 0.3-1.1h7.6v9.1 7.7c0 1.1 0.4 1.9 1.6 1.9 3.7 0 7.5 0 11.3-0.1 0.3 0 0.6-0.3 1.1-0.7v-18c2.6-0.2 5-0.1 7.4-0.1 0.5 3 0.7 34 0.2 43.7z"/>
	<path class="charity-logo" d="m310.1 369h7.7c4.9 14.3 9.6 28.7 14.3 43.2-1.4 0.4-3 0.6-4.5 0.4-1.3 0.1-2.6 0-3.8 0l-3.4-11.1h-13.9l-3.6 11h-7.2l14.4-43.5zm9.2 27.7-5.4-18.5h-0.5l-5.5 18.4c3.7 0.5 7.5 0.5 11.4 0.1z"/>
	<path class="charity-logo" d="m694.7 428.1h4.7c-1.1 6.6-3 12.8-4.3 19.1-1.3 6.2-2.9 12.4-4.4 18.8h-4.7c-1.4-4.6-2.2-9.5-3.5-14.3-1.2-4.7-2.4-9.4-3.8-15l-7.2 29.4h-4.7l-8.8-37.6c1.7-0.8 3.4 0 5.2-0.5l6.1 30.2c3-9.9 5.1-20 7.8-29.9h3.9l7.1 30.1c1-2.5 1.6-5 2-7.7 0.7-2.5 1.2-5 1.7-7.5l1.5-7.5c0.3-2.6 0.8-5 1.4-7.6z"/>
	<path class="charity-logo" d="m646.3 410.7 1.9-5.2c2.5 1.1 5.1 1.7 7.8 1.6 2.8 0.1 5.3-1.6 6.1-4.3 1-3-0.2-6.2-2.9-7.8-2.1-1.2-4.4-2.2-6.5-3.4-4.2-2.2-6.6-6.7-6-11.4 0.8-9 8.2-12.9 15.8-11.8 2.5 0.2 4.8 1 6.8 2.5l-1.6 4.7c-1.4-0.6-2.9-1.1-4.4-1.5-1.5-0.3-3-0.3-4.5 0-2.5 0.6-4.2 2.8-4.2 5.4-0.3 2.1 0.6 4.2 2.3 5.5 1.7 1.1 3.4 2 5.2 2.8 2.5 1.1 4.6 2.7 6.4 4.7 4.7 5.3 2.3 15-2.7 18.3-6 3.5-13.5 3.5-19.5-0.1z"/>
	<path class="charity-logo" d="m675.8 411 2-5.6c2.6 1.2 5.4 1.8 8.2 1.6 3.5-0.1 6.2-2.9 6.1-6.4 0-2.1-1.1-4-2.8-5.1-1.8-1.2-3.8-2.3-5.8-3.2-3.6-1.6-6.2-4.8-7-8.6-1.4-6.4 2.3-12.8 8.6-14.8 4.5-1.3 9.4-0.7 13.5 1.8 0.5 1.9-0.9 3.3-1.5 5-1.4-0.5-2.8-1.1-4.2-1.5-1.7-0.5-3.5-0.4-5.1 0.2-3.2 1.5-4.5 5.2-3 8.4 0.4 0.9 1 1.6 1.8 2.2 1.8 1.1 3.6 2.1 5.5 3 3.9 1.6 7 4.8 8.3 8.9 1.8 7.1-2.5 14.3-9.5 16.1-0.4 0.1-0.7 0.2-1.1 0.2-3.5 0.7-7.1 0.5-10.4-0.6-1.2-0.5-2.2-1-3.6-1.6z"/>
	<path class="charity-logo" d="m413.3 369.1h8.6c2.6 5.5 4.8 11.5 7.5 17.7 3.3-6 5.1-12.2 8.1-17.8h7.5c-1.3 2.8-2.5 5.4-3.7 8.1-2.5 5.1-5 10.3-7.4 15.4-0.5 1.2-0.7 2.4-0.7 3.7-0.1 4.6 0 9.1 0 13.7v2.5h-7.7c0-0.8-0.1-1.6-0.1-2.4 0-4-0.1-8 0-12 0.1-2.6-0.5-5.1-1.7-7.4-3.2-6.6-6.4-13.2-9.5-19.9-0.3-0.3-0.5-0.8-0.9-1.6z"/>
	<path class="charity-logo" d="m252.2 405.6 1.8 5.2c-6.2 4.7-18.5 3.1-22.5-5.6-3-6.2-4-13.2-2.8-20 0.5-3.6 1.8-7 3.7-10.1 4.5-6.8 13.6-9 20.7-5 0.3 0.2 0.6 0.5 0.9 0.8l-1.5 4c-2.4-0.2-4.7-0.5-6.9-0.6-2.2 0-4.3 1.2-5.6 3.1-1.9 2.7-3 5.8-3.2 9.1-0.6 4.6-0.2 9.4 1.3 13.8 0.9 2.5 2.5 4.5 4.8 5.9 2.2 1.1 4.8 1.2 7.1 0.3 0.8-0.1 1.5-0.5 2.2-0.9z"/>
	<path class="charity-logo" d="m489.9 406.1 1.8 4.6c-1 1.2-2.4 1.9-3.9 2.1-8.1 1.9-14.5-0.3-18.6-7.8-2-3.6-3-7.6-2.9-11.7v-5.3c0-5.4 2-10.7 5.5-14.7 3.4-4 8.8-5.8 13.9-4.7 2.1 0.5 4.2 1.2 6.2 2l-1.6 4.7c-2.1-0.3-3.9-0.5-5.7-0.7-3.8-0.2-7.2 2.1-8.3 5.7-0.6 1.4-1 2.8-1.2 4.3-1.1 5.7-0.6 11.7 1.5 17.2 2.5 5.4 6 6.1 11.5 5 0.5-0.3 1.1-0.5 1.8-0.7z"/>
	<path class="charity-logo" d="m469.3 428.1h5.4l17.5 30.1v-30h3.9c0.6 2.8 0.8 26.9 0.3 37.6-1.5 0.4-3 0.4-4.5 0.2l-18.1-31-0.5 0.2v30.8h-4.1l0.1-37.9z"/>
	<path class="charity-logo" d="m579.9 428.1h5.3l17.2 29.5 0.5-0.1v-29.2h3.9c0.6 2.8 0.8 28.1 0.3 37.6-1.5 0.4-3 0.5-4.5 0.2l-18.1-31-0.4 0.1v30.8h-4.1l-0.1-37.9z"/>
	<path class="charity-logo" d="m355.1 466.1h-3.9c-0.8-12.5-0.9-25.1-0.4-37.7 1.8-0.4 3.6-0.5 5.4-0.4l17.5 29.9c0.3-3.3 0.4-6.7 0.3-10 0.1-3.3 0-6.6 0-9.9v-9.9h3.7c0.6 2.3 0.8 32.1 0.2 37.8-0.3 0.1-0.6 0.2-0.9 0.2h-3.3l-18.6-31.7v31.7z"/>
	<path class="charity-logo" d="m613.6 464.9v-34.9c6.2-3.8 14-3.6 20 0.6 2.6 2.1 4.4 5 5 8.2 1.8 6.6 1.3 13.6-1.3 19.9-1.9 4.8-6.5 8-11.6 8.1-3 0.3-6.1 0.1-9-0.7-0.9-0.3-1.9-0.8-3.1-1.2zm5.5-2.6c3.1 1.4 6.7 1.3 9.7-0.3 2.3-1.3 3.9-3.5 4.4-6 1.6-6.1 1.5-12.5-0.2-18.5-0.3-0.9-0.7-1.7-1.2-2.5-2.8-4.1-8.3-5.3-12.6-2.9l-0.1 30.2z"/>
	<path class="charity-logo" d="m402.8 412.5h-8.3v-37.9h-7.7v-5.5h23.7v5.3h-7.5c-0.5 4.4-0.2 8.6-0.2 12.8-0.1 4.1 0 8.2 0 12.3v13z"/>
	<path class="charity-logo" d="m503 464.6v-35.1c4.1-1.9 8.7-2.5 13.1-1.8 5.9 1 10.6 5.5 11.7 11.4 1.7 6 1.4 12.3-0.7 18.2-1.7 5.8-7.1 9.7-13.1 9.6-3.8 0.3-7.6-0.4-11-2.3zm4.9-32.5v30.1c4.8 2.7 10.8 1.1 13.5-3.7 0.5-0.9 0.9-2 1.1-3 0.7-3.7 1-7.4 0.8-11.1 0-2.4-0.5-4.9-1.4-7.1-1.8-5-7.4-7.7-12.5-5.8-0.4 0-1 0.3-1.5 0.6z"/>
	<path class="charity-logo" d="m250.7 447.8c-0.3-3.7 0.2-7.4 1.4-10.9 0.9-2.5 2.4-4.8 4.3-6.6 5.4-4.4 13.4-3.6 17.8 1.9 0.4 0.5 0.8 1.1 1.1 1.6 1.6 3 2.6 6.2 2.8 9.6 0.5 4.7 0.1 9.4-1.3 13.8-0.8 2.9-2.5 5.6-4.9 7.5-5.9 4.1-14 2.7-18.1-3.2-0.7-1-1.3-2.1-1.7-3.3-1.1-3.3-1.6-6.9-1.4-10.4zm22.6-0.6c-0.3-2.5-0.4-5.1-0.9-7.8-0.4-1.8-1.1-3.6-2-5.2-1.9-3.3-6-4.4-9.3-2.6-1.1 0.6-1.9 1.5-2.5 2.5-0.6 1.1-1.2 2.3-1.5 3.5-1.7 5.7-1.8 11.8-0.4 17.5 0.4 1.7 1.1 3.3 2 4.8 1.9 2.8 5.5 3.8 8.6 2.4 1.7-0.8 3.1-2.1 3.8-3.9 1.4-3.4 2.1-7.3 2.2-11.2z"/>
	<path class="charity-logo" d="m284.1 429.4c4.8-2.2 10.2-2.7 15.3-1.2 4.3 1 7.2 5 7 9.4 0 1.9-0.2 3.7-0.6 5.5-1.3 3.3-4.3 5.7-7.9 6.1-0.3 0.1-0.7 0-1 0.1s-0.7 0.2-1.3 0.4c3.4 5.8 8 10.6 11.5 16.4h-5.5l-12.2-17.1c-1.1 2.2 0.3 4 0 5.8-0.3 1.9-0.4 3.8-0.5 5.7-0.1 1.8 0 3.7 0 5.6h-4.8v-36.7zm5.6 1.4c-0.4 0.9-0.6 1.8-0.8 2.8 0 4 0.1 8 0.2 12 0.1 0.7 0.4 1.5 0.7 2.1 1.3 0 2.6 0.1 3.9 0 3.6 0.1 6.9-2.4 7.6-5.9 0.3-2 0.4-4 0.1-5.9-0.6-2.8-3-4.9-5.9-5.1-2-0.1-3.8 0-5.8 0z"/>
	<path class="charity-logo" d="m408.5 429.6-1.6 2.8c-1.4-0.3-2.6-0.6-3.8-0.9-5.5-1.7-11.3 1.4-12.9 6.9 0 0.1-0.1 0.3-0.1 0.5-1.9 5.7-1.8 11.8 0.2 17.4 0.7 2 2 3.7 3.7 5 2.9 2.4 6.9 2.8 10.2 1.1v-13.8c-2-1.6-4.4-0.1-6.6-1.1v-2.4h11.2c0.7 6.6 0.8 13.2 0.2 19.8-1.3 0.6-2.6 1.1-4 1.5-4.4 1.1-9.1 0.6-13.3-1.4-2.9-1.5-5.2-4.1-6.3-7.2-2.7-6.5-2.8-13.8-0.3-20.4 2.7-7.2 10.2-11.3 17.6-9.7 1.4 0.3 2.7 0.6 4 1l1.8 0.9z"/>
	<path class="charity-logo" d="m718.3 455h-13l-3.7 11.1h-4.1c3.5-12.8 7.6-25.4 12.5-37.7 0.6-0.1 1.3-0.2 1.9-0.2h2c1.6 2.7 11.9 32.5 13 37.8-1.6 0.4-3.3 0.5-4.9 0.4l-3.7-11.4zm-6.4-21.4-5.6 18.4c2.2 0 3.9 0.1 5.6 0 1.8 0.2 3.6 0.1 5.4-0.4-1.6-6.1-3.6-11.8-5.4-18z"/>
	<path class="charity-logo" d="m559.1 428.2h4.5c4.6 12.4 8.5 25.1 12.9 37.9h-5.3l-3.6-11.1h-12.9l-3.8 11h-4.6c4.2-12.8 8.3-25.2 12.8-37.8zm7.4 23.6c-1.5-6.2-3.5-12-5.4-18.2l-5.6 18.2h11z"/>
	<path class="charity-logo" d="m465.5 466.1h-5.3l-3.5-10.9c-2.1-0.4-4.3-0.5-6.4-0.3-2.1-0.1-4.2 0-6.6 0l-3.9 11.2h-4.5c0.5-1.8 0.9-3.4 1.5-5l8.1-23.4c1.1-3.2 2.1-6.4 3.1-9.6h4.7l12.8 38zm-15.1-31.7h-0.6l-5.4 17.3c3.7 0.3 7.5 0.4 11.2 0.3l-5.2-17.6z"/>
	<path class="charity-logo" d="m639.9 412.5h-8v-43.4c2.7-0.3 5.3-0.3 8-0.1v43.5z"/>
	<path class="charity-logo" d="m373 412.6c-0.6-5.7-0.4-40.9 0.2-43.5 2.5-0.3 5.1-0.3 7.7-0.2v43.7h-7.9z"/>
	<path class="charity-logo" d="m707.3 369h7.2c0.7 2.9 0.9 27.5 0.4 43.3-2.5 0.4-5.1 0.5-7.6 0.3v-43.6z"/>
	<path class="charity-logo" d="m792.9 429.5-1.1 3c-1.4-0.4-2.7-0.7-4.1-1.1-3.3-1.3-7 0.4-8.3 3.7-0.4 0.9-0.5 1.9-0.4 2.9 0.3 2.5 1.9 4.7 4.2 5.6 1.4 0.8 3 1.3 4.4 2.1 1.6 0.8 3 1.8 4.3 3 2.8 3.3 3.4 8 1.3 11.8-1.6 3.8-5.2 6.3-9.3 6.3-3.4 0.5-7-0.2-10-2l1.1-3.5c1.9 0.6 3.6 1.2 5.4 1.6 2.9 0.6 5.9-0.7 7.5-3.2 1.8-2.7 1.4-6.4-1.1-8.6-1.5-1.1-3.1-2-4.8-2.7-2.4-1-4.5-2.5-6.1-4.5-3.2-4.9-1.8-11.5 3.1-14.7 0.7-0.5 1.4-0.8 2.2-1.1 3.9-1.3 8.2-0.8 11.7 1.4z"/>
	<path class="charity-logo" d="m769.8 462.8v3.2h-17.4v-37.7c2.8-0.4 5.7-0.4 8.5-0.3 2.8-0.1 5.6 0 8.6 0 0.1 0.5 0.3 1.1 0.3 1.6 0 0.6 0 1.2-0.1 1.8h-12c-0.7 4.3-0.7 8.8 0 13.1 3.4 0.8 6.9 0 10.6 0.5 0.1 0.9 0.2 1.9 0.3 3.1-3.8 0.6-7.4 0-11.1 0.4v13.9c3.9 0.6 7.9 0 12.3 0.4z"/>
	<path class="charity-logo" d="m332.5 431.7v13.2h10.8l0.3 1.2c0 0.7-0.1 1.3-0.1 2.2h-10.5c-0.7 4.7-0.8 9.5-0.3 14.2 4 0.4 8-0.2 12.2 0.4v3.1h-17.3v-37.9c2.8-0.1 5.7 0 8.6-0.1h8.6l0.3 3.4c-4.2 0.4-8.2 0-12.6 0.3z"/>
	<path class="charity-logo" d="m229.7 428.2h17.3c0.1 1 0.1 2 0.2 3.2-4.2 0.5-8.3 0-12.6 0.3-0.2 4.4 0 8.6-0.1 13.2h11.1v3.4h-10.8c-0.4 2.9-0.5 5.9-0.3 8.8-0.1 2.9 0 5.8 0 8.9h-4.8v-37.8z"/>
	<path class="charity-logo" d="m415.7 466.2v-37.9c1.8-0.3 3.6-0.4 5.4-0.1v34.4c3.8 0.3 7.4 0 11.2 0.2 0.1 1.1 0.1 2 0.2 3.4h-16.8z"/>
	<path class="charity-logo" d="m736 462.7h11.4c0.2 0.6 0.4 1.2 0.5 1.8 0 0.5 0 1-0.1 1.5h-16.5v-37.8h4.7v34.5z"/>
	<path class="charity-logo" d="m14 431.4 2.2-1.5-1.9-4-1.5 0.7c-1.9 1-4.3 0.4-5.4-1.4-0.9-1.9-0.1-4.3 1.8-5.2 0.1 0 0.1-0.1 0.2-0.1 0.6-0.2 1.2-0.4 1.9-0.5l-1.4-3.8-3.2 1c-3-1.4-3.5-2.1-3.2-4.6 0.2-1.9 0.9-2.5 4.3-3.4 0-0.5 0.1-1.1 0.1-1.7s-0.1-1.1-0.1-1.7c-3.7-0.8-5.2-2.2-4.9-4.4 0.3-2.6 1.6-3.2 6.2-3.1l1.5-2.8c-3.4-2.3-4-4-2.5-6.2 1.4-2.1 3.6-2 7 0.4 0.5-0.4 1-0.9 1.5-1.3 0.5-0.5 1-1 1.5-1.4l-1.8-3.1c0.7-2 1.4-3.8 3.9-3.8 2.2 0 2.8 0.4 4 3.3l4.4-1.3c-0.9-1.6-0.5-3.7 1.1-4.8 1.3-0.9 2.9-1.1 4.3-0.4 1.8 0.9 2.2 2.8 1.2 5.1l4.4 0.4c1.5-4.2 2.9-5.2 5.9-4.3 1.9 0.6 2.5 2.8 1.6 6.1l4.4 1.7c0.7-1.7 1.3-3.6 3.2-4.1 0.8-0.1 1.6 0 2.4 0.3 2.5 1 2.9 2.7 1.5 6.4l3.5 1.6c1.4-3.7 3.4-5.1 5.8-4 1.3 0.6 2.2 1.9 2.2 3.3-0.2 1.3-0.6 2.5-1.2 3.7l3.9 2c0.2-1.3 0.3-2.4 0.5-3.5h27c-0.1 1.2-0.3 2.4-0.5 4l4.9-2.3c-0.3-1.1-0.5-2.2-0.7-3.4-0.4-1.8 0.7-3.5 2.5-3.9 0.2 0 0.3-0.1 0.5-0.1 1.8-0.3 3.5 0.8 4.1 2.5 0.2 0.6 0.3 1.2 0.5 1.8l3.7-1.8c-0.4-1.6-1.3-3.1-0.3-4.7 0.5-0.8 1.2-1.4 2-1.8 2.2-1 4.1 0.4 5.4 4.1l4.3-1.8c-0.2-1.6-1.2-3.5 0.4-4.8 0.7-0.6 1.5-1.1 2.3-1.3 2.7-0.4 3.8 0.6 4.5 4.2h2.3c0.7 0 1.4-0.1 2-0.1 0.1-4.3 1.1-5.6 4-5.6 2.7 0.1 3.4 1.2 3.4 5.4 0.6 0.3 1.2 0.6 1.8 0.8s1.3 0.4 2 0.6c1.8-3 3.6-4 5.7-3 2.5 1.2 2.8 3.1 1 6.9l2.9 2.5c1-1.3 2.5-2 4.1-2 1.1 0.1 2 0.7 2.6 1.6 1.7 2.1 1.1 3.6-2.6 6.1 0.2 0.5 0.4 1 0.7 1.5 0.2 0.4 0.5 0.8 0.8 1.4h3c1.7-0.1 3.2 1.2 3.2 2.9 0.4 1.8-0.6 3.6-2.4 4.1-0.8 0.1-1.5 0.2-2.3 0.2-0.1 0.6-0.2 1.3-0.2 1.9v1.7c3.8 0.9 5.4 2.7 4.8 4.9-0.7 2.7-2.5 3.3-6.7 2.1l-1.7 3.6c1.7 0.6 3.7 0.8 4.1 2.8 0.3 1 0.2 2.1-0.1 3-1.1 2.5-3 2.7-6.5 1-0.3 0.2-0.5 0.5-0.7 0.8-0.5 1-1 2.1-1.6 3.2l1.9 1.3c-1.7 4.7-3.4 9.5-5.2 14.2-3.2 8.5-6.3 17-9.5 25.5-1.1 2.9-2.1 5.9-3.1 8.9-0.3 1.4-1.6 2.4-3.1 2.3h-1.4-104.1c-0.7-1.2-1.3-2.5-1.8-3.7-3.6-9.7-7.2-19.4-10.7-29.1-2-5.4-4-10.9-6-16.3-0.3-0.6-0.4-1.2-0.5-1.7zm121.8 17.6c-0.5-1.3-0.7-2.1-1.1-2.8-1.3-2.4-4.3-3.4-6.7-2.1-0.4 0.2-0.9 0.5-1.2 0.9-3.3 3.7-3.7 9.1-1 13.3 2.3 3.2 6.1 5 10 4.7 3.5-0.3 6.6-2.2 8.4-5.1 1.2-1.9 2.3-3.8 3.3-5.8 0.2-0.7 0.4-1.4 0.5-2.1-2.5 0-4.9 0.6-7.1 1.8 1.6-5.2 2.5-10.3 4.5-15.4 2.1 3.2 2.6 3.6 5.2 4.7 1.1-4.5 0.8-9.3-0.9-13.6l1.9 0.3c3.1-5.8 5.6-11.9 7.5-18.3 1.3-4.2 0.5-8.7-2-12.3-1.3-1.8-2.8-3.4-4.4-4.9-2.9-2.7-6.7-4.3-10.8-4.4-5.8 0.1-11.6 1.3-17 3.5-4.9 1.8-9.8 3.8-14.5 5.9-3.7 1.6-7.3 3.6-11 5.4 0 5.4-0.1 10.6 0 15.7 0.1 1.9-0.4 3.7-1.5 5.2-1 1.3-1.8 2.8-2.3 4.3-1.1 2.1-1.4 4.5-0.9 6.8l5.5-3.1v15.5c-3.3-2.5-3.3-2.5-5.6-2.6-0.4 4.6 1.5 9 5.1 11.9 3.5 2.9 8.4 3.3 12.4 1.2 4.2-2.2 6.4-6.9 5.4-11.5-0.8-3.8-2.9-5.4-6.5-4.5-1.4 0.4-2.6 1.9-3.9 2.9-0.5-1.5-0.9-3-1.2-4.6-0.5-2.9 0.6-5.9 2.8-7.9 1.9-2 5-2.5 7.4-1 0.4 0.2 0.8 0.3 1.4 0.6-0.3-3.3 0.2-6.7 1.4-9.8 1.1-3.1 3.4-5.6 6.4-7 3.2 2.3 5 6.1 4.8 10 0 2.7-0.6 5.4-0.9 8.3h2.7c3.6 0.2 5 1.6 6.1 5.1 1 3.7 0.1 7.7-2.2 10.8zm-87.4-34.4c3 1.5 5.3 4.2 6.4 7.4 0.9 3.1 1.3 6.3 1.9 9.4 3.1-2.1 7.3-1.3 9.4 1.8 0.3 0.4 0.5 0.9 0.7 1.3 1.1 2.6 1.2 5.5 0.4 8.2-0.2 0.6-0.6 1.2-1 1.8-0.4-0.6-0.8-1.2-1.2-1.7-1.4-1.5-3.6-1.9-5.5-1.2-2 0.6-3.3 2.5-3.2 4.6v2.5c-0.6 7.6 8.9 13.1 16.2 8.9 5.3-3 6.6-8 7.3-13.9-1.4 0.6-2.5 0.9-3.5 1.5-1 0.5-1.8 1.2-2.8 1.9v-16.2c1.5 1.8 3.6 3.1 6 3.5 0.1-0.5 0.2-1 0.1-1.5-0.4-3.4-1.6-6.6-3.6-9.3-1.4-1.6-2-3.7-1.9-5.8 0.1-5.1 0-10.3 0-15.4-3.5-1.7-6.6-3.3-9.7-4.8-8.3-4.1-17.1-7.2-26.2-9.3-7.1-1.8-14.6 0.8-19.2 6.5-2.2 2.3-3.6 5.2-4.1 8.3-0.4 3.8 0.2 7.7 1.9 11.2 2 4.2 3.6 8.5 5.4 12.8l1.8 0.6c-1.7 4.5-1.8 9.4-0.4 13.9l4.7-5.1c1.9 4.9 3.2 10 3.8 15.2-1.9-0.7-3.5-2.4-6.1-1.5 0.1 0.8 0.2 1.6 0.4 2.3 1.1 2.6 2.7 4.9 4.6 7 2.7 3.2 7.2 4.3 11.1 2.8 7.3-2.4 8.1-7.8 6.9-13.6-0.3-1-0.7-2-1.4-2.8-1-1.7-2.9-2.6-4.8-2.3-1.9 0.1-3.6 1.4-4.2 3.2-0.2 0.6-0.5 1.2-0.8 1.8-2-2.6-2.9-5.8-2.6-9 0.7-4.7 3.3-7.1 7.8-6.5 0.5 0.1 0.9 0.3 1.4 0.5-0.1-1.1-0.1-1.8-0.1-2.5-0.2-2.2-0.6-4.4-0.7-6.6-0.2-3.9 1.6-7.6 4.8-9.9zm29.1 54.4 9.8 5.6c2.9-2.2 6.5-3.1 9.3-5.8-2.7-1.5-5.3-2.9-7.7-4.4-0.9-0.6-2-0.7-3-0.1-2.6 1.5-5.2 2.9-8.4 4.7zm-10.1 0.3c-0.1-0.2-0.2-0.5-0.4-0.6-2.6-1.6-5.2-3.1-7.8-4.6-0.7-0.2-1.4-0.2-2 0.1-2.9 1.5-5.7 3.1-8.8 4.8l9.7 5.4 9.3-5.1zm58.7-0.3c-3.1-1.7-5.6-3-7.9-4.4-1.2-0.8-2.7-0.8-3.9 0.1-1.9 1.2-3.9 2.2-5.8 3.3-0.6 0.4-1.1 0.8-1.6 1.2l9.6 5.3 9.6-5.5zm-36.1-53.1c-2.6-1.5-4.1-1.6-5.2-0.4-0.9 0.9-1.2 2.3-0.6 3.5 0.7 1.4 2.2 2.2 3.7 2 1.8-0.5 2.4-1.8 2.1-5.1zm-6.1-6.8c1.3 2.9 2.2 3.7 3.7 3.3 1.6-0.2 2.7-1.6 2.6-3.2 0-1.8-0.5-2.7-1.7-3-2.2-0.6-3.3 0.1-4.6 2.9zm6.3-9c0-1.6-1.3-3-2.9-3h-0.2c-1.8 0.1-3.2 1.6-3.3 3.4 0.3 1.8 1.8 3.1 3.6 3 1.7-0.2 3-1.7 2.8-3.4z"/>
	<path class="charity-logo" d="m73.4 372.7v-12.3c1.8 2 4.4 3.2 7.1 3.4 2 0.3 2.9-0.5 2.5-2.5-0.3-2.9-1.6-5.7-3.8-7.7h16c-2.5 2.6-3.9 6.1-3.8 9.7 3.6 1.1 7.5-0.2 9.6-3.3 0.1 1.6 0.3 2.8 0.3 3.9-0.1 2.8-0.2 5.6-0.3 8.7-2.1-2.7-5.6-4.1-9-3.5-0.9 4.6 2 9.2 8.5 13.4-8.8 0.6-17.6 0.6-26.5 0.1 5.2-2.4 8.6-7.7 8.5-13.5-3.5-0.8-7.1 0.6-9.1 3.6z"/>
</g>
<g class="charity-logobg">
	<path class="charity-logo" d="m274.5 184.4c0 0.1-0.1 0.3-0.2 0.6-0.1 0.2-0.3 0.4-0.5 0.5s-0.4 0.2-0.7 0.2-0.5-0.1-0.8-0.2c-0.8-0.5-1.5-1.2-2-2.3s-0.8-2.8-0.8-5.1c0-2.1-0.6-3.5-1.7-4.4-1.2-0.8-2.5-1.3-4.1-1.3h-9.8v11.9c0 0.4-0.1 0.7-0.4 1-0.2 0.3-0.5 0.4-0.9 0.4s-0.8-0.1-1.1-0.4-0.4-0.6-0.4-1v-28.4c0-0.4 0.1-0.7 0.4-1s0.6-0.4 1-0.4h12c1.7 0 3.2 0.4 4.5 1.1s2.4 1.7 3.1 3c0.8 1.3 1.1 2.7 1.1 4.3 0 1.9-0.5 3.6-1.5 5s-2.3 2.4-3.9 3c1.3 0.5 2.4 1.4 3.2 2.6s1.3 2.7 1.3 4.4c0 1.8 0.2 3.1 0.4 3.9 0.2 0.7 0.6 1.3 1.1 1.6 0.4 0.1 0.7 0.5 0.7 1zm-9.9-14.5c1-0.1 2-0.4 2.9-1s1.6-1.4 2.1-2.4 0.8-2.2 0.8-3.5c0-1.7-0.6-3.1-1.7-4.2s-2.6-1.7-4.5-1.7h-10.3v12.7h10.7z"/>
	<path class="charity-logo" d="m298.7 173.9c-0.3 0.3-0.6 0.4-0.9 0.4h-16.8c0 1.8 0.4 3.4 1.1 4.8s1.8 2.5 3.1 3.3 2.9 1.2 4.8 1.2c1.4 0 2.7-0.3 3.8-0.9s2-1.3 2.7-2.3c0.3-0.3 0.6-0.4 0.9-0.4s0.6 0.1 0.8 0.4c0.2 0.2 0.4 0.5 0.4 0.8s-0.1 0.6-0.4 0.9c-0.9 1.2-2.1 2.1-3.6 2.8-1.4 0.7-3 1.1-4.5 1.1-2.3 0-4.3-0.5-6-1.5s-3.1-2.3-4.1-4.1-1.5-3.8-1.5-6.1c0-2.4 0.5-4.5 1.4-6.4 1-1.8 2.2-3.2 3.8-4.2s3.3-1.4 5.1-1.4 3.4 0.4 5 1.2 2.8 2 3.8 3.6 1.5 3.5 1.5 5.7c0 0.6-0.1 0.9-0.4 1.1zm-14.6-7.1c-1.5 1.2-2.4 2.9-2.8 5.1h15.1v-0.4c-0.1-1.3-0.6-2.5-1.3-3.5s-1.7-1.7-2.8-2.3c-1.1-0.5-2.3-0.8-3.4-0.8-1.8 0.1-3.4 0.7-4.8 1.9z"/>
	<path class="charity-logo" d="m324.5 163.4c0.3 0.3 0.4 0.6 0.4 1v19.2c0 2.3-0.5 4.3-1.4 5.9s-2.3 2.9-3.9 3.7c-1.7 0.9-3.6 1.3-5.7 1.3-1 0-2.1-0.1-3.3-0.4s-2.1-0.6-2.9-1-1.3-0.8-1.4-1.3c-0.2-0.2-0.3-0.4-0.3-0.7s0.1-0.5 0.4-0.7c0.1-0.1 0.3-0.1 0.4-0.1 0.2 0 0.5 0.1 1 0.3l0.9 0.4c1.8 0.7 3.5 1.1 5.1 1.1 2.6 0 4.7-0.7 6.2-2.2s2.2-3.5 2.2-6.1v-2.8c-0.7 1.6-1.9 2.8-3.5 3.7s-3.3 1.4-5 1.4c-2 0-3.9-0.5-5.5-1.5s-2.9-2.4-3.9-4.2c-0.9-1.8-1.4-3.8-1.4-6.1 0-2.2 0.5-4.2 1.4-6s2.2-3.2 3.9-4.2 3.5-1.5 5.5-1.5c1.9 0 3.6 0.5 5.1 1.4 1.6 0.9 2.7 2 3.4 3.4v-2.8c0-0.4 0.1-0.7 0.4-1s0.6-0.4 1-0.4c0.4-0.2 0.7-0.1 0.9 0.2zm-6.2 19c1.3-0.8 2.3-1.9 3-3.3s1.1-3.1 1.1-4.9-0.4-3.4-1.1-4.8-1.7-2.5-3-3.3-2.7-1.2-4.4-1.2c-1.6 0-3 0.4-4.3 1.2s-2.3 1.9-3 3.4c-0.7 1.4-1.1 3-1.1 4.7 0 1.8 0.4 3.4 1.1 4.8s1.7 2.5 3 3.4c1.3 0.8 2.7 1.2 4.3 1.2 1.7 0 3.1-0.4 4.4-1.2z"/>
	<path class="charity-logo" d="m331.8 159.2c-0.3-0.3-0.5-0.7-0.5-1.2v-0.4c0-0.5 0.2-0.9 0.5-1.2s0.8-0.4 1.4-0.4c1.2 0 1.8 0.5 1.8 1.6v0.4c0 0.5-0.2 0.9-0.5 1.2s-0.8 0.4-1.4 0.4-1-0.1-1.3-0.4zm2.3 26.1c-0.3 0.3-0.6 0.4-1 0.4s-0.7-0.1-1-0.4-0.4-0.6-0.4-1v-20.4c0-0.4 0.1-0.7 0.4-1s0.6-0.4 1-0.4 0.7 0.1 1 0.4 0.4 0.6 0.4 1v20.4c0 0.4-0.1 0.7-0.4 1z"/>
	<path class="charity-logo" d="m339.8 181.1c0-0.4 0.2-0.7 0.6-0.9 0.2-0.2 0.4-0.3 0.7-0.3 0.4 0 0.7 0.1 1 0.4 1.7 2.3 4.1 3.5 7 3.5 1.4 0 2.7-0.3 3.7-1s1.6-1.6 1.6-2.9c0-1.2-0.5-2.2-1.5-2.8s-2.3-1.2-4.1-1.6c-2.5-0.6-4.4-1.4-5.8-2.4s-2.1-2.4-2.1-4.4c0-1.2 0.3-2.3 1-3.3s1.6-1.7 2.8-2.2 2.5-0.8 4-0.8c1.3 0 2.6 0.2 3.8 0.7 1.3 0.5 2.4 1.3 3.3 2.3 0.3 0.2 0.4 0.5 0.4 0.9s-0.1 0.7-0.4 0.9c-0.2 0.2-0.5 0.3-0.8 0.3s-0.6-0.1-0.8-0.4c-0.7-0.8-1.6-1.4-2.5-1.8-1-0.4-2-0.6-3.1-0.6-1.4 0-2.6 0.3-3.6 1s-1.5 1.6-1.5 2.9c0.1 1.2 0.6 2.1 1.6 2.7s2.5 1.2 4.5 1.7c1.5 0.4 2.8 0.8 3.8 1.3s1.8 1.1 2.5 2c0.6 0.9 1 2 1 3.4 0 1.9-0.8 3.5-2.3 4.6s-3.4 1.7-5.7 1.7c-3.6 0-6.5-1.3-8.6-4-0.4-0.3-0.5-0.7-0.5-0.9z"/>
	<path class="charity-logo" d="m366.7 165.5v14.9c0 1.1 0.2 1.9 0.6 2.3s1 0.6 1.6 0.6c0.2 0 0.4 0 0.7-0.1s0.5-0.1 0.6-0.1c0.3 0 0.5 0.1 0.7 0.3s0.3 0.5 0.3 0.8c0 0.4-0.2 0.8-0.7 1-0.5 0.3-1 0.4-1.7 0.4-0.8 0-1.5-0.1-2.1-0.2s-1.2-0.6-1.8-1.3-0.9-1.9-0.9-3.5v-15h-3.2c-0.4 0-0.7-0.1-0.9-0.4-0.3-0.2-0.4-0.5-0.4-0.9s0.1-0.7 0.4-0.9c0.2-0.2 0.6-0.4 0.9-0.4h3.2v-4.9c0-0.4 0.1-0.7 0.4-1s0.6-0.4 1-0.4 0.7 0.1 1 0.4 0.4 0.6 0.4 1v4.9h4.4c0.3 0 0.6 0.1 0.9 0.4s0.4 0.6 0.4 0.9c0 0.4-0.1 0.6-0.4 0.9-0.2 0.2-0.5 0.3-0.9 0.3h-4.5z"/>
	<path class="charity-logo" d="m389.5 162.8c0.5 0.2 0.7 0.6 0.7 1.1 0 0.4-0.1 0.7-0.4 1-0.2 0.3-0.5 0.4-0.8 0.4-0.1 0-0.4-0.1-0.9-0.2-0.4-0.1-0.8-0.2-1.2-0.2-1.1 0-2.2 0.4-3.3 1.3-1.1 0.8-2 1.9-2.7 3.3-0.7 1.3-1 2.7-1 4v11c0 0.4-0.1 0.7-0.4 1s-0.6 0.4-1 0.4-0.7-0.1-1-0.4-0.4-0.6-0.4-1v-19.9c0-0.4 0.1-0.7 0.4-1s0.6-0.4 1-0.4 0.7 0.1 1 0.4 0.4 0.6 0.4 1v3.9c0.7-1.7 1.7-3.1 3.1-4.2s3-1.7 4.9-1.7c0.6-0.2 1.1 0 1.6 0.2z"/>
	<path class="charity-logo" d="m413.2 163.4c0.3 0.3 0.4 0.6 0.4 1v20c0 0.4-0.1 0.7-0.4 1s-0.6 0.4-1 0.4-0.7-0.1-1-0.4-0.4-0.6-0.4-1v-3c-0.7 1.3-1.8 2.5-3.3 3.4s-3.1 1.4-4.8 1.4c-2 0-3.8-0.5-5.3-1.6-1.6-1-2.8-2.5-3.7-4.3s-1.4-3.8-1.4-6.1c0-2.2 0.5-4.3 1.4-6.1s2.2-3.2 3.7-4.2c1.6-1 3.3-1.5 5.3-1.5 1.8 0 3.4 0.4 4.9 1.3s2.6 2 3.3 3.4v-2.8c0-0.4 0.1-0.7 0.4-1s0.6-0.4 1-0.4 0.6 0.2 0.9 0.5zm-6.1 19c1.2-0.8 2.2-1.9 2.9-3.4 0.7-1.4 1-3 1-4.8 0-1.7-0.3-3.3-1-4.7s-1.7-2.5-2.9-3.4c-1.2-0.8-2.6-1.2-4.1-1.2s-2.9 0.4-4.1 1.2-2.2 1.9-2.9 3.3-1 3-1 4.8 0.3 3.4 1 4.8 1.6 2.6 2.9 3.4 2.6 1.2 4.2 1.2c1.4 0 2.8-0.4 4-1.2z"/>
	<path class="charity-logo" d="m425 165.5v14.9c0 1.1 0.2 1.9 0.6 2.3s1 0.6 1.6 0.6c0.2 0 0.4 0 0.7-0.1s0.5-0.1 0.6-0.1c0.3 0 0.5 0.1 0.7 0.3s0.3 0.5 0.3 0.8c0 0.4-0.2 0.8-0.7 1-0.5 0.3-1 0.4-1.7 0.4-0.8 0-1.5-0.1-2.1-0.2s-1.2-0.6-1.8-1.3-0.9-1.9-0.9-3.5v-15h-3.3c-0.4 0-0.7-0.1-0.9-0.4-0.3-0.2-0.4-0.5-0.4-0.9s0.1-0.7 0.4-0.9c0.2-0.2 0.6-0.4 0.9-0.4h3.2v-4.9c0-0.4 0.1-0.7 0.4-1s0.6-0.4 1-0.4 0.7 0.1 1 0.4 0.4 0.6 0.4 1v4.9h4.4c0.3 0 0.6 0.1 0.9 0.4s0.4 0.6 0.4 0.9c0 0.4-0.1 0.6-0.4 0.9-0.2 0.2-0.5 0.3-0.9 0.3h-4.4z"/>
	<path class="charity-logo" d="m435.4 159.2c-0.3-0.3-0.5-0.7-0.5-1.2v-0.4c0-0.5 0.2-0.9 0.5-1.2s0.8-0.4 1.4-0.4c1.2 0 1.8 0.5 1.8 1.6v0.4c0 0.5-0.2 0.9-0.5 1.2s-0.8 0.4-1.4 0.4-1-0.1-1.3-0.4zm2.3 26.1c-0.3 0.3-0.6 0.4-1 0.4s-0.7-0.1-1-0.4-0.4-0.6-0.4-1v-20.4c0-0.4 0.1-0.7 0.4-1s0.6-0.4 1-0.4 0.7 0.1 1 0.4 0.4 0.6 0.4 1v20.4c0 0.4-0.1 0.7-0.4 1z"/>
	<path class="charity-logo" d="m464.5 180.3c-1 1.8-2.3 3.2-4 4.2s-3.6 1.5-5.7 1.5-4-0.5-5.7-1.5-3.1-2.4-4-4.2c-1-1.8-1.5-3.8-1.5-6s0.5-4.2 1.5-6 2.3-3.2 4-4.3c1.7-1 3.6-1.6 5.7-1.6s4 0.5 5.7 1.6c1.7 1 3.1 2.5 4 4.3 1 1.8 1.5 3.8 1.5 6s-0.5 4.2-1.5 6zm-2.3-10.8c-0.7-1.4-1.8-2.5-3.1-3.4-1.3-0.8-2.8-1.2-4.4-1.2s-3 0.4-4.3 1.2-2.3 1.9-3.1 3.4c-0.8 1.4-1.1 3-1.1 4.8 0 1.7 0.4 3.3 1.1 4.7 0.8 1.4 1.8 2.5 3.1 3.4s2.8 1.2 4.3 1.2c1.6 0 3.1-0.4 4.4-1.2s2.3-1.9 3.1-3.3c0.7-1.4 1.1-3 1.1-4.8s-0.3-3.4-1.1-4.8z"/>
	<path class="charity-logo" d="m488.2 164.9c1.3 1.6 1.9 3.7 1.9 6.4v13c0 0.4-0.1 0.7-0.4 1s-0.6 0.4-0.9 0.4c-0.4 0-0.7-0.1-1-0.4s-0.4-0.6-0.4-1v-12.9c0-1.9-0.5-3.5-1.4-4.7-1-1.2-2.4-1.8-4.5-1.8-1.3 0-2.5 0.3-3.6 0.9s-2.1 1.4-2.8 2.4-1.1 2.1-1.1 3.2v12.9c0 0.4-0.1 0.7-0.4 1s-0.6 0.4-1 0.4-0.7-0.1-1-0.4-0.4-0.6-0.4-1v-19.9c0-0.4 0.1-0.7 0.4-1s0.6-0.4 1-0.4 0.7 0.1 1 0.4 0.4 0.6 0.4 1v2.4c0.8-1.3 1.9-2.3 3.4-3.2 1.5-0.8 3-1.3 4.6-1.3 2.9 0.1 4.9 0.9 6.2 2.6z"/>
	<path class="charity-logo" d="m526 164.9c1.3 1.6 1.9 3.7 1.9 6.4v13c0 0.4-0.1 0.7-0.4 1s-0.6 0.4-0.9 0.4c-0.4 0-0.7-0.1-1-0.4s-0.4-0.6-0.4-1v-12.9c0-1.9-0.5-3.5-1.4-4.7-1-1.2-2.4-1.8-4.5-1.8-1.3 0-2.5 0.3-3.6 0.9s-2.1 1.4-2.8 2.4-1.1 2.1-1.1 3.2v12.9c0 0.4-0.1 0.7-0.4 1s-0.6 0.4-1 0.4-0.7-0.1-1-0.4-0.4-0.6-0.4-1v-19.9c0-0.4 0.1-0.7 0.4-1s0.6-0.4 1-0.4 0.7 0.1 1 0.4 0.4 0.6 0.4 1v2.4c0.8-1.3 1.9-2.3 3.4-3.2 1.5-0.8 3-1.3 4.6-1.3 2.8 0.1 4.9 0.9 6.2 2.6z"/>
	<path class="charity-logo" d="m552.7 163.5c0.3 0.3 0.4 0.6 0.4 1v12.5c0 2.9-0.8 5.1-2.4 6.7s-3.9 2.3-6.7 2.3-5.1-0.8-6.7-2.3c-1.6-1.6-2.4-3.8-2.4-6.7v-12.5c0-0.4 0.1-0.7 0.4-1s0.6-0.4 1-0.4 0.7 0.1 1 0.4 0.4 0.6 0.4 1v12.5c0 2.1 0.6 3.7 1.7 4.9 1.1 1.1 2.7 1.7 4.7 1.7 2.1 0 3.7-0.6 4.8-1.7s1.7-2.7 1.7-4.9v-12.5c0-0.4 0.1-0.7 0.4-1s0.6-0.4 1-0.4c0.2 0 0.5 0.1 0.7 0.4z"/>
	<path class="charity-logo" d="m591.7 165.3c1.3 1.6 1.9 3.8 1.9 6.5v12.6c0 0.4-0.1 0.7-0.4 1s-0.6 0.4-1 0.4-0.7-0.1-1-0.4-0.4-0.6-0.4-1v-12.4c0-2-0.5-3.5-1.4-4.8-0.9-1.2-2.4-1.8-4.3-1.8-1.2 0-2.4 0.3-3.5 0.9s-2 1.4-2.7 2.4-1 2.1-1 3.3v12.4c0 0.4-0.1 0.7-0.4 1s-0.6 0.4-1 0.4-0.7-0.1-1-0.4-0.4-0.6-0.4-1v-12.6c0-1.9-0.4-3.5-1.3-4.7s-2.3-1.8-4.2-1.8c-1.2 0-2.4 0.3-3.4 0.9-1.1 0.6-2 1.4-2.6 2.4-0.7 1-1 2.1-1 3.2v12.6c0 0.4-0.1 0.7-0.4 1s-0.6 0.4-1 0.4-0.7-0.1-1-0.4-0.4-0.6-0.4-1v-19.9c0-0.4 0.1-0.7 0.4-1s0.6-0.4 1-0.4 0.7 0.1 1 0.4 0.4 0.6 0.4 1v2.6c0.8-1.2 1.9-2.2 3.2-3 1.4-0.8 2.8-1.2 4.3-1.2 1.7 0 3.2 0.4 4.4 1.2s2.1 2 2.7 3.6c0.6-1.3 1.8-2.4 3.4-3.4 1.7-1 3.3-1.5 5-1.5 2.9 0 4.8 0.8 6.1 2.5z"/>
	<path class="charity-logo" d="m616.7 164c1.6 1 2.8 2.4 3.7 4.2s1.4 3.8 1.4 6.1c0 2.2-0.5 4.2-1.4 6.1-0.9 1.8-2.1 3.2-3.7 4.3-1.6 1-3.3 1.6-5.3 1.6-1.7 0-3.2-0.4-4.7-1.3s-2.6-2-3.5-3.3v2.9c0 0.4-0.1 0.7-0.4 1s-0.6 0.4-1 0.4-0.7-0.1-1-0.4-0.4-0.6-0.4-1v-30.2c0-0.4 0.1-0.7 0.4-1s0.6-0.4 1-0.4 0.7 0.1 1 0.4 0.4 0.6 0.4 1v13.1c0.8-1.4 1.9-2.6 3.4-3.5 1.4-0.9 3-1.3 4.7-1.3 2-0.3 3.8 0.2 5.4 1.3zm-1.4 18.4c1.2-0.8 2.2-2 2.9-3.4s1-3 1-4.8-0.3-3.4-1-4.8-1.7-2.5-2.9-3.3-2.6-1.2-4.1-1.2c-1.6 0-3 0.4-4.2 1.2s-2.2 1.9-2.9 3.3-1 3-1 4.8 0.3 3.4 1 4.8 1.7 2.6 2.9 3.4 2.6 1.2 4.2 1.2c1.4 0 2.8-0.4 4.1-1.2z"/>
	<path class="charity-logo" d="m646 173.9c-0.3 0.3-0.6 0.4-0.9 0.4h-16.8c0 1.8 0.4 3.4 1.1 4.8s1.8 2.5 3.1 3.3 2.9 1.2 4.8 1.2c1.4 0 2.7-0.3 3.8-0.9s2-1.3 2.7-2.3c0.3-0.3 0.6-0.4 0.9-0.4s0.6 0.1 0.8 0.4c0.2 0.2 0.4 0.5 0.4 0.8s-0.1 0.6-0.4 0.9c-0.9 1.2-2.1 2.1-3.6 2.8-1.4 0.7-3 1.1-4.5 1.1-2.3 0-4.3-0.5-6-1.5s-3.1-2.3-4.1-4.1-1.5-3.8-1.5-6.1c0-2.4 0.5-4.5 1.4-6.4 1-1.8 2.2-3.2 3.8-4.2s3.3-1.4 5.1-1.4 3.4 0.4 5 1.2 2.8 2 3.8 3.6 1.5 3.5 1.5 5.7c0 0.6-0.1 0.9-0.4 1.1zm-14.6-7.1c-1.5 1.2-2.4 2.9-2.8 5.1h15.1v-0.4c-0.1-1.3-0.6-2.5-1.3-3.5s-1.7-1.7-2.8-2.3c-1.1-0.5-2.3-0.8-3.4-0.8-1.8 0.1-3.4 0.7-4.8 1.9z"/>
	<path class="charity-logo" d="m664.1 162.8c0.5 0.2 0.7 0.6 0.7 1.1 0 0.4-0.1 0.7-0.4 1-0.2 0.3-0.5 0.4-0.8 0.4-0.1 0-0.4-0.1-0.9-0.2-0.4-0.1-0.8-0.2-1.2-0.2-1.1 0-2.2 0.4-3.3 1.3-1.1 0.8-2 1.9-2.7 3.3-0.7 1.3-1 2.7-1 4v11c0 0.4-0.1 0.7-0.4 1s-0.6 0.4-1 0.4-0.7-0.1-1-0.4-0.4-0.6-0.4-1v-19.9c0-0.4 0.1-0.7 0.4-1s0.6-0.4 1-0.4 0.7 0.1 1 0.4 0.4 0.6 0.4 1v3.9c0.7-1.7 1.7-3.1 3.1-4.2s3-1.7 4.9-1.7c0.6-0.2 1.2 0 1.6 0.2z"/>
	<path class="charity-logo" d="m668.3 166.7c-0.3-0.3-0.4-0.7-0.4-1.2v-0.9c0-0.5 0.1-1 0.4-1.3s0.7-0.5 1.2-0.5h0.3c0.5 0 0.9 0.2 1.2 0.5s0.4 0.7 0.4 1.3v0.9c0 0.5-0.1 0.9-0.4 1.2s-0.7 0.4-1.2 0.4h-0.3c-0.5 0-0.9-0.1-1.2-0.4zm0 18.5c-0.3-0.3-0.4-0.7-0.4-1.2v-1c0-0.5 0.1-0.9 0.4-1.2s0.7-0.4 1.2-0.4h0.3c0.5 0 0.9 0.1 1.2 0.4s0.4 0.7 0.4 1.2v1c0 0.5-0.1 0.9-0.4 1.2s-0.7 0.4-1.2 0.4h-0.3c-0.5 0-0.9-0.1-1.2-0.4z"/>
	<path class="charity-logo" d="m696.2 155c0.2 0.3 0.3 0.6 0.3 0.9v28.4c0 0.4-0.1 0.7-0.4 1s-0.6 0.4-1 0.4-0.7-0.1-1-0.4-0.4-0.6-0.4-1v-26l-5.5 3.3c-0.2 0.1-0.4 0.2-0.6 0.2-0.4 0-0.7-0.1-1-0.4s-0.4-0.6-0.4-1c0-0.2 0.1-0.4 0.2-0.6s0.3-0.4 0.5-0.5l7.5-4.5c0.3-0.2 0.7-0.2 1.1-0.2 0.2 0 0.5 0.2 0.7 0.4z"/>
	<path class="charity-logo" d="m711 155c0.2 0.3 0.3 0.6 0.3 0.9v28.4c0 0.4-0.1 0.7-0.4 1s-0.6 0.4-1 0.4-0.7-0.1-1-0.4-0.4-0.6-0.4-1v-26l-5.5 3.3c-0.2 0.1-0.4 0.2-0.6 0.2-0.4 0-0.7-0.1-1-0.4s-0.4-0.6-0.4-1c0-0.2 0.1-0.4 0.2-0.6s0.3-0.4 0.5-0.5l7.5-4.5c0.3-0.2 0.7-0.2 1.1-0.2 0.2 0 0.5 0.2 0.7 0.4z"/>
	<path class="charity-logo" d="m738.2 183.4c0.3 0.3 0.4 0.6 0.4 0.9 0 0.4-0.1 0.7-0.4 0.9s-0.6 0.4-0.9 0.4h-16.6c-0.4 0-0.8-0.1-1-0.4-0.3-0.2-0.4-0.6-0.4-1 0-0.3 0.1-0.6 0.4-0.9l10.2-11.3c1.7-1.8 2.9-3.4 3.7-4.8s1.2-2.8 1.2-4.1c0-2-0.6-3.6-1.8-4.7-1.2-1.2-2.9-1.7-5.1-1.7-1.4 0-2.7 0.3-3.9 1-1.1 0.7-2 1.8-2.6 3.2-0.3 0.5-0.7 0.8-1.2 0.8-0.3 0-0.6-0.1-0.9-0.4-0.3-0.2-0.4-0.5-0.4-0.8 0-0.2 0.1-0.4 0.2-0.6s0.3-0.5 0.4-0.7c0.8-1.6 1.9-2.8 3.5-3.7 1.5-0.9 3.2-1.3 5.1-1.3 3 0 5.3 0.8 7 2.4s2.5 3.8 2.5 6.4c0 1.6-0.4 3.3-1.3 5s-2.4 3.7-4.4 5.9l-8.2 9.2h13.6c0.4 0 0.7 0.1 0.9 0.3z"/>
	<path class="charity-logo" d="m761.8 154.9c0.2 0.2 0.3 0.5 0.3 0.9 0 0.1 0 0.4-0.1 0.6l-12.2 28.4c-0.1 0.3-0.3 0.5-0.5 0.6-0.2 0.2-0.5 0.2-0.8 0.2-0.4 0-0.7-0.1-1-0.4-0.3-0.2-0.4-0.5-0.4-0.9 0-0.2 0-0.5 0.1-0.7l11.5-26.8h-14.2c-0.4 0-0.7-0.1-0.9-0.4-0.3-0.2-0.4-0.5-0.4-0.9s0.1-0.7 0.4-0.9 0.6-0.4 0.9-0.4h16.3c0.5 0.4 0.8 0.5 1 0.7z"/>
	<path class="charity-logo" d="m779.5 167.1c1.4 0.8 2.6 1.9 3.5 3.4s1.3 3.2 1.3 5.2-0.5 3.8-1.4 5.4c-1 1.6-2.3 2.8-3.9 3.7-1.7 0.9-3.5 1.3-5.5 1.3-1.3 0-2.5-0.2-3.7-0.6s-2.2-1-3-1.9c-0.4-0.3-0.6-0.6-0.6-1.1 0-0.4 0.1-0.7 0.4-1s0.6-0.5 0.9-0.5c0.4 0 0.7 0.2 1.1 0.5 1.2 1.3 3 2 5.1 2 1.4 0 2.7-0.3 3.9-1 1.2-0.6 2.2-1.6 2.9-2.8s1.1-2.5 1.1-4c0-1.6-0.4-3-1.1-4.1s-1.7-1.9-2.8-2.4c-1.2-0.5-2.4-0.8-3.7-0.8-0.4 0-0.8 0.1-1.4 0.2s-0.9 0.2-1.1 0.2c-0.4 0-0.6-0.1-0.9-0.4-0.2-0.3-0.3-0.6-0.3-1s0.1-0.7 0.4-1l8.5-9.4h-12.3c-0.4 0-0.7-0.1-0.9-0.4-0.3-0.2-0.4-0.5-0.4-0.9s0.1-0.7 0.4-0.9 0.6-0.4 0.9-0.4h14.9c0.5 0 0.8 0.1 1 0.4s0.3 0.6 0.3 1-0.1 0.7-0.4 1l-8.1 9.1h0.3c1.6 0.1 3.2 0.5 4.6 1.2z"/>
	<path class="charity-logo" d="m807.9 154.9c0.2 0.2 0.3 0.5 0.3 0.9 0 0.1 0 0.4-0.1 0.6l-12.2 28.4c-0.1 0.3-0.3 0.5-0.5 0.6-0.2 0.2-0.5 0.2-0.8 0.2-0.4 0-0.7-0.1-1-0.4-0.3-0.2-0.4-0.5-0.4-0.9 0-0.2 0-0.5 0.1-0.7l11.5-26.8h-14.2c-0.4 0-0.7-0.1-0.9-0.4-0.3-0.2-0.4-0.5-0.4-0.9s0.1-0.7 0.4-0.9 0.6-0.4 0.9-0.4h16.3c0.5 0.4 0.8 0.5 1 0.7z"/>
	<path class="charity-logo" d="m820 155c0.2 0.3 0.3 0.6 0.3 0.9v28.4c0 0.4-0.1 0.7-0.4 1s-0.6 0.4-1 0.4-0.7-0.1-1-0.4-0.4-0.6-0.4-1v-26l-5.5 3.3c-0.2 0.1-0.4 0.2-0.6 0.2-0.4 0-0.7-0.1-1-0.4s-0.4-0.6-0.4-1c0-0.2 0.1-0.4 0.2-0.6s0.3-0.4 0.5-0.5l7.5-4.5c0.3-0.2 0.7-0.2 1.1-0.2 0.2 0 0.4 0.2 0.7 0.4z"/>
</g>
</svg>
