<?xml version="1.0" encoding="UTF-8"?>
<svg enable-background="new 0 0 352.2 229.8" version="1.1" viewBox="0 0 352.2 229.8" xml:space="preserve" xmlns="http://www.w3.org/2000/svg">
<style type="text/css">
	.ofsted-logo{fill:#FFFFFF;}
</style>
<g transform="translate(-29.443 -37.737)">
	<path class="ofsted-logo" d="m69.8 212.7h-2.1c-2.1-0.1-4.2-0.3-6.4-0.6-3.4-0.6-6.7-1.6-9.8-3s-5.9-3.3-8.4-5.5c-3.2-2.9-5.8-6.4-7.7-10.3-0.7-1.5-1.5-2.9-2.1-4.4-0.6-1.4-1-2.9-1.4-4.4-0.5-2.1-1-4.2-1.4-6.4-0.2-1.1-0.4-2.2-0.8-3.3-0.2-1.1-0.2-2.2-0.1-3.3v-10.4c0-2.1 0.1-4.1 0.2-6.2v-0.2c0.4-2.4 0.7-4.8 1.2-7.2 0.3-1.4 0.8-2.7 1.2-4.1 0.3-1.1 0.6-2.2 1-3.4 0.1-0.3 0.3-0.6 0.5-1 0.9-2.2 1.9-4.2 3.1-6.2 0.9-1.6 1.9-3.1 3.1-4.4 1.6-1.8 3.3-3.5 5.2-5 1.4-1.2 3-2.2 4.6-3.1 3.9-2.1 8.2-3.5 12.6-4.2 1.6-0.3 3.2-0.4 4.8-0.5 1.8 0 3.6-0.1 5.4-0.1 0.9 0 1.8 0.1 2.7 0.1 2.1 0.2 4.1 0.5 6.1 1.1 1.1 0.3 2.3 0.5 3.4 0.9 2.5 0.8 4.9 1.9 7.2 3.2 2.4 1.5 4.6 3.2 6.6 5.2 1.9 1.8 3.6 3.9 4.9 6.2 1.4 2.3 2.6 4.7 3.6 7.2 0.7 1.5 0.9 3.3 1.6 4.8 0.5 1.5 0.9 3 1.1 4.6 0.4 2.2 0.7 4.4 0.9 6.6 0.2 1.6 0.4 3.3 0.4 4.9 0.1 2.6 0 5.1 0 7.7 0 0.4-0.1 0.7-0.1 1.1-0.2 2.6-0.3 5.3-0.6 7.9-0.2 1.5-0.6 3.1-0.9 4.6-0.2 1.2-0.5 2.4-0.9 3.5-0.6 2-1.3 4-2.2 5.9-0.9 1.6-1.6 3.4-2.6 5-0.8 1.3-1.8 2.6-2.7 3.9-1.6 2-3.4 3.8-5.5 5.4-1.2 1-2.5 1.8-3.8 2.6-2.2 1.1-4.4 2.1-6.7 3.1-0.9 0.4-1.9 0.7-2.9 0.8-2 0.5-4 0.8-6.1 0.9-2.2-0.3-4.2-0.1-6.2 0zm-24.2-49.7c0.1 2.4 0.1 4.7 0.3 7.1 0.2 2.6 0.4 5.2 0.8 7.8 0.4 2.4 1.1 4.8 1.8 7.2 0.9 3.8 2.9 7.3 5.6 10.1 1.2 1.3 2.6 2.4 4.2 3.3 2.5 1.2 5.1 2 7.9 2.5 3.4 0.6 6.8 0.5 10.1-0.3 4-0.8 7.6-2.8 10.4-5.8 0.7-0.8 1.3-1.7 1.9-2.6 1.5-2 2.6-4.3 3.3-6.8 0.9-2.7 1.5-5.6 2-8.4 0.2-1.2 0.2-2.5 0.3-3.8 0.2-1.9 0.5-3.8 0.6-5.7 0.2-3.9 0-7.8-0.4-11.7-0.2-1.3-0.1-2.5-0.3-3.8-0.4-2.1-0.8-4.2-1.3-6.2-0.7-3.2-1.9-6.3-3.6-9.1-1.1-1.8-2.5-3.4-4.1-4.9-3.2-2.7-7.2-4.3-11.4-4.6-4.3-0.5-8.7 0-12.7 1.6-3.1 1.3-5.7 3.3-7.8 5.9-2 2.5-3.5 5.3-4.5 8.3-0.5 1.3-0.9 2.5-1.2 3.8-0.4 1.8-0.6 3.6-1 5.5-0.2 1-0.4 1.9-0.5 2.9-0.2 2.5-0.3 5.1-0.4 7.7z"/>
	<path class="ofsted-logo" d="m381.4 110.5c0.1 1 0.2 1.7 0.2 2.5v77.6 18.5c0 0.6-0.1 1.1-0.2 1.7-0.5 0.1-0.9 0.1-1.3 0.1h-9.9c-1.5 0-1.6-0.1-1.7-1.6v-2.2c0-0.5-0.1-1-0.2-1.6-0.4 0.1-0.8 0.2-1.2 0.4-1.6 0.7-3.1 1.5-4.6 2.3-2.4 1.2-5 2.2-7.6 3-3.1 1-6.4 1.5-9.7 1.5-3-0.1-6-0.9-8.7-2.3-1.8-1.1-3.5-2.4-5-3.9-1.4-1.4-2.6-3-3.5-4.8-1.4-2.3-2.4-4.8-3.2-7.5l-1.5-6.3c0-0.2-0.1-0.3-0.1-0.5-0.5-4.8-0.6-9.7-0.4-14.6 0.1-2.3 0.7-4.5 1-6.8 0.4-2.2 1-4.4 1.8-6.4s1.8-4 2.9-5.9c1.6-2.7 3.7-5.1 6.2-7 1.6-1.4 3.4-2.4 5.4-3 1.2-0.4 2.5-0.8 3.7-1.2 0.4-0.1 0.8-0.2 1.2-0.2h5.5c0.6 0.1 1.2 0.3 1.8 0.4 2.1 0.4 4.2 1.1 6.2 2 1.4 0.6 2.8 1.2 4.2 2 1.4 0.7 2.7 1.5 4 2.2 0.4 0.1 0.7 0.2 1.1 0.2 0-0.6 0.1-1.1 0.1-1.6v-34.5-1.3c0-1 0.2-1.2 1.3-1.2h8.1 4.1zm-13.8 67v-17.3c0-1.4-0.3-1.8-1.6-2.2-1.2-0.4-2.4-0.8-3.6-1.2s-2.3-0.7-3.5-1.1c-2.4-0.6-5-0.9-7.5-0.8-2.2 0.1-4.3 0.8-6.1 2-2.7 1.8-4.6 4.6-5.5 7.7-0.5 1.6-0.8 3.3-1.1 4.9-0.5 2.1-0.7 4.3-0.6 6.5 0.1 1.3 0 2.6 0 3.9 0 0.7 0 1.5 0.1 2.2 0.4 2.5 0.6 5 1.3 7.5 0.5 2.1 1.4 4.1 2.7 5.9 1.6 2.3 4.1 3.9 6.8 4.5 2.8 0.4 5.7 0.3 8.5-0.4 1.3-0.3 2.6-0.6 3.9-1.1 0.9-0.3 1.7-0.6 2.6-0.9s1.9-0.6 2.8-1c0.6-0.2 0.9-0.7 0.9-1.2v-1.1c-0.1-5.5-0.1-11.2-0.1-16.8z"/>
	<path class="ofsted-logo" d="m326 94.9c-0.7 0-1.3 0.4-1.6 1-1.3 1.9-2.7 3.8-4.1 5.6-0.3 0.4-0.5 0.9-0.8 1.3-0.9 1.3-1.9 2.5-2.8 3.8-1.6 2.1-3.2 4.1-4.7 6.2-0.1 0.2-0.3 0.5-0.3 0.7-0.1 0.2-0.1 0.4-0.2 0.5-1.3 0.9-1.7 2.5-3 3.4-0.9 0.7-1.7 1.4-2.6 2-0.1 0.1-0.2 0.1-0.3 0.2-2.2 0.5-4.4 0.3-6.4-0.6-2-1.1-3.4-2.8-4.1-5-0.4-1.5-0.3-3 0.2-4.4 0.9-1.7 2-3.3 3.3-4.7 0.9-1.2 1.8-2.5 2.7-3.7s1.8-2.5 2.7-3.7c1.1-1.5 2.2-3 3.3-4.4 1.6-2.2 3.2-4.4 4.9-6.5 0.4-0.4 0.4-1 0.2-1.5-0.1-0.3-0.7-0.5-1-0.6-0.9-0.3-1.8-0.6-2.7-0.8-1.2-0.4-2.4-0.7-3.6-1.1l-5.7-1.8-3.9-1.2c-1.2-0.4-2.3-0.9-3.5-1.3-1.1-0.4-2.2-0.7-3.3-1.1-1.1-0.3-2.1-0.6-3.1-1-2-0.9-3.6-2.5-4.3-4.6-0.1-0.3-0.2-0.6-0.4-0.9-0.4-0.8-0.5-1.8-0.2-2.6 0.3-1.2 0.8-2.3 1.4-3.4 1.1-2 3.1-3.2 5.4-3.2h2c0.9-0.1 1.8 0.1 2.5 0.6 0.3 0.2 0.8 0.2 1.1 0.3 1.1 0.4 2.2 0.8 3.3 1.2 0.1 0 0.2 0.1 0.3 0.1 0.9 0.1 1.8 0.3 2.7 0.8 0.6 0.2 1.1 0.3 1.7 0.4 2 0.6 4 1.3 6.1 2 1.6 0.5 3.3 1 4.9 1.6s3.2 1.2 4.8 1.6c1.2 0.2 2.1 1.1 3.3 0.9 0.9 0.5 1.8 0.8 2.7 1l0.6 0.3c1.8 0.7 3.7 0.6 5.4-0.3 0.3-0.1 0.6-0.2 0.9-0.3 0.6 0 1.1-0.1 1.5-0.5 0.2-0.2 0.5-0.2 0.8-0.2l1.4-0.4 1.2-0.3c0.2 0 0.4 0 0.6-0.1 1.3-0.7 2.7-1.2 4.2-1.5 0.7-0.3 1.5-0.5 2.2-0.8 2.4-0.8 4.7-1.5 7.1-2.3 1.2-0.3 2.3-0.7 3.5-1.1 1.3-0.6 2.7-0.5 3.8-1.4 0.1-0.1 0.2-0.2 0.3-0.1 1.2 0.3 2.1-0.7 3.3-0.8 0.1 0 0.2 0 0.3-0.1 1.9-1.3 4-0.5 6-0.6 0.7 0 1.4 0.7 2 1.2 1.1 0.7 2 1.7 2.5 2.9 0.8 1.4 1 3.1 0.6 4.7-0.1 0.1-0.1 0.3-0.1 0.5-0.2 2.2-1.7 4.2-3.8 5-1.6 0.7-3.2 1.3-4.9 1.7-1 0.3-1.9 0.7-2.9 1.1-0.3 0.1-0.7 0.2-1 0.3s-0.7 0.2-1.1 0.4l-0.6 0.3c-1.6 0.4-3.3 0.9-4.8 1.5-2.3 0.7-4.6 1.3-6.8 2.1-1.3 0.3-2.5 0.7-3.6 1.3-0.5 0.2-1 0.3-1.5 0.3-0.5 0.6-0.5 1.5 0 2.1 1.3 1.8 2.6 3.6 3.9 5.3 1 1.4 2.1 2.8 3.1 4.2 1.7 2.3 3.5 4.5 5.2 6.8 1.1 1.5 2.3 3.1 3.3 4.7 0.6 0.8 1 1.6 1.4 2.5 0.1 0.7 0.2 1.3 0.2 2 0.2 1.8-0.4 3.6-1.6 4.9-1 1-2 1.9-3.2 2.6-0.1 0.1-0.2 0.1-0.3 0.1-1.7 0.3-3.4 0.3-5-0.1-0.9-0.2-1.7-0.7-2.4-1.3-1-1-2-2.1-2.8-3.3-0.8-1.1-1.6-2.2-2.4-3.2-1.2-1.6-2.4-3.2-3.5-4.7-1.3-1.8-2.6-3.5-3.9-5.3-1.4-1.9-2.8-3.9-4.3-5.8-0.8-0.7-1.2-1.1-1.7-1.4z"/>
	<path class="ofsted-logo" d="m317 179.3c-0.7 0-1.2 0.1-1.7 0.1h-38.8-0.7c-1.1 0-1.3 0.2-1.4 1.3-0.1 2.1 0.1 4.2 0.6 6.2 0.2 0.6 0.1 1.3 0.3 2 0.6 2.9 2 5.5 3.9 7.7 1.6 1.6 3.6 2.9 5.7 3.5 2.9 0.6 5.9 0.8 8.9 0.6 1.5 0 3-0.2 4.4-0.5 2.8-0.5 5.5-1.1 8.2-1.9 1.9-0.5 3.8-1.1 5.6-1.7 1.1-0.4 1.4-0.3 1.9 0.7 0.5 1.4 1 2.8 1.4 4.2 0.2 0.6 0.5 1.2 0.8 1.8 0.1 1.3-1 1.6-1.9 2-1.8 0.8-3.5 1.5-5.3 2.2-0.9 0.3-1.9 0.6-2.8 1s-1.9 0.7-2.8 1c-0.2 0.1-0.3 0.2-0.5 0.3-2.3 0.7-4.6 1.3-7 1.8-3.1 0.6-6.2 0.9-9.4 0.9-4.2 0-8.3-1-12.1-2.9-6.3-3.4-10.9-9.2-12.9-16l-1.5-5.1c0-0.1-0.1-0.2-0.1-0.3-0.2-2.4-0.4-4.7-0.5-7.1-0.1-1.2-0.1-2.4 0-3.6 0.1-1.5 0.3-2.9 0.4-4.3v-0.1c0-2 0.3-4 0.8-5.9 0.2-0.8 0.4-1.6 0.7-2.4 0.6-2.5 1.6-5 2.8-7.3 1-1.8 2.3-3.4 3.5-5.1 2.4-3 5.5-5.5 9-7.3 1.7-0.8 3.4-1.4 5.2-2s3.7-1 5.7-1c1.4 0.1 2.8 0 4.2 0 1.4-0.1 2.9 0.1 4.2 0.6 0.3 0.1 0.6 0.2 0.9 0.1 0.8 0 1.5 0.2 2.2 0.5 0.5 0.2 1.1 0.2 1.7 0.5 1.2 0.5 2.3 1 3.5 1.7 2.2 1.3 4.2 2.9 5.9 4.8 1.2 1.5 2.2 3 3.1 4.7 1.1 1.9 1.8 3.9 2.3 6 0.6 1.5 1 3.2 0.9 4.8v0.2c0.6 2.2 0.8 4.4 0.7 6.7 0 1.7 0.2 3.4 0.2 5.1-0.1 0.7-0.2 1.1-0.2 1.5zm-14.1-9.7c0.1-0.2 0.1-0.5 0.1-0.7-0.1-1.9-0.2-3.8-0.6-5.7-0.4-1.8-1.1-3.5-1.9-5.1-1-2-2.6-3.6-4.7-4.5-1.2-0.5-2.5-0.8-3.8-0.9-2.1-0.2-4.3 0-6.3 0.6-2.5 0.8-4.6 2.3-6.2 4.4-1.7 2.4-2.9 5.1-3.5 7.9-0.1 0.3-0.1 0.7-0.2 1-0.2 1-0.4 1.9-0.5 2.9 0 0.4 0.1 0.8 0.2 1.2h4.2c1.7-0.1 3.3-0.3 4.9-0.4 2.6-0.1 5.3 0 7.9-0.1 2.8-0.1 5.6-0.3 8.4-0.5 0.8 0.1 1.4 0 2-0.1z"/>
	<path class="ofsted-logo" d="m142.5 153.8c-0.1 0.7-0.2 1.3-0.2 1.8v45.3 8.5c0 1.4-0.1 1.5-1.5 1.5h-11.2c-0.4 0-0.7 0-1-0.1-0.3-0.2-0.5-0.4-0.6-0.8-0.1-1 0-2 0-3.1v-51.9c0-0.4-0.1-0.9-0.2-1.3-0.5 0-1-0.1-1.4-0.1h-8.5c-1.5 0-1.7-0.2-1.7-1.7v-5.2c0-1 0.2-1.2 1.2-1.5 1.6-0.5 3.3-0.8 5-0.7 0.3 0 0.5 0 0.8-0.1 1.3-0.4 2.7-0.6 4.1-0.6 0.2 0 0.4-0.1 0.6-0.1 0.1-0.1 0.2-0.3 0.2-0.4 0.1-1.5 0.2-3.1 0.2-4.6 0-2-0.2-3.9-0.2-5.9 0-2.4 0-4.8 0.2-7.2 0.1-2.6 0.7-5.1 1.7-7.4 1.2-2.3 2.8-4.4 4.9-6 1.5-1.1 3.2-2 5-2.6 2-0.7 4.1-1 6.1-0.9 2.9 0 5.7 0.2 8.6 0.4 1.8 0.2 3.6 0.6 5.3 1 0.4 0.1 0.8 0.2 1.3 0.2 1.1 0.1 2.2 0.5 3 1.1 0.2 1.2 0.1 2.4-0.2 3.6-0.2 0.7-0.3 1.4-0.4 2.2 0 0.9-0.3 1.8-0.8 2.6-1.1 0.1-2.3 0.1-3.4 0-2.6-0.5-5.2-0.7-7.9-0.6-1.8 0-3.5 0.2-5.2 0.8-1.7 0.7-2.9 2.1-3.3 3.9-0.6 1.8-0.8 3.7-0.7 5.6v13.1 1c0.4 0.5 1 0.7 1.6 0.6h15 1c1.1 0 1.4 0.3 1.4 1.4v1.3 5.1c0 1.6-0.3 2-1.9 2l-16.9-0.2z"/>
	<path class="ofsted-logo" d="m166 199.8c1.4 0.3 2.6 0.6 3.8 0.8 1.9 0.3 3.9 0.6 5.8 0.8 1.3 0.2 2.5 0.3 3.8 0.4 1.9 0.1 3.8 0 5.7 0 0.9 0 1.9-0.1 2.8-0.3 2.3-0.3 4.4-1.2 6.2-2.6 1.1-0.8 1.9-2 2.3-3.2 0.5-1.5 0.7-3.2 0.4-4.8-0.1-0.3-0.1-0.5-0.2-0.8-0.1-1.9-1.3-3.6-3-4.3-1.5-0.8-3-1.5-4.6-2.1-1.1-0.4-2.2-0.7-3.4-0.9l-1.8-0.6c-1.1-0.3-2.2-0.6-3.3-1-3-0.9-5.9-2.2-8.6-3.8-2.4-1.4-4.5-3.5-5.9-5.9-1.2-1.9-1.9-4.1-2-6.4v-3.9c0-0.9 0.1-1.8 0.3-2.7 0.4-1.9 1.1-3.8 2-5.5 1.1-1.8 2.4-3.4 4-4.8 2-1.7 4.2-3 6.7-3.9 1.5-0.5 3.1-0.9 4.7-1.1l1.5-0.3c1-0.3 2.1-0.5 3.2-0.4h2.6l3.9 0.3c1 0.1 2 0.2 3 0.4 0.7 0.1 1.3 0.3 2 0.4 0.8 0.2 1.7 0.3 2.6 0.5 0.3 0.1 0.7 0.2 1 0.3 0.6 0.1 1.1 0.3 1.7 0.4 1.7 0.3 3.3 0.9 4.7 1.9l-1.2 4.8c0.1 1.3-0.3 2.5-1 3.5-1 0.2-2.1 0.1-3.1-0.3-3.1-0.8-6.2-1.2-9.3-1.3-1 0-1.9-0.2-2.8-0.2-1.7-0.1-3.3 0-5 0.3-2 0.3-3.9 1.3-5.3 2.9-1.7 2.1-2.2 4.9-1.4 7.5 0.4 1.5 1.4 2.8 2.7 3.6 2.5 1.6 5.3 2.7 8.3 3.3 1.9 0.5 3.7 1 5.5 1.6 1.7 0.5 3.5 1.1 5.1 1.8 1.7 0.8 3.3 1.7 4.8 2.8 1 0.7 1.9 1.5 2.7 2.5 1.8 2 2.9 4.5 3.3 7.1 0.5 3.3 0.4 6.7-0.3 10-0.5 2.4-1.5 4.7-2.9 6.7-1.3 1.9-3 3.6-5 4.8-2.2 1.4-4.5 2.5-7 3.2-2.7 0.8-5.5 1.3-8.4 1.3-0.8 0-1.7 0.2-2.5 0.2-1.6 0-3.2-0.1-4.8-0.3-2.6-0.3-5.2-0.5-7.7-0.9-1.2-0.2-2.4-0.6-3.6-0.8-0.9-0.2-1.8-0.3-2.7-0.5-0.5-0.1-1.1-0.3-1.6-0.5-1-0.5-1.1-0.8-0.8-1.9 0.5-1.8 0.8-3.6 1.3-5.4 0.1-1 0.5-1.7 0.8-2.7z"/>
	<path class="ofsted-logo" d="m223.1 144.5c0.1-0.6 0.2-1.2 0.2-1.8v-14.4-1.1c0.1-0.7 0.7-1.3 1.4-1.3 2.7-0.3 5.4 0.2 8.1 0 0.8-0.1 1.6-0.1 2.4-0.2 0.5 0 0.9 0 1.4 0.1 0.8 0.1 1.5 0.8 1.4 1.6v0.1 6.4 8.4c0 1.3 0.2 1.5 1.5 1.5h15 1.2c0.5 0.4 0.8 1.1 0.6 1.7v6.5c0 1.3-0.3 1.6-1.6 1.6h-14.8-1.3c-0.5 0.4-0.7 1-0.6 1.6v9.5 31.1c-0.1 2.3 1.4 4.3 3.6 5 0.8 0.3 1.6 0.4 2.4 0.4 2.1 0.1 4.2-0.1 6.2-0.5 1.8-0.4 3.5-0.7 5.3-1.1 0.9-0.2 1-0.1 1.4 0.6 0.1 0.1 0.1 0.2 0.1 0.3 0.3 1.8 1.1 3.5 1.4 5.3 0.1 0.3 0.2 0.7 0.3 1 0.2 0.7 0.1 1.1-0.6 1.4-0.8 0.3-1.7 0.6-2.6 0.8-0.2 0-0.3 0-0.5 0.1-1.2 0.4-2.3 1-3.5 1.3-1.7 0.5-3.4 0.8-5.2 1.2-3 0.6-6 0.8-9.1 0.6-1.4-0.1-2.7-0.4-4-0.9-3.3-1-6.1-3.3-7.7-6.4-0.5-1-1-2.1-1.4-3.1-0.3-0.9-0.4-1.8-0.5-2.7-0.3-1.7-0.4-3.4-0.5-5.1v-38.6c0-2.1 0-2.1-2.1-2.1-2.5 0-4.9-0.1-7.3 0-0.9 0.2-1.8-0.4-2-1.3v-0.7c0.1-1.4 0-2.8 0-4.2-0.2-1.1 0.6-2.1 1.6-2.2h0.4 1.2c1.1 0 2.2-0.1 3.3-0.5 0.8-0.1 1.6-0.2 2.3-0.2l2.6 0.3z"/>
	<path class="ofsted-logo" d="m259.4 93.1c-0.3 0.4-0.3 0.9 0 1.3 0.9 1.1 1.7 2.2 2.5 3.3s1.6 2.3 2.4 3.4l3 3.9c1 1.3 1.9 2.6 2.8 4 0.3 0.5 0.6 0.9 0.9 1.4 0.7 0.9 1.2 2 1.5 3.1 0.1 0.2 0.1 0.5 0 0.7-0.1 0.3-0.1 0.5-0.2 0.8-0.2 1.5-1 2.9-2.2 3.9-1.1 1-2.6 1.4-4.1 1.2-2.1-0.1-4.1-1.3-5.1-3.2-2.4-3.1-4.6-6.3-7-9.4-1.3-1.7-2.5-3.4-3.8-5.1-0.3-0.6-1-1-1.7-0.9s-1.3 0.6-1.3 1.3c-0.1 0.8-0.9 1-1.2 1.5-1.3 1.8-2.7 3.6-4 5.4-1.3 1.7-2.7 3.4-3.9 5.2-0.9 1.3-1.8 2.5-2.9 3.6-0.7 0.9-1.7 1.4-2.8 1.5-0.8 0.1-1.6 0.1-2.5 0-1.4-0.3-2.6-1-3.5-2.1-1-1.2-1.5-2.8-1.3-4.4 0-0.9 0.3-1.8 0.9-2.5 1.9-2.6 3.7-5.2 5.6-7.8 0.3-0.5 0.9-0.8 1.1-1.3 0.3-0.7 0.7-1.3 1.2-1.8 1.4-1.7 2.7-3.5 4-5.2 0.2-0.2 0.3-0.5 0.4-0.7 0.2-0.5 0-0.8-0.5-1-1.3-0.5-2.7-0.8-4-1.3-2-0.8-4.2-1.2-6.3-1.9-3.1-0.8-6.2-1.8-9.2-3.1-0.5-0.2-0.9-0.4-1.4-0.6-1.2-0.5-2.1-1.6-2.4-2.9-0.2-0.4-0.4-0.9-0.5-1.3s-0.1-0.9 0-1.3c0.2-0.9 0.5-1.7 0.8-3 0.7-0.5 1.7-1.3 2.7-2 1.3-0.8 2.8-0.9 4.2-0.4 0.8 0.2 1.5 0.6 2.3 0.9 0.4 0.1 0.7 0.3 1.1 0.4l3.7 1.2c0.8 0.3 1.6 0.6 2.4 0.8 1.1 0.3 2.3 0.5 3.4 0.8 0.8 0.2 1.6 0.6 2.4 0.8 2.8 0.9 5.6 1.8 8.5 2.7 0.2 0 0.5 0.1 0.7 0.2 1.3 0.7 2.9 0.7 4.2 0.1 0.6-0.2 1.3-0.4 1.9-0.5 0.3-0.1 0.5-0.2 0.8-0.3 0.1-0.1 0.3-0.2 0.4-0.3 1.9-0.1 3.5-1.2 5.4-1.4 0.7-0.1 1.3-0.4 1.9-0.6 1.1-0.4 2.1-0.8 3.2-1.1 1.1-0.4 2.3-0.7 3.5-1 0.7-0.2 1.4-0.5 2.1-0.7 1.1-0.4 2.2-0.8 3.3-1.2 0.9-0.5 1.8-0.8 2.8-1 1.1 0 2.2-0.6 3.3 0.4 0.4 0.4 1.1 0.4 1.6 0.8 1.5 1.1 2.4 2.9 2.4 4.7 0 1.5-0.5 2.9-1.6 4-1.2 1.2-2.6 2-4.3 2.4-1.1 0.3-2.2 0.7-3.2 1-2.7 0.8-5.4 1.5-8 2.6-1.3 0.3-2.6 0.7-3.8 1.2-0.4 0.2-1.5 0.6-2.6 0.8z"/>
	<path class="ofsted-logo" d="m170.3 86.5c0.9 0 1.7 0.2 2.5 0.6 1.2 0.4 2.4 0.6 3.6 1 1 0.3 2 0.7 3 1 1.6 0.5 3.2 1 4.8 1.6 1.2 0.4 2.3 0.8 3.5 1.2s2.2 0.8 3.3 1.1c0.4 0.1 0.8 0.1 1.2-0.1 0.6-0.2 1.3-0.4 1.9-0.7 2.1-0.7 4.1-1.5 6.2-2.2 1.6-0.5 3.3-0.8 4.9-1.3 1.8-0.6 3.6-1.2 5.3-1.8 2.6-1 5.5 0.2 6.5 2.8 0.5 1.4 0.3 2.9-0.7 4.1-0.6 0.9-1.5 1.5-2.6 1.7-1 0.3-1.9 0.6-2.9 0.9s-2.1 0.7-3.1 1l-3 0.9c-0.7 0.1-1.4 0.3-2 0.5-0.8 0.4-1.7 0.6-2.6 0.8-0.7 0.1-0.9 1-0.5 1.7 0.3 0.4 0.6 0.8 0.9 1.2 1.7 2.2 3.3 4.5 5 6.7 1.1 1.5 2.2 3 3.2 4.6 0.3 0.5 0.4 1 0.4 1.5 0.2 2.4-1.5 4.5-3.9 4.7h-1c-2-0.1-2.1-0.2-3.3-1.8-1.8-2.4-3.6-4.9-5.5-7.3-0.4-0.5-0.9-0.9-1.3-1.4-0.6-0.8-1.1-1.7-1.6-2.6-0.6-1.1-1.5-1.2-2.4 0-1.7 2.4-3.5 4.7-5.2 7-0.3 0.3-0.5 0.7-0.7 1.1-0.3 0.8-0.8 1.5-1.5 2.1-0.5 0.5-1 1-1.3 1.6-0.7 1-1.9 1.4-3.1 1.3-1.9 0.1-3.6-1.1-4.3-2.8-0.5-1.1-0.5-2.3 0-3.4 0.5-0.9 1-1.7 1.7-2.4 1.1-1.4 2.1-2.9 3.2-4.4 1.4-1.8 2.7-3.6 4.1-5.5 0.7-1 0.4-1.7-0.8-1.9-0.5-0.1-1-0.3-1.4-0.5-0.1 0-0.2-0.1-0.3-0.1-1.4-0.3-2.7-0.7-4-1.2-1.5-0.3-2.9-0.9-4.4-1.4-0.3-0.1-0.5-0.2-0.8-0.3-1-0.2-2-0.5-3-0.9-1.5-0.9-2.9-1.9-2.7-4v-0.2c-0.3-2.2 1.1-3.3 2.7-4.2 0.8-0.2 1.4-0.3 2-0.3z"/>
	<path class="ofsted-logo" d="m371.5 246.4c1.2 0.8 2.3 1.5 3.3 2.3 1.7 1.2 2.9 2.9 3.6 4.8 1.7 5-0.8 10.5-5.7 12.6-3.1 1.3-6.5 1.7-9.8 1.2-1.5-0.2-3-0.5-4.4-0.9-5-1.6-7.8-7-6.2-12 0.5-1.5 1.3-2.8 2.4-3.9 1.1-1 2.2-1.9 3.4-2.7 0.3-0.2 0.6-0.4 1.1-0.7-0.8-0.6-1.5-1.1-2.1-1.6-1.9-1.4-3.1-3.4-3.6-5.7-1.1-4.4 1.1-9 5.2-10.9 4-1.9 8.6-2.1 12.8-0.5 4.8 1.7 7.3 6.9 5.6 11.6-0.3 0.8-0.7 1.6-1.2 2.3-1 1.4-2.1 2.6-3.5 3.5l-0.9 0.6zm-6.2 3.6c-1.7 0.7-3.4 1.7-4.7 3-0.5 0.5-1 1.1-1.3 1.8-1.2 2.2-0.4 5 1.8 6.2 0.4 0.2 0.9 0.4 1.4 0.5 1.6 0.2 3.2 0.3 4.8 0.2 0.7-0.1 1.5-0.3 2.1-0.6 1.9-0.8 3-2.9 2.5-5-0.3-1.5-1.2-2.7-2.4-3.5-1.3-1-2.8-1.8-4.2-2.6zm0.5-6.4c0.5-0.3 0.8-0.5 1.2-0.7 1.4-0.8 2.6-2.1 3.4-3.5 1.1-2 0.4-4.5-1.6-5.7-0.4-0.2-0.9-0.4-1.4-0.5-1.5-0.3-3.1-0.3-4.6 0.1-1.4 0.3-2.5 1.5-2.8 3-0.4 1.6 0.1 3.2 1.3 4.4 1.4 1.2 2.9 2.2 4.5 2.9z"/>
	<path class="ofsted-logo" d="m245.8 250.9c-0.6 0.2-1.1 0.4-1.6 0.5-3.2 1.2-6.8 1.4-10.1 0.5-3.8-0.8-6.7-3.9-7.3-7.7-0.6-2.8-0.5-5.8 0.4-8.5 1.3-4.4 5.2-7.7 9.8-8.2 2-0.4 4.1-0.3 6.1 0.1 3.4 0.7 6.2 3 7.6 6.2 1.1 2.5 1.7 5.1 1.9 7.8 0.1 1.8 0.2 3.6 0.2 5.4 0 3.9-0.8 7.7-2.3 11.3-2.1 5-6.8 8.4-12.1 8.8-2.4 0.3-4.9 0.1-7.3-0.5-0.5-0.1-1-0.3-1.5-0.5-1.3-0.4-2.2-1.6-2-3v-1.1c0.1-1.8 1-2.4 2.7-1.9 1.2 0.4 2.5 0.8 3.8 1 2.9 0.7 5.9 0 8.2-1.8 1.4-1.3 2.4-2.9 2.9-4.7 0.3-1 0.5-2.3 0.6-3.7zm0-6c0.2-2.6-0.2-5.3-1.1-7.8-1.1-3-4.5-4.6-7.5-3.5-1.4 0.5-2.6 1.6-3.3 3-0.8 2-1 4.3-0.4 6.4 0.4 2.1 2.2 3.7 4.4 3.8 0.8 0.1 1.7 0.1 2.5 0 1.9-0.2 3.8-0.8 5.4-1.9z"/>
	<path class="ofsted-logo" d="m265.4 243.9c1.6-0.4 3-0.9 4.4-1.2 2.4-0.5 4.8-0.5 7.2 0.1 4.1 0.9 7.1 4.3 7.5 8.5 0.5 2.8 0.2 5.7-0.9 8.4-1.6 4.2-5.4 7.1-9.8 7.6-1.9 0.3-3.8 0.3-5.7-0.1-3.7-0.6-6.8-3.2-8.1-6.8-0.9-2.3-1.4-4.8-1.5-7.3-0.1-1.8-0.2-3.6-0.2-5.3 0-3.4 0.5-6.8 1.6-10 1-3.1 2.9-5.8 5.5-7.7 1.8-1.3 3.8-2.1 6-2.4 3-0.5 6.1-0.3 9 0.7 2 0.7 3 2.9 2.3 4.8 0 0.1-0.1 0.3-0.2 0.4-0.4 0.9-1.4 1.3-2.3 0.9-1.2-0.4-2.3-0.7-3.5-0.9-1.4-0.2-2.8-0.2-4.1 0-2.4 0.4-4.4 1.9-5.6 4-1 1.8-1.6 3.8-1.8 5.9 0.2 0 0.2 0.2 0.2 0.4zm-0.1 6.1v2.5c0.1 1 0.2 2 0.4 2.9 0.2 1.3 0.6 2.6 1.3 3.8 0.4 0.9 1.2 1.6 2.1 2 3 1.4 6.6 0 8-3.1 0.1-0.2 0.2-0.4 0.3-0.7 0.6-1.8 0.7-3.7 0.3-5.5-0.2-2-1.7-3.5-3.7-3.8-3.1-0.4-6.1 0.2-8.7 1.9z"/>
	<path class="ofsted-logo" d="m296.8 243.9c1.6-0.4 3-0.9 4.4-1.2 2.4-0.5 4.8-0.5 7.2 0.1 4.1 0.9 7.2 4.4 7.5 8.6 0.4 2.8 0.1 5.6-0.9 8.3-1.6 4.2-5.4 7.1-9.8 7.6-1.9 0.3-3.8 0.3-5.7-0.1-3.7-0.6-6.8-3.2-8.1-6.8-0.9-2.3-1.4-4.8-1.5-7.3-0.1-1.8-0.2-3.6-0.2-5.3 0-3.4 0.5-6.8 1.6-10 1-3.1 2.9-5.8 5.5-7.7 1.8-1.3 3.8-2.1 6-2.4 3-0.5 6.1-0.3 9 0.7 2 0.7 3 2.8 2.3 4.8 0 0.1-0.1 0.3-0.2 0.4-0.4 0.9-1.4 1.3-2.3 0.9-1.2-0.4-2.3-0.7-3.5-0.9-1.4-0.2-2.8-0.2-4.1 0-2.4 0.4-4.4 1.9-5.5 4-1 1.8-1.6 3.8-1.8 5.9 0 0 0 0.2 0.1 0.4zm-0.1 6.1c-0.1 1.8 0 3.6 0.3 5.3 0.2 1.4 0.6 2.7 1.3 3.9 0.5 0.9 1.2 1.6 2.2 1.9 3.1 1.3 6.6-0.1 8-3.1 0.2-0.4 0.3-0.7 0.4-1.1 0.5-1.8 0.5-3.6 0-5.4-0.3-1.6-1.5-2.8-3-3.2-1.2-0.3-2.4-0.3-3.6-0.3-2 0.2-3.9 0.9-5.6 2z"/>
	<path class="ofsted-logo" d="m328.4 244 1.2-0.4c3.5-1.4 7.4-1.6 11-0.5 3.3 0.9 5.8 3.5 6.5 6.8 0.9 3.3 0.7 6.7-0.5 9.9-1.6 4.2-5.4 7.1-9.8 7.6-1.9 0.3-3.8 0.3-5.7-0.1-3.7-0.6-6.8-3.2-8.1-6.8-0.9-2.3-1.4-4.8-1.5-7.3-0.1-1.8-0.2-3.6-0.2-5.3 0-3.4 0.5-6.8 1.6-10 1-3.1 2.9-5.8 5.5-7.7 1.8-1.3 3.8-2.1 6-2.5 3-0.6 6.1-0.3 9 0.6 2 0.7 3 2.8 2.3 4.8 0 0.1-0.1 0.3-0.2 0.4-0.4 0.9-1.4 1.3-2.3 0.9-1.2-0.4-2.3-0.7-3.5-0.9-1.4-0.2-2.8-0.2-4.1 0-2.2 0.3-4.2 1.7-5.3 3.6s-1.8 4.1-2 6.4c0 0.1 0 0.3 0.1 0.5zm-0.1 6c-0.2 1.8 0 3.6 0.4 5.4 0.3 1.3 0.7 2.5 1.2 3.7 0.4 0.9 1.1 1.6 2 2 3 1.4 6.5 0.3 8-2.6 1-2 1.2-4.3 0.7-6.5-0.2-2-1.8-3.6-3.8-3.8-3-0.5-6 0.1-8.5 1.8z"/>
	<path class="ofsted-logo" d="m217.4 252.5h2.7c1.2-0.1 2.3 0.7 2.5 2v0.4 1.4c0 1.2-1 2.2-2.2 2.1h-0.2c-0.8 0-1.7 0-2.5 0.1-0.1 0-0.1 0.1-0.4 0.2v1.7 4.6c0 1.2-0.4 1.8-1.6 2-1.1 0.2-2.2 0.2-3.3 0.1-1.4-0.2-1.8-0.8-1.8-2.2v-5c0-0.4 0-0.8-0.1-1.4h-13.2-1c-1.2 0.1-2.2-0.8-2.3-2v-0.2c-0.2-1.7 0.1-3.3 1-4.8 3.2-5.4 6.4-10.8 9.6-16.3 1.1-1.8 2.2-3.7 3.2-5.5 0.6-1.1 1.6-1.9 2.9-2 1.6-0.2 3.2-0.2 4.7 0.1 1.1 0 2 0.9 2 2.1v0.3 20.7 1.6zm-6.8-0.1v-16l-9.4 16h9.4z"/>
	<path class="ofsted-logo" d="m143.8 233.8v9.6c0.4 0 0.9 0.1 1.3 0.1 3.2 0 6.3 0.1 9.5 0 1.3-0.2 2.5 0.7 2.7 2v0.6 0.7c0 2-0.8 2.7-2.7 2.7h-9.3-1.3c-0.3 3.8-0.4 7.7-0.1 11.5 0.4 0 0.9 0.1 1.3 0.1h11.6c2.1 0 2.6 1 2.8 2.6 0 0.4 0 0.8-0.1 1.2-0.3 1.6-0.9 2.2-2.6 2.2h-16.6c-2.3 0-3.4-1-3.4-3.3v-32.5c0-2.3 1-3.3 3.3-3.4h16.5c1.5 0 2.1 0.4 2.4 1.9 0.1 0.9 0.1 1.7-0.1 2.6-0.1 0.9-1 1.6-1.9 1.5h-1l-12.3-0.1z"/>
	<path class="ofsted-logo" d="m177.9 244.4c0.4-0.9 0.8-1.8 1.2-2.6l6-12.6c0.3-0.7 0.9-1.2 1.7-1.3 1.3-0.3 2.6-0.3 3.9 0 0.9 0.1 1.5 0.9 1.4 1.8 0 0.2-0.1 0.3-0.1 0.4-0.2 0.4-0.3 0.9-0.6 1.3-3.2 6.4-6.4 12.9-9.6 19.3-0.4 0.7-0.5 1.5-0.5 2.3v11.4c0 2.2-0.4 2.7-2.5 2.9-0.9 0.1-1.8 0-2.7-0.2-1.2-0.2-1.6-0.8-1.6-2.1v-11.6c0-1-0.2-2-0.7-2.8-2.7-5.4-5.4-10.7-8.1-16.1-0.6-1.3-1.3-2.6-1.8-3.8-0.7-1.6-0.3-2.6 1.5-2.8 1.3-0.1 2.5 0 3.8 0.1 0.8 0.1 1.5 0.7 1.7 1.5 1.4 2.9 2.7 5.7 4.1 8.6 1 2 1.9 4.1 2.8 6.1-0.1-0.1 0 0 0.1 0.2z"/>
	<path class="ofsted-logo" d="m318 48.7v-4.7c-0.1-0.7 0.2-1.3 0.6-1.9 0.2-0.2 0.3-0.4 0.4-0.6 0.9-1.5 2.2-2.8 3.8-3.6 0.1-0.1 0.2-0.1 0.3-0.1 1.8 0 3.5-0.1 5.3 0 0.4 0 0.8 0.4 1.1 0.7 1.2 0.8 2.2 1.9 3 3.1 0.6 1 0.9 2.1 0.9 3.3v8.5c0 0.6-0.1 1.3-0.5 1.8-0.6 0.9-1.2 1.8-1.9 2.7-0.8 0.7-1.8 1.3-2.8 1.7-0.8 0.2-1.5 0.4-2.3 0.5h-0.2c-2.3-0.2-4.4-1.2-5.9-2.8-1.2-1.2-1.8-2.8-1.7-4.4 0-1.5 0-2.9-0.1-4.2z"/>
	<path class="ofsted-logo" d="m254.8 65.5v3.4c-0.1 1.4-0.8 2.8-2 3.6-0.8 0.6-1.7 1.1-2.7 1.4-0.7 0.2-1.4 0.2-2.1 0-0.5-0.1-1.1-0.2-1.6-0.4-0.9-0.3-1.7-0.9-2.3-1.7-1-1.1-1.4-2.6-1.2-4 0.1-2.1 0.2-4.2 0.2-6.4 0-0.7 0.3-1.3 0.8-1.8 1-1.6 2.7-2.5 4.6-2.4h0.5c2-0.1 4 0.9 5 2.7 0.7 0.9 1 2 0.8 3.1 0 0.9 0.1 1.7 0 2.5z"/>
	<path class="ofsted-logo" d="m186.9 79.3v-1.9c0.2-2.2 1.7-4 3.9-4.4 1.8-0.3 3.5 0.5 4.5 2 0.1 0.2 0.2 0.4 0.2 0.7 0.1 0.2 0 0.5 0.1 0.7 0.7 1.4 0.8 3 0.5 4.5-0.1 1-0.3 1.9-0.8 2.8-1.1 1.6-3.1 2.4-5.1 2-0.8-0.3-1.5-0.8-2.2-1.3-0.7-0.6-1.1-1.5-1.1-2.4v-2.7z"/>
</g>
</svg>
